<svg xmlns="http://www.w3.org/2000/svg" width="46" height="41" viewBox="0 0 46 41" fill="none">
  <path d="M22.2351 5.37871C16.8493 2.30601 11.0711 0.451916 5.47314 0V31.5051C11.0705 31.9446 16.8385 33.7479 22.2351 36.7418V5.37871Z" fill="#008080"/>
  <path d="M22.0515 38.3714C22.491 38.5215 22.9538 38.528 23.3933 38.3779C29.6871 35.655 36.2785 34.4294 42.7214 34.7118V3.51987C42.1415 3.49396 41.5579 3.48802 40.9721 3.49018V32.4268L40.5121 32.4571C34.75 32.8334 28.7784 34.7123 23.2232 37.8822C22.9025 37.9918 22.5553 37.9918 22.2351 37.8822C16.6793 34.7123 10.7083 32.8334 4.94623 32.4571L4.48514 32.4268V3.49018C3.89986 3.48802 3.31567 3.49342 2.73633 3.51987V34.7118C9.17869 34.4289 15.756 35.6485 22.0515 38.3714Z" fill="#008080"/>
  <path d="M45.4572 7.02121C44.8795 6.94076 44.2926 6.8981 43.7095 6.84033V35.7532L43.1868 35.723C36.6025 35.3456 29.6564 36.6824 23.2232 39.5375L22.7286 39.7432L22.2346 39.5375C15.8003 36.6824 8.85474 35.345 2.27038 35.723L1.74827 35.7532V6.84033C1.16461 6.89864 0.577718 6.9413 0 7.02121V38.7185C0.320714 38.8842 0.56368 39.1223 0.56368 39.1223C7.55623 38.1775 14.8139 38.293 21.7179 40.5537C22.0353 40.5224 22.3723 40.5024 22.7291 40.5024C23.086 40.5024 23.4229 40.5224 23.7399 40.5537C30.6428 38.2925 37.9015 38.1775 44.8935 39.1223C44.8935 39.1223 45.1495 38.8729 45.4572 38.7185V7.02121Z" fill="#008080"/>
  <path d="M30.7194 1.9772V13.1131L28.5705 10.555L26.3055 13.1131V3.77352C25.2667 4.26485 24.2381 4.79992 23.2236 5.37925V36.7418C28.6191 33.7479 34.3887 31.9446 39.9855 31.5051V0C36.9193 0.247825 33.7991 0.918409 30.7194 1.9772Z" fill="#008080"/>
</svg>