<svg width="350" height="322" viewBox="0 0 350 322" fill="none" xmlns="http://www.w3.org/2000/svg">
<path d="M175 322C271.65 322 350 281.054 350 230.544C350 180.035 271.65 139.089 175 139.089C78.3502 139.089 0 180.035 0 230.544C0 281.054 78.3502 322 175 322Z" fill="#F5F5F5"/>
<path d="M149.135 217.748C168.925 217.748 184.968 209.362 184.968 199.018C184.968 188.674 168.925 180.289 149.135 180.289C129.346 180.289 113.303 188.674 113.303 199.018C113.303 209.362 129.346 217.748 149.135 217.748Z" fill="#E0E0E0"/>
<path d="M287.382 252.355C306.648 262.424 306.648 278.725 287.382 288.815C268.116 298.905 236.876 298.891 217.618 288.815C198.36 278.739 198.353 262.445 217.618 252.348C236.884 242.251 268.116 242.272 287.382 252.355Z" fill="#E0E0E0"/>
<path d="M107.452 186.159L208.648 239.031C209.052 239.242 209.389 239.545 209.622 239.91C209.856 240.276 209.979 240.691 209.979 241.113C209.979 241.535 209.856 241.95 209.622 242.316C209.389 242.681 209.052 242.984 208.648 243.195L148.942 274.423C147.705 275.07 146.301 275.411 144.871 275.411C143.442 275.411 142.038 275.07 140.801 274.423L39.62 221.516C39.2136 221.307 38.8755 221.004 38.6403 220.639C38.4051 220.273 38.2812 219.857 38.2812 219.434C38.2812 219.011 38.4051 218.595 38.6403 218.23C38.8755 217.864 39.2136 217.561 39.62 217.352L99.3333 186.125C100.571 185.485 101.973 185.151 103.398 185.157C104.823 185.163 106.221 185.509 107.452 186.159Z" fill="#E0E0E0"/>
<path d="M68.4537 225.499L138.586 263.243C138.837 263.377 139.045 263.567 139.19 263.796C139.335 264.025 139.411 264.284 139.411 264.548C139.411 264.811 139.335 265.071 139.19 265.299C139.045 265.528 138.837 265.719 138.586 265.852L101.02 285.47C100.243 285.876 99.3611 286.089 98.4637 286.089C97.5662 286.089 96.6845 285.876 95.9069 285.47L25.821 247.726C25.5679 247.594 25.3576 247.404 25.2114 247.175C25.0652 246.946 24.9883 246.686 24.9883 246.422C24.9883 246.157 25.0652 245.897 25.2114 245.668C25.3576 245.439 25.5679 245.249 25.821 245.117L63.3862 225.499C64.1583 225.101 65.0315 224.892 65.9199 224.892C66.8084 224.892 67.6816 225.101 68.4537 225.499Z" fill="#E0E0E0"/>
<path d="M197.317 148.409L317.679 211.28C318.533 211.727 319.502 211.962 320.489 211.962C321.475 211.962 322.444 211.727 323.298 211.28L330.857 207.332C331.154 207.178 331.4 206.956 331.571 206.689C331.742 206.421 331.832 206.118 331.832 205.809C331.832 205.5 331.742 205.196 331.571 204.928C331.4 204.661 331.154 204.439 330.857 204.285L210.58 141.455C209.704 140.995 208.71 140.753 207.697 140.753C206.685 140.753 205.69 140.995 204.815 141.455L197.332 145.362C197.035 145.515 196.788 145.736 196.615 146.002C196.443 146.269 196.351 146.572 196.35 146.881C196.348 147.191 196.437 147.495 196.607 147.763C196.776 148.031 197.022 148.254 197.317 148.409Z" fill="#E0E0E0"/>
<path d="M206.201 145.217L323.159 206.34C323.577 206.559 324.052 206.675 324.535 206.675C325.018 206.676 325.493 206.562 325.911 206.344C326.33 206.126 326.678 205.812 326.92 205.433C327.163 205.055 327.29 204.626 327.291 204.188V64.7462C327.289 63.5562 326.942 62.3875 326.284 61.3572C325.626 60.3268 324.681 59.471 323.542 58.8754L211.79 0.451842C211.223 0.155803 210.581 -3.39893e-05 209.927 5.56064e-09C209.273 3.40004e-05 208.63 0.155937 208.064 0.452035C207.497 0.748134 207.027 1.17399 206.7 1.6868C206.373 2.19961 206.201 2.78129 206.201 3.37337V145.217Z" fill="#008080"/>
<path opacity="0.5" d="M206.201 145.217L323.159 206.34C323.577 206.559 324.052 206.675 324.535 206.675C325.018 206.676 325.493 206.562 325.911 206.344C326.33 206.126 326.678 205.812 326.92 205.433C327.163 205.055 327.29 204.626 327.291 204.188V64.7462C327.289 63.5562 326.942 62.3875 326.284 61.3572C325.626 60.3268 324.681 59.471 323.542 58.8754L211.79 0.451842C211.223 0.155803 210.581 -3.39893e-05 209.927 5.56064e-09C209.273 3.40004e-05 208.63 0.155937 208.064 0.452035C207.497 0.748134 207.027 1.17399 206.7 1.6868C206.373 2.19961 206.201 2.78129 206.201 3.37337V145.217Z" fill="white"/>
<path d="M209.514 151.622L316.758 207.665V65.9676L209.514 9.92432V151.622Z" fill="#008080"/>
<path opacity="0.8" d="M209.514 151.622L316.758 207.665V65.9676L209.514 9.92432V151.622Z" fill="white"/>
<path d="M199.041 140.303L306.286 196.347L316.758 65.9676L209.513 9.92432L199.041 140.303Z" fill="#008080"/>
<path opacity="0.9" d="M199.041 140.303L306.286 196.347L316.758 65.9676L209.513 9.92432L199.041 140.303Z" fill="white"/>
<path d="M209.514 9.92437L316.758 65.9677L320.822 63.8442L213.577 7.79395L209.514 9.92437Z" fill="#008080"/>
<path opacity="0.7" d="M209.514 9.92437L316.758 65.9677L320.822 63.8442L213.577 7.79395L209.514 9.92437Z" fill="white"/>
<path d="M320.821 63.8442V205L316.758 207.665V65.9677L320.821 63.8442Z" fill="#008080"/>
<path d="M320.821 63.8442V205L316.758 207.665V65.9677L320.821 63.8442Z" fill="#008080"/>
<path opacity="0.7" d="M320.821 63.8442V205L316.758 207.665V65.9677L320.821 63.8442Z" fill="white"/>
<path d="M287.244 84.3572C287.149 84.3678 287.054 84.3678 286.96 84.3572C286.798 84.3173 286.649 84.2438 286.524 84.1427C286.399 84.0415 286.301 83.9154 286.239 83.7742L283.05 76.5225C282.947 76.2822 282.953 76.0147 283.066 75.7782C283.179 75.5417 283.391 75.3553 283.656 75.2595C283.786 75.2111 283.927 75.1868 284.068 75.1879C284.209 75.189 284.349 75.2155 284.478 75.2658C284.608 75.3162 284.726 75.3894 284.824 75.4813C284.922 75.5731 284.999 75.6817 285.051 75.8008L287.704 81.8312L302.967 70.8598C303.078 70.7767 303.206 70.7146 303.344 70.6772C303.482 70.6398 303.627 70.6278 303.77 70.6421C303.913 70.6563 304.051 70.6964 304.177 70.7601C304.302 70.8237 304.412 70.9096 304.501 71.0125C304.59 71.1136 304.657 71.2297 304.698 71.3542C304.738 71.4787 304.75 71.6092 304.735 71.7382C304.719 71.8671 304.675 71.992 304.606 72.1056C304.537 72.2193 304.444 72.3195 304.332 72.4004L287.934 84.1975C287.731 84.3208 287.487 84.3772 287.244 84.3572Z" fill="#008080"/>
<path d="M269.417 68.7227C269.23 68.7224 269.045 68.6795 268.881 68.5978L223.726 45.0035C223.479 44.8737 223.299 44.6605 223.226 44.4106C223.152 44.1607 223.192 43.8947 223.335 43.6711C223.478 43.4475 223.714 43.2846 223.99 43.2182C224.266 43.1518 224.56 43.1875 224.807 43.3172L269.962 66.9115C270.17 67.0175 270.333 67.1833 270.425 67.3827C270.518 67.5821 270.534 67.8037 270.471 68.0123C270.409 68.221 270.271 68.4049 270.08 68.5348C269.89 68.6647 269.656 68.7333 269.417 68.7296V68.7227Z" fill="#008080"/>
<path d="M268.384 77.1124C268.195 77.1129 268.01 77.0674 267.848 76.9806L222.693 53.3863C222.446 53.2566 222.266 53.0433 222.192 52.7934C222.119 52.5436 222.158 52.2776 222.302 52.0539C222.445 51.8303 222.681 51.6674 222.957 51.601C223.233 51.5347 223.527 51.5703 223.774 51.7L268.928 75.2943C269.137 75.4003 269.3 75.5661 269.392 75.7655C269.484 75.9649 269.501 76.1865 269.438 76.3952C269.376 76.6038 269.238 76.7877 269.047 76.9176C268.856 77.0475 268.623 77.1161 268.384 77.1124Z" fill="#008080"/>
<path d="M294.442 94.9817C293.953 94.9813 293.472 94.8666 293.047 94.6486L279.086 87.6605C278.08 87.1611 277.254 86.4084 276.71 85.4934C276.166 84.5783 275.926 83.5402 276.02 82.5045L277.346 68.4103C277.391 67.9746 277.555 67.5559 277.824 67.1926C278.094 66.8292 278.459 66.5328 278.888 66.3305C279.317 66.1282 279.795 66.0265 280.278 66.0346C280.761 66.0428 281.235 66.1605 281.655 66.3771L296.336 74.0522C297.032 74.42 297.602 74.9566 297.98 75.6015C298.357 76.2464 298.529 76.974 298.475 77.7023L297.279 92.5598C297.243 92.9926 297.087 93.4102 296.826 93.7741C296.565 94.138 296.206 94.4363 295.784 94.6416C295.373 94.8513 294.913 94.9679 294.442 94.9817ZM280.252 67.9801C280.07 67.9794 279.894 68.0402 279.76 68.1506C279.625 68.261 279.541 68.4131 279.523 68.5769L278.197 82.671C278.134 83.3286 278.283 83.9886 278.626 84.5712C278.969 85.1538 279.491 85.6339 280.129 85.9534L294.089 92.9484C294.197 92.9983 294.317 93.0244 294.438 93.0244C294.56 93.0244 294.679 92.9983 294.787 92.9484C294.894 92.8961 294.984 92.8204 295.05 92.7283C295.115 92.6361 295.154 92.5304 295.163 92.421L296.359 77.5635C296.385 77.2008 296.3 76.8385 296.111 76.5174C295.923 76.1963 295.64 75.9289 295.293 75.7454L280.604 68.0703C280.499 68.0103 280.376 67.979 280.252 67.9801Z" fill="#008080"/>
<path d="M266.23 103.448C266.041 103.448 265.856 103.402 265.693 103.316L220.538 79.7218C220.291 79.592 220.111 79.3787 220.038 79.1289C219.965 78.879 220.004 78.613 220.147 78.3894C220.291 78.1658 220.526 78.0029 220.802 77.9365C221.078 77.8701 221.372 77.9057 221.619 78.0355L266.774 101.63C266.982 101.736 267.146 101.902 267.238 102.101C267.33 102.3 267.346 102.522 267.284 102.731C267.221 102.939 267.084 103.123 266.893 103.253C266.702 103.383 266.469 103.452 266.23 103.448Z" fill="#008080"/>
<path d="M265.195 111.831C265.006 111.831 264.821 111.785 264.658 111.699L219.503 88.1046C219.381 88.0403 219.274 87.9549 219.188 87.8532C219.102 87.7514 219.039 87.6354 219.003 87.5117C218.967 87.388 218.958 87.259 218.976 87.1321C218.995 87.0052 219.041 86.8829 219.112 86.7722C219.183 86.6615 219.278 86.5645 219.39 86.4868C219.502 86.4091 219.631 86.3522 219.767 86.3193C219.904 86.2864 220.046 86.2783 220.187 86.2952C220.327 86.3122 220.462 86.354 220.584 86.4183L265.739 110.013C265.947 110.119 266.11 110.284 266.203 110.484C266.295 110.683 266.311 110.905 266.249 111.113C266.186 111.322 266.049 111.506 265.858 111.636C265.667 111.766 265.434 111.834 265.195 111.831Z" fill="#008080"/>
<path d="M291.253 129.7C290.765 129.698 290.286 129.586 289.858 129.374L275.897 122.379C274.89 121.88 274.064 121.128 273.52 120.212C272.975 119.297 272.736 118.259 272.831 117.223L274.211 103.157C274.253 102.72 274.416 102.3 274.685 101.936C274.954 101.571 275.32 101.274 275.75 101.071C276.179 100.869 276.658 100.767 277.142 100.776C277.626 100.785 278.1 100.905 278.519 101.123L293.2 108.798C293.897 109.164 294.466 109.7 294.844 110.344C295.222 110.987 295.394 111.714 295.339 112.442L294.143 127.285C294.089 127.941 293.764 128.553 293.232 129.001C292.701 129.449 292.002 129.698 291.276 129.7H291.253ZM277.063 102.698C276.945 102.7 276.83 102.726 276.725 102.775C276.615 102.825 276.522 102.9 276.453 102.992C276.385 103.084 276.344 103.191 276.334 103.302L274.977 117.389C274.914 118.047 275.063 118.707 275.406 119.29C275.749 119.872 276.271 120.352 276.909 120.672L290.87 127.667C290.976 127.722 291.096 127.751 291.219 127.751C291.341 127.751 291.461 127.722 291.567 127.667C291.676 127.617 291.768 127.542 291.834 127.449C291.9 127.356 291.937 127.249 291.943 127.139L293.139 112.282C293.165 111.919 293.08 111.557 292.892 111.236C292.703 110.915 292.42 110.647 292.073 110.464L277.385 102.789C277.288 102.734 277.177 102.702 277.063 102.698Z" fill="#008080"/>
<path d="M284.46 118.756C284.366 118.766 284.271 118.766 284.177 118.756C284.015 118.716 283.865 118.643 283.74 118.542C283.615 118.441 283.518 118.314 283.456 118.173L280.267 110.929C280.184 110.692 280.205 110.437 280.323 110.214C280.442 109.991 280.651 109.817 280.906 109.728C281.162 109.64 281.445 109.643 281.698 109.737C281.951 109.831 282.155 110.009 282.268 110.235L284.943 116.203L300.184 105.238C300.409 105.101 300.684 105.045 300.953 105.083C301.221 105.12 301.464 105.248 301.634 105.441C301.803 105.633 301.886 105.876 301.866 106.122C301.846 106.367 301.724 106.597 301.526 106.765L285.127 118.562C284.935 118.692 284.7 118.761 284.46 118.756Z" fill="#008080"/>
<path d="M263.047 138.166C262.858 138.167 262.673 138.121 262.51 138.034L217.348 114.44C217.111 114.305 216.941 114.093 216.874 113.847C216.806 113.601 216.847 113.341 216.987 113.122C217.127 112.902 217.355 112.741 217.624 112.671C217.893 112.601 218.182 112.628 218.429 112.747L263.584 136.341C263.791 136.447 263.954 136.612 264.047 136.811C264.139 137.009 264.156 137.23 264.094 137.438C264.033 137.647 263.897 137.831 263.707 137.961C263.517 138.091 263.285 138.161 263.047 138.159V138.166Z" fill="#008080"/>
<path d="M262.013 146.556C261.822 146.556 261.634 146.51 261.469 146.424L216.314 122.83C216.191 122.765 216.084 122.68 215.998 122.578C215.913 122.477 215.85 122.361 215.813 122.237C215.777 122.113 215.768 121.984 215.787 121.857C215.806 121.73 215.852 121.608 215.923 121.497C215.994 121.387 216.088 121.29 216.201 121.212C216.313 121.134 216.441 121.077 216.578 121.044C216.714 121.012 216.857 121.003 216.997 121.02C217.137 121.037 217.272 121.079 217.395 121.143L262.55 144.738C262.755 144.845 262.915 145.011 263.006 145.21C263.097 145.408 263.113 145.628 263.052 145.836C262.991 146.044 262.856 146.227 262.669 146.359C262.481 146.49 262.25 146.562 262.013 146.563V146.556Z" fill="#008080"/>
<path d="M288.063 164.418C287.577 164.42 287.098 164.308 286.675 164.092L272.676 157.097C271.669 156.597 270.844 155.845 270.3 154.93C269.756 154.015 269.516 152.977 269.61 151.941L270.944 137.854C270.983 137.417 271.145 136.998 271.413 136.633C271.681 136.269 272.047 135.973 272.477 135.772C272.906 135.57 273.385 135.469 273.869 135.479C274.352 135.489 274.825 135.609 275.245 135.827L289.926 143.502C290.621 143.871 291.19 144.407 291.566 145.052C291.943 145.697 292.113 146.425 292.057 147.153L290.861 162.01C290.824 162.442 290.667 162.86 290.406 163.223C290.145 163.587 289.787 163.886 289.366 164.092C288.966 164.292 288.519 164.403 288.063 164.418ZM273.872 137.423C273.755 137.423 273.64 137.447 273.535 137.493C273.428 137.546 273.337 137.622 273.269 137.714C273.201 137.805 273.158 137.91 273.144 138.02L271.818 152.107C271.754 152.765 271.902 153.425 272.245 154.008C272.588 154.591 273.111 155.071 273.75 155.39L287.718 162.385C287.823 162.439 287.942 162.468 288.063 162.47C288.184 162.471 288.304 162.445 288.41 162.393C288.517 162.34 288.607 162.265 288.672 162.172C288.738 162.08 288.776 161.974 288.783 161.864L289.979 147C290.008 146.637 289.923 146.274 289.734 145.953C289.546 145.631 289.261 145.364 288.914 145.182L274.21 137.507C274.106 137.456 273.99 137.427 273.872 137.423Z" fill="#008080"/>
<path d="M287.313 57.9456C286.506 57.9485 285.713 57.7595 285.013 57.3974L265.778 47.5641C265.565 47.4555 265.4 47.284 265.31 47.0784C264.381 44.9066 262.721 43.0543 260.565 41.7836C259.798 41.3672 257.789 40.5414 256.732 41.9362C256.576 42.1316 256.346 42.2685 256.086 42.3209C255.826 42.3734 255.554 42.3377 255.321 42.2207L238.746 33.7962C237.815 33.3094 237.041 32.6095 236.503 31.7666C235.965 30.9238 235.681 29.9676 235.68 28.9941V18.3211C235.681 17.163 236.048 16.0294 236.738 15.0542C237.428 14.079 238.412 13.3031 239.574 12.8181C239.731 12.7527 239.902 12.7223 240.074 12.7296C240.246 12.7368 240.414 12.7815 240.563 12.8598L293.814 40.8675C293.987 40.9572 294.129 41.0886 294.224 41.2471C294.319 41.4056 294.363 41.5849 294.352 41.765C294.341 41.9451 294.275 42.1188 294.161 42.2667C294.047 42.4146 293.889 42.5308 293.706 42.6024C293.2 42.8034 292.769 43.1336 292.467 43.5527C292.165 43.9717 292.004 44.4614 292.004 44.9618V53.7195C292.012 54.4567 291.803 55.1824 291.399 55.8225C290.994 56.4626 290.41 56.9941 289.705 57.3627C288.98 57.7484 288.153 57.9498 287.313 57.9456ZM267.127 46.0305L286.078 55.6972C286.46 55.8926 286.892 55.994 287.33 55.9913C287.768 55.9885 288.198 55.8818 288.577 55.6816C288.955 55.4815 289.269 55.195 289.488 54.8507C289.706 54.5064 289.82 54.1163 289.82 53.7195V44.9618C289.819 43.7753 290.334 42.6362 291.253 41.7905L239.965 14.8167C239.313 15.1854 238.774 15.6962 238.396 16.3024C238.018 16.9085 237.815 17.5906 237.803 18.2864V28.9941C237.804 29.6251 237.989 30.2447 238.341 30.7897C238.692 31.3346 239.197 31.7854 239.804 32.096L255.574 40.1389C257.069 38.9453 259.33 38.9037 261.615 40.0973C264.086 41.5115 266.012 43.5844 267.127 46.0305Z" fill="#008080"/>
<path d="M154.698 169.331L145.499 220.253C145.432 220.625 145.22 220.963 144.903 221.208C144.586 221.452 144.183 221.586 143.766 221.586C143.519 221.586 143.275 221.539 143.049 221.448C142.824 221.357 142.622 221.224 142.457 221.058C142.292 220.892 142.168 220.696 142.092 220.483C142.016 220.27 141.991 220.045 142.018 219.823L148.489 167.291L154.698 169.331Z" fill="#263238"/>
<path d="M122.876 152.204L113.677 203.126C113.611 203.498 113.401 203.836 113.085 204.08C112.769 204.324 112.367 204.459 111.952 204.459C111.705 204.459 111.461 204.412 111.235 204.321C111.009 204.23 110.807 204.097 110.642 203.931C110.478 203.765 110.353 203.569 110.278 203.356C110.202 203.143 110.177 202.918 110.204 202.696L116.674 150.157L122.876 152.204Z" fill="#263238"/>
<path d="M168.852 157.423L177.952 201.308C178.036 201.641 178.257 201.933 178.571 202.123C178.885 202.313 179.267 202.387 179.64 202.33C180.012 202.274 180.346 202.09 180.574 201.818C180.802 201.545 180.906 201.204 180.865 200.864L174.149 160.192L168.852 157.423Z" fill="#263238"/>
<path d="M136.668 141.053L145.714 184.667C145.777 184.975 145.958 185.252 146.224 185.452C146.49 185.651 146.825 185.759 147.171 185.757C147.383 185.756 147.592 185.714 147.785 185.633C147.978 185.553 148.149 185.436 148.288 185.291C148.426 185.146 148.529 184.975 148.589 184.791C148.649 184.607 148.665 184.413 148.635 184.223L141.965 143.815L136.668 141.053Z" fill="#263238"/>
<path d="M139.283 137.736C141.378 136.904 143.192 135.583 144.538 133.909C145.885 132.235 146.717 130.268 146.949 128.208C148.414 114.849 153.611 87.3133 171.236 96.4804C192.978 107.792 185.197 140.65 182.031 151.184C181.323 153.558 179.947 155.724 178.036 157.472C174.104 161.059 165.97 167.229 152.139 172.475C150.439 173.122 148.546 173.225 146.773 172.766C139.873 170.997 121.949 165.549 112.995 155.188C112.487 154.601 112.256 153.855 112.354 153.113C112.452 152.372 112.87 151.696 113.516 151.233C117.112 148.624 125.299 143.405 139.283 137.736Z" fill="#008080"/>
<path opacity="0.5" d="M139.283 137.736C141.378 136.904 143.192 135.583 144.538 133.909C145.885 132.235 146.717 130.268 146.949 128.208C148.414 114.849 153.611 87.3133 171.236 96.4804C192.978 107.792 185.197 140.65 182.031 151.184C181.323 153.558 179.947 155.724 178.036 157.472C174.104 161.059 165.97 167.229 152.139 172.475C150.439 173.122 148.546 173.225 146.773 172.766C139.873 170.997 121.949 165.549 112.995 155.188C112.487 154.601 112.256 153.855 112.354 153.113C112.452 152.372 112.87 151.696 113.516 151.233C117.112 148.624 125.299 143.405 139.283 137.736Z" fill="black"/>
<path d="M112.32 153.308C112.274 153.985 112.503 154.654 112.964 155.189C113.447 155.744 113.953 156.278 114.498 156.806C114.781 157.09 115.08 157.375 115.379 157.652C115.678 157.93 115.985 158.2 116.292 158.464L117.234 159.255C117.556 159.519 117.886 159.776 118.216 160.032C123.291 163.891 129.455 166.826 134.959 168.95L135.979 169.331L136.086 169.373L137.021 169.713L137.19 169.775L138.064 170.088L138.263 170.157L139.084 170.435L139.314 170.511C139.574 170.601 139.82 170.684 140.08 170.761L140.349 170.851L141.046 171.073L141.338 171.163L141.981 171.365L142.288 171.462L142.871 171.635L143.2 171.732L143.729 171.885L144.082 171.989L144.534 172.114L144.918 172.225L145.293 172.329L145.761 172.454L145.999 172.517L146.658 172.69C148.431 173.149 150.325 173.046 152.024 172.399C165.824 167.152 173.989 160.983 177.921 157.395C179.832 155.648 181.208 153.482 181.916 151.108C185.082 140.574 192.863 107.716 171.121 96.4042C170.73 96.2029 170.355 96.0225 169.979 95.8629C169.9 95.8218 169.818 95.7847 169.734 95.7519C169.366 95.5923 169.005 95.4535 168.653 95.3286L168.545 95.2939C168.2 95.1759 167.871 95.0787 167.533 94.9885L167.38 94.9469C167.027 94.8567 166.675 94.7873 166.33 94.7248H166.238C165.55 94.6112 164.851 94.5646 164.153 94.586C163.486 94.6068 162.824 94.7 162.182 94.8636C165.655 93.4757 169.895 93.5382 174.096 95.7241C195.845 107.035 188.056 139.887 184.898 150.428L184.361 152.232C183.309 155.91 180.936 159.167 177.615 161.49L171.972 165.397C165.87 169.565 159.199 173.003 152.124 175.625C150.424 176.272 148.532 176.377 146.758 175.924C139.858 174.154 121.926 168.714 112.972 158.346C112.59 157.903 112.366 157.366 112.328 156.806V153.336L112.32 153.308Z" fill="#008080"/>
<path opacity="0.6" d="M112.32 153.308C112.274 153.985 112.503 154.654 112.964 155.189C113.447 155.744 113.953 156.278 114.498 156.806C114.781 157.09 115.08 157.375 115.379 157.652C115.678 157.93 115.985 158.2 116.292 158.464L117.234 159.255C117.556 159.519 117.886 159.776 118.216 160.032C123.291 163.891 129.455 166.826 134.959 168.95L135.979 169.331L136.086 169.373L137.021 169.713L137.19 169.775L138.064 170.088L138.263 170.157L139.084 170.435L139.314 170.511C139.574 170.601 139.82 170.684 140.08 170.761L140.349 170.851L141.046 171.073L141.338 171.163L141.981 171.365L142.288 171.462L142.871 171.635L143.2 171.732L143.729 171.885L144.082 171.989L144.534 172.114L144.918 172.225L145.293 172.329L145.761 172.454L145.999 172.517L146.658 172.69C148.431 173.149 150.325 173.046 152.024 172.399C165.824 167.152 173.989 160.983 177.921 157.395C179.832 155.648 181.208 153.482 181.916 151.108C185.082 140.574 192.863 107.716 171.121 96.4042C170.73 96.2029 170.355 96.0225 169.979 95.8629C169.9 95.8218 169.818 95.7847 169.734 95.7519C169.366 95.5923 169.005 95.4535 168.653 95.3286L168.545 95.2939C168.2 95.1759 167.871 95.0787 167.533 94.9885L167.38 94.9469C167.027 94.8567 166.675 94.7873 166.33 94.7248H166.238C165.55 94.6112 164.851 94.5646 164.153 94.586C163.486 94.6068 162.824 94.7 162.182 94.8636C165.655 93.4757 169.895 93.5382 174.096 95.7241C195.845 107.035 188.056 139.887 184.898 150.428L184.361 152.232C183.309 155.91 180.936 159.167 177.615 161.49L171.972 165.397C165.87 169.565 159.199 173.003 152.124 175.625C150.424 176.272 148.532 176.377 146.758 175.924C139.858 174.154 121.926 168.714 112.972 158.346C112.59 157.903 112.366 157.366 112.328 156.806V153.336L112.32 153.308Z" fill="black"/>
<path d="M140.908 270.509C141.469 270.765 142.088 270.899 142.717 270.899C143.345 270.899 143.965 270.765 144.526 270.509C145.53 269.988 145.53 269.121 144.526 268.621C143.966 268.361 143.346 268.226 142.717 268.226C142.088 268.226 141.467 268.361 140.908 268.621C139.911 269.142 139.911 269.988 140.908 270.509Z" fill="#37474F"/>
<path d="M140.148 269.51H145.27V213.744H140.148V269.51Z" fill="#37474F"/>
<path d="M199.08 239.579C199.641 239.836 200.261 239.97 200.889 239.97C201.518 239.97 202.137 239.836 202.698 239.579C203.703 239.052 203.703 238.192 202.698 237.685C202.137 237.428 201.518 237.294 200.889 237.294C200.261 237.294 199.641 237.428 199.08 237.685C198.106 238.205 198.106 239.052 199.08 239.579Z" fill="#263238"/>
<path d="M198.352 238.58H203.473V182.814H198.352V238.58Z" fill="#263238"/>
<path d="M45.5072 220.475C46.0671 220.735 46.6873 220.871 47.3165 220.871C47.9457 220.871 48.5659 220.735 49.1258 220.475C50.1301 219.955 50.1301 219.087 49.1258 218.588C48.5648 218.331 47.9451 218.197 47.3165 218.197C46.6879 218.197 46.0682 218.331 45.5072 218.588C44.5106 219.108 44.5106 219.955 45.5072 220.475Z" fill="#37474F"/>
<path d="M44.748 219.482H49.8691L49.8691 163.717H44.748L44.748 219.482Z" fill="#37474F"/>
<path d="M108.072 178.276C108.574 178.509 109.13 178.63 109.693 178.63C110.257 178.63 110.813 178.509 111.315 178.276C111.51 178.216 111.679 178.101 111.798 177.95C111.918 177.798 111.982 177.616 111.982 177.43C111.982 177.243 111.918 177.061 111.798 176.91C111.679 176.758 111.51 176.644 111.315 176.583C110.813 176.35 110.257 176.229 109.693 176.229C109.13 176.229 108.574 176.35 108.072 176.583C107.877 176.644 107.708 176.758 107.588 176.91C107.469 177.061 107.404 177.243 107.404 177.43C107.404 177.616 107.469 177.798 107.588 177.95C107.708 178.101 107.877 178.216 108.072 178.276Z" fill="#455A64"/>
<path d="M107.39 177.388H111.982V130.851H107.39V177.388Z" fill="#455A64"/>
<path d="M203.473 173.578V184.674L142.709 216.429V205.333L203.473 173.578Z" fill="#263238"/>
<path d="M44.7559 154.141L142.709 205.333V216.429L44.7559 165.237V154.141Z" fill="#37474F"/>
<path d="M105.519 122.385L203.473 173.578L142.709 205.333L44.7559 154.14L105.519 122.385Z" fill="#455A64"/>
<path opacity="0.2" d="M105.825 177.263L60.77 153.717C60.6618 153.66 60.5719 153.579 60.5094 153.481C60.4469 153.383 60.4141 153.272 60.4141 153.158C60.4141 153.045 60.4469 152.934 60.5094 152.836C60.5719 152.738 60.6618 152.657 60.77 152.6L69.4407 148.068C69.5506 148.016 69.673 147.989 69.7971 147.989C69.9213 147.989 70.0437 148.016 70.1536 148.068L115.209 171.614C115.315 171.671 115.403 171.752 115.465 171.85C115.526 171.947 115.558 172.057 115.558 172.169C115.558 172.281 115.526 172.391 115.465 172.489C115.403 172.586 115.315 172.667 115.209 172.724L106.531 177.263C106.423 177.317 106.301 177.346 106.178 177.346C106.054 177.346 105.933 177.317 105.825 177.263Z" fill="black"/>
<path d="M148.964 195.798L122.684 181.919C122.625 181.888 122.576 181.843 122.542 181.79C122.508 181.736 122.49 181.675 122.49 181.614C122.49 181.552 122.508 181.491 122.542 181.438C122.576 181.384 122.625 181.34 122.684 181.308L151.816 165.056L148.964 195.798Z" fill="#008080"/>
<path opacity="0.4" d="M148.964 195.798L122.684 181.919C122.625 181.888 122.576 181.843 122.542 181.79C122.508 181.736 122.49 181.675 122.49 181.614C122.49 181.552 122.508 181.491 122.542 181.438C122.576 181.384 122.625 181.34 122.684 181.308L151.816 165.056L148.964 195.798Z" fill="black"/>
<path d="M148.965 195.798L178.266 180.441V173.46L148.965 188.755V195.798Z" fill="#008080"/>
<path opacity="0.2" d="M148.965 195.798L178.266 180.441V173.46L148.965 188.755V195.798Z" fill="black"/>
<path d="M172.546 181.517L160.977 187.561C160.211 187.964 159.582 187.561 159.582 186.61C159.591 186.138 159.722 185.675 159.964 185.257C160.206 184.838 160.553 184.477 160.977 184.202L172.546 178.151C173.312 177.749 173.941 178.151 173.941 179.109C173.934 179.581 173.804 180.045 173.562 180.464C173.319 180.882 172.971 181.243 172.546 181.517Z" fill="#E6E6E6"/>
<path d="M157.888 187.499C157.859 188.004 157.697 188.496 157.418 188.934C157.138 189.371 156.747 189.743 156.278 190.018C155.389 190.483 154.668 190.108 154.668 189.178C154.698 188.673 154.86 188.182 155.14 187.744C155.42 187.306 155.809 186.935 156.278 186.659C157.167 186.194 157.888 186.569 157.888 187.499Z" fill="#E6E6E6"/>
<path d="M148.965 188.754L122.792 177.616C122.728 177.589 122.673 177.545 122.634 177.492C122.594 177.438 122.571 177.376 122.567 177.311C122.563 177.246 122.578 177.182 122.611 177.125C122.644 177.067 122.694 177.019 122.754 176.985L150.836 161.871C150.994 161.785 151.173 161.737 151.356 161.731C151.54 161.725 151.722 161.761 151.886 161.836L178.266 173.46L148.965 188.754Z" fill="#008080"/>
<path d="M124.479 178.332V181.329L146.159 192.433V187.561L124.479 178.332Z" fill="#F5F5F5"/>
<path d="M146.158 192.433L148.964 190.843V188.755L146.158 187.561V192.433Z" fill="#E0E0E0"/>
<path d="M122.562 174.73V167H170.347C170.508 167 175.637 169.421 177.906 170.469C178.008 170.52 178.094 170.595 178.153 170.686C178.213 170.777 178.244 170.881 178.244 170.986C178.244 171.092 178.213 171.196 178.153 171.287C178.094 171.378 178.008 171.452 177.906 171.503L149.609 186.014C149.41 186.113 149.186 186.168 148.959 186.174C148.731 186.18 148.504 186.137 148.298 186.048L122.562 174.73Z" fill="#008080"/>
<path opacity="0.4" d="M122.562 174.73V167H170.347C170.508 167 175.637 169.421 177.906 170.469C178.008 170.52 178.094 170.595 178.153 170.686C178.213 170.777 178.244 170.881 178.244 170.986C178.244 171.092 178.213 171.196 178.153 171.287C178.094 171.378 178.008 171.452 177.906 171.503L149.609 186.014C149.41 186.113 149.186 186.168 148.959 186.174C148.731 186.18 148.504 186.137 148.298 186.048L122.562 174.73Z" fill="black"/>
<path d="M148.965 184.182L176.073 170.386V167.388L148.965 180.441V184.182Z" fill="#E0E0E0"/>
<path d="M122.562 174.73L129.654 170.976L122.562 166.985V174.73Z" fill="#008080"/>
<path opacity="0.6" d="M122.562 174.73L129.654 170.976L122.562 166.985V174.73Z" fill="black"/>
<path d="M127.039 169.504V173.779L148.965 184.181V180.441L127.039 169.504Z" fill="#F5F5F5"/>
<path d="M122.562 166.999L148.053 180.753C148.332 180.904 148.649 180.988 148.974 180.997C149.299 181.005 149.62 180.938 149.908 180.802L178.006 167.478C178.105 167.43 178.189 167.358 178.249 167.272C178.308 167.185 178.342 167.086 178.347 166.983C178.352 166.881 178.327 166.78 178.275 166.689C178.223 166.598 178.146 166.521 178.052 166.465L152.4 151.372L122.562 166.999Z" fill="#008080"/>
<path d="M133.15 150.761V152.357L121.865 158.124V156.528L133.15 150.761Z" fill="#008080"/>
<path opacity="0.2" d="M133.15 150.761V152.357L121.865 158.124V156.528L133.15 150.761Z" fill="white"/>
<path d="M96.1133 143.058L121.865 156.528V158.124L96.1133 144.654V143.058Z" fill="#008080"/>
<path opacity="0.4" d="M96.1133 143.058L121.865 156.528V158.124L96.1133 144.654V143.058Z" fill="white"/>
<path d="M107.398 137.292L133.149 150.761L121.865 156.528L96.1133 143.058L107.398 137.292Z" fill="#008080"/>
<path opacity="0.6" d="M107.398 137.292L133.149 150.761L121.865 156.528L96.1133 143.058L107.398 137.292Z" fill="white"/>
<path d="M112.488 165.764L113.638 166.368V168.269C114.38 168.273 115.109 168.093 115.746 167.749L115.831 167.7C116.095 167.557 116.325 167.367 116.507 167.142C116.689 166.917 116.818 166.66 116.889 166.389C116.93 166.272 116.95 166.15 116.95 166.028V163.433L112.488 165.764Z" fill="#E0E0E0"/>
<path d="M62.389 95.6547L62.481 95.6061C63.1197 95.2651 63.8477 95.0854 64.5892 95.0856C64.8236 95.0819 65.0545 95.1371 65.2562 95.2452L114.942 121.102C115.552 121.422 116.059 121.881 116.412 122.434C116.764 122.987 116.95 123.614 116.95 124.252V163.433L112.489 165.764L65.2945 141.205C64.6841 140.886 64.1773 140.426 63.8248 139.873C63.4723 139.32 63.2864 138.693 63.2859 138.055V97.4312H61.2773C61.2785 97.0736 61.3813 96.7223 61.5761 96.4111C61.7708 96.0999 62.0507 95.8394 62.389 95.6547Z" fill="#E6E6E6"/>
<path d="M116.52 122.621C116.801 123.127 116.948 123.685 116.949 124.252V163.432L112.488 165.764L110.816 164.917V125.848L116.52 122.621Z" fill="#E0E0E0"/>
<path d="M114.942 164.481V167.083C114.941 167.292 114.879 167.497 114.762 167.677C114.646 167.858 114.48 168.008 114.279 168.112C114.079 168.216 113.852 168.27 113.621 168.27C113.391 168.27 113.164 168.214 112.964 168.11L63.2859 142.253C62.6755 141.934 62.1687 141.474 61.8162 140.921C61.4637 140.368 61.2778 139.741 61.2773 139.103V136.466L114.942 164.481Z" fill="#F0F0F0"/>
<path d="M61.2773 97.3267C61.2773 97.1172 61.3382 96.9113 61.4539 96.7298C61.5696 96.5483 61.736 96.3976 61.9365 96.2928C62.137 96.188 62.3644 96.1328 62.5959 96.1328C62.8274 96.1328 63.0548 96.188 63.2553 96.2927L112.933 122.156C113.545 122.475 114.052 122.934 114.405 123.487C114.758 124.04 114.943 124.668 114.942 125.307V164.48L61.2773 136.438" fill="#F0F0F0"/>
<path d="M89.8801 143.051L80.4121 138.721L82.7273 137.292L91.8426 141.629L89.8801 143.051Z" fill="#E0E0E0"/>
<path d="M80.4113 138.714L74.9375 158.408C74.8534 158.713 74.883 159.035 75.0216 159.324C75.1602 159.613 75.4001 159.852 75.7042 160.004L87.0197 165.764C87.0197 165.764 90.5386 143.349 89.8869 143.051L80.4113 138.714Z" fill="#E6E6E6"/>
<path d="M92.9779 161.358L89.0833 159.22L88.332 164.002L92.9779 161.358Z" fill="#F0F0F0"/>
<path d="M89.8798 143.051L86.384 164.689C86.3508 164.886 86.3821 165.087 86.474 165.268C86.5659 165.449 86.7144 165.602 86.9011 165.707C87.0879 165.813 87.3047 165.867 87.5247 165.862C87.7448 165.857 87.9585 165.794 88.1395 165.681L92.632 162.905C92.7948 162.807 92.9283 162.674 93.0205 162.518C93.1128 162.361 93.1611 162.187 93.161 162.01V161.594C93.1614 161.536 93.1443 161.48 93.1115 161.431C93.0788 161.381 93.0317 161.341 92.9755 161.315C92.9192 161.288 92.8559 161.276 92.7927 161.28C92.7294 161.284 92.6685 161.304 92.6167 161.337L88.3542 163.981L91.8654 141.615L89.8798 143.051Z" fill="#E0E0E0"/>
<path d="M89.6345 132.024C89.6345 133.919 88.1626 134.689 86.3457 133.738C85.3911 133.173 84.5967 132.412 84.0267 131.518C83.4568 130.624 83.1271 129.62 83.0645 128.589C83.0645 126.695 84.5364 125.925 86.3457 126.875C87.3025 127.439 88.099 128.199 88.6705 129.094C89.2419 129.988 89.5722 130.992 89.6345 132.024Z" fill="#E0E0E0"/>
<path d="M52.6073 239.462L82.7131 223.855L58.8094 211.926L29.7539 227.408L52.6073 239.462Z" fill="white"/>
<path d="M53.6493 236.86C53.6009 236.858 53.5537 236.846 53.5113 236.825L36.032 227.602C35.997 227.589 35.9656 227.569 35.9399 227.543C35.9141 227.518 35.8946 227.488 35.8827 227.455C35.8708 227.423 35.8666 227.388 35.8706 227.354C35.8746 227.32 35.8865 227.286 35.9057 227.257C35.9249 227.227 35.9508 227.201 35.9818 227.181C36.0128 227.161 36.0481 227.148 36.0854 227.141C36.1227 227.134 36.1612 227.135 36.1982 227.143C36.2353 227.15 36.2701 227.165 36.3003 227.186L53.7796 236.395C53.8104 236.411 53.8375 236.432 53.8592 236.457C53.8809 236.483 53.8969 236.512 53.9061 236.543C53.9154 236.573 53.9178 236.606 53.9132 236.638C53.9086 236.669 53.897 236.7 53.8793 236.728C53.8574 236.766 53.8245 236.799 53.7841 236.822C53.7437 236.845 53.6971 236.858 53.6493 236.86Z" fill="#E0E0E0"/>
<path d="M56.4858 235.284C56.4431 235.294 56.3982 235.294 56.3555 235.284L38.8992 226.027C38.8693 226.011 38.8431 225.99 38.8222 225.965C38.8014 225.94 38.7862 225.912 38.7776 225.881C38.7691 225.851 38.7673 225.819 38.7723 225.788C38.7774 225.757 38.7893 225.727 38.8072 225.701C38.8239 225.673 38.8467 225.649 38.874 225.629C38.9013 225.609 38.9327 225.595 38.9663 225.587C38.9999 225.578 39.035 225.576 39.0696 225.58C39.1041 225.584 39.1374 225.595 39.1675 225.61L56.6545 234.833C56.7155 234.866 56.7594 234.92 56.7766 234.982C56.7939 235.045 56.783 235.111 56.7465 235.166C56.7209 235.207 56.6825 235.24 56.6361 235.261C56.5896 235.282 56.5373 235.29 56.4858 235.284Z" fill="#E0E0E0"/>
<path d="M59.308 233.778C59.2653 233.789 59.2204 233.789 59.1777 233.778L41.6907 224.528C41.6297 224.495 41.5858 224.441 41.5686 224.379C41.5513 224.316 41.5622 224.25 41.5987 224.195C41.6155 224.167 41.6382 224.143 41.6655 224.123C41.6928 224.104 41.7242 224.089 41.7578 224.081C41.7914 224.072 41.8265 224.07 41.8611 224.074C41.8957 224.078 41.929 224.089 41.959 224.105L59.446 233.334C59.4987 233.359 59.5403 233.4 59.5638 233.45C59.5874 233.499 59.5914 233.555 59.5752 233.607C59.5591 233.659 59.5238 233.704 59.4751 233.735C59.4265 233.766 59.3675 233.782 59.308 233.778Z" fill="#E0E0E0"/>
<path d="M62.1821 232.231C62.1338 232.229 62.0866 232.217 62.0441 232.196L44.5648 222.974C44.5041 222.94 44.4598 222.887 44.4412 222.825C44.4227 222.763 44.4312 222.697 44.4652 222.641C44.4825 222.613 44.506 222.588 44.5343 222.568C44.5625 222.549 44.5948 222.535 44.6293 222.527C44.6638 222.519 44.6996 222.518 44.7347 222.523C44.7697 222.528 44.8032 222.54 44.8331 222.557L62.3124 231.78C62.343 231.795 62.3699 231.816 62.3915 231.84C62.4132 231.865 62.4291 231.893 62.4384 231.924C62.4477 231.954 62.4502 231.986 62.4456 232.017C62.4411 232.049 62.4297 232.079 62.4121 232.106C62.3892 232.143 62.356 232.174 62.3156 232.196C62.2752 232.218 62.2292 232.23 62.1821 232.231Z" fill="#E0E0E0"/>
<path d="M65.0502 230.635C65.0041 230.634 64.9592 230.622 64.9199 230.6L47.4329 221.378C47.3719 221.344 47.328 221.291 47.3107 221.228C47.2935 221.166 47.3043 221.1 47.3409 221.045C47.3575 221.017 47.3803 220.992 47.4078 220.973C47.4354 220.953 47.4671 220.939 47.5009 220.931C47.5348 220.924 47.5701 220.922 47.6045 220.927C47.639 220.932 47.6719 220.944 47.7012 220.961L65.1882 230.184C65.2181 230.2 65.2443 230.221 65.2652 230.246C65.286 230.271 65.3012 230.299 65.3098 230.329C65.3183 230.36 65.3201 230.391 65.315 230.422C65.31 230.453 65.2981 230.483 65.2802 230.51C65.2573 230.547 65.2241 230.578 65.1837 230.6C65.1433 230.622 65.0973 230.634 65.0502 230.635Z" fill="#E0E0E0"/>
<path d="M67.9247 229.059C67.8763 229.058 67.8291 229.046 67.7867 229.025L50.3074 219.802C50.2724 219.789 50.241 219.768 50.2153 219.743C50.1895 219.718 50.17 219.688 50.1581 219.655C50.1462 219.622 50.142 219.588 50.146 219.554C50.15 219.519 50.1619 219.486 50.1811 219.456C50.2003 219.427 50.2262 219.401 50.2572 219.381C50.2881 219.361 50.3235 219.347 50.3608 219.341C50.3981 219.334 50.4366 219.334 50.4736 219.342C50.5107 219.35 50.5455 219.365 50.5757 219.386L68.055 228.608C68.0856 228.624 68.1125 228.644 68.1341 228.669C68.1557 228.694 68.1717 228.722 68.181 228.752C68.1903 228.783 68.1927 228.815 68.1882 228.846C68.1837 228.877 68.1723 228.907 68.1547 228.935C68.1312 228.971 68.0978 229.002 68.0576 229.024C68.0173 229.046 67.9716 229.058 67.9247 229.059Z" fill="#E0E0E0"/>
<path d="M70.7924 227.484C70.7463 227.483 70.7014 227.471 70.6621 227.449L53.1751 218.227C53.1141 218.194 53.0702 218.14 53.0529 218.078C53.0357 218.015 53.0465 217.949 53.0831 217.894C53.1005 217.867 53.1237 217.843 53.1513 217.824C53.1789 217.805 53.2104 217.791 53.244 217.784C53.2775 217.776 53.3124 217.774 53.3467 217.779C53.3809 217.784 53.4138 217.794 53.4434 217.81L70.9304 227.033C70.9603 227.049 70.9865 227.07 71.0074 227.095C71.0282 227.12 71.0434 227.148 71.052 227.179C71.0605 227.209 71.0623 227.241 71.0572 227.272C71.0522 227.303 71.0403 227.332 71.0224 227.359C71.0008 227.397 70.9679 227.429 70.9272 227.452C70.8865 227.474 70.8398 227.485 70.7924 227.484Z" fill="#E0E0E0"/>
<path d="M73.6669 225.909C73.6185 225.907 73.5713 225.895 73.5289 225.874L56.0496 216.652C56.0146 216.638 55.9832 216.618 55.9574 216.593C55.9317 216.567 55.9122 216.537 55.9003 216.505C55.8883 216.472 55.8842 216.437 55.8882 216.403C55.8921 216.369 55.9041 216.336 55.9233 216.306C55.9424 216.276 55.9684 216.251 55.9994 216.231C56.0303 216.211 56.0656 216.197 56.103 216.19C56.1403 216.183 56.1787 216.184 56.2158 216.192C56.2528 216.2 56.2876 216.215 56.3179 216.235L73.7972 225.458C73.828 225.474 73.8551 225.495 73.8768 225.52C73.8985 225.546 73.9145 225.575 73.9237 225.606C73.933 225.637 73.9354 225.669 73.9308 225.701C73.9262 225.733 73.9146 225.763 73.8968 225.791C73.873 225.827 73.8393 225.857 73.799 225.877C73.7587 225.898 73.7132 225.909 73.6669 225.909Z" fill="#E0E0E0"/>
<path d="M76.5346 224.334C76.4885 224.333 76.4436 224.321 76.4043 224.299L58.9173 215.076C58.8563 215.043 58.8124 214.99 58.7951 214.927C58.7779 214.865 58.7887 214.799 58.8253 214.743C58.8427 214.716 58.8659 214.693 58.8935 214.674C58.9211 214.655 58.9526 214.641 58.9862 214.633C59.0197 214.626 59.0546 214.624 59.0889 214.629C59.1231 214.633 59.156 214.644 59.1856 214.66L76.6726 223.903C76.7336 223.937 76.7775 223.99 76.7947 224.053C76.812 224.115 76.8011 224.181 76.7646 224.237C76.7386 224.269 76.7038 224.295 76.6635 224.312C76.6233 224.329 76.5789 224.337 76.5346 224.334Z" fill="#E0E0E0"/>
<path d="M29.8457 227.332L52.6915 239.385V257.914L29.8457 246.491V227.332Z" fill="#FAFAFA"/>
<path d="M52.6914 239.386L82.7972 223.779V242.092L52.6914 257.914V239.386Z" fill="#E6E6E6"/>
<path d="M47.7773 241.197L52.6915 243.792L63.3247 238.282L52.6915 245.201L47.7773 241.197Z" fill="#E0E0E0"/>
<path d="M47.7773 247.643L52.6915 250.239L58.7019 247.13L52.6915 251.647L47.7773 247.643Z" fill="#E0E0E0"/>
<path d="M55.5508 244.659L59.3073 245.672L62.1822 241.738L55.5508 244.659Z" fill="#E0E0E0"/>
<path d="M55.5508 244.659L66.8893 238.816L61.2239 244.659H55.5508Z" fill="white"/>
<path d="M72.5254 232.099L75.1856 232.82L77.2172 230.031L72.5254 232.099Z" fill="#E0E0E0"/>
<path d="M72.5254 232.099L80.5521 227.963L76.5349 232.099H72.5254Z" fill="white"/>
<path d="M66.7832 245.874L69.4434 246.596L71.475 243.806L66.7832 245.874Z" fill="#E0E0E0"/>
<path d="M66.7832 245.874L74.8099 241.738L70.7927 245.874H66.7832Z" fill="white"/>
<path d="M99.2118 282.042L72.9316 268.163C72.8727 268.132 72.8239 268.087 72.79 268.034C72.7561 267.98 72.7383 267.92 72.7383 267.858C72.7383 267.796 72.7561 267.736 72.79 267.682C72.8239 267.628 72.8727 267.584 72.9316 267.553L102.064 251.3L99.2118 282.042Z" fill="#008080"/>
<path opacity="0.4" d="M99.2118 282.042L72.9316 268.163C72.8727 268.132 72.8239 268.087 72.79 268.034C72.7561 267.98 72.7383 267.92 72.7383 267.858C72.7383 267.796 72.7561 267.736 72.79 267.682C72.8239 267.628 72.8727 267.584 72.9316 267.553L102.064 251.3L99.2118 282.042Z" fill="black"/>
<path d="M99.2109 282.043L128.512 266.686V259.705L99.2109 274.999V282.043Z" fill="#008080"/>
<path opacity="0.2" d="M99.2109 282.043L128.512 266.686V259.705L99.2109 274.999V282.043Z" fill="black"/>
<path d="M122.792 267.761L111.223 273.812C110.457 274.215 109.828 273.812 109.828 272.855C109.835 272.382 109.965 271.918 110.208 271.5C110.45 271.081 110.798 270.72 111.223 270.447L122.792 264.402C123.559 264 124.187 264.402 124.187 265.353C124.178 265.825 124.048 266.289 123.805 266.707C123.563 267.125 123.216 267.486 122.792 267.761Z" fill="#E6E6E6"/>
<path d="M108.128 273.743C108.098 274.249 107.936 274.741 107.656 275.18C107.377 275.619 106.987 275.992 106.518 276.269C105.637 276.734 104.916 276.352 104.916 275.429C104.946 274.924 105.107 274.432 105.385 273.994C105.663 273.555 106.052 273.181 106.518 272.903C107.408 272.438 108.128 272.813 108.128 273.743Z" fill="#E6E6E6"/>
<path d="M99.2118 274.999L73.0312 263.861C72.9687 263.831 72.9164 263.786 72.8799 263.731C72.8435 263.676 72.8242 263.613 72.8242 263.549C72.8242 263.484 72.8435 263.422 72.8799 263.367C72.9164 263.312 72.9687 263.267 73.0312 263.236L101.105 248.122C101.264 248.035 101.444 247.986 101.629 247.979C101.813 247.972 101.997 248.007 102.163 248.08L128.551 259.704L99.2118 274.999Z" fill="#008080"/>
<path d="M74.7168 264.583V267.574L96.4049 278.677V273.806L74.7168 264.583Z" fill="#F5F5F5"/>
<path d="M96.4043 278.677L99.2102 277.094V274.999L96.4043 273.805V278.677Z" fill="#E0E0E0"/>
<path d="M72.8086 260.974V253.237H120.585C120.754 253.237 125.883 255.652 128.152 256.707C128.254 256.758 128.339 256.834 128.398 256.925C128.458 257.017 128.489 257.121 128.489 257.227C128.489 257.333 128.458 257.437 128.398 257.529C128.339 257.62 128.254 257.696 128.152 257.747L99.8402 272.237C99.6415 272.34 99.4181 272.397 99.1895 272.403C98.9609 272.409 98.7342 272.364 98.5292 272.272L72.8086 260.974Z" fill="#008080"/>
<path opacity="0.4" d="M72.8086 260.974V253.237H120.585C120.754 253.237 125.883 255.652 128.152 256.707C128.254 256.758 128.339 256.834 128.398 256.925C128.458 257.017 128.489 257.121 128.489 257.227C128.489 257.333 128.458 257.437 128.398 257.529C128.339 257.62 128.254 257.696 128.152 257.747L99.8402 272.237C99.6415 272.34 99.4181 272.397 99.1895 272.403C98.9609 272.409 98.7342 272.364 98.5292 272.272L72.8086 260.974Z" fill="black"/>
<path d="M99.2109 270.433L126.319 256.63V253.632L99.2109 266.686V270.433Z" fill="#E0E0E0"/>
<path d="M72.8086 260.974L79.9 257.22L72.8086 253.237V260.974Z" fill="#008080"/>
<path opacity="0.6" d="M72.8086 260.974L79.9 257.22L72.8086 253.237V260.974Z" fill="black"/>
<path d="M77.2852 255.749V260.024L99.2109 270.433V266.686L77.2852 255.749Z" fill="#F5F5F5"/>
<path d="M72.8086 253.237L98.2992 266.984C98.5762 267.136 98.8921 267.22 99.2159 267.229C99.5398 267.238 99.8606 267.17 100.147 267.032L128.252 253.743C128.349 253.691 128.429 253.617 128.485 253.528C128.54 253.439 128.57 253.339 128.57 253.237C128.57 253.134 128.54 253.034 128.485 252.945C128.429 252.857 128.349 252.782 128.252 252.73L102.608 237.644L72.8086 253.237Z" fill="#008080"/>
<path d="M99.2118 264.583L72.9316 250.704C72.8727 250.673 72.8239 250.628 72.79 250.574C72.7561 250.521 72.7383 250.46 72.7383 250.398C72.7383 250.337 72.7561 250.276 72.79 250.222C72.8239 250.169 72.8727 250.124 72.9316 250.093L102.064 233.841L99.2118 264.583Z" fill="#008080"/>
<path opacity="0.4" d="M99.2118 264.583L72.9316 250.704C72.8727 250.673 72.8239 250.628 72.79 250.574C72.7561 250.521 72.7383 250.46 72.7383 250.398C72.7383 250.337 72.7561 250.276 72.79 250.222C72.8239 250.169 72.8727 250.124 72.9316 250.093L102.064 233.841L99.2118 264.583Z" fill="black"/>
<path d="M99.2109 264.583L128.512 249.226V242.245L99.2109 257.539V264.583Z" fill="#008080"/>
<path opacity="0.2" d="M99.2109 264.583L128.512 249.226V242.245L99.2109 257.539V264.583Z" fill="black"/>
<path d="M122.792 250.274L111.223 256.318C110.457 256.72 109.828 256.318 109.828 255.367C109.835 254.895 109.965 254.431 110.208 254.012C110.45 253.594 110.798 253.233 111.223 252.959L122.792 246.908C123.559 246.506 124.187 246.908 124.187 247.866C124.178 248.338 124.048 248.801 123.805 249.22C123.563 249.638 123.216 249.999 122.792 250.274Z" fill="#E6E6E6"/>
<path d="M108.128 256.283C108.099 256.788 107.938 257.28 107.658 257.718C107.378 258.156 106.988 258.527 106.518 258.802C105.637 259.267 104.916 258.892 104.916 257.962C104.946 257.458 105.107 256.967 105.385 256.53C105.664 256.092 106.052 255.72 106.518 255.443C107.408 254.978 108.128 255.353 108.128 256.283Z" fill="#E6E6E6"/>
<path d="M99.2105 257.539L73.0299 246.401C72.9676 246.37 72.9156 246.324 72.8795 246.269C72.8433 246.213 72.8242 246.15 72.8242 246.085C72.8242 246.021 72.8433 245.958 72.8795 245.902C72.9156 245.847 72.9676 245.801 73.0299 245.77L101.104 230.655C101.263 230.57 101.443 230.522 101.628 230.516C101.813 230.51 101.997 230.546 102.162 230.621L128.55 242.244L99.2105 257.539Z" fill="#008080"/>
<path d="M74.7168 247.116V250.114L96.4049 261.217V256.346L74.7168 247.116Z" fill="#F5F5F5"/>
<path d="M96.4043 261.217L99.2102 259.628V257.539L96.4043 256.346V261.217Z" fill="#E0E0E0"/>
<path d="M72.8457 243.008V235.263H120.622C120.783 235.263 125.912 237.685 128.181 238.733C128.284 238.784 128.369 238.859 128.429 238.95C128.488 239.041 128.519 239.144 128.519 239.25C128.519 239.356 128.488 239.459 128.429 239.55C128.369 239.641 128.284 239.716 128.181 239.767L99.862 254.264C99.6604 254.357 99.437 254.406 99.2103 254.406C98.9837 254.406 98.7603 254.357 98.5587 254.264L72.8457 243.008Z" fill="#008080"/>
<path opacity="0.4" d="M72.8457 243.008V235.263H120.622C120.783 235.263 125.912 237.685 128.181 238.733C128.284 238.784 128.369 238.859 128.429 238.95C128.488 239.041 128.519 239.144 128.519 239.25C128.519 239.356 128.488 239.459 128.429 239.55C128.369 239.641 128.284 239.716 128.181 239.767L99.862 254.264C99.6604 254.357 99.437 254.406 99.2103 254.406C98.9837 254.406 98.7603 254.357 98.5587 254.264L72.8457 243.008Z" fill="black"/>
<path d="M99.2422 252.46L126.358 238.657V235.659L99.2422 248.719V252.46Z" fill="#E0E0E0"/>
<path d="M72.8457 243.008L79.9294 239.253L72.8457 235.263V243.008Z" fill="#008080"/>
<path opacity="0.6" d="M72.8457 243.008L79.9294 239.253L72.8457 235.263V243.008Z" fill="black"/>
<path d="M77.3164 237.783V242.057L99.2422 252.46V248.719L77.3164 237.783Z" fill="#F5F5F5"/>
<path d="M72.8457 235.263L98.3364 249.017C98.6138 249.168 98.9295 249.252 99.2531 249.26C99.5767 249.269 99.8973 249.202 100.184 249.066L128.289 235.742C128.388 235.693 128.471 235.621 128.53 235.534C128.589 235.447 128.622 235.347 128.626 235.245C128.63 235.143 128.605 235.042 128.552 234.951C128.5 234.861 128.422 234.784 128.327 234.729L102.676 219.635L72.8457 235.263Z" fill="#008080"/>
<path d="M99.2413 246.61L72.9687 232.731C72.9098 232.699 72.861 232.655 72.8271 232.601C72.7932 232.548 72.7754 232.487 72.7754 232.425C72.7754 232.363 72.7932 232.303 72.8271 232.249C72.861 232.196 72.9098 232.151 72.9687 232.12L102.101 215.875L99.2413 246.61Z" fill="#008080"/>
<path opacity="0.4" d="M99.2413 246.61L72.9687 232.731C72.9098 232.699 72.861 232.655 72.8271 232.601C72.7932 232.548 72.7754 232.487 72.7754 232.425C72.7754 232.363 72.7932 232.303 72.8271 232.249C72.861 232.196 72.9098 232.151 72.9687 232.12L102.101 215.875L99.2413 246.61Z" fill="black"/>
<path d="M99.2422 246.609L128.543 231.252V224.278L99.2422 239.566V246.609Z" fill="#008080"/>
<path opacity="0.2" d="M99.2422 246.609L128.543 231.252V224.278L99.2422 239.566V246.609Z" fill="black"/>
<path d="M122.831 232.335L111.255 238.38C110.488 238.782 109.867 238.38 109.867 237.429C109.875 236.956 110.004 236.492 110.245 236.073C110.486 235.653 110.832 235.291 111.255 235.014L122.831 228.97C123.598 228.567 124.219 228.97 124.219 229.92C124.211 230.393 124.082 230.857 123.841 231.277C123.6 231.696 123.254 232.058 122.831 232.335Z" fill="#E6E6E6"/>
<path d="M108.165 238.317C108.134 238.821 107.972 239.313 107.693 239.75C107.413 240.188 107.023 240.56 106.555 240.836C105.666 241.301 104.945 240.926 104.945 239.996C104.976 239.49 105.137 238.998 105.417 238.559C105.697 238.12 106.087 237.747 106.555 237.47C107.445 237.012 108.165 237.387 108.165 238.317Z" fill="#E6E6E6"/>
<path d="M99.2419 239.566L73.0689 228.463C73.0066 228.431 72.9547 228.386 72.9185 228.33C72.8824 228.275 72.8633 228.211 72.8633 228.147C72.8633 228.082 72.8824 228.019 72.9185 227.964C72.9547 227.908 73.0066 227.862 73.0689 227.831L101.143 212.717C101.302 212.632 101.482 212.584 101.666 212.577C101.851 212.569 102.034 212.603 102.201 212.675L128.55 224.278L99.2419 239.566Z" fill="#008080"/>
<path d="M74.7559 229.15V232.141L96.444 243.251V238.372L74.7559 229.15Z" fill="#F5F5F5"/>
<path d="M96.4434 243.251L99.2416 241.662V239.566L96.4434 238.373V243.251Z" fill="#E0E0E0"/>
<path d="M98.5136 219.455L128.619 203.848L104.708 191.919L75.6602 207.401L98.5136 219.455Z" fill="#FAFAFA"/>
<path d="M99.5482 216.846C99.5055 216.856 99.4607 216.856 99.4179 216.846L81.9386 207.595C81.9078 207.58 81.8807 207.558 81.859 207.533C81.8373 207.508 81.8213 207.479 81.8121 207.448C81.8028 207.417 81.8004 207.384 81.805 207.353C81.8096 207.321 81.8212 207.29 81.839 207.262C81.8564 207.235 81.8795 207.212 81.9072 207.193C81.9348 207.174 81.9663 207.16 81.9998 207.152C82.0334 207.145 82.0683 207.143 82.1025 207.148C82.1368 207.152 82.1696 207.163 82.1993 207.179L99.6862 216.402C99.7168 216.417 99.7437 216.437 99.7653 216.462C99.787 216.487 99.8029 216.515 99.8122 216.546C99.8215 216.576 99.824 216.608 99.8194 216.639C99.8149 216.67 99.8035 216.701 99.7859 216.728C99.7603 216.764 99.7252 216.794 99.6836 216.814C99.6421 216.835 99.5956 216.846 99.5482 216.846Z" fill="#E0E0E0"/>
<path d="M102.422 215.271C102.38 215.281 102.335 215.281 102.292 215.271L84.8051 206.048C84.7443 206.015 84.7 205.962 84.6815 205.9C84.6629 205.838 84.6715 205.772 84.7054 205.715C84.7228 205.687 84.7463 205.663 84.7745 205.643C84.8027 205.624 84.8351 205.61 84.8695 205.602C84.904 205.594 84.9399 205.593 84.9749 205.598C85.01 205.603 85.0435 205.615 85.0734 205.632L102.553 214.855C102.605 214.88 102.646 214.92 102.669 214.969C102.693 215.017 102.697 215.072 102.682 215.123C102.667 215.175 102.633 215.22 102.586 215.252C102.539 215.284 102.481 215.3 102.422 215.299V215.271Z" fill="#E0E0E0"/>
<path d="M105.214 213.772C105.172 213.782 105.127 213.782 105.084 213.772L87.597 204.549C87.536 204.516 87.4921 204.462 87.4748 204.4C87.4576 204.337 87.4684 204.271 87.505 204.216C87.5224 204.189 87.5456 204.165 87.5732 204.146C87.6008 204.127 87.6323 204.114 87.6658 204.106C87.6994 204.098 87.7343 204.097 87.7686 204.101C87.8028 204.106 87.8357 204.117 87.8653 204.133L105.352 213.355C105.413 213.388 105.457 213.442 105.474 213.505C105.492 213.567 105.481 213.633 105.444 213.688C105.417 213.718 105.381 213.742 105.341 213.756C105.301 213.771 105.257 213.776 105.214 213.772Z" fill="#E0E0E0"/>
<path d="M108.089 212.197C108.04 212.195 107.993 212.183 107.951 212.162L90.4713 202.939C90.4408 202.924 90.4139 202.904 90.3922 202.879C90.3706 202.854 90.3547 202.826 90.3454 202.795C90.3361 202.765 90.3336 202.733 90.3381 202.702C90.3427 202.671 90.3541 202.64 90.3717 202.613C90.3892 202.585 90.4126 202.561 90.4406 202.541C90.4686 202.522 90.5007 202.507 90.5349 202.499C90.5691 202.49 90.6048 202.488 90.64 202.492C90.6751 202.496 90.709 202.507 90.7397 202.523L108.219 211.746C108.28 211.779 108.324 211.832 108.343 211.894C108.361 211.956 108.353 212.022 108.319 212.079C108.294 212.114 108.26 212.144 108.22 212.164C108.18 212.185 108.135 212.196 108.089 212.197Z" fill="#E0E0E0"/>
<path d="M110.956 210.621C110.909 210.624 110.863 210.611 110.826 210.586L93.3387 201.364C93.3087 201.348 93.2826 201.327 93.2617 201.302C93.2408 201.277 93.2257 201.248 93.2171 201.218C93.2085 201.188 93.2067 201.156 93.2118 201.125C93.2169 201.094 93.2287 201.064 93.2466 201.038C93.2634 201.01 93.2861 200.986 93.3134 200.966C93.3408 200.946 93.3722 200.932 93.4058 200.924C93.4393 200.915 93.4745 200.913 93.509 200.917C93.5436 200.921 93.5769 200.931 93.607 200.947L111.094 210.17C111.155 210.203 111.199 210.257 111.216 210.319C111.233 210.382 111.223 210.448 111.186 210.503C111.163 210.54 111.129 210.57 111.089 210.59C111.048 210.611 111.002 210.622 110.956 210.621Z" fill="#E0E0E0"/>
<path d="M113.823 209.046C113.781 209.058 113.735 209.058 113.693 209.046L96.2135 199.824C96.183 199.808 96.1561 199.788 96.1344 199.763C96.1128 199.738 96.0968 199.71 96.0876 199.68C96.0783 199.649 96.0758 199.617 96.0803 199.586C96.0848 199.555 96.0962 199.525 96.1139 199.497C96.1506 199.442 96.2093 199.402 96.2779 199.386C96.3464 199.369 96.4195 199.377 96.4818 199.407L113.984 208.595C114.045 208.628 114.089 208.682 114.108 208.744C114.126 208.806 114.118 208.872 114.084 208.928C114.056 208.967 114.017 208.999 113.972 209.02C113.926 209.041 113.874 209.05 113.823 209.046Z" fill="#E0E0E0"/>
<path d="M116.698 207.47C116.651 207.473 116.605 207.461 116.568 207.436L99.0807 198.227C99.0501 198.212 99.0232 198.191 99.0016 198.167C98.98 198.142 98.964 198.113 98.9548 198.083C98.9455 198.053 98.943 198.021 98.9475 197.989C98.952 197.958 98.9634 197.928 98.981 197.901C99.0178 197.846 99.0765 197.806 99.1451 197.789C99.2136 197.772 99.2867 197.78 99.349 197.811L116.828 207.033C116.859 207.049 116.886 207.07 116.908 207.096C116.93 207.121 116.946 207.15 116.955 207.181C116.964 207.212 116.967 207.244 116.962 207.276C116.957 207.308 116.946 207.339 116.928 207.366C116.903 207.4 116.868 207.428 116.828 207.446C116.788 207.464 116.743 207.473 116.698 207.47Z" fill="#E0E0E0"/>
<path d="M119.573 205.895C119.528 205.905 119.48 205.905 119.435 205.895L101.956 196.666C101.925 196.651 101.898 196.63 101.877 196.605C101.855 196.581 101.839 196.552 101.83 196.522C101.82 196.492 101.818 196.46 101.823 196.428C101.827 196.397 101.838 196.367 101.856 196.34C101.893 196.285 101.952 196.245 102.02 196.228C102.089 196.211 102.162 196.219 102.224 196.25L119.703 205.472C119.764 205.505 119.808 205.559 119.827 205.621C119.845 205.683 119.837 205.749 119.803 205.805C119.775 205.836 119.74 205.86 119.7 205.875C119.66 205.891 119.616 205.898 119.573 205.895Z" fill="#E0E0E0"/>
<path d="M122.417 204.32C122.371 204.33 122.324 204.33 122.279 204.32L104.799 195.098C104.769 195.082 104.742 195.061 104.72 195.035C104.699 195.01 104.683 194.981 104.673 194.95C104.664 194.919 104.662 194.887 104.666 194.855C104.671 194.823 104.682 194.792 104.7 194.765C104.717 194.737 104.741 194.713 104.769 194.693C104.797 194.673 104.829 194.659 104.863 194.651C104.897 194.642 104.933 194.64 104.968 194.644C105.003 194.648 105.037 194.659 105.068 194.674L122.547 203.897C122.578 203.913 122.605 203.934 122.627 203.959C122.648 203.985 122.664 204.014 122.674 204.045C122.683 204.076 122.685 204.108 122.681 204.14C122.676 204.172 122.665 204.202 122.647 204.23C122.62 204.261 122.585 204.286 122.545 204.302C122.504 204.318 122.46 204.324 122.417 204.32Z" fill="#E0E0E0"/>
<path d="M75.7441 207.318L98.5976 219.379V237.908L75.7441 226.485V207.318Z" fill="#F0F0F0"/>
<path d="M98.5977 219.379L128.703 203.765V222.085L98.5977 237.907V219.379Z" fill="#E6E6E6"/>
<path d="M93.6836 221.19L98.5977 223.779L109.231 218.269L98.5977 225.187L93.6836 221.19Z" fill="#E0E0E0"/>
<path d="M93.6836 227.637L98.5977 230.232L104.6 227.116L98.5977 231.641L93.6836 227.637Z" fill="#E0E0E0"/>
<path d="M101.457 224.653L105.214 225.666L108.088 221.731L101.457 224.653Z" fill="#E0E0E0"/>
<path d="M101.457 224.653L112.796 218.803L107.122 224.653H101.457Z" fill="white"/>
<path d="M118.424 212.092L121.084 212.807L123.116 210.024L118.424 212.092Z" fill="#E0E0E0"/>
<path d="M118.424 212.093L126.451 207.95L122.441 212.093H118.424Z" fill="white"/>
<path d="M112.689 225.867L115.35 226.582L117.381 223.799L112.689 225.867Z" fill="#E0E0E0"/>
<path d="M112.689 225.867L120.716 221.731L116.699 225.867H112.689Z" fill="white"/>
<path d="M83.9481 226.444L82.0008 226.971L80.5059 224.924L83.9481 226.444Z" fill="#E0E0E0"/>
<path d="M83.9483 226.443L78.0605 223.404L81.0044 226.443H83.9483Z" fill="white"/>
<path d="M91.6137 219.17L88.9535 219.885L86.9219 217.103L91.6137 219.17Z" fill="#E0E0E0"/>
<path d="M91.6146 219.171L83.5879 215.035L87.6051 219.171H91.6146Z" fill="white"/>
<path d="M278.787 256.734L276.234 255.769L276.894 252.966L278.787 256.734Z" fill="#37474F"/>
<path d="M281.661 249.191L282.75 253.597L278.786 256.734L276.893 252.966L281.661 249.191Z" fill="#455A64"/>
<path d="M270.73 244.618C269.974 246.444 269.434 248.337 269.12 250.267C268.592 253.002 267.19 255.537 265.088 257.56C263.225 259.114 259.898 262.695 265.67 263.334C271.642 264.028 276.649 259.531 276.725 257.053C276.802 254.576 277.53 252.633 279.025 251.502C280.52 250.371 281.685 249.212 281.685 249.212C281.685 249.212 279.025 240.565 276.748 241.051C274.471 241.537 270.73 244.618 270.73 244.618Z" fill="#263238"/>
<path d="M273.037 236.159C271.32 233.813 269.38 231.051 267.816 228.525C264.136 222.529 258.563 213.008 253.097 211.107V170.684L232.106 169.81C232.106 169.81 225.206 191.954 235.012 209.754C242.019 222.502 257.244 235.791 265.286 242.3C267.801 241.946 272.401 240.634 273.037 236.159Z" fill="#455A64"/>
<path d="M277.277 241.731C277.277 241.731 275.361 239.337 273.03 236.179C272.394 240.655 267.794 241.946 265.279 242.321C268.469 244.895 270.546 246.415 270.546 246.415C270.546 246.415 277.384 247.255 277.277 241.731Z" fill="#945959"/>
<path d="M234.223 208.193L239.85 183.058C239.85 183.058 235.649 180.837 235.649 174.966C235.649 174.966 235.12 180.629 237.949 184.723L233.111 205.736C233.449 206.555 233.824 207.381 234.223 208.193Z" fill="#37474F"/>
<path d="M253.097 211.086V209.629L250.445 211.183L245.554 218.033L245.094 223.411C247.018 225.555 249.027 227.637 251.028 229.608L251.426 220.795L255.106 212.092C254.488 211.679 253.813 211.34 253.097 211.086Z" fill="#37474F"/>
<path d="M233.785 277.802L231.193 276.47L233.785 273.361V277.802Z" fill="#37474F"/>
<path d="M237.557 271.841V275.776L233.785 277.802V273.361L237.557 271.841Z" fill="#455A64"/>
<path d="M229.37 263.5C229.37 263.5 227.898 262.959 226.496 267.587C225.093 272.216 219.281 275.221 217.81 276.026C216.338 276.831 212.443 280.189 217.81 281.924C223.176 283.659 230.007 281.105 231.609 278.184C233.211 275.262 234.032 273.486 237.55 271.841V265.936C237.55 264.798 236.232 263.972 235.396 263.777C234.561 263.583 229.37 263.5 229.37 263.5Z" fill="#263238"/>
<path d="M259.299 169.81L235.648 168.304V174.966C235.648 180.837 239.85 183.058 239.85 183.058L232.697 214.979C232.351 216.518 232.115 218.076 231.992 219.643L228.887 259.697C230.057 260.618 231.471 261.249 232.99 261.528C234.509 261.808 236.083 261.727 237.557 261.293C239.167 256.831 241.912 249.378 245.147 241.231C249.042 231.398 249.218 224.577 249.065 221.801C249.007 220.828 249.198 219.857 249.624 218.962C250.912 216.256 254.048 209.677 259.299 198.581C269.081 177.971 259.299 169.81 259.299 169.81Z" fill="#455A64"/>
<path d="M228.886 259.725L228.441 265.478C228.84 266.064 229.408 266.54 230.083 266.856C230.758 267.171 231.516 267.314 232.275 267.268C235.08 267.268 236.062 265.624 236.062 265.624C236.062 265.624 236.621 264.021 237.595 261.321C236.115 261.761 234.534 261.846 233.007 261.566C231.481 261.286 230.06 260.652 228.886 259.725Z" fill="#945959"/>
<path d="M238.003 138.978C238.003 138.978 231.394 139.207 229.087 143.592C226.779 147.978 223.482 156.84 223.482 156.84L232.345 158.644L238.003 138.978Z" fill="#008080"/>
<path opacity="0.2" d="M238.003 138.978C238.003 138.978 231.394 139.207 229.087 143.592C226.779 147.978 223.482 156.84 223.482 156.84L232.345 158.644L238.003 138.978Z" fill="white"/>
<path d="M252.131 139.88L259.299 141.004V155.577L257.061 163.322C257.061 163.322 257.482 167.485 259.299 169.789C259.299 169.789 246.542 178.547 232.107 169.789C232.107 169.789 232.666 162.156 232.666 160.018C232.666 160.018 227.775 157.354 228.258 153.294C228.741 149.234 238.002 138.957 238.002 138.957L243.093 138.895L252.131 139.88Z" fill="#008080"/>
<path opacity="0.4" d="M252.131 139.88L259.299 141.004V155.577L257.061 163.322C257.061 163.322 257.482 167.485 259.299 169.789C259.299 169.789 246.542 178.547 232.107 169.789C232.107 169.789 232.666 162.156 232.666 160.018C232.666 160.018 227.775 157.354 228.258 153.294C228.741 149.234 238.002 138.957 238.002 138.957L243.093 138.895L252.131 139.88Z" fill="white"/>
<path d="M239.811 110.096C239.811 110.096 233.617 108.153 232.107 113.892C230.596 119.631 235.257 125.196 228.273 127.077C228.273 127.077 232.39 130.179 236.009 124.391L239.075 136.188C239.075 136.188 239.075 136.834 237.994 137.326C237.994 137.326 255.627 140.865 258.962 132.92C259.431 133.378 259.75 133.944 259.886 134.557C260.021 135.169 259.967 135.803 259.729 136.39C259.729 136.39 264.919 134.488 263.462 128.402C263.462 128.402 267.564 128.298 268.537 125.272C268.537 125.272 261.975 125.557 262.013 119.027C262.059 111.449 257.651 112.545 257.651 112.545C257.651 112.545 252.261 105.28 239.811 110.096Z" fill="#263238"/>
<path d="M243.093 133.856V138.915C243.093 138.915 238.071 146.75 240.026 147.243C243.767 148.193 252.093 139.866 252.093 139.866V129.179L243.093 133.856Z" fill="#945959"/>
<path d="M252.032 127.486V127.784C250.015 134.974 244.779 136.542 243.093 136.91L243.031 125.807L251.771 125.772L252.032 127.486Z" fill="#703838"/>
<path d="M243.66 111.484C240.325 111.733 233.387 113.94 233.279 121.893C233.172 129.846 234.521 135.931 239.083 136.181C243.644 136.431 253.84 132.712 254.308 122.372C254.776 112.032 246.918 111.227 243.66 111.484Z" fill="#945959"/>
<path d="M239.444 125.092L239.52 129.769L236.484 128.971L239.444 125.092Z" fill="#703838"/>
<path d="M243.981 124.967C243.959 125.206 243.838 125.429 243.643 125.591C243.448 125.753 243.192 125.843 242.927 125.843C242.662 125.843 242.407 125.753 242.212 125.591C242.016 125.429 241.896 125.206 241.873 124.967C241.871 124.714 241.979 124.47 242.174 124.288C242.369 124.106 242.636 124.001 242.916 123.996C243.057 123.994 243.197 124.018 243.328 124.066C243.458 124.114 243.577 124.186 243.677 124.276C243.776 124.367 243.854 124.475 243.907 124.594C243.959 124.712 243.984 124.839 243.981 124.967Z" fill="#263238"/>
<path d="M237.051 124.391C237.054 124.58 236.995 124.766 236.882 124.925C236.768 125.084 236.605 125.209 236.412 125.284C236.22 125.359 236.008 125.381 235.802 125.346C235.596 125.312 235.406 125.223 235.256 125.091C235.106 124.959 235.003 124.79 234.959 124.605C234.915 124.42 234.933 124.227 235.01 124.051C235.088 123.875 235.221 123.724 235.393 123.616C235.565 123.509 235.769 123.45 235.978 123.447C236.117 123.444 236.256 123.467 236.385 123.513C236.515 123.559 236.633 123.628 236.733 123.716C236.833 123.803 236.912 123.908 236.967 124.024C237.022 124.14 237.05 124.265 237.051 124.391Z" fill="#263238"/>
<path d="M234.682 122.434L236.721 121.303C236.721 121.303 235.954 120.568 235.142 121.026C234.917 121.191 234.752 121.414 234.67 121.665C234.588 121.917 234.592 122.185 234.682 122.434Z" fill="#008080"/>
<path d="M234.682 122.434L236.721 121.303C236.721 121.303 235.954 120.568 235.142 121.026C234.917 121.191 234.752 121.414 234.67 121.665C234.588 121.917 234.592 122.185 234.682 122.434Z" fill="#263238"/>
<path d="M249.165 124.537C249.165 124.537 248.958 127.889 251.089 127.889H255.267V121.498C255.267 114.329 249.265 106.841 236.485 112.761C236.485 112.761 235.879 122.33 249.165 124.537Z" fill="#263238"/>
<path d="M251.074 127.493C251.054 126.777 251.211 126.065 251.534 125.411C251.692 124.994 251.982 124.629 252.368 124.36C252.753 124.091 253.218 123.93 253.704 123.898C256.195 123.864 256.502 126.036 256.463 126.806C256.348 128.832 254.516 131.004 251.097 131.053L251.074 127.493Z" fill="#945959"/>
<path d="M242.211 131.247C242.211 131.402 242.16 131.554 242.065 131.683C241.97 131.812 241.835 131.912 241.676 131.972C241.518 132.031 241.344 132.046 241.176 132.016C241.008 131.986 240.853 131.911 240.732 131.802C240.611 131.692 240.529 131.552 240.495 131.4C240.462 131.248 240.479 131.09 240.544 130.947C240.61 130.804 240.721 130.681 240.864 130.595C241.006 130.509 241.173 130.463 241.345 130.463C241.575 130.463 241.795 130.546 241.957 130.693C242.12 130.84 242.211 131.039 242.211 131.247Z" fill="#703838"/>
<path d="M259.299 141.004C259.299 141.004 253.411 142.941 255.987 152.267C258.563 161.594 261.039 169.401 261.039 169.401L250.789 174.952C250.789 174.952 254.515 176.569 253.679 182.516C253.679 182.516 267.08 179.519 270.185 177.478C273.29 175.438 272.232 169.477 271.496 166.195C270.76 162.912 267.295 149.589 266.766 147.777C266.237 145.966 264.673 141.851 259.299 141.004Z" fill="#008080"/>
<path opacity="0.2" d="M259.299 141.004C259.299 141.004 253.411 142.941 255.987 152.267C258.563 161.594 261.039 169.401 261.039 169.401L250.789 174.952C250.789 174.952 254.515 176.569 253.679 182.516C253.679 182.516 267.08 179.519 270.185 177.478C273.29 175.438 272.232 169.477 271.496 166.195C270.76 162.912 267.295 149.589 266.766 147.777C266.237 145.966 264.673 141.851 259.299 141.004Z" fill="white"/>
<path d="M261.038 169.4C263.068 169.245 265.099 169.696 266.819 170.684C266.056 169.856 265.106 169.187 264.031 168.722C262.957 168.258 261.784 168.008 260.594 167.992L261.038 169.4Z" fill="#008080"/>
<path d="M218.79 191.767L192.51 177.888C192.451 177.857 192.402 177.812 192.368 177.758C192.334 177.705 192.316 177.644 192.316 177.583C192.316 177.521 192.334 177.46 192.368 177.407C192.402 177.353 192.451 177.308 192.51 177.277L221.642 161.025L218.79 191.767Z" fill="#008080"/>
<path opacity="0.4" d="M218.79 191.767L192.51 177.888C192.451 177.857 192.402 177.812 192.368 177.758C192.334 177.705 192.316 177.644 192.316 177.583C192.316 177.521 192.334 177.46 192.368 177.407C192.402 177.353 192.451 177.308 192.51 177.277L221.642 161.025L218.79 191.767Z" fill="black"/>
<path d="M218.789 191.766L248.09 176.409V169.428L218.789 184.723V191.766Z" fill="#008080"/>
<path opacity="0.2" d="M218.789 191.766L248.09 176.409V169.428L218.789 184.723V191.766Z" fill="black"/>
<path d="M242.372 177.485L230.803 183.536C230.037 183.939 229.408 183.536 229.408 182.579C229.415 182.106 229.545 181.642 229.788 181.224C230.03 180.805 230.378 180.445 230.803 180.171L242.372 174.126C243.139 173.724 243.767 174.126 243.767 175.077C243.758 175.549 243.628 176.013 243.385 176.431C243.143 176.849 242.796 177.21 242.372 177.485Z" fill="#E6E6E6"/>
<path d="M227.706 183.467C227.676 183.973 227.514 184.465 227.235 184.904C226.955 185.343 226.565 185.716 226.096 185.993C225.207 186.458 224.494 186.076 224.494 185.153C224.523 184.648 224.683 184.156 224.962 183.717C225.24 183.278 225.629 182.905 226.096 182.627C226.986 182.162 227.706 182.537 227.706 183.467Z" fill="#E6E6E6"/>
<path d="M218.79 184.723L192.609 173.585C192.547 173.555 192.495 173.51 192.458 173.455C192.422 173.4 192.402 173.337 192.402 173.273C192.402 173.209 192.422 173.146 192.458 173.091C192.495 173.036 192.547 172.991 192.609 172.96L220.684 157.846C220.842 157.76 221.022 157.71 221.207 157.703C221.392 157.696 221.575 157.731 221.741 157.805L248.121 169.428L218.79 184.723Z" fill="#008080"/>
<path d="M194.297 174.3V177.298L215.985 188.401V183.529L194.297 174.3Z" fill="#F5F5F5"/>
<path d="M215.984 188.401L218.79 186.819V184.723L215.984 183.529V188.401Z" fill="#E0E0E0"/>
<path d="M253.68 182.53C253.68 182.53 242.18 184.772 241.115 185.008C240.049 185.244 234.491 186.819 229.914 185.91L241.214 180.011C241.214 180.011 235.449 178.734 236.277 177.111C236.591 176.493 247.317 176.826 247.317 176.826L250.79 174.966C250.79 174.966 256.938 175.681 253.68 182.53Z" fill="#945959"/>
<path d="M192.387 170.698V162.961H240.163C240.332 162.961 245.461 165.376 247.73 166.431C247.832 166.483 247.917 166.558 247.977 166.65C248.036 166.741 248.067 166.845 248.067 166.951C248.067 167.057 248.036 167.161 247.977 167.253C247.917 167.344 247.832 167.42 247.73 167.472L219.418 181.961C219.22 182.064 218.996 182.121 218.768 182.127C218.539 182.133 218.312 182.088 218.107 181.996L192.387 170.698Z" fill="#008080"/>
<path opacity="0.4" d="M192.387 170.698V162.961H240.163C240.332 162.961 245.461 165.376 247.73 166.431C247.832 166.483 247.917 166.558 247.977 166.65C248.036 166.741 248.067 166.845 248.067 166.951C248.067 167.057 248.036 167.161 247.977 167.253C247.917 167.344 247.832 167.42 247.73 167.472L219.418 181.961C219.22 182.064 218.996 182.121 218.768 182.127C218.539 182.133 218.312 182.088 218.107 181.996L192.387 170.698Z" fill="black"/>
<path d="M218.789 180.15L245.897 166.354V163.356L218.789 176.41V180.15Z" fill="#E0E0E0"/>
<path d="M192.387 170.698L199.47 166.944L192.387 162.961V170.698Z" fill="#008080"/>
<path opacity="0.6" d="M192.387 170.698L199.47 166.944L192.387 162.961V170.698Z" fill="black"/>
<path d="M196.865 165.473V169.747L218.791 180.15V176.409L196.865 165.473Z" fill="#F5F5F5"/>
<path d="M192.387 162.961L217.877 176.715C218.154 176.867 218.47 176.951 218.794 176.96C219.118 176.968 219.439 176.901 219.725 176.763L247.83 163.439C247.929 163.39 248.012 163.319 248.071 163.231C248.13 163.144 248.163 163.045 248.167 162.943C248.171 162.841 248.146 162.739 248.093 162.649C248.041 162.558 247.963 162.482 247.868 162.426L222.224 147.34L192.387 162.961Z" fill="#008080"/>
<path d="M218.79 174.307L192.51 160.428C192.451 160.397 192.402 160.352 192.368 160.299C192.334 160.245 192.316 160.184 192.316 160.123C192.316 160.061 192.334 160 192.368 159.947C192.402 159.893 192.451 159.848 192.51 159.817L221.642 143.565L218.79 174.307Z" fill="#008080"/>
<path opacity="0.4" d="M218.79 174.307L192.51 160.428C192.451 160.397 192.402 160.352 192.368 160.299C192.334 160.245 192.316 160.184 192.316 160.123C192.316 160.061 192.334 160 192.368 159.947C192.402 159.893 192.451 159.848 192.51 159.817L221.642 143.565L218.79 174.307Z" fill="black"/>
<path d="M218.789 174.3L248.09 158.95V151.969L218.789 167.263V174.3Z" fill="#008080"/>
<path opacity="0.2" d="M218.789 174.3L248.09 158.95V151.969L218.789 167.263V174.3Z" fill="black"/>
<path d="M242.372 160.06L230.803 166.105C230.037 166.507 229.408 166.105 229.408 165.154C229.415 164.681 229.545 164.217 229.788 163.799C230.03 163.38 230.378 163.02 230.803 162.746L242.372 156.695C243.139 156.299 243.767 156.695 243.767 157.652C243.758 158.124 243.628 158.588 243.385 159.006C243.143 159.424 242.796 159.785 242.372 160.06Z" fill="#E6E6E6"/>
<path d="M227.706 166.007C227.677 166.512 227.516 167.004 227.236 167.442C226.956 167.88 226.566 168.251 226.096 168.526C225.207 168.991 224.494 168.616 224.494 167.686C224.524 167.182 224.684 166.691 224.963 166.254C225.241 165.816 225.629 165.444 226.096 165.167C226.986 164.702 227.706 165.077 227.706 166.007Z" fill="#E6E6E6"/>
<path d="M218.791 167.263L192.61 156.16C192.548 156.129 192.496 156.083 192.46 156.027C192.423 155.972 192.404 155.909 192.404 155.844C192.404 155.78 192.423 155.716 192.46 155.661C192.496 155.605 192.548 155.56 192.61 155.528L220.684 140.414C220.846 140.334 221.028 140.292 221.213 140.292C221.398 140.292 221.58 140.334 221.742 140.414L248.122 152.038L218.791 167.263Z" fill="#008080"/>
<path d="M194.297 156.84V159.838L215.985 170.941V166.069L194.297 156.84Z" fill="#F5F5F5"/>
<path d="M215.984 170.941L218.79 169.352V167.263L215.984 166.069V170.941Z" fill="#E0E0E0"/>
</svg>
