<svg width="434" height="406" viewBox="0 0 434 406" fill="none" xmlns="http://www.w3.org/2000/svg">
<path d="M411.587 204.18C411.587 204.18 411.587 198.505 403.977 190.64C396.367 182.775 391.54 178.212 391.54 178.212C391.54 178.212 387.757 191.196 394.801 199.107C399.973 204.663 405.581 209.758 411.565 214.338L411.587 204.18Z" fill="#008080"/>
<path d="M400.607 239.433C400.607 239.433 400.607 233.758 392.997 225.892C385.387 218.027 380.581 213.464 380.581 213.464C380.581 213.464 376.787 226.448 383.843 234.359C389.014 239.915 394.622 245.01 400.607 249.591V239.433Z" fill="#008080"/>
<path d="M411.11 213.794C411.11 213.794 411.686 208.187 420.014 201.161C428.341 194.136 433.636 190.186 433.636 190.186C433.636 190.186 436.082 203.511 428.298 210.616C422.593 215.571 416.502 220.021 410.088 223.918L411.11 213.794Z" fill="#008080"/>
<path d="M397.847 255.424C397.847 255.424 398.934 249.908 407.968 243.836C417.002 237.764 422.612 234.416 422.612 234.416C422.612 234.416 423.699 247.945 415.252 254.131C409.08 258.435 402.574 262.193 395.803 265.367L397.847 255.424Z" fill="#008080"/>
<path d="M400.336 300.824C400.336 300.824 400.336 295.149 407.946 287.272C415.556 279.395 420.372 274.855 420.372 274.855C420.372 274.855 424.166 287.84 417.111 295.739C411.941 301.301 406.333 306.4 400.347 310.982L400.336 300.824Z" fill="#008080"/>
<path d="M400.216 311.901C400.216 311.901 400.977 306.317 394.563 297.373C388.149 288.43 383.941 283.231 383.941 283.231C383.941 283.231 378.43 295.523 384.311 304.387C388.671 310.656 393.526 316.533 398.825 321.957L400.216 311.901Z" fill="#008080"/>
<path d="M392.748 344.736C392.748 344.736 392.748 339.061 400.358 331.196C407.968 323.33 412.795 318.768 412.795 318.768C412.795 318.768 416.578 331.752 409.534 339.662C404.361 345.22 398.753 350.319 392.77 354.905L392.748 344.736Z" fill="#008080"/>
<path d="M397.803 374.506C397.803 374.506 396.434 369.047 401.837 359.4C407.24 349.752 410.86 344.1 410.86 344.1C410.86 344.1 417.666 355.654 412.784 365.165C409.133 371.908 404.947 378.321 400.271 384.335L397.803 374.506Z" fill="#008080"/>
<path d="M412.273 202.739C411.893 208.615 411.203 214.465 410.208 220.263C407.207 236.402 399.728 246.821 396.738 261.394C393.748 275.967 402.337 294.751 399.999 313.478C397.662 332.206 390.726 342.613 392.716 355.109C394.705 367.606 405.185 401.451 405.185 401.451" stroke="#263238" stroke-linecap="round" stroke-linejoin="round"/>
<path d="M411.045 217.55L419.199 211.013" stroke="#263238" stroke-linecap="round" stroke-linejoin="round"/>
<path d="M411.425 210.026L408 203.681" stroke="#263238" stroke-linecap="round" stroke-linejoin="round"/>
<path d="M397.193 260.725C397.193 260.725 404.021 255.379 411.044 250.033" stroke="#263238" stroke-linecap="round" stroke-linejoin="round"/>
<path d="M400.608 249.591C400.608 249.591 394.912 237.946 388.465 230.228" stroke="#263238" stroke-linecap="round" stroke-linejoin="round"/>
<path d="M400.607 308.859C404.502 301.345 409.424 294.463 415.219 288.43" stroke="#263238" stroke-linecap="round" stroke-linejoin="round"/>
<path d="M399.281 316.781C397.209 311.686 394.733 306.781 391.877 302.117C387.898 295.977 387.322 295.183 387.322 295.183" stroke="#263238" stroke-linecap="round" stroke-linejoin="round"/>
<path d="M392.748 355.11C394.481 350.636 396.538 346.307 398.901 342.159C401.266 338.305 403.931 334.66 406.87 331.264" stroke="#263238" stroke-linecap="round" stroke-linejoin="round"/>
<path d="M400.271 384.335C399.875 380.058 400.581 375.748 402.315 371.85C405.164 366.107 408.382 358.583 409.708 355.609" stroke="#263238" stroke-linecap="round" stroke-linejoin="round"/>
<path d="M349.816 279.599C349.816 279.599 349.229 276.058 353.154 270.236C357.078 264.413 359.677 261.042 359.677 261.042C359.677 261.042 363.395 268.76 359.807 274.503C357.143 278.577 354.157 282.411 350.882 285.967L349.816 279.599Z" fill="#008080"/>
<path d="M360.373 300.46C360.373 300.46 359.786 296.919 363.71 291.097C367.635 285.274 370.233 281.903 370.233 281.903C370.233 281.903 373.951 289.621 370.364 295.375C367.697 299.444 364.712 303.275 361.438 306.827L360.373 300.46Z" fill="#008080"/>
<path d="M351.11 285.569C351.11 285.569 350.175 282.164 344.217 278.657C338.259 275.15 334.541 273.312 334.541 273.312C334.541 273.312 334.389 281.949 339.977 285.513C344.068 287.971 348.348 290.071 352.773 291.789L351.11 285.569Z" fill="#008080"/>
<path d="M363.764 310.175C363.764 310.175 362.481 306.839 356.219 304.047C349.957 301.255 346.043 299.802 346.043 299.802C346.043 299.802 346.76 308.405 352.718 311.333C357.035 313.33 361.504 314.947 366.079 316.168L363.764 310.175Z" fill="#008080"/>
<path d="M366.916 338.925C366.916 338.925 366.34 335.384 360.763 331.286C355.186 327.189 351.674 324.908 351.674 324.908C351.674 324.908 350.653 333.477 355.882 337.631C359.702 340.535 363.749 343.098 367.982 345.292L366.916 338.925Z" fill="#008080"/>
<path d="M368.156 345.859C368.156 345.859 367.069 342.454 370.189 336.098C373.309 329.743 375.375 326.031 375.375 326.031C375.375 326.031 380.104 333.113 377.342 339.345C375.262 343.768 372.829 348.001 370.069 352L368.156 345.859Z" fill="#008080"/>
<path d="M377.658 374.404C377.658 374.404 378.049 370.84 383.387 366.459C388.725 362.078 392.085 359.547 392.085 359.547C392.085 359.547 393.574 368.048 388.584 372.509C384.929 375.631 381.031 378.429 376.93 380.874L377.658 374.404Z" fill="#008080"/>
<path d="M376.234 365.597C376.234 365.597 375.647 362.055 370.081 357.958C364.515 353.861 361.014 351.58 361.014 351.58C361.014 351.58 359.992 360.149 365.222 364.314C369.045 367.213 373.092 369.776 377.322 371.975L376.234 365.597Z" fill="#008080"/>
<path d="M376.233 384.846C376.233 384.846 376.516 381.26 372.124 375.823C367.732 370.386 364.883 367.254 364.883 367.254C364.883 367.254 361.807 375.267 365.862 380.681C368.834 384.493 372.107 388.039 375.646 391.281L376.233 384.846Z" fill="#008080"/>
<path d="M349.24 278.76C350.091 282.403 351.133 285.995 352.36 289.519C355.915 299.303 361.688 304.989 365.08 313.785C368.472 322.581 365.08 335.35 368.428 346.824C371.777 358.299 377.321 364.042 377.321 372.1C377.321 380.159 374.321 402.574 374.321 402.574" stroke="#263238" stroke-linecap="round" stroke-linejoin="round"/>
<path d="M351.556 287.907L345.762 284.741" stroke="#263238" stroke-linecap="round" stroke-linejoin="round"/>
<path d="M350.533 283.231L352.012 278.873" stroke="#263238" stroke-linecap="round" stroke-linejoin="round"/>
<path d="M364.72 313.422C364.72 313.422 359.882 310.845 354.936 308.28" stroke="#263238" stroke-linecap="round" stroke-linejoin="round"/>
<path d="M361.426 306.828C362.852 302.151 364.728 297.637 367.025 293.355" stroke="#263238" stroke-linecap="round" stroke-linejoin="round"/>
<path d="M367.591 343.987C364.365 339.725 360.564 335.975 356.307 332.853" stroke="#263238" stroke-linecap="round" stroke-linejoin="round"/>
<path d="M369.244 348.799C370.018 345.374 371.062 342.022 372.364 338.777C374.223 334.476 374.539 333.908 374.539 333.908" stroke="#263238" stroke-linecap="round" stroke-linejoin="round"/>
<path d="M377.061 378.218C378.946 375.779 381.034 373.519 383.301 371.464C384.743 370.356 386.095 369.126 387.345 367.787" stroke="#263238" stroke-linecap="round" stroke-linejoin="round"/>
<path d="M377.321 372.1C375.768 369.484 374.027 366.995 372.114 364.655C370.23 362.507 368.179 360.526 365.982 358.73" stroke="#263238" stroke-linecap="round" stroke-linejoin="round"/>
<path d="M375.646 391.281C375.452 388.552 374.562 385.927 373.069 383.677C370.689 380.397 367.884 376.039 366.742 374.325" stroke="#263238" stroke-linecap="round" stroke-linejoin="round"/>
<path d="M41.0332 230.16L36.2715 215.961L41.0332 221.988L37.2934 200.684L43.0771 215.961L45.1209 186.123L48.5237 214.531L52.2635 208.856V215.961L56.6882 206.371L54.3073 223.055L58.3842 220.217L51.9265 229.445L41.0332 230.16Z" fill="#008080"/>
<path d="M56.0024 226.607H38.3145L41.4998 263.891H52.8171L56.0024 226.607Z" fill="#263238" stroke="#263238" stroke-linecap="round" stroke-linejoin="round"/>
<path d="M89.1828 263.471H28.9219V396.717H89.1828V263.471Z" fill="white" stroke="#263238" stroke-linecap="round" stroke-linejoin="round"/>
<path d="M92.4768 263.471H59.0469V396.717H92.4768V263.471Z" fill="white" stroke="#263238" stroke-linecap="round" stroke-linejoin="round"/>
<path d="M88.7153 263.471H59.0469V396.717H88.7153V263.471Z" fill="#263238" stroke="#263238" stroke-linecap="round" stroke-linejoin="round"/>
<path d="M85.3777 365.732H59.0469V393.017H85.3777V365.732Z" fill="#008080" stroke="#263238" stroke-linecap="round" stroke-linejoin="round"/>
<path d="M85.3777 367.208H59.0469V370.704H85.3777V367.208Z" fill="white" stroke="#263238" stroke-linecap="round" stroke-linejoin="round"/>
<path d="M85.3777 387.297H59.0469V390.793H85.3777V387.297Z" fill="white" stroke="#263238" stroke-linecap="round" stroke-linejoin="round"/>
<path d="M64.0371 366.3V400.803" stroke="#263238" stroke-linecap="round" stroke-linejoin="round"/>
<path d="M73.2227 366.3V400.803" stroke="#263238" stroke-linecap="round" stroke-linejoin="round"/>
<path d="M81.2891 366.3V400.803" stroke="#263238" stroke-linecap="round" stroke-linejoin="round"/>
<path d="M85.3777 268.419H59.0469V308.541H85.3777V268.419Z" fill="#008080" stroke="#263238" stroke-linecap="round" stroke-linejoin="round"/>
<path d="M85.3777 270.1H59.0469V274.072H85.3777V270.1Z" fill="white" stroke="#263238" stroke-linecap="round" stroke-linejoin="round"/>
<path d="M85.3777 295.818H59.0469V299.79H85.3777V295.818Z" fill="white" stroke="#263238" stroke-linecap="round" stroke-linejoin="round"/>
<path d="M64.0371 269.055V308.269" stroke="#263238" stroke-linecap="round" stroke-linejoin="round"/>
<path d="M73.2227 269.055V308.269" stroke="#263238" stroke-linecap="round" stroke-linejoin="round"/>
<path d="M81.2891 269.055V308.269" stroke="#263238" stroke-linecap="round" stroke-linejoin="round"/>
<path d="M85.3777 316.77H59.0469V356.891H85.3777V316.77Z" fill="#008080" stroke="#263238" stroke-linecap="round" stroke-linejoin="round"/>
<path d="M85.3777 318.45H59.0469V322.422H85.3777V318.45Z" fill="white" stroke="#263238" stroke-linecap="round" stroke-linejoin="round"/>
<path d="M85.3777 344.168H59.0469V348.14H85.3777V344.168Z" fill="white" stroke="#263238" stroke-linecap="round" stroke-linejoin="round"/>
<path d="M64.0371 317.417V356.619" stroke="#263238" stroke-linecap="round" stroke-linejoin="round"/>
<path d="M73.2227 317.417V356.619" stroke="#263238" stroke-linecap="round" stroke-linejoin="round"/>
<path d="M81.2891 317.417V356.619" stroke="#263238" stroke-linecap="round" stroke-linejoin="round"/>
<path d="M89.1719 307.985H59.0469V312.547H89.1719V307.985Z" fill="white" stroke="#263238" stroke-linecap="round" stroke-linejoin="round"/>
<path d="M89.1719 356.641H59.0469V361.204H89.1719V356.641Z" fill="white" stroke="#263238" stroke-linecap="round" stroke-linejoin="round"/>
<path d="M89.1719 263.471V396.706" stroke="#263238" stroke-linecap="round" stroke-linejoin="round"/>
<path d="M54.7969 263.471V396.706H59.0476V268.42H88.6508V263.415L54.7969 263.471Z" fill="white" stroke="#263238" stroke-linecap="round" stroke-linejoin="round"/>
<path d="M59.0469 268.42V263.471" stroke="#263238" stroke-linecap="round" stroke-linejoin="round"/>
<path d="M88.9431 202.262C85.7795 195.895 84.4531 191.332 84.4531 190.277C84.4531 188.188 88.8017 186.94 88.8017 186.94C95.5856 183.194 127.494 188.608 141.855 191.105C149.894 192.568 158.027 193.403 166.185 193.602C166.185 193.602 168.175 191.945 170.534 189.857C172.893 187.768 184.091 174.035 188.483 172.832C192.875 171.629 196.854 174.501 196.854 174.501C196.854 174.501 204.04 179.04 202.833 179.914C201.626 180.788 184.091 196.564 179.699 199.481C175.306 202.398 166.142 201.15 158.162 202.818C151.291 204.248 123.46 206.019 117.079 206.564C112.286 207.75 107.256 207.313 102.717 205.315" fill="white"/>
<mask id="mask0_145_23297" style="mask-type:luminance" maskUnits="userSpaceOnUse" x="84" y="172" width="119" height="36">
<path d="M88.9431 202.262C85.7795 195.895 84.4531 191.332 84.4531 190.277C84.4531 188.188 88.8017 186.94 88.8017 186.94C95.5856 183.194 127.494 188.608 141.855 191.105C149.894 192.568 158.027 193.403 166.185 193.602C166.185 193.602 168.175 191.945 170.534 189.857C172.893 187.768 184.091 174.035 188.483 172.832C192.875 171.629 196.854 174.501 196.854 174.501C196.854 174.501 204.04 179.04 202.833 179.914C201.626 180.788 184.091 196.564 179.699 199.481C175.306 202.398 166.142 201.15 158.162 202.818C151.291 204.248 123.46 206.019 117.079 206.564C112.286 207.75 107.256 207.313 102.717 205.315" fill="white"/>
</mask>
<g mask="url(#mask0_145_23297)">
<path d="M196.93 174.455C196.93 174.455 192.94 171.538 188.559 172.787C184.178 174.035 173.002 187.78 170.61 189.811C168.218 191.843 166.261 193.557 166.261 193.557C158.103 193.358 149.97 192.523 141.931 191.06C127.57 188.563 95.6617 183.115 88.8779 186.895C88.8779 186.895 84.5293 188.143 84.5293 190.231C84.6804 191.399 84.9688 192.543 85.3882 193.636L85.9861 193.863C85.9861 193.863 93.9549 192.989 111.154 193.421C128.352 193.852 168.131 196.315 170.686 197.28C171.773 197.711 179.481 195.895 188.026 192.74C194.549 187.19 202.214 180.255 202.985 179.767C204.116 179.029 196.93 174.455 196.93 174.455Z" fill="#008080"/>
<path opacity="0.5" d="M196.93 174.455C196.93 174.455 192.94 171.538 188.559 172.787C184.178 174.035 173.002 187.78 170.61 189.811C168.218 191.843 166.261 193.557 166.261 193.557C158.103 193.358 149.97 192.523 141.931 191.06C127.57 188.563 95.6617 183.115 88.8779 186.895C88.8779 186.895 84.5293 188.143 84.5293 190.231C84.6804 191.399 84.9688 192.543 85.3882 193.636L85.9861 193.863C85.9861 193.863 93.9549 192.989 111.154 193.421C128.352 193.852 168.131 196.315 170.686 197.28C171.773 197.711 179.481 195.895 188.026 192.74C194.549 187.19 202.214 180.255 202.985 179.767C204.116 179.029 196.93 174.455 196.93 174.455Z" fill="white"/>
</g>
<path d="M88.9431 202.262C85.7795 195.895 84.4531 191.332 84.4531 190.277C84.4531 188.188 88.8017 186.94 88.8017 186.94C95.5856 183.194 127.494 188.608 141.855 191.105C149.894 192.568 158.027 193.403 166.185 193.602C166.185 193.602 168.175 191.945 170.534 189.857C172.893 187.768 184.091 174.035 188.483 172.832C192.875 171.629 196.854 174.501 196.854 174.501C196.854 174.501 204.04 179.04 202.833 179.914C201.626 180.788 184.091 196.564 179.699 199.481C175.306 202.398 166.142 201.15 158.162 202.818C151.291 204.248 123.46 206.019 117.079 206.564C112.286 207.75 107.256 207.313 102.717 205.315" stroke="#263238" stroke-linecap="round" stroke-linejoin="round"/>
<path d="M246.482 239.285C247.204 237.855 248.286 236.658 249.612 235.824C250.938 234.99 252.457 234.55 254.005 234.552H326.518C326.518 234.552 331.758 234.552 330.193 244.949C328.627 255.345 307.124 318.824 301.927 338.017C296.73 357.209 295.632 397.66 295.632 397.66H208.66C208.66 397.66 215.553 300.926 246.482 239.285Z" fill="white"/>
<mask id="mask1_145_23297" style="mask-type:luminance" maskUnits="userSpaceOnUse" x="208" y="234" width="123" height="164">
<path d="M246.482 239.285C247.204 237.855 248.286 236.658 249.612 235.824C250.938 234.99 252.457 234.55 254.005 234.552H326.518C326.518 234.552 331.758 234.552 330.193 244.949C328.627 255.345 307.124 318.824 301.927 338.017C296.73 357.209 295.632 397.66 295.632 397.66H208.66C208.66 397.66 215.553 300.926 246.482 239.285Z" fill="white"/>
</mask>
<g mask="url(#mask1_145_23297)">
<path opacity="0.16" d="M279.14 234.552H254.005C252.457 234.55 250.938 234.99 249.612 235.824C248.286 236.658 247.204 237.855 246.482 239.285C215.553 300.926 208.584 397.626 208.584 397.626H247.591L257.212 359.479L297.328 368.116C297.611 364.916 297.937 361.658 298.318 358.446L297.437 348.232C297.437 348.232 289.218 339.208 286.631 336.95C284.043 334.691 285.761 330.617 285.326 313.013C284.891 295.41 269.758 282.755 264.127 271.916C258.495 261.077 267.16 254.301 274.944 243.462C277.716 239.546 278.847 236.663 279.14 234.552Z" fill="black"/>
</g>
<path d="M246.482 239.285C247.204 237.855 248.286 236.658 249.612 235.824C250.938 234.99 252.457 234.55 254.005 234.552H326.518C326.518 234.552 331.758 234.552 330.193 244.949C328.627 255.345 307.124 318.824 301.927 338.017C296.73 357.209 295.632 397.66 295.632 397.66H208.66C208.66 397.66 215.553 300.926 246.482 239.285Z" stroke="#263238" stroke-linecap="round" stroke-linejoin="round"/>
<path d="M313.94 252.61C306.613 270.463 291.11 341.138 288.588 397.626H295.589C295.589 397.626 296.676 357.13 301.884 337.983C307.091 318.836 328.617 255.345 330.15 244.914C331.683 234.484 326.475 234.518 326.475 234.518C326.475 234.518 319.822 238.298 313.94 252.61Z" fill="#263238" stroke="#263238" stroke-linecap="round" stroke-linejoin="round"/>
<path d="M186.558 216.926C186.558 216.926 174.99 209.844 170.609 197.359C166.228 184.874 204.909 164.876 221.705 163.627C238.502 162.379 243.242 166.953 253.233 184.863C263.224 202.773 269.986 227.334 264.8 239.41C259.614 251.486 250.841 254.403 257.19 264.379C263.539 274.356 281.52 302.685 280.324 316.009C279.129 329.334 266.768 340.979 248.797 342.25C230.826 343.521 206.909 332.251 186.971 313.876C167.032 295.5 172.207 268.477 179.361 259.737C186.514 250.998 197.309 247.661 198.103 238.922C198.897 230.182 186.558 216.926 186.558 216.926Z" fill="#263238" stroke="#263238" stroke-linecap="round" stroke-linejoin="round"/>
<path d="M235.861 197.166C242.004 209.106 249.69 225.098 252.093 234.756C256.289 251.668 234.698 262.314 240.688 270.451" stroke="white" stroke-linecap="round" stroke-linejoin="round"/>
<path d="M227.49 181.526C227.49 181.526 229.882 185.782 233.187 192.047" stroke="white" stroke-linecap="round" stroke-linejoin="round"/>
<path d="M259.713 211.569C260.421 213.807 260.881 216.122 261.083 218.469" stroke="white" stroke-linecap="round" stroke-linejoin="round"/>
<path d="M231.643 175.317C231.643 175.317 250.537 189.89 258.082 207.335" stroke="white" stroke-linecap="round" stroke-linejoin="round"/>
<path d="M205.421 186.248C191.929 190.197 172.524 196.61 174.1 200.31" stroke="white" stroke-linecap="round" stroke-linejoin="round"/>
<path d="M217.89 182.774C217.89 182.774 215.009 183.523 210.715 184.727" stroke="white" stroke-linecap="round" stroke-linejoin="round"/>
<path d="M201.203 175.42C208.931 172.877 217.025 171.763 225.12 172.128" stroke="white" stroke-linecap="round" stroke-linejoin="round"/>
<path d="M195.701 177.769C196.923 177.104 198.187 176.528 199.484 176.044" stroke="white" stroke-linecap="round" stroke-linejoin="round"/>
<path d="M88.9429 202.262C87.1118 198.762 85.6536 195.062 84.5943 191.23C85.6485 195.064 87.107 198.764 88.9429 202.262ZM84.4747 190.583C84.4747 190.651 84.4747 190.731 84.4747 190.833C84.4964 190.731 84.4855 190.651 84.4747 190.583ZM88.9429 202.251C93.0088 210.291 98.0673 217.739 103.989 224.406C118.35 240.647 159.836 283.129 163.782 286.046C167.729 288.963 166.576 297.282 163.782 305.613C160.988 313.944 150.617 326.043 151.019 339.345C151.422 352.647 155.368 373.076 155.009 377.242C154.65 381.407 144.67 395.572 144.67 395.572H247.58C247.58 395.572 234.752 378.547 234.752 372.724C234.752 366.902 252.364 292.3 253.157 286.886C253.951 281.472 250.766 277.727 244.384 277.307C238.002 276.887 213.672 271.473 212.476 267.308C211.28 263.142 218.858 247.321 218.858 247.321L194.94 248.569C194.94 248.569 193.744 259.397 192.146 261.485C190.548 263.574 188.156 259.397 182.568 256.491C176.98 253.586 166.261 251.078 162.228 247.741C158.194 244.404 119.948 206.882 119.948 206.882" fill="white"/>
<mask id="mask2_145_23297" style="mask-type:luminance" maskUnits="userSpaceOnUse" x="84" y="190" width="170" height="206">
<path d="M88.9429 202.262C87.1118 198.762 85.6536 195.062 84.5943 191.23C85.6485 195.064 87.107 198.764 88.9429 202.262ZM84.4747 190.583C84.4747 190.651 84.4747 190.731 84.4747 190.833C84.4964 190.731 84.4855 190.651 84.4747 190.583ZM88.9429 202.251C93.0088 210.291 98.0673 217.739 103.989 224.406C118.35 240.647 159.836 283.129 163.782 286.046C167.729 288.963 166.576 297.282 163.782 305.613C160.988 313.944 150.617 326.043 151.019 339.345C151.422 352.647 155.368 373.076 155.009 377.242C154.65 381.407 144.67 395.572 144.67 395.572H247.58C247.58 395.572 234.752 378.547 234.752 372.724C234.752 366.902 252.364 292.3 253.157 286.886C253.951 281.472 250.766 277.727 244.384 277.307C238.002 276.887 213.672 271.473 212.476 267.308C211.28 263.142 218.858 247.321 218.858 247.321L194.94 248.569C194.94 248.569 193.744 259.397 192.146 261.485C190.548 263.574 188.156 259.397 182.568 256.491C176.98 253.586 166.261 251.078 162.228 247.741C158.194 244.404 119.948 206.882 119.948 206.882" fill="white"/>
</mask>
<g mask="url(#mask2_145_23297)">
<path d="M168.338 250.953C170.327 254.585 172.317 257.865 172.317 257.865C172.317 257.865 179.025 261.803 180.699 261.803C182.373 261.803 192.44 267.478 192.44 267.478C192.44 267.478 200.833 265.287 197.876 257.842C196.943 255.936 195.765 254.172 194.375 252.598C193.875 255.901 193.071 260.225 192.125 261.462C190.527 263.54 188.135 259.374 182.547 256.469C178.927 254.585 173.067 252.859 168.338 250.953Z" fill="#008080"/>
<path d="M147.856 234.098C135.539 222.192 119.949 206.927 119.949 206.927L110.882 205.565L109.795 206.201C109.795 206.201 135.387 229.842 140.833 232.475C143.037 233.533 145.431 234.086 147.856 234.098Z" fill="#008080"/>
<path d="M160.76 246.424L159.781 245.516C160.281 246.379 160.564 246.923 160.564 246.923L160.76 246.424Z" fill="#008080"/>
<g opacity="0.5">
<path d="M168.338 250.953C170.327 254.585 172.317 257.865 172.317 257.865C172.317 257.865 179.025 261.803 180.699 261.803C182.373 261.803 192.44 267.478 192.44 267.478C192.44 267.478 200.833 265.287 197.876 257.842C196.943 255.936 195.765 254.172 194.375 252.598C193.875 255.901 193.071 260.225 192.125 261.462C190.527 263.54 188.135 259.374 182.547 256.469C178.927 254.585 173.067 252.859 168.338 250.953Z" fill="white"/>
<path d="M147.856 234.098C135.539 222.192 119.949 206.927 119.949 206.927L110.882 205.565L109.795 206.201C109.795 206.201 135.387 229.842 140.833 232.475C143.037 233.533 145.431 234.086 147.856 234.098Z" fill="white"/>
<path d="M160.76 246.424L159.781 245.516C160.281 246.379 160.564 246.923 160.564 246.923L160.76 246.424Z" fill="white"/>
</g>
</g>
<path d="M84.4529 190.277C84.448 190.356 84.448 190.436 84.4529 190.515M84.5943 191.23C85.6536 195.062 87.1118 198.762 88.9429 202.262C87.107 198.764 85.6485 195.064 84.5943 191.23ZM84.5943 191.23C84.5643 191.122 84.5424 191.012 84.529 190.901M88.9429 202.251C93.0088 210.291 98.0673 217.739 103.989 224.406C118.35 240.647 159.836 283.129 163.782 286.046C167.729 288.963 166.576 297.282 163.782 305.613C160.988 313.944 150.617 326.043 151.019 339.345C151.422 352.647 155.368 373.076 155.009 377.242C154.65 381.407 144.67 395.571 144.67 395.571H247.58C247.58 395.571 234.752 378.547 234.752 372.724C234.752 366.902 252.364 292.3 253.157 286.886C253.951 281.472 250.766 277.727 244.384 277.307C238.002 276.887 213.672 271.473 212.476 267.308C211.28 263.142 218.858 247.321 218.858 247.321L194.94 248.569C194.94 248.569 193.744 259.397 192.146 261.485C190.548 263.574 188.156 259.397 182.568 256.491C176.98 253.586 166.261 251.078 162.228 247.741C158.194 244.404 119.948 206.882 119.948 206.882M84.4747 190.583C84.4747 190.651 84.4747 190.731 84.4747 190.833C84.4964 190.731 84.4855 190.651 84.4747 190.583Z" stroke="#263238" stroke-linecap="round" stroke-linejoin="round"/>
<path d="M119.949 206.927C119.949 206.927 107.208 207.177 100.098 201.059" stroke="#263238" stroke-linecap="round" stroke-linejoin="round"/>
<path d="M212.487 267.307C211.291 263.153 218.869 247.32 218.869 247.32L194.951 248.569C194.951 248.569 193.755 259.396 192.157 261.485C190.559 263.573 188.167 259.396 182.579 256.491C182.155 256.264 181.688 256.048 181.21 255.833L179.764 279.565C179.764 279.565 181.862 302.548 207.019 298.179C217.205 296.408 228.077 286.92 237.459 276.251C227.805 274.401 213.4 270.497 212.487 267.307Z" fill="white"/>
<mask id="mask3_145_23297" style="mask-type:luminance" maskUnits="userSpaceOnUse" x="179" y="247" width="59" height="52">
<path d="M212.487 267.307C211.291 263.153 218.869 247.32 218.869 247.32L194.951 248.569C194.951 248.569 193.755 259.396 192.157 261.485C190.559 263.573 188.167 259.396 182.579 256.491C182.155 256.264 181.688 256.048 181.21 255.833L179.764 279.565C179.764 279.565 181.862 302.548 207.019 298.179C217.205 296.408 228.077 286.92 237.459 276.251C227.805 274.401 213.4 270.497 212.487 267.307Z" fill="white"/>
</mask>
<g mask="url(#mask3_145_23297)">
<path d="M211.813 250.464C211.813 250.464 210.367 258.931 209.204 268.295C208.04 277.658 207.182 284.627 207.182 284.627L212.487 267.307L218.466 248.955C218.466 248.955 212.683 248.955 211.813 250.464Z" fill="#008080"/>
<path opacity="0.5" d="M211.813 250.464C211.813 250.464 210.367 258.931 209.204 268.295C208.04 277.658 207.182 284.627 207.182 284.627L212.487 267.307L218.466 248.955C218.466 248.955 212.683 248.955 211.813 250.464Z" fill="white"/>
</g>
<path d="M212.487 267.307C211.291 263.153 218.869 247.32 218.869 247.32L194.951 248.569C194.951 248.569 193.755 259.396 192.157 261.485C190.559 263.573 188.167 259.396 182.579 256.491C182.155 256.264 181.688 256.048 181.21 255.833L179.764 279.565C179.764 279.565 181.862 302.548 207.019 298.179C217.205 296.408 228.077 286.92 237.459 276.251C227.805 274.401 213.4 270.497 212.487 267.307Z" stroke="#263238" stroke-linecap="round" stroke-linejoin="round"/>
<path d="M192.146 261.485C190.548 263.562 188.156 259.397 182.568 256.491C179.046 254.641 173.436 252.961 168.794 251.145C167.479 247.888 165.739 243.643 164.619 241.078C162.63 236.538 159.434 239.41 159.434 239.41C157.766 237.43 156.419 235.179 155.444 232.747C153.454 228.207 150.258 228.582 145.877 227.753C141.496 226.925 132.309 218.174 132.309 218.174C132.309 218.174 128.015 214.769 126.243 213.078C124.177 217.323 119.231 224.791 108.533 229.456C125.591 248.058 160.195 283.401 163.826 286.057C167.816 288.963 166.62 297.293 163.826 305.624C161.032 313.955 150.66 326.054 151.063 339.356C151.465 352.658 155.411 373.087 155.052 377.253C154.694 380.964 146.736 392.597 145.007 395.094L149.062 395.571H170.175C170.055 384.403 170.066 338.822 177.383 320.663C185.765 299.79 192.146 261.485 192.146 261.485Z" fill="#008080"/>
<mask id="mask4_145_23297" style="mask-type:luminance" maskUnits="userSpaceOnUse" x="108" y="213" width="85" height="183">
<path d="M192.146 261.485C190.548 263.562 188.156 259.397 182.568 256.491C179.046 254.641 173.436 252.961 168.794 251.145C167.479 247.888 165.739 243.643 164.619 241.078C162.63 236.538 159.434 239.41 159.434 239.41C157.766 237.43 156.419 235.179 155.444 232.747C153.454 228.207 150.258 228.582 145.877 227.753C141.496 226.925 132.309 218.174 132.309 218.174C132.309 218.174 128.015 214.769 126.243 213.078C124.177 217.323 119.231 224.791 108.533 229.456C125.591 248.058 160.195 283.401 163.826 286.057C167.816 288.963 166.62 297.293 163.826 305.624C161.032 313.955 150.66 326.054 151.063 339.356C151.465 352.658 155.411 373.087 155.052 377.253C154.694 380.964 146.736 392.597 145.007 395.094L149.062 395.571H170.175C170.055 384.403 170.066 338.822 177.383 320.663C185.765 299.79 192.146 261.485 192.146 261.485Z" fill="white"/>
</mask>
<g mask="url(#mask4_145_23297)">
<path opacity="0.16" d="M182.569 256.491C179.046 254.641 173.437 252.961 168.795 251.145C167.479 247.888 165.74 243.643 164.62 241.078C162.63 236.538 159.434 239.41 159.434 239.41C157.767 237.43 156.419 235.179 155.444 232.747C153.455 228.207 150.259 228.582 145.877 227.753C141.496 226.925 132.31 218.174 132.31 218.174C132.31 218.174 128.015 214.769 126.243 213.078C125.359 214.881 124.307 216.588 123.102 218.174C130.233 224.473 138.104 231.147 140.855 232.475C146.291 235.097 147.562 232.906 151.726 235.539C155.89 238.172 160.532 246.889 160.532 246.889C160.532 246.889 163.054 239.875 165.153 244.699C167.251 249.522 172.284 257.83 172.284 257.83C172.284 257.83 178.992 261.769 180.666 261.769C181.982 261.769 188.429 265.264 191.168 266.774C191.777 263.448 192.114 261.451 192.114 261.451C190.549 263.562 188.157 259.397 182.569 256.491Z" fill="black"/>
</g>
<path d="M192.146 261.485C190.548 263.562 188.156 259.397 182.568 256.491C179.046 254.641 173.436 252.961 168.794 251.145C167.479 247.888 165.739 243.643 164.619 241.078C162.63 236.538 159.434 239.41 159.434 239.41C157.766 237.43 156.419 235.179 155.444 232.747C153.454 228.207 150.258 228.582 145.877 227.753C141.496 226.925 132.309 218.174 132.309 218.174C132.309 218.174 128.015 214.769 126.243 213.078C124.177 217.323 119.231 224.791 108.533 229.456C125.591 248.058 160.195 283.401 163.826 286.057C167.816 288.963 166.62 297.293 163.826 305.624C161.032 313.955 150.66 326.054 151.063 339.356C151.465 352.658 155.411 373.087 155.052 377.253C154.694 380.964 146.736 392.597 145.007 395.094L149.062 395.571H170.175C170.055 384.403 170.066 338.822 177.383 320.663C185.765 299.79 192.146 261.485 192.146 261.485Z" stroke="#263238" stroke-linecap="round" stroke-linejoin="round"/>
<path d="M192.429 260.032C192.429 260.032 187.472 258.443 184.417 261.235C181.362 264.027 176.807 278.351 174.122 293.889C172.467 302.934 173.609 312.294 177.383 320.617C177.383 320.617 183.656 303.445 185.558 295.08C187.461 286.716 192.429 260.032 192.429 260.032Z" fill="#008080"/>
<mask id="mask5_145_23297" style="mask-type:luminance" maskUnits="userSpaceOnUse" x="173" y="259" width="20" height="62">
<path d="M192.429 260.032C192.429 260.032 187.472 258.443 184.417 261.235C181.362 264.027 176.807 278.351 174.122 293.889C172.467 302.934 173.609 312.294 177.383 320.617C177.383 320.617 183.656 303.445 185.558 295.08C187.461 286.716 192.429 260.032 192.429 260.032Z" fill="white"/>
</mask>
<g mask="url(#mask5_145_23297)">
<path opacity="0.16" d="M182.916 262.563C182.916 262.563 186.504 261.655 187.982 262.177C189.227 262.735 190.391 263.472 191.439 264.368L192.429 260.032C190.945 259.24 189.261 258.951 187.613 259.204C185.145 259.726 182.916 262.563 182.916 262.563Z" fill="black"/>
</g>
<path d="M192.429 260.032C192.429 260.032 187.472 258.443 184.417 261.235C181.362 264.027 176.807 278.351 174.122 293.889C172.467 302.934 173.609 312.294 177.383 320.617C177.383 320.617 183.656 303.445 185.558 295.08C187.461 286.716 192.429 260.032 192.429 260.032Z" stroke="#263238" stroke-linecap="round" stroke-linejoin="round"/>
<path d="M159.042 261.394L165.424 288.463L151.062 254.312" stroke="#263238" stroke-linecap="round" stroke-linejoin="round"/>
<path d="M201.083 395.571H247.591C247.591 395.571 234.763 378.547 234.763 372.724C234.763 366.902 252.375 292.3 253.168 286.886C253.962 281.472 250.776 277.727 244.395 277.307C238.013 276.887 213.683 271.473 212.487 267.308C212.487 267.308 203.311 301.039 200.126 323.943C197.386 343.589 200.224 384.358 201.083 395.571Z" fill="#008080"/>
<mask id="mask6_145_23297" style="mask-type:luminance" maskUnits="userSpaceOnUse" x="198" y="267" width="56" height="129">
<path d="M201.083 395.571H247.591C247.591 395.571 234.763 378.547 234.763 372.724C234.763 366.902 252.375 292.3 253.168 286.886C253.962 281.472 250.776 277.727 244.395 277.307C238.013 276.887 213.683 271.473 212.487 267.308C212.487 267.308 203.311 301.039 200.126 323.943C197.386 343.589 200.224 384.358 201.083 395.571Z" fill="white"/>
</mask>
<g mask="url(#mask6_145_23297)">
<path opacity="0.16" d="M244.396 277.307C239.166 276.966 221.892 273.266 215.162 269.657L217.608 275.559C222.04 278.014 226.807 279.744 231.741 280.689C239.84 282.199 247.374 281.904 252.299 289.463L252.538 289.837C252.843 288.384 253.049 287.363 253.115 286.886C253.973 281.472 250.777 277.727 244.396 277.307Z" fill="black"/>
</g>
<path d="M201.083 395.571H247.591C247.591 395.571 234.763 378.547 234.763 372.724C234.763 366.902 252.375 292.3 253.168 286.886C253.962 281.472 250.776 277.727 244.395 277.307C238.013 276.887 213.683 271.473 212.487 267.308C212.487 267.308 203.311 301.039 200.126 323.943C197.386 343.589 200.224 384.358 201.083 395.571Z" stroke="#263238" stroke-linecap="round" stroke-linejoin="round"/>
<path d="M212.486 267.308C212.486 267.308 200.179 308.167 200.125 323.943C200.125 323.943 217.606 301.845 219.889 286.318C222.172 270.792 212.486 267.308 212.486 267.308Z" fill="#008080"/>
<mask id="mask7_145_23297" style="mask-type:luminance" maskUnits="userSpaceOnUse" x="200" y="267" width="21" height="57">
<path d="M212.486 267.308C212.486 267.308 200.179 308.167 200.125 323.943C200.125 323.943 217.606 301.845 219.889 286.318C222.172 270.792 212.486 267.308 212.486 267.308Z" fill="white"/>
</mask>
<g mask="url(#mask7_145_23297)">
<path opacity="0.16" d="M210.365 272.529C212.214 272.464 214.051 272.87 215.716 273.713C217.381 274.555 218.824 275.808 219.921 277.364C219.921 277.364 217.508 269.952 212.485 267.308L210.365 272.529Z" fill="black"/>
</g>
<path d="M212.486 267.308C212.486 267.308 200.179 308.167 200.125 323.943C200.125 323.943 217.606 301.845 219.889 286.318C222.172 270.792 212.486 267.308 212.486 267.308Z" stroke="#263238" stroke-linecap="round" stroke-linejoin="round"/>
<path d="M343.87 387.887C343.87 387.887 352.883 388.273 358.786 389.159C362.723 389.716 366.686 390.045 370.658 390.146C370.658 390.146 367.396 383.268 363.917 381.327C360.438 379.386 354.133 375.913 348.849 376.685C343.566 377.457 336.01 383.018 336.641 384.789C337.271 386.56 340.087 387.354 343.87 387.887Z" fill="white"/>
<mask id="mask8_145_23297" style="mask-type:luminance" maskUnits="userSpaceOnUse" x="336" y="376" width="35" height="15">
<path d="M343.87 387.887C343.87 387.887 352.883 388.273 358.786 389.159C362.723 389.716 366.686 390.045 370.658 390.146C370.658 390.146 367.396 383.268 363.917 381.327C360.438 379.386 354.133 375.913 348.849 376.685C343.566 377.457 336.01 383.018 336.641 384.789C337.271 386.56 340.087 387.354 343.87 387.887Z" fill="white"/>
</mask>
<g mask="url(#mask8_145_23297)">
<path d="M343.87 387.887C343.87 387.887 352.883 388.273 358.786 389.159C362.723 389.716 366.686 390.045 370.658 390.146C370.658 390.146 367.396 383.268 363.917 381.327C360.438 379.386 354.133 375.913 348.849 376.685C343.566 377.457 336.01 383.018 336.641 384.789C337.271 386.56 340.087 387.354 343.87 387.887Z" fill="#008080"/>
<path opacity="0.5" d="M343.87 387.887C343.87 387.887 352.883 388.273 358.786 389.159C362.723 389.716 366.686 390.045 370.658 390.146C370.658 390.146 367.396 383.268 363.917 381.327C360.438 379.386 354.133 375.913 348.849 376.685C343.566 377.457 336.01 383.018 336.641 384.789C337.271 386.56 340.087 387.354 343.87 387.887Z" fill="white"/>
</g>
<path d="M343.87 387.887C343.87 387.887 352.883 388.273 358.786 389.159C362.723 389.716 366.686 390.045 370.658 390.146C370.658 390.146 367.396 383.268 363.917 381.327C360.438 379.386 354.133 375.913 348.849 376.685C343.566 377.457 336.01 383.018 336.641 384.789C337.271 386.56 340.087 387.354 343.87 387.887Z" stroke="#263238" stroke-linecap="round" stroke-linejoin="round"/>
<path d="M358.84 385.073C358.84 385.073 365.982 381.203 367.765 381.259C369.548 381.316 381.398 389.681 380.811 391.02C380.413 391.641 379.837 392.116 379.166 392.376C378.495 392.637 377.762 392.671 377.071 392.473C375.756 391.826 367.776 388.285 367.776 388.285L362.558 389.567L358.84 385.073Z" fill="white"/>
<mask id="mask9_145_23297" style="mask-type:luminance" maskUnits="userSpaceOnUse" x="358" y="381" width="23" height="12">
<path d="M358.84 385.073C358.84 385.073 365.982 381.203 367.765 381.259C369.548 381.316 381.398 389.681 380.811 391.02C380.413 391.641 379.837 392.116 379.166 392.376C378.495 392.637 377.762 392.671 377.071 392.473C375.756 391.826 367.776 388.285 367.776 388.285L362.558 389.567L358.84 385.073Z" fill="white"/>
</mask>
<g mask="url(#mask9_145_23297)">
<path d="M358.84 385.073C358.84 385.073 365.982 381.203 367.765 381.259C369.548 381.316 381.398 389.681 380.811 391.02C380.224 392.359 377.419 393.449 377.071 392.473C376.723 391.497 367.776 388.285 367.776 388.285L362.558 389.567L358.84 385.073Z" fill="#008080"/>
<path opacity="0.5" d="M358.84 385.073C358.84 385.073 365.982 381.203 367.765 381.259C369.548 381.316 381.398 389.681 380.811 391.02C380.224 392.359 377.419 393.449 377.071 392.473C376.723 391.497 367.776 388.285 367.776 388.285L362.558 389.567L358.84 385.073Z" fill="white"/>
</g>
<path d="M358.84 385.073C358.84 385.073 365.982 381.203 367.765 381.259C369.548 381.316 381.398 389.681 380.811 391.02C380.413 391.641 379.837 392.116 379.166 392.376C378.495 392.637 377.762 392.671 377.071 392.473C375.756 391.826 367.776 388.285 367.776 388.285L362.558 389.567L358.84 385.073Z" stroke="#263238" stroke-linecap="round" stroke-linejoin="round"/>
<path d="M353.74 378.705C353.74 378.705 363.264 378.387 365.155 379.386C367.047 380.385 375.592 395.685 374.309 396.797C373.026 397.909 369.482 397.58 369.591 396.343C369.7 395.106 361.72 386.911 361.72 386.911L355.512 385.492L353.74 378.705Z" fill="white"/>
<mask id="mask10_145_23297" style="mask-type:luminance" maskUnits="userSpaceOnUse" x="353" y="378" width="22" height="20">
<path d="M353.74 378.705C353.74 378.705 363.264 378.387 365.155 379.386C367.047 380.385 375.592 395.685 374.309 396.797C373.026 397.909 369.482 397.58 369.591 396.343C369.7 395.106 361.72 386.911 361.72 386.911L355.512 385.492L353.74 378.705Z" fill="white"/>
</mask>
<g mask="url(#mask10_145_23297)">
<path d="M353.74 378.705C353.74 378.705 363.264 378.387 365.155 379.386C367.047 380.385 375.592 395.685 374.309 396.797C373.026 397.909 369.482 397.58 369.591 396.343C369.7 395.106 361.72 386.911 361.72 386.911L355.512 385.492L353.74 378.705Z" fill="#008080"/>
<path opacity="0.5" d="M353.74 378.705C353.74 378.705 363.264 378.387 365.155 379.386C367.047 380.385 375.592 395.685 374.309 396.797C373.026 397.909 369.482 397.58 369.591 396.343C369.7 395.106 361.72 386.911 361.72 386.911L355.512 385.492L353.74 378.705Z" fill="white"/>
</g>
<path d="M353.74 378.705C353.74 378.705 363.264 378.387 365.155 379.386C367.047 380.385 375.592 395.685 374.309 396.797C373.026 397.909 369.482 397.58 369.591 396.343C369.7 395.106 361.72 386.911 361.72 386.911L355.512 385.492L353.74 378.705Z" stroke="#263238" stroke-linecap="round" stroke-linejoin="round"/>
<path d="M348.098 376.651C348.098 376.651 357.741 376.322 359.654 377.343C361.567 378.365 370.221 393.835 368.917 394.97C367.612 396.105 364.046 395.753 364.155 394.504C364.264 393.256 356.186 384.959 356.186 384.959L349.902 383.518L348.098 376.651Z" fill="white"/>
<mask id="mask11_145_23297" style="mask-type:luminance" maskUnits="userSpaceOnUse" x="348" y="376" width="22" height="20">
<path d="M348.098 376.651C348.098 376.651 357.741 376.322 359.654 377.343C361.567 378.365 370.221 393.835 368.917 394.97C367.612 396.105 364.046 395.753 364.155 394.504C364.264 393.256 356.186 384.959 356.186 384.959L349.902 383.518L348.098 376.651Z" fill="white"/>
</mask>
<g mask="url(#mask11_145_23297)">
<path d="M348.098 376.651C348.098 376.651 357.741 376.322 359.654 377.343C361.567 378.365 370.221 393.835 368.917 394.97C367.612 396.105 364.046 395.753 364.155 394.504C364.264 393.256 356.186 384.959 356.186 384.959L349.902 383.518L348.098 376.651Z" fill="#008080"/>
<path opacity="0.5" d="M348.098 376.651C348.098 376.651 357.741 376.322 359.654 377.343C361.567 378.365 370.221 393.835 368.917 394.97C367.612 396.105 364.046 395.753 364.155 394.504C364.264 393.256 356.186 384.959 356.186 384.959L349.902 383.518L348.098 376.651Z" fill="white"/>
</g>
<path d="M348.098 376.651C348.098 376.651 357.741 376.322 359.654 377.343C361.567 378.365 370.221 393.835 368.917 394.97C367.612 396.105 364.046 395.753 364.155 394.504C364.264 393.256 356.186 384.959 356.186 384.959L349.902 383.518L348.098 376.651Z" stroke="#263238" stroke-linecap="round" stroke-linejoin="round"/>
<path d="M238.46 318.972C245.439 330.197 259.453 358.639 263.54 361.84C269.922 366.834 312.582 378.955 316.691 382.27C320.801 385.584 320.518 388.909 324.41 390.124C328.302 391.338 342.892 394.822 348.458 395.367C354.024 395.912 351.535 392.314 351.535 392.314L342.044 385.504L350.317 383.37C350.317 383.37 358.612 393.79 360.167 394.357C361.721 394.924 364.461 394.357 364.287 393.074C363.983 391.02 355.133 374.211 351.991 373.496C348.849 372.781 329.781 375.539 329.781 375.539C329.781 375.539 289.784 347.38 289.067 346.382C289.067 346.382 286.675 339.299 284.718 336.382C282.761 333.466 281.522 334.305 281.522 334.305C281.522 334.305 282.326 330.549 281.131 329.3L274.749 322.638L274.521 322.956C273.434 320.686 272.346 318.098 271.151 315.147C267.813 306.941 255.996 283.912 254.006 280.587C252.517 278.101 240.036 276.319 233.709 275.57" fill="#008080"/>
<mask id="mask12_145_23297" style="mask-type:luminance" maskUnits="userSpaceOnUse" x="233" y="275" width="132" height="121">
<path d="M238.46 318.972C245.439 330.197 259.453 358.639 263.54 361.84C269.922 366.834 312.582 378.955 316.691 382.27C320.801 385.584 320.518 388.909 324.41 390.124C328.302 391.338 342.892 394.822 348.458 395.367C354.024 395.912 351.535 392.314 351.535 392.314L342.044 385.504L350.317 383.37C350.317 383.37 358.612 393.79 360.167 394.357C361.721 394.924 364.461 394.357 364.287 393.074C363.983 391.02 355.133 374.211 351.991 373.496C348.849 372.781 329.781 375.539 329.781 375.539C329.781 375.539 289.784 347.38 289.067 346.382C289.067 346.382 286.675 339.299 284.718 336.382C282.761 333.466 281.522 334.305 281.522 334.305C281.522 334.305 282.326 330.549 281.131 329.3L274.749 322.638L274.521 322.956C273.434 320.686 272.346 318.098 271.151 315.147C267.813 306.941 255.996 283.912 254.006 280.587C252.517 278.101 240.036 276.319 233.709 275.57" fill="white"/>
</mask>
<g mask="url(#mask12_145_23297)">
<path opacity="0.16" d="M266.247 319.687C271.465 324.522 269.726 324.522 268.563 328.766C267.399 333.011 269.432 327.257 274.357 327.563C279.282 327.87 277.836 334.509 277.249 335.724C276.662 336.938 283.337 338.448 282.174 341.16C281.01 343.873 274.357 347.811 270.595 351.75C266.834 355.688 280.434 345.394 285.066 345.099C286.479 344.997 287.642 345.19 288.62 345.167C287.594 342.13 286.275 339.21 284.685 336.45C282.685 333.533 281.489 334.373 281.489 334.373C281.489 334.373 282.293 330.616 281.097 329.368L274.716 322.706L274.488 323.023C273.4 320.754 272.313 318.166 271.117 315.215C267.78 307.009 255.962 283.98 253.973 280.655C252.484 278.169 240.003 276.387 233.676 275.638L234.252 280.893L234.393 281.007C234.393 281.007 242.21 282.516 244.819 282.823C247.428 283.129 250.614 285.535 250.32 287.362C250.027 289.19 242.503 297.339 244.819 297.952C247.135 298.565 249.744 291.902 252.353 292.81C254.962 293.718 260.996 314.852 266.247 319.687Z" fill="black"/>
</g>
<path d="M238.46 318.972C245.439 330.197 259.453 358.639 263.54 361.84C269.922 366.834 312.582 378.955 316.691 382.27C320.801 385.584 320.518 388.909 324.41 390.124C328.302 391.338 342.892 394.822 348.458 395.367C354.024 395.912 351.535 392.314 351.535 392.314L342.044 385.504L350.317 383.37C350.317 383.37 358.612 393.79 360.167 394.357C361.721 394.924 364.461 394.357 364.287 393.074C363.983 391.02 355.133 374.211 351.991 373.496C348.849 372.781 329.781 375.539 329.781 375.539C329.781 375.539 289.784 347.38 289.067 346.382C289.067 346.382 286.675 339.299 284.718 336.382C282.761 333.466 281.522 334.305 281.522 334.305C281.522 334.305 282.326 330.549 281.131 329.3L274.749 322.638L274.521 322.956C273.434 320.686 272.346 318.098 271.151 315.147C267.813 306.941 255.996 283.912 254.006 280.587C252.517 278.101 240.036 276.319 233.709 275.57" stroke="#263238" stroke-linecap="round" stroke-linejoin="round"/>
<path d="M238.567 303.57C238.274 304.592 238.024 305.613 237.828 306.657" stroke="#263238" stroke-linecap="round" stroke-linejoin="round"/>
<path d="M249.135 284.786C245.719 288.851 242.838 293.374 240.568 298.236" stroke="#263238" stroke-linecap="round" stroke-linejoin="round"/>
<path d="M265.105 349.23C268.041 344.69 272.716 338.936 277.869 337.29" stroke="#263238" stroke-linecap="round" stroke-linejoin="round"/>
<path d="M261.855 354.814C261.855 354.814 262.377 353.747 263.312 352.136" stroke="#263238" stroke-linecap="round" stroke-linejoin="round"/>
<path d="M261.855 347.641C261.855 347.641 267.193 333.704 272.531 330.117C277.869 326.53 274.814 333.704 274.814 333.704" stroke="#263238" stroke-linecap="round" stroke-linejoin="round"/>
<path d="M316.691 382.281C320.812 385.606 320.518 388.92 324.41 390.135C328.302 391.349 342.892 394.833 348.458 395.378C354.024 395.923 351.535 392.325 351.535 392.325L342.044 385.515L350.317 383.382C350.317 383.382 358.612 393.801 360.167 394.368C361.721 394.936 364.678 395.14 364.287 393.086C363.526 389.113 355.133 374.222 351.991 373.507C348.849 372.792 329.781 375.55 329.781 375.55C329.781 375.55 293.35 349.446 289.36 346.62C273.89 348.175 266.53 356.63 263.432 361.703L263.54 361.794C269.922 366.834 312.582 378.955 316.691 382.281Z" fill="white"/>
<mask id="mask13_145_23297" style="mask-type:luminance" maskUnits="userSpaceOnUse" x="263" y="346" width="102" height="50">
<path d="M316.691 382.281C320.812 385.606 320.518 388.92 324.41 390.135C328.302 391.349 342.892 394.833 348.458 395.378C354.024 395.923 351.535 392.325 351.535 392.325L342.044 385.515L350.317 383.382C350.317 383.382 358.612 393.801 360.167 394.368C361.721 394.936 364.678 395.14 364.287 393.086C363.526 389.113 355.133 374.222 351.991 373.507C348.849 372.792 329.781 375.55 329.781 375.55C329.781 375.55 293.35 349.446 289.36 346.62C273.89 348.175 266.53 356.63 263.432 361.703L263.54 361.794C269.922 366.834 312.582 378.955 316.691 382.281Z" fill="white"/>
</mask>
<g mask="url(#mask13_145_23297)">
<path d="M364.275 393.131C362.297 388.08 355.121 374.268 351.979 373.553C348.838 372.838 329.769 375.596 329.769 375.596C329.769 375.596 293.338 349.491 289.349 346.665C285.288 347.034 281.304 348.04 277.531 349.65C283.282 353.055 321.615 375.754 326.453 376.765C331.584 377.9 348.707 374.96 351.719 377.071C353.632 378.41 359.329 387.842 363.177 394.538C364.275 394.368 364.677 394.152 364.275 393.131Z" fill="#008080"/>
<path opacity="0.5" d="M364.275 393.131C361.188 385.901 355.121 374.268 351.979 373.553C348.838 372.838 329.769 375.596 329.769 375.596C329.769 375.596 293.338 349.491 289.349 346.665C285.288 347.034 281.304 348.04 277.531 349.65C283.282 353.055 321.615 375.754 326.453 376.765C331.584 377.9 348.707 374.96 351.719 377.071C353.632 378.41 359.329 387.842 363.177 394.538C364.275 394.368 364.71 394.141 364.275 393.131Z" fill="white"/>
</g>
<path d="M316.691 382.281C320.812 385.606 320.518 388.92 324.41 390.135C328.302 391.349 342.892 394.833 348.458 395.378C354.024 395.923 351.535 392.325 351.535 392.325L342.044 385.515L350.317 383.382C350.317 383.382 358.612 393.801 360.167 394.368C361.721 394.936 364.678 395.14 364.287 393.086C363.526 389.113 355.133 374.222 351.991 373.507C348.849 372.792 329.781 375.55 329.781 375.55C329.781 375.55 293.35 349.446 289.36 346.62C273.89 348.175 266.53 356.63 263.432 361.703L263.54 361.794C269.922 366.834 312.582 378.955 316.691 382.281Z" stroke="#263238" stroke-linecap="round" stroke-linejoin="round"/>
<path d="M220.608 184.091L187.863 198.357C187.466 204.366 186.041 210.251 183.655 215.734C179.785 224.28 182.046 240.454 185.764 249.182C189.482 257.91 205.866 254.493 211.856 253.404C215.919 252.597 219.898 251.385 223.739 249.783C225.487 250.487 227.379 250.714 229.235 250.444C231.091 250.174 232.851 249.416 234.349 248.24C234.349 248.24 216.824 196.882 220.608 184.091Z" fill="white"/>
<mask id="mask14_145_23297" style="mask-type:luminance" maskUnits="userSpaceOnUse" x="181" y="184" width="54" height="71">
<path d="M220.608 184.091L187.863 198.357C187.466 204.366 186.041 210.251 183.655 215.734C179.785 224.28 182.046 240.454 185.764 249.182C189.482 257.91 205.866 254.493 211.856 253.404C215.919 252.597 219.898 251.385 223.739 249.783C225.487 250.487 227.379 250.714 229.235 250.444C231.091 250.174 232.851 249.416 234.349 248.24C234.349 248.24 216.824 196.882 220.608 184.091Z" fill="white"/>
</mask>
<g mask="url(#mask14_145_23297)">
<path d="M220.608 184.091L187.863 198.357C187.466 204.366 186.041 210.251 183.655 215.734C179.785 224.28 182.046 240.454 185.764 249.182C186.387 250.585 187.388 251.769 188.645 252.587V251.928C188.645 251.928 182.568 236.209 183.721 227.141C184.873 218.072 189.809 213.521 190.385 207.789C190.961 202.057 190.667 199.334 201.68 195.1C212.693 190.867 217.314 186.94 218.466 191.162C219.618 195.384 224.26 223.213 227.446 229.864C230.631 236.515 230.338 243.484 225.424 246.492C220.457 249.604 215.136 252.052 209.584 253.778L211.9 253.358C215.962 252.552 219.941 251.339 223.782 249.738C225.531 250.442 227.422 250.669 229.279 250.399C231.135 250.129 232.895 249.37 234.393 248.194C234.393 248.194 216.824 196.882 220.608 184.091Z" fill="#008080"/>
<path opacity="0.5" d="M220.608 184.091L187.863 198.357C187.466 204.366 186.041 210.251 183.655 215.734C179.785 224.28 182.046 240.454 185.764 249.182C186.387 250.585 187.388 251.769 188.645 252.587V251.928C188.645 251.928 182.568 236.209 183.721 227.141C184.873 218.072 189.809 213.521 190.385 207.789C190.961 202.057 190.667 199.334 201.68 195.1C212.693 190.867 217.314 186.94 218.466 191.162C219.618 195.384 224.26 223.213 227.446 229.864C230.631 236.515 230.338 243.484 225.424 246.492C220.457 249.604 215.136 252.052 209.584 253.778L211.9 253.358C215.962 252.552 219.941 251.339 223.782 249.738C225.531 250.442 227.422 250.669 229.279 250.399C231.135 250.129 232.895 249.37 234.393 248.194C234.393 248.194 216.824 196.882 220.608 184.091Z" fill="white"/>
</g>
<path d="M220.608 184.091L187.863 198.357C187.466 204.366 186.041 210.251 183.655 215.734C179.785 224.28 182.046 240.454 185.764 249.182C189.482 257.91 205.866 254.493 211.856 253.404C215.919 252.597 219.898 251.385 223.739 249.783C225.487 250.487 227.379 250.714 229.235 250.444C231.091 250.174 232.851 249.416 234.349 248.24C234.349 248.24 216.824 196.882 220.608 184.091Z" stroke="#263238" stroke-linecap="round" stroke-linejoin="round"/>
<path d="M204.061 206.461C204.15 208.471 203.911 210.482 203.355 212.409C202.485 214.679 194.277 223.6 194.527 224.564C194.777 225.529 195.516 228.628 196.973 228.923" stroke="#263238" stroke-linecap="round" stroke-linejoin="round"/>
<path d="M213.16 214.44C214.302 212.057 218.052 214.384 217.998 219.752" stroke="#263238" stroke-linecap="round" stroke-linejoin="round"/>
<path d="M194.57 207.426C194.57 207.426 197.767 205.962 200.626 211.364" stroke="#263238" stroke-linecap="round" stroke-linejoin="round"/>
<path d="M208.617 222.306C212.311 222.5 215.822 224.038 218.543 226.653" stroke="#263238" stroke-width="0.5" stroke-linecap="round" stroke-linejoin="round"/>
<path d="M190.711 215.212C192.621 215.479 194.486 216.017 196.255 216.813" stroke="#263238" stroke-width="0.5" stroke-linecap="round" stroke-linejoin="round"/>
<path d="M203.702 201.422C202.858 200.956 201.922 200.701 200.967 200.677C200.012 200.654 199.066 200.862 198.201 201.286C195.277 202.75 193.483 204.362 193.679 202.489C193.874 200.616 197.31 198.55 198.342 198.278C199.375 198.006 203.996 197.257 203.702 201.422Z" fill="#263238"/>
<path d="M211.9 197.189C214.948 199.763 217.369 203.053 218.967 206.79C221.141 212.465 222.859 206.268 221.141 202.557C219.423 198.846 214.455 194.896 211.9 197.189Z" fill="#263238"/>
<path d="M234.827 257.944C234.827 260.589 233.392 262.734 231.631 262.734C229.869 262.734 228.445 260.589 228.445 257.944C228.445 255.3 229.869 248.569 231.631 248.569C233.392 248.569 234.827 255.3 234.827 257.944Z" fill="#008080" stroke="#263238" stroke-linecap="round" stroke-linejoin="round"/>
<path d="M213.443 213.407C213.318 213.754 213.22 214.111 213.149 214.474C212.834 216.154 212.519 219.661 213.149 219.809C213.78 219.956 215.324 216.676 215.595 214.996C215.657 214.667 215.693 214.333 215.704 213.997C214.962 213.755 214.207 213.557 213.443 213.407Z" fill="#263238"/>
<path d="M194.897 207.097C194.801 207.394 194.724 207.697 194.669 208.005C194.343 209.685 194.354 213.374 195.039 213.51C195.724 213.646 196.843 210.196 197.159 208.516C197.237 208.108 197.281 207.694 197.289 207.279C196.511 207.055 195.698 206.994 194.897 207.097Z" fill="#263238"/>
<path d="M213.16 214.497L214.247 212.386C215.971 212.737 217.532 213.68 218.683 215.065" stroke="#263238" stroke-width="0.75" stroke-linecap="round" stroke-linejoin="round"/>
<path d="M194.896 207.097L195.984 205.769C195.984 205.769 196.451 205.531 199.017 206.745" stroke="#263238" stroke-width="0.75" stroke-linecap="round" stroke-linejoin="round"/>
<path d="M190.777 237.878C190.777 237.878 192.604 234.371 195.05 234.371C197.496 234.371 199.322 240.102 199.322 240.102" stroke="#263238" stroke-linecap="round" stroke-linejoin="round"/>
<path d="M112.057 389.125C109.693 389.002 107.371 388.425 105.207 387.422C104.906 387.306 104.63 387.127 104.397 386.895C104.164 386.664 103.978 386.386 103.851 386.077C103.725 385.769 103.659 385.436 103.659 385.101C103.66 384.765 103.725 384.433 103.852 384.124C103.979 383.816 104.165 383.538 104.398 383.307C104.632 383.075 104.908 382.896 105.209 382.78C105.511 382.664 105.832 382.613 106.153 382.631C106.475 382.648 106.789 382.734 107.077 382.882C109.252 383.847 112.067 384.449 112.818 384.108C114.198 382.497 116.318 372.758 113.579 368.06C112.959 367.015 112.383 366.822 112.002 366.777C110.448 366.55 108.143 368.219 107.327 369.047C107.1 369.271 106.833 369.445 106.542 369.561C106.25 369.677 105.939 369.732 105.628 369.722C105.316 369.713 105.008 369.639 104.724 369.506C104.439 369.373 104.182 369.182 103.968 368.945C103.754 368.708 103.587 368.429 103.476 368.125C103.365 367.82 103.312 367.496 103.321 367.17C103.33 366.845 103.401 366.524 103.529 366.227C103.656 365.929 103.839 365.661 104.066 365.438C104.49 365.007 108.415 361.318 112.6 361.908C113.638 362.066 114.627 362.472 115.491 363.094C116.354 363.716 117.069 364.538 117.579 365.495C121.613 372.361 118.851 385.425 115.753 388.012C114.676 388.808 113.374 389.2 112.057 389.125Z" fill="white"/>
<mask id="mask15_145_23297" style="mask-type:luminance" maskUnits="userSpaceOnUse" x="103" y="361" width="17" height="29">
<path d="M112.057 389.125C109.693 389.002 107.371 388.425 105.207 387.422C104.906 387.306 104.63 387.127 104.397 386.895C104.164 386.664 103.978 386.386 103.851 386.077C103.725 385.769 103.659 385.436 103.659 385.101C103.66 384.765 103.725 384.433 103.852 384.124C103.979 383.816 104.165 383.538 104.398 383.307C104.632 383.075 104.908 382.896 105.209 382.78C105.511 382.664 105.832 382.613 106.153 382.631C106.475 382.648 106.789 382.734 107.077 382.882C109.252 383.847 112.067 384.449 112.818 384.108C114.198 382.497 116.318 372.758 113.579 368.06C112.959 367.015 112.383 366.822 112.002 366.777C110.448 366.55 108.143 368.219 107.327 369.047C107.1 369.271 106.833 369.445 106.542 369.561C106.25 369.677 105.939 369.732 105.628 369.722C105.316 369.713 105.008 369.639 104.724 369.506C104.439 369.373 104.182 369.182 103.968 368.945C103.754 368.708 103.587 368.429 103.476 368.125C103.365 367.82 103.312 367.496 103.321 367.17C103.33 366.845 103.401 366.524 103.529 366.227C103.656 365.929 103.839 365.661 104.066 365.438C104.49 365.007 108.415 361.318 112.6 361.908C113.638 362.066 114.627 362.472 115.491 363.094C116.354 363.716 117.069 364.538 117.579 365.495C121.613 372.361 118.851 385.425 115.753 388.012C114.676 388.808 113.374 389.2 112.057 389.125Z" fill="white"/>
</mask>
<g mask="url(#mask15_145_23297)">
<path d="M115.241 367.31C114.956 366.605 114.51 365.984 113.941 365.501C113.372 365.019 112.699 364.689 111.98 364.541C109.262 364.087 106.707 366.936 106.424 367.254C106.165 367.58 106.004 367.981 105.963 368.403C105.923 368.826 106.004 369.252 106.196 369.626C106.624 369.536 107.019 369.324 107.338 369.013C108.153 368.218 110.458 366.55 112.012 366.743C112.393 366.743 112.969 366.981 113.589 368.025C116.328 372.679 114.208 382.462 112.828 384.074C112.078 384.415 109.273 383.813 107.088 382.848C106.819 382.73 106.531 382.665 106.24 382.655C106.259 382.966 106.353 383.267 106.513 383.531C106.672 383.795 106.892 384.012 107.153 384.165C108.527 384.931 110.044 385.38 111.599 385.481C112.487 385.526 113.356 385.208 114.024 384.596C116.067 382.633 117.872 372.588 115.241 367.31Z" fill="#008080"/>
<path opacity="0.5" d="M115.241 367.31C114.956 366.605 114.51 365.984 113.941 365.501C113.372 365.019 112.699 364.689 111.98 364.541C109.262 364.087 106.707 366.936 106.424 367.254C106.165 367.58 106.004 367.981 105.963 368.403C105.923 368.826 106.004 369.252 106.196 369.626C106.624 369.536 107.019 369.324 107.338 369.013C108.153 368.218 110.458 366.55 112.012 366.743C112.393 366.743 112.969 366.981 113.589 368.025C116.328 372.679 114.208 382.462 112.828 384.074C112.078 384.415 109.273 383.813 107.088 382.848C106.819 382.73 106.531 382.665 106.24 382.655C106.259 382.966 106.353 383.267 106.513 383.531C106.672 383.795 106.892 384.012 107.153 384.165C108.527 384.931 110.044 385.38 111.599 385.481C112.487 385.526 113.356 385.208 114.024 384.596C116.067 382.633 117.872 372.588 115.241 367.31Z" fill="white"/>
</g>
<path d="M112.057 389.125C109.693 389.002 107.371 388.425 105.207 387.422C104.906 387.306 104.63 387.127 104.397 386.895C104.164 386.664 103.978 386.386 103.851 386.077C103.725 385.769 103.659 385.436 103.659 385.101C103.66 384.765 103.725 384.433 103.852 384.124C103.979 383.816 104.165 383.538 104.398 383.307C104.632 383.075 104.908 382.896 105.209 382.78C105.511 382.664 105.832 382.613 106.153 382.631C106.475 382.648 106.789 382.734 107.077 382.882C109.252 383.847 112.067 384.449 112.818 384.108C114.198 382.497 116.318 372.758 113.579 368.06C112.959 367.015 112.383 366.822 112.002 366.777C110.448 366.55 108.143 368.219 107.327 369.047C107.1 369.271 106.833 369.445 106.542 369.561C106.25 369.677 105.939 369.732 105.628 369.722C105.316 369.713 105.008 369.639 104.724 369.506C104.439 369.373 104.182 369.182 103.968 368.945C103.754 368.708 103.587 368.429 103.476 368.125C103.365 367.82 103.312 367.496 103.321 367.17C103.33 366.845 103.401 366.524 103.529 366.227C103.656 365.929 103.839 365.661 104.066 365.438C104.49 365.007 108.415 361.318 112.6 361.908C113.638 362.066 114.627 362.472 115.491 363.094C116.354 363.716 117.069 364.538 117.579 365.495C121.613 372.361 118.851 385.425 115.753 388.012C114.676 388.808 113.374 389.2 112.057 389.125Z" stroke="#263238" stroke-linecap="round" stroke-linejoin="round"/>
<path d="M107.904 359.842H81.7578V396.071H107.904V359.842Z" fill="white"/>
<mask id="mask16_145_23297" style="mask-type:luminance" maskUnits="userSpaceOnUse" x="81" y="359" width="27" height="38">
<path d="M107.904 359.842H81.7578V396.071H107.904V359.842Z" fill="white"/>
</mask>
<g mask="url(#mask16_145_23297)">
<path d="M92.4663 359.842H81.7578V396.071H92.4663V359.842Z" fill="#008080"/>
<path opacity="0.5" d="M92.4663 359.842H81.7578V396.071H92.4663V359.842Z" fill="white"/>
</g>
<path d="M107.904 359.842H81.7578V396.071H107.904V359.842Z" stroke="#263238" stroke-linecap="round" stroke-linejoin="round"/>
<path d="M251.582 395.571H139.888L136.246 331.468C136.145 330.846 136.175 330.21 136.333 329.601C136.491 328.993 136.773 328.427 137.161 327.944C137.549 327.461 138.032 327.071 138.578 326.801C139.124 326.532 139.719 326.389 140.323 326.383H251.104C251.711 326.383 252.311 326.52 252.862 326.787C253.414 327.054 253.902 327.443 254.295 327.927C254.687 328.411 254.974 328.979 255.134 329.59C255.294 330.202 255.325 330.843 255.224 331.468L251.582 395.571Z" fill="#263238" stroke="#263238" stroke-linecap="round" stroke-linejoin="round"/>
<path d="M145.389 327.915H250.299C250.892 327.909 251.478 328.038 252.018 328.293C252.558 328.548 253.038 328.924 253.424 329.393C253.811 329.862 254.094 330.414 254.255 331.01C254.415 331.605 254.449 332.23 254.354 332.841" stroke="white" stroke-linecap="round" stroke-linejoin="round"/>
<path d="M137.061 331.831C137.148 330.758 137.62 329.759 138.381 329.033C139.143 328.308 140.139 327.908 141.17 327.915" stroke="white" stroke-linecap="round" stroke-linejoin="round"/>
<path d="M252.049 389.329H139.42V395.571H252.049V389.329Z" fill="white" stroke="#263238" stroke-linecap="round" stroke-linejoin="round"/>
<path d="M195.333 366.221C199.74 366.221 203.313 363.985 203.313 361.227C203.313 358.469 199.74 356.233 195.333 356.233C190.926 356.233 187.354 358.469 187.354 361.227C187.354 363.985 190.926 366.221 195.333 366.221Z" fill="white" stroke="#263238" stroke-linecap="round" stroke-linejoin="round"/>
<path d="M421.926 394.833H2.4375V405.468H421.926V394.833Z" fill="#263238"/>
<path d="M313.157 0.53125H111.349C104.546 0.53125 99.0312 6.28855 99.0312 13.3905V134.277C99.0312 141.379 104.546 147.136 111.349 147.136H313.157C319.96 147.136 325.474 141.379 325.474 134.277V13.3905C325.474 6.28855 319.96 0.53125 313.157 0.53125Z" fill="#008080"/>
<path d="M217.577 84.7807C235.883 81.7093 248.338 63.7266 245.396 44.6153C242.454 25.504 225.229 12.5011 206.923 15.5725C188.617 18.6439 176.162 36.6266 179.104 55.7378C182.046 74.8491 199.271 87.8521 217.577 84.7807Z" fill="#263238"/>
<path d="M211.997 56.6556L200.81 71.6486C200.43 72.2727 199.907 72.7883 199.288 73.1489C198.67 73.5095 197.975 73.7038 197.266 73.7143C196.294 73.7281 195.357 73.3406 194.657 72.6361C194.301 72.2955 194.02 71.879 193.833 71.4148C193.645 70.9507 193.555 70.4497 193.57 69.9462C193.605 68.8184 193.986 67.7322 194.657 66.8477L207.409 50.3791L195.451 33.8993C194.895 33.1259 194.59 32.1875 194.581 31.2207C194.578 30.6442 194.69 30.0732 194.909 29.5439C195.127 29.0145 195.449 28.5382 195.853 28.1449C196.232 27.7315 196.688 27.4026 197.192 27.1783C197.697 26.9539 198.24 26.8388 198.788 26.8397C199.49 26.8516 200.179 27.0469 200.79 27.4077C201.402 27.7685 201.917 28.2834 202.289 28.9054L213.095 43.7622L223.967 29.1551C224.355 28.4736 224.899 27.9027 225.549 27.4929C226.2 27.0831 226.937 26.8471 227.696 26.8057C228.166 26.8045 228.632 26.9046 229.065 27.0999C229.497 27.2952 229.886 27.5814 230.207 27.9407C230.549 28.2774 230.823 28.6837 231.01 29.1345C231.197 29.5853 231.293 30.0712 231.294 30.5624C231.282 31.4415 230.992 32.2918 230.468 32.9799L217.672 50.0727L230.033 67.0974C230.617 67.8583 230.942 68.8007 230.957 69.7759C230.961 70.3398 230.847 70.8978 230.623 71.4112C230.4 71.9246 230.072 72.3813 229.663 72.7496C228.866 73.5503 227.802 73.9977 226.695 73.998C225.99 73.9889 225.297 73.795 224.682 73.4341C224.067 73.0732 223.548 72.5569 223.173 71.9324L211.997 56.6556Z" fill="white"/>
<path d="M276.216 121.746H148.247C145.652 121.746 143.164 120.67 141.329 118.755C139.494 116.839 138.463 114.241 138.463 111.532C138.463 108.823 139.494 106.224 141.329 104.309C143.164 102.393 145.652 101.317 148.247 101.317H276.216C278.811 101.317 281.3 102.393 283.135 104.309C284.97 106.224 286 108.823 286 111.532C286 114.241 284.97 116.839 283.135 118.755C281.3 120.67 278.811 121.746 276.216 121.746Z" fill="white"/>
<path d="M165.783 114.823C165.697 114.823 165.613 114.805 165.534 114.77C165.456 114.735 165.385 114.684 165.326 114.619C165.262 114.552 165.211 114.473 165.177 114.385C165.144 114.297 165.128 114.203 165.13 114.108C165.13 113.948 165.171 113.792 165.25 113.654L166.228 112.065H164.228C164.135 112.07 164.043 112.055 163.957 112.019C163.871 111.984 163.793 111.93 163.728 111.861C163.616 111.725 163.555 111.552 163.555 111.373C163.555 111.194 163.616 111.021 163.728 110.885C163.793 110.816 163.871 110.762 163.957 110.727C164.043 110.691 164.135 110.676 164.228 110.681L166.196 110.737L165.326 109.262C165.239 109.111 165.19 108.939 165.185 108.762C165.182 108.668 165.198 108.574 165.232 108.486C165.265 108.398 165.316 108.318 165.38 108.252C165.441 108.187 165.514 108.135 165.594 108.1C165.675 108.065 165.761 108.047 165.848 108.047C165.97 108.046 166.089 108.081 166.192 108.15C166.294 108.218 166.375 108.317 166.424 108.433L167.381 110.215L168.294 108.513C168.351 108.38 168.443 108.267 168.558 108.185C168.673 108.103 168.807 108.055 168.946 108.047C169.032 108.047 169.116 108.066 169.195 108.101C169.273 108.136 169.344 108.187 169.403 108.252C169.467 108.314 169.517 108.39 169.551 108.474C169.584 108.558 169.601 108.649 169.598 108.74C169.597 108.901 169.552 109.058 169.468 109.194L168.511 110.794L170.501 110.737C170.593 110.732 170.686 110.747 170.772 110.782C170.859 110.817 170.937 110.872 171.001 110.942C171.113 111.077 171.174 111.251 171.174 111.43C171.174 111.609 171.113 111.782 171.001 111.918C170.937 111.987 170.859 112.042 170.772 112.077C170.686 112.112 170.593 112.128 170.501 112.122H168.49L169.381 113.575C169.482 113.75 169.538 113.949 169.544 114.154C169.547 114.246 169.532 114.337 169.501 114.423C169.469 114.509 169.421 114.587 169.359 114.653C169.302 114.717 169.233 114.768 169.156 114.803C169.08 114.838 168.997 114.856 168.914 114.857C168.779 114.854 168.648 114.81 168.536 114.732C168.425 114.654 168.337 114.543 168.283 114.415L167.381 112.746L166.478 114.415C166.413 114.546 166.312 114.655 166.189 114.727C166.065 114.8 165.924 114.833 165.783 114.823Z" fill="black"/>
<path d="M175.763 114.823C175.678 114.823 175.593 114.805 175.515 114.77C175.436 114.735 175.365 114.684 175.306 114.619C175.242 114.552 175.192 114.473 175.158 114.385C175.124 114.297 175.108 114.203 175.111 114.108C175.111 113.949 175.152 113.792 175.23 113.654L176.209 112.065H174.208C174.116 112.07 174.024 112.055 173.937 112.019C173.851 111.984 173.773 111.93 173.708 111.861C173.597 111.725 173.535 111.552 173.535 111.373C173.535 111.194 173.597 111.021 173.708 110.885C173.773 110.816 173.851 110.762 173.937 110.727C174.024 110.691 174.116 110.676 174.208 110.681L176.176 110.737L175.252 109.205C175.165 109.054 175.116 108.882 175.111 108.706C175.108 108.611 175.124 108.517 175.158 108.429C175.192 108.341 175.242 108.262 175.306 108.195C175.367 108.13 175.44 108.079 175.52 108.044C175.601 108.009 175.687 107.991 175.774 107.991C175.896 107.989 176.015 108.025 176.118 108.093C176.22 108.162 176.301 108.26 176.35 108.377L177.307 110.159L178.22 108.456C178.278 108.324 178.369 108.21 178.484 108.128C178.599 108.046 178.733 107.999 178.872 107.991C178.958 107.991 179.042 108.009 179.121 108.044C179.199 108.079 179.27 108.131 179.329 108.195C179.393 108.257 179.443 108.333 179.477 108.417C179.51 108.501 179.527 108.592 179.525 108.683C179.523 108.844 179.478 109.002 179.394 109.137L178.437 110.737L180.427 110.681C180.519 110.675 180.612 110.69 180.698 110.726C180.785 110.761 180.863 110.815 180.927 110.885C181.039 111.021 181.1 111.194 181.1 111.373C181.1 111.552 181.039 111.725 180.927 111.861C180.863 111.931 180.785 111.985 180.698 112.02C180.612 112.056 180.519 112.071 180.427 112.065H178.416L179.307 113.518C179.408 113.693 179.464 113.893 179.47 114.097C179.473 114.189 179.459 114.281 179.427 114.366C179.395 114.452 179.347 114.53 179.285 114.596C179.228 114.66 179.159 114.711 179.083 114.746C179.006 114.781 178.923 114.8 178.84 114.801C178.705 114.799 178.573 114.756 178.461 114.677C178.349 114.599 178.262 114.488 178.209 114.358L177.307 112.69L176.404 114.358C176.351 114.491 176.262 114.606 176.149 114.688C176.035 114.77 175.901 114.817 175.763 114.823Z" fill="black"/>
<path d="M185.744 114.823C185.658 114.823 185.574 114.805 185.495 114.77C185.417 114.735 185.346 114.684 185.287 114.619C185.223 114.552 185.172 114.473 185.138 114.385C185.105 114.297 185.089 114.203 185.091 114.108C185.091 113.949 185.132 113.792 185.211 113.654L186.189 112.065H184.189C184.096 112.07 184.004 112.055 183.918 112.019C183.832 111.984 183.754 111.93 183.689 111.861C183.577 111.725 183.516 111.552 183.516 111.373C183.516 111.194 183.577 111.021 183.689 110.885C183.754 110.816 183.832 110.762 183.918 110.727C184.004 110.691 184.096 110.676 184.189 110.681L186.157 110.737L185.233 109.205C185.145 109.054 185.097 108.882 185.091 108.706C185.089 108.611 185.105 108.517 185.138 108.429C185.172 108.341 185.223 108.262 185.287 108.195C185.348 108.13 185.421 108.079 185.501 108.044C185.581 108.009 185.667 107.991 185.754 107.991C185.876 107.989 185.996 108.025 186.098 108.093C186.201 108.162 186.281 108.26 186.331 108.377L187.287 110.159L188.2 108.456C188.258 108.324 188.349 108.21 188.464 108.128C188.579 108.046 188.714 107.999 188.853 107.991C188.938 107.991 189.023 108.009 189.101 108.044C189.18 108.079 189.25 108.131 189.309 108.195C189.373 108.257 189.423 108.333 189.457 108.417C189.491 108.501 189.507 108.592 189.505 108.683C189.504 108.844 189.458 109.002 189.375 109.137L188.418 110.737L190.407 110.681C190.5 110.675 190.593 110.69 190.679 110.726C190.765 110.761 190.843 110.815 190.908 110.885C191.019 111.021 191.081 111.194 191.081 111.373C191.081 111.552 191.019 111.725 190.908 111.861C190.843 111.931 190.765 111.985 190.679 112.02C190.593 112.056 190.5 112.071 190.407 112.065H188.396L189.288 113.518C189.388 113.693 189.444 113.893 189.451 114.097C189.454 114.189 189.439 114.281 189.407 114.366C189.376 114.452 189.327 114.53 189.266 114.596C189.209 114.66 189.14 114.711 189.063 114.746C188.986 114.781 188.904 114.8 188.82 114.801C188.685 114.799 188.554 114.756 188.442 114.677C188.33 114.599 188.242 114.488 188.19 114.358L187.287 112.69L186.385 114.358C186.331 114.491 186.243 114.606 186.129 114.688C186.015 114.77 185.882 114.817 185.744 114.823Z" fill="black"/>
<path d="M195.767 114.823C195.682 114.823 195.597 114.805 195.519 114.77C195.44 114.735 195.369 114.684 195.31 114.619C195.246 114.552 195.196 114.473 195.162 114.385C195.128 114.297 195.112 114.203 195.115 114.108C195.115 113.949 195.156 113.792 195.234 113.654L196.213 112.065H194.212C194.12 112.07 194.027 112.055 193.941 112.019C193.855 111.984 193.777 111.93 193.712 111.861C193.601 111.725 193.539 111.552 193.539 111.373C193.539 111.194 193.601 111.021 193.712 110.885C193.777 110.816 193.855 110.762 193.941 110.727C194.027 110.691 194.12 110.676 194.212 110.681L196.18 110.737L195.256 109.205C195.169 109.054 195.12 108.882 195.115 108.706C195.112 108.611 195.128 108.517 195.162 108.429C195.196 108.341 195.246 108.262 195.31 108.195C195.371 108.13 195.444 108.079 195.524 108.044C195.605 108.009 195.691 107.991 195.778 107.991C195.9 107.989 196.019 108.025 196.122 108.093C196.224 108.162 196.305 108.26 196.354 108.377L197.311 110.159L198.224 108.456C198.281 108.324 198.373 108.21 198.488 108.128C198.603 108.046 198.737 107.999 198.876 107.991C198.962 107.991 199.046 108.009 199.125 108.044C199.203 108.079 199.274 108.131 199.333 108.195C199.397 108.257 199.447 108.333 199.481 108.417C199.514 108.501 199.531 108.592 199.529 108.683C199.527 108.844 199.482 109.002 199.398 109.137L198.441 110.737L200.431 110.681C200.523 110.675 200.616 110.69 200.702 110.726C200.789 110.761 200.867 110.815 200.931 110.885C201.043 111.021 201.104 111.194 201.104 111.373C201.104 111.552 201.043 111.725 200.931 111.861C200.867 111.931 200.789 111.985 200.702 112.02C200.616 112.056 200.523 112.071 200.431 112.065H198.42L199.311 113.518C199.412 113.693 199.468 113.893 199.474 114.097C199.477 114.189 199.462 114.281 199.431 114.366C199.399 114.452 199.351 114.53 199.289 114.596C199.232 114.66 199.163 114.711 199.087 114.746C199.01 114.781 198.927 114.8 198.844 114.801C198.709 114.797 198.578 114.754 198.467 114.675C198.355 114.597 198.267 114.487 198.213 114.358L197.311 112.69L196.408 114.358C196.355 114.491 196.266 114.606 196.152 114.688C196.039 114.77 195.905 114.817 195.767 114.823Z" fill="black"/>
<path d="M205.703 114.823C205.617 114.823 205.533 114.805 205.454 114.77C205.376 114.735 205.305 114.684 205.246 114.619C205.182 114.552 205.131 114.473 205.097 114.385C205.064 114.297 205.048 114.203 205.05 114.108C205.055 113.949 205.096 113.794 205.17 113.654L206.148 112.065H204.148C204.055 112.07 203.963 112.055 203.877 112.019C203.791 111.984 203.712 111.93 203.648 111.861C203.536 111.725 203.475 111.552 203.475 111.373C203.475 111.194 203.536 111.021 203.648 110.885C203.712 110.816 203.791 110.762 203.877 110.727C203.963 110.691 204.055 110.676 204.148 110.681L206.116 110.737L205.192 109.205C205.104 109.054 205.056 108.882 205.05 108.706C205.048 108.611 205.064 108.517 205.097 108.429C205.131 108.341 205.182 108.262 205.246 108.195C205.307 108.13 205.38 108.079 205.46 108.044C205.54 108.009 205.626 107.991 205.713 107.991C205.835 107.989 205.955 108.025 206.057 108.093C206.16 108.162 206.24 108.26 206.29 108.377L207.246 110.159L208.159 108.456C208.217 108.324 208.308 108.21 208.423 108.128C208.538 108.046 208.673 107.999 208.812 107.991C208.897 107.989 208.982 108.007 209.061 108.042C209.14 108.077 209.21 108.129 209.268 108.195C209.332 108.257 209.382 108.333 209.416 108.417C209.45 108.501 209.466 108.592 209.464 108.683C209.463 108.844 209.417 109.002 209.334 109.137L208.377 110.737L210.366 110.681C210.459 110.675 210.552 110.69 210.638 110.726C210.724 110.761 210.802 110.815 210.866 110.885C210.978 111.021 211.04 111.194 211.04 111.373C211.04 111.552 210.978 111.725 210.866 111.861C210.802 111.931 210.724 111.985 210.638 112.02C210.552 112.056 210.459 112.071 210.366 112.065H208.355L209.247 113.518C209.347 113.694 209.403 113.893 209.41 114.097C209.413 114.189 209.398 114.281 209.366 114.366C209.335 114.452 209.286 114.53 209.225 114.596C209.168 114.66 209.099 114.711 209.022 114.746C208.945 114.781 208.863 114.8 208.779 114.801C208.645 114.797 208.514 114.754 208.402 114.675C208.29 114.597 208.202 114.487 208.149 114.358L207.246 112.69L206.344 114.358C206.29 114.491 206.202 114.606 206.088 114.688C205.974 114.77 205.841 114.817 205.703 114.823Z" fill="black"/>
<path d="M215.683 114.823C215.598 114.823 215.513 114.805 215.435 114.77C215.356 114.735 215.285 114.684 215.226 114.619C215.162 114.552 215.112 114.473 215.078 114.385C215.044 114.297 215.028 114.203 215.031 114.108C215.036 113.949 215.077 113.794 215.15 113.654L216.129 112.065H214.139C214.045 112.071 213.951 112.056 213.863 112.021C213.774 111.986 213.695 111.931 213.628 111.861C213.517 111.725 213.455 111.552 213.455 111.373C213.455 111.194 213.517 111.021 213.628 110.885C213.695 110.815 213.774 110.76 213.863 110.725C213.951 110.69 214.045 110.675 214.139 110.681L216.096 110.737L215.172 109.205C215.085 109.054 215.036 108.882 215.031 108.706C215.028 108.611 215.044 108.517 215.078 108.429C215.112 108.341 215.162 108.262 215.226 108.195C215.287 108.13 215.36 108.079 215.44 108.044C215.521 108.009 215.607 107.991 215.694 107.991C215.816 107.989 215.935 108.025 216.038 108.093C216.14 108.162 216.221 108.26 216.27 108.377L217.227 110.159L218.14 108.456C218.197 108.324 218.289 108.21 218.404 108.128C218.519 108.046 218.653 107.999 218.792 107.991C218.878 107.989 218.963 108.007 219.041 108.042C219.12 108.077 219.191 108.129 219.249 108.195C219.313 108.257 219.363 108.333 219.397 108.417C219.43 108.501 219.447 108.592 219.445 108.683C219.443 108.844 219.398 109.002 219.314 109.137L218.357 110.737L220.347 110.681C220.439 110.675 220.532 110.69 220.618 110.726C220.705 110.761 220.783 110.815 220.847 110.885C220.959 111.021 221.02 111.194 221.02 111.373C221.02 111.552 220.959 111.725 220.847 111.861C220.783 111.931 220.705 111.985 220.618 112.02C220.532 112.056 220.439 112.071 220.347 112.065H218.336L219.227 113.518C219.328 113.694 219.384 113.893 219.39 114.097C219.393 114.189 219.379 114.281 219.347 114.366C219.315 114.452 219.267 114.53 219.205 114.596C219.148 114.66 219.079 114.711 219.002 114.746C218.926 114.781 218.843 114.8 218.76 114.801C218.625 114.797 218.494 114.754 218.382 114.675C218.271 114.597 218.183 114.487 218.129 114.358L217.227 112.69L216.324 114.358C216.271 114.491 216.182 114.606 216.068 114.688C215.955 114.77 215.821 114.817 215.683 114.823Z" fill="black"/>
<path d="M225.663 114.823C225.578 114.823 225.494 114.805 225.415 114.77C225.337 114.735 225.266 114.684 225.207 114.619C225.143 114.552 225.092 114.473 225.058 114.385C225.025 114.297 225.009 114.203 225.011 114.108C225.011 113.948 225.052 113.792 225.131 113.654L226.109 112.065H224.109C224.016 112.07 223.924 112.055 223.838 112.019C223.751 111.984 223.673 111.93 223.609 111.861C223.497 111.725 223.436 111.552 223.436 111.373C223.436 111.194 223.497 111.021 223.609 110.885C223.673 110.816 223.751 110.762 223.838 110.727C223.924 110.691 224.016 110.676 224.109 110.681L226.077 110.737L225.12 109.262C225.033 109.111 224.984 108.939 224.979 108.762C224.976 108.668 224.992 108.574 225.026 108.486C225.059 108.398 225.11 108.318 225.174 108.252C225.235 108.187 225.308 108.135 225.388 108.1C225.468 108.065 225.555 108.047 225.642 108.047C225.763 108.046 225.883 108.081 225.985 108.15C226.088 108.218 226.169 108.317 226.218 108.433L227.175 110.215L228.088 108.513C228.145 108.38 228.237 108.267 228.352 108.185C228.467 108.103 228.601 108.055 228.74 108.047C228.826 108.046 228.911 108.064 228.989 108.099C229.068 108.134 229.139 108.186 229.197 108.252C229.26 108.314 229.311 108.39 229.344 108.474C229.378 108.558 229.395 108.649 229.392 108.74C229.391 108.901 229.346 109.058 229.262 109.194L228.305 110.794L230.295 110.737C230.387 110.732 230.48 110.747 230.566 110.782C230.653 110.817 230.731 110.872 230.795 110.942C230.907 111.077 230.968 111.251 230.968 111.43C230.968 111.609 230.907 111.782 230.795 111.918C230.731 111.987 230.653 112.042 230.566 112.077C230.48 112.112 230.387 112.128 230.295 112.122H228.283L229.175 113.575C229.276 113.75 229.332 113.949 229.338 114.154C229.341 114.246 229.326 114.337 229.295 114.423C229.263 114.509 229.215 114.587 229.153 114.653C229.096 114.717 229.027 114.768 228.95 114.803C228.874 114.838 228.791 114.856 228.707 114.857C228.573 114.854 228.442 114.81 228.33 114.732C228.219 114.654 228.131 114.543 228.077 114.415L227.175 112.746L226.272 114.415C226.214 114.532 226.127 114.632 226.02 114.703C225.913 114.775 225.79 114.816 225.663 114.823Z" fill="black"/>
<path d="M235.642 114.824C235.557 114.824 235.472 114.806 235.394 114.77C235.315 114.735 235.245 114.684 235.186 114.619C235.121 114.553 235.071 114.473 235.037 114.385C235.003 114.297 234.987 114.203 234.99 114.109C234.995 113.95 235.036 113.794 235.11 113.655L236.088 112.066H234.099C234.006 112.073 233.913 112.058 233.826 112.023C233.74 111.988 233.662 111.932 233.598 111.861C233.48 111.729 233.414 111.554 233.414 111.373C233.414 111.192 233.48 111.018 233.598 110.885C233.662 110.814 233.74 110.759 233.826 110.724C233.913 110.688 234.006 110.674 234.099 110.681L236.055 110.738L235.131 109.205C235.044 109.054 234.995 108.882 234.99 108.706C234.987 108.613 235.002 108.521 235.034 108.434C235.066 108.348 235.114 108.268 235.176 108.202C235.238 108.135 235.312 108.082 235.394 108.046C235.476 108.01 235.564 107.991 235.653 107.991C235.775 107.989 235.894 108.025 235.997 108.093C236.099 108.162 236.18 108.261 236.229 108.377L237.186 110.159L238.099 108.456C238.157 108.324 238.248 108.21 238.363 108.128C238.478 108.046 238.612 107.999 238.752 107.991C238.837 107.988 238.923 108.005 239.002 108.04C239.08 108.076 239.151 108.129 239.208 108.195C239.272 108.258 239.322 108.333 239.356 108.418C239.39 108.502 239.406 108.592 239.404 108.683C239.402 108.845 239.357 109.002 239.273 109.137L238.317 110.738L240.306 110.681C240.399 110.675 240.491 110.691 240.578 110.726C240.664 110.761 240.742 110.815 240.806 110.885C240.918 111.021 240.979 111.194 240.979 111.373C240.979 111.552 240.918 111.725 240.806 111.861C240.742 111.931 240.664 111.985 240.578 112.021C240.491 112.056 240.399 112.071 240.306 112.066H238.295L239.186 113.518C239.287 113.694 239.343 113.893 239.349 114.097C239.352 114.187 239.338 114.276 239.308 114.36C239.278 114.443 239.232 114.52 239.174 114.586C239.115 114.651 239.045 114.704 238.967 114.74C238.889 114.777 238.805 114.798 238.719 114.801C238.584 114.797 238.453 114.754 238.342 114.676C238.23 114.597 238.142 114.487 238.088 114.358L237.186 112.69L236.284 114.358C236.23 114.491 236.141 114.606 236.028 114.688C235.914 114.771 235.78 114.818 235.642 114.824Z" fill="black"/>
<path d="M245.623 114.824C245.537 114.824 245.453 114.806 245.374 114.77C245.296 114.735 245.225 114.684 245.166 114.619C245.102 114.553 245.051 114.473 245.018 114.385C244.984 114.297 244.968 114.203 244.97 114.109C244.976 113.95 245.016 113.794 245.09 113.655L246.068 112.066H244.068C243.977 112.071 243.886 112.056 243.802 112.02C243.717 111.985 243.641 111.931 243.579 111.861C243.46 111.729 243.395 111.554 243.395 111.373C243.395 111.192 243.46 111.018 243.579 110.885C243.641 110.816 243.717 110.761 243.802 110.726C243.886 110.691 243.977 110.675 244.068 110.681L246.036 110.738L245.112 109.205C245.025 109.054 244.976 108.882 244.97 108.706C244.968 108.613 244.983 108.521 245.015 108.434C245.047 108.348 245.095 108.268 245.157 108.202C245.219 108.135 245.293 108.082 245.375 108.046C245.457 108.01 245.545 107.991 245.634 107.991C245.755 107.989 245.875 108.025 245.977 108.093C246.08 108.162 246.161 108.261 246.21 108.377L247.166 110.159L248.08 108.456C248.137 108.324 248.228 108.21 248.343 108.128C248.459 108.046 248.593 107.999 248.732 107.991C248.818 107.988 248.903 108.005 248.982 108.04C249.061 108.076 249.131 108.129 249.189 108.195C249.252 108.258 249.303 108.333 249.336 108.418C249.37 108.502 249.386 108.592 249.384 108.683C249.383 108.845 249.338 109.002 249.254 109.137L248.297 110.738L250.287 110.681C250.379 110.675 250.472 110.691 250.558 110.726C250.644 110.761 250.722 110.815 250.787 110.885C250.898 111.021 250.96 111.194 250.96 111.373C250.96 111.552 250.898 111.725 250.787 111.861C250.722 111.931 250.644 111.985 250.558 112.021C250.472 112.056 250.379 112.071 250.287 112.066H248.275L249.167 113.518C249.267 113.694 249.324 113.893 249.33 114.097C249.333 114.187 249.319 114.276 249.289 114.36C249.259 114.443 249.213 114.52 249.154 114.586C249.096 114.651 249.025 114.704 248.947 114.74C248.869 114.777 248.785 114.798 248.699 114.801C248.565 114.797 248.434 114.754 248.322 114.676C248.211 114.597 248.123 114.487 248.069 114.358L247.166 112.69L246.264 114.358C246.211 114.491 246.122 114.606 246.008 114.688C245.895 114.771 245.761 114.818 245.623 114.824Z" fill="black"/>
<path d="M255.56 114.824C255.475 114.824 255.39 114.806 255.312 114.77C255.233 114.735 255.162 114.684 255.104 114.619C255.039 114.553 254.989 114.473 254.955 114.385C254.921 114.297 254.905 114.203 254.908 114.109C254.913 113.95 254.954 113.794 255.028 113.655L256.006 112.066H254.006C253.915 112.071 253.824 112.056 253.739 112.02C253.655 111.985 253.579 111.931 253.516 111.861C253.398 111.729 253.332 111.554 253.332 111.373C253.332 111.192 253.398 111.018 253.516 110.885C253.579 110.816 253.655 110.761 253.739 110.726C253.824 110.691 253.915 110.675 254.006 110.681L255.973 110.738L255.049 109.205C254.962 109.054 254.913 108.882 254.908 108.706C254.905 108.612 254.921 108.517 254.955 108.43C254.989 108.342 255.039 108.262 255.104 108.195C255.165 108.13 255.237 108.079 255.318 108.044C255.398 108.009 255.484 107.991 255.571 107.991C255.693 107.989 255.812 108.025 255.915 108.093C256.017 108.162 256.098 108.261 256.147 108.377L257.104 110.159L258.017 108.456C258.075 108.324 258.166 108.21 258.281 108.128C258.396 108.046 258.53 107.999 258.669 107.991C258.755 107.988 258.841 108.005 258.919 108.04C258.998 108.076 259.069 108.129 259.126 108.195C259.19 108.258 259.24 108.333 259.274 108.418C259.308 108.502 259.324 108.592 259.322 108.683C259.32 108.845 259.275 109.002 259.191 109.137L258.235 110.738L260.224 110.681C260.317 110.675 260.409 110.691 260.496 110.726C260.582 110.761 260.66 110.815 260.724 110.885C260.836 111.021 260.897 111.194 260.897 111.373C260.897 111.552 260.836 111.725 260.724 111.861C260.66 111.931 260.582 111.985 260.496 112.021C260.409 112.056 260.317 112.071 260.224 112.066H258.213L259.104 113.518C259.205 113.694 259.261 113.893 259.267 114.097C259.271 114.189 259.256 114.281 259.224 114.367C259.192 114.453 259.144 114.531 259.083 114.597C259.025 114.66 258.956 114.711 258.88 114.746C258.803 114.781 258.721 114.8 258.637 114.801C258.502 114.797 258.371 114.754 258.26 114.676C258.148 114.597 258.06 114.487 258.006 114.358L257.104 112.69L256.202 114.358C256.148 114.491 256.059 114.606 255.946 114.688C255.832 114.771 255.698 114.818 255.56 114.824Z" fill="black"/>
<path d="M289.762 139.929H303.058" stroke="white" stroke-width="3" stroke-linecap="round" stroke-linejoin="round"/>
<path d="M105.348 37.7246V129.919C105.348 132.589 106.364 135.149 108.172 137.037C109.98 138.925 112.433 139.986 114.991 139.986H277.14" stroke="white" stroke-width="3" stroke-linecap="round" stroke-linejoin="round"/>
<path d="M105.348 13.2769V27.1009" stroke="white" stroke-width="3" stroke-linecap="round" stroke-linejoin="round"/>
</svg>
