<svg width="14" height="14" viewBox="0 0 14 14" fill="none" xmlns="http://www.w3.org/2000/svg">
<g clip-path="url(#clip0_414_1365)">
<path d="M6.99957 0.777832C5.76893 0.777832 4.56593 1.14276 3.54269 1.82647C2.51945 2.51017 1.72193 3.48195 1.25098 4.61891C0.78004 5.75588 0.656819 7.00696 0.896905 8.21395C1.13699 9.42094 1.7296 10.5296 2.59979 11.3998C3.46999 12.27 4.57868 12.8626 5.78567 13.1027C6.99267 13.3428 8.24375 13.2196 9.38071 12.7486C10.5177 12.2777 11.4895 11.4802 12.1732 10.4569C12.8569 9.4337 13.2218 8.23069 13.2218 7.00005C13.2218 5.34982 12.5662 3.76717 11.3993 2.60028C10.2325 1.43339 8.64981 0.777832 6.99957 0.777832ZM10.1107 9.37228C10.2138 9.47542 10.2718 9.6153 10.2718 9.76117C10.2718 9.90703 10.2138 10.0469 10.1107 10.1501C10.0075 10.2532 9.86765 10.3111 9.72179 10.3111C9.57593 10.3111 9.43604 10.2532 9.3329 10.1501L6.99957 7.81672L4.66624 10.1578C4.61517 10.2089 4.55454 10.2494 4.48781 10.2771C4.42109 10.3047 4.34957 10.3189 4.27735 10.3189C4.20512 10.3189 4.13361 10.3047 4.06688 10.2771C4.00016 10.2494 3.93953 10.2089 3.88846 10.1578C3.83739 10.1068 3.79688 10.0461 3.76924 9.97941C3.7416 9.91268 3.72737 9.84117 3.72737 9.76894C3.72737 9.69672 3.7416 9.6252 3.76924 9.55848C3.79688 9.49175 3.83739 9.43112 3.88846 9.38005L6.22179 7.03117L3.82235 4.61228C3.71921 4.50914 3.66126 4.36925 3.66126 4.22339C3.66126 4.07753 3.71921 3.93764 3.82235 3.8345C3.92549 3.73136 4.06537 3.67342 4.21124 3.67342C4.3571 3.67342 4.49698 3.73136 4.60012 3.8345L6.99957 6.26117L9.39901 3.86172C9.45008 3.81065 9.51071 3.77014 9.57744 3.7425C9.64416 3.71486 9.71568 3.70064 9.7879 3.70064C9.86013 3.70064 9.93164 3.71486 9.99837 3.7425C10.0651 3.77014 10.1257 3.81065 10.1768 3.86172C10.2279 3.91279 10.2684 3.97342 10.296 4.04014C10.3236 4.10687 10.3379 4.17839 10.3379 4.25061C10.3379 4.32283 10.3236 4.39435 10.296 4.46108C10.2684 4.5278 10.2279 4.58843 10.1768 4.6395L7.77735 7.03117L10.1107 9.37228Z" fill="#4C5858"/>
</g>
<defs>
<clipPath id="clip0_414_1365">
<rect width="14" height="14" fill="white"/>
</clipPath>
</defs>
</svg>
