<svg width="370" height="268" viewBox="0 0 370 268" fill="none" xmlns="http://www.w3.org/2000/svg">
<path d="M326.04 60.9141H118.561V149.921H326.04V60.9141Z" fill="white" stroke="#263238" stroke-linecap="round" stroke-linejoin="round"/>
<path d="M331.686 58.4053H112.922V62.164H331.686V58.4053Z" fill="white" stroke="#263238" stroke-linecap="round" stroke-linejoin="round"/>
<path d="M326.04 146.783H118.561V149.921H326.04V146.783Z" fill="#263238" stroke="#263238" stroke-linecap="round" stroke-linejoin="round"/>
<path d="M163.927 93.537C165.252 85.7844 160.042 78.4254 152.289 77.1003C144.537 75.7751 137.178 80.9855 135.853 88.7381C134.527 96.4907 139.738 103.85 147.49 105.175C155.243 106.5 162.602 101.29 163.927 93.537Z" stroke="#263238" stroke-miterlimit="10"/>
<path d="M149.629 72.7559V113.151" stroke="#263238" stroke-miterlimit="10"/>
<path d="M130.984 91.4004H167.754" stroke="#263238" stroke-miterlimit="10"/>
<path d="M207.826 94.8604H244.596" stroke="#263238" stroke-miterlimit="10"/>
<path d="M225.953 75.7051V116.1" stroke="#263238" stroke-miterlimit="10"/>
<path d="M212.49 80.8789L218.073 85.2196C220.49 87.1001 223.455 88.1374 226.517 88.1729C229.579 88.2084 232.568 87.2401 235.027 85.4162L240.461 81.3979" stroke="#263238" stroke-miterlimit="10"/>
<path d="M240.437 106.939L234.854 102.599C232.436 100.72 229.469 99.6839 226.407 99.6484C223.344 99.6129 220.354 100.58 217.893 102.402L212.467 106.42" stroke="#263238" stroke-miterlimit="10"/>
<path d="M291.92 75.3115V109.227" stroke="#263238" stroke-miterlimit="10"/>
<path d="M273.699 92.5176H308.126" stroke="#263238" stroke-miterlimit="10"/>
<path d="M275.91 91.165V93.9173" stroke="#263238" stroke-miterlimit="10"/>
<path d="M277.906 91.165V93.9173" stroke="#263238" stroke-miterlimit="10"/>
<path d="M279.912 91.165V93.9173" stroke="#263238" stroke-miterlimit="10"/>
<path d="M281.91 91.165V93.9173" stroke="#263238" stroke-miterlimit="10"/>
<path d="M283.914 91.165V93.9173" stroke="#263238" stroke-miterlimit="10"/>
<path d="M285.912 91.165V93.9173" stroke="#263238" stroke-miterlimit="10"/>
<path d="M287.91 91.165V93.9173" stroke="#263238" stroke-miterlimit="10"/>
<path d="M289.914 91.165V93.9173" stroke="#263238" stroke-miterlimit="10"/>
<path d="M293.908 91.165V93.9173" stroke="#263238" stroke-miterlimit="10"/>
<path d="M295.914 91.165V93.9173" stroke="#263238" stroke-miterlimit="10"/>
<path d="M297.912 91.165V93.9173" stroke="#263238" stroke-miterlimit="10"/>
<path d="M299.916 91.165V93.9173" stroke="#263238" stroke-miterlimit="10"/>
<path d="M301.914 91.165V93.9173" stroke="#263238" stroke-miterlimit="10"/>
<path d="M303.912 91.165V93.9173" stroke="#263238" stroke-miterlimit="10"/>
<path d="M305.916 91.165V93.9173" stroke="#263238" stroke-miterlimit="10"/>
<path d="M290.543 107.545H293.295" stroke="#263238" stroke-miterlimit="10"/>
<path d="M290.543 105.539H293.295" stroke="#263238" stroke-miterlimit="10"/>
<path d="M290.543 103.542H293.295" stroke="#263238" stroke-miterlimit="10"/>
<path d="M290.543 101.537H293.295" stroke="#263238" stroke-miterlimit="10"/>
<path d="M290.543 99.5391H293.295" stroke="#263238" stroke-miterlimit="10"/>
<path d="M290.543 97.542H293.295" stroke="#263238" stroke-miterlimit="10"/>
<path d="M290.543 95.5371H293.295" stroke="#263238" stroke-miterlimit="10"/>
<path d="M290.543 89.5371H293.295" stroke="#263238" stroke-miterlimit="10"/>
<path d="M290.543 87.54H293.295" stroke="#263238" stroke-miterlimit="10"/>
<path d="M290.543 85.5342H293.295" stroke="#263238" stroke-miterlimit="10"/>
<path d="M290.543 83.5371H293.295" stroke="#263238" stroke-miterlimit="10"/>
<path d="M290.543 81.54H293.295" stroke="#263238" stroke-miterlimit="10"/>
<path d="M290.543 79.5342H293.295" stroke="#263238" stroke-miterlimit="10"/>
<path d="M290.543 77.5371H293.295" stroke="#263238" stroke-miterlimit="10"/>
<path d="M133.477 121.385H164.884" stroke="#263238" stroke-miterlimit="10"/>
<path d="M133.477 125.253H164.884" stroke="#263238" stroke-miterlimit="10"/>
<path d="M133.477 129.122H164.884" stroke="#263238" stroke-miterlimit="10"/>
<path d="M133.477 132.999H164.884" stroke="#263238" stroke-miterlimit="10"/>
<path d="M213.064 121.385H244.471" stroke="#263238" stroke-miterlimit="10"/>
<path d="M213.064 125.253H244.471" stroke="#263238" stroke-miterlimit="10"/>
<path d="M213.064 129.122H244.471" stroke="#263238" stroke-miterlimit="10"/>
<path d="M213.064 132.999H244.471" stroke="#263238" stroke-miterlimit="10"/>
<path d="M278.025 121.385H309.432" stroke="#263238" stroke-miterlimit="10"/>
<path d="M278.025 125.253H309.432" stroke="#263238" stroke-miterlimit="10"/>
<path d="M278.025 129.122H309.432" stroke="#263238" stroke-miterlimit="10"/>
<path d="M278.025 132.999H309.432" stroke="#263238" stroke-miterlimit="10"/>
<path d="M172.629 100.734H204.028" stroke="#263238" stroke-miterlimit="10"/>
<path d="M172.629 104.604H204.028" stroke="#263238" stroke-miterlimit="10"/>
<path d="M172.629 108.473H204.028" stroke="#263238" stroke-miterlimit="10"/>
<path d="M172.629 112.35H204.028" stroke="#263238" stroke-miterlimit="10"/>
<path d="M243.182 71.9072H274.581" stroke="#263238" stroke-miterlimit="10"/>
<path d="M243.182 75.7832H274.581" stroke="#263238" stroke-miterlimit="10"/>
<path d="M243.182 79.6523H274.581" stroke="#263238" stroke-miterlimit="10"/>
<path d="M243.182 83.5215H274.581" stroke="#263238" stroke-miterlimit="10"/>
<path d="M62.3762 149.693H21.8711V183.719H62.3762V149.693Z" fill="#263238" stroke="#263238" stroke-linecap="round" stroke-linejoin="round"/>
<path d="M86.9563 188.044H46.4512V190.206H86.9563V188.044Z" fill="#263238" stroke="#263238" stroke-linecap="round" stroke-linejoin="round"/>
<path d="M44.8321 174.267H37V189.931H44.8321V174.267Z" fill="#707070" stroke="#263238" stroke-linecap="round" stroke-linejoin="round"/>
<path d="M125.307 193.297H17.2852V265.162H125.307V193.297Z" fill="#707070" stroke="#263238" stroke-linecap="round" stroke-linejoin="round"/>
<path d="M19.0549 193.815H15.4141V266.86H19.0549V193.815Z" fill="#707070" stroke="#263238" stroke-linecap="round" stroke-linejoin="round"/>
<path d="M126.778 193.815H123.137V266.86H126.778V193.815Z" fill="#707070" stroke="#263238" stroke-linecap="round" stroke-linejoin="round"/>
<path d="M131.897 189.459H12.3711V196.324H131.897V189.459Z" fill="#707070" stroke="#263238" stroke-linecap="round" stroke-linejoin="round"/>
<path d="M185.896 123.004C185.896 123.004 181.556 125.702 180.148 129.225C178.74 132.747 172.874 150.951 171.349 153.303C169.823 155.654 169.823 159.287 171.585 161.284C173.346 163.281 176.303 164.563 178.74 162.22C181.178 159.877 181.886 155.182 184.245 149.638C186.604 144.094 188.593 128.493 189.749 125.324C190.453 123.433 190.925 121.463 191.157 119.458L185.896 123.004Z" fill="white" stroke="#263238" stroke-linecap="round" stroke-linejoin="round"/>
<path d="M221.336 168.787C221.336 168.787 222.036 178.121 221.682 182.87C221.328 187.62 218.167 217.58 218.167 217.58L213.59 257.998H206.553L201.441 198.393L194.584 257.825H187.365C187.365 257.825 183.143 220.395 181.908 211.431C181.169 205.824 180.993 200.158 181.381 194.516C181.381 193.989 179.809 182.021 179.809 178.679C179.833 176.402 179.99 174.128 180.28 171.869L179.989 170.579C179.989 170.579 193.011 174.102 202.007 171.987C211.003 169.872 219.779 167.064 219.779 167.064L221.336 168.787Z" fill="#263238" stroke="#263238" stroke-linecap="round" stroke-linejoin="round"/>
<path d="M213.59 257.998L215.698 265.217C215.771 265.331 215.82 265.459 215.843 265.593C215.865 265.726 215.86 265.863 215.827 265.995C215.795 266.127 215.736 266.251 215.654 266.359C215.573 266.467 215.47 266.557 215.352 266.625C214.471 267.151 204.61 266.625 204.61 266.625C204.332 266.481 204.111 266.247 203.984 265.961C203.857 265.675 203.831 265.354 203.91 265.052C204.083 263.817 206.553 257.975 206.553 257.975L213.59 257.998Z" stroke="#263238" stroke-linecap="round" stroke-linejoin="round"/>
<path d="M194.585 257.825L195.222 264.407C195.26 264.816 195.152 265.226 194.915 265.563C194.757 265.783 194.55 265.961 194.309 266.084C194.068 266.207 193.802 266.271 193.531 266.271H179.888C178.504 266.271 175.83 266.223 176.09 264.863C176.263 263.982 187.35 257.849 187.35 257.849L194.585 257.825Z" stroke="#263238" stroke-linecap="round" stroke-linejoin="round"/>
<path d="M201.443 198.393L199.69 190.97L193.352 186.566" stroke="#6B6B6B" stroke-linecap="round" stroke-linejoin="round"/>
<path d="M183.435 132.04V145.762C183.435 146.549 179.212 164.635 178.858 166.412C178.504 168.189 178.858 169.817 180.266 171.806C181.673 173.796 186.958 175.801 198.454 176.737C209.951 177.672 218.522 173.45 220.865 170.752C223.209 168.055 220.511 162.889 219.694 155.615C218.876 148.341 218.632 125.317 215.353 123.823C212.074 122.329 201.505 117.257 201.505 117.257C201.505 117.257 195.521 117.257 191.534 119.018C188.915 120.273 186.594 122.072 184.724 124.295" fill="white"/>
<path d="M183.435 132.04V145.762C183.435 146.549 179.212 164.635 178.858 166.412C178.504 168.189 178.858 169.817 180.266 171.806C181.673 173.796 186.958 175.801 198.454 176.737C209.951 177.672 218.522 173.45 220.865 170.752C223.209 168.055 220.511 162.889 219.694 155.615C218.876 148.341 218.632 125.317 215.353 123.823C212.074 122.329 201.505 117.257 201.505 117.257C201.505 117.257 195.521 117.257 191.534 119.018C188.915 120.273 186.594 122.072 184.724 124.295" stroke="#263238" stroke-linecap="round" stroke-linejoin="round"/>
<path d="M200.797 114.905C201.452 114.851 202.108 115.002 202.672 115.34C203.236 115.677 203.681 116.182 203.943 116.785C204.769 118.9 202.181 131.686 202.181 131.686C202.181 131.686 196.433 127.581 195.026 127.581C193.618 127.581 187.162 131.686 187.162 131.686C187.162 131.686 189.277 122.887 191.157 119.482C193.036 116.077 198.195 114.205 200.31 114.764L200.797 114.905Z" fill="white" stroke="#263238" stroke-linecap="round" stroke-linejoin="round"/>
<path d="M201.269 113.733C201.269 113.733 201.741 114.905 199.625 120.543C197.51 126.181 196.48 130.986 195.167 129.689C193.853 128.391 192.352 121.597 192.352 121.597C192.352 121.597 199.154 116.666 201.269 113.733Z" fill="white" stroke="#263238" stroke-linecap="round" stroke-linejoin="round"/>
<path d="M182.396 104.644C182.992 107.903 183.758 111.129 184.693 114.308C185.833 117.737 187.303 122.809 191.227 123.949C195.151 125.089 196.299 122.156 197.935 120.804C199.57 119.451 202.181 115.079 202.181 112.94C202.181 110.801 202.016 106.075 201.198 104.439C200.38 102.804 198.91 101.168 194.664 100.35C190.417 99.5326 186.486 100.225 182.396 104.644Z" fill="white" stroke="#263238" stroke-linecap="round" stroke-linejoin="round"/>
<path d="M200.877 109.055C200.877 109.055 198.423 110.038 197.771 108.567C197.118 107.097 195.97 104.966 195.97 104.966C195.97 104.966 190.898 107.097 187.8 107.231C184.701 107.364 181.257 105.438 180.77 103.299C180.282 101.16 182.075 96.434 186.164 93.8627C190.253 91.2913 198.746 90.096 201.364 94.1851C203.349 97.3033 204.322 100.959 204.148 104.651C204.148 107.427 203.983 109.37 203.983 109.37C203.517 109.099 202.999 108.93 202.464 108.876C201.928 108.822 201.387 108.883 200.877 109.055Z" fill="#263238" stroke="#263238" stroke-linecap="round" stroke-linejoin="round"/>
<path d="M199.893 110.203C199.893 110.203 201.363 106.436 202.834 106.932C204.304 107.427 204.469 110.368 203.62 112.161C202.771 113.954 200.679 114.614 200.191 114.292" fill="white"/>
<path d="M199.893 110.203C199.893 110.203 201.363 106.436 202.834 106.932C204.304 107.427 204.469 110.368 203.62 112.161C202.771 113.954 200.679 114.614 200.191 114.292" stroke="#263238" stroke-linecap="round" stroke-linejoin="round"/>
<path d="M188.901 112.193C188.901 112.193 194.814 111.776 196.064 111.941C197.315 112.106 197.142 113.514 196.811 115.086C196.481 116.659 194.562 117.587 192.313 117.17C190.064 116.754 189.561 114.811 189.168 114.505C188.775 114.198 188.586 113.836 188.091 114.088C187.595 114.339 187.674 116.085 187.092 116.832C186.51 117.579 184.922 118.169 183.16 117.249C181.399 116.329 181.493 113.671 181.493 112.751C181.493 111.831 182.405 111.917 182.822 111.965C183.239 112.012 188.901 112.193 188.901 112.193Z" stroke="#263238" stroke-linecap="round" stroke-linejoin="round"/>
<path d="M196.896 112.279L200.561 108.528" stroke="#263238" stroke-linecap="round" stroke-linejoin="round"/>
<path d="M181.9 111.941L183.316 110.195" stroke="#263238" stroke-linecap="round" stroke-linejoin="round"/>
<path d="M187.979 115.023C187.979 115.023 187.649 116.022 187.476 116.856C187.303 117.689 187.98 119.356 188.978 119.215C189.977 119.073 190.228 118.546 190.228 118.546" stroke="#263238" stroke-linecap="round" stroke-linejoin="round"/>
<path d="M194.829 111.028C193.705 110.68 192.494 110.738 191.408 111.194" stroke="#263238" stroke-linecap="round" stroke-linejoin="round"/>
<path d="M187.146 111.359C186.774 111.053 186.31 110.878 185.828 110.862C185.346 110.847 184.872 110.991 184.48 111.273" stroke="#263238" stroke-linecap="round" stroke-linejoin="round"/>
<path d="M211.947 122.415C211.947 122.415 216.995 123.941 219.221 125.82C221.446 127.699 225.04 142.459 226.093 149.497C227.147 156.535 228.791 162.621 227.383 163.447C225.976 164.273 203.965 161.395 203.965 161.395L203.266 157.998L217.609 155.009C217.609 155.009 209.596 139.282 209.368 134.973C209.155 132.664 209.475 130.337 210.303 128.171" fill="white"/>
<path d="M211.947 122.415C211.947 122.415 216.995 123.941 219.221 125.82C221.446 127.699 225.04 142.459 226.093 149.497C227.147 156.535 228.791 162.621 227.383 163.447C225.976 164.273 203.965 161.395 203.965 161.395L203.266 157.998L217.609 155.009C217.609 155.009 209.596 139.282 209.368 134.973C209.155 132.664 209.475 130.337 210.303 128.171" stroke="#263238" stroke-linecap="round" stroke-linejoin="round"/>
<path d="M188.483 149.898L194.695 165.154L184.142 169.023L177.568 154.239L188.483 149.898Z" fill="#339999" stroke="#263238" stroke-linecap="round" stroke-linejoin="round"/>
<path d="M177.568 154.239L170.059 148.727L176.743 164.218L184.142 169.022L177.568 154.239Z" fill="#339999" stroke="#263238" stroke-linecap="round" stroke-linejoin="round"/>
<path d="M203.267 157.998C203.267 157.998 194.814 155.639 193.878 154.947C192.942 154.255 185.079 157.408 184.607 157.408C184.135 157.408 184.253 157.998 184.725 158.234C185.197 158.47 190.355 157.054 190.355 157.054C190.355 157.054 185.433 159.641 185.433 160.2C185.439 160.381 185.483 160.559 185.563 160.721C185.643 160.884 185.757 161.028 185.897 161.143C185.897 161.143 186.015 162.197 186.604 162.433C187.194 162.669 193.17 161.489 193.17 161.489C193.17 161.489 188.452 163.251 189.066 163.605C189.348 163.779 189.674 163.871 190.005 163.871C190.337 163.871 190.662 163.779 190.945 163.605C191.645 163.251 195.875 161.961 195.875 161.961C195.875 161.961 199.021 162.897 200.798 162.433C201.867 162.142 202.917 161.788 203.943 161.371L203.267 157.998Z" fill="white" stroke="#263238" stroke-linecap="round" stroke-linejoin="round"/>
<path d="M185.896 161.167L191.763 159.523" stroke="#263238" stroke-linecap="round" stroke-linejoin="round"/>
<path d="M171.348 153.303C171.348 153.303 175.335 156.236 176.067 157.172C176.271 157.436 176.418 157.739 176.499 158.062C176.58 158.386 176.594 158.722 176.538 159.051L173.951 157.998C173.951 157.998 177.238 160.931 177.356 161.395C177.474 161.859 178.646 163.864 177.238 163.628C175.831 163.392 171.608 161.167 170.782 159.987C169.957 158.807 169.729 153.303 169.729 153.303C169.729 153.303 170.059 152.131 171.348 153.303Z" fill="white" stroke="#263238" stroke-linecap="round" stroke-linejoin="round"/>
<path d="M177.333 162.102L172.639 159.287" stroke="#263238" stroke-linecap="round" stroke-linejoin="round"/>
<path d="M177.804 163.156C177.804 163.156 173.582 161.285 172.756 160.577" stroke="#263238" stroke-linecap="round" stroke-linejoin="round"/>
<path d="M173.927 157.997L172.52 157.054" stroke="#263238" stroke-linecap="round" stroke-linejoin="round"/>
<path d="M202.888 200.382H199.617V266.86H202.888V200.382Z" fill="white" stroke="#263238" stroke-linecap="round" stroke-linejoin="round"/>
<path d="M352.217 200.382H348.945V266.86H352.217V200.382Z" fill="white" stroke="#263238" stroke-linecap="round" stroke-linejoin="round"/>
<path d="M356.817 196.458H196.881V202.631H356.817V196.458Z" fill="white" stroke="#263238" stroke-linecap="round" stroke-linejoin="round"/>
<path d="M35.2224 200.382H31.9512V266.86H35.2224V200.382Z" fill="white" stroke="#263238" stroke-linecap="round" stroke-linejoin="round"/>
<path d="M184.543 200.382H181.271V266.86H184.543V200.382Z" fill="white" stroke="#263238" stroke-linecap="round" stroke-linejoin="round"/>
<path d="M189.151 196.458H29.2148V202.631H189.151V196.458Z" fill="white" stroke="#263238" stroke-linecap="round" stroke-linejoin="round"/>
<path d="M303.975 212.036L311.492 260.2L315.518 260.452L316.47 213.216L303.975 212.036Z" fill="#707070" stroke="#263238" stroke-linecap="round" stroke-linejoin="round"/>
<path d="M311.492 260.2V265.563C311.493 265.777 311.575 265.983 311.72 266.141C311.866 266.298 312.065 266.395 312.279 266.412L315.227 266.578C315.351 266.584 315.475 266.564 315.59 266.517C315.705 266.471 315.809 266.4 315.894 266.309C315.978 266.218 316.042 266.11 316.081 265.992C316.119 265.874 316.131 265.749 316.116 265.626L315.518 260.452L311.492 260.2Z" fill="white" stroke="#263238" stroke-linecap="round" stroke-linejoin="round"/>
<path d="M333.345 212.153L325.002 260.152L320.968 260.31L320.834 213.065L333.345 212.153Z" fill="#707070" stroke="#263238" stroke-linecap="round" stroke-linejoin="round"/>
<path d="M325.002 260.152L324.908 265.507C324.904 265.726 324.816 265.934 324.662 266.09C324.508 266.245 324.3 266.335 324.082 266.341L321.125 266.443C321.002 266.447 320.879 266.423 320.765 266.374C320.652 266.325 320.551 266.252 320.468 266.16C320.386 266.068 320.325 265.959 320.289 265.841C320.253 265.723 320.243 265.598 320.26 265.476L320.968 260.31L325.002 260.152Z" fill="white" stroke="#263238" stroke-linecap="round" stroke-linejoin="round"/>
<path d="M301.6 165.491C301.6 165.491 289.018 189.868 288.672 191.944C288.326 194.02 290.387 197.095 293.988 196.749C297.59 196.403 306.971 196.238 306.971 196.238L307.144 192.974L296.331 191.606L302.85 186.455L301.6 165.491Z" fill="#339999" stroke="#263238" stroke-linecap="round" stroke-linejoin="round"/>
<path d="M296.331 191.606L295.018 194.178" stroke="#263238" stroke-linecap="round" stroke-linejoin="round"/>
<path d="M335.296 166.019C335.296 166.019 348.113 189.884 348.459 191.968C348.805 194.052 346.745 197.119 343.144 196.773C339.542 196.427 331.12 196.262 331.12 196.262L330.947 192.943L336.798 191.575L332.701 186.362L335.296 166.019Z" fill="#339999" stroke="#263238" stroke-linecap="round" stroke-linejoin="round"/>
<path d="M336.797 191.606L342.113 194.178" stroke="#263238" stroke-linecap="round" stroke-linejoin="round"/>
<path d="M313.569 159.067L305.312 163.439C301.184 165.625 301.853 164.398 301.609 165.491C301.365 166.584 303.001 204.471 303.001 204.471C303.001 204.471 306.146 207.538 314.418 208.355C326.796 209.566 332.135 205.682 332.135 205.682C332.135 205.682 335.28 167.355 335.28 166.018C335.28 164.681 330.169 162.086 326.898 160.514C323.627 158.941 319.994 157.612 313.569 159.067Z" fill="#339999" stroke="#263238" stroke-linecap="round" stroke-linejoin="round"/>
<path d="M317.971 133.18C317.971 133.18 312.616 135.539 310.894 139.384C309.172 143.23 311.963 152.226 311.319 154.577C310.674 156.928 307.686 156.716 307.686 156.716C307.686 156.716 308.967 163.997 316.241 164.854C323.515 165.712 326.731 164.634 329.727 161.426C332.723 158.218 332.086 158.218 332.086 158.218C332.086 158.218 330.804 158.218 330.16 154.577C329.515 150.936 330.372 140.666 327.164 136.176C323.955 131.686 319.072 131.859 317.971 133.18Z" fill="#263238" stroke="#263238" stroke-linecap="round" stroke-linejoin="round"/>
<path d="M302.993 204.471C302.993 204.471 301.907 216.604 302.269 218.185C302.631 219.765 306.397 222.313 314.064 222.557C321.731 222.801 331.301 223.162 333.613 220.371C335.925 217.579 332.151 205.682 332.151 205.682C332.151 205.682 311.737 207.38 302.993 204.471Z" fill="#707070" stroke="#263238" stroke-linecap="round" stroke-linejoin="round"/>
<path d="M318.357 158.839C318.357 158.839 318.538 157.58 322.289 158.658" stroke="#263238" stroke-linecap="round" stroke-linejoin="round"/>
<path d="M302.819 266.129C302.706 266.121 302.597 266.091 302.496 266.04C302.396 265.99 302.306 265.919 302.233 265.834C302.16 265.748 302.104 265.649 302.07 265.542C302.036 265.434 302.023 265.321 302.032 265.209L304.525 219.31L307.388 219.538L303.723 265.351C303.705 265.573 303.6 265.78 303.431 265.925C303.261 266.071 303.042 266.144 302.819 266.129Z" fill="#263238" stroke="#263238" stroke-linecap="round" stroke-linejoin="round"/>
<path d="M333.684 266.129C333.91 266.111 334.12 266.004 334.267 265.832C334.415 265.659 334.488 265.435 334.47 265.209L331.978 219.31L329.115 219.538L332.772 265.351C332.792 265.574 332.899 265.78 333.069 265.926C333.24 266.071 333.46 266.144 333.684 266.129Z" fill="#263238" stroke="#263238" stroke-linecap="round" stroke-linejoin="round"/>
<path d="M336.617 183.176C330.212 184.101 323.751 184.576 317.28 184.6C311.226 184.533 305.184 184.057 299.194 183.176C298.966 183.14 298.734 183.158 298.514 183.229C298.295 183.3 298.096 183.422 297.933 183.584C297.77 183.747 297.647 183.945 297.575 184.164C297.503 184.383 297.484 184.616 297.519 184.843C298.447 190.647 301.081 207.341 301.081 210.534C301.081 214.418 299.744 218.067 299.744 219.765C299.744 221.464 300.476 222.801 301.687 223.28C302.253 223.508 308.614 223.524 317.217 223.477C327.172 223.524 333.542 223.477 334.1 223.28C335.311 222.801 336.042 221.464 336.042 219.765C336.042 218.067 334.706 214.418 334.706 210.534C334.706 207.341 337.34 190.639 338.276 184.843C338.312 184.617 338.294 184.385 338.224 184.167C338.153 183.949 338.032 183.75 337.87 183.588C337.708 183.425 337.511 183.303 337.293 183.232C337.075 183.16 336.843 183.141 336.617 183.176ZM330.389 218.743C329.956 218.908 325.049 218.924 317.374 218.885C310.745 218.924 305.839 218.885 305.406 218.743C304.914 218.499 304.508 218.111 304.241 217.631C303.974 217.15 303.86 216.601 303.912 216.054C303.912 214.756 304.934 211.973 304.934 208.977C304.934 208.285 304.769 206.743 304.518 204.793L306.947 207.427C307.28 207.785 307.683 208.069 308.131 208.264C308.579 208.459 309.062 208.56 309.55 208.56H326.221C327.146 208.56 328.035 208.199 328.698 207.553L331.238 205.076C331.002 206.893 330.853 208.316 330.853 209.008C330.853 211.973 331.883 214.756 331.883 216.085C331.929 216.627 331.811 217.17 331.544 217.644C331.278 218.118 330.875 218.501 330.389 218.743ZM333.605 189.404C333.196 191.921 332.362 197.118 331.718 201.585L329.296 203.087C327.938 203.912 326.379 204.347 324.79 204.345H311.209C309.666 204.345 308.151 203.932 306.822 203.15L304.061 201.53C303.425 197.071 302.599 191.905 302.19 189.404C302.164 189.23 302.18 189.051 302.236 188.884C302.292 188.717 302.387 188.565 302.512 188.441C302.638 188.317 302.791 188.224 302.959 188.17C303.127 188.116 303.305 188.103 303.48 188.13C308.097 188.804 312.755 189.166 317.422 189.216C322.421 189.202 327.413 188.839 332.362 188.13C332.533 188.109 332.707 188.128 332.87 188.185C333.032 188.241 333.18 188.335 333.3 188.459C333.42 188.582 333.51 188.732 333.563 188.896C333.616 189.06 333.63 189.234 333.605 189.404Z" fill="#263238" stroke="#263238" stroke-linecap="round" stroke-linejoin="round"/>
<path d="M241.445 168.975V162.425H250.795V169.463L241.445 168.975Z" fill="white" stroke="#263238" stroke-linecap="round" stroke-linejoin="round"/>
<path d="M236.838 154.05C236.838 154.05 235.375 153.681 235.375 155.993C235.375 158.305 237.294 159.917 238.08 159.751C238.866 159.586 237.718 155.261 237.593 154.412C237.467 153.563 236.838 154.05 236.838 154.05Z" fill="white" stroke="#263238" stroke-linecap="round" stroke-linejoin="round"/>
<path d="M255.049 154.05C255.049 154.05 256.504 153.681 256.504 155.993C256.504 158.305 254.593 159.917 253.807 159.751C253.02 159.586 254.168 155.261 254.286 154.412C254.404 153.563 255.049 154.05 255.049 154.05Z" fill="white" stroke="#263238" stroke-linecap="round" stroke-linejoin="round"/>
<path d="M255.08 144.905C255.08 144.905 255.993 144.449 254.97 142.278C254.697 141.664 254.289 141.119 253.775 140.684C253.262 140.25 252.657 139.937 252.006 139.77C252.006 139.77 252.792 139.314 252.792 138.858C252.792 138.402 251.77 138.291 248.687 139.204C247.853 139.384 247.098 139.826 246.532 140.466C245.967 141.105 245.62 141.908 245.542 142.758C245.484 142.724 245.424 142.695 245.361 142.671C244.614 142.31 241.72 141.02 240.336 141.712C238.764 142.498 240.564 142.278 240.564 142.278C238.75 142.574 237.118 143.554 236.003 145.015C234.297 147.374 235.547 147.641 235.893 147.641C236.239 147.641 236.577 146.611 236.577 146.611V148.781C236.577 148.781 236.617 148.97 236.688 149.269C236.208 152.485 237.057 156.126 237.529 158.414C238.134 161.332 240.564 164.123 242.389 164.705C244.213 165.287 249.788 164.705 249.788 164.705C251.178 163.306 252.364 161.717 253.311 159.987C254.324 157.847 254.86 155.513 254.884 153.146C255.505 151.846 255.871 150.439 255.961 149.002C256.221 146.045 255.08 144.905 255.08 144.905Z" fill="#263238" stroke="#263238" stroke-linecap="round" stroke-linejoin="round"/>
<path d="M252.131 157.25C252.131 157.25 246.98 154.474 241.908 156.645C238.975 157.895 236.812 161.009 236.812 161.009C239.366 160.247 242.012 159.839 244.676 159.798C247.963 159.871 251.243 160.113 254.505 160.521C253.923 159.294 253.117 158.185 252.131 157.25Z" fill="#339999" stroke="#263238" stroke-linecap="round" stroke-linejoin="round"/>
<path d="M225.545 168.778C225.545 168.778 212.177 189.884 211.831 191.944C211.485 194.005 213.545 197.095 217.146 196.749C220.748 196.403 234.132 196.238 234.132 196.238L234.305 192.974L223.5 191.606L230.019 186.456L225.545 168.778Z" fill="#339999" stroke="#263238" stroke-linecap="round" stroke-linejoin="round"/>
<path d="M223.499 191.606L218.176 194.178" stroke="#263238" stroke-linecap="round" stroke-linejoin="round"/>
<path d="M266.694 167.929C266.694 167.929 280.243 189.884 280.581 191.944C280.92 194.004 278.867 197.095 275.266 196.749C271.664 196.403 258.28 196.237 258.28 196.237L258.107 192.974L268.92 191.606L262.401 186.455L266.694 167.929Z" fill="#339999" stroke="#263238" stroke-linecap="round" stroke-linejoin="round"/>
<path d="M268.92 191.606L274.236 194.178" stroke="#263238" stroke-linecap="round" stroke-linejoin="round"/>
<path d="M240.721 159.067L232.464 163.439C228.336 165.625 225.788 167.685 225.544 168.778C225.3 169.871 230.16 204.471 230.16 204.471C230.16 204.471 233.305 207.538 241.57 208.355C253.947 209.566 259.286 205.682 259.286 205.682C259.286 205.682 266.694 169.266 266.694 167.937C266.694 166.608 257.344 162.11 254.073 160.529C250.802 158.949 247.153 157.612 240.721 159.067Z" fill="#339999" stroke="#263238" stroke-linecap="round" stroke-linejoin="round"/>
<path d="M223.115 214.544L237.561 260.711L241.571 260.224L235.618 213.451L223.115 214.544Z" fill="white" stroke="#263238" stroke-linecap="round" stroke-linejoin="round"/>
<path d="M237.561 260.711L238.512 265.988C238.551 266.202 238.67 266.393 238.846 266.522C239.021 266.651 239.24 266.707 239.456 266.68L242.389 266.302C242.512 266.287 242.63 266.245 242.736 266.179C242.841 266.113 242.93 266.025 242.998 265.921C243.065 265.817 243.109 265.699 243.126 265.576C243.143 265.453 243.133 265.328 243.096 265.209L241.571 260.224L237.561 260.711Z" fill="white" stroke="#263238" stroke-linecap="round" stroke-linejoin="round"/>
<path d="M267.653 214.544L253.208 260.711L249.197 260.224L255.15 213.451L267.653 214.544Z" fill="white" stroke="#263238" stroke-linecap="round" stroke-linejoin="round"/>
<path d="M253.209 260.711L252.233 265.988C252.195 266.202 252.075 266.393 251.9 266.522C251.724 266.651 251.506 266.707 251.29 266.68L248.357 266.302C248.234 266.287 248.115 266.245 248.01 266.179C247.905 266.113 247.815 266.025 247.748 265.921C247.68 265.817 247.636 265.699 247.619 265.576C247.602 265.453 247.612 265.328 247.649 265.209L249.175 260.224L253.209 260.711Z" fill="white" stroke="#263238" stroke-linecap="round" stroke-linejoin="round"/>
<path d="M242.537 209.079C242.537 209.079 229.31 204.951 226.881 206.169C224.451 207.388 222.021 210.534 222.87 214.033C223.719 217.532 231.009 221.802 232.582 221.897C234.154 221.991 242.663 221.897 242.663 221.897L242.537 209.079Z" fill="white" stroke="#263238" stroke-linecap="round" stroke-linejoin="round"/>
<path d="M249.042 209.079C249.042 209.079 262.276 204.951 264.706 206.169C267.136 207.388 269.558 210.534 268.708 214.033C267.859 217.532 260.578 221.802 258.997 221.897C257.416 221.991 248.924 221.897 248.924 221.897L249.042 209.079Z" fill="white" stroke="#263238" stroke-linecap="round" stroke-linejoin="round"/>
<path d="M230.16 204.471C230.16 204.471 229.067 216.604 229.429 218.185C229.791 219.765 233.557 222.313 241.224 222.557C248.891 222.801 258.461 223.162 260.773 220.371C263.085 217.579 259.31 205.682 259.31 205.682C259.31 205.682 238.865 207.38 230.16 204.471Z" fill="white" stroke="#263238" stroke-linecap="round" stroke-linejoin="round"/>
<path d="M229.98 266.129C229.754 266.111 229.544 266.004 229.397 265.832C229.25 265.659 229.177 265.435 229.194 265.209L231.687 219.31L234.549 219.538L230.892 265.351C230.872 265.574 230.766 265.78 230.595 265.926C230.425 266.071 230.204 266.144 229.98 266.129Z" fill="#263238" stroke="#263238" stroke-linecap="round" stroke-linejoin="round"/>
<path d="M260.883 266.129C261.109 266.111 261.319 266.004 261.466 265.832C261.614 265.659 261.687 265.435 261.67 265.209L259.177 219.31L256.314 219.538L259.971 265.351C259.991 265.574 260.098 265.78 260.268 265.926C260.439 266.071 260.66 266.144 260.883 266.129Z" fill="#263238" stroke="#263238" stroke-linecap="round" stroke-linejoin="round"/>
<path d="M263.745 183.176C257.341 184.101 250.88 184.576 244.409 184.6C238.355 184.532 232.313 184.057 226.323 183.176C226.095 183.14 225.863 183.158 225.643 183.229C225.424 183.3 225.225 183.422 225.062 183.584C224.898 183.747 224.776 183.945 224.704 184.164C224.632 184.383 224.613 184.616 224.648 184.843C225.584 190.647 228.218 207.341 228.218 210.534C228.218 214.418 226.881 218.067 226.881 219.765C226.881 221.464 227.605 222.801 228.823 223.28C229.382 223.508 235.743 223.524 244.346 223.477C254.309 223.524 260.671 223.477 261.229 223.28C262.448 222.801 263.171 221.464 263.171 219.765C263.171 218.067 261.842 214.418 261.842 210.534C261.842 207.341 264.477 190.639 265.405 184.843C265.441 184.617 265.423 184.385 265.352 184.167C265.282 183.949 265.161 183.75 264.999 183.588C264.837 183.425 264.639 183.303 264.422 183.232C264.204 183.16 263.972 183.141 263.745 183.176ZM257.517 218.743C257.085 218.908 252.178 218.924 244.503 218.885C237.874 218.924 232.968 218.885 232.535 218.743C232.043 218.499 231.637 218.111 231.37 217.631C231.103 217.15 230.988 216.601 231.041 216.054C231.041 214.756 232.071 211.973 232.071 208.977C232.071 208.285 231.906 206.743 231.646 204.793L234.084 207.427C234.416 207.786 234.819 208.071 235.267 208.266C235.715 208.461 236.198 208.561 236.687 208.56H253.358C254.283 208.558 255.171 208.197 255.835 207.553L258.367 205.076C258.139 206.893 257.989 208.316 257.989 209.008C257.989 211.973 259.012 214.756 259.012 216.085C259.058 216.627 258.94 217.17 258.673 217.644C258.407 218.118 258.004 218.501 257.517 218.743ZM260.734 189.404C260.325 191.921 259.491 197.118 258.854 201.585L256.385 203.087C255.03 203.911 253.474 204.346 251.887 204.345H238.346C236.8 204.346 235.283 203.934 233.95 203.15L231.198 201.53C230.553 197.071 229.728 191.905 229.319 189.404C229.293 189.23 229.309 189.051 229.365 188.884C229.421 188.717 229.516 188.565 229.641 188.441C229.767 188.317 229.92 188.224 230.088 188.17C230.256 188.116 230.434 188.103 230.608 188.13C235.226 188.804 239.884 189.166 244.551 189.216C249.537 189.2 254.516 188.838 259.452 188.13C259.626 188.102 259.804 188.116 259.972 188.17C260.14 188.223 260.292 188.316 260.417 188.441C260.542 188.565 260.636 188.717 260.691 188.884C260.746 189.052 260.761 189.23 260.734 189.404Z" fill="#263238" stroke="#263238" stroke-linecap="round" stroke-linejoin="round"/>
<path d="M232.088 183.404L236.751 200.775L240.384 200.256L236.491 184.183L232.088 183.404Z" fill="#757575" stroke="#263238" stroke-linecap="round" stroke-linejoin="round"/>
<path d="M250.496 199.737L253.87 184.183L258.54 183.656L254.129 200.775L250.496 199.737Z" fill="#757575" stroke="#263238" stroke-linecap="round" stroke-linejoin="round"/>
<path d="M227.715 211.713L233.903 224.633V230.342L227.156 216.337L227.715 211.713Z" fill="#757575" stroke="#263238" stroke-linecap="round" stroke-linejoin="round"/>
<path d="M262.433 211.713L256.252 224.633V230.342L262.991 216.337L262.433 211.713Z" fill="#757575" stroke="#263238" stroke-linecap="round" stroke-linejoin="round"/>
<path d="M251.645 196.372C251.645 196.372 240.494 195.585 237.121 196.631C233.747 197.677 231.938 200.256 232.198 204.408C232.457 208.56 230.122 224.633 230.381 228.785C230.641 232.937 232.198 235.532 238.937 236.829C245.676 238.127 252.682 237.616 256.575 236.043C260.467 234.47 262.323 228.541 259.941 222.298C257.558 216.054 258.156 206.453 257.118 201.79C256.08 197.126 253.461 196.631 251.645 196.372Z" fill="#339999" stroke="#263238" stroke-linecap="round" stroke-linejoin="round"/>
<path d="M257.934 227.637C257.934 227.731 257.754 230.208 257.73 230.302C255.906 237.23 246.131 236.129 240.713 235.225C238.016 234.777 233.974 233.416 232.928 230.507C231.788 227.362 233.266 223.43 233.833 220.245C234.179 218.271 234.375 212.224 236.608 211.218C238.842 210.211 252.398 208.756 254.451 212.853C256.747 217.461 257.117 222.305 257.934 227.637Z" fill="#339999" stroke="#263238" stroke-linecap="round" stroke-linejoin="round"/>
<path d="M247.68 201.176H242.553V204.046H247.68V201.176Z" fill="#263238" stroke="#263238" stroke-linecap="round" stroke-linejoin="round"/>
<path d="M234.556 220.466H256.708C256.759 221.271 256.517 222.068 256.027 222.709C255.537 223.351 254.832 223.794 254.042 223.957C250.732 224.665 247.083 224.531 243.725 224.539C240.713 224.531 234.21 224.979 234.556 220.466Z" fill="#263238" stroke="#263238" stroke-linecap="round" stroke-linejoin="round"/>
<path d="M136.301 212.318L143.818 260.49L147.844 260.734L148.796 213.506L136.301 212.318Z" fill="#339999" stroke="#263238" stroke-linecap="round" stroke-linejoin="round"/>
<path d="M143.818 260.49V265.845C143.818 266.061 143.898 266.269 144.044 266.428C144.19 266.587 144.39 266.685 144.605 266.702L147.561 266.86C147.685 266.865 147.808 266.843 147.923 266.797C148.037 266.75 148.14 266.679 148.225 266.588C148.309 266.498 148.373 266.39 148.412 266.273C148.451 266.156 148.464 266.031 148.45 265.908L147.852 260.734L143.818 260.49Z" fill="white" stroke="#263238" stroke-linecap="round" stroke-linejoin="round"/>
<path d="M165.679 212.437L157.328 260.436L153.302 260.593L153.16 213.357L165.679 212.437Z" fill="#339999" stroke="#263238" stroke-linecap="round" stroke-linejoin="round"/>
<path d="M157.327 260.436L157.232 265.791C157.229 266.003 157.147 266.208 157.002 266.363C156.856 266.519 156.658 266.614 156.446 266.632L153.489 266.726C153.366 266.73 153.243 266.706 153.129 266.657C153.015 266.609 152.913 266.536 152.83 266.444C152.747 266.352 152.685 266.243 152.648 266.125C152.611 266.007 152.601 265.882 152.617 265.759L153.324 260.593L157.327 260.436Z" fill="white" stroke="#263238" stroke-linecap="round" stroke-linejoin="round"/>
<path d="M133.934 165.774C133.934 165.774 121.352 190.151 120.998 192.227C120.644 194.303 122.72 197.378 126.322 197.032C129.923 196.686 139.296 196.521 139.296 196.521L139.469 193.257L128.665 191.889L135.184 186.739L133.934 165.774Z" fill="white" stroke="#263238" stroke-linecap="round" stroke-linejoin="round"/>
<path d="M128.665 191.889L127.352 194.46" stroke="#263238" stroke-linecap="round" stroke-linejoin="round"/>
<path d="M167.769 165.247C167.769 165.247 180.445 190.174 180.784 192.227C181.122 194.279 179.069 197.378 175.468 197.032C171.866 196.686 163.452 196.52 163.452 196.52L163.279 193.257L169.122 191.889L165.434 186.77L167.769 165.247Z" fill="white" stroke="#263238" stroke-linecap="round" stroke-linejoin="round"/>
<path d="M169.123 191.889L174.439 194.46" stroke="#263238" stroke-linecap="round" stroke-linejoin="round"/>
<path d="M145.886 159.358L137.629 163.722C133.501 165.908 134.169 164.681 133.934 165.774C133.698 166.867 135.325 204.738 135.325 204.738C135.325 204.738 138.471 207.813 146.735 208.623C159.12 209.834 164.46 205.949 164.46 205.949C164.46 205.949 167.605 167.622 167.605 166.285C167.605 164.949 162.494 162.354 159.215 160.781C155.936 159.208 152.318 157.895 145.886 159.358Z" fill="white" stroke="#263238" stroke-linecap="round" stroke-linejoin="round"/>
<path d="M135.326 204.738C135.326 204.738 134.233 216.88 134.595 218.452C134.957 220.025 138.723 222.581 146.39 222.824C154.057 223.068 163.627 223.43 165.931 220.638C168.235 217.847 164.476 205.949 164.476 205.949C164.476 205.949 144.063 207.664 135.326 204.738Z" fill="#339999" stroke="#263238" stroke-linecap="round" stroke-linejoin="round"/>
<path d="M151.579 135.586C151.579 135.586 147.647 133.227 143.495 137.74C139.343 142.254 143.676 151.219 144.211 153.373C144.745 155.528 137.031 167.779 137.031 173.284C137.031 178.788 143.715 184.293 154.284 183.2C164.852 182.107 166.142 176.547 164.703 169.902C163.264 163.258 161.644 156.243 161.644 153.389C161.644 150.534 164.16 144.047 161.825 137.756C159.49 131.465 153.741 133.25 151.579 135.586Z" fill="#263238" stroke="#263238" stroke-linecap="round" stroke-linejoin="round"/>
<path d="M145.84 154.45L150.691 159.121C150.691 159.121 145.659 171.16 145.116 174.392C144.574 177.624 147.475 180.683 151.407 180.321C155.339 179.96 157.879 176.547 157.698 173.677C157.517 170.807 154.639 158.94 154.639 158.94C157.122 157.644 159.227 155.726 160.749 153.373" stroke="#808080" stroke-linecap="round" stroke-linejoin="round"/>
<path d="M150.691 159.13C150.691 159.13 150.872 157.871 154.623 158.949" stroke="#263238" stroke-linecap="round" stroke-linejoin="round"/>
<path d="M135.144 266.411C134.919 266.393 134.711 266.287 134.563 266.117C134.416 265.946 134.342 265.724 134.357 265.499L136.85 219.592L139.712 219.828L136.056 265.633C136.038 265.857 135.932 266.065 135.761 266.211C135.59 266.356 135.368 266.429 135.144 266.411Z" fill="#263238" stroke="#263238" stroke-linecap="round" stroke-linejoin="round"/>
<path d="M166.008 266.411C166.12 266.403 166.229 266.373 166.329 266.323C166.429 266.273 166.518 266.203 166.591 266.119C166.664 266.034 166.72 265.936 166.755 265.829C166.789 265.723 166.803 265.611 166.794 265.499L164.31 219.592L161.447 219.828L165.104 265.633C165.122 265.855 165.227 266.062 165.396 266.208C165.565 266.353 165.785 266.426 166.008 266.411Z" fill="#263238" stroke="#263238" stroke-linecap="round" stroke-linejoin="round"/>
<path d="M168.942 183.459C162.54 184.383 156.081 184.859 149.613 184.882C143.559 184.819 137.516 184.343 131.527 183.459C131.299 183.424 131.067 183.443 130.848 183.515C130.629 183.587 130.43 183.71 130.268 183.873C130.105 184.036 129.984 184.235 129.913 184.455C129.842 184.674 129.824 184.907 129.86 185.134C130.788 190.929 133.422 207.624 133.422 210.824C133.422 214.709 132.085 218.35 132.085 220.048C132.085 221.747 132.817 223.083 134.028 223.571C134.586 223.791 140.947 223.807 149.55 223.76C159.513 223.807 165.875 223.76 166.441 223.571C167.652 223.083 168.383 221.747 168.383 220.048C168.383 218.35 167.047 214.709 167.047 210.824C167.047 207.624 169.681 190.929 170.609 185.134C170.647 184.906 170.63 184.673 170.56 184.453C170.489 184.233 170.368 184.033 170.205 183.869C170.042 183.705 169.842 183.583 169.623 183.511C169.403 183.44 169.17 183.422 168.942 183.459ZM162.714 219.026C162.281 219.199 157.374 219.207 149.7 219.175C143.071 219.175 138.164 219.175 137.731 219.026C137.239 218.782 136.833 218.394 136.566 217.913C136.299 217.433 136.185 216.883 136.237 216.337C136.237 215.039 137.267 212.263 137.267 209.299C137.267 208.599 137.102 207.058 136.851 205.115L139.28 207.742C139.612 208.101 140.015 208.388 140.463 208.584C140.911 208.78 141.394 208.882 141.883 208.882H158.554C159.473 208.884 160.357 208.525 161.015 207.883L163.547 205.414C163.319 207.223 163.17 208.646 163.17 209.346C163.17 212.31 164.2 215.086 164.2 216.384C164.243 216.922 164.125 217.461 163.86 217.932C163.596 218.402 163.196 218.783 162.714 219.026ZM165.93 189.687C165.521 192.203 164.695 197.401 164.051 201.868L161.589 203.37C160.232 204.198 158.673 204.636 157.083 204.636H143.542C141.996 204.635 140.478 204.219 139.147 203.432L136.394 201.813C135.75 197.362 134.924 192.195 134.523 189.687C134.496 189.512 134.51 189.333 134.565 189.165C134.621 188.997 134.715 188.844 134.841 188.72C134.967 188.595 135.121 188.502 135.29 188.449C135.459 188.396 135.638 188.384 135.813 188.413C140.428 189.089 145.083 189.455 149.747 189.506C154.746 189.486 159.738 189.12 164.688 188.413C164.859 188.392 165.032 188.41 165.195 188.467C165.357 188.524 165.505 188.618 165.625 188.741C165.745 188.865 165.836 189.014 165.888 189.178C165.941 189.342 165.956 189.517 165.93 189.687Z" fill="#263238" stroke="#263238" stroke-linecap="round" stroke-linejoin="round"/>
<path d="M73.7773 158.634V152.084H83.1192V159.122L73.7773 158.634Z" fill="white" stroke="#263238" stroke-linecap="round" stroke-linejoin="round"/>
<path d="M69.1618 143.71C69.1618 143.71 67.707 143.34 67.707 145.652C67.707 147.964 69.6493 149.529 70.3728 149.411C71.0962 149.293 70.0111 144.921 69.8931 144.071C69.7751 143.222 69.1618 143.71 69.1618 143.71Z" fill="white" stroke="#263238" stroke-linecap="round" stroke-linejoin="round"/>
<path d="M87.3732 143.71C87.3732 143.71 88.8358 143.34 88.8358 145.652C88.8358 147.964 86.8935 149.529 86.1622 149.411C85.4309 149.293 86.5239 144.921 86.6497 144.071C86.7755 143.222 87.3732 143.71 87.3732 143.71Z" fill="white" stroke="#263238" stroke-linecap="round" stroke-linejoin="round"/>
<path d="M75.5936 132.174C75.5936 132.174 71.4652 132.779 69.7667 136.42C68.0682 140.061 69.287 145.164 69.8925 148.074C70.498 150.983 72.9278 153.783 74.7443 154.365C76.5608 154.947 82.1518 154.365 82.1518 154.365C83.5395 152.963 84.7252 151.375 85.6746 149.647C87.3731 146.611 87.6169 140.902 86.8856 137.631C86.1543 134.36 83.6065 131.073 81.6642 130.829C79.7219 130.585 77.9054 132.402 77.9054 132.402C77.1845 132.06 76.3673 131.98 75.5936 132.174Z" fill="#263238" stroke="#263238" stroke-linecap="round" stroke-linejoin="round"/>
<path d="M84.4568 157.424C84.4568 157.424 77.3797 156.331 74.2342 156.819C71.0888 157.306 69.1387 161.183 69.1387 161.183C71.6922 160.422 74.338 160.014 77.0022 159.972C80.2891 160.047 83.5699 160.291 86.8316 160.703C86.248 159.474 85.443 158.362 84.4568 157.424Z" fill="white" stroke="#263238" stroke-linecap="round" stroke-linejoin="round"/>
<path d="M57.8771 168.951C57.8771 168.951 44.5013 190.065 44.1631 192.156C43.825 194.248 45.8774 197.307 49.4789 196.961C53.0804 196.615 66.4641 196.45 66.4641 196.45L66.6293 193.187L55.8248 191.818L62.3436 186.652L57.8771 168.951Z" fill="white" stroke="#263238" stroke-linecap="round" stroke-linejoin="round"/>
<path d="M55.8255 191.779L50.5098 194.351" stroke="#263238" stroke-linecap="round" stroke-linejoin="round"/>
<path d="M99.0264 168.103C99.0264 168.103 112.567 190.065 112.913 192.118C113.259 194.17 111.199 197.268 107.59 196.922C103.98 196.576 90.6125 196.411 90.6125 196.411L90.4395 193.148L101.252 191.78L94.7251 186.653L99.0264 168.103Z" fill="white" stroke="#263238" stroke-linecap="round" stroke-linejoin="round"/>
<path d="M101.244 191.779L106.568 194.351" stroke="#263238" stroke-linecap="round" stroke-linejoin="round"/>
<path d="M73.0463 159.24L64.7895 163.612C60.669 165.798 58.1134 167.858 57.8775 168.952C57.6416 170.045 62.4855 204.644 62.4855 204.644C62.4855 204.644 65.6309 207.711 73.8955 208.529C86.2806 209.74 91.6199 205.855 91.6199 205.855C91.6199 205.855 99.0274 169.439 99.0274 168.11C99.0274 166.781 89.6776 162.275 86.3985 160.703C83.1195 159.13 79.4786 157.785 73.0463 159.24Z" fill="white" stroke="#263238" stroke-linecap="round" stroke-linejoin="round"/>
<path d="M55.4473 214.717L69.8926 260.884L73.8951 260.404L67.9503 213.624L55.4473 214.717Z" fill="#339999" stroke="#263238" stroke-linecap="round" stroke-linejoin="round"/>
<path d="M69.8926 260.884L70.8362 266.16C70.8766 266.375 70.9976 266.567 71.1745 266.695C71.3514 266.824 71.5707 266.88 71.7877 266.852L74.7208 266.475C74.8433 266.459 74.9608 266.416 75.0651 266.35C75.1694 266.283 75.2579 266.195 75.3246 266.091C75.3912 265.987 75.4343 265.87 75.4509 265.747C75.4675 265.625 75.4572 265.5 75.4206 265.382L73.8951 260.404L69.8926 260.884Z" fill="white" stroke="#263238" stroke-linecap="round" stroke-linejoin="round"/>
<path d="M99.9791 214.717L85.5338 260.884L81.5312 260.404L87.4761 213.624L99.9791 214.717Z" fill="#339999" stroke="#263238" stroke-linecap="round" stroke-linejoin="round"/>
<path d="M85.525 260.884L84.5814 266.16C84.541 266.375 84.42 266.567 84.2431 266.695C84.0662 266.824 83.8469 266.88 83.6299 266.852L80.6968 266.475C80.5743 266.459 80.4568 266.416 80.3525 266.35C80.2482 266.283 80.1597 266.195 80.093 266.091C80.0264 265.987 79.9833 265.87 79.9667 265.747C79.9501 265.625 79.9604 265.5 79.997 265.382L81.5225 260.404L85.525 260.884Z" fill="white" stroke="#263238" stroke-linecap="round" stroke-linejoin="round"/>
<path d="M74.8693 209.252C74.8693 209.252 61.635 205.131 59.2051 206.311C56.7753 207.49 54.3533 210.683 55.2026 214.174C56.0519 217.666 63.3335 221.944 64.9141 222.038C66.4946 222.132 74.9873 222.038 74.9873 222.038L74.8693 209.252Z" fill="#339999" stroke="#263238" stroke-linecap="round" stroke-linejoin="round"/>
<path d="M81.3739 209.252C81.3739 209.252 94.6003 205.132 97.0302 206.343C99.46 207.554 101.89 210.715 101.033 214.206C100.176 217.698 92.9018 221.976 91.3212 222.07C89.7407 222.164 81.248 222.07 81.248 222.07L81.3739 209.252Z" fill="#339999" stroke="#263238" stroke-linecap="round" stroke-linejoin="round"/>
<path d="M62.4844 204.645C62.4844 204.645 61.3914 216.786 61.7531 218.359C62.1148 219.931 65.8814 222.487 73.5484 222.731C81.2153 222.974 90.7853 223.336 93.0893 220.545C95.3933 217.753 91.6345 205.856 91.6345 205.856C91.6345 205.856 71.2286 207.554 62.4844 204.645Z" fill="#339999" stroke="#263238" stroke-linecap="round" stroke-linejoin="round"/>
<path d="M62.3123 266.302C62.2007 266.294 62.0917 266.264 61.9917 266.214C61.8916 266.164 61.8025 266.094 61.7295 266.009C61.6564 265.925 61.6008 265.826 61.5659 265.72C61.5309 265.614 61.5174 265.501 61.5259 265.39L64.0108 219.482L66.8731 219.718L63.2245 265.523C63.2064 265.748 63.1002 265.955 62.9293 266.101C62.7583 266.247 62.5364 266.319 62.3123 266.302Z" fill="#263238" stroke="#263238" stroke-linecap="round" stroke-linejoin="round"/>
<path d="M93.1683 266.302C93.2799 266.294 93.3889 266.264 93.4889 266.214C93.5889 266.164 93.678 266.094 93.7511 266.009C93.8242 265.925 93.8798 265.826 93.9147 265.72C93.9496 265.614 93.9632 265.501 93.9546 265.39L91.4697 219.482L88.6074 219.718L92.264 265.523C92.2821 265.746 92.3871 265.953 92.5564 266.098C92.7256 266.244 92.9455 266.317 93.1683 266.302Z" fill="#263238" stroke="#263238" stroke-linecap="round" stroke-linejoin="round"/>
<path d="M96.0787 183.349C89.6743 184.274 83.213 184.749 76.7423 184.773C70.6884 184.706 64.6459 184.23 58.6561 183.349C58.4279 183.313 58.1943 183.331 57.9744 183.402C57.7545 183.474 57.5547 183.596 57.3913 183.759C57.2279 183.923 57.1055 184.123 57.0342 184.343C56.9629 184.562 56.9447 184.796 56.9812 185.024C57.9091 190.82 60.5434 207.514 60.5434 210.714C60.5434 214.599 59.2066 218.24 59.2066 219.938C59.2066 221.637 59.9379 222.974 61.1489 223.461C61.715 223.681 68.0766 223.697 76.6794 223.65C86.6346 223.697 93.0041 223.65 93.5624 223.461C94.7734 222.974 95.5047 221.637 95.5047 219.938C95.5047 218.24 94.1679 214.599 94.1679 210.714C94.1679 207.514 96.8022 190.812 97.7301 185.016C97.7677 184.79 97.7511 184.559 97.6817 184.34C97.6123 184.122 97.492 183.923 97.3308 183.761C97.1695 183.598 96.9719 183.476 96.7543 183.404C96.5366 183.333 96.305 183.314 96.0787 183.349ZM89.8508 218.893C89.4183 219.058 84.5114 219.073 76.8288 219.042C70.1998 219.042 65.3008 219.042 64.8683 218.893C64.3748 218.649 63.9669 218.262 63.6987 217.782C63.4304 217.301 63.3145 216.751 63.3664 216.203C63.3664 214.906 64.3965 212.13 64.3965 209.165C64.3965 208.466 64.2314 206.924 63.9797 204.982L66.4096 207.608C66.742 207.967 67.1446 208.253 67.5924 208.449C68.0402 208.645 68.5235 208.747 69.0124 208.749H85.6831C86.6102 208.75 87.5005 208.386 88.1601 207.734L90.7 205.265C90.4641 207.074 90.3147 208.497 90.3147 209.197C90.3147 212.161 91.3449 214.937 91.3449 216.235C91.3908 216.776 91.2729 217.319 91.0065 217.793C90.7401 218.267 90.3375 218.65 89.8508 218.893ZM93.0591 189.554C92.6581 192.07 91.8245 197.268 91.1797 201.734L88.7184 203.236C87.3606 204.062 85.8016 204.497 84.2126 204.494H70.6716C69.1286 204.495 67.6136 204.082 66.2838 203.299L63.5079 201.703C62.871 197.244 62.0453 192.086 61.6364 189.577C61.6108 189.403 61.6266 189.224 61.6826 189.057C61.7385 188.89 61.8332 188.738 61.9587 188.614C62.0843 188.49 62.2373 188.397 62.4053 188.343C62.5734 188.289 62.7517 188.276 62.926 188.303C67.5464 188.977 72.2069 189.34 76.8759 189.389C81.8753 189.374 86.8677 189.012 91.8167 188.303C91.9877 188.282 92.1613 188.301 92.324 188.358C92.4866 188.415 92.6339 188.508 92.7543 188.632C92.8746 188.755 92.9647 188.905 93.0176 189.069C93.0705 189.233 93.0847 189.407 93.0591 189.577V189.554Z" fill="#263238" stroke="#263238" stroke-linecap="round" stroke-linejoin="round"/>
<path d="M0.599609 266.86H369.4" stroke="#263238" stroke-linecap="round" stroke-linejoin="round"/>
</svg>
