<svg width="370" height="268" viewBox="0 0 370 268" fill="none" xmlns="http://www.w3.org/2000/svg">
<path d="M326.042 60.9141H118.562V149.921H326.042V60.9141Z" fill="white" stroke="#263238" stroke-linecap="round" stroke-linejoin="round"/>
<path d="M331.686 58.4058H112.922V62.1645H331.686V58.4058Z" fill="white" stroke="#263238" stroke-linecap="round" stroke-linejoin="round"/>
<path d="M326.042 146.784H118.562V149.922H326.042V146.784Z" fill="#263238" stroke="#263238" stroke-linecap="round" stroke-linejoin="round"/>
<path d="M163.927 93.537C165.252 85.7844 160.042 78.4254 152.289 77.1003C144.537 75.7751 137.178 80.9855 135.853 88.7381C134.527 96.4907 139.738 103.85 147.49 105.175C155.243 106.5 162.602 101.29 163.927 93.537Z" stroke="#263238" stroke-miterlimit="10"/>
<path d="M149.625 72.7568V113.152" stroke="#263238" stroke-miterlimit="10"/>
<path d="M130.984 91.4014H167.754" stroke="#263238" stroke-miterlimit="10"/>
<path d="M207.828 94.8613H244.598" stroke="#263238" stroke-miterlimit="10"/>
<path d="M225.953 75.7056V116.101" stroke="#263238" stroke-miterlimit="10"/>
<path d="M212.492 80.8799L218.075 85.2205C220.492 87.1011 223.457 88.1384 226.519 88.1739C229.581 88.2094 232.57 87.2411 235.029 85.4171L240.463 81.3989" stroke="#263238" stroke-miterlimit="10"/>
<path d="M240.439 106.939L234.856 102.599C232.438 100.72 229.471 99.6839 226.408 99.6484C223.346 99.6129 220.356 100.58 217.895 102.402L212.469 106.42" stroke="#263238" stroke-miterlimit="10"/>
<path d="M291.922 75.3125V109.228" stroke="#263238" stroke-miterlimit="10"/>
<path d="M273.703 92.5176H308.13" stroke="#263238" stroke-miterlimit="10"/>
<path d="M275.906 91.165V93.9173" stroke="#263238" stroke-miterlimit="10"/>
<path d="M277.906 91.165V93.9173" stroke="#263238" stroke-miterlimit="10"/>
<path d="M279.914 91.165V93.9173" stroke="#263238" stroke-miterlimit="10"/>
<path d="M281.906 91.165V93.9173" stroke="#263238" stroke-miterlimit="10"/>
<path d="M283.914 91.165V93.9173" stroke="#263238" stroke-miterlimit="10"/>
<path d="M285.914 91.165V93.9173" stroke="#263238" stroke-miterlimit="10"/>
<path d="M287.906 91.165V93.9173" stroke="#263238" stroke-miterlimit="10"/>
<path d="M289.914 91.165V93.9173" stroke="#263238" stroke-miterlimit="10"/>
<path d="M293.906 91.165V93.9173" stroke="#263238" stroke-miterlimit="10"/>
<path d="M295.914 91.165V93.9173" stroke="#263238" stroke-miterlimit="10"/>
<path d="M297.914 91.165V93.9173" stroke="#263238" stroke-miterlimit="10"/>
<path d="M299.914 91.165V93.9173" stroke="#263238" stroke-miterlimit="10"/>
<path d="M301.914 91.165V93.9173" stroke="#263238" stroke-miterlimit="10"/>
<path d="M303.914 91.165V93.9173" stroke="#263238" stroke-miterlimit="10"/>
<path d="M305.914 91.165V93.9173" stroke="#263238" stroke-miterlimit="10"/>
<path d="M290.547 107.545H293.299" stroke="#263238" stroke-miterlimit="10"/>
<path d="M290.547 105.54H293.299" stroke="#263238" stroke-miterlimit="10"/>
<path d="M290.547 103.542H293.299" stroke="#263238" stroke-miterlimit="10"/>
<path d="M290.547 101.537H293.299" stroke="#263238" stroke-miterlimit="10"/>
<path d="M290.547 99.54H293.299" stroke="#263238" stroke-miterlimit="10"/>
<path d="M290.547 97.5425H293.299" stroke="#263238" stroke-miterlimit="10"/>
<path d="M290.547 95.5376H293.299" stroke="#263238" stroke-miterlimit="10"/>
<path d="M290.547 89.5376H293.299" stroke="#263238" stroke-miterlimit="10"/>
<path d="M290.547 87.54H293.299" stroke="#263238" stroke-miterlimit="10"/>
<path d="M290.547 85.5352H293.299" stroke="#263238" stroke-miterlimit="10"/>
<path d="M290.547 83.5376H293.299" stroke="#263238" stroke-miterlimit="10"/>
<path d="M290.547 81.5405H293.299" stroke="#263238" stroke-miterlimit="10"/>
<path d="M290.547 79.5352H293.299" stroke="#263238" stroke-miterlimit="10"/>
<path d="M290.547 77.5376H293.299" stroke="#263238" stroke-miterlimit="10"/>
<path d="M133.477 121.385H164.884" stroke="#263238" stroke-miterlimit="10"/>
<path d="M133.477 125.254H164.884" stroke="#263238" stroke-miterlimit="10"/>
<path d="M133.477 129.123H164.884" stroke="#263238" stroke-miterlimit="10"/>
<path d="M133.477 133H164.884" stroke="#263238" stroke-miterlimit="10"/>
<path d="M213.062 121.385H244.469" stroke="#263238" stroke-miterlimit="10"/>
<path d="M213.062 125.254H244.469" stroke="#263238" stroke-miterlimit="10"/>
<path d="M213.062 129.123H244.469" stroke="#263238" stroke-miterlimit="10"/>
<path d="M213.062 133H244.469" stroke="#263238" stroke-miterlimit="10"/>
<path d="M278.023 121.385H309.43" stroke="#263238" stroke-miterlimit="10"/>
<path d="M278.023 125.254H309.43" stroke="#263238" stroke-miterlimit="10"/>
<path d="M278.023 129.123H309.43" stroke="#263238" stroke-miterlimit="10"/>
<path d="M278.023 133H309.43" stroke="#263238" stroke-miterlimit="10"/>
<path d="M172.633 100.735H204.032" stroke="#263238" stroke-miterlimit="10"/>
<path d="M172.633 104.604H204.032" stroke="#263238" stroke-miterlimit="10"/>
<path d="M172.633 108.473H204.032" stroke="#263238" stroke-miterlimit="10"/>
<path d="M172.633 112.35H204.032" stroke="#263238" stroke-miterlimit="10"/>
<path d="M243.18 71.9072H274.579" stroke="#263238" stroke-miterlimit="10"/>
<path d="M243.18 75.7842H274.579" stroke="#263238" stroke-miterlimit="10"/>
<path d="M243.18 79.6528H274.579" stroke="#263238" stroke-miterlimit="10"/>
<path d="M243.18 83.522H274.579" stroke="#263238" stroke-miterlimit="10"/>
<path d="M62.3801 149.693H21.875V183.719H62.3801V149.693Z" fill="#263238" stroke="#263238" stroke-linecap="round" stroke-linejoin="round"/>
<path d="M86.9582 188.044H46.4531V190.206H86.9582V188.044Z" fill="#263238" stroke="#263238" stroke-linecap="round" stroke-linejoin="round"/>
<path d="M44.8321 174.267H37V189.931H44.8321V174.267Z" fill="#707070" stroke="#263238" stroke-linecap="round" stroke-linejoin="round"/>
<path d="M125.311 193.297H17.2891V265.162H125.311V193.297Z" fill="#707070" stroke="#263238" stroke-linecap="round" stroke-linejoin="round"/>
<path d="M19.0627 193.815H15.4219V266.86H19.0627V193.815Z" fill="#707070" stroke="#263238" stroke-linecap="round" stroke-linejoin="round"/>
<path d="M126.781 193.815H123.141V266.86H126.781V193.815Z" fill="#707070" stroke="#263238" stroke-linecap="round" stroke-linejoin="round"/>
<path d="M131.901 189.459H12.375V196.324H131.901V189.459Z" fill="#707070" stroke="#263238" stroke-linecap="round" stroke-linejoin="round"/>
<path d="M185.898 123.005C185.898 123.005 181.557 125.702 180.15 129.225C178.742 132.748 172.876 150.952 171.351 153.303C169.825 155.654 169.825 159.287 171.587 161.285C173.348 163.282 176.305 164.564 178.742 162.22C181.18 159.877 181.888 155.183 184.247 149.639C186.606 144.095 188.595 128.494 189.751 125.325C190.455 123.433 190.927 121.463 191.159 119.458L185.898 123.005Z" fill="white" stroke="#263238" stroke-linecap="round" stroke-linejoin="round"/>
<path d="M221.34 168.787C221.34 168.787 222.04 178.121 221.686 182.87C221.332 187.62 218.171 217.58 218.171 217.58L213.594 257.998H206.556L201.445 198.393L194.588 257.825H187.369C187.369 257.825 183.147 220.395 181.912 211.431C181.173 205.824 180.997 200.158 181.385 194.516C181.385 193.989 179.812 182.021 179.812 178.679C179.837 176.402 179.994 174.128 180.284 171.869L179.993 170.579C179.993 170.579 193.015 174.102 202.011 171.987C211.007 169.872 219.783 167.064 219.783 167.064L221.34 168.787Z" fill="#263238" stroke="#263238" stroke-linecap="round" stroke-linejoin="round"/>
<path d="M213.6 257.998L215.708 265.217C215.781 265.331 215.83 265.459 215.853 265.593C215.875 265.726 215.87 265.863 215.837 265.995C215.805 266.127 215.746 266.251 215.664 266.359C215.582 266.467 215.48 266.557 215.362 266.625C214.481 267.151 204.62 266.625 204.62 266.625C204.342 266.481 204.121 266.247 203.994 265.961C203.867 265.675 203.841 265.354 203.92 265.052C204.093 263.817 206.562 257.975 206.562 257.975L213.6 257.998Z" stroke="#263238" stroke-linecap="round" stroke-linejoin="round"/>
<path d="M194.591 257.825L195.228 264.407C195.266 264.816 195.157 265.226 194.921 265.563C194.763 265.783 194.555 265.961 194.315 266.084C194.074 266.207 193.807 266.271 193.537 266.271H179.894C178.51 266.271 175.836 266.223 176.096 264.863C176.269 263.982 187.356 257.849 187.356 257.849L194.591 257.825Z" stroke="#263238" stroke-linecap="round" stroke-linejoin="round"/>
<path d="M201.451 198.393L199.697 190.969L193.359 186.566" stroke="#6B6B6B" stroke-linecap="round" stroke-linejoin="round"/>
<path d="M183.439 132.04V145.762C183.439 146.549 179.216 164.635 178.862 166.412C178.508 168.189 178.862 169.817 180.27 171.806C181.677 173.796 186.962 175.801 198.458 176.737C209.955 177.672 218.526 173.45 220.869 170.752C223.212 168.055 220.515 162.889 219.697 155.615C218.88 148.341 218.636 125.317 215.357 123.823C212.078 122.329 201.509 117.257 201.509 117.257C201.509 117.257 195.525 117.257 191.538 119.018C188.919 120.273 186.598 122.072 184.728 124.295" fill="white"/>
<path d="M183.439 132.04V145.762C183.439 146.549 179.216 164.635 178.862 166.412C178.508 168.189 178.862 169.817 180.27 171.806C181.677 173.796 186.962 175.801 198.458 176.737C209.955 177.672 218.526 173.45 220.869 170.752C223.212 168.055 220.515 162.889 219.697 155.615C218.88 148.341 218.636 125.317 215.357 123.823C212.078 122.329 201.509 117.257 201.509 117.257C201.509 117.257 195.525 117.257 191.538 119.018C188.919 120.273 186.598 122.072 184.728 124.295" stroke="#263238" stroke-linecap="round" stroke-linejoin="round"/>
<path d="M200.799 114.906C201.454 114.851 202.11 115.003 202.674 115.34C203.238 115.677 203.683 116.182 203.945 116.785C204.771 118.9 202.183 131.686 202.183 131.686C202.183 131.686 196.435 127.582 195.028 127.582C193.62 127.582 187.164 131.686 187.164 131.686C187.164 131.686 189.279 122.887 191.159 119.482C193.038 116.077 198.197 114.206 200.312 114.764L200.799 114.906Z" fill="white" stroke="#263238" stroke-linecap="round" stroke-linejoin="round"/>
<path d="M201.277 113.734C201.277 113.734 201.748 114.906 199.633 120.544C197.518 126.182 196.488 130.986 195.175 129.689C193.861 128.392 192.359 121.597 192.359 121.597C192.359 121.597 199.161 116.667 201.277 113.734Z" fill="white" stroke="#263238" stroke-linecap="round" stroke-linejoin="round"/>
<path d="M182.406 104.643C183.002 107.903 183.768 111.129 184.702 114.308C185.843 117.736 187.313 122.808 191.237 123.948C195.161 125.089 196.309 122.156 197.945 120.803C199.58 119.45 202.191 115.078 202.191 112.939C202.191 110.801 202.026 106.075 201.208 104.439C200.39 102.803 198.92 101.168 194.673 100.35C190.427 99.5322 186.495 100.224 182.406 104.643Z" fill="white" stroke="#263238" stroke-linecap="round" stroke-linejoin="round"/>
<path d="M200.881 109.055C200.881 109.055 198.427 110.038 197.774 108.567C197.122 107.097 195.974 104.966 195.974 104.966C195.974 104.966 190.902 107.097 187.803 107.231C184.705 107.364 181.261 105.438 180.773 103.299C180.286 101.16 182.079 96.434 186.168 93.8627C190.257 91.2913 198.75 90.096 201.368 94.1851C203.353 97.3033 204.326 100.959 204.152 104.651C204.152 107.427 203.987 109.37 203.987 109.37C203.521 109.099 203.003 108.93 202.468 108.876C201.932 108.822 201.391 108.883 200.881 109.055Z" fill="#263238" stroke="#263238" stroke-linecap="round" stroke-linejoin="round"/>
<path d="M199.898 110.203C199.898 110.203 201.369 106.436 202.839 106.932C204.31 107.427 204.475 110.368 203.626 112.161C202.776 113.954 200.685 114.614 200.197 114.292" fill="white"/>
<path d="M199.898 110.203C199.898 110.203 201.369 106.436 202.839 106.932C204.31 107.427 204.475 110.368 203.626 112.161C202.776 113.954 200.685 114.614 200.197 114.292" stroke="#263238" stroke-linecap="round" stroke-linejoin="round"/>
<path d="M188.908 112.193C188.908 112.193 194.822 111.776 196.072 111.941C197.322 112.106 197.149 113.514 196.819 115.086C196.489 116.659 194.57 117.587 192.321 117.17C190.072 116.754 189.569 114.811 189.176 114.505C188.783 114.198 188.594 113.836 188.098 114.088C187.603 114.339 187.682 116.085 187.1 116.832C186.518 117.579 184.929 118.169 183.168 117.249C181.407 116.329 181.501 113.671 181.501 112.751C181.501 111.831 182.413 111.917 182.83 111.965C183.247 112.012 188.908 112.193 188.908 112.193Z" stroke="#263238" stroke-linecap="round" stroke-linejoin="round"/>
<path d="M196.906 112.279L200.571 108.528" stroke="#263238" stroke-linecap="round" stroke-linejoin="round"/>
<path d="M181.906 111.941L183.322 110.195" stroke="#263238" stroke-linecap="round" stroke-linejoin="round"/>
<path d="M187.983 115.023C187.983 115.023 187.653 116.022 187.48 116.856C187.307 117.689 187.983 119.356 188.982 119.215C189.981 119.073 190.232 118.546 190.232 118.546" stroke="#263238" stroke-linecap="round" stroke-linejoin="round"/>
<path d="M194.835 111.029C193.711 110.68 192.499 110.739 191.414 111.194" stroke="#263238" stroke-linecap="round" stroke-linejoin="round"/>
<path d="M187.15 111.359C186.778 111.052 186.314 110.878 185.832 110.862C185.35 110.846 184.876 110.991 184.484 111.272" stroke="#263238" stroke-linecap="round" stroke-linejoin="round"/>
<path d="M211.955 122.415C211.955 122.415 217.003 123.941 219.229 125.82C221.454 127.699 225.048 142.459 226.101 149.497C227.155 156.535 228.798 162.621 227.391 163.447C225.983 164.273 203.973 161.395 203.973 161.395L203.273 157.998L217.617 155.009C217.617 155.009 209.604 139.282 209.376 134.973C209.163 132.664 209.483 130.337 210.311 128.171" fill="white"/>
<path d="M211.955 122.415C211.955 122.415 217.003 123.941 219.229 125.82C221.454 127.699 225.048 142.459 226.101 149.497C227.155 156.535 228.798 162.621 227.391 163.447C225.983 164.273 203.973 161.395 203.973 161.395L203.273 157.998L217.617 155.009C217.617 155.009 209.604 139.282 209.376 134.973C209.163 132.664 209.483 130.337 210.311 128.171" stroke="#263238" stroke-linecap="round" stroke-linejoin="round"/>
<path d="M188.493 149.898L194.705 165.154L184.152 169.023L177.578 154.239L188.493 149.898Z" fill="#339999" stroke="#263238" stroke-linecap="round" stroke-linejoin="round"/>
<path d="M177.572 154.239L170.062 148.727L176.747 164.218L184.146 169.022L177.572 154.239Z" fill="#339999" stroke="#263238" stroke-linecap="round" stroke-linejoin="round"/>
<path d="M203.273 157.997C203.273 157.997 194.82 155.638 193.884 154.946C192.948 154.254 185.085 157.408 184.613 157.408C184.141 157.408 184.259 157.997 184.731 158.233C185.203 158.469 190.361 157.054 190.361 157.054C190.361 157.054 185.439 159.641 185.439 160.199C185.445 160.38 185.489 160.558 185.569 160.721C185.649 160.884 185.763 161.027 185.902 161.143C185.902 161.143 186.02 162.197 186.61 162.433C187.2 162.668 193.176 161.489 193.176 161.489C193.176 161.489 188.458 163.25 189.071 163.604C189.354 163.778 189.679 163.87 190.011 163.87C190.343 163.87 190.668 163.778 190.951 163.604C191.651 163.25 195.881 161.961 195.881 161.961C195.881 161.961 199.027 162.896 200.804 162.433C201.873 162.142 202.923 161.787 203.949 161.371L203.273 157.997Z" fill="white" stroke="#263238" stroke-linecap="round" stroke-linejoin="round"/>
<path d="M185.898 161.167L191.765 159.523" stroke="#263238" stroke-linecap="round" stroke-linejoin="round"/>
<path d="M171.354 153.303C171.354 153.303 175.341 156.236 176.072 157.172C176.277 157.436 176.424 157.739 176.505 158.062C176.586 158.386 176.6 158.722 176.544 159.051L173.957 157.998C173.957 157.998 177.244 160.931 177.362 161.395C177.48 161.859 178.652 163.864 177.244 163.628C175.836 163.392 171.614 161.167 170.788 159.987C169.962 158.807 169.734 153.303 169.734 153.303C169.734 153.303 170.065 152.131 171.354 153.303Z" fill="white" stroke="#263238" stroke-linecap="round" stroke-linejoin="round"/>
<path d="M177.335 162.102L172.641 159.287" stroke="#263238" stroke-linecap="round" stroke-linejoin="round"/>
<path d="M177.814 163.156C177.814 163.156 173.591 161.285 172.766 160.577" stroke="#263238" stroke-linecap="round" stroke-linejoin="round"/>
<path d="M173.931 157.998L172.523 157.054" stroke="#263238" stroke-linecap="round" stroke-linejoin="round"/>
<path d="M202.888 200.382H199.617V266.86H202.888V200.382Z" fill="white" stroke="#263238" stroke-linecap="round" stroke-linejoin="round"/>
<path d="M352.217 200.382H348.945V266.86H352.217V200.382Z" fill="white" stroke="#263238" stroke-linecap="round" stroke-linejoin="round"/>
<path d="M356.819 196.458H196.883V202.631H356.819V196.458Z" fill="white" stroke="#263238" stroke-linecap="round" stroke-linejoin="round"/>
<path d="M35.2244 200.382H31.9531V266.86H35.2244V200.382Z" fill="white" stroke="#263238" stroke-linecap="round" stroke-linejoin="round"/>
<path d="M184.545 200.382H181.273V266.86H184.545V200.382Z" fill="white" stroke="#263238" stroke-linecap="round" stroke-linejoin="round"/>
<path d="M189.155 196.458H29.2188V202.631H189.155V196.458Z" fill="white" stroke="#263238" stroke-linecap="round" stroke-linejoin="round"/>
<path d="M303.984 212.036L311.502 260.2L315.528 260.451L316.48 213.215L303.984 212.036Z" fill="#707070" stroke="#263238" stroke-linecap="round" stroke-linejoin="round"/>
<path d="M311.5 260.2V265.563C311.501 265.777 311.583 265.983 311.728 266.14C311.874 266.297 312.073 266.394 312.286 266.412L315.235 266.577C315.359 266.584 315.483 266.563 315.598 266.517C315.713 266.47 315.817 266.399 315.902 266.309C315.986 266.218 316.05 266.11 316.088 265.992C316.127 265.874 316.139 265.749 316.124 265.626L315.526 260.451L311.5 260.2Z" fill="white" stroke="#263238" stroke-linecap="round" stroke-linejoin="round"/>
<path d="M333.355 212.154L325.011 260.153L320.977 260.31L320.844 213.066L333.355 212.154Z" fill="#707070" stroke="#263238" stroke-linecap="round" stroke-linejoin="round"/>
<path d="M325.008 260.153L324.913 265.508C324.909 265.726 324.821 265.935 324.668 266.09C324.514 266.245 324.306 266.335 324.088 266.341L321.131 266.444C321.008 266.447 320.885 266.424 320.771 266.375C320.658 266.326 320.556 266.253 320.474 266.161C320.392 266.069 320.33 265.96 320.294 265.842C320.259 265.723 320.249 265.599 320.266 265.476L320.974 260.31L325.008 260.153Z" fill="white" stroke="#263238" stroke-linecap="round" stroke-linejoin="round"/>
<path d="M301.606 165.491C301.606 165.491 289.024 189.868 288.678 191.944C288.332 194.02 290.393 197.095 293.994 196.749C297.596 196.403 306.977 196.238 306.977 196.238L307.15 192.974L296.337 191.606L302.856 186.455L301.606 165.491Z" fill="#339999" stroke="#263238" stroke-linecap="round" stroke-linejoin="round"/>
<path d="M296.337 191.606L295.023 194.178" stroke="#263238" stroke-linecap="round" stroke-linejoin="round"/>
<path d="M335.302 166.018C335.302 166.018 348.119 189.884 348.465 191.968C348.811 194.052 346.751 197.118 343.149 196.772C339.548 196.426 331.126 196.261 331.126 196.261L330.953 192.943L336.804 191.575L332.707 186.361L335.302 166.018Z" fill="#339999" stroke="#263238" stroke-linecap="round" stroke-linejoin="round"/>
<path d="M336.805 191.606L342.12 194.178" stroke="#263238" stroke-linecap="round" stroke-linejoin="round"/>
<path d="M313.571 159.067L305.314 163.439C301.186 165.625 301.854 164.398 301.611 165.491C301.367 166.584 303.003 204.471 303.003 204.471C303.003 204.471 306.148 207.538 314.42 208.355C326.798 209.566 332.137 205.682 332.137 205.682C332.137 205.682 335.282 167.355 335.282 166.018C335.282 164.681 330.171 162.086 326.9 160.514C323.629 158.941 319.996 157.612 313.571 159.067Z" fill="#339999" stroke="#263238" stroke-linecap="round" stroke-linejoin="round"/>
<path d="M317.981 133.18C317.981 133.18 312.626 135.539 310.904 139.384C309.182 143.23 311.973 152.226 311.328 154.577C310.683 156.928 307.695 156.716 307.695 156.716C307.695 156.716 308.977 163.997 316.251 164.854C323.525 165.712 326.741 164.634 329.737 161.426C332.733 158.218 332.096 158.218 332.096 158.218C332.096 158.218 330.814 158.218 330.169 154.577C329.525 150.936 330.382 140.666 327.173 136.176C323.965 131.686 319.082 131.859 317.981 133.18Z" fill="#263238" stroke="#263238" stroke-linecap="round" stroke-linejoin="round"/>
<path d="M303 204.471C303 204.471 301.915 216.605 302.277 218.185C302.639 219.766 306.405 222.314 314.072 222.557C321.739 222.801 331.309 223.163 333.621 220.371C335.933 217.58 332.158 205.682 332.158 205.682C332.158 205.682 311.745 207.381 303 204.471Z" fill="#707070" stroke="#263238" stroke-linecap="round" stroke-linejoin="round"/>
<path d="M318.359 158.839C318.359 158.839 318.54 157.581 322.291 158.658" stroke="#263238" stroke-linecap="round" stroke-linejoin="round"/>
<path d="M302.829 266.129C302.716 266.121 302.607 266.091 302.506 266.04C302.405 265.99 302.316 265.919 302.243 265.834C302.17 265.748 302.114 265.649 302.08 265.542C302.045 265.434 302.033 265.321 302.042 265.209L304.535 219.31L307.397 219.538L303.733 265.351C303.715 265.573 303.61 265.78 303.44 265.925C303.271 266.071 303.051 266.144 302.829 266.129Z" fill="#263238" stroke="#263238" stroke-linecap="round" stroke-linejoin="round"/>
<path d="M333.686 266.129C333.912 266.111 334.122 266.004 334.269 265.832C334.417 265.659 334.49 265.435 334.472 265.209L331.98 219.31L329.117 219.538L332.774 265.351C332.794 265.574 332.9 265.78 333.071 265.926C333.242 266.071 333.462 266.144 333.686 266.129Z" fill="#263238" stroke="#263238" stroke-linecap="round" stroke-linejoin="round"/>
<path d="M336.622 183.176C330.218 184.101 323.757 184.576 317.286 184.6C311.232 184.533 305.19 184.057 299.2 183.176C298.972 183.14 298.74 183.158 298.52 183.229C298.301 183.3 298.102 183.422 297.939 183.584C297.775 183.747 297.653 183.945 297.581 184.164C297.509 184.383 297.49 184.616 297.525 184.843C298.453 190.647 301.087 207.341 301.087 210.534C301.087 214.418 299.75 218.067 299.75 219.765C299.75 221.464 300.482 222.801 301.693 223.28C302.259 223.508 308.62 223.524 317.223 223.477C327.178 223.524 333.548 223.477 334.106 223.28C335.317 222.801 336.048 221.464 336.048 219.765C336.048 218.067 334.712 214.418 334.712 210.534C334.712 207.341 337.346 190.639 338.282 184.843C338.318 184.617 338.3 184.385 338.229 184.167C338.159 183.949 338.038 183.75 337.876 183.588C337.714 183.425 337.516 183.303 337.299 183.232C337.081 183.16 336.849 183.141 336.622 183.176ZM330.394 218.743C329.962 218.908 325.055 218.924 317.38 218.885C310.751 218.924 305.844 218.885 305.412 218.743C304.92 218.499 304.514 218.111 304.247 217.631C303.98 217.15 303.865 216.601 303.918 216.054C303.918 214.756 304.94 211.973 304.94 208.977C304.94 208.285 304.775 206.743 304.523 204.793L306.953 207.427C307.286 207.785 307.689 208.069 308.137 208.264C308.585 208.459 309.068 208.56 309.556 208.56H326.227C327.152 208.56 328.041 208.199 328.704 207.553L331.244 205.076C331.008 206.893 330.858 208.316 330.858 209.008C330.858 211.973 331.889 214.756 331.889 216.085C331.934 216.627 331.817 217.17 331.55 217.644C331.284 218.118 330.881 218.501 330.394 218.743ZM333.611 189.404C333.202 191.921 332.368 197.118 331.723 201.585L329.301 203.087C327.944 203.912 326.385 204.347 324.796 204.345H311.215C309.672 204.345 308.157 203.932 306.827 203.15L304.067 201.53C303.43 197.071 302.605 191.905 302.196 189.404C302.17 189.23 302.186 189.051 302.242 188.884C302.298 188.717 302.393 188.565 302.518 188.441C302.644 188.317 302.797 188.224 302.965 188.17C303.133 188.116 303.311 188.103 303.485 188.13C308.103 188.804 312.761 189.166 317.427 189.216C322.427 189.202 327.419 188.839 332.368 188.13C332.539 188.109 332.713 188.128 332.876 188.185C333.038 188.241 333.185 188.335 333.306 188.459C333.426 188.582 333.516 188.732 333.569 188.896C333.622 189.06 333.636 189.234 333.611 189.404Z" fill="#263238" stroke="#263238" stroke-linecap="round" stroke-linejoin="round"/>
<path d="M241.445 168.975V162.425H250.795V169.463L241.445 168.975Z" fill="white" stroke="#263238" stroke-linecap="round" stroke-linejoin="round"/>
<path d="M236.838 154.05C236.838 154.05 235.375 153.68 235.375 155.992C235.375 158.304 237.294 159.916 238.08 159.751C238.866 159.586 237.718 155.261 237.593 154.412C237.467 153.562 236.838 154.05 236.838 154.05Z" fill="white" stroke="#263238" stroke-linecap="round" stroke-linejoin="round"/>
<path d="M255.055 154.05C255.055 154.05 256.51 153.68 256.51 155.992C256.51 158.304 254.599 159.916 253.812 159.751C253.026 159.586 254.174 155.261 254.292 154.412C254.41 153.562 255.055 154.05 255.055 154.05Z" fill="white" stroke="#263238" stroke-linecap="round" stroke-linejoin="round"/>
<path d="M255.086 144.905C255.086 144.905 255.998 144.449 254.976 142.278C254.703 141.664 254.295 141.119 253.781 140.684C253.268 140.25 252.663 139.937 252.012 139.77C252.012 139.77 252.798 139.314 252.798 138.858C252.798 138.402 251.776 138.291 248.693 139.204C247.859 139.384 247.104 139.826 246.538 140.466C245.972 141.105 245.625 141.908 245.548 142.758C245.49 142.724 245.429 142.695 245.367 142.671C244.62 142.31 241.726 141.02 240.342 141.712C238.769 142.498 240.57 142.278 240.57 142.278C238.756 142.574 237.124 143.554 236.009 145.015C234.303 147.374 235.553 147.641 235.899 147.641C236.245 147.641 236.583 146.611 236.583 146.611V148.781C236.583 148.781 236.623 148.97 236.693 149.269C236.214 152.485 237.063 156.126 237.535 158.414C238.14 161.332 240.57 164.123 242.394 164.705C244.219 165.287 249.794 164.705 249.794 164.705C251.184 163.306 252.37 161.717 253.317 159.987C254.33 157.847 254.866 155.513 254.89 153.146C255.511 151.846 255.877 150.439 255.967 149.002C256.226 146.045 255.086 144.905 255.086 144.905Z" fill="#263238" stroke="#263238" stroke-linecap="round" stroke-linejoin="round"/>
<path d="M252.138 157.251C252.138 157.251 246.988 154.475 241.916 156.645C238.983 157.895 236.82 161.009 236.82 161.009C239.374 160.247 242.02 159.84 244.684 159.798C247.971 159.872 251.251 160.113 254.513 160.522C253.93 159.294 253.125 158.185 252.138 157.251Z" fill="#339999" stroke="#263238" stroke-linecap="round" stroke-linejoin="round"/>
<path d="M225.549 168.778C225.549 168.778 212.181 189.884 211.835 191.944C211.489 194.005 213.549 197.095 217.15 196.749C220.752 196.403 234.136 196.238 234.136 196.238L234.309 192.974L223.504 191.606L230.023 186.456L225.549 168.778Z" fill="#339999" stroke="#263238" stroke-linecap="round" stroke-linejoin="round"/>
<path d="M223.503 191.606L218.18 194.178" stroke="#263238" stroke-linecap="round" stroke-linejoin="round"/>
<path d="M266.696 167.929C266.696 167.929 280.245 189.884 280.583 191.944C280.921 194.005 278.869 197.095 275.268 196.749C271.666 196.403 258.282 196.238 258.282 196.238L258.109 192.975L268.922 191.606L262.403 186.456L266.696 167.929Z" fill="#339999" stroke="#263238" stroke-linecap="round" stroke-linejoin="round"/>
<path d="M268.922 191.606L274.238 194.178" stroke="#263238" stroke-linecap="round" stroke-linejoin="round"/>
<path d="M240.725 159.067L232.468 163.439C228.339 165.625 225.792 167.685 225.548 168.778C225.304 169.871 230.164 204.471 230.164 204.471C230.164 204.471 233.309 207.538 241.574 208.355C253.951 209.566 259.29 205.682 259.29 205.682C259.29 205.682 266.698 169.266 266.698 167.937C266.698 166.608 257.348 162.11 254.077 160.529C250.806 158.949 247.157 157.612 240.725 159.067Z" fill="#339999" stroke="#263238" stroke-linecap="round" stroke-linejoin="round"/>
<path d="M223.117 214.544L237.563 260.711L241.573 260.224L235.62 213.451L223.117 214.544Z" fill="white" stroke="#263238" stroke-linecap="round" stroke-linejoin="round"/>
<path d="M237.562 260.711L238.514 265.988C238.553 266.202 238.672 266.393 238.848 266.522C239.023 266.651 239.242 266.707 239.458 266.68L242.391 266.302C242.514 266.287 242.632 266.245 242.738 266.179C242.843 266.113 242.932 266.025 243 265.921C243.067 265.817 243.111 265.699 243.128 265.576C243.145 265.453 243.135 265.328 243.098 265.209L241.573 260.224L237.562 260.711Z" fill="white" stroke="#263238" stroke-linecap="round" stroke-linejoin="round"/>
<path d="M267.659 214.544L253.214 260.711L249.203 260.224L255.156 213.451L267.659 214.544Z" fill="white" stroke="#263238" stroke-linecap="round" stroke-linejoin="round"/>
<path d="M253.214 260.711L252.239 265.988C252.201 266.202 252.081 266.393 251.906 266.522C251.73 266.651 251.512 266.707 251.296 266.68L248.363 266.302C248.239 266.287 248.121 266.245 248.016 266.179C247.911 266.113 247.821 266.025 247.754 265.921C247.686 265.817 247.642 265.699 247.625 265.576C247.608 265.453 247.618 265.328 247.655 265.209L249.18 260.224L253.214 260.711Z" fill="white" stroke="#263238" stroke-linecap="round" stroke-linejoin="round"/>
<path d="M242.543 209.079C242.543 209.079 229.316 204.951 226.886 206.169C224.457 207.388 222.027 210.534 222.876 214.033C223.725 217.532 231.015 221.802 232.587 221.897C234.16 221.991 242.669 221.897 242.669 221.897L242.543 209.079Z" fill="white" stroke="#263238" stroke-linecap="round" stroke-linejoin="round"/>
<path d="M249.048 209.079C249.048 209.079 262.282 204.951 264.712 206.169C267.142 207.388 269.564 210.534 268.714 214.033C267.865 217.532 260.583 221.802 259.003 221.897C257.422 221.991 248.93 221.897 248.93 221.897L249.048 209.079Z" fill="white" stroke="#263238" stroke-linecap="round" stroke-linejoin="round"/>
<path d="M230.164 204.471C230.164 204.471 229.071 216.605 229.433 218.185C229.794 219.766 233.561 222.314 241.228 222.557C248.895 222.801 258.465 223.163 260.777 220.371C263.089 217.58 259.314 205.682 259.314 205.682C259.314 205.682 238.869 207.381 230.164 204.471Z" fill="white" stroke="#263238" stroke-linecap="round" stroke-linejoin="round"/>
<path d="M229.984 266.129C229.758 266.111 229.548 266.004 229.401 265.832C229.253 265.659 229.18 265.435 229.198 265.209L231.691 219.31L234.553 219.538L230.896 265.351C230.876 265.574 230.77 265.78 230.599 265.926C230.429 266.071 230.208 266.144 229.984 266.129Z" fill="#263238" stroke="#263238" stroke-linecap="round" stroke-linejoin="round"/>
<path d="M260.889 266.129C261.115 266.111 261.325 266.004 261.472 265.832C261.62 265.659 261.693 265.435 261.675 265.209L259.183 219.31L256.32 219.538L259.977 265.351C259.997 265.574 260.104 265.78 260.274 265.926C260.445 266.071 260.665 266.144 260.889 266.129Z" fill="#263238" stroke="#263238" stroke-linecap="round" stroke-linejoin="round"/>
<path d="M263.747 183.176C257.343 184.101 250.882 184.576 244.411 184.6C238.357 184.532 232.315 184.057 226.325 183.176C226.097 183.14 225.864 183.158 225.645 183.229C225.426 183.3 225.227 183.422 225.064 183.584C224.9 183.747 224.778 183.945 224.706 184.164C224.634 184.383 224.615 184.616 224.65 184.843C225.586 190.647 228.22 207.341 228.22 210.534C228.22 214.418 226.883 218.067 226.883 219.765C226.883 221.464 227.607 222.801 228.825 223.28C229.384 223.508 235.745 223.524 244.348 223.477C254.311 223.524 260.673 223.477 261.231 223.28C262.45 222.801 263.173 221.464 263.173 219.765C263.173 218.067 261.844 214.418 261.844 210.534C261.844 207.341 264.479 190.639 265.407 184.843C265.443 184.617 265.425 184.385 265.354 184.167C265.284 183.949 265.163 183.75 265.001 183.588C264.839 183.425 264.641 183.303 264.424 183.232C264.206 183.16 263.974 183.141 263.747 183.176ZM257.519 218.743C257.087 218.908 252.18 218.924 244.505 218.885C237.876 218.924 232.969 218.885 232.537 218.743C232.045 218.499 231.639 218.111 231.372 217.631C231.105 217.15 230.99 216.601 231.043 216.054C231.043 214.756 232.073 211.973 232.073 208.977C232.073 208.285 231.908 206.743 231.648 204.793L234.086 207.427C234.418 207.786 234.821 208.071 235.269 208.266C235.717 208.461 236.2 208.561 236.689 208.56H253.36C254.284 208.558 255.173 208.197 255.837 207.553L258.369 205.076C258.141 206.893 257.991 208.316 257.991 209.008C257.991 211.973 259.014 214.756 259.014 216.085C259.059 216.627 258.942 217.17 258.675 217.644C258.409 218.118 258.006 218.501 257.519 218.743ZM260.736 189.404C260.327 191.921 259.493 197.118 258.856 201.585L256.387 203.087C255.032 203.911 253.475 204.346 251.889 204.345H238.348C236.802 204.346 235.285 203.934 233.952 203.15L231.2 201.53C230.555 197.071 229.73 191.905 229.321 189.404C229.295 189.23 229.311 189.051 229.367 188.884C229.423 188.717 229.518 188.565 229.643 188.441C229.769 188.317 229.922 188.224 230.09 188.17C230.258 188.116 230.436 188.103 230.61 188.13C235.228 188.804 239.886 189.166 244.552 189.216C249.539 189.2 254.518 188.838 259.454 188.13C259.628 188.102 259.806 188.116 259.974 188.17C260.142 188.223 260.294 188.316 260.419 188.441C260.544 188.565 260.638 188.717 260.693 188.884C260.748 189.052 260.763 189.23 260.736 189.404Z" fill="#263238" stroke="#263238" stroke-linecap="round" stroke-linejoin="round"/>
<path d="M232.094 183.405L236.757 200.775L240.39 200.256L236.497 184.183L232.094 183.405Z" fill="#757575" stroke="#263238" stroke-linecap="round" stroke-linejoin="round"/>
<path d="M250.5 199.737L253.873 184.183L258.544 183.656L254.133 200.775L250.5 199.737Z" fill="#757575" stroke="#263238" stroke-linecap="round" stroke-linejoin="round"/>
<path d="M227.722 211.713L233.911 224.633V230.342L227.164 216.337L227.722 211.713Z" fill="#757575" stroke="#263238" stroke-linecap="round" stroke-linejoin="round"/>
<path d="M262.439 211.713L256.258 224.633V230.342L262.997 216.337L262.439 211.713Z" fill="#757575" stroke="#263238" stroke-linecap="round" stroke-linejoin="round"/>
<path d="M251.65 196.372C251.65 196.372 240.5 195.585 237.126 196.631C233.753 197.677 231.944 200.256 232.204 204.408C232.463 208.56 230.128 224.633 230.387 228.785C230.647 232.937 232.204 235.532 238.943 236.829C245.682 238.127 252.688 237.616 256.581 236.043C260.473 234.47 262.329 228.541 259.946 222.298C257.564 216.054 258.161 206.453 257.123 201.79C256.085 197.126 253.467 196.631 251.65 196.372Z" fill="#339999" stroke="#263238" stroke-linecap="round" stroke-linejoin="round"/>
<path d="M257.942 227.637C257.942 227.732 257.761 230.209 257.738 230.303C255.913 237.231 246.139 236.13 240.721 235.226C238.024 234.777 233.982 233.417 232.936 230.507C231.796 227.362 233.274 223.43 233.84 220.246C234.186 218.272 234.383 212.225 236.616 211.218C238.85 210.212 252.406 208.757 254.459 212.854C256.755 217.462 257.124 222.306 257.942 227.637Z" fill="#339999" stroke="#263238" stroke-linecap="round" stroke-linejoin="round"/>
<path d="M247.682 201.176H242.555V204.046H247.682V201.176Z" fill="#263238" stroke="#263238" stroke-linecap="round" stroke-linejoin="round"/>
<path d="M234.56 220.465H256.712C256.763 221.271 256.521 222.068 256.031 222.709C255.541 223.35 254.836 223.794 254.046 223.957C250.735 224.664 247.087 224.531 243.729 224.539C240.717 224.531 234.214 224.979 234.56 220.465Z" fill="#263238" stroke="#263238" stroke-linecap="round" stroke-linejoin="round"/>
<path d="M136.305 212.319L143.822 260.491L147.848 260.735L148.8 213.506L136.305 212.319Z" fill="#339999" stroke="#263238" stroke-linecap="round" stroke-linejoin="round"/>
<path d="M143.82 260.491V265.846C143.82 266.061 143.9 266.269 144.046 266.428C144.192 266.587 144.392 266.685 144.607 266.703L147.563 266.86C147.687 266.865 147.81 266.844 147.925 266.797C148.039 266.75 148.142 266.679 148.227 266.589C148.311 266.498 148.375 266.391 148.414 266.273C148.453 266.156 148.466 266.032 148.452 265.909L147.854 260.734L143.82 260.491Z" fill="white" stroke="#263238" stroke-linecap="round" stroke-linejoin="round"/>
<path d="M165.683 212.437L157.332 260.436L153.306 260.593L153.164 213.357L165.683 212.437Z" fill="#339999" stroke="#263238" stroke-linecap="round" stroke-linejoin="round"/>
<path d="M157.327 260.436L157.232 265.791C157.229 266.003 157.147 266.208 157.002 266.363C156.856 266.519 156.658 266.614 156.446 266.632L153.489 266.726C153.366 266.73 153.243 266.706 153.129 266.657C153.015 266.609 152.913 266.536 152.83 266.444C152.747 266.352 152.685 266.243 152.648 266.125C152.611 266.007 152.601 265.882 152.617 265.759L153.324 260.593L157.327 260.436Z" fill="white" stroke="#263238" stroke-linecap="round" stroke-linejoin="round"/>
<path d="M133.935 165.774C133.935 165.774 121.354 190.151 121 192.227C120.646 194.303 122.722 197.378 126.324 197.032C129.925 196.686 139.298 196.521 139.298 196.521L139.471 193.257L128.667 191.889L135.186 186.739L133.935 165.774Z" fill="white" stroke="#263238" stroke-linecap="round" stroke-linejoin="round"/>
<path d="M128.665 191.889L127.352 194.461" stroke="#263238" stroke-linecap="round" stroke-linejoin="round"/>
<path d="M167.771 165.248C167.771 165.248 180.447 190.175 180.785 192.227C181.124 194.28 179.071 197.378 175.47 197.032C171.868 196.686 163.454 196.521 163.454 196.521L163.281 193.257L169.124 191.889L165.436 186.77L167.771 165.248Z" fill="white" stroke="#263238" stroke-linecap="round" stroke-linejoin="round"/>
<path d="M169.125 191.889L174.441 194.461" stroke="#263238" stroke-linecap="round" stroke-linejoin="round"/>
<path d="M145.89 159.358L137.633 163.722C133.505 165.908 134.173 164.681 133.937 165.774C133.702 166.867 135.329 204.738 135.329 204.738C135.329 204.738 138.475 207.813 146.739 208.623C159.124 209.834 164.464 205.949 164.464 205.949C164.464 205.949 167.609 167.622 167.609 166.285C167.609 164.949 162.498 162.354 159.219 160.781C155.94 159.208 152.322 157.895 145.89 159.358Z" fill="white" stroke="#263238" stroke-linecap="round" stroke-linejoin="round"/>
<path d="M135.328 204.738C135.328 204.738 134.235 216.88 134.597 218.452C134.959 220.025 138.725 222.581 146.392 222.824C154.059 223.068 163.629 223.43 165.933 220.638C168.237 217.847 164.478 205.949 164.478 205.949C164.478 205.949 144.065 207.664 135.328 204.738Z" fill="#339999" stroke="#263238" stroke-linecap="round" stroke-linejoin="round"/>
<path d="M151.579 135.586C151.579 135.586 147.647 133.227 143.495 137.741C139.343 142.255 143.676 151.219 144.211 153.374C144.745 155.528 137.031 167.78 137.031 173.284C137.031 178.789 143.715 184.293 154.284 183.2C164.852 182.107 166.142 176.548 164.703 169.903C163.264 163.258 161.644 156.244 161.644 153.389C161.644 150.535 164.16 144.048 161.825 137.757C159.49 131.466 153.741 133.251 151.579 135.586Z" fill="#263238" stroke="#263238" stroke-linecap="round" stroke-linejoin="round"/>
<path d="M145.843 154.451L150.695 159.122C150.695 159.122 145.663 171.161 145.12 174.393C144.577 177.625 147.479 180.684 151.411 180.322C155.343 179.96 157.883 176.547 157.702 173.677C157.521 170.807 154.643 158.941 154.643 158.941C157.126 157.644 159.231 155.726 160.753 153.374" stroke="#808080" stroke-linecap="round" stroke-linejoin="round"/>
<path d="M150.695 159.13C150.695 159.13 150.876 157.871 154.627 158.949" stroke="#263238" stroke-linecap="round" stroke-linejoin="round"/>
<path d="M135.148 266.412C134.923 266.394 134.714 266.288 134.567 266.118C134.42 265.947 134.346 265.725 134.361 265.5L136.854 219.593L139.716 219.829L136.06 265.634C136.042 265.858 135.936 266.066 135.765 266.212C135.594 266.357 135.372 266.43 135.148 266.412Z" fill="#263238" stroke="#263238" stroke-linecap="round" stroke-linejoin="round"/>
<path d="M166.014 266.412C166.126 266.404 166.235 266.374 166.335 266.324C166.435 266.274 166.524 266.204 166.597 266.12C166.67 266.035 166.725 265.937 166.76 265.83C166.795 265.724 166.809 265.612 166.8 265.5L164.315 219.593L161.453 219.829L165.11 265.634C165.128 265.856 165.233 266.063 165.402 266.209C165.571 266.354 165.791 266.427 166.014 266.412Z" fill="#263238" stroke="#263238" stroke-linecap="round" stroke-linejoin="round"/>
<path d="M168.944 183.46C162.542 184.384 156.083 184.859 149.615 184.883C143.561 184.819 137.518 184.344 131.529 183.46C131.301 183.424 131.069 183.444 130.85 183.516C130.631 183.588 130.432 183.71 130.27 183.873C130.107 184.037 129.986 184.236 129.915 184.455C129.844 184.674 129.826 184.907 129.862 185.134C130.79 190.93 133.424 207.624 133.424 210.825C133.424 214.709 132.087 218.35 132.087 220.049C132.087 221.747 132.819 223.084 134.03 223.571C134.588 223.792 140.949 223.807 149.552 223.76C159.515 223.807 165.877 223.76 166.443 223.571C167.654 223.084 168.385 221.747 168.385 220.049C168.385 218.35 167.049 214.709 167.049 210.825C167.049 207.624 169.683 190.93 170.611 185.134C170.649 184.907 170.632 184.673 170.562 184.453C170.491 184.233 170.37 184.033 170.207 183.869C170.044 183.706 169.844 183.583 169.625 183.512C169.405 183.441 169.172 183.423 168.944 183.46ZM162.716 219.026C162.283 219.199 157.376 219.207 149.702 219.176C143.073 219.176 138.166 219.176 137.733 219.026C137.241 218.782 136.835 218.394 136.568 217.914C136.301 217.434 136.187 216.884 136.239 216.337C136.239 215.04 137.269 212.264 137.269 209.299C137.269 208.599 137.104 207.058 136.853 205.116L139.282 207.742C139.614 208.101 140.017 208.388 140.465 208.584C140.913 208.781 141.396 208.882 141.885 208.882H158.556C159.475 208.884 160.359 208.526 161.017 207.884L163.549 205.415C163.321 207.223 163.172 208.646 163.172 209.346C163.172 212.311 164.202 215.087 164.202 216.384C164.245 216.922 164.127 217.462 163.862 217.932C163.598 218.403 163.198 218.784 162.716 219.026ZM165.932 189.687C165.523 192.204 164.697 197.402 164.053 201.868L161.591 203.37C160.234 204.198 158.675 204.636 157.085 204.636H143.544C141.998 204.635 140.48 204.22 139.149 203.433L136.396 201.813C135.752 197.362 134.926 192.196 134.525 189.687C134.497 189.513 134.512 189.334 134.567 189.165C134.623 188.997 134.717 188.845 134.843 188.72C134.969 188.596 135.123 188.503 135.292 188.45C135.461 188.396 135.64 188.384 135.815 188.414C140.43 189.09 145.085 189.455 149.749 189.507C154.748 189.486 159.74 189.121 164.689 188.414C164.86 188.392 165.034 188.411 165.197 188.468C165.359 188.525 165.507 188.619 165.627 188.742C165.747 188.865 165.838 189.015 165.89 189.179C165.943 189.343 165.957 189.517 165.932 189.687Z" fill="#263238" stroke="#263238" stroke-linecap="round" stroke-linejoin="round"/>
<path d="M73.7812 158.635V152.084H83.1231V159.122L73.7812 158.635Z" fill="white" stroke="#263238" stroke-linecap="round" stroke-linejoin="round"/>
<path d="M69.1657 143.71C69.1657 143.71 67.7109 143.34 67.7109 145.652C67.7109 147.964 69.6532 149.529 70.3767 149.411C71.1001 149.293 70.015 144.921 69.897 144.071C69.7791 143.222 69.1657 143.71 69.1657 143.71Z" fill="white" stroke="#263238" stroke-linecap="round" stroke-linejoin="round"/>
<path d="M87.3829 143.71C87.3829 143.71 88.8455 143.34 88.8455 145.652C88.8455 147.964 86.9032 149.529 86.1719 149.411C85.4406 149.293 86.5337 144.921 86.6595 144.071C86.7853 143.222 87.3829 143.71 87.3829 143.71Z" fill="white" stroke="#263238" stroke-linecap="round" stroke-linejoin="round"/>
<path d="M75.5994 132.174C75.5994 132.174 71.4711 132.779 69.7725 136.42C68.074 140.061 69.2929 145.164 69.8984 148.074C70.5038 150.983 72.9337 153.783 74.7502 154.365C76.5666 154.947 82.1576 154.365 82.1576 154.365C83.5453 152.963 84.731 151.375 85.6805 149.647C87.379 146.611 87.6228 140.902 86.8915 137.631C86.1602 134.36 83.6124 131.073 81.6701 130.829C79.7278 130.585 77.9113 132.402 77.9113 132.402C77.1903 132.06 76.3732 131.98 75.5994 132.174Z" fill="#263238" stroke="#263238" stroke-linecap="round" stroke-linejoin="round"/>
<path d="M84.4588 157.424C84.4588 157.424 77.3816 156.331 74.2362 156.818C71.0908 157.306 69.1406 161.182 69.1406 161.182C71.6941 160.421 74.3399 160.014 77.0042 159.971C80.291 160.046 83.5719 160.29 86.8336 160.703C86.25 159.473 85.4449 158.362 84.4588 157.424Z" fill="white" stroke="#263238" stroke-linecap="round" stroke-linejoin="round"/>
<path d="M57.883 168.952C57.883 168.952 44.5071 190.065 44.169 192.157C43.8309 194.249 45.8832 197.308 49.4847 196.962C53.0862 196.616 66.47 196.45 66.47 196.45L66.6351 193.187L55.8306 191.819L62.3495 186.652L57.883 168.952Z" fill="white" stroke="#263238" stroke-linecap="round" stroke-linejoin="round"/>
<path d="M55.8314 191.779L50.5156 194.351" stroke="#263238" stroke-linecap="round" stroke-linejoin="round"/>
<path d="M99.0323 168.103C99.0323 168.103 112.573 190.065 112.919 192.118C113.265 194.17 111.205 197.268 107.596 196.922C103.986 196.576 90.6183 196.411 90.6183 196.411L90.4453 193.148L101.258 191.78L94.7309 186.653L99.0323 168.103Z" fill="white" stroke="#263238" stroke-linecap="round" stroke-linejoin="round"/>
<path d="M101.25 191.779L106.574 194.351" stroke="#263238" stroke-linecap="round" stroke-linejoin="round"/>
<path d="M73.0521 159.24L64.7954 163.612C60.6749 165.798 58.1193 167.858 57.8833 168.952C57.6474 170.045 62.4914 204.644 62.4914 204.644C62.4914 204.644 65.6368 207.711 73.9014 208.529C86.2865 209.74 91.6258 205.855 91.6258 205.855C91.6258 205.855 99.0332 169.439 99.0332 168.11C99.0332 166.781 89.6835 162.275 86.4044 160.703C83.1253 159.13 79.4845 157.785 73.0521 159.24Z" fill="white" stroke="#263238" stroke-linecap="round" stroke-linejoin="round"/>
<path d="M55.4531 214.718L69.8984 260.884L73.901 260.405L67.9562 213.625L55.4531 214.718Z" fill="#339999" stroke="#263238" stroke-linecap="round" stroke-linejoin="round"/>
<path d="M69.8984 260.884L70.8421 266.161C70.8824 266.376 71.0034 266.567 71.1803 266.696C71.3572 266.825 71.5766 266.881 71.7935 266.853L74.7267 266.475C74.8492 266.459 74.9667 266.416 75.071 266.35C75.1752 266.284 75.2638 266.196 75.3304 266.091C75.3971 265.987 75.4402 265.87 75.4568 265.748C75.4734 265.625 75.463 265.5 75.4265 265.382L73.901 260.405L69.8984 260.884Z" fill="white" stroke="#263238" stroke-linecap="round" stroke-linejoin="round"/>
<path d="M99.9869 214.718L85.5416 260.884L81.5391 260.405L87.4839 213.625L99.9869 214.718Z" fill="#339999" stroke="#263238" stroke-linecap="round" stroke-linejoin="round"/>
<path d="M85.5348 260.884L84.5912 266.161C84.5508 266.376 84.4298 266.567 84.2529 266.696C84.076 266.825 83.8566 266.881 83.6397 266.853L80.7066 266.475C80.5841 266.459 80.4666 266.416 80.3623 266.35C80.258 266.284 80.1694 266.196 80.1028 266.091C80.0362 265.987 79.993 265.87 79.9764 265.748C79.9598 265.625 79.9702 265.5 80.0067 265.382L81.5323 260.405L85.5348 260.884Z" fill="white" stroke="#263238" stroke-linecap="round" stroke-linejoin="round"/>
<path d="M74.8791 209.252C74.8791 209.252 61.6447 205.132 59.2149 206.311C56.7851 207.491 54.3631 210.684 55.2124 214.175C56.0616 217.666 63.3433 221.944 64.9238 222.038C66.5044 222.133 74.997 222.038 74.997 222.038L74.8791 209.252Z" fill="#339999" stroke="#263238" stroke-linecap="round" stroke-linejoin="round"/>
<path d="M81.3758 209.252C81.3758 209.252 94.6023 205.132 97.0321 206.343C99.462 207.554 101.892 210.715 101.035 214.206C100.178 217.698 92.9038 221.976 91.3232 222.07C89.7426 222.164 81.25 222.07 81.25 222.07L81.3758 209.252Z" fill="#339999" stroke="#263238" stroke-linecap="round" stroke-linejoin="round"/>
<path d="M62.4922 204.644C62.4922 204.644 61.3992 216.785 61.7609 218.358C62.1226 219.931 65.8892 222.486 73.5562 222.73C81.2232 222.974 90.7931 223.336 93.0971 220.544C95.4011 217.753 91.6423 205.855 91.6423 205.855C91.6423 205.855 71.2365 207.554 62.4922 204.644Z" fill="#339999" stroke="#263238" stroke-linecap="round" stroke-linejoin="round"/>
<path d="M62.3201 266.302C62.2085 266.294 62.0995 266.265 61.9995 266.214C61.8995 266.164 61.8103 266.095 61.7373 266.01C61.6642 265.925 61.6086 265.827 61.5737 265.72C61.5387 265.614 61.5252 265.502 61.5337 265.39L64.0186 219.483L66.8809 219.719L63.2323 265.524C63.2142 265.748 63.1081 265.956 62.9371 266.102C62.7661 266.248 62.5442 266.32 62.3201 266.302Z" fill="#263238" stroke="#263238" stroke-linecap="round" stroke-linejoin="round"/>
<path d="M93.178 266.302C93.2897 266.294 93.3986 266.265 93.4987 266.214C93.5987 266.164 93.6878 266.095 93.7609 266.01C93.8339 265.925 93.8895 265.827 93.9245 265.72C93.9594 265.614 93.973 265.502 93.9644 265.39L91.4795 219.483L88.6172 219.719L92.2737 265.524C92.2918 265.747 92.3969 265.953 92.5661 266.099C92.7354 266.244 92.9552 266.318 93.178 266.302Z" fill="#263238" stroke="#263238" stroke-linecap="round" stroke-linejoin="round"/>
<path d="M96.0846 183.35C89.6801 184.274 83.2189 184.75 76.7481 184.773C70.6943 184.706 64.6518 184.231 58.662 183.35C58.4337 183.313 58.2001 183.332 57.9803 183.403C57.7604 183.474 57.5606 183.597 57.3971 183.76C57.2337 183.923 57.1113 184.123 57.0401 184.343C56.9688 184.563 56.9506 184.797 56.987 185.025C57.9149 190.82 60.5492 207.515 60.5492 210.715C60.5492 214.6 59.2124 218.24 59.2124 219.939C59.2124 221.637 59.9437 222.974 61.1547 223.462C61.7209 223.682 68.0825 223.698 76.6852 223.65C86.6405 223.698 93.0099 223.65 93.5682 223.462C94.7792 222.974 95.5105 221.637 95.5105 219.939C95.5105 218.24 94.1737 214.6 94.1737 210.715C94.1737 207.515 96.808 190.812 97.7359 185.017C97.7735 184.791 97.757 184.559 97.6875 184.341C97.6181 184.123 97.4979 183.924 97.3366 183.761C97.1754 183.598 96.9778 183.476 96.7601 183.405C96.5424 183.333 96.3109 183.314 96.0846 183.35ZM89.8566 218.893C89.4241 219.058 84.5173 219.074 76.8346 219.042C70.2057 219.042 65.3067 219.042 64.8742 218.893C64.3807 218.65 63.9728 218.263 63.7045 217.782C63.4363 217.302 63.3204 216.751 63.3722 216.204C63.3722 214.906 64.4024 212.13 64.4024 209.166C64.4024 208.466 64.2372 206.925 63.9856 204.982L66.4154 207.609C66.7478 207.967 67.1504 208.254 67.5982 208.45C68.046 208.646 68.5294 208.748 69.0183 208.749H85.689C86.6161 208.751 87.5064 208.386 88.166 207.735L90.7059 205.266C90.47 207.074 90.3206 208.497 90.3206 209.197C90.3206 212.162 91.3507 214.938 91.3507 216.235C91.3967 216.777 91.2788 217.32 91.0124 217.794C90.746 218.268 90.3433 218.651 89.8566 218.893ZM93.065 189.554C92.6639 192.071 91.8304 197.268 91.1856 201.735L88.7243 203.237C87.3664 204.062 85.8075 204.497 84.2185 204.495H70.6775C69.1344 204.495 67.6194 204.082 66.2896 203.3L63.5138 201.703C62.8768 197.245 62.0512 192.086 61.6423 189.578C61.6166 189.403 61.6324 189.225 61.6884 189.058C61.7444 188.89 61.839 188.738 61.9646 188.614C62.0901 188.49 62.2431 188.398 62.4112 188.344C62.5792 188.29 62.7576 188.276 62.9319 188.304C67.5523 188.978 72.2128 189.34 76.8818 189.389C81.8812 189.375 86.8735 189.012 91.8225 188.304C91.9935 188.283 92.1672 188.301 92.3298 188.358C92.4925 188.415 92.6398 188.509 92.7601 188.632C92.8805 188.756 92.9706 188.905 93.0235 189.069C93.0764 189.233 93.0906 189.407 93.065 189.578V189.554Z" fill="#263238" stroke="#263238" stroke-linecap="round" stroke-linejoin="round"/>
<path d="M0.601562 266.86H369.402" stroke="#263238" stroke-linecap="round" stroke-linejoin="round"/>
</svg>
