<svg width="170" height="33" viewBox="0 0 170 33" fill="none" xmlns="http://www.w3.org/2000/svg">
<g clip-path="url(#clip0_483_1294)">
<path d="M17.0607 4.9312C12.9244 2.54539 8.48671 1.10577 4.1875 0.754883V25.2171C8.48629 25.5583 12.9161 26.9585 17.0607 29.2831V4.9312Z" fill="#008080"/>
<path d="M16.92 30.5483C17.2576 30.6649 17.6129 30.6699 17.9505 30.5533C22.7842 28.4392 27.8463 27.4875 32.7945 27.7068V3.48775C32.3491 3.46762 31.9009 3.46301 31.451 3.46469V25.9326L31.0977 25.9561C26.6724 26.2483 22.0863 27.7072 17.8198 30.1685C17.5735 30.2536 17.3069 30.2536 17.061 30.1685C12.7941 27.7072 8.20841 26.2483 3.78315 25.9561L3.42902 25.9326V3.46469C2.97953 3.46301 2.53087 3.4672 2.08594 3.48775V27.7068C7.03367 27.4871 12.0851 28.4342 16.92 30.5483Z" fill="#008080"/>
<path d="M34.8955 6.20636C34.4518 6.14389 34.0011 6.11078 33.5533 6.06592V28.5154L33.1519 28.4919C28.0951 28.1989 22.7605 29.2369 17.8198 31.4538L17.4399 31.6135L17.0605 31.4538C12.119 29.2369 6.78482 28.1985 1.72802 28.4919L1.32705 28.5154V6.06592C0.878799 6.11119 0.428062 6.14431 -0.015625 6.20636V30.8178C0.230684 30.9465 0.417281 31.1314 0.417281 31.1314C5.78756 30.3977 11.3614 30.4875 16.6637 32.2427C16.9075 32.2184 17.1663 32.2029 17.4404 32.2029C17.7145 32.2029 17.9732 32.2184 18.2166 32.2427C23.518 30.487 29.0928 30.3977 34.4626 31.1314C34.4626 31.1314 34.6592 30.9377 34.8955 30.8178V6.20636Z" fill="#008080"/>
<path d="M23.577 2.29008V10.9366L21.9267 8.95031L20.1872 10.9366V3.68485C19.3894 4.06634 18.5995 4.48179 17.8203 4.93162V29.2831C21.964 26.9585 26.3951 25.5583 30.6935 25.2171V0.754883C28.3386 0.947307 25.9423 1.46798 23.577 2.29008Z" fill="#008080"/>
<path d="M51.9151 19.1003H55.673V21.831C55.673 23.4695 54.3578 24.7993 52.7371 24.7993H46.9828C45.3622 24.7993 44.0469 23.4695 44.0469 21.831V11.1455C44.0469 9.50701 45.3622 8.17725 46.9828 8.17725H52.7371C54.3578 8.17725 55.673 9.50701 55.673 11.1455V13.8762H51.9151V12.0003H47.8048V20.9999H51.9151V19.1003ZM62.8132 8.17725V20.9999H68.8729V24.7993H59.0552V8.17725H62.8132ZM80.5695 8.17725L85.1495 24.7993H81.3916L80.7339 22.4009H76.6706L76.013 24.7993H72.255L76.835 8.17725H80.5695ZM77.7275 18.5304H79.677L78.6905 14.9923L77.7275 18.5304ZM95.6013 14.5886C97.2219 14.5886 98.5372 15.9184 98.5372 17.5568V21.8548C98.5372 23.4932 97.2219 24.7993 95.6013 24.7993H88.1794V20.9999H94.7558V18.4117H91.0918C89.4712 18.4117 88.1794 17.0819 88.1794 15.4434V11.1455C88.1794 9.50701 89.4946 8.17725 91.0918 8.17725H98.5372V12.0003H91.9373V14.5886H95.6013ZM109.341 14.5886C110.962 14.5886 112.277 15.9184 112.277 17.5568V21.8548C112.277 23.4932 110.962 24.7993 109.341 24.7993H101.919V20.9999H108.496V18.4117H104.832C103.211 18.4117 101.919 17.0819 101.919 15.4434V11.1455C101.919 9.50701 103.235 8.17725 104.832 8.17725H112.277V12.0003H105.677V14.5886H109.341ZM125.994 12.0003H119.417V14.5886H124.138V18.3879H119.417V20.9999H125.994V24.7993H115.659V8.17725H125.994V12.0003ZM137.244 8.17725H141.002V24.7993H137.244L133.134 16.1558V24.7993H129.376V8.17725H133.134L137.244 16.8444V8.17725ZM152.252 19.1003H156.01V21.831C156.01 23.4695 154.695 24.7993 153.075 24.7993H147.32C145.7 24.7993 144.384 23.4695 144.384 21.831V11.1455C144.384 9.50701 145.7 8.17725 147.32 8.17725H153.075C154.695 8.17725 156.01 9.50701 156.01 11.1455V13.8762H152.252V12.0003H148.142V20.9999H152.252V19.1003ZM169.727 12.0003H163.151V14.5886H167.871V18.3879H163.151V20.9999H169.727V24.7993H159.393V8.17725H169.727V12.0003Z" fill="#008080"/>
</g>
<defs>
<clipPath id="clip0_483_1294">
<rect width="169.728" height="31.488" fill="white" transform="translate(0 0.756348)"/>
</clipPath>
</defs>
</svg>
