<svg width="410" height="306" viewBox="0 0 410 306" fill="none" xmlns="http://www.w3.org/2000/svg">
<path d="M410 268.468H0V268.673H410V268.468Z" fill="#EBEBEB"/>
<path d="M368.918 281.662H341.76V281.867H368.918V281.662Z" fill="#EBEBEB"/>
<path d="M271.6 283.892H264.475V284.097H271.6V283.892Z" fill="#EBEBEB"/>
<path d="M340.939 274.052H325.203V274.257H340.939V274.052Z" fill="#EBEBEB"/>
<path d="M78.4334 275.43H43.0176V275.635H78.4334V275.43Z" fill="#EBEBEB"/>
<path d="M90.9289 275.43H85.7383V275.635H90.9289V275.43Z" fill="#EBEBEB"/>
<path d="M184.622 278.89H107.805V279.095H184.622V278.89Z" fill="#EBEBEB"/>
<path d="M194.34 231.896H36.006C34.7657 231.894 33.5768 231.4 32.7005 230.522C31.8242 229.644 31.332 228.454 31.332 227.214V4.6412C31.3428 3.40794 31.8398 2.22874 32.7149 1.35974C33.5901 0.490736 34.7727 0.00211264 36.006 0H194.34C195.582 0 196.773 0.493302 197.651 1.37138C198.529 2.24947 199.022 3.4404 199.022 4.6822V227.214C199.022 228.456 198.529 229.647 197.651 230.525C196.773 231.403 195.582 231.896 194.34 231.896ZM36.006 0.164001C34.82 0.166173 33.6833 0.638833 32.8455 1.47824C32.0076 2.31764 31.537 3.45519 31.537 4.6412V227.214C31.537 228.4 32.0076 229.537 32.8455 230.377C33.6833 231.216 34.82 231.689 36.006 231.691H194.34C195.527 231.689 196.664 231.216 197.503 230.377C198.342 229.538 198.815 228.401 198.817 227.214V4.6412C198.815 3.45444 198.342 2.3169 197.503 1.47774C196.664 0.638567 195.527 0.166168 194.34 0.164001H36.006Z" fill="#EBEBEB"/>
<path d="M371.714 231.896H213.372C212.131 231.894 210.941 231.4 210.063 230.522C209.186 229.645 208.692 228.455 208.689 227.214V4.6412C208.702 3.40719 209.201 2.228 210.078 1.35923C210.954 0.490449 212.138 0.0020896 213.372 0H371.714C372.946 0.00426769 374.126 0.493844 374.999 1.36262C375.873 2.23139 376.369 3.40936 376.379 4.6412V227.214C376.379 228.453 375.888 229.641 375.014 230.519C374.139 231.396 372.953 231.892 371.714 231.896ZM213.372 0.164001C212.185 0.166168 211.047 0.638567 210.208 1.47774C209.369 2.3169 208.897 3.45444 208.894 4.6412V227.214C208.897 228.401 209.369 229.538 210.208 230.377C211.047 231.216 212.185 231.689 213.372 231.691H371.714C372.9 231.689 374.038 231.216 374.877 230.377C375.716 229.538 376.189 228.401 376.191 227.214V4.6412C376.189 3.45444 375.716 2.3169 374.877 1.47774C374.038 0.638567 372.9 0.166168 371.714 0.164001H213.372Z" fill="#EBEBEB"/>
<path d="M219.579 268.468H248.361V161.269H219.579V268.468Z" fill="#E6E6E6"/>
<path d="M224.369 268.468H219.58V258.816H229.395L224.369 268.468Z" fill="#F0F0F0"/>
<path d="M336.724 268.468H365.506V161.269H336.724V268.468Z" fill="#E6E6E6"/>
<path d="M219.579 264.762H340.906V161.27H219.579V264.762Z" fill="#F0F0F0"/>
<path d="M223.302 194.233H337.191V165.853H223.302V194.233Z" fill="#E6E6E6"/>
<path d="M274.863 174.66H285.622C290.296 174.66 294.765 171.158 297.979 164.976H262.506C265.72 171.175 270.189 174.66 274.863 174.66Z" fill="#F0F0F0"/>
<path d="M336.118 268.468H340.907V258.816H331.092L336.118 268.468Z" fill="#F0F0F0"/>
<path d="M223.302 227.206H337.191V198.825H223.302V227.206Z" fill="#E6E6E6"/>
<path d="M274.863 207.64H285.622C290.296 207.64 294.765 204.139 297.979 197.956H262.506C265.72 204.18 270.189 207.64 274.863 207.64Z" fill="#F0F0F0"/>
<path d="M223.302 260.178H337.191V231.798H223.302V260.178Z" fill="#E6E6E6"/>
<path d="M274.863 240.612H285.622C290.296 240.612 294.765 237.111 297.979 230.928H262.506C265.72 237.111 270.189 240.612 274.863 240.612Z" fill="#F0F0F0"/>
<path d="M63.9524 136.957H173.865V25.7399L63.9524 25.7399L63.9524 136.957Z" fill="#E6E6E6"/>
<path d="M56.3182 136.957H171.84V25.7399L56.3182 25.7399L56.3182 136.957Z" fill="#F0F0F0"/>
<path d="M162.172 127.281V35.416L66.0105 35.416V127.281H162.172Z" fill="white"/>
<path d="M113.423 47.5601L95.7762 65.2393C91.5119 69.5143 89.1172 75.3059 89.1172 81.3441C89.1172 87.3822 91.5119 93.1739 95.7762 97.4489L113.423 115.103C113.509 115.19 113.611 115.258 113.723 115.305C113.836 115.352 113.957 115.376 114.079 115.376C114.2 115.376 114.321 115.352 114.434 115.305C114.546 115.258 114.649 115.19 114.735 115.103L132.389 97.4489C136.653 93.1739 139.048 87.3822 139.048 81.3441C139.048 75.3059 136.653 69.5143 132.389 65.2393L114.743 47.5601C114.567 47.3873 114.33 47.2905 114.083 47.2905C113.836 47.2905 113.599 47.3873 113.423 47.5601ZM97.0882 96.1041C93.1729 92.1782 90.9743 86.8599 90.9743 81.3154C90.9743 75.7709 93.1729 70.4526 97.0882 66.5267V96.1041ZM131.077 96.1041V66.5595C134.992 70.4854 137.191 75.8037 137.191 81.3482C137.191 86.8927 134.992 92.211 131.077 96.1369V96.1041Z" fill="#F0F0F0"/>
<path d="M333.616 123H272.206L268.705 159.26H330.115L333.616 123Z" fill="#E6E6E6"/>
<path d="M330.115 159.26L329.869 161.269H268.451L268.705 159.26H330.115Z" fill="#E6E6E6"/>
<path d="M331.732 123H270.322L266.812 159.26H328.222L331.732 123Z" fill="#F0F0F0"/>
<path d="M326.984 156.899L329.55 125.46C329.557 125.356 329.542 125.251 329.507 125.152C329.472 125.053 329.417 124.963 329.346 124.886C329.274 124.809 329.188 124.748 329.092 124.706C328.996 124.663 328.893 124.641 328.788 124.64H272.331C272.137 124.639 271.95 124.712 271.808 124.842C271.665 124.973 271.576 125.152 271.56 125.345L268.961 156.776C268.954 156.881 268.969 156.987 269.004 157.086C269.04 157.185 269.096 157.276 269.168 157.353C269.24 157.43 269.328 157.491 269.425 157.533C269.521 157.575 269.626 157.596 269.731 157.596H326.188C326.385 157.605 326.578 157.538 326.727 157.408C326.875 157.278 326.967 157.095 326.984 156.899Z" fill="white"/>
<path d="M312.223 159.26L311.977 161.269H244.352L244.598 159.26H312.223Z" fill="#F0F0F0"/>
<path d="M229.674 103.615L344.99 103.615V26.9534L229.674 26.9534V103.615Z" fill="#E6E6E6"/>
<path d="M227.115 103.615L342.432 103.615V26.9534L227.115 26.9534V103.615Z" fill="#F5F5F5"/>
<path d="M337.832 98.4491V32.1274L231.716 32.1274V98.4491H337.832Z" fill="white"/>
<path d="M233.643 98.4412V32.1196H231.707V98.4412H233.643Z" fill="#E6E6E6"/>
<path d="M229.018 89.6504L340.529 89.6504V82.7132L229.018 82.7132V89.6504Z" fill="#F5F5F5"/>
<path d="M222.096 18.4092H350.016C350.203 18.4113 350.381 18.4863 350.512 18.6181C350.644 18.7499 350.719 18.928 350.721 19.1144C350.721 19.3014 350.647 19.4808 350.515 19.613C350.383 19.7453 350.203 19.8196 350.016 19.8196H222.096C222.003 19.8207 221.91 19.8032 221.824 19.7683C221.737 19.7333 221.659 19.6815 221.592 19.616C221.526 19.5504 221.473 19.4723 221.437 19.3862C221.401 19.3001 221.383 19.2077 221.383 19.1144C221.385 18.9266 221.461 18.7472 221.595 18.6152C221.728 18.4832 221.908 18.4092 222.096 18.4092Z" fill="#E6E6E6"/>
<path d="M219.621 19.114C219.621 19.4639 219.725 19.8061 219.919 20.0972C220.113 20.3883 220.389 20.6153 220.713 20.7496C221.036 20.8839 221.392 20.9194 221.735 20.8517C222.078 20.7841 222.394 20.6162 222.642 20.3693C222.89 20.1224 223.059 19.8076 223.128 19.4645C223.198 19.1215 223.164 18.7656 223.031 18.4418C222.898 18.1181 222.672 17.8409 222.382 17.6453C222.092 17.4497 221.75 17.3444 221.401 17.3428C221.167 17.3417 220.936 17.3867 220.72 17.4753C220.504 17.5638 220.308 17.6941 220.143 17.8587C219.977 18.0232 219.846 18.2189 219.757 18.4343C219.667 18.6497 219.621 18.8807 219.621 19.114Z" fill="#E6E6E6"/>
<path d="M344.031 23.0828C344.283 23.0828 344.525 22.984 344.704 22.8076C344.883 22.6312 344.986 22.3914 344.991 22.1398V20.0898C344.991 19.8353 344.89 19.5913 344.71 19.4114C344.53 19.2314 344.286 19.1304 344.031 19.1304C343.906 19.1304 343.781 19.1552 343.665 19.2035C343.549 19.2519 343.444 19.3227 343.356 19.4119C343.267 19.5011 343.197 19.6069 343.15 19.7232C343.103 19.8396 343.079 19.9642 343.08 20.0898V22.1398C343.084 22.39 343.186 22.6286 343.364 22.8047C343.542 22.9809 343.781 23.0807 344.031 23.0828Z" fill="#E6E6E6"/>
<path d="M232.773 23.0828C233.018 23.0724 233.25 22.9693 233.423 22.7942C233.595 22.6191 233.694 22.3852 233.7 22.1398V20.0898C233.7 19.8353 233.599 19.5913 233.419 19.4114C233.239 19.2314 232.995 19.1304 232.74 19.1304C232.615 19.1304 232.49 19.1552 232.374 19.2035C232.258 19.2519 232.153 19.3227 232.065 19.4119C231.976 19.5011 231.906 19.6069 231.859 19.7232C231.812 19.8396 231.788 19.9642 231.789 20.0898V22.1398C231.791 22.2665 231.818 22.3915 231.869 22.5076C231.92 22.6238 231.993 22.7287 232.085 22.8164C232.176 22.904 232.284 22.9727 232.402 23.0185C232.52 23.0642 232.646 23.086 232.773 23.0828Z" fill="#E6E6E6"/>
<path opacity="0.4" d="M222.326 93.5947L340.529 93.5947V19.1141L222.326 19.1141V93.5947Z" fill="#E0E0E0"/>
<path d="M330.879 19.114C330.879 19.4643 330.983 19.8067 331.177 20.098C331.372 20.3893 331.649 20.6163 331.972 20.7503C332.296 20.8844 332.652 20.9195 332.996 20.8511C333.339 20.7828 333.655 20.6141 333.903 20.3664C334.15 20.1187 334.319 19.8031 334.387 19.4595C334.456 19.1159 334.421 18.7598 334.286 18.4362C334.152 18.1125 333.925 17.8359 333.634 17.6413C333.343 17.4466 333 17.3428 332.65 17.3428C332.18 17.3428 331.73 17.5294 331.398 17.8615C331.065 18.1937 330.879 18.6442 330.879 19.114Z" fill="#E6E6E6"/>
<path d="M163.589 263.154H173.068V180.933H163.589V263.154Z" fill="#F0F0F0"/>
<path d="M60.7613 268.361H169.428V263.154H60.7613V268.361Z" fill="#F0F0F0"/>
<path d="M163.59 180.933H57.1211V263.155H163.59V180.933Z" fill="#F5F5F5"/>
<path d="M150.297 191.052H70.4126C67.1882 191.052 64.5742 193.666 64.5742 196.89V212.175C64.5742 215.399 67.1882 218.013 70.4126 218.013H150.297C153.521 218.013 156.135 215.399 156.135 212.175V196.89C156.135 193.666 153.521 191.052 150.297 191.052Z" fill="#F0F0F0"/>
<path d="M150.297 226.066H70.4126C67.1882 226.066 64.5742 228.68 64.5742 231.904V247.189C64.5742 250.414 67.1882 253.028 70.4126 253.028H150.297C153.521 253.028 156.135 250.414 156.135 247.189V231.904C156.135 228.68 153.521 226.066 150.297 226.066Z" fill="#F0F0F0"/>
<path d="M90.5192 206.386H130.191C130.681 206.386 131.151 206.192 131.498 205.846C131.846 205.5 132.042 205.031 132.044 204.541C132.042 204.05 131.846 203.58 131.499 203.233C131.152 202.886 130.682 202.69 130.191 202.688H90.5192C90.0284 202.69 89.5583 202.886 89.2112 203.233C88.8641 203.58 88.6682 204.05 88.666 204.541C88.6682 205.031 88.8644 205.5 89.2117 205.846C89.559 206.192 90.0291 206.386 90.5192 206.386Z" fill="#F5F5F5"/>
<path d="M90.5192 241.4H130.191C130.681 241.4 131.151 241.206 131.498 240.86C131.846 240.514 132.042 240.045 132.044 239.555C132.042 239.064 131.846 238.594 131.499 238.247C131.152 237.9 130.682 237.704 130.191 237.702H90.5192C90.0284 237.704 89.5583 237.9 89.2112 238.247C88.8641 238.594 88.6682 239.064 88.666 239.555C88.6682 240.045 88.8644 240.514 89.2117 240.86C89.559 241.206 90.0291 241.4 90.5192 241.4Z" fill="#F5F5F5"/>
<path d="M205 305.499C292.807 305.499 363.989 301.343 363.989 296.217C363.989 291.09 292.807 286.935 205 286.935C117.192 286.935 46.0098 291.09 46.0098 296.217C46.0098 301.343 117.192 305.499 205 305.499Z" fill="#F5F5F5"/>
<path d="M240.138 38.0889H88.6016L100.377 244.458H251.905L240.138 38.0889Z" fill="#263238"/>
<path d="M243.081 38.0889H91.5449L103.32 244.458H254.856L243.081 38.0889Z" fill="#008080"/>
<path opacity="0.5" d="M232.643 45.0259H98.4746L108.093 231.83H245.747L232.643 45.0259Z" fill="black"/>
<path d="M98.4746 45.0259C108.446 107.297 101.607 169.567 111.595 231.83H249.232C239.26 169.567 246.099 107.297 236.112 45.0259H98.4746Z" fill="white"/>
<g opacity="0.3">
<path d="M126.617 100.999C129.657 101.023 132.571 102.213 134.759 104.323C136.947 106.434 138.242 109.303 138.376 112.34C138.437 113.8 138.201 115.258 137.681 116.625C137.16 117.991 136.368 119.237 135.35 120.288C134.333 121.338 133.113 122.17 131.764 122.734C130.415 123.297 128.965 123.58 127.503 123.565C124.482 123.54 121.587 122.354 119.417 120.252C117.248 118.149 115.971 115.293 115.851 112.274C115.788 110.818 116.019 109.363 116.53 107.998C117.041 106.633 117.823 105.385 118.827 104.328C119.835 103.281 121.046 102.45 122.385 101.887C123.724 101.323 125.164 101.037 126.617 101.048M126.535 98.6785C124.768 98.6674 123.017 99.017 121.389 99.7058C119.761 100.395 118.291 101.408 117.068 102.685C115.846 103.961 114.896 105.473 114.278 107.129C113.66 108.785 113.386 110.55 113.473 112.315C113.616 115.96 115.157 119.409 117.775 121.948C120.393 124.487 123.889 125.921 127.536 125.952C129.311 125.966 131.071 125.621 132.709 124.935C134.347 124.25 135.829 123.239 137.065 121.964C138.301 120.689 139.265 119.176 139.899 117.518C140.533 115.859 140.824 114.089 140.754 112.315C140.578 108.655 139.006 105.201 136.361 102.665C133.716 100.128 130.2 98.7015 126.535 98.6785Z" fill="#008080"/>
</g>
<path d="M202.72 203.294H159.26C158.935 203.289 158.612 203.353 158.314 203.482C158.015 203.611 157.748 203.802 157.529 204.042C157.31 204.283 157.145 204.567 157.045 204.877C156.945 205.186 156.912 205.513 156.948 205.836C157.027 206.528 157.354 207.167 157.868 207.636C158.382 208.104 159.048 208.371 159.744 208.386H203.204C203.529 208.392 203.852 208.328 204.151 208.199C204.449 208.069 204.716 207.877 204.934 207.635C205.152 207.393 205.315 207.108 205.412 206.797C205.51 206.487 205.54 206.159 205.5 205.836C205.423 205.148 205.098 204.511 204.587 204.043C204.076 203.576 203.413 203.31 202.72 203.294Z" fill="#E0E0E0"/>
<path d="M225.968 192.593H158.384C158.057 192.587 157.732 192.65 157.431 192.778C157.13 192.906 156.859 193.097 156.637 193.337C156.415 193.577 156.246 193.861 156.141 194.171C156.037 194.481 155.999 194.81 156.03 195.135C156.089 195.824 156.402 196.467 156.908 196.938C157.414 197.409 158.077 197.676 158.769 197.685H226.321C226.648 197.695 226.974 197.635 227.277 197.509C227.579 197.383 227.852 197.195 228.077 196.957C228.301 196.718 228.473 196.434 228.58 196.125C228.687 195.815 228.728 195.486 228.699 195.16C228.645 194.469 228.336 193.822 227.831 193.347C227.326 192.872 226.661 192.603 225.968 192.593Z" fill="#E0E0E0"/>
<g opacity="0.3">
<path d="M128.002 145.14C131.019 145.161 133.911 146.348 136.073 148.453C138.236 150.557 139.501 153.416 139.605 156.431C139.66 157.891 139.42 159.347 138.901 160.712C138.381 162.077 137.591 163.324 136.579 164.377C135.566 165.426 134.35 166.258 133.005 166.822C131.66 167.386 130.214 167.67 128.756 167.657C125.732 167.636 122.831 166.452 120.657 164.349C118.483 162.247 117.201 159.388 117.079 156.366C117.029 154.904 117.276 153.447 117.803 152.082C118.331 150.718 119.128 149.474 120.148 148.425C121.169 147.377 122.39 146.546 123.74 145.981C125.089 145.416 126.539 145.13 128.002 145.14ZM128.002 142.762C126.225 142.751 124.464 143.099 122.825 143.785C121.186 144.471 119.703 145.481 118.464 146.755C117.225 148.028 116.256 149.539 115.615 151.196C114.974 152.853 114.674 154.623 114.734 156.399C114.88 160.053 116.428 163.511 119.059 166.052C121.689 168.593 125.197 170.023 128.854 170.043C130.626 170.05 132.38 169.698 134.012 169.009C135.644 168.32 137.119 167.307 138.349 166.032C139.579 164.757 140.538 163.246 141.168 161.59C141.798 159.935 142.086 158.169 142.015 156.399C141.893 152.756 140.365 149.302 137.753 146.76C135.141 144.218 131.646 142.785 128.002 142.762Z" fill="#008080"/>
</g>
<path d="M178.596 109.462H155.349C154.666 109.456 154.011 109.188 153.52 108.714C153.028 108.239 152.738 107.594 152.708 106.912C152.697 106.582 152.753 106.253 152.872 105.945C152.99 105.637 153.17 105.356 153.399 105.119C153.629 104.882 153.904 104.693 154.208 104.564C154.512 104.436 154.838 104.369 155.168 104.37H178.407C179.091 104.375 179.746 104.641 180.24 105.114C180.734 105.586 181.028 106.229 181.064 106.912C181.076 107.243 181.021 107.573 180.903 107.883C180.784 108.192 180.604 108.474 180.373 108.713C180.143 108.951 179.867 109.14 179.561 109.269C179.256 109.397 178.927 109.463 178.596 109.462Z" fill="#E0E0E0"/>
<path d="M205.427 109.462H189.683C188.999 109.456 188.343 109.189 187.851 108.714C187.358 108.24 187.066 107.595 187.035 106.912C187.024 106.582 187.079 106.253 187.198 105.945C187.316 105.637 187.496 105.356 187.725 105.119C187.955 104.882 188.23 104.693 188.534 104.564C188.838 104.436 189.165 104.369 189.495 104.37H205.247C205.929 104.375 206.584 104.641 207.076 105.114C207.569 105.587 207.862 106.23 207.895 106.912C207.908 107.243 207.853 107.573 207.734 107.883C207.615 108.192 207.435 108.474 207.205 108.713C206.974 108.951 206.698 109.14 206.392 109.269C206.087 109.397 205.759 109.463 205.427 109.462Z" fill="#E0E0E0"/>
<path d="M218.122 120.163H155.719C155.037 120.159 154.382 119.891 153.891 119.416C153.401 118.941 153.113 118.295 153.087 117.612C153.076 117.282 153.132 116.954 153.25 116.646C153.369 116.338 153.549 116.057 153.778 115.82C154.008 115.582 154.283 115.394 154.587 115.265C154.891 115.136 155.217 115.07 155.547 115.07H217.941C218.622 115.074 219.275 115.341 219.764 115.814C220.253 116.288 220.54 116.932 220.565 117.612C220.577 117.941 220.523 118.27 220.406 118.578C220.289 118.885 220.111 119.167 219.883 119.405C219.655 119.642 219.382 119.832 219.079 119.962C218.777 120.092 218.451 120.161 218.122 120.163Z" fill="#E0E0E0"/>
<g opacity="0.3">
<path d="M129.782 189.223C132.841 189.283 135.77 190.469 138.009 192.554C140.248 194.639 141.64 197.476 141.918 200.523C142.065 201.95 141.914 203.393 141.475 204.759C141.036 206.125 140.319 207.386 139.368 208.46C138.409 209.517 137.235 210.356 135.926 210.921C134.616 211.487 133.201 211.766 131.774 211.74C128.689 211.691 125.728 210.516 123.448 208.436C121.168 206.357 119.726 203.517 119.392 200.449C119.252 199.011 119.417 197.559 119.878 196.19C120.339 194.82 121.084 193.564 122.066 192.503C123.053 191.45 124.249 190.614 125.578 190.05C126.907 189.485 128.338 189.203 129.782 189.223ZM129.667 186.853C127.911 186.819 126.167 187.156 124.551 187.843C122.934 188.529 121.481 189.55 120.286 190.838C119.091 192.125 118.182 193.651 117.619 195.314C117.055 196.978 116.849 198.741 117.014 200.49C117.646 208.018 124.476 214.127 132.004 214.127C139.532 214.127 144.927 208.018 144.304 200.49C143.979 196.812 142.305 193.385 139.604 190.867C136.903 188.35 133.367 186.92 129.675 186.853H129.667Z" fill="#008080"/>
</g>
<path d="M228.78 159.187H156.776C156.446 159.186 156.119 159.253 155.815 159.381C155.511 159.51 155.236 159.699 155.007 159.936C154.777 160.173 154.598 160.454 154.479 160.762C154.36 161.07 154.305 161.399 154.316 161.729C154.345 162.409 154.635 163.052 155.125 163.525C155.614 163.998 156.267 164.265 156.948 164.271H228.985C229.315 164.271 229.642 164.205 229.946 164.076C230.25 163.947 230.525 163.759 230.754 163.521C230.984 163.284 231.163 163.003 231.282 162.695C231.401 162.387 231.456 162.059 231.445 161.729C231.419 161.041 231.127 160.391 230.629 159.916C230.131 159.442 229.468 159.18 228.78 159.187Z" fill="#E0E0E0"/>
<path d="M211.717 148.477H156.466C156.135 148.477 155.807 148.543 155.503 148.673C155.198 148.802 154.923 148.991 154.693 149.229C154.464 149.467 154.284 149.749 154.166 150.058C154.048 150.367 153.993 150.697 154.006 151.027C154.029 151.707 154.314 152.351 154.802 152.825C155.289 153.299 155.941 153.565 156.621 153.569H211.881C212.211 153.569 212.538 153.503 212.842 153.374C213.146 153.246 213.421 153.057 213.65 152.82C213.88 152.583 214.059 152.302 214.178 151.994C214.297 151.686 214.352 151.357 214.341 151.027C214.322 150.344 214.037 149.696 213.547 149.219C213.057 148.743 212.4 148.477 211.717 148.477Z" fill="#E0E0E0"/>
<path d="M127.863 120.31L126.896 118.719C124.772 115.251 120.336 112.159 118.811 111.249L119.959 109.216C122.971 111.039 125.654 113.356 127.896 116.071C131.381 111.389 136.473 106.575 143.37 101.376L144.854 103.295C137.474 108.847 132.242 113.955 128.888 118.818C128.552 119.318 128.208 119.818 127.863 120.31Z" fill="#008080"/>
<path d="M129.093 164.426C128.774 163.893 128.446 163.36 128.118 162.836C125.986 159.367 121.558 156.276 120.049 155.357L121.213 153.324C124.21 155.152 126.879 157.469 129.11 160.179C132.603 155.505 137.736 150.683 144.739 145.484L146.19 147.403C138.712 152.955 133.448 158.063 130.11 162.926L129.093 164.426Z" fill="#008080"/>
<path d="M131.906 208.641L130.824 207.05C128.462 203.581 123.887 200.49 122.312 199.58L123.379 197.546C126.477 199.382 129.269 201.693 131.652 204.393C134.867 199.719 139.754 194.898 146.544 189.707L148.077 191.626C140.828 197.177 135.851 202.286 132.825 207.148L131.906 208.641Z" fill="#008080"/>
<path d="M183.762 60.6797C182.319 63.8285 180.84 66.9745 179.326 70.1179C182.448 71.6706 185.117 74.0013 187.076 76.8853C189.035 79.7693 190.218 83.1094 190.511 86.5835H201.409C200.687 75.4397 193.52 65.7391 183.762 60.6797Z" fill="#008080"/>
<path d="M142.245 86.6003H153.143C152.876 83.5178 153.437 80.4199 154.769 77.6273C156.102 74.8348 158.156 72.449 160.72 70.7169C158.599 67.5681 156.445 64.4193 154.258 61.2705C146.304 66.4201 141.548 75.8583 142.245 86.6003Z" fill="#263238"/>
<path d="M169.02 57.0228C163.791 56.9711 158.661 58.4474 154.26 61.2704C156.446 64.4192 158.6 67.568 160.721 70.7168C163.562 68.8602 166.889 67.8846 170.283 67.9124C173.423 67.9306 176.514 68.6921 179.303 70.1346C180.811 66.9858 182.29 63.8397 183.739 60.6964C179.196 58.315 174.149 57.0554 169.02 57.0228Z" fill="#008080"/>
<path opacity="0.5" d="M169.02 57.0228C163.791 56.9711 158.661 58.4474 154.26 61.2704C156.446 64.4192 158.6 67.568 160.721 70.7168C163.562 68.8602 166.889 67.8846 170.283 67.9124C173.423 67.9306 176.514 68.6921 179.303 70.1346C180.811 66.9858 182.29 63.8397 183.739 60.6964C179.196 58.315 174.149 57.0554 169.02 57.0228Z" fill="#263238"/>
<path d="M182.336 79.1382C182.336 79.1382 171.332 83.64 170.168 84.46C169.889 84.6706 169.656 84.9347 169.482 85.2367C169.307 85.5388 169.195 85.8727 169.151 86.2188C169.108 86.5649 169.134 86.9163 169.228 87.2522C169.322 87.588 169.483 87.9017 169.7 88.1746C170.111 88.7579 170.733 89.1586 171.434 89.2917C172.134 89.4249 172.86 89.2801 173.456 88.888C174.661 88.0188 182.353 79.1382 182.336 79.1382ZM170.774 87.3382C170.667 87.2039 170.588 87.0495 170.542 86.8842C170.495 86.7189 170.482 86.5459 170.504 86.3755C170.525 86.2051 170.581 86.0407 170.666 85.892C170.752 85.7433 170.867 85.6133 171.004 85.5096C171.299 85.3196 171.656 85.2503 172.001 85.3159C172.346 85.3815 172.652 85.5771 172.857 85.8622C172.964 85.9965 173.043 86.1509 173.09 86.3162C173.136 86.4815 173.149 86.6545 173.128 86.8249C173.106 86.9953 173.051 87.1597 172.965 87.3084C172.879 87.4571 172.764 87.5871 172.628 87.6908C172.336 87.8842 171.982 87.9588 171.637 87.8993C171.293 87.8398 170.984 87.6508 170.774 87.371V87.3382Z" fill="#263238"/>
<path d="M195.382 73.9311C195.436 74.4247 195.384 74.9241 195.23 75.3959C195.075 75.8678 194.822 76.3013 194.487 76.6675C194.151 77.0337 193.742 77.3243 193.286 77.5199C192.829 77.7154 192.336 77.8115 191.84 77.8015C190.788 77.7808 189.78 77.3757 189.007 76.6626C188.233 75.9495 187.748 74.9779 187.642 73.9311C187.585 73.4402 187.635 72.943 187.786 72.4727C187.938 72.0024 188.188 71.57 188.521 71.2043C188.853 70.8386 189.26 70.5481 189.713 70.3523C190.167 70.1565 190.657 70.0599 191.151 70.0689C192.206 70.0868 193.218 70.489 193.997 71.2002C194.776 71.9113 195.269 72.8824 195.382 73.9311Z" fill="white"/>
<path d="M190.586 73.0453C190.594 73.1232 190.585 73.2019 190.561 73.2764C190.536 73.3508 190.497 73.4192 190.444 73.4772C190.391 73.5353 190.327 73.5816 190.255 73.6131C190.184 73.6446 190.106 73.6607 190.028 73.6603C189.86 73.6591 189.698 73.5955 189.574 73.4819C189.449 73.3684 189.372 73.2128 189.356 73.0453C189.346 72.9672 189.354 72.8879 189.377 72.8129C189.401 72.7379 189.441 72.6689 189.494 72.6105C189.547 72.5522 189.612 72.506 189.684 72.4749C189.756 72.4438 189.834 72.4286 189.913 72.4303C190.081 72.4316 190.243 72.4951 190.367 72.6087C190.492 72.7222 190.569 72.8778 190.586 73.0453Z" fill="#263238"/>
<path d="M193.521 73.0456C193.53 73.1242 193.521 73.2036 193.496 73.2786C193.471 73.3536 193.431 73.4224 193.377 73.4806C193.324 73.5387 193.258 73.5849 193.186 73.6159C193.113 73.6469 193.035 73.6621 192.956 73.6606C192.788 73.6558 192.628 73.5911 192.505 73.4782C192.382 73.3652 192.303 73.2117 192.283 73.0456C192.274 72.9667 192.281 72.8867 192.306 72.8111C192.33 72.7355 192.371 72.6661 192.424 72.6076C192.478 72.5491 192.544 72.503 192.617 72.4725C192.691 72.4419 192.77 72.4276 192.849 72.4306C193.017 72.4318 193.179 72.4953 193.303 72.6089C193.428 72.7225 193.505 72.8781 193.521 73.0456Z" fill="#263238"/>
<path d="M191.691 76.2598C190.88 76.2534 190.1 75.9466 189.502 75.3988C189.446 75.342 189.414 75.2654 189.414 75.1856C189.414 75.1058 189.446 75.0291 189.502 74.9724C189.529 74.9436 189.562 74.9207 189.599 74.9051C189.636 74.8894 189.675 74.8813 189.715 74.8813C189.755 74.8813 189.794 74.8894 189.831 74.9051C189.867 74.9207 189.9 74.9436 189.928 74.9724C190.413 75.4197 191.047 75.671 191.707 75.6776C192.014 75.6844 192.318 75.6266 192.601 75.5079C192.883 75.3893 193.138 75.2124 193.347 74.9888C193.403 74.93 193.479 74.8958 193.56 74.8935C193.6 74.8923 193.64 74.8991 193.677 74.9133C193.715 74.9275 193.749 74.949 193.778 74.9765C193.807 75.0039 193.83 75.0368 193.847 75.0733C193.863 75.1098 193.872 75.1492 193.873 75.1892C193.874 75.2291 193.868 75.269 193.853 75.3063C193.839 75.3437 193.818 75.3779 193.79 75.407C193.52 75.689 193.193 75.9107 192.832 76.0577C192.47 76.2046 192.081 76.2735 191.691 76.2598Z" fill="#263238"/>
<path d="M173.528 62.4019C173.596 62.8898 173.557 63.3867 173.414 63.8581C173.271 64.3295 173.027 64.7642 172.7 65.1323C172.373 65.5003 171.969 65.7928 171.517 65.9896C171.066 66.1865 170.577 66.2829 170.084 66.2723C169.024 66.2476 168.007 65.8435 167.219 65.1335C166.43 64.4234 165.923 63.4543 165.788 62.4019C165.714 61.9162 165.748 61.4203 165.887 60.9492C166.026 60.4781 166.267 60.0431 166.592 59.675C166.917 59.3068 167.319 59.0144 167.77 58.8182C168.22 58.6221 168.708 58.527 169.199 58.5397C170.261 58.5647 171.281 58.967 172.074 59.6746C172.867 60.3822 173.383 61.349 173.528 62.4019Z" fill="white"/>
<path d="M168.707 61.5C168.718 61.577 168.712 61.6554 168.689 61.7298C168.667 61.8042 168.629 61.873 168.577 61.9313C168.526 61.9897 168.463 62.0363 168.392 62.068C168.321 62.0997 168.244 62.1157 168.166 62.115C167.997 62.1107 167.835 62.0466 167.709 61.9339C167.582 61.8213 167.5 61.6675 167.477 61.5C167.465 61.4227 167.47 61.3438 167.492 61.2687C167.514 61.1937 167.552 61.1243 167.604 61.0657C167.655 61.007 167.719 60.9604 167.791 60.9291C167.862 60.8979 167.94 60.8828 168.018 60.885C168.188 60.8875 168.351 60.9511 168.477 61.0641C168.604 61.177 168.685 61.3318 168.707 61.5Z" fill="#263238"/>
<path d="M171.634 61.4999C171.645 61.5776 171.638 61.6567 171.615 61.7318C171.593 61.8068 171.554 61.8759 171.501 61.9344C171.449 61.9929 171.385 62.0394 171.313 62.0705C171.241 62.1017 171.163 62.1169 171.085 62.1149C170.916 62.1091 170.755 62.0444 170.629 61.932C170.503 61.8197 170.421 61.6668 170.396 61.4999C170.385 61.4222 170.391 61.3431 170.414 61.2681C170.437 61.1931 170.476 61.1239 170.528 61.0654C170.58 61.0069 170.645 60.9605 170.717 60.9293C170.789 60.8981 170.867 60.883 170.945 60.8849C171.114 60.8892 171.276 60.9533 171.402 61.066C171.529 61.1786 171.611 61.3324 171.634 61.4999Z" fill="#263238"/>
<path d="M171.716 63.9597H167.878C167.805 63.9478 167.739 63.9103 167.691 63.854C167.643 63.7976 167.617 63.7261 167.617 63.6522C167.617 63.5783 167.643 63.5068 167.691 63.4505C167.739 63.3942 167.805 63.3567 167.878 63.3447H171.716C171.789 63.3567 171.855 63.3942 171.903 63.4505C171.951 63.5068 171.977 63.5783 171.977 63.6522C171.977 63.7261 171.951 63.7976 171.903 63.854C171.855 63.9103 171.789 63.9478 171.716 63.9597Z" fill="#263238"/>
<path d="M154.054 73.9311C154.108 74.4247 154.056 74.9241 153.901 75.3959C153.747 75.8678 153.494 76.3013 153.158 76.6675C152.823 77.0337 152.414 77.3243 151.957 77.5199C151.501 77.7154 151.008 77.8115 150.512 77.8015C149.46 77.7808 148.452 77.3757 147.679 76.6626C146.905 75.9495 146.419 74.9779 146.313 73.9311C146.257 73.4402 146.307 72.943 146.458 72.4727C146.61 72.0024 146.86 71.57 147.193 71.2043C147.525 70.8386 147.931 70.5481 148.385 70.3523C148.839 70.1565 149.329 70.0599 149.823 70.0689C150.877 70.0885 151.888 70.4914 152.667 71.2022C153.446 71.913 153.939 72.8831 154.054 73.9311Z" fill="white"/>
<path d="M149.24 73.0453C149.248 73.1232 149.239 73.2019 149.215 73.2764C149.191 73.3508 149.151 73.4192 149.098 73.4772C149.046 73.5353 148.981 73.5816 148.91 73.6131C148.838 73.6446 148.761 73.6607 148.682 73.6603C148.514 73.6591 148.352 73.5955 148.228 73.4819C148.104 73.3684 148.026 73.2128 148.01 73.0453C148 72.9672 148.008 72.8879 148.032 72.8129C148.056 72.7379 148.095 72.6689 148.148 72.6105C148.201 72.5522 148.266 72.506 148.338 72.4749C148.411 72.4438 148.489 72.4286 148.567 72.4303C148.736 72.4316 148.898 72.4951 149.022 72.6087C149.146 72.7222 149.224 72.8778 149.24 73.0453Z" fill="#263238"/>
<path d="M152.175 73.0453C152.185 73.1235 152.177 73.2027 152.153 73.2777C152.13 73.3527 152.09 73.4218 152.037 73.4801C151.984 73.5384 151.919 73.5847 151.847 73.6158C151.775 73.6469 151.696 73.6621 151.618 73.6603C151.451 73.6556 151.291 73.5908 151.167 73.4779C151.044 73.365 150.965 73.2115 150.945 73.0453C150.936 72.9672 150.943 72.8879 150.967 72.8129C150.991 72.7379 151.031 72.6689 151.084 72.6105C151.137 72.5522 151.201 72.506 151.274 72.4749C151.346 72.4438 151.424 72.4286 151.503 72.4303C151.672 72.4297 151.835 72.4926 151.959 72.6065C152.084 72.7205 152.161 72.8771 152.175 73.0453Z" fill="#263238"/>
<path d="M148.421 76.2598C148.384 76.2604 148.346 76.2534 148.311 76.2393C148.276 76.2253 148.244 76.2044 148.216 76.1778C148.16 76.121 148.129 76.0445 148.129 75.9646C148.129 75.8848 148.16 75.8082 148.216 75.7514C148.482 75.4686 148.804 75.244 149.161 75.0915C149.518 74.9391 149.903 74.8623 150.291 74.8658C151.103 74.8745 151.883 75.1842 152.48 75.735C152.509 75.7626 152.532 75.7957 152.548 75.8323C152.563 75.869 152.571 75.9084 152.571 75.9482C152.571 75.9881 152.563 76.0275 152.548 76.0641C152.532 76.1008 152.509 76.1339 152.48 76.1614C152.421 76.2162 152.344 76.2466 152.263 76.2466C152.183 76.2466 152.105 76.2162 152.046 76.1614C151.561 75.7088 150.922 75.4568 150.258 75.4562C149.953 75.4494 149.649 75.5063 149.366 75.6235C149.084 75.7407 148.829 75.9156 148.618 76.1368C148.57 76.201 148.5 76.2449 148.421 76.2598Z" fill="#263238"/>
<path d="M210.528 45.5591C207.97 40.1717 202 36.6047 195.563 36.6047H182.443C181.542 36.6444 180.647 36.4455 179.848 36.0279C179.048 35.6103 178.374 34.9889 177.892 34.2267C176.063 30.7991 171.701 28.3555 166.748 28.3555C161.795 28.3555 157.728 30.8155 156.285 34.2267C155.686 35.6699 153.973 36.6047 152.005 36.6047H138.885C132.448 36.6047 126.88 40.1717 124.945 45.5591C124.873 45.7471 124.845 45.949 124.863 46.1495C124.884 46.5701 125.066 46.9664 125.371 47.2565C125.676 47.5465 126.081 47.708 126.503 47.7075H209.224C209.477 47.708 209.726 47.6433 209.946 47.5196C210.166 47.3958 210.351 47.2173 210.482 47.0012C210.613 46.7851 210.687 46.5388 210.695 46.2861C210.703 46.0335 210.645 45.783 210.528 45.5591ZM167.281 38.0889C166.303 38.0687 165.367 37.683 164.658 37.0077C163.95 36.3324 163.519 35.4164 163.452 34.4399C163.419 33.9695 163.484 33.4975 163.643 33.0535C163.801 32.6096 164.05 32.2033 164.374 31.8604C164.698 31.5175 165.089 31.2455 165.523 31.0614C165.957 30.8773 166.424 30.7852 166.896 30.7909C167.881 30.801 168.826 31.1825 169.542 31.8589C170.258 32.5354 170.692 33.4571 170.758 34.4399C170.791 34.913 170.725 35.3879 170.565 35.8341C170.404 36.2804 170.152 36.6882 169.825 37.0316C169.498 37.375 169.102 37.6463 168.664 37.8284C168.226 38.0104 167.755 38.0991 167.281 38.0889Z" fill="#263238"/>
<path d="M295.543 290.37C294.902 290.449 294.253 290.289 293.723 289.919C293.653 289.832 293.61 289.727 293.6 289.616C293.59 289.505 293.613 289.394 293.665 289.296C293.705 289.212 293.763 289.137 293.835 289.079C293.908 289.021 293.993 288.98 294.084 288.96C295.051 288.689 297.29 289.886 297.364 289.944C297.391 289.956 297.415 289.977 297.429 290.004C297.444 290.03 297.45 290.061 297.446 290.091C297.444 290.119 297.434 290.145 297.416 290.166C297.398 290.186 297.374 290.201 297.347 290.206C296.752 290.312 296.148 290.367 295.543 290.37ZM294.461 289.206C294.371 289.192 294.28 289.192 294.19 289.206C294.134 289.216 294.081 289.239 294.036 289.273C293.99 289.307 293.953 289.352 293.928 289.402C293.846 289.583 293.928 289.673 293.928 289.722C294.256 290.108 295.781 290.116 296.88 289.96C296.125 289.565 295.306 289.31 294.461 289.206Z" fill="#008080"/>
<path d="M297.347 290.206H297.29C296.527 289.878 294.936 288.566 294.969 287.894C294.969 287.73 295.068 287.533 295.461 287.492C295.756 287.467 296.049 287.555 296.281 287.738C296.895 288.381 297.31 289.186 297.478 290.059C297.489 290.079 297.494 290.101 297.494 290.124C297.494 290.147 297.489 290.169 297.478 290.19C297.46 290.203 297.438 290.212 297.415 290.215C297.392 290.217 297.369 290.215 297.347 290.206ZM295.601 287.746H295.519C295.264 287.746 295.256 287.869 295.256 287.902C295.256 288.312 296.33 289.337 297.126 289.78C296.97 289.08 296.621 288.437 296.117 287.927C295.969 287.815 295.786 287.757 295.601 287.763V287.746Z" fill="#008080"/>
<path d="M303.957 290.067H297.93L295.773 276.11H301.8L303.957 290.067Z" fill="#FFC3BD"/>
<path d="M297.889 289.37H304.449C304.573 289.373 304.692 289.414 304.792 289.487C304.892 289.561 304.967 289.663 305.007 289.78L306.794 295.134C306.832 295.254 306.842 295.381 306.823 295.506C306.804 295.63 306.756 295.748 306.684 295.851C306.612 295.954 306.517 296.039 306.407 296.1C306.297 296.16 306.174 296.195 306.048 296.2C303.67 296.2 300.226 296.028 297.241 296.028C293.756 296.028 294.068 296.217 289.976 296.217C287.516 296.217 286.54 293.716 287.516 293.486C292.116 292.461 292.649 292.346 296.438 289.837C296.862 289.536 297.369 289.373 297.889 289.37Z" fill="#263238"/>
<path opacity="0.2" d="M295.773 276.119L296.889 283.31H302.916L301.8 276.119H295.773Z" fill="black"/>
<path d="M303.268 139.769L299.168 143.91L305.449 146.132C305.449 146.132 307.909 142.754 306.179 140.441L303.268 139.769Z" fill="#FFC3BD"/>
<path d="M297.791 149.699L304.064 150.617L305.466 146.132L299.185 143.91L297.791 149.699Z" fill="#FFC3BD"/>
<path d="M306.006 88.7812C306.539 89.9293 306.966 90.905 307.392 91.971C307.818 93.037 308.212 94.0621 308.622 95.1117C309.401 97.2191 310.098 99.3674 310.746 101.54C311.405 103.739 311.952 105.969 312.386 108.223L312.697 109.945L312.952 111.7C313.042 112.282 313.099 112.889 313.148 113.488C313.198 114.086 313.28 114.628 313.28 115.382V116.448V117.391L313.23 118.318L313.14 119.195C313.034 120.376 312.878 121.483 312.73 122.606C312.402 124.82 312.025 126.985 311.607 129.166C310.738 133.455 309.786 137.645 308.638 141.868L301.168 140.392C301.644 136.226 302.136 131.995 302.529 127.83C302.718 125.747 302.923 123.672 303.038 121.639C303.087 120.638 303.144 119.621 303.144 118.662V117.94V117.276V116.612L303.087 116.071C303.05 115.639 302.989 115.209 302.907 114.783C302.833 114.324 302.767 113.865 302.661 113.398L302.357 111.995L302.005 110.585C301.496 108.699 300.922 106.805 300.266 104.911C299.61 103.016 298.88 101.13 298.11 99.2608C297.732 98.3178 297.339 97.383 296.929 96.4646C296.519 95.5462 296.109 94.5869 295.707 93.7915L306.006 88.7812Z" fill="#263238"/>
<path d="M277.691 136.833C277.691 136.833 278.692 182.95 281.398 201.318C284.219 220.424 294.518 281.916 294.518 281.916H304.719C304.719 281.916 301.061 223.392 299.897 204.59C298.626 184.09 298.905 136.833 298.905 136.833H277.691Z" fill="#008080"/>
<path d="M292.066 277.849C292.017 277.849 293.116 282.088 293.116 282.088H305.53L305.44 278.308L292.066 277.849Z" fill="#263238"/>
<path d="M275.393 62.073C275.425 61.5622 275.179 61.1315 274.844 61.1109C274.51 61.0903 274.213 61.4877 274.182 61.9985C274.15 62.5093 274.396 62.94 274.731 62.9606C275.065 62.9812 275.362 62.5838 275.393 62.073Z" fill="#263238"/>
<path d="M275.142 62.9595C274.477 64.5228 273.605 65.99 272.551 67.3219C272.895 67.5721 273.291 67.743 273.709 67.8223C274.127 67.9017 274.558 67.8876 274.97 67.7811L275.142 62.9595Z" fill="#ED847E"/>
<path d="M277.307 59.2037C277.243 59.2039 277.181 59.1869 277.126 59.1545C276.833 58.9237 276.488 58.7673 276.121 58.6988C275.754 58.6302 275.376 58.6516 275.019 58.7609C274.982 58.7754 274.943 58.7824 274.904 58.7815C274.865 58.7807 274.826 58.772 274.79 58.7559C274.754 58.7399 274.722 58.7168 274.695 58.6881C274.668 58.6594 274.647 58.6256 274.634 58.5887C274.621 58.551 274.615 58.5112 274.618 58.4714C274.62 58.4316 274.631 58.3928 274.648 58.357C274.666 58.3212 274.69 58.2892 274.72 58.2628C274.75 58.2365 274.784 58.2163 274.822 58.2033C275.272 58.0572 275.75 58.0226 276.216 58.1026C276.681 58.1826 277.121 58.3748 277.495 58.6625C277.557 58.7112 277.598 58.782 277.609 58.86C277.619 58.9381 277.599 59.0172 277.553 59.0807C277.524 59.1187 277.487 59.1495 277.444 59.1708C277.401 59.1922 277.354 59.2034 277.307 59.2037Z" fill="#263238"/>
<path d="M291.346 67.666C290.329 72.0776 289.181 80.1546 292.166 83.0902C292.166 83.0902 290.805 87.5592 282.613 87.5592C273.593 87.5592 278.472 83.0902 278.472 83.0902C283.392 81.9176 283.433 78.2768 282.695 74.8492L291.346 67.666Z" fill="#FFC3BD"/>
<path d="M295.339 85.157C296.224 83.3612 297.2 81.2948 295.339 80.6552C293.305 79.9418 282.063 79.2202 278.119 80.5486C277.065 80.8172 276.161 81.4934 275.606 82.4284C275.051 83.3633 274.89 84.4806 275.158 85.5342L295.339 85.157Z" fill="#008080"/>
<path d="M303.966 84.8207C309.156 87.2151 311.797 105.37 311.797 105.37L301.342 108.65C299.474 103.846 297.958 98.9134 296.807 93.8899C295.2 86.3131 298.652 82.3771 303.966 84.8207Z" fill="#263238"/>
<path d="M239.71 113.07L234.889 108.92L230.551 115.234C230.551 115.234 234.446 118.359 238.751 117.079L239.71 113.07Z" fill="#FFC3BD"/>
<path d="M228.533 106.912L227.869 113.152L230.551 115.235L234.888 108.921L228.533 106.912Z" fill="#FFC3BD"/>
<path d="M292.452 60.9502C291.845 67.215 291.804 70.905 288.524 74.1194C287.468 75.1659 286.147 75.9053 284.702 76.2587C283.258 76.612 281.744 76.566 280.324 76.1254C278.904 75.6848 277.63 74.8664 276.639 73.7576C275.649 72.6488 274.978 71.2915 274.699 69.8308C273.551 64.2056 274.699 54.9068 280.956 52.414C282.287 51.8397 283.747 51.6256 285.188 51.7932C286.628 51.9608 288 52.5041 289.164 53.3688C290.329 54.2334 291.245 55.3889 291.822 56.7196C292.399 58.0502 292.617 59.5092 292.452 60.9502Z" fill="#FFC3BD"/>
<path d="M279.62 62.9594C279.07 58.6298 279.161 56.9898 281.473 56.0304C279.07 55.5548 276.988 55.4892 275.995 54.087C275.003 52.6848 274.765 49.1014 279.587 47.4614C279.144 48.2814 280.546 49.987 284.983 48.4454C289.419 46.9038 295.88 46.7398 296.463 51.2498C298.808 50.4298 302.736 57.6704 298.103 62.9594C294.24 67.3874 291.666 70.446 290.903 72.7994C290.867 72.9097 290.809 73.0111 290.731 73.097C290.653 73.1829 290.558 73.2514 290.452 73.2979C290.346 73.3444 290.231 73.3678 290.115 73.3667C289.999 73.3656 289.885 73.3399 289.78 73.2914C288.181 72.5452 285.319 73.1848 284.04 73.5292C283.859 73.5759 283.669 73.56 283.499 73.484C283.329 73.408 283.19 73.2765 283.105 73.111C282.277 71.4054 280.038 66.5346 279.62 62.9594Z" fill="#263238"/>
<path d="M295.594 51.7994C295.594 51.7994 297.496 49.118 301.145 51.1106C299.269 51.0232 297.392 51.2561 295.594 51.7994Z" fill="#263238"/>
<path d="M295.904 52.373C295.904 52.373 298.553 50.733 296.487 47.6416C296.613 49.2419 296.415 50.8512 295.904 52.373Z" fill="#263238"/>
<path d="M282.686 63.1398C282.399 64.6901 281.63 66.1104 280.489 67.1988C278.972 68.6338 277.66 67.617 277.619 65.772C277.578 64.132 278.316 61.3604 280.079 60.6224C281.842 59.8844 282.998 61.2866 282.686 63.1398Z" fill="#FFC3BD"/>
<path opacity="0.3" d="M278.537 162.458C279.128 176.218 280.054 192.191 281.399 201.318C281.916 204.795 282.67 209.665 283.572 215.315C287.196 195.537 289.361 170.051 278.537 162.458Z" fill="black"/>
<path d="M274.018 290.37C273.247 290.37 272.501 290.263 272.263 289.919C272.201 289.827 272.168 289.718 272.168 289.607C272.168 289.496 272.201 289.388 272.263 289.296C272.373 289.131 272.539 289.012 272.731 288.96C273.739 288.689 275.806 289.886 275.896 289.944C275.921 289.958 275.941 289.98 275.951 290.007C275.962 290.034 275.963 290.064 275.953 290.091C275.947 290.12 275.933 290.145 275.913 290.166C275.893 290.186 275.867 290.2 275.838 290.206C275.237 290.311 274.628 290.366 274.018 290.37ZM273.108 289.206C273.015 289.192 272.921 289.192 272.829 289.206C272.77 289.217 272.714 289.24 272.665 289.274C272.616 289.308 272.574 289.352 272.542 289.402C272.435 289.583 272.468 289.673 272.501 289.722C272.772 290.108 274.289 290.116 275.42 289.96C274.706 289.559 273.921 289.303 273.108 289.206Z" fill="#008080"/>
<path d="M275.848 290.206H275.791C275.077 289.878 273.675 288.566 273.814 287.893C273.814 287.729 273.962 287.533 274.356 287.492C274.502 287.473 274.65 287.486 274.792 287.528C274.933 287.57 275.064 287.642 275.176 287.738C275.922 288.369 275.996 289.993 275.996 290.058C275.995 290.084 275.989 290.109 275.977 290.131C275.966 290.154 275.95 290.174 275.93 290.189C275.905 290.202 275.876 290.208 275.848 290.206ZM274.462 287.746H274.38C274.118 287.746 274.101 287.869 274.093 287.902C274.011 288.312 274.954 289.337 275.684 289.779C275.639 289.101 275.384 288.453 274.954 287.926C274.815 287.815 274.64 287.757 274.462 287.762V287.746Z" fill="#008080"/>
<path d="M282.473 290.067H276.455L276.34 276.11H282.367L282.473 290.067Z" fill="#FFC3BD"/>
<path d="M276.512 289.37H283.072C283.19 289.368 283.304 289.408 283.394 289.484C283.484 289.559 283.545 289.664 283.564 289.78L284.573 295.134C284.596 295.266 284.589 295.401 284.554 295.531C284.519 295.66 284.455 295.779 284.368 295.881C284.281 295.983 284.173 296.064 284.051 296.12C283.929 296.175 283.797 296.202 283.663 296.2C281.293 296.2 277.865 296.028 274.889 296.028C271.395 296.028 268.378 296.217 264.286 296.217C261.826 296.217 261.219 293.716 262.261 293.486C267.008 292.461 270.862 292.346 275.02 289.837C275.466 289.549 275.982 289.387 276.512 289.37Z" fill="#263238"/>
<path opacity="0.2" d="M276.348 276.119L276.397 283.31H282.424L282.375 276.119H276.348Z" fill="black"/>
<path d="M266.943 136.833C266.943 136.833 264.483 181.876 264.532 200.244C264.532 219.35 274.208 281.916 274.208 281.916H284.409C284.409 281.916 281.752 220.465 282.9 201.72C284.122 181.22 290.042 136.849 290.042 136.849L266.943 136.833Z" fill="#008080"/>
<path d="M272.386 277.849C272.337 277.849 272.805 282.088 272.805 282.088H285.219L285.695 278.308L272.386 277.849Z" fill="#263238"/>
<path d="M269.139 84.7633C269.139 84.7633 258.873 110.7 263.342 155.529H300.832C301.226 150.609 297.306 107.756 302.898 84.4517C299.351 83.765 295.763 83.3102 292.156 83.0905C287.596 82.8279 283.023 82.8279 278.462 83.0905C275.316 83.407 272.199 83.9663 269.139 84.7633Z" fill="#263238"/>
<path opacity="0.2" d="M263.833 108.24C263.276 112.34 262.817 117.022 262.521 122.18C269.803 115.488 272.296 98.8179 272.296 98.8179L263.833 108.24Z" fill="black"/>
<path d="M273.003 97.1123C271.527 100.95 270.034 104.648 268.394 108.363C266.754 112.077 265.057 115.743 263.146 119.416L262.4 120.786L262.023 121.475C261.867 121.753 261.884 121.77 261.457 122.483C260.722 123.639 259.703 124.588 258.497 125.238C257.5 125.763 256.411 126.091 255.291 126.206C253.75 126.347 252.197 126.222 250.699 125.837C249.514 125.544 248.352 125.165 247.222 124.705C245.193 123.865 243.228 122.879 241.343 121.753C240.416 121.22 239.53 120.646 238.653 120.113C237.776 119.58 236.98 118.9 236.037 118.244L240.465 111.454C243.643 113.205 246.978 114.652 250.428 115.776C251.16 116.002 251.909 116.172 252.667 116.284C253.099 116.376 253.546 116.376 253.979 116.284C254.028 116.284 253.872 116.235 253.601 116.374C253.272 116.542 252.99 116.79 252.781 117.096C252.609 117.383 252.831 116.956 252.905 116.792L253.2 116.145L253.79 114.857C255.348 111.38 256.791 107.781 258.194 104.197C259.596 100.614 260.957 96.8745 262.211 93.2583L273.003 97.1123Z" fill="#263238"/>
<path d="M277.078 87.4858C278.997 92.8486 265.418 114.439 265.418 114.439L257.365 106.461C257.365 106.461 259.423 99.6792 262.138 91.512C264.811 83.4842 275.249 82.3608 277.078 87.4858Z" fill="#263238"/>
</svg>
