<svg width="179" height="140" viewBox="0 0 179 140" fill="none" xmlns="http://www.w3.org/2000/svg">
<g id="b340c189-66f3-4f05-9055-65c54b2ae483" clip-path="url(#clip0_1990_34953)">
<path id="Vector" d="M32.6349 16.5112C32.2985 16.548 31.9744 16.6575 31.6854 16.832C31.3964 17.0065 31.1494 17.2417 30.962 17.5211C30.7745 17.8004 30.6511 18.1172 30.6004 18.449C30.5497 18.7808 30.5729 19.1196 30.6686 19.4415L23.9766 24.1843L27.9655 25.7067L33.7088 20.9695C34.2434 20.7744 34.6873 20.3915 34.9563 19.8935C35.2253 19.3954 35.3008 18.8168 35.1684 18.2673C35.0361 17.7177 34.705 17.2354 34.2381 16.9118C33.7711 16.5881 33.2007 16.4456 32.6349 16.5112Z" fill="#FFB8B8"/>
<path id="Vector_2" d="M32.0132 23.6561L23.7124 31.9397C22.5748 33.0676 21.0748 33.7646 19.4729 33.9096L9.21585 34.8378C8.83982 34.8734 8.46042 34.8338 8.10006 34.7215C7.7397 34.6092 7.4057 34.4264 7.11778 34.1839C6.71947 33.8532 6.42328 33.4178 6.26323 32.9277C6.10319 32.4376 6.08579 31.9127 6.21302 31.4132C6.34026 30.9138 6.60698 30.46 6.98254 30.1041C7.35809 29.7482 7.82725 29.5046 8.33612 29.4013L18.8148 27.1884L28.3549 20.2138C28.4875 20.1398 28.6373 20.1014 28.7895 20.1026C28.9417 20.1037 29.091 20.1443 29.2225 20.2202L31.8168 22.3281C31.9729 22.4129 32.0983 22.5441 32.1754 22.7032C32.2525 22.8623 32.2775 23.0414 32.2467 23.2153C32.2165 23.3825 32.1349 23.5365 32.0132 23.6561Z" fill="#2F2E41"/>
<path id="Vector_3" d="M131.534 28.1063C131.596 27.5409 131.481 26.9702 131.204 26.472C130.927 25.9737 130.503 25.5721 129.988 25.3216L78.3288 0.280033C78.0003 0.120632 77.6433 0.0269649 77.2783 0.00438209C76.9133 -0.0182007 76.5474 0.0307414 76.2015 0.148415C75.8555 0.266088 75.5363 0.450189 75.2621 0.690204C74.9879 0.930219 74.7641 1.22145 74.6034 1.54726L74.6024 1.54919L55.227 40.8665C54.9036 41.525 54.8567 42.2839 55.0966 42.9767C55.3364 43.6695 55.8435 44.2397 56.5066 44.5623L108.166 69.6038C108.83 69.9245 109.595 69.971 110.293 69.7331C110.992 69.4952 111.567 68.9923 111.892 68.3346L131.267 29.0174C131.409 28.7313 131.499 28.4231 131.534 28.1063Z" fill="#F2F2F2"/>
<path id="Vector_4" d="M101.272 115.373H34.2416C33.3977 115.372 32.5886 115.039 31.9919 114.447C31.3952 113.855 31.0595 113.053 31.0586 112.216V21.966C31.0595 21.129 31.3952 20.3266 31.9919 19.7348C32.5886 19.1429 33.3977 18.81 34.2416 18.8091H101.272C102.116 18.81 102.925 19.1429 103.521 19.7348C104.118 20.3266 104.454 21.129 104.455 21.966V112.216C104.454 113.053 104.118 113.855 103.521 114.447C102.925 115.039 102.116 115.372 101.272 115.373Z" fill="white"/>
<path id="Vector_5" d="M52.0177 45.72C54.4329 45.72 56.3909 43.7781 56.3909 41.3827C56.3909 38.9873 54.4329 37.0454 52.0177 37.0454C49.6025 37.0454 47.6445 38.9873 47.6445 41.3827C47.6445 43.7781 49.6025 45.72 52.0177 45.72Z" fill="#E6E6E6"/>
<path id="Vector_6" d="M45.3555 53.2392C45.9734 53.5876 46.6201 53.8832 47.2886 54.1228L47.4067 54.1634C48.7532 54.6322 50.1702 54.8709 51.5973 54.8693C51.8844 54.8693 52.161 54.8594 52.4194 54.84C53.0483 54.8017 53.6733 54.7163 54.2891 54.5843C54.627 54.511 54.9639 54.4234 55.2899 54.3242C55.3687 54.3011 55.4417 54.2785 55.5216 54.2537C56.85 53.8265 58.0983 53.1849 59.2163 52.3549C59.1265 52.1865 59.0283 52.0228 58.9219 51.8643C58.3471 50.9933 57.5623 50.2781 56.6386 49.7836C55.715 49.2891 54.6816 49.0309 53.6319 49.0322H51.3303C50.1162 49.0325 48.9279 49.3787 47.9067 50.0299C46.8855 50.681 46.0745 51.6095 45.5702 52.7048C45.4896 52.8792 45.4179 53.0576 45.3555 53.2392Z" fill="#E6E6E6"/>
<path id="Vector_7" d="M53.5035 54.4743C53.3566 54.485 53.2152 54.5342 53.0938 54.6168C53.7108 54.5787 54.3241 54.4943 54.9284 54.3643L53.5035 54.4743Z" fill="#2F2E41"/>
<path id="Vector_8" d="M52.2842 29.6123C49.4676 29.6126 46.7299 30.535 44.496 32.2364C42.2621 33.9378 40.657 36.3229 39.9298 39.0217C39.2025 41.7204 39.3939 44.5818 40.4741 47.1616C41.5543 49.7415 43.463 51.8955 45.9039 53.2894C46.5519 53.6615 47.232 53.9755 47.9363 54.2276L48.056 54.2687C49.4146 54.7418 50.8443 54.9826 52.2842 54.9809C52.5627 54.9809 52.8412 54.9718 53.1151 54.9513C53.7491 54.9126 54.3792 54.8264 55.0001 54.6933C55.3477 54.618 55.6884 54.5289 56.0106 54.4308C56.0888 54.408 56.1624 54.3851 56.243 54.36C59.1378 53.4249 61.6013 51.4963 63.1908 48.921C64.7802 46.3456 65.3914 43.2924 64.9143 40.3102C64.4372 37.328 62.9033 34.6124 60.5882 32.6515C58.2731 30.6905 55.3287 29.6129 52.2842 29.6123ZM59.7047 51.7987C58.6013 52.6431 57.3595 53.2926 56.0336 53.7185C55.9623 53.7414 55.8885 53.7642 55.8149 53.787C55.5088 53.8806 55.1866 53.9628 54.8551 54.0336C54.2677 54.1607 53.6714 54.2431 53.0713 54.2801C52.8113 54.2984 52.5465 54.3075 52.2842 54.3075C50.9213 54.3083 49.568 54.0806 48.2816 53.6341L48.1688 53.5953C47.4683 53.3456 46.7932 53.0307 46.1525 52.6548C43.9212 51.3519 42.1701 49.3736 41.1564 47.0105C40.1428 44.6474 39.9201 42.0242 40.5211 39.5262C41.1221 37.0283 42.5151 34.7875 44.4953 33.1329C46.4756 31.4784 48.9387 30.4974 51.5228 30.3342C54.1068 30.171 56.6755 30.8341 58.8514 32.2261C61.0273 33.6181 62.6957 35.6656 63.6113 38.0677C64.527 40.4698 64.6416 43.0999 63.9385 45.5714C63.2353 48.0429 61.7513 50.2256 59.7047 51.7987Z" fill="#CCCCCC"/>
<path id="Vector_9" d="M101.272 115.373H34.2416C33.3977 115.372 32.5886 115.039 31.9919 114.447C31.3952 113.855 31.0595 113.053 31.0586 112.216V21.966C31.0595 21.129 31.3952 20.3266 31.9919 19.7348C32.5886 19.1429 33.3977 18.81 34.2416 18.8091H101.272C102.116 18.81 102.925 19.1429 103.521 19.7348C104.118 20.3266 104.454 21.129 104.455 21.966V112.216C104.454 113.053 104.118 113.855 103.521 114.447C102.925 115.039 102.116 115.372 101.272 115.373ZM34.2416 19.1805C33.497 19.1813 32.7831 19.4751 32.2566 19.9973C31.7301 20.5195 31.4339 21.2275 31.4331 21.966V112.216C31.4339 112.954 31.7301 113.662 32.2566 114.185C32.7831 114.707 33.497 115.001 34.2416 115.001H101.272C102.016 115.001 102.73 114.707 103.257 114.185C103.783 113.662 104.079 112.954 104.08 112.216V21.966C104.079 21.2275 103.783 20.5195 103.257 19.9973C102.73 19.4751 102.016 19.1813 101.272 19.1805L34.2416 19.1805Z" fill="#CCCCCC"/>
<path id="Vector_10" d="M88.2959 42.2474H69.3286C68.9307 42.2474 68.549 42.0906 68.2676 41.8115C67.9862 41.5324 67.8281 41.1539 67.8281 40.7592C67.8281 40.3645 67.9862 39.986 68.2676 39.7069C68.549 39.4278 68.9307 39.271 69.3286 39.271H88.2959C88.6939 39.271 89.0755 39.4278 89.3569 39.7069C89.6383 39.986 89.7964 40.3645 89.7964 40.7592C89.7964 41.1539 89.6383 41.5324 89.3569 41.8115C89.0755 42.0906 88.6939 42.2474 88.2959 42.2474Z" fill="#E6E6E6"/>
<path id="Vector_11" d="M94.4856 47.2714H69.3286C68.9307 47.2714 68.549 47.1146 68.2676 46.8355C67.9862 46.5564 67.8281 46.1778 67.8281 45.7831C67.8281 45.3884 67.9862 45.0099 68.2676 44.7308C68.549 44.4517 68.9307 44.2949 69.3286 44.2949H94.4856C94.8835 44.2949 95.2652 44.4517 95.5466 44.7308C95.828 45.0099 95.9861 45.3884 95.9861 45.7831C95.9861 46.1778 95.828 46.5564 95.5466 46.8355C95.2652 47.1146 94.8835 47.2714 94.4856 47.2714Z" fill="#E6E6E6"/>
<path id="Vector_12" d="M88.2676 66.535H41.0279C40.6299 66.535 40.2482 66.3782 39.9668 66.0991C39.6854 65.82 39.5273 65.4415 39.5273 65.0468C39.5273 64.6521 39.6854 64.2736 39.9668 63.9945C40.2482 63.7154 40.6299 63.5586 41.0279 63.5586H88.2676C88.6656 63.5586 89.0473 63.7154 89.3287 63.9945C89.6101 64.2736 89.7682 64.6521 89.7682 65.0468C89.7682 65.4415 89.6101 65.82 89.3287 66.0991C89.0473 66.3782 88.6656 66.535 88.2676 66.535Z" fill="#E6E6E6"/>
<path id="Vector_13" d="M94.4573 71.5589H41.0279C40.6299 71.5589 40.2482 71.4022 39.9668 71.1231C39.6854 70.844 39.5273 70.4654 39.5273 70.0707C39.5273 69.676 39.6854 69.2975 39.9668 69.0184C40.2482 68.7393 40.6299 68.5825 41.0279 68.5825H94.4573C94.8553 68.5825 95.2369 68.7393 95.5183 69.0184C95.7997 69.2975 95.9578 69.676 95.9578 70.0707C95.9578 70.4654 95.7997 70.844 95.5183 71.1231C95.2369 71.4022 94.8553 71.5589 94.4573 71.5589Z" fill="#E6E6E6"/>
<path id="Vector_14" d="M88.2676 83.1019H41.0279C40.6299 83.1019 40.2482 82.9451 39.9668 82.666C39.6854 82.3869 39.5273 82.0084 39.5273 81.6137C39.5273 81.219 39.6854 80.8405 39.9668 80.5614C40.2482 80.2823 40.6299 80.1255 41.0279 80.1255H88.2676C88.6656 80.1255 89.0473 80.2823 89.3287 80.5614C89.6101 80.8405 89.7682 81.219 89.7682 81.6137C89.7682 82.0084 89.6101 82.3869 89.3287 82.666C89.0473 82.9451 88.6656 83.1019 88.2676 83.1019Z" fill="#E6E6E6"/>
<path id="Vector_15" d="M94.4573 88.1239H41.0279C40.6299 88.1239 40.2482 87.9671 39.9668 87.688C39.6854 87.4089 39.5273 87.0304 39.5273 86.6357C39.5273 86.241 39.6854 85.8625 39.9668 85.5834C40.2482 85.3043 40.6299 85.1475 41.0279 85.1475H94.4573C94.8553 85.1475 95.2369 85.3043 95.5183 85.5834C95.7997 85.8625 95.9578 86.241 95.9578 86.6357C95.9578 87.0304 95.7997 87.4089 95.5183 87.688C95.2369 87.9671 94.8553 88.1239 94.4573 88.1239Z" fill="#E6E6E6"/>
<path id="Vector_16" d="M88.2676 99.6693H41.0279C40.6299 99.6693 40.2482 99.5125 39.9668 99.2334C39.6854 98.9543 39.5273 98.5758 39.5273 98.1811C39.5273 97.7864 39.6854 97.4078 39.9668 97.1288C40.2482 96.8497 40.6299 96.6929 41.0279 96.6929H88.2676C88.6656 96.6929 89.0473 96.8497 89.3287 97.1288C89.6101 97.4078 89.7682 97.7864 89.7682 98.1811C89.7682 98.5758 89.6101 98.9543 89.3287 99.2334C89.0473 99.5125 88.6656 99.6693 88.2676 99.6693Z" fill="#E6E6E6"/>
<path id="Vector_17" d="M94.4573 104.691H41.0279C40.6299 104.691 40.2482 104.534 39.9668 104.255C39.6854 103.976 39.5273 103.597 39.5273 103.203C39.5273 102.808 39.6854 102.429 39.9668 102.15C40.2482 101.871 40.6299 101.714 41.0279 101.714H94.4573C94.8549 101.715 95.2361 101.872 95.5171 102.151C95.7981 102.43 95.956 102.808 95.956 103.203C95.956 103.597 95.7981 103.975 95.5171 104.254C95.2361 104.533 94.8549 104.69 94.4573 104.691Z" fill="#E6E6E6"/>
<path id="Vector_18" d="M129.233 53.9027C129.295 53.3372 129.18 52.7666 128.903 52.2684C128.627 51.7701 128.202 51.3685 127.687 51.1179L76.028 26.0764C75.6995 25.917 75.3426 25.8234 74.9775 25.8008C74.6125 25.7782 74.2466 25.8271 73.9007 25.9448C73.5547 26.0625 73.2356 26.2466 72.9614 26.4866C72.6872 26.7266 72.4633 27.0178 72.3026 27.3437L72.3016 27.3456L52.9262 66.6628C52.6028 67.3214 52.5559 68.0803 52.7958 68.7731C53.0357 69.4659 53.5427 70.0361 54.2058 70.3587L105.865 95.4002C106.529 95.7209 107.294 95.7674 107.993 95.5295C108.691 95.2916 109.266 94.7887 109.591 94.131L128.967 54.8137C129.108 54.5277 129.198 54.2194 129.233 53.9027Z" fill="white"/>
<path id="Vector_19" d="M129.233 53.9027C129.295 53.3372 129.18 52.7666 128.903 52.2684C128.627 51.7701 128.202 51.3685 127.687 51.1179L76.028 26.0764C75.6995 25.917 75.3426 25.8234 74.9775 25.8008C74.6125 25.7782 74.2466 25.8271 73.9007 25.9448C73.5547 26.0625 73.2356 26.2466 72.9614 26.4866C72.6872 26.7266 72.4633 27.0178 72.3026 27.3437L72.3016 27.3456L52.9262 66.6628C52.6028 67.3214 52.5559 68.0803 52.7958 68.7731C53.0357 69.4659 53.5427 70.0361 54.2058 70.3587L105.865 95.4002C106.529 95.7209 107.294 95.7674 107.993 95.5295C108.691 95.2916 109.266 94.7887 109.591 94.131L128.967 54.8137C129.108 54.5277 129.198 54.2194 129.233 53.9027ZM109.297 93.9883C109.01 94.5687 108.503 95.0125 107.886 95.2224C107.27 95.4324 106.595 95.3913 106.009 95.1081L54.3497 70.0666C53.7646 69.7821 53.3171 69.279 53.1054 68.6676C52.8937 68.0563 52.9352 67.3867 53.2206 66.8056L72.5961 27.4883C72.883 26.9079 73.3903 26.4641 74.0067 26.2542C74.6231 26.0443 75.2982 26.0854 75.8841 26.3685L127.543 51.41C128.128 51.6945 128.576 52.1976 128.787 52.809C128.999 53.4203 128.958 54.0899 128.672 54.671L109.297 93.9883Z" fill="#3F3D56"/>
<path id="Vector_20" d="M123.598 55.6913L110.068 83.1454C109.978 83.3286 109.818 83.4689 109.624 83.5352C109.429 83.6015 109.216 83.5885 109.031 83.499L62.0405 60.7203C62.0069 60.7044 61.9747 60.6856 61.9444 60.6642C61.7903 60.5602 61.6792 60.4046 61.6314 60.2259C61.5836 60.0472 61.6023 59.8574 61.6842 59.6913L75.2135 32.2373C75.2582 32.1465 75.3204 32.0654 75.3967 31.9985C75.473 31.9316 75.5619 31.8803 75.6582 31.8474C75.7545 31.8146 75.8563 31.8009 75.958 31.8071C76.0596 31.8133 76.159 31.8393 76.2505 31.8837L123.241 54.6623C123.426 54.7518 123.568 54.9105 123.634 55.1034C123.701 55.2962 123.688 55.5076 123.598 55.6909L123.598 55.6913Z" fill="#E6E6E6"/>
<path id="Vector_21" d="M82.3443 54.2963C86.1028 54.2963 89.1496 51.2744 89.1496 47.5468C89.1496 43.8192 86.1028 40.7974 82.3443 40.7974C78.5859 40.7974 75.5391 43.8192 75.5391 47.5468C75.5391 51.2744 78.5859 54.2963 82.3443 54.2963Z" fill="#339999"/>
<path id="Vector_22" d="M92.3086 75.5268L62.3148 60.9874C62.277 60.9697 62.2409 60.9485 62.207 60.9242L88.4022 43.4306C88.5636 43.3208 88.7515 43.2555 88.9466 43.2412C89.1418 43.227 89.3373 43.2644 89.5131 43.3497C89.6889 43.4349 89.8388 43.5649 89.9474 43.7263C90.056 43.8878 90.1194 44.075 90.1312 44.2687L91.5922 65.2379L91.6627 66.2416L92.3086 75.5268Z" fill="#3F3D56"/>
<path id="Vector_23" opacity="0.2" d="M92.307 75.5275L82.0664 70.5634L90.6624 65.7581L91.2814 65.412L91.5907 65.2388L91.6611 66.2423L92.307 75.5275Z" fill="black"/>
<path id="Vector_24" d="M109.009 83.6232L83.0664 71.0478L91.6624 66.2425L92.2813 65.8962L103.483 59.6338C104.217 59.2234 105.269 59.6857 105.508 60.4709C105.524 60.5242 105.536 60.5784 105.545 60.6333L109.009 83.6232Z" fill="#3F3D56"/>
<path id="Vector_25" d="M28.9655 86.0197L31.7871 86.0195L33.1297 75.2246L28.9648 75.2248L28.9655 86.0197Z" fill="#FFB8B8"/>
<path id="Vector_26" d="M28.2461 85.1062L33.8032 85.106C34.2683 85.1059 34.729 85.1968 35.1587 85.3733C35.5884 85.5498 35.9788 85.8085 36.3076 86.1347C36.6365 86.4608 36.8973 86.848 37.0753 87.2742C37.2533 87.7003 37.3449 88.1571 37.3449 88.6183V88.7324L28.2463 88.7328L28.2461 85.1062Z" fill="#2F2E41"/>
<path id="Vector_27" d="M7.03125 84.2383L9.95483 84.8053L13.5519 73.8913L9.23717 73.0542L7.03125 84.2383Z" fill="#FFB8B8"/>
<path id="Vector_28" d="M6.4715 83.1465L12.229 84.2635L12.2292 84.2635C12.711 84.357 13.1696 84.5437 13.5787 84.813C13.9878 85.0822 14.3394 85.4287 14.6134 85.8328C14.8875 86.2368 15.0786 86.6904 15.1759 87.1677C15.2732 87.645 15.2747 88.1366 15.1805 88.6145L15.1571 88.7327L5.73047 86.9039L6.4715 83.1465Z" fill="#2F2E41"/>
<path id="Vector_29" d="M33.0719 48.782C32.9763 48.4601 32.8108 48.1628 32.5869 47.9112C32.363 47.6596 32.0862 47.4597 31.776 47.3257C31.4658 47.1916 31.1297 47.1267 30.7915 47.1354C30.4532 47.1441 30.121 47.2262 29.8183 47.3761L23.9365 41.6738L23.125 45.8358L28.8348 50.6126C29.1223 51.1004 29.5802 51.4667 30.1218 51.642C30.6633 51.8173 31.2509 51.7895 31.7732 51.5639C32.2955 51.3382 32.7161 50.9304 32.9555 50.4177C33.1948 49.905 33.2363 49.323 33.0719 48.782Z" fill="#FFB8B8"/>
<path id="Vector_30" d="M11.2469 19.4323C14.369 19.4323 16.9 16.922 16.9 13.8255C16.9 10.729 14.369 8.21875 11.2469 8.21875C8.12474 8.21875 5.59375 10.729 5.59375 13.8255C5.59375 16.922 8.12474 19.4323 11.2469 19.4323Z" fill="#FFB8B8"/>
<path id="Vector_31" d="M10.0601 19.5177C10.3604 19.648 10.9755 17.2743 10.7 16.7995C10.2903 16.0935 10.3145 16.0986 10.0425 15.6314C9.77045 15.1643 9.70959 14.5249 10.0618 14.1139C10.4141 13.7029 11.2292 13.7574 11.39 14.2728C11.2866 13.294 12.2628 12.5071 13.2297 12.286C14.1967 12.0649 15.2166 12.2022 16.1889 12.0054C17.3173 11.7771 18.4913 10.839 18.0411 9.60835C17.9638 9.40346 17.8482 9.21492 17.7002 9.0527C17.18 8.47265 16.4524 8.22497 15.741 7.9855C14.261 7.48729 12.7406 6.98282 11.1786 7.03782C9.89168 7.10456 8.65226 7.54193 7.61204 8.29642C6.57183 9.05091 5.77593 10.0898 5.32175 11.2859C5.21411 11.5851 5.13072 11.8924 5.07238 12.2048C4.53626 15.0638 6.21025 17.8839 8.9291 18.9726L10.0601 19.5177Z" fill="#2F2E41"/>
<path id="Vector_32" d="M8.67503 50.3172C8.53085 50.2308 8.4153 50.1044 8.3426 49.9536C8.2699 49.8029 8.24322 49.6344 8.26583 49.4688L5.71489 36.936L3.12912 27.3175C2.84524 26.2635 2.93103 25.1452 3.37231 24.1459C3.81359 23.1467 4.5842 22.3258 5.55772 21.8181L7.26717 20.2139L10.9964 21.8074L12.7685 23.5944C14.0395 24.2081 15.1669 25.0789 16.0784 26.1506C16.9898 27.2224 17.6651 28.4714 18.0607 29.8174L20.9029 39.4633L27.4667 49.1484C27.5763 49.3098 27.6275 49.5033 27.6121 49.6973C27.5966 49.8913 27.5154 50.0743 27.3816 50.2167C26.4685 51.1909 8.67503 50.3172 8.67503 50.3172Z" fill="#2F2E41"/>
<path id="Vector_33" d="M25.8699 49.4283L16.1912 42.7764C14.872 41.8634 13.917 40.521 13.492 38.9823L10.7715 29.13C10.6702 28.7691 10.6429 28.3917 10.6911 28.0201C10.7394 27.6486 10.8623 27.2904 11.0525 26.9667C11.3109 26.5198 11.6911 26.1542 12.1495 25.912C12.6079 25.6697 13.126 25.5606 13.6441 25.5973C14.1622 25.6339 14.6594 25.8147 15.0785 26.119C15.4977 26.4233 15.8218 26.8386 16.0136 27.3174L20.0483 37.1608L28.6451 45.2524C28.7418 45.3689 28.8062 45.5085 28.8317 45.6573C28.8573 45.8061 28.8432 45.9589 28.7909 46.1007L27.1536 49.0036C27.0968 49.1709 26.9886 49.3164 26.8442 49.4196C26.6998 49.5228 26.5264 49.5785 26.3484 49.579C26.1771 49.5788 26.0099 49.5262 25.8699 49.4283Z" fill="#2F2E41"/>
<path id="Vector_34" d="M5.76437 82.5669C5.68524 82.4544 5.63457 82.3247 5.61665 82.1887C5.59872 82.0527 5.61406 81.9144 5.66137 81.7855L10.1389 65.6417L10.4699 49.8231L25.5427 48.7979L25.6159 48.793L30.1557 56.9537C31.5771 59.5052 32.4472 62.3222 32.7106 65.2255L34.2067 81.4856C34.2293 81.7067 34.1636 81.9277 34.0237 82.1012C33.8838 82.2746 33.6809 82.3868 33.4585 82.4135L28.9137 82.8422C28.6948 82.8686 28.474 82.8091 28.2986 82.6765C28.1233 82.5438 28.0071 82.3484 27.9749 82.1319L26.1294 65.6085L19.4892 54.481L17.2602 66.1959L12.6424 82.3738C12.5821 82.5353 12.4736 82.6747 12.3314 82.7736C12.1893 82.8725 12.0201 82.9262 11.8465 82.9276L6.46053 82.9298C6.32341 82.9304 6.18822 82.8977 6.06683 82.8344C5.94545 82.7711 5.84159 82.6792 5.76437 82.5669Z" fill="#2F2E41"/>
<path id="Vector_35" d="M121.175 135.662H7.5955C5.58175 135.66 3.65112 134.866 2.22718 133.453C0.803244 132.041 0.00227474 130.126 0 128.129V66.2656C0.00227474 64.2684 0.803244 62.3536 2.22718 60.9413C3.65112 59.5291 5.58175 58.7347 7.5955 58.7324H21.5212C23.4107 58.7308 25.2327 59.4293 26.6298 60.691L41.7314 71.3861C42.7159 72.2784 44.0018 72.7727 45.3355 72.7716H121.88C122.887 72.7716 123.883 72.9701 124.812 73.3556C125.741 73.7411 126.583 74.3059 127.29 75.0171C127.997 75.7283 128.554 76.5718 128.929 77.4984C129.304 78.4251 129.489 79.4165 129.475 80.4149L128.769 128.239C128.732 130.215 127.916 132.098 126.497 133.486C125.078 134.873 123.167 135.654 121.175 135.662Z" fill="white"/>
<path id="Vector_36" d="M120.164 132.008H8.26569C7.29424 132.007 6.36289 131.624 5.67597 130.943C4.98905 130.262 4.60266 129.338 4.60156 128.374V65.4993C4.60266 64.5358 4.98906 63.6121 5.67597 62.9308C6.36289 62.2496 7.29424 61.8663 8.26569 61.8652C9.12493 61.8662 9.94869 62.2051 10.5563 62.8077C11.1638 63.4103 11.5056 64.2273 11.5066 65.0795V124.037C11.5076 124.94 11.8697 125.806 12.5135 126.444C13.1573 127.083 14.0301 127.442 14.9405 127.443H119.786C120.307 127.437 120.815 127.605 121.228 127.919C121.642 128.232 121.938 128.675 122.068 129.175C122.214 129.649 122.196 130.158 122.016 130.621C121.837 131.084 121.506 131.474 121.077 131.728C120.805 131.904 120.489 132.001 120.164 132.008Z" fill="#F2F2F2"/>
<path id="Vector_37" d="M65.2342 101.815L64.9396 101.523C64.8786 101.466 64.8428 101.388 64.84 101.305C64.8373 101.222 64.8678 101.141 64.925 101.081C64.9297 101.076 64.9346 101.071 64.9396 101.066L67.5244 98.5003C67.5527 98.4704 67.5867 98.4462 67.6244 98.4292C67.6621 98.4123 67.7028 98.4029 67.7442 98.4015C67.7856 98.4002 67.8269 98.4069 67.8656 98.4214C67.9044 98.4359 67.9399 98.4577 67.9701 98.4858C67.9751 98.4905 67.98 98.4953 67.9847 98.5003L70.5695 101.064C70.5997 101.093 70.6239 101.127 70.6407 101.166C70.6574 101.204 70.6664 101.245 70.6672 101.287C70.6679 101.328 70.6604 101.37 70.645 101.408C70.6296 101.447 70.6066 101.483 70.5775 101.513L70.5695 101.52L70.2749 101.813C70.2457 101.843 70.2109 101.867 70.1723 101.883C70.1338 101.9 70.0924 101.909 70.0504 101.91C70.0083 101.91 69.9666 101.903 69.9275 101.888C69.8884 101.872 69.8527 101.849 69.8225 101.821L69.8146 101.813L68.2863 100.215V104.006C68.2866 104.048 68.2786 104.089 68.263 104.127C68.2473 104.165 68.2241 104.2 68.1949 104.23C68.1656 104.259 68.1307 104.283 68.0923 104.299C68.0539 104.315 68.0127 104.323 67.9709 104.324L67.9686 104.324H67.5428C67.458 104.324 67.3766 104.29 67.3166 104.231C67.2566 104.171 67.2229 104.091 67.2229 104.006V100.219L65.6946 101.817C65.6353 101.877 65.5544 101.912 65.4696 101.913C65.3847 101.914 65.3029 101.882 65.2422 101.823L65.2342 101.815Z" fill="#339999"/>
<path id="Vector_38" d="M67.7524 96.1687C68.7899 96.1687 69.804 96.4738 70.6667 97.0455C71.5293 97.6172 72.2016 98.4297 72.5986 99.3803C72.9956 100.331 73.0995 101.377 72.8971 102.386C72.6947 103.395 72.1951 104.322 71.4615 105.05C70.7279 105.777 69.7933 106.273 68.7758 106.474C67.7582 106.674 66.7035 106.571 65.745 106.178C64.7866 105.784 63.9673 105.117 63.3909 104.262C62.8146 103.406 62.5069 102.4 62.5069 101.371C62.5081 99.9918 63.0612 98.6692 64.0446 97.6938C65.0281 96.7184 66.3616 96.1699 67.7524 96.1687ZM67.7524 95.4839C66.5784 95.4839 65.4307 95.8292 64.4545 96.4761C63.4784 97.123 62.7175 98.0425 62.2683 99.1182C61.819 100.194 61.7014 101.378 61.9305 102.52C62.1595 103.662 62.7249 104.711 63.555 105.534C64.3852 106.358 65.4429 106.918 66.5944 107.145C67.7458 107.373 68.9394 107.256 70.024 106.81C71.1087 106.365 72.0358 105.61 72.688 104.642C73.3403 103.674 73.6884 102.536 73.6884 101.371C73.6884 99.8098 73.063 98.3123 71.9498 97.2082C70.8366 96.1042 69.3267 95.4839 67.7524 95.4839Z" fill="#3F3D56"/>
<path id="Vector_39" d="M121.175 135.662H7.5955C5.58175 135.66 3.65112 134.866 2.22718 133.453C0.803244 132.041 0.00227474 130.126 0 128.129V66.2656C0.00227474 64.2684 0.803244 62.3536 2.22718 60.9413C3.65112 59.5291 5.58175 58.7347 7.5955 58.7324H21.5212C23.4107 58.7308 25.2327 59.4293 26.6298 60.691L41.7314 71.3861C42.7159 72.2784 44.0018 72.7727 45.3355 72.7716H121.88C122.887 72.7716 123.883 72.9701 124.812 73.3556C125.741 73.7411 126.583 74.3059 127.29 75.0171C127.997 75.7283 128.554 76.5718 128.929 77.4984C129.304 78.4251 129.489 79.4165 129.475 80.4149L128.769 128.239C128.732 130.215 127.916 132.098 126.497 133.486C125.078 134.873 123.167 135.654 121.175 135.662ZM7.5955 59.189C5.7038 59.1911 3.89019 59.9374 2.55255 61.264C1.21491 62.5907 0.462483 64.3894 0.460334 66.2656V128.129C0.462483 130.005 1.21491 131.804 2.55255 133.131C3.89019 134.457 5.7038 135.204 7.5955 135.206H121.175C123.047 135.198 124.841 134.464 126.175 133.161C127.508 131.858 128.274 130.089 128.309 128.233L129.014 80.4082C129.028 79.4703 128.854 78.539 128.502 77.6685C128.149 76.798 127.626 76.0056 126.962 75.3375C126.298 74.6694 125.507 74.1389 124.634 73.7767C123.762 73.4146 122.826 73.2281 121.88 73.2281H45.3355C43.8917 73.2293 42.4995 72.696 41.4314 71.7326L26.3298 61.0375C25.0162 59.847 23.3007 59.1875 21.5212 59.189H7.5955Z" fill="#3F3D56"/>
<path id="Vector_40" d="M130.801 136.868H127.98L127.098 126.073L130.802 126.073L130.801 136.868Z" fill="#FFB8B8"/>
<path id="Vector_41" d="M131.52 139.58L122.422 139.58V139.465C122.422 139.004 122.513 138.547 122.691 138.121C122.869 137.695 123.13 137.308 123.459 136.982C123.788 136.656 124.178 136.397 124.608 136.22C125.038 136.044 125.498 135.953 125.963 135.953L131.521 135.953L131.52 139.58Z" fill="#2F2E41"/>
<path id="Vector_42" d="M162.332 136.867H159.51L158.168 126.072L162.333 126.072L162.332 136.867Z" fill="#FFB8B8"/>
<path id="Vector_43" d="M163.052 139.58L153.953 139.58V139.465C153.953 139.004 154.045 138.547 154.223 138.121C154.401 137.695 154.662 137.308 154.99 136.982C155.319 136.656 155.71 136.397 156.139 136.22C156.569 136.044 157.03 135.953 157.495 135.953L163.052 135.953L163.052 139.58Z" fill="#2F2E41"/>
<path id="Vector_44" d="M153.056 103.497C153.445 103.044 153.665 102.472 153.677 101.876C153.689 101.281 153.494 100.7 153.123 100.232C153.048 100.143 152.965 100.059 152.876 99.983L155.002 92.2007L151.46 93.3662L149.984 100.578C149.739 101.023 149.631 101.529 149.673 102.034C149.714 102.539 149.904 103.02 150.218 103.42C150.383 103.635 150.594 103.811 150.836 103.935C151.079 104.059 151.346 104.127 151.618 104.134C151.891 104.142 152.162 104.088 152.41 103.978C152.659 103.868 152.88 103.703 153.056 103.497Z" fill="#FFB8B8"/>
<path id="Vector_45" d="M152.917 98.7094C152.873 98.7094 152.828 98.7061 152.784 98.6996L150.938 98.4235C150.795 98.399 150.658 98.3436 150.539 98.2613C150.419 98.179 150.319 98.0717 150.245 97.9469C150.085 97.6814 150.028 97.3673 150.083 97.0629L152.386 84.3063L150.824 76.1108C150.523 74.5336 151.3 72.9406 152.631 72.4054C153.026 72.2452 153.456 72.1892 153.88 72.243C154.303 72.2968 154.705 72.4584 155.046 72.7122C155.415 72.989 155.72 73.3395 155.943 73.7409C156.166 74.1424 156.301 74.5859 156.34 75.0426L157.446 85.4924L157.432 85.5379L153.875 97.9216C153.824 98.1386 153.702 98.333 153.529 98.4752C153.356 98.6174 153.141 98.6996 152.917 98.7094Z" fill="#339999"/>
<path id="Vector_46" d="M152.372 67.8893C155.494 67.8893 158.025 65.3791 158.025 62.2825C158.025 59.186 155.494 56.6758 152.372 56.6758C149.25 56.6758 146.719 59.186 146.719 62.2825C146.719 65.3791 149.25 67.8893 152.372 67.8893Z" fill="#FFB8B8"/>
<path id="Vector_47" d="M149.48 88.343C149.339 88.343 149.199 88.3172 149.068 88.2669L140.133 84.8584C139.891 84.7668 139.687 84.5968 139.555 84.376C139.423 84.1552 139.37 83.8966 139.405 83.6422L139.764 80.9729C139.551 80.0267 139.571 79.0435 139.821 78.1064C140.071 77.1692 140.545 76.3054 141.202 75.5878L141.42 75.3504L144.063 70.5693C144.243 70.2454 144.485 69.9598 144.775 69.7291C145.066 69.4984 145.4 69.3271 145.758 69.2251C146.116 69.123 146.491 69.0923 146.861 69.1347C147.231 69.177 147.589 69.2916 147.914 69.4718L152.583 72.0592C153.197 72.3992 153.661 72.955 153.883 73.6172C154.511 75.4919 154.465 77.5246 153.751 79.369L150.555 87.6113C150.471 87.8262 150.323 88.0109 150.131 88.1414C149.939 88.2719 149.712 88.3421 149.48 88.343Z" fill="#339999"/>
<path id="Vector_48" d="M126.063 134.217L126.051 134.215C125.898 134.185 125.753 134.126 125.625 134.04C125.496 133.954 125.386 133.843 125.302 133.714C125.218 133.585 125.16 133.44 125.134 133.288C125.108 133.136 125.112 132.981 125.148 132.831L131.995 103.146C133.116 98.4401 134.665 93.8446 136.622 89.4159L139.535 82.8286L150.405 87.7503L151.957 90.5656C153.167 93.701 153.789 97.0294 153.793 100.387L164.838 132.49C164.892 132.647 164.91 132.813 164.893 132.978C164.876 133.143 164.822 133.302 164.737 133.444C164.651 133.586 164.535 133.708 164.397 133.801C164.259 133.895 164.102 133.957 163.938 133.984L157.892 133.917C157.834 133.927 157.777 133.932 157.719 133.931C157.489 133.931 157.265 133.863 157.076 133.736C156.886 133.608 156.74 133.427 156.655 133.215L144.029 100.757C144.011 100.714 143.98 100.678 143.941 100.652C143.901 100.627 143.855 100.614 143.808 100.616C143.762 100.617 143.717 100.632 143.68 100.658C143.643 100.685 143.615 100.723 143.6 100.766L131.621 133.386C131.529 133.639 131.349 133.852 131.113 133.986C130.878 134.121 130.602 134.167 130.334 134.118L126.063 134.217Z" fill="#2F2E41"/>
<path id="Vector_49" d="M134.328 97.7123C134.647 97.5998 134.937 97.4194 135.178 97.1837C135.419 96.948 135.605 96.6629 135.722 96.3482C135.84 96.0336 135.887 95.6972 135.859 95.3627C135.832 95.0283 135.731 94.7038 135.563 94.4123L140.977 88.2715L136.742 87.6987L132.25 93.618C131.775 93.9297 131.432 94.4035 131.285 94.9495C131.139 95.4956 131.199 96.0759 131.456 96.5806C131.712 97.0852 132.146 97.4792 132.675 97.6878C133.204 97.8964 133.793 97.9051 134.328 97.7123Z" fill="#FFB8B8"/>
<path id="Vector_50" d="M136.879 93.3843C136.691 93.3842 136.505 93.3383 136.339 93.2506L134.433 92.2427C134.294 92.1687 134.171 92.0669 134.072 91.9437C133.974 91.8204 133.903 91.6784 133.862 91.5264C133.822 91.3744 133.814 91.2158 133.838 91.0606C133.862 90.9053 133.918 90.7566 134.003 90.6239L141.041 79.6261L142.261 71.3267C142.324 70.8977 142.474 70.4859 142.702 70.1162C142.931 69.7466 143.232 69.4266 143.589 69.1759C143.945 68.9251 144.349 68.7487 144.776 68.6574C145.204 68.566 145.645 68.5616 146.074 68.6444C146.503 68.7273 146.911 68.8956 147.272 69.1391C147.634 69.3827 147.942 69.6966 148.178 70.0616C148.413 70.4267 148.572 70.8354 148.644 71.263C148.715 71.6906 148.699 72.1282 148.595 72.5493L146.076 82.7787L137.775 92.961C137.667 93.0936 137.531 93.2005 137.376 93.2738C137.221 93.3471 137.051 93.3848 136.879 93.3843Z" fill="#339999"/>
<path id="Vector_51" d="M147.286 57.6547C147.94 55.5279 151.718 54.5791 154.858 55.4615C157.998 56.3439 160.254 58.6574 160.779 60.9194C161.942 65.9283 155.876 69.9936 156.976 75.0031C157.703 78.3174 161.909 81.4511 166.647 82.2079C161.426 83.2914 155.053 82.339 150.211 79.7518C147.198 78.1416 144.669 75.7116 144.707 73.2606C144.731 71.7766 145.682 70.4643 146.846 69.3306C148.01 68.1969 149.404 67.1891 150.472 66.0057C151.54 64.8223 152.28 63.4054 151.969 61.9031C151.657 60.4009 150.073 58.8343 147.942 58.3972L147.286 57.6547Z" fill="#2F2E41"/>
<path id="Vector_52" d="M178.771 139.999H91.0778C91.0168 139.999 90.9582 139.975 90.9151 139.932C90.8719 139.889 90.8477 139.831 90.8477 139.771C90.8477 139.71 90.8719 139.652 90.9151 139.609C90.9582 139.567 91.0168 139.542 91.0778 139.542H178.771C178.832 139.542 178.891 139.567 178.934 139.609C178.977 139.652 179.002 139.71 179.002 139.771C179.002 139.831 178.977 139.889 178.934 139.932C178.891 139.975 178.832 139.999 178.771 139.999Z" fill="#CCCCCC"/>
</g>
<defs>
<clipPath id="clip0_1990_34953">
<rect width="179" height="140" fill="white"/>
</clipPath>
</defs>
</svg>
