<svg width="170" height="162" viewBox="0 0 170 162" fill="none" xmlns="http://www.w3.org/2000/svg">
<g id="work-time/pana">
<g id="background-complete">
<path id="Vector" d="M23.6094 142.637V145.577H45.6208V142.637H23.6094Z" fill="#E0E0E0"/>
<path id="Vector_2" d="M26.6095 142.755C26.6838 142.755 26.7463 143.373 26.7463 144.135C26.7463 144.897 26.6838 145.511 26.6095 145.511C26.5352 145.511 26.4688 144.893 26.4688 144.135C26.4688 143.377 26.5313 142.755 26.6095 142.755Z" fill="#FAFAFA"/>
<path id="Vector_3" d="M26.129 142.697C26.2072 142.697 26.2659 143.315 26.2659 144.073C26.2659 144.832 26.2072 145.454 26.129 145.454C26.0508 145.454 25.9922 144.836 25.9922 144.073C25.9922 143.311 26.0508 142.697 26.129 142.697Z" fill="#FAFAFA"/>
<path id="Vector_4" d="M43.9259 142.754C44.0041 142.754 44.0667 143.372 44.0667 144.135C44.0667 144.897 44.0041 145.511 43.9259 145.511C43.8477 145.511 43.7891 144.893 43.7891 144.135C43.7891 143.376 43.8516 142.754 43.9259 142.754Z" fill="#FAFAFA"/>
<path id="Vector_5" d="M43.4454 142.697C43.5197 142.697 43.5823 143.315 43.5823 144.073C43.5823 144.832 43.5197 145.454 43.4454 145.454C43.3712 145.454 43.3047 144.836 43.3047 144.073C43.3047 143.311 43.3672 142.697 43.4454 142.697Z" fill="#FAFAFA"/>
<path id="Vector_6" d="M40.5645 144.192C40.5645 144.27 38.0428 144.329 34.9346 144.329C31.8264 144.329 29.3047 144.27 29.3047 144.192C29.3047 144.114 31.8264 144.055 34.9346 144.055C38.0428 144.055 40.5645 144.114 40.5645 144.192Z" fill="#FAFAFA"/>
<path id="Vector_7" d="M23.5156 155.876V161.756H45.527V155.876H23.5156Z" fill="#E0E0E0"/>
<path id="Vector_8" d="M45.8046 160.101C45.8046 160.101 45.7694 160.128 45.6873 160.167C45.6052 160.206 45.484 160.265 45.3198 160.335C44.8413 160.538 44.3397 160.681 43.8263 160.762C43.0036 160.911 42.1547 160.79 41.4062 160.418C40.9432 160.171 40.5483 159.814 40.2568 159.378C39.9221 158.881 39.7828 158.278 39.8658 157.685C39.9139 157.363 40.0491 157.06 40.2568 156.809C40.368 156.672 40.5096 156.562 40.6704 156.489C40.8312 156.416 41.0068 156.381 41.1833 156.387C41.3651 156.402 41.5418 156.454 41.7026 156.54C41.8633 156.626 42.0047 156.744 42.1178 156.887C42.3585 157.171 42.5071 157.522 42.5439 157.892C42.5739 158.273 42.5217 158.657 42.3909 159.016C42.26 159.376 42.0536 159.703 41.7854 159.976C41.2284 160.565 40.4772 160.933 39.6703 161.012C38.8394 161.092 38.0012 160.988 37.215 160.707C36.3749 160.444 35.6292 159.943 35.0686 159.264C34.7795 158.9 34.6053 158.457 34.5682 157.994C34.5448 157.752 34.5747 157.509 34.6558 157.281C34.7369 157.052 34.8671 156.845 35.0374 156.672C35.2237 156.493 35.4676 156.386 35.7255 156.371C35.9803 156.364 36.2313 156.435 36.4448 156.574C36.8574 156.845 37.1479 157.266 37.2541 157.747C37.3462 158.218 37.3146 158.704 37.1625 159.158C37.0103 159.612 36.7428 160.019 36.3862 160.339C35.6874 160.929 34.8196 161.282 33.9075 161.348C33.0429 161.447 32.1671 161.361 31.3388 161.094C30.5258 160.838 29.8319 160.298 29.384 159.573C29.1613 159.229 29.0232 158.837 28.981 158.429C28.9389 158.022 28.9939 157.61 29.1416 157.227C29.2147 157.036 29.3352 156.866 29.4917 156.733C29.6482 156.6 29.8358 156.509 30.0369 156.469C30.2303 156.434 30.4288 156.44 30.6199 156.485C30.811 156.531 30.9906 156.616 31.1472 156.735C31.4216 156.976 31.618 157.293 31.7113 157.646C31.8047 157.999 31.7907 158.372 31.6711 158.717C31.4571 159.333 31.072 159.876 30.5608 160.281C29.714 160.998 28.6514 161.411 27.5425 161.454C26.8676 161.478 26.1951 161.359 25.5688 161.107C24.9424 160.854 24.3761 160.473 23.9066 159.988C23.8125 159.891 23.7238 159.789 23.6407 159.683C23.6113 159.647 23.5852 159.609 23.5625 159.569C24.0272 160.082 24.5826 160.505 25.2006 160.816C25.9289 161.174 26.7361 161.341 27.5464 161.301C28.6162 161.24 29.636 160.828 30.4474 160.128C30.9237 159.743 31.2814 159.23 31.4796 158.65C31.5831 158.348 31.595 158.022 31.5136 157.713C31.4322 157.404 31.2612 157.126 31.0221 156.915C30.8908 156.817 30.7408 156.747 30.5815 156.709C30.4221 156.672 30.2568 156.667 30.0955 156.696C29.9321 156.729 29.78 156.805 29.654 156.914C29.5281 157.024 29.4324 157.164 29.3762 157.321C29.2476 157.666 29.2022 158.037 29.2437 158.403C29.2851 158.769 29.4122 159.121 29.6147 159.428C30.0344 160.098 30.681 160.595 31.4366 160.828C32.2291 161.079 33.066 161.159 33.8918 161.063C34.7454 160.999 35.5576 160.67 36.2142 160.12C36.5362 159.83 36.7775 159.462 36.9146 159.051C37.0516 158.64 37.0797 158.2 36.9961 157.775C36.908 157.361 36.6626 156.998 36.3119 156.762C36.1537 156.645 35.9595 156.587 35.763 156.599C35.5665 156.61 35.3803 156.69 35.2368 156.825C35.0946 156.968 34.9859 157.142 34.9183 157.332C34.8507 157.523 34.826 157.726 34.8458 157.927C34.8787 158.338 35.0324 158.73 35.2876 159.053C35.8145 159.689 36.5135 160.16 37.3011 160.41C38.0517 160.68 38.8523 160.783 39.6469 160.711C40.3906 160.639 41.084 160.303 41.6017 159.765C41.8485 159.518 42.0393 159.221 42.1614 158.893C42.2835 158.566 42.3339 158.217 42.3093 157.868C42.2961 157.552 42.1761 157.25 41.9687 157.01C41.7613 156.771 41.479 156.609 41.1677 156.551C41.0228 156.546 40.8788 156.575 40.7466 156.635C40.6145 156.694 40.4977 156.783 40.4053 156.895C40.2146 157.117 40.0888 157.388 40.0417 157.677C39.9617 158.224 40.0886 158.782 40.3975 159.241C40.6686 159.658 41.0377 160.003 41.4727 160.246C42.195 160.616 43.0169 160.746 43.8185 160.617C44.3257 160.548 44.8239 160.423 45.3041 160.246C45.6325 160.163 45.8007 160.089 45.8046 160.101Z" fill="#FAFAFA"/>
<path id="Vector_9" d="M25.4844 145.659V155.863H45.5292V145.659H25.4844Z" fill="#EBEBEB"/>
<path id="Vector_10" d="M28.8126 146.013C28.8869 146.013 28.9495 148.222 28.9495 150.951C28.9495 153.68 28.8869 155.889 28.8126 155.889C28.7383 155.889 28.6719 153.68 28.6719 150.951C28.6719 148.222 28.7344 146.013 28.8126 146.013Z" fill="#E0E0E0"/>
<path id="Vector_11" d="M30.3361 145.882C30.4103 145.882 30.4729 148.067 30.4729 150.757C30.4729 153.447 30.4103 155.633 30.3361 155.633C30.2618 155.633 30.1953 153.451 30.1953 150.757C30.1953 148.063 30.2579 145.882 30.3361 145.882Z" fill="#E0E0E0"/>
<path id="Vector_12" d="M43.2657 145.569C43.34 145.569 43.4026 147.868 43.4026 150.706C43.4026 153.545 43.34 155.84 43.2657 155.84C43.1915 155.84 43.125 153.541 43.125 150.706C43.125 147.872 43.1876 145.569 43.2657 145.569Z" fill="#E0E0E0"/>
<path id="Vector_13" d="M41.4767 145.693C41.551 145.693 41.6135 147.929 41.6135 150.693C41.6135 153.458 41.551 155.694 41.4767 155.694C41.4024 155.694 41.3359 153.458 41.3359 150.693C41.3359 147.929 41.3985 145.693 41.4767 145.693Z" fill="#E0E0E0"/>
<path id="Vector_14" d="M149.378 123.387C151.458 122.312 153.901 122.175 156.212 122.554C157.451 122.761 158.742 123.129 159.586 124.063C160.431 124.998 160.587 126.632 159.621 127.429C159.043 127.906 158.241 127.981 157.491 127.969C155.684 127.949 153.683 127.633 152.24 128.72C151.415 129.337 150.868 130.37 149.894 130.674C148.921 130.979 147.845 130.405 147.337 129.537C146.867 128.631 146.764 127.58 147.048 126.601C147.163 125.922 147.433 125.279 147.837 124.721C148.241 124.164 148.769 123.707 149.378 123.387Z" fill="#EBEBEB"/>
<path id="Vector_15" d="M144.622 114.194C145.893 116.008 148.364 115.406 149.509 114.3C150.655 113.193 151.14 111.586 151.577 110.054C152.586 106.559 153.599 102.887 152.852 99.3256C152.673 98.2452 152.198 97.2356 151.48 96.409C151.116 96.0014 150.653 95.6961 150.135 95.5232C149.617 95.3504 149.063 95.3161 148.528 95.4237C147.285 95.7561 146.511 96.9876 145.951 98.1332C144.304 101.56 143.44 105.31 143.422 109.112C143.422 110.879 143.625 112.732 144.622 114.194Z" fill="#EBEBEB"/>
<path id="Vector_16" d="M141.143 116.798C142.523 115.16 142.785 112.771 142.171 110.723C141.558 108.674 140.17 106.922 138.571 105.499C136.689 103.824 134.499 102.532 132.124 101.695C131.204 101.325 130.216 101.157 129.227 101.203C128.732 101.231 128.251 101.381 127.828 101.637C127.404 101.894 127.049 102.251 126.795 102.677C126.114 103.971 126.767 105.538 127.471 106.821C128.711 109.075 130.126 111.23 131.701 113.264C132.972 114.902 134.438 116.517 136.358 117.256C138.277 117.995 140.303 117.905 141.327 116.564" fill="#EBEBEB"/>
<path id="Vector_17" d="M144.537 141.571C144.605 141.301 144.644 141.024 144.655 140.746C144.713 140.148 144.784 139.393 144.874 138.498C144.986 137.389 145.154 136.286 145.378 135.194C145.672 133.861 146.074 132.553 146.578 131.284C147.074 130.024 147.744 128.84 148.568 127.766C149.241 126.89 150.099 126.176 151.082 125.674C151.75 125.346 152.465 125.123 153.201 125.013C153.478 125.005 153.754 124.965 154.022 124.896C153.744 124.865 153.464 124.865 153.186 124.896C152.421 124.954 151.673 125.149 150.977 125.471C149.943 125.96 149.035 126.681 148.326 127.578C147.464 128.668 146.768 129.88 146.262 131.175C145.757 132.459 145.364 133.784 145.089 135.135C144.876 136.24 144.728 137.356 144.647 138.478C144.577 139.432 144.549 140.206 144.537 140.742C144.508 141.017 144.508 141.295 144.537 141.571Z" fill="#E0E0E0"/>
<path id="Vector_18" d="M144.691 139.838C144.715 139.709 144.722 139.578 144.715 139.447C144.715 139.162 144.715 138.798 144.715 138.352C144.715 137.406 144.715 136.03 144.761 134.333C144.847 130.94 145.152 127.296 145.704 122.135C146.239 117.295 146.955 111.657 147.713 107.994C147.874 107.161 148.038 106.41 148.194 105.753C148.351 105.096 148.464 104.53 148.585 104.072C148.706 103.615 148.773 103.29 148.839 103.009C148.874 102.881 148.898 102.75 148.91 102.618C148.85 102.731 148.805 102.852 148.777 102.977C148.691 103.251 148.585 103.599 148.456 104.025C148.327 104.451 148.171 105.042 148.006 105.699C147.842 106.355 147.655 107.102 147.479 107.935C146.539 112.268 145.833 116.647 145.364 121.056C144.801 126.217 144.546 130.916 144.523 134.317C144.503 136.018 144.523 137.394 144.582 138.344C144.609 138.79 144.632 139.154 144.648 139.439C144.646 139.573 144.66 139.707 144.691 139.838Z" fill="#E0E0E0"/>
<path id="Vector_19" d="M144.711 130.774C144.741 130.394 144.741 130.013 144.711 129.633C144.668 128.898 144.567 127.834 144.359 126.536C144.11 125.014 143.775 123.508 143.355 122.024C142.862 120.199 142.23 118.413 141.466 116.684C140.158 113.495 138.281 110.572 135.926 108.055C135.516 107.625 135.08 107.221 134.62 106.843C134.421 106.675 134.23 106.507 134.065 106.374L133.561 106.026C133.257 105.794 132.934 105.587 132.595 105.408C132.541 105.482 133.96 106.315 135.75 108.223C138.028 110.762 139.855 113.671 141.154 116.825C141.9 118.542 142.531 120.308 143.042 122.11C143.538 123.768 143.867 125.293 144.117 126.575C144.367 127.858 144.488 128.921 144.571 129.644C144.587 130.024 144.634 130.402 144.711 130.774Z" fill="#E0E0E0"/>
<path id="Vector_20" d="M135.344 145.386L136.255 157.827H152.233L153.144 145.386H135.344Z" fill="#EBEBEB"/>
<path id="Vector_21" d="M155.054 140.483H133.805V145.386H155.054V140.483Z" fill="#EBEBEB"/>
<path id="Vector_22" d="M133.805 157.35V158.71H134.806H154.706V157.35H133.805Z" fill="#E0E0E0"/>
<path id="Vector_23" d="M135.782 160.95L134.805 158.561H153.942L152.801 160.95H135.782Z" fill="#E0E0E0"/>
<path id="Vector_24" d="M152.847 149.453C152.827 149.494 152.802 149.532 152.773 149.567C152.706 149.653 152.628 149.754 152.534 149.883L151.6 151.076L151.561 151.13L151.522 151.072C150.935 150.262 150.153 149.183 149.235 147.909H149.352L147.1 151.099L147.029 151.197L146.951 151.103L144.293 147.917H144.445L144.301 148.1L141.923 151.103L141.841 151.205L141.771 151.099C140.958 149.954 140.207 148.878 139.515 147.913H139.648L136.872 151.076L136.825 151.13L136.786 151.068L135.918 149.61C135.824 149.449 135.754 149.32 135.695 149.219C135.667 149.176 135.643 149.13 135.625 149.082C135.661 149.118 135.693 149.159 135.719 149.203L135.965 149.594L136.876 151.029H136.79L139.527 147.827L139.593 147.749L139.656 147.835L141.931 151.009H141.775L144.16 148.011L144.304 147.823L144.383 147.729L144.461 147.823L147.123 151.005H146.975L149.25 147.831L149.317 147.737L149.379 147.831L151.619 151.029H151.537C151.948 150.536 152.268 150.149 152.507 149.856L152.765 149.555C152.812 149.481 152.843 149.449 152.847 149.453Z" fill="#F5F5F5"/>
<path id="Vector_25" d="M153.367 145.303C153.367 145.358 149.36 145.401 144.422 145.401C139.484 145.401 135.477 145.358 135.477 145.303C135.477 145.248 139.48 145.205 144.422 145.205C149.364 145.205 153.367 145.248 153.367 145.303Z" fill="#F5F5F5"/>
<path id="Vector_26" d="M62.2442 15.7055C62.2442 15.7055 62.209 15.7055 62.1504 15.6781L61.8923 15.5765L60.9071 15.1659L57.2907 13.6021L45.4053 8.42562L44.9909 8.24186H45.0769L33.43 13.2424L29.9113 14.7202L28.9495 15.1112C28.8399 15.1615 28.7261 15.2021 28.6094 15.2324C28.7132 15.1705 28.8217 15.1169 28.9339 15.0721L29.88 14.642L33.3987 13.0977L45.0182 8.05811H45.0612H45.1042L45.5187 8.23795L57.3806 13.4769L60.9657 15.0838L61.9353 15.5334L62.1856 15.6546C62.207 15.6692 62.2267 15.6863 62.2442 15.7055Z" fill="#E0E0E0"/>
<path id="Vector_27" d="M80.7893 13.9995H4.4375V71.171H80.7893V13.9995Z" fill="#E0E0E0"/>
<path id="Vector_28" d="M78.4099 16.6587H7.10938V68.8219H78.4099V16.6587Z" fill="#FAFAFA"/>
<path id="Vector_29" d="M22.8516 39.4487C22.8516 39.4487 22.9258 48.2025 23.3715 50.8768L34.3538 50.3568C34.3538 50.3568 33.392 41.7555 33.7634 39.4487H22.8516Z" fill="#E0E0E0"/>
<path id="Vector_30" d="M28.2686 40.6851H28.4289C28.5818 40.6794 28.7348 40.6873 28.8863 40.7085C29.127 40.7443 29.3613 40.814 29.5822 40.9158C29.8748 41.0606 30.1333 41.2658 30.3407 41.5178C30.5957 41.8243 30.7764 42.1856 30.8685 42.5735C30.9544 43.0276 30.9152 43.4965 30.7551 43.9301C30.6733 44.1659 30.5699 44.3936 30.4463 44.6104C30.3151 44.831 30.1976 45.0595 30.0944 45.2946C29.8754 45.7932 29.7255 46.3194 29.6487 46.8585V46.8937H29.6135H28.5305H27.3928H27.3498V46.8546C27.3011 46.3181 27.1197 45.8022 26.822 45.3533C26.6891 45.1265 26.5444 44.9193 26.4311 44.7042C26.2891 44.5019 26.1586 44.2917 26.0401 44.0748C25.8395 43.6594 25.7792 43.1902 25.8681 42.7377C25.9319 42.3469 26.0771 41.974 26.2942 41.643C26.4796 41.3769 26.7229 41.1564 27.0058 40.9979C27.355 40.8126 27.7379 40.6996 28.1318 40.6655H28.2881C28.2881 40.6655 28.2881 40.6655 28.2491 40.6655H28.1318C27.9826 40.6831 27.8349 40.7119 27.69 40.7515C27.4588 40.8119 27.2366 40.9026 27.0292 41.0213C26.7526 41.1776 26.5158 41.3957 26.3372 41.6586C26.1353 41.9867 26.0023 42.3525 25.9463 42.7338C25.8609 43.1723 25.9214 43.6268 26.1183 44.0279C26.238 44.2416 26.3685 44.449 26.5093 44.6495C26.6461 44.8567 26.7907 45.0718 26.9237 45.2985C27.2323 45.7577 27.4193 46.2877 27.4671 46.8389L27.4241 46.7959H28.5618H29.6487L29.6057 46.835C29.6839 46.289 29.8365 45.7562 30.0592 45.2516C30.1665 45.0146 30.2866 44.7836 30.4189 44.5596C30.5403 44.3477 30.6424 44.1252 30.7239 43.8949C30.8821 43.4747 30.924 43.0195 30.8451 42.5774C30.7559 42.1989 30.5837 41.8449 30.3407 41.5413C30.139 41.2924 29.8873 41.0886 29.6018 40.9431C29.3854 40.8385 29.1549 40.7661 28.9176 40.7281C28.7687 40.7053 28.6186 40.6922 28.468 40.689H28.3468C28.2842 40.689 28.2686 40.689 28.2686 40.6851Z" fill="white"/>
<path id="Vector_31" d="M28.8299 46.7878C28.8291 46.776 28.8291 46.7643 28.8299 46.7526V46.6509C28.8299 46.561 28.7947 46.4281 28.7713 46.2599C28.7204 45.9159 28.6462 45.4233 28.5992 44.8094C28.5992 44.657 28.5758 44.4967 28.5719 44.3286C28.562 44.1528 28.562 43.9765 28.5719 43.8007C28.5761 43.6121 28.6173 43.4262 28.6931 43.2534C28.7776 43.0668 28.9279 42.9178 29.1153 42.8351C29.2151 42.7931 29.3251 42.7815 29.4315 42.8017C29.5379 42.8218 29.6359 42.8729 29.7135 42.9484C29.7548 42.9867 29.7873 43.0333 29.8089 43.0853C29.8305 43.1373 29.8406 43.1933 29.8386 43.2495C29.8364 43.3627 29.798 43.4723 29.7291 43.5623C29.6584 43.6536 29.5674 43.7273 29.4633 43.7773C29.3599 43.8259 29.2509 43.8613 29.1388 43.8829C28.6808 43.9765 28.2102 43.9924 27.7469 43.9298C27.6323 43.9142 27.5205 43.8826 27.4146 43.8359C27.3114 43.7895 27.2183 43.7231 27.1409 43.6404C27.0616 43.5577 27.0062 43.455 26.9806 43.3433C26.956 43.2339 26.9699 43.1193 27.0197 43.0188C27.065 42.9176 27.1477 42.8377 27.2504 42.796C27.2992 42.775 27.3517 42.7642 27.4048 42.7642C27.4579 42.7642 27.5105 42.775 27.5593 42.796C27.6537 42.8388 27.7347 42.9063 27.7939 42.9914C27.8489 43.075 27.8886 43.1676 27.9111 43.2651C27.9443 43.451 27.9626 43.6393 27.9659 43.8281L28.0206 44.8329C28.048 45.4467 28.0753 45.9433 28.091 46.2912C28.091 46.4593 28.091 46.5923 28.091 46.6822V46.819C28.0918 46.8073 28.0918 46.7956 28.091 46.7838C28.091 46.7604 28.091 46.7252 28.091 46.6822C28.091 46.6392 28.091 46.4554 28.0675 46.2912C28.0675 45.9433 28.0167 45.4467 27.9815 44.8329C27.9815 44.5279 27.9463 44.1917 27.9268 43.8281C27.9243 43.6417 27.9046 43.4558 27.8681 43.2729C27.849 43.1793 27.8118 43.0904 27.7587 43.011C27.7006 42.9313 27.6242 42.867 27.5358 42.8233C27.4907 42.8041 27.4422 42.7941 27.3931 42.7941C27.3441 42.7941 27.2955 42.8041 27.2504 42.8233C27.1553 42.8629 27.0785 42.9369 27.0354 43.0305C26.9904 43.1255 26.978 43.2327 27.0002 43.3355C27.0265 43.4395 27.079 43.5351 27.1527 43.6131C27.3114 43.7696 27.5177 43.8687 27.7391 43.8946C27.9685 43.9247 28.2 43.9351 28.4311 43.9259C28.6623 43.9198 28.8926 43.8936 29.1192 43.8477C29.229 43.8267 29.3355 43.7912 29.4359 43.7421C29.535 43.6945 29.6219 43.625 29.69 43.5388C29.7546 43.4543 29.7915 43.3519 29.7956 43.2456C29.7954 43.1938 29.7849 43.1427 29.7648 43.095C29.7446 43.0474 29.7153 43.0042 29.6783 42.968C29.6047 42.8978 29.5126 42.8502 29.4128 42.8308C29.3131 42.8114 29.2098 42.821 29.1153 42.8585C28.9417 42.9369 28.8027 43.0759 28.7244 43.2495C28.65 43.42 28.6089 43.6031 28.6032 43.789C28.6032 43.9689 28.6032 44.1409 28.6032 44.309C28.6032 44.4771 28.6032 44.6374 28.6305 44.7938C28.6774 45.4076 28.7478 45.9003 28.7908 46.2404C28.8143 46.4124 28.8338 46.5414 28.8456 46.6314V46.733C28.8425 46.7518 28.8373 46.7702 28.8299 46.7878Z" fill="white"/>
<path id="Vector_32" d="M27.375 46.8458C27.3928 46.9662 27.4033 47.0877 27.4063 47.2094C27.4063 47.47 27.4219 47.7867 27.4532 48.1594V48.136L28.196 49H28.1569L29.0131 48.9531H28.978L29.4002 48.437L29.6152 48.1751V48.2103C29.6152 47.7059 29.5918 47.2328 29.584 46.8028L29.6309 46.8458H28.0318H27.375C27.4256 46.8386 27.4769 46.8386 27.5275 46.8458L27.9771 46.8223L29.6035 46.7598H29.6504V46.8067C29.6504 47.2407 29.6778 47.7137 29.6934 48.2142V48.2181C29.6231 48.3041 29.5527 48.394 29.4784 48.48L29.0522 49H29.0288L28.1726 49.043H28.1569L27.4297 48.179C27.4297 47.788 27.4297 47.4752 27.4297 47.2016C27.4045 47.0841 27.3862 46.9653 27.375 46.8458Z" fill="white"/>
<path id="Vector_33" d="M29.5917 48.0797C29.5917 48.0797 29.5605 48.0797 29.5096 48.0445C29.4369 48.012 29.3625 47.9833 29.2868 47.9585C29.0358 47.8709 28.7705 47.8311 28.5048 47.8412C28.2363 47.8471 27.9711 47.9028 27.7229 48.0054L27.5079 48.1071L27.4297 48.1462C27.4498 48.1251 27.4737 48.1079 27.5001 48.0954C27.5694 48.0532 27.6412 48.0154 27.7151 47.982C27.9616 47.8725 28.2274 47.8127 28.497 47.806C28.7637 47.7962 29.0296 47.8401 29.279 47.9351C29.3543 47.962 29.4275 47.9947 29.4979 48.0328L29.5917 48.0797Z" fill="white"/>
<path id="Vector_34" d="M29.5878 47.7405L29.5096 47.7053L29.2868 47.6154C29.0352 47.5301 28.7704 47.4904 28.5048 47.4981C28.2367 47.5077 27.9722 47.5633 27.7229 47.6623C27.6291 47.7014 27.5587 47.7366 27.5079 47.764L27.4297 47.8031L27.5001 47.7523C27.5687 47.7101 27.6406 47.6735 27.7151 47.6428C27.9613 47.5319 28.2271 47.4708 28.497 47.4629C28.7634 47.457 29.0286 47.5007 29.279 47.592C29.3728 47.6311 29.4471 47.6662 29.4979 47.6936C29.5487 47.721 29.5917 47.7366 29.5878 47.7405Z" fill="white"/>
<path id="Vector_35" d="M29.5722 47.4128L29.494 47.3816C29.4393 47.3581 29.365 47.3229 29.2712 47.2916C29.0195 47.2065 28.7548 47.1668 28.4892 47.1743C28.2206 47.1797 27.9554 47.2354 27.7073 47.3385C27.6135 47.3776 27.5431 47.4128 27.4923 47.4402L27.4141 47.4793L27.4844 47.4285C27.5533 47.3855 27.6251 47.3476 27.6995 47.3151C27.9467 47.2076 28.212 47.1479 28.4814 47.1392C28.7478 47.1335 29.0129 47.1773 29.2633 47.2682C29.3386 47.2969 29.4117 47.3309 29.4823 47.3698C29.5148 47.3781 29.5454 47.3927 29.5722 47.4128Z" fill="white"/>
<path id="Vector_36" d="M10.625 25.1509C10.625 25.1509 10.6993 33.9086 11.145 36.5789L22.1272 36.0589C22.1272 36.0589 21.1615 27.4576 21.533 25.1509H10.625Z" fill="#EBEBEB"/>
<path id="Vector_37" d="M19.8814 28.8099C18.6625 28.9903 17.4341 29.1 16.2024 29.1383C14.9744 29.2515 13.7405 29.2894 12.5078 29.2517C13.727 29.0735 14.9553 28.9639 16.1868 28.9233C17.4152 28.8147 18.6487 28.7769 19.8814 28.8099Z" fill="white"/>
<path id="Vector_38" d="M19.8775 30.6621C18.6589 30.8456 17.4304 30.9566 16.1985 30.9944C14.9715 31.1029 13.7392 31.1408 12.5078 31.1078C13.7267 30.927 14.9551 30.8174 16.1868 30.7793C17.4137 30.6685 18.6461 30.6293 19.8775 30.6621Z" fill="white"/>
<path id="Vector_39" d="M18.0193 32.4851C17.3304 32.6336 16.6284 32.7122 15.9237 32.7196C15.2244 32.7908 14.5196 32.7908 13.8203 32.7196C14.5079 32.5712 15.2086 32.4926 15.912 32.4851C16.6126 32.4138 17.3187 32.4138 18.0193 32.4851Z" fill="white"/>
<path id="Vector_40" d="M10.1094 50.8975C10.1094 50.8975 10.1837 59.6513 10.6294 62.3255L21.6116 61.8055C21.6116 61.8055 20.6459 53.2042 21.0173 50.8975H10.1094Z" fill="#EBEBEB"/>
<path id="Vector_41" d="M19.3619 54.5722C18.1432 54.7552 16.9147 54.8662 15.6829 54.9045C14.4559 55.013 13.2236 55.0509 11.9922 55.0179C13.2098 54.8371 14.4369 54.7274 15.6673 54.6895C16.8955 54.5786 18.1291 54.5395 19.3619 54.5722Z" fill="white"/>
<path id="Vector_42" d="M19.3619 56.4295C18.143 56.6104 16.9146 56.7201 15.6829 56.7579C14.4559 56.8664 13.2236 56.9043 11.9922 56.8713C13.2111 56.6906 14.4395 56.5809 15.6712 56.5429C16.8982 56.4344 18.1305 56.3965 19.3619 56.4295Z" fill="white"/>
<path id="Vector_43" d="M17.4959 58.2509C16.8083 58.3991 16.1075 58.4764 15.4042 58.4816C14.7042 58.5593 13.9982 58.5659 13.2969 58.5012C13.9844 58.3528 14.6852 58.2742 15.3885 58.2666C16.0886 58.1889 16.7947 58.1836 17.4959 58.2509Z" fill="white"/>
<path id="Vector_44" d="M40.125 27.4536L41.2119 52.7102L72.7394 53.0895L71.3241 27.7859L40.125 27.4536Z" fill="#EBEBEB"/>
<path id="Vector_45" d="M71.0781 27.2744H39.7578V50.9242H71.0781V27.2744Z" fill="#F5F5F5"/>
<path id="Vector_46" d="M71.0743 50.9252C71.0743 50.9252 71.0743 50.7727 71.0743 50.4834C71.0743 50.1941 71.0743 49.7719 71.0743 49.2245C71.0743 48.1142 71.0743 46.4877 71.0509 44.439C71.0509 40.3143 71.0235 34.4146 71.0039 27.2755L71.0939 27.3615H39.7775L39.8869 27.2559C39.8869 35.7595 39.8869 43.8135 39.8869 50.9057L39.7892 50.8079L62.3792 50.8549L68.8067 50.8822H70.5152H70.957H71.1095H70.5348L68.8145 50.9565L62.4144 50.9839L39.7384 51.0308H39.6406V50.937C39.6406 43.8448 39.6406 35.7908 39.6406 27.2872V27.1777H39.7501H71.0665H71.1603V27.2677C71.1603 34.4263 71.1251 40.3495 71.1134 44.4703C71.1134 46.5229 71.1134 48.1298 71.09 49.2362C71.09 49.7758 71.09 50.1902 71.09 50.4795C71.0821 50.7845 71.0743 50.9252 71.0743 50.9252Z" fill="#E0E0E0"/>
<path id="Vector_47" d="M56.2259 32.2822H43.5312V48.2612H56.2259V32.2822Z" fill="#F5F5F5"/>
<path id="Vector_48" d="M56.2271 48.2616C56.2228 48.2344 56.2228 48.2066 56.2271 48.1795V47.9527C56.2271 47.7416 56.2271 47.4523 56.2271 47.0808C56.2271 46.2989 56.2271 45.2003 56.2036 43.8006C56.2036 40.9895 56.1724 37.0095 56.1528 32.2826L56.2506 32.3804H43.5559C43.5285 32.3804 43.7592 32.1771 43.6614 32.2748V36.6185C43.6614 38.0377 43.6614 39.4217 43.6614 40.7628C43.6614 43.4487 43.6614 45.9627 43.6614 48.2459L43.5754 48.156L52.767 48.2029L55.3435 48.2264H56.0277H56.2701C56.1959 48.2318 56.1214 48.2318 56.0473 48.2264H55.3826L52.8218 48.2498L43.5754 48.2967H43.4855V48.2068C43.4855 45.9236 43.4855 43.4096 43.4855 40.7237C43.4855 39.3826 43.4855 37.9869 43.4855 36.5794V32.2905C43.3878 32.3843 43.6145 32.1536 43.595 32.181H56.2897H56.3874V32.2787C56.3678 37.029 56.3483 41.0325 56.3366 43.8592L56.3131 47.116C56.3131 47.4809 56.3131 47.7663 56.3131 47.9722C56.3131 48.0583 56.3131 48.1286 56.3131 48.1873C56.2875 48.2153 56.2586 48.2403 56.2271 48.2616Z" fill="#E0E0E0"/>
<path id="Vector_49" d="M68.3533 28.626H44.0234V30.9288H68.3533V28.626Z" fill="#F5F5F5"/>
<path id="Vector_50" d="M68.3533 30.928C68.3533 30.928 68.3533 30.8693 68.3533 30.7716C68.3533 30.6738 68.3533 30.5096 68.3533 30.322C68.3533 29.931 68.3533 29.3563 68.326 28.6252L68.369 28.6682C64.2677 28.7073 54.9158 28.7346 44.0391 28.7346C44.2542 28.5157 44.0978 28.6721 44.1486 28.6252V30.9201L44.0431 30.8107L61.2886 30.8576L66.465 30.8889H67.8725H68.2439C68.2868 30.8857 68.3299 30.8857 68.3729 30.8889H68.2595H67.9037H66.5197L61.3668 30.9241L44.0431 30.9671H43.9375V30.8615C43.9375 30.494 43.9375 30.1147 43.9375 29.7316V28.5587L44.047 28.4492C54.9237 28.4492 64.2756 28.4766 68.3768 28.5157H68.4237V28.5587C68.4237 29.2976 68.4237 29.8763 68.4003 30.2829C68.4003 30.4666 68.4003 30.6074 68.4003 30.7168C68.3971 30.7894 68.3812 30.8609 68.3533 30.928Z" fill="#E0E0E0"/>
<path id="Vector_51" d="M68.3491 32.2822H57.7812V41.9118H68.3491V32.2822Z" fill="#F5F5F5"/>
<path id="Vector_52" d="M68.3502 41.9112C68.3502 41.9112 68.3502 41.8448 68.3502 41.7275V41.2036C68.3502 40.7344 68.3502 40.0737 68.3268 39.2487C68.3268 37.5519 68.2994 35.1631 68.2799 32.2895L68.3698 32.3833H57.8137L57.9193 32.2777V34.862C57.9193 35.7065 57.9193 36.5354 57.9193 37.3447C57.9193 38.9594 57.9193 40.4725 57.9193 41.9034L57.8215 41.8096L65.4454 41.8565L67.6074 41.8839H68.186C68.2537 41.8781 68.3217 41.8781 68.3893 41.8839C68.3282 41.8895 68.2667 41.8895 68.2056 41.8839H67.6465L65.5079 41.9073L57.8215 41.9542H57.7277V41.8565C57.7277 40.4451 57.7277 38.9125 57.7277 37.2978C57.7277 36.4885 57.7277 35.6596 57.7277 34.8151V32.2308C57.63 32.3246 57.8567 32.0979 57.8372 32.1213H68.3933H68.4871V32.2113C68.4675 35.1083 68.4519 37.5206 68.4402 39.2487C68.4402 40.0698 68.4206 40.7227 68.4167 41.2036C68.4167 41.4095 68.4167 41.5776 68.4167 41.7079C68.404 41.7784 68.3816 41.8468 68.3502 41.9112Z" fill="#E0E0E0"/>
<path id="Vector_53" d="M68.3491 43.4209H57.7812V48.2611H68.3491V43.4209Z" fill="#F5F5F5"/>
<path id="Vector_54" d="M68.3469 48.2611C68.3469 48.2611 68.3469 48.136 68.3469 47.9092L68.3274 46.9396C68.3274 46.0834 68.3039 44.8909 68.2844 43.4209L68.3626 43.4991L57.8065 43.5303C57.7088 43.6281 57.9355 43.3974 57.9121 43.4248V45.9153C57.9121 46.7246 57.9121 47.5104 57.9121 48.2611L57.8065 48.1594L65.3639 48.2063L67.5689 48.2376H68.1632H68.3743C68.3119 48.2434 68.2491 48.2434 68.1866 48.2376H67.6119L65.4342 48.2689L57.8065 48.3158H57.7048V48.2142C57.7048 47.4635 57.7048 46.6776 57.7048 45.8683V43.3779C57.6814 43.3779 57.9081 43.1706 57.8143 43.2684L68.3704 43.2958H68.4212V43.374C68.4212 44.8635 68.3899 46.0755 68.3821 46.9396C68.3821 47.3306 68.3821 47.6551 68.3821 47.8936C68.3823 48.0169 68.3705 48.14 68.3469 48.2611Z" fill="#E0E0E0"/>
<path id="Vector_55" d="M55.9131 32.3101C51.98 37.7406 47.4605 42.831 43.5312 48.2616L55.9131 32.3101Z" fill="white"/>
<path id="Vector_56" d="M43.5312 48.2589C43.5312 48.2589 43.5586 48.1924 43.6329 48.079L43.9652 47.5942C44.2545 47.172 44.6885 46.5738 45.2359 45.8427C46.3267 44.3726 47.8866 42.3865 49.6381 40.2166C51.3897 38.0468 52.9653 36.0763 54.0834 34.6336L55.4088 32.9251L55.7724 32.4598C55.8584 32.3582 55.9053 32.3034 55.9131 32.3073C55.8848 32.371 55.8494 32.4314 55.8076 32.4872L55.4753 32.972C55.186 33.3942 54.752 33.9924 54.2046 34.7274C53.1138 36.1936 51.5539 38.1797 49.8024 40.3496C48.0508 42.5195 46.4791 44.4899 45.3571 45.9326L44.0317 47.6451L43.6681 48.1064C43.6286 48.1624 43.5826 48.2136 43.5312 48.2589Z" fill="#E0E0E0"/>
<path id="Vector_57" d="M56.2267 48.2615C56.1798 48.2967 53.2984 44.7427 49.7953 40.3404C46.2923 35.9381 43.4851 32.3216 43.5398 32.2825C43.5946 32.2434 46.4643 35.8013 49.9712 40.2075C53.4782 44.6137 56.2736 48.2185 56.2267 48.2615Z" fill="#E0E0E0"/>
<path id="Vector_58" d="M41.2066 32.3147C41.2066 32.7076 41.0901 33.0916 40.8719 33.4182C40.6536 33.7448 40.3434 33.9994 39.9805 34.1497C39.6176 34.3 39.2183 34.3393 38.833 34.2627C38.4477 34.1861 38.0939 33.9969 37.8161 33.7191C37.5383 33.4414 37.3492 33.0875 37.2725 32.7022C37.1959 32.3169 37.2352 31.9176 37.3856 31.5547C37.5359 31.1918 37.7904 30.8816 38.1171 30.6633C38.4437 30.4451 38.8277 30.3286 39.2205 30.3286C39.7469 30.3296 40.2515 30.5392 40.6237 30.9115C40.996 31.2837 41.2056 31.7883 41.2066 32.3147Z" fill="#E0E0E0"/>
<path id="Vector_59" d="M73.691 27.4964C73.691 27.8892 73.5745 28.2732 73.3562 28.5998C73.138 28.9264 72.8278 29.181 72.4649 29.3313C72.102 29.4816 71.7027 29.521 71.3174 29.4443C70.9321 29.3677 70.5782 29.1785 70.3005 28.9008C70.0227 28.623 69.8335 28.2691 69.7569 27.8839C69.6803 27.4986 69.7196 27.0992 69.8699 26.7363C70.0203 26.3734 70.2748 26.0632 70.6014 25.845C70.928 25.6267 71.312 25.5103 71.7049 25.5103C72.2313 25.5113 72.7359 25.7209 73.1081 26.0931C73.4803 26.4654 73.6899 26.9699 73.691 27.4964Z" fill="#E0E0E0"/>
<path id="Vector_60" d="M151.387 41.3296H128.5V74.5073H151.387V41.3296Z" fill="#E0E0E0"/>
<path id="Vector_61" d="M150.239 41.3281H127.352V74.5058H150.239V41.3281Z" fill="#F5F5F5"/>
<path id="Vector_62" d="M147.398 44.9219H130.195V70.9135H147.398V44.9219Z" fill="white"/>
<path id="Vector_63" d="M147.398 70.9136C147.398 70.9136 147.398 70.8667 147.398 70.7846C147.398 70.7025 147.398 70.5774 147.398 70.4171C147.398 70.0887 147.398 69.6117 147.398 68.9901C147.398 67.7468 147.398 65.9288 147.398 63.6377C147.398 59.0555 147.398 52.5654 147.37 44.922L147.429 44.9806H130.195L130.258 44.9181C130.258 54.7236 130.258 63.7628 130.258 70.9097L130.207 70.8589L142.718 70.8863H146.178H147.085H147.402H147.097H146.198H142.749L130.199 70.9097H130.148V70.8628C130.148 63.7159 130.148 54.6767 130.148 44.8712V44.8086H130.195H147.398H147.453V44.8633C147.453 52.5224 147.433 59.0242 147.425 63.6299C147.425 65.917 147.425 67.7272 147.425 68.9705C147.425 69.5843 147.425 70.0574 147.425 70.3819C147.425 70.5422 147.425 70.6595 147.425 70.7455L147.398 70.9136Z" fill="#E0E0E0"/>
<path id="Vector_64" d="M150.303 41.3281C150.193 41.5387 150.062 41.7377 149.913 41.9224C149.647 42.2782 149.267 42.7591 148.837 43.283C148.407 43.8069 148.005 44.2682 147.707 44.6005C147.556 44.7866 147.387 44.9581 147.203 45.1127C147.334 44.911 147.48 44.7201 147.641 44.5419L148.744 43.2048L149.842 41.8677C149.983 41.6768 150.137 41.4965 150.303 41.3281Z" fill="#E0E0E0"/>
<path id="Vector_65" d="M147.484 70.8267C148.338 72.1875 149.344 73.4467 150.483 74.58L147.484 70.8267Z" fill="white"/>
<path id="Vector_66" d="M150.483 74.58C150.293 74.4406 150.118 74.2807 149.963 74.103C149.563 73.6981 149.185 73.2726 148.829 72.8284C148.474 72.3841 148.141 71.9222 147.832 71.4444C147.695 71.2514 147.578 71.0444 147.484 70.8267C147.638 71.0056 147.779 71.195 147.907 71.3936C148.157 71.7493 148.513 72.2302 148.927 72.7502C149.341 73.2702 149.736 73.7198 150.026 74.0443C150.192 74.2107 150.345 74.3898 150.483 74.58Z" fill="#E0E0E0"/>
<path id="Vector_67" d="M127.344 74.4779L130.342 70.7793L127.344 74.4779Z" fill="white"/>
<path id="Vector_68" d="M130.35 70.7793C130.374 70.7793 129.725 71.6472 128.9 72.6677C128.411 73.2983 127.889 73.9025 127.336 74.4779C128.27 73.1933 129.271 71.9587 130.335 70.7793H130.35Z" fill="#E0E0E0"/>
<path id="Vector_69" d="M127.352 41.3281C127.865 41.8833 128.351 42.464 128.806 43.0679C129.291 43.6485 129.744 44.2554 130.163 44.8859C129.647 44.3281 129.162 43.7435 128.708 43.1344C128.222 42.5589 127.769 41.9558 127.352 41.3281Z" fill="#E0E0E0"/>
<path id="Vector_70" d="M142.04 50.2007H136.281V66.5549H142.04V50.2007Z" fill="#E0E0E0"/>
<path id="Vector_71" d="M146.112 6.07505L142.836 6.09277L142.924 22.396L146.2 22.3782L146.112 6.07505Z" fill="#E0E0E0"/>
<path id="Vector_72" d="M122.937 6.11865L114.453 6.16455L114.502 15.1645L122.986 15.1186L122.937 6.11865Z" fill="#EBEBEB"/>
<path id="Vector_73" d="M131.374 6.07568L122.891 6.12158L122.939 15.1216L131.423 15.0757L131.374 6.07568Z" fill="#F5F5F5"/>
<path id="Vector_74" d="M114.469 8.65944C120.107 8.70635 125.76 8.65944 131.398 8.58124C131.422 8.58124 131.444 8.57177 131.461 8.55491C131.478 8.53804 131.488 8.51517 131.488 8.49132C131.488 8.46747 131.478 8.4446 131.461 8.42773C131.444 8.41087 131.422 8.4014 131.398 8.4014C125.755 8.37012 120.112 8.404 114.469 8.50305C114.448 8.50305 114.428 8.51129 114.414 8.52595C114.399 8.54062 114.391 8.5605 114.391 8.58124C114.391 8.60198 114.399 8.62187 114.414 8.63653C114.428 8.6512 114.448 8.65944 114.469 8.65944Z" fill="#E0E0E0"/>
<path id="Vector_75" d="M124.58 14.9742L109.164 15.0576L109.204 22.3921L124.619 22.3087L124.58 14.9742Z" fill="#EBEBEB"/>
<path id="Vector_76" d="M139.923 14.8897L124.508 14.9731L124.547 22.3076L139.963 22.2242L139.923 14.8897Z" fill="#F5F5F5"/>
<path id="Vector_77" d="M109.172 17.0994C119.415 17.2167 129.69 17.0994 139.929 16.947C139.953 16.947 139.976 16.9375 139.993 16.9206C140.01 16.9038 140.019 16.8809 140.019 16.857C140.019 16.8332 140.01 16.8103 139.993 16.7934C139.976 16.7766 139.953 16.7671 139.929 16.7671C129.686 16.7124 119.411 16.7202 109.172 16.943C109.151 16.943 109.131 16.9513 109.117 16.9659C109.102 16.9806 109.094 17.0005 109.094 17.0212C109.094 17.042 109.102 17.0619 109.117 17.0765C109.131 17.0912 109.151 17.0994 109.172 17.0994Z" fill="#E0E0E0"/>
<path id="Vector_78" d="M163.13 22.3945H103.406V25.0218H163.13V22.3945Z" fill="#E0E0E0"/>
<path id="Vector_79" d="M115.604 23.6567H113.18V32.6217H115.604V23.6567Z" fill="#E0E0E0"/>
<path id="Vector_80" d="M151.799 23.6567H149.375V32.6217H151.799V23.6567Z" fill="#E0E0E0"/>
<path id="Vector_81" d="M149.308 -0.000148426L146.031 0.0175781L146.153 22.4394L149.429 22.4216L149.308 -0.000148426Z" fill="#EBEBEB"/>
<path id="Vector_82" d="M154.434 4.17119L149.344 4.19873L149.442 22.3707L154.532 22.3432L154.434 4.17119Z" fill="#F5F5F5"/>
<path id="Vector_83" d="M154.395 7.67803C152.703 7.79756 151.005 7.79756 149.312 7.67803C151.005 7.5637 152.703 7.5637 154.395 7.67803Z" fill="#E0E0E0"/>
<path id="Vector_84" d="M154.395 6.91387C152.703 7.0334 151.005 7.0334 149.312 6.91387C151.005 6.79954 152.703 6.79954 154.395 6.91387Z" fill="#E0E0E0"/>
<path id="Vector_85" d="M154.395 19.6136C152.703 19.7331 151.005 19.7331 149.312 19.6136C151.005 19.4992 152.703 19.4992 154.395 19.6136Z" fill="#E0E0E0"/>
<path id="Vector_86" d="M154.395 18.8523C152.703 18.9719 151.005 18.9719 149.312 18.8523C151.005 18.738 152.703 18.738 154.395 18.8523Z" fill="#E0E0E0"/>
<path id="Vector_87" d="M151.934 17.1869C151.883 17.1869 151.844 15.3533 151.844 13.0935C151.844 10.8336 151.883 9 151.934 9C151.985 9 152.02 10.8336 152.02 13.0935C152.02 15.3533 151.981 17.1869 151.934 17.1869Z" fill="#E0E0E0"/>
<path id="Vector_88" d="M159.985 8.63965H154.445V22.3549H159.985V8.63965Z" fill="#EBEBEB"/>
<path id="Vector_89" d="M157.374 18.8017C157.209 18.8113 157.044 18.786 156.889 18.7273C156.735 18.6687 156.595 18.5781 156.478 18.4615C156.361 18.3448 156.27 18.2048 156.21 18.0505C156.151 17.8962 156.125 17.7312 156.135 17.5662C156.126 17.3865 156.162 17.2073 156.241 17.0454C156.319 16.8834 156.437 16.7439 156.584 16.6396L156.709 16.8156C156.592 16.9013 156.497 17.0146 156.434 17.1455C156.37 17.2764 156.34 17.4209 156.346 17.5662C156.346 17.839 156.454 18.1005 156.647 18.2933C156.84 18.4862 157.101 18.5945 157.374 18.5945C157.647 18.5945 157.908 18.4862 158.101 18.2933C158.294 18.1005 158.402 17.839 158.402 17.5662C158.408 17.4205 158.377 17.2755 158.313 17.1445C158.249 17.0134 158.153 16.9004 158.035 16.8156L158.164 16.6396C158.309 16.7453 158.425 16.8852 158.503 17.0469C158.581 17.2086 158.617 17.387 158.609 17.5662C158.618 17.7309 158.593 17.8955 158.534 18.0495C158.475 18.2035 158.384 18.3434 158.268 18.4599C158.151 18.5765 158.011 18.6672 157.857 18.7261C157.703 18.785 157.539 18.8108 157.374 18.8017Z" fill="#FAFAFA"/>
<path id="Vector_90" d="M158.295 16.2996L158.111 16.194C158.303 15.9412 158.407 15.6319 158.405 15.3143C158.405 14.8021 158.221 14.5949 157.947 14.5949C157.236 14.5949 157.759 16.2135 156.802 16.2135C156.434 16.2135 156.133 15.9047 156.133 15.2869C156.128 14.9906 156.211 14.6995 156.371 14.4503L156.559 14.5597C156.412 14.7747 156.335 15.0303 156.34 15.2909C156.34 15.7678 156.536 15.979 156.798 15.979C157.529 15.979 157.013 14.3604 157.943 14.3604C158.334 14.3604 158.608 14.7044 158.608 15.326C158.62 15.677 158.509 16.0212 158.295 16.2996Z" fill="#FAFAFA"/>
<path id="Vector_91" d="M158.295 14.0667L158.111 13.9611C158.303 13.7083 158.407 13.399 158.405 13.0814C158.405 12.5692 158.221 12.362 157.947 12.362C157.236 12.362 157.759 13.9767 156.802 13.9767C156.434 13.9767 156.133 13.6718 156.133 13.054C156.128 12.7577 156.211 12.4666 156.371 12.2174L156.559 12.3229C156.412 12.5395 156.336 12.7962 156.34 13.0579C156.34 13.5349 156.536 13.7461 156.798 13.7461C157.529 13.7461 157.013 12.1274 157.943 12.1274C158.334 12.1274 158.608 12.4676 158.608 13.0892C158.62 13.4415 158.51 13.7871 158.295 14.0667Z" fill="#FAFAFA"/>
<path id="Vector_92" d="M147.622 4.77607C148.142 4.77607 148.564 4.35422 148.564 3.83384C148.564 3.31346 148.142 2.8916 147.622 2.8916C147.102 2.8916 146.68 3.31346 146.68 3.83384C146.68 4.35422 147.102 4.77607 147.622 4.77607Z" fill="#E0E0E0"/>
<path id="Vector_93" d="M147.911 6.42383H147.328V19.7637H147.911V6.42383Z" fill="#E0E0E0"/>
</g>
<g id="Floor">
<path id="Vector_94" d="M169.999 161.597C169.999 161.652 132.235 161.698 85.6635 161.698C39.0916 161.698 1.32031 161.659 1.32031 161.597C1.32031 161.534 39.0759 161.495 85.6635 161.495C132.251 161.495 169.999 161.55 169.999 161.597Z" fill="#263238"/>
</g>
<g id="Hourglass">
<path id="Vector_95" d="M46.9951 27.1953C40.7201 37.0634 41.1306 50.7473 47.9881 60.2205C52.5585 66.5386 59.4122 70.7767 64.8544 76.3519C70.2967 81.9271 74.4331 90.1571 71.5595 97.4056C68.6351 104.783 60.069 107.782 53.6571 112.458C46.5828 117.611 41.7802 125.304 40.258 133.923C38.7358 142.541 40.6124 151.414 45.4938 158.678H112.122C112.122 158.678 123.828 136.374 108.779 119.37C93.7312 102.367 85.6499 102.093 86.2051 90.9429C86.7603 79.7924 94.5639 76.176 99.0249 71.9926C103.486 67.8092 125.22 58.0624 112.4 27.1914L46.9951 27.1953Z" fill="#FAFAFA"/>
<path id="Vector_96" d="M46.9921 27.1978H48.1376H51.5156H64.5191L112.397 27.1626H112.448V27.2095C113.429 29.547 114.265 31.943 114.95 34.3838C115.669 36.9393 116.143 39.5576 116.365 42.2032C116.596 44.9686 116.454 47.7524 115.943 50.48C115.382 53.3074 114.365 56.0249 112.932 58.5262C112.19 59.8019 111.351 61.0188 110.422 62.1661C109.475 63.3288 108.449 64.426 107.353 65.4502C106.244 66.4932 105.081 67.4784 103.87 68.4021C102.658 69.3404 101.391 70.224 100.156 71.1623C99.538 71.6276 98.9828 72.1515 98.3807 72.6754C97.7786 73.1993 97.1804 73.688 96.5627 74.1806C95.3312 75.1658 94.0879 76.1354 92.915 77.2262C90.467 79.3481 88.5859 82.0462 87.4415 85.0769C86.8916 86.6314 86.5447 88.2504 86.4093 89.8937C86.3741 90.2846 86.3194 90.7147 86.3038 91.1291C86.2881 91.5436 86.2725 91.958 86.3038 92.3724C86.3127 93.2045 86.3964 94.0341 86.554 94.8512C86.864 96.5068 87.5399 98.0723 88.5323 99.4333C89.5535 100.794 90.7102 102.048 91.9845 103.175C94.5141 105.486 97.2 107.695 99.7686 110.079C102.337 112.464 104.851 114.951 107.275 117.582C108.512 118.885 109.669 120.261 110.739 121.703C111.816 123.163 112.752 124.722 113.535 126.359C115.117 129.677 116.089 133.253 116.404 136.916C116.723 140.629 116.505 144.368 115.755 148.019C115.391 149.864 114.913 151.684 114.324 153.469C113.746 155.27 113.04 157.027 112.213 158.728L112.186 158.783H45.4361L45.4087 158.74C42.2842 154.035 40.3679 148.633 39.8296 143.011C39.288 137.611 40.0801 132.16 42.1363 127.137C44.0906 122.336 47.0997 118.037 50.9409 114.556C52.8049 112.911 54.8179 111.442 56.9539 110.169C59.0339 108.879 61.1333 107.683 63.1155 106.377C65.0996 105.137 66.9224 103.655 68.5422 101.967C70.089 100.309 71.2364 98.3187 71.8967 96.1492C72.4753 94.0325 72.5662 91.8121 72.1625 89.6552C71.7768 87.5736 71.0824 85.5614 70.1021 83.6851C69.1646 81.8783 68.0403 80.1748 66.7476 78.6025C65.4999 77.094 64.1435 75.6788 62.6894 74.3683C59.8705 71.7722 56.9813 69.5007 54.3853 67.1666C53.0834 65.9937 51.8518 64.8208 50.7141 63.6205C49.6114 62.4454 48.5949 61.1924 47.6724 59.8711C46.0047 57.448 44.7191 54.7831 43.8605 51.9696C43.1083 49.54 42.6721 47.0236 42.5625 44.4825C42.5077 43.9039 42.5312 43.3331 42.5312 42.774C42.5312 42.2149 42.5312 41.6715 42.582 41.1437C42.6328 40.6159 42.6602 40.0998 42.6993 39.5798C42.7384 39.0598 42.8439 38.5945 42.9104 38.1215C43.3423 35.2416 44.2236 32.4473 45.5221 29.8407C45.6979 29.4375 45.899 29.0458 46.1242 28.6678L46.605 27.8507C46.8592 27.4167 46.996 27.1978 46.996 27.1978L46.605 27.8624L46.1398 28.6678C45.92 29.0474 45.7216 29.439 45.5455 29.8407C44.2588 32.4537 43.3882 35.2515 42.9651 38.1332C42.8987 38.6024 42.8205 39.0872 42.7618 39.5837C42.7032 40.0802 42.6836 40.6002 42.6446 41.128C42.6055 41.6558 42.6055 42.1993 42.6015 42.7545C42.5976 43.3096 42.582 43.8805 42.6367 44.4591C42.7498 46.9917 43.1901 49.4991 43.9465 51.9188C44.8041 54.7222 46.0885 57.3768 47.7545 59.789C48.6747 61.1048 49.69 62.3514 50.7923 63.5189C51.9261 64.723 53.1576 65.896 54.4596 67.0376C57.0556 69.3834 59.9331 71.6315 62.7715 74.2314C64.2369 75.5515 65.6038 76.9772 66.861 78.4969C68.1608 80.0807 69.2916 81.7959 70.235 83.6147C71.2246 85.5026 71.9257 87.5282 72.315 89.6239C72.7245 91.8039 72.6336 94.0485 72.0491 96.1883C71.3859 98.383 70.2275 100.396 68.6634 102.072C67.0356 103.771 65.2052 105.262 63.2133 106.514C61.2233 107.824 59.1238 109.02 57.0478 110.31C54.9208 111.579 52.9157 113.043 51.0581 114.681C47.2406 118.144 44.2491 122.419 42.3044 127.192C40.2606 132.189 39.4752 137.612 40.0173 142.983C40.5556 148.573 42.4623 153.944 45.569 158.622L45.4908 158.579H112.119L112.029 158.634C112.855 156.938 113.558 155.184 114.133 153.387C114.719 151.609 115.194 149.797 115.556 147.96C116.302 144.328 116.519 140.606 116.201 136.912C115.892 133.269 114.926 129.713 113.351 126.414C112.574 124.789 111.646 123.24 110.579 121.789C109.511 120.354 108.359 118.983 107.131 117.684C104.72 115.059 102.221 112.562 99.6357 110.193C97.071 107.812 94.3929 105.607 91.8555 103.284C90.5711 102.148 89.404 100.885 88.372 99.5154C87.3602 98.1379 86.6671 96.5528 86.3428 94.8746C86.1863 94.0455 86.1013 93.2044 86.0887 92.3607C86.0692 91.9424 86.0887 91.524 86.0887 91.1057C86.0887 90.6873 86.1591 90.2729 86.1904 89.8585C86.3339 88.2053 86.6886 86.5774 87.246 85.0144C88.4003 81.9569 90.2991 79.2357 92.7703 77.0972C93.9432 76.0103 95.1982 75.0251 96.4298 74.0438C97.0475 73.5511 97.6535 73.0546 98.2439 72.5463C98.8342 72.0381 99.4168 71.4907 100.027 71.0216C101.27 70.0832 102.533 69.1996 103.741 68.2652C104.948 67.3457 106.108 66.3657 107.217 65.329C108.305 64.3094 109.325 63.2188 110.27 62.0644C111.191 60.9211 112.026 59.711 112.768 58.4441C114.193 55.9601 115.204 53.2611 115.763 50.4527C116.272 47.7472 116.415 44.9858 116.189 42.2423C115.971 39.5972 115.501 36.9789 114.786 34.4229C114.11 31.9754 113.285 29.5716 112.315 27.2252L112.381 27.2682L64.5308 27.233H51.5195H48.1337L46.9921 27.1978Z" fill="#263238"/>
<path id="Vector_97" d="M109.735 45.2948C119.549 46.9095 104.078 64.292 95.3165 71.1496C90.234 75.118 84.7995 79.4264 82.3912 85.4005C79.6544 92.1799 81.6835 99.796 80.3621 106.614C80.3195 106.85 80.1895 107.06 79.9983 107.203C79.8071 107.346 79.5687 107.412 79.3311 107.387C79.0935 107.362 78.8742 107.247 78.7174 107.067C78.5605 106.887 78.4776 106.654 78.4854 106.415C78.548 101.938 78.4307 97.4658 77.7035 93.0596C76.6518 86.8041 74.2513 80.6306 69.8842 76.0524C66.3068 72.3108 61.6191 69.8281 57.8072 66.3329C52.2399 61.2307 46.52 54.6507 45.9609 47.1206C45.9609 47.1206 56.65 38.5193 62.5848 39.5945C69.5206 40.8651 76.3468 51.566 87.0906 50.3422C94.5659 49.486 98.3543 43.426 109.735 45.2948Z" fill="#339999"/>
<path id="Vector_98" d="M110.608 138.328C110.362 135.872 109.705 133.097 107.527 131.939C106.21 131.236 104.603 131.314 103.156 131.693C101.709 132.072 100.353 132.733 98.9219 133.159C96.0773 133.996 93.0395 133.898 90.2542 132.882C87.5917 131.904 85.3085 130.145 82.8258 128.745C80.3432 127.345 77.4618 126.321 74.7094 127.005C69.963 128.178 67.4921 133.902 62.8005 135.282C60.7128 135.892 58.4725 135.548 56.3535 135.071C54.2345 134.594 52.1037 133.972 49.9338 134.054C48.2292 134.117 46.4582 134.707 45.2657 135.872L45.2344 135.908C45.0359 136.102 44.8553 136.314 44.6949 136.541C43.2405 138.496 43.0059 141.088 43.4555 143.457C43.956 146.112 45.1953 148.563 46.5246 150.913C48.0885 153.681 49.8713 156.434 52.4595 158.279C55.6576 160.558 59.6728 158.987 63.5864 159.295C72.7076 160.015 82.5209 160.504 91.646 159.8C96.4666 159.409 100.982 159.948 104.806 156.989C107.496 154.909 109.247 151.773 110.092 148.481C110.936 145.189 110.948 141.71 110.608 138.328Z" fill="#339999"/>
<g id="Group" opacity="0.24">
<path id="Vector_99" d="M93.3903 133.626C92.8782 134.408 92.6553 135.472 93.1518 136.269C93.6484 137.067 94.3247 137.798 94.5359 138.717C94.876 140.156 94.0081 141.563 93.363 142.896C92.1689 145.28 91.7181 147.967 92.0689 150.61C92.4387 153.262 93.808 155.672 95.8964 157.347C96.823 158.062 98.0272 158.617 99.1453 158.265C100.197 157.937 100.873 156.87 101.1 155.787C101.327 154.704 101.135 153.589 100.999 152.499C100.362 147.415 100.494 142.264 101.389 137.219C101.538 136.379 101.679 135.417 101.147 134.749C100.764 134.359 100.276 134.088 99.7435 133.967C97.7105 133.29 95.5172 134.041 93.4099 133.642" fill="black"/>
</g>
<path id="Vector_100" d="M40.6029 161.707C40.6029 161.707 40.4191 158.65 44.407 156.945H114.488C114.488 156.945 118.143 158.799 118.593 161.637L40.6029 161.707Z" fill="#263238"/>
<path id="Vector_101" d="M112.996 27.5692L112.883 27.62L46.9855 27.1978C46.9855 27.1978 46.7509 27.0492 46.4029 26.7716C45.9921 26.4498 45.6924 26.0074 45.5459 25.5066C45.3993 25.0057 45.4133 24.4716 45.5858 23.9791C45.7583 23.4866 46.0807 23.0604 46.5077 22.7605C46.9347 22.4606 47.445 22.3019 47.9668 22.3067L111.929 22.8228C114.56 22.8463 115.389 26.4432 112.996 27.5692Z" fill="#263238"/>
<g id="Group_2" opacity="0.24">
<path id="Vector_102" d="M102.44 52.7071C102.573 52.9612 102.077 53.489 101.135 54.3492C100.192 55.2093 98.7888 56.3392 97.0451 57.7584C94.9515 59.4882 92.7297 61.0565 90.3987 62.45C88.9507 63.2885 87.4271 63.9888 85.8479 64.5417C84.9921 64.8375 84.1185 65.0791 83.2323 65.265C82.3014 65.4627 81.3561 65.5856 80.4056 65.6325C78.4795 65.7373 76.5511 65.4719 74.7249 64.8506C73.1103 64.2634 71.5761 63.4752 70.1584 62.5048C68.8447 61.6368 67.7148 60.7767 66.6397 59.9517C65.5645 59.1268 64.6067 58.3331 63.7387 57.5825C60.2787 54.5837 58.4568 52.3787 58.8086 51.9525C59.1605 51.5264 61.6236 52.9143 65.4551 55.2601L68.5828 57.1759C69.7049 57.8561 70.9051 58.6107 72.1328 59.3066C73.351 60.0218 74.6419 60.605 75.9838 61.0465C77.3568 61.4576 78.7908 61.627 80.2219 61.5469C83.2245 61.3905 86.1372 60.3349 88.6589 59.1151C91.1806 57.8952 93.4639 56.4721 95.4422 55.3618C97.0078 54.4379 98.6446 53.6404 100.337 52.9768C101.576 52.5429 102.327 52.4608 102.44 52.7071Z" fill="black"/>
</g>
<path id="Vector_103" d="M78.535 114.783C78.812 114.673 79.1213 114.676 79.3959 114.792C79.6704 114.908 79.8882 115.128 80.002 115.404C80.1158 115.679 80.1166 115.988 80.004 116.264C79.8915 116.541 79.6748 116.761 79.4007 116.879C79.1267 116.996 78.8175 117.001 78.5399 116.892C78.2624 116.783 78.039 116.569 77.9179 116.297C77.7969 116.024 77.7881 115.715 77.8933 115.436C77.9986 115.157 78.2094 114.931 78.4803 114.806" fill="#339999"/>
<path id="Vector_104" d="M54.969 63.6127C54.8833 63.5424 54.8048 63.4638 54.7345 63.3781L54.0972 62.6822C53.8274 62.3733 53.4716 62.0136 53.108 61.5562L51.8648 59.9923C51.4386 59.3902 50.9577 58.7412 50.4729 58.0374L49.7575 56.8997C49.6363 56.7042 49.5072 56.5088 49.3899 56.3015L49.0459 55.6682C48.0054 53.8241 47.1902 51.8617 46.618 49.8232C46.043 47.7863 45.7328 45.6838 45.6953 43.5677C45.6953 43.079 45.7227 42.6059 45.7305 42.1406C45.7305 41.91 45.7305 41.6832 45.7618 41.4603C45.7931 41.2375 45.8087 41.0185 45.8322 40.8035C45.883 40.3734 45.9143 39.9551 45.9729 39.5563C46.0315 39.1575 46.1136 38.7744 46.1801 38.4186C46.2896 37.6875 46.4851 37.0502 46.6219 36.4638C46.6962 36.1823 46.7548 35.9164 46.8291 35.6818L47.0441 35.0289L47.3452 34.1336C47.374 34.027 47.4132 33.9235 47.4625 33.8247C47.4464 33.9338 47.4202 34.0411 47.3843 34.1453C47.3178 34.3721 47.2318 34.6731 47.1184 35.0524L46.9229 35.7053C46.8565 35.9438 46.8017 36.2096 46.7314 36.4872C46.6063 37.0541 46.4225 37.6953 46.3404 38.4421C46.2778 38.8017 46.2153 39.181 46.1488 39.5759C46.0824 39.9707 46.0667 40.3852 46.0198 40.8152C46.0198 41.0303 45.9768 41.2453 45.9534 41.4682C45.9299 41.691 45.9534 41.9178 45.9299 42.1445C45.9299 42.6059 45.8986 43.075 45.9025 43.5598C45.9407 45.6636 46.2468 47.7539 46.8135 49.7802C47.3827 51.8037 48.187 53.7536 49.2101 55.59C49.3235 55.8011 49.4369 56.0122 49.5463 56.2234C49.6558 56.4345 49.7926 56.6143 49.9099 56.8176L50.6137 57.9553C51.0906 58.6747 51.5637 59.3237 51.9781 59.9102L53.198 61.4741C53.5498 61.9393 53.8978 62.3029 54.1558 62.6235L54.7657 63.3468C54.839 63.4311 54.9069 63.5199 54.969 63.6127Z" fill="#263238"/>
<path id="Vector_105" d="M51.2578 121.695C51.2772 121.65 51.3007 121.607 51.3282 121.566L51.5628 121.199C51.6683 121.034 51.7973 120.839 51.9537 120.604L52.2 120.213C52.2978 120.084 52.4112 119.955 52.5245 119.822L53.3065 118.884C53.6075 118.56 53.9516 118.223 54.3152 117.856C55.1582 117.044 56.0542 116.289 56.9972 115.596C59.0732 114.032 61.7514 112.468 64.6523 110.635C66.1777 109.695 67.644 108.662 69.0429 107.542C70.5436 106.347 71.8689 104.946 72.9799 103.382C75.0135 100.258 76.1184 96.6201 76.1663 92.8924C76.2158 89.8541 75.707 86.8327 74.665 83.9783C73.9748 82.052 73.1084 80.1936 72.0768 78.4265C71.7132 77.797 71.416 77.3201 71.2127 76.9956L70.9821 76.628C70.9312 76.5459 70.9078 76.499 70.9078 76.499C70.9426 76.5341 70.9729 76.5735 70.9977 76.6163L71.2479 76.976C71.463 77.2888 71.7718 77.7579 72.1432 78.3874C73.2068 80.145 74.0972 82.0017 74.8018 83.9314C75.8718 86.7976 76.402 89.8371 76.3657 92.8963C76.3491 93.7783 76.2773 94.6584 76.1506 95.5314C76.024 96.4445 75.8319 97.3474 75.5759 98.233C75.0419 100.108 74.2117 101.886 73.1167 103.499C71.9943 105.081 70.6544 106.495 69.1367 107.702C67.7295 108.823 66.2555 109.857 64.7227 110.799C61.81 112.617 59.128 114.165 57.0519 115.717C56.1092 116.401 55.2107 117.144 54.3621 117.942C53.9985 118.305 53.6505 118.634 53.3456 118.954L52.5636 119.873C52.4463 120.014 52.333 120.143 52.2352 120.264L51.9811 120.636L51.5901 121.218L51.3399 121.574C51.3158 121.616 51.2884 121.657 51.2578 121.695Z" fill="#263238"/>
<path id="Vector_106" d="M47.6238 128.603C47.6002 128.667 47.5715 128.728 47.5378 128.787L47.2563 129.284C47.1312 129.495 46.9826 129.761 46.8301 130.065C46.6777 130.37 46.4822 130.73 46.318 131.141C46.232 131.344 46.1381 131.555 46.0443 131.774C45.9505 131.993 45.8723 132.235 45.7784 132.478C45.5908 132.963 45.4422 133.494 45.2702 134.042C44.5902 136.493 44.3558 139.046 44.5782 141.58C44.6446 142.158 44.6916 142.713 44.7932 143.222C44.8362 143.476 44.8714 143.726 44.9222 143.961C44.9731 144.195 45.0278 144.422 45.0786 144.637C45.1646 145.071 45.2936 145.45 45.3875 145.786C45.4813 146.123 45.5751 146.412 45.6612 146.646L45.8449 147.186C45.8713 147.247 45.8884 147.312 45.8957 147.378C45.8581 147.323 45.8278 147.264 45.8058 147.202C45.7472 147.057 45.6768 146.885 45.5869 146.674C45.4687 146.395 45.3656 146.111 45.278 145.822C45.1724 145.485 45.0356 145.106 44.9379 144.672C44.8831 144.457 44.8284 144.23 44.7697 143.996C44.7111 143.761 44.6759 143.507 44.6251 143.253C44.5156 142.737 44.4609 142.182 44.3905 141.599C44.1458 139.05 44.3818 136.477 45.0864 134.014C45.2624 133.451 45.4188 132.916 45.6181 132.431C45.7159 132.188 45.7941 131.95 45.8957 131.727L46.185 131.09C46.3571 130.699 46.576 130.335 46.7285 130.022C46.8663 129.753 47.019 129.492 47.1859 129.241L47.4987 128.76C47.5769 128.654 47.616 128.599 47.6238 128.603Z" fill="#263238"/>
<path id="Vector_107" d="M95.9613 138.002L95.8831 138.057L95.6407 138.209L94.6907 138.78L94.0026 139.171C93.7445 139.316 93.4591 139.449 93.1542 139.601C92.5364 139.898 91.8562 140.278 91.0508 140.583L89.7997 141.095C89.3657 141.267 88.8926 141.404 88.4157 141.568C87.4656 141.916 86.41 142.166 85.3114 142.451C80.4877 143.581 75.4841 143.714 70.6072 142.842C69.489 142.616 68.4256 142.42 67.456 142.123C66.9712 141.982 66.4942 141.873 66.0485 141.732L64.7739 141.267C63.9568 141.005 63.2531 140.665 62.6236 140.399C62.3108 140.262 62.0176 140.141 61.7557 140.008L61.0441 139.636L60.0667 139.116L59.8165 138.976L59.7344 138.925C59.7344 138.925 59.7696 138.925 59.8282 138.96L60.0862 139.081L61.0793 139.566L61.7948 139.918C62.0606 140.043 62.3578 140.156 62.6705 140.289C63.3 140.54 64.0037 140.872 64.8248 141.122L66.0837 141.58C66.5294 141.728 67.0064 141.834 67.4912 141.971C68.4568 142.26 69.5164 142.444 70.6189 142.666C75.4732 143.507 80.4463 143.374 85.2488 142.275C86.3435 141.994 87.3952 141.755 88.3453 141.415C88.8223 141.255 89.2914 141.126 89.7254 140.954L90.9765 140.457C91.7819 140.16 92.4661 139.793 93.0838 139.507C93.3888 139.359 93.6781 139.23 93.9361 139.116L94.632 138.725L95.5977 138.186L95.8518 138.053C95.93 138.01 95.9613 137.998 95.9613 138.002Z" fill="#263238"/>
<path id="Vector_108" d="M100.033 55.2544C100.009 55.2827 99.9816 55.3077 99.951 55.3287L99.693 55.5398C99.4545 55.7314 99.1222 56.0011 98.696 56.3217C97.8281 57.0098 96.5692 58.0068 94.9779 59.1954C93.1262 60.6129 91.1842 61.9084 89.1643 63.0738C87.963 63.746 86.7107 64.3225 85.4188 64.798C84.0253 65.305 82.5717 65.6283 81.0947 65.7597C78.2231 65.9209 75.3595 65.325 72.7906 64.0317C71.6796 63.4674 70.6073 62.83 69.5808 62.1237C68.6268 61.4513 67.755 60.7983 66.9848 60.1689C65.4209 58.9256 64.2245 57.8739 63.38 57.1545L62.4144 56.3178L62.168 56.0989L62.0859 56.0168C62.0859 56.0168 62.1211 56.0168 62.1798 56.0793L62.4417 56.2866L63.4309 57.092C64.291 57.7957 65.5186 58.8279 67.0747 60.0555C67.8566 60.6693 68.7206 61.3144 69.6785 61.9791C70.7015 62.6731 71.7685 63.3 72.8727 63.8557C75.416 65.1234 78.2457 65.7069 81.083 65.5486C82.5423 65.4192 83.9787 65.1012 85.3563 64.6025C86.6393 64.1334 87.8838 63.5648 89.0782 62.9018C91.0952 61.7576 93.0394 60.4897 94.8997 59.1054C96.4949 57.9325 97.7655 56.9551 98.653 56.2866L99.6734 55.5046L99.9432 55.3091C99.9703 55.2865 100.001 55.268 100.033 55.2544Z" fill="#263238"/>
<g id="Group_3" opacity="0.24">
<path id="Vector_109" d="M64.7734 141.286C66.6266 139.855 69.2305 140.2 71.5215 140.684C73.8126 141.169 76.1193 141.947 78.4377 141.623C80.1853 141.376 81.7883 140.52 83.5203 140.145C85.2522 139.769 87.3361 140.047 88.294 141.529C80.6382 143.996 72.3885 143.911 64.7852 141.286" fill="black"/>
</g>
</g>
<g id="Character">
<path id="Vector_110" d="M129.414 130.676L121.008 121.25L120.922 132.709L123.456 140.059L98.2696 144.426L97.2023 124.553L95.3882 109.306C95.2804 108.396 95.4767 107.477 95.9463 106.691C96.4159 105.906 97.1325 105.298 97.9842 104.962L104.916 102.225L114.69 104.016L118.619 105.509C120.267 106.137 121.735 107.158 122.897 108.485L134.719 122.004" fill="#339999"/>
<path id="Vector_111" d="M120.422 118.983C120.897 118.977 121.37 118.943 121.841 118.882C122.975 118.709 124.032 118.201 124.875 117.423C125.719 116.646 126.311 115.634 126.576 114.518C126.673 114.052 126.745 113.581 126.791 113.107C126.822 113.235 126.834 113.367 126.826 113.498C126.829 113.853 126.792 114.207 126.716 114.554C126.48 115.714 125.884 116.771 125.013 117.575C124.142 118.378 123.041 118.887 121.865 119.03C121.513 119.076 121.158 119.083 120.805 119.054C120.674 119.051 120.545 119.027 120.422 118.983Z" fill="white"/>
<path id="Vector_112" d="M121.147 132.222C121.205 132.222 121.221 128.249 121.182 123.354C121.143 118.46 121.061 114.491 121.002 114.491C120.943 114.491 120.928 118.46 120.967 123.358C121.006 128.257 121.088 132.222 121.147 132.222Z" fill="#263238"/>
<path id="Vector_113" d="M120.227 135.135L105.011 129.009C104.409 128.766 103.887 128.361 103.504 127.838C103.121 127.315 102.891 126.695 102.841 126.049L101.727 111.458C101.727 111.458 101.86 105.249 97.9813 104.948L95.788 105.816C92.9379 107.329 92.2341 111.481 92.6212 114.683C93.1725 119.234 93.4031 125.677 94.017 129.626C94.5252 132.86 96.3627 135.702 99.5374 136.535L118.28 140.593L120.227 135.135Z" fill="#339999"/>
<path id="Vector_114" d="M101.946 113.681C101.971 113.79 101.987 113.902 101.993 114.013C102.016 114.252 102.051 114.573 102.09 114.975C102.169 115.831 102.278 117.036 102.411 118.514C102.544 119.991 102.692 121.794 102.864 123.764C102.904 124.261 102.947 124.765 102.99 125.281C103.02 125.806 103.085 126.329 103.185 126.845C103.291 127.367 103.556 127.844 103.943 128.21C104.36 128.576 104.835 128.872 105.347 129.085C109.542 130.899 113.409 132.401 116.216 133.452L119.551 134.68L120.458 135.012C120.564 135.047 120.667 135.091 120.767 135.141C120.656 135.121 120.548 135.091 120.442 135.052L119.524 134.754C118.742 134.489 117.569 134.094 116.169 133.581C113.342 132.565 109.472 131.087 105.261 129.281C104.729 129.057 104.236 128.748 103.803 128.366C103.387 127.971 103.103 127.458 102.99 126.896C102.889 126.372 102.825 125.842 102.798 125.309C102.755 124.789 102.716 124.284 102.677 123.788C102.524 121.833 102.384 120.034 102.286 118.533C102.188 117.032 102.09 115.847 102.028 114.991C102 114.6 101.981 114.264 101.969 114.025C101.951 113.911 101.944 113.796 101.946 113.681Z" fill="#263238"/>
<path id="Vector_115" d="M93.2258 121.613C93.2415 121.677 93.2507 121.742 93.2532 121.808L93.304 122.371C93.3509 122.891 93.4096 123.591 93.4839 124.443C93.5582 125.296 93.6754 126.355 93.8279 127.505C93.9775 128.749 94.2061 129.984 94.5121 131.199C94.656 131.826 94.9074 132.422 95.255 132.963C95.5945 133.459 95.9751 133.926 96.3927 134.358C97.1042 135.09 97.9261 135.707 98.8284 136.184C99.6695 136.612 100.572 136.907 101.503 137.06C101.436 137.069 101.369 137.069 101.303 137.06C101.114 137.047 100.926 137.023 100.74 136.986C100.052 136.858 99.3864 136.632 98.7619 136.317C97.8342 135.85 96.989 135.235 96.2597 134.495C95.8275 134.058 95.4349 133.583 95.0868 133.076C94.7218 132.52 94.4571 131.905 94.3049 131.258C93.9946 130.033 93.7686 128.788 93.6285 127.532C93.4878 126.359 93.394 125.335 93.3314 124.459C93.2688 123.583 93.2337 122.872 93.2141 122.379C93.2141 122.152 93.2141 121.965 93.2141 121.812C93.2074 121.746 93.2114 121.678 93.2258 121.613Z" fill="#263238"/>
<path id="Vector_116" d="M99.7266 131.823C99.7665 131.538 99.8608 131.263 100.004 131.014C100.318 130.391 100.752 129.836 101.283 129.383C101.813 128.93 102.428 128.587 103.093 128.375C103.362 128.272 103.649 128.223 103.937 128.23C103.681 128.337 103.42 128.431 103.155 128.512C102.527 128.755 101.944 129.103 101.431 129.54C100.92 129.978 100.485 130.499 100.145 131.08C99.8712 131.53 99.7578 131.835 99.7266 131.823Z" fill="#263238"/>
<path id="Vector_117" d="M102.727 120.725C102.76 120.734 102.791 120.749 102.82 120.768L103.094 120.912C103.447 121.086 103.81 121.239 104.181 121.37C105.549 121.85 107.016 121.976 108.446 121.737C110.571 121.358 112.468 120.179 113.748 118.441C114.513 117.438 114.992 116.247 115.136 114.993C115.207 114.334 115.138 113.668 114.933 113.038C114.716 112.395 114.339 111.818 113.838 111.361C113.343 110.898 112.721 110.596 112.051 110.493C111.734 110.436 111.408 110.452 111.098 110.539C110.788 110.627 110.501 110.783 110.26 110.997C110.042 111.211 109.916 111.501 109.909 111.807C109.915 112.11 110.02 112.404 110.206 112.643C110.4 112.875 110.638 113.066 110.907 113.205C111.175 113.344 111.468 113.428 111.77 113.453C112.828 113.585 113.903 113.449 114.896 113.057C115.888 112.666 116.767 112.032 117.45 111.212C117.969 110.575 118.359 109.844 118.6 109.058C118.78 108.463 118.877 107.846 118.889 107.225C118.893 106.832 118.865 106.439 118.803 106.052C118.78 105.93 118.76 105.829 118.748 105.751C118.745 105.715 118.745 105.68 118.748 105.645C118.91 106.15 118.989 106.678 118.983 107.209C118.987 107.84 118.9 108.468 118.725 109.074C118.29 110.534 117.35 111.793 116.073 112.626C114.797 113.459 113.266 113.811 111.754 113.621C111.431 113.592 111.117 113.5 110.83 113.35C110.543 113.2 110.288 112.994 110.081 112.745C109.868 112.472 109.75 112.137 109.744 111.791C109.745 111.435 109.885 111.094 110.135 110.841C110.398 110.606 110.71 110.434 111.049 110.337C111.387 110.239 111.743 110.219 112.09 110.278C112.801 110.383 113.463 110.704 113.986 111.197C114.516 111.675 114.912 112.283 115.136 112.96C115.349 113.615 115.421 114.308 115.347 114.993C115.194 116.274 114.699 117.49 113.912 118.512C112.827 119.993 111.286 121.078 109.526 121.6C107.766 122.123 105.883 122.054 104.165 121.405C103.658 121.243 103.174 121.014 102.727 120.725Z" fill="white"/>
<path id="Vector_118" d="M92.7578 116.836C92.8238 116.719 92.9083 116.614 93.008 116.523C93.2579 116.259 93.5329 116.019 93.8291 115.808C94.8271 115.122 95.9881 114.711 97.1953 114.616C97.8576 114.541 98.5275 114.569 99.1814 114.698C99.7129 114.808 100.227 114.989 100.71 115.237C101.034 115.401 101.345 115.589 101.641 115.8C101.755 115.87 101.858 115.957 101.946 116.058C101.922 116.089 101.469 115.745 100.648 115.366C99.5773 114.87 98.3903 114.68 97.2187 114.819C96.0423 114.912 94.9067 115.292 93.9112 115.925C93.1566 116.43 92.7852 116.864 92.7578 116.836Z" fill="white"/>
<path id="Vector_119" d="M95.1953 106.402C95.5663 106.751 95.9801 107.052 96.4269 107.297C96.9147 107.547 97.4452 107.704 97.9907 107.758C98.6548 107.825 99.3253 107.731 99.9456 107.485C100.554 107.225 101.09 106.823 101.509 106.312C101.856 105.885 102.121 105.399 102.291 104.877C102.432 104.387 102.512 103.881 102.53 103.372C102.568 103.506 102.585 103.646 102.581 103.786C102.587 104.169 102.536 104.552 102.428 104.92C102.269 105.469 102.003 105.982 101.646 106.429C101.218 106.99 100.648 107.427 99.9958 107.696C99.3434 107.965 98.6314 108.057 97.9321 107.962C97.3652 107.897 96.8165 107.722 96.3174 107.445C95.9814 107.261 95.6755 107.026 95.4103 106.75C95.3179 106.648 95.245 106.53 95.1953 106.402Z" fill="white"/>
<path id="Vector_120" d="M108.453 130.397C108.454 130.3 108.464 130.203 108.484 130.108C108.539 129.836 108.63 129.573 108.754 129.326C109.251 128.415 110.059 127.713 111.03 127.347C112.459 126.779 114.04 126.722 115.506 127.187C116.312 127.425 117.234 127.723 117.852 128.508C118.007 128.709 118.105 128.948 118.136 129.2C118.166 129.452 118.127 129.708 118.024 129.939C117.788 130.392 117.406 130.751 116.941 130.96C116.492 131.182 116 131.305 115.498 131.32C115.001 131.344 114.511 131.191 114.114 130.889C113.931 130.733 113.782 130.542 113.676 130.326C113.57 130.11 113.509 129.875 113.497 129.634C113.471 129.186 113.542 128.736 113.704 128.317C114.293 126.892 115.415 125.753 116.832 125.142C117.771 124.724 118.801 124.546 119.826 124.626C120.2 124.655 120.568 124.732 120.921 124.857C120.921 124.884 120.53 124.755 119.819 124.704C118.969 124.658 118.119 124.786 117.32 125.08C116.521 125.374 115.791 125.827 115.174 126.413C114.601 126.962 114.154 127.629 113.864 128.368C113.712 128.762 113.647 129.185 113.673 129.607C113.684 129.821 113.739 130.03 113.834 130.222C113.93 130.414 114.064 130.584 114.228 130.721C114.585 130.996 115.029 131.135 115.479 131.112C115.949 131.1 116.41 130.985 116.832 130.776C117.257 130.587 117.606 130.26 117.825 129.85C117.913 129.65 117.945 129.43 117.919 129.213C117.893 128.997 117.809 128.791 117.676 128.618C117.403 128.274 117.054 127.998 116.656 127.813C116.269 127.628 115.868 127.477 115.455 127.363C114.028 126.901 112.486 126.941 111.084 127.476C110.135 127.82 109.335 128.485 108.825 129.357C108.655 129.686 108.53 130.035 108.453 130.397Z" fill="white"/>
<path id="Vector_121" d="M98.3203 135.888C98.3203 135.848 98.8989 135.802 99.7786 135.497C100.927 135.092 101.956 134.407 102.771 133.502C103.587 132.598 104.163 131.504 104.447 130.32C104.67 129.413 104.662 128.823 104.701 128.827C104.728 128.962 104.735 129.1 104.72 129.237C104.711 129.612 104.667 129.985 104.588 130.351C104.334 131.574 103.759 132.706 102.922 133.632C102.085 134.557 101.016 135.243 99.8255 135.618C99.4691 135.734 99.1026 135.816 98.7308 135.864C98.5958 135.892 98.4576 135.9 98.3203 135.888Z" fill="white"/>
<path id="Vector_122" d="M93.3828 124.546C93.4407 124.514 93.5024 124.489 93.5666 124.472C93.6917 124.433 93.8715 124.378 94.11 124.315C94.7868 124.137 95.4873 124.066 96.186 124.104C96.6713 124.141 97.1471 124.258 97.5935 124.452C98.1135 124.676 98.5662 125.032 98.9072 125.484C99.2815 125.997 99.4628 126.626 99.4193 127.259C99.3942 127.596 99.2912 127.923 99.1183 128.213C98.9433 128.519 98.6666 128.755 98.3364 128.878C98.1622 128.937 97.9755 128.95 97.795 128.914C97.6145 128.878 97.4466 128.796 97.3081 128.675C97.0735 128.416 96.9462 128.078 96.9523 127.728C96.9322 127.106 97.0552 126.486 97.312 125.918C97.6688 125.109 98.2858 124.442 99.065 124.023C99.8441 123.605 100.741 123.458 101.613 123.608C101.8 123.637 101.985 123.683 102.164 123.745C102.285 123.791 102.348 123.819 102.344 123.827C102.34 123.834 102.082 123.745 101.601 123.686C100.921 123.604 100.232 123.692 99.5953 123.944C98.6521 124.322 97.8972 125.059 97.4958 125.993C97.257 126.535 97.1434 127.124 97.1635 127.717C97.1552 128.016 97.2615 128.307 97.4606 128.53C97.5727 128.625 97.7077 128.69 97.8524 128.717C97.997 128.745 98.1463 128.734 98.2855 128.686C98.5751 128.579 98.8184 128.375 98.9736 128.108C99.1292 127.844 99.2228 127.549 99.2473 127.244C99.2883 126.656 99.1239 126.073 98.7821 125.594C98.4646 125.163 98.04 124.824 97.5505 124.609C97.1227 124.414 96.6655 124.293 96.1978 124.249C95.5141 124.198 94.8266 124.247 94.1569 124.394C93.6526 124.491 93.3906 124.562 93.3828 124.546Z" fill="white"/>
<g id="Group_4" opacity="0.3">
<path id="Vector_123" d="M115.855 133.395C114.229 132.477 112.638 131.769 110.937 130.999C109.236 130.229 107.567 129.232 106.453 127.73C104.353 124.9 104.592 120.814 102.445 118.022C102.586 119.899 102.726 121.777 102.864 123.656C102.993 125.377 102.731 127.081 103.837 128.25C104.772 129.235 106.593 129.99 107.884 130.416C110.476 131.272 113.267 132.543 115.855 133.395Z" fill="black"/>
</g>
<path id="Vector_124" d="M142.315 154.839C142.315 154.839 155.049 158.358 155.561 158.546C156.343 158.816 156.198 161.627 155.006 161.58C154.439 161.56 145.232 161.924 144.059 161.853C142.886 161.783 139.367 160.395 139.367 160.395L142.315 154.839Z" fill="#339999"/>
<path id="Vector_125" d="M147.602 159.698C147.76 159.23 147.948 158.773 148.165 158.33C148.439 157.92 148.74 157.528 149.065 157.157C148.612 157.405 148.235 157.773 147.978 158.22C147.72 158.668 147.59 159.178 147.602 159.694V159.698Z" fill="#263238"/>
<path id="Vector_126" d="M146.273 159.096C146.336 159.096 146.465 158.506 146.805 157.841C147.145 157.176 147.544 156.711 147.501 156.668C147.129 156.957 146.827 157.326 146.614 157.746C146.402 158.167 146.286 158.629 146.273 159.1V159.096Z" fill="#263238"/>
<path id="Vector_127" d="M145.05 158.764C145.112 158.309 145.212 157.859 145.347 157.42C145.547 157.005 145.778 156.606 146.039 156.227C145.635 156.499 145.324 156.888 145.148 157.341C144.971 157.794 144.937 158.291 145.05 158.764Z" fill="#263238"/>
<path id="Vector_128" d="M145.258 157.117C145.37 156.815 145.417 156.493 145.395 156.171C145.391 155.821 145.348 155.472 145.266 155.131C145.217 154.93 145.153 154.733 145.074 154.541C145.037 154.42 144.967 154.311 144.871 154.228C144.807 154.181 144.728 154.157 144.648 154.161C144.568 154.165 144.492 154.197 144.433 154.252C144.334 154.347 144.274 154.475 144.265 154.611C144.255 154.723 144.255 154.836 144.265 154.948C144.266 155.157 144.292 155.366 144.343 155.569C144.428 155.91 144.559 156.238 144.734 156.543C144.874 156.837 145.068 157.102 145.305 157.325C145.336 157.325 145.121 157.008 144.867 156.488C144.719 156.187 144.607 155.869 144.535 155.542C144.494 155.35 144.473 155.155 144.472 154.959C144.472 154.764 144.472 154.521 144.59 154.428C144.613 154.407 144.643 154.395 144.674 154.395C144.705 154.395 144.735 154.407 144.758 154.428C144.821 154.49 144.869 154.566 144.898 154.65C144.973 154.834 145.037 155.022 145.09 155.213C145.18 155.538 145.236 155.871 145.258 156.207C145.282 156.754 145.223 157.114 145.258 157.117Z" fill="#263238"/>
<path id="Vector_129" d="M145.238 156.989C144.979 156.881 144.698 156.835 144.417 156.856C144.113 156.856 143.81 156.893 143.514 156.965C143.332 157.007 143.156 157.071 142.99 157.157C142.886 157.21 142.802 157.296 142.75 157.401C142.699 157.506 142.683 157.625 142.705 157.74C142.734 157.849 142.792 157.949 142.872 158.03C142.953 158.11 143.053 158.168 143.162 158.197C143.35 158.244 143.546 158.244 143.733 158.197C144.035 158.128 144.317 157.995 144.562 157.806C144.794 157.651 144.994 157.453 145.152 157.224C144.917 157.361 144.691 157.514 144.476 157.681C144.24 157.843 143.974 157.959 143.694 158.021C143.539 158.06 143.376 158.06 143.221 158.021C143.148 158.003 143.08 157.965 143.026 157.912C142.972 157.859 142.933 157.793 142.912 157.72C142.9 157.648 142.912 157.575 142.946 157.511C142.98 157.446 143.034 157.395 143.1 157.364C143.245 157.284 143.4 157.224 143.561 157.184C143.842 157.104 144.13 157.055 144.421 157.036C144.918 156.973 145.231 157.024 145.238 156.989Z" fill="#263238"/>
<path id="Vector_130" d="M149.557 159.837C149.611 159.448 149.696 159.063 149.811 158.687C149.99 158.338 150.198 158.005 150.433 157.69C150.062 157.893 149.772 158.217 149.612 158.608C149.453 158.999 149.433 159.433 149.557 159.837Z" fill="#263238"/>
<path id="Vector_131" d="M140.672 160.426C140.826 160.523 140.992 160.602 141.164 160.66C141.627 160.836 142.099 160.982 142.58 161.098C144.177 161.447 145.81 161.602 147.443 161.56C149.351 161.536 151.072 161.45 152.319 161.399L153.793 161.321C153.974 161.318 154.154 161.3 154.332 161.266C154.153 161.238 153.97 161.229 153.789 161.239H152.315L147.443 161.333C145.825 161.374 144.206 161.243 142.615 160.942C141.395 160.696 140.688 160.383 140.672 160.426Z" fill="#263238"/>
<path id="Vector_132" d="M140.297 160.716C140.297 160.743 140.66 160.54 141.251 160.282C142.001 159.927 142.836 159.792 143.659 159.891C144.469 160.066 145.2 160.5 145.743 161.126C145.969 161.393 146.213 161.644 146.474 161.877C146.306 161.566 146.097 161.279 145.853 161.024C145.602 160.733 145.318 160.47 145.008 160.243C144.619 159.955 144.168 159.764 143.69 159.687C142.826 159.583 141.951 159.748 141.184 160.16C140.861 160.296 140.561 160.484 140.297 160.716Z" fill="#263238"/>
<path id="Vector_133" d="M128.776 151.324C128.776 151.324 116.726 159.213 116.296 159.534C115.647 160.023 116.39 162.357 117.516 161.954C118.048 161.763 128.158 158.948 129.245 158.525C130.332 158.103 133.26 155.734 133.26 155.734L128.776 151.324Z" fill="#339999"/>
<path id="Vector_134" d="M125.205 157.565C125.06 157.069 124.781 156.623 124.399 156.274C124.017 155.926 123.546 155.69 123.039 155.591C123.463 155.845 123.869 156.127 124.255 156.435C124.595 156.792 124.912 157.169 125.205 157.565Z" fill="#263238"/>
<path id="Vector_135" d="M126.28 156.585C126.127 156.138 125.877 155.732 125.548 155.394C125.218 155.056 124.818 154.795 124.376 154.63C124.345 154.685 124.873 155.021 125.393 155.537C125.913 156.053 126.226 156.616 126.28 156.585Z" fill="#263238"/>
<path id="Vector_136" d="M127.369 155.89C127.367 155.398 127.18 154.925 126.845 154.565C126.565 154.167 126.146 153.888 125.672 153.783C126.035 154.066 126.376 154.376 126.692 154.709C126.949 155.084 127.175 155.479 127.369 155.89Z" fill="#263238"/>
<path id="Vector_137" d="M126.674 154.394C126.705 154.394 126.541 154.054 126.404 153.491C126.322 153.164 126.273 152.83 126.259 152.494C126.246 152.296 126.246 152.097 126.259 151.899C126.258 151.81 126.281 151.722 126.326 151.645C126.343 151.619 126.369 151.6 126.4 151.592C126.431 151.585 126.463 151.59 126.49 151.606C126.627 151.661 126.697 151.895 126.764 152.083C126.821 152.269 126.86 152.46 126.881 152.654C126.911 152.989 126.901 153.326 126.85 153.659C126.768 154.23 126.654 154.578 126.685 154.589C126.847 154.31 126.953 154.002 126.998 153.682C127.073 153.34 127.1 152.988 127.076 152.638C127.061 152.429 127.023 152.222 126.963 152.021C126.931 151.913 126.892 151.807 126.846 151.704C126.794 151.576 126.696 151.472 126.572 151.411C126.5 151.377 126.418 151.37 126.34 151.391C126.263 151.411 126.196 151.459 126.15 151.524C126.085 151.633 126.051 151.757 126.052 151.884C126.009 152.441 126.073 153.001 126.24 153.534C126.322 153.848 126.47 154.141 126.674 154.394Z" fill="#263238"/>
<path id="Vector_138" d="M126.633 154.264C126.633 154.295 126.93 154.155 127.415 154.033C127.698 153.965 127.988 153.926 128.279 153.916C128.445 153.905 128.612 153.915 128.775 153.947C128.847 153.957 128.914 153.99 128.966 154.041C129.018 154.091 129.053 154.157 129.065 154.229C129.068 154.307 129.05 154.384 129.014 154.452C128.978 154.521 128.924 154.579 128.857 154.62C128.723 154.704 128.57 154.755 128.412 154.768C128.126 154.796 127.838 154.767 127.563 154.682C127.308 154.587 127.047 154.51 126.781 154.452C127.002 154.628 127.254 154.761 127.524 154.843C127.814 154.954 128.125 155 128.435 154.979C128.628 154.969 128.815 154.91 128.979 154.807C129.075 154.748 129.154 154.664 129.207 154.563C129.26 154.463 129.285 154.35 129.28 154.237C129.266 154.12 129.215 154.011 129.133 153.927C129.052 153.842 128.946 153.786 128.83 153.767C128.647 153.735 128.46 153.727 128.275 153.744C127.971 153.764 127.67 153.821 127.38 153.912C127.107 153.97 126.851 154.091 126.633 154.264Z" fill="#263238"/>
<path id="Vector_139" d="M119.056 161.521C119.056 161.54 119.259 161.399 119.353 161.055C119.447 160.606 119.365 160.138 119.126 159.746C119.01 159.536 118.88 159.335 118.735 159.144C118.618 158.981 118.48 158.833 118.325 158.706C118.214 158.614 118.077 158.558 117.934 158.545C117.832 158.545 117.781 158.565 117.781 158.577C117.781 158.588 117.996 158.596 118.219 158.823C118.351 158.956 118.467 159.103 118.567 159.261C118.707 159.45 118.838 159.645 118.958 159.847C119.174 160.198 119.268 160.611 119.224 161.02C119.178 161.19 119.122 161.357 119.056 161.521Z" fill="#263238"/>
<path id="Vector_140" d="M123.384 158.288C123.4 158.076 123.371 157.864 123.297 157.664C123.223 157.465 123.108 157.285 122.958 157.134C122.838 156.96 122.68 156.813 122.497 156.706C122.314 156.598 122.11 156.532 121.898 156.513C122.218 156.74 122.518 156.993 122.794 157.271C123.019 157.593 123.216 157.933 123.384 158.288Z" fill="#263238"/>
<path id="Vector_141" d="M132.025 156.152C131.838 156.257 131.66 156.377 131.493 156.512C131.016 156.844 130.52 157.148 130.008 157.423C129.25 157.825 128.466 158.176 127.662 158.475C126.747 158.815 125.707 159.135 124.644 159.448C122.474 160.074 120.511 160.645 119.096 161.071L117.411 161.599C117.203 161.654 117 161.727 116.805 161.817C117.018 161.789 117.228 161.743 117.434 161.681L119.127 161.208C120.554 160.817 122.521 160.269 124.69 159.644C125.773 159.327 126.802 158.999 127.717 158.647C128.531 158.337 129.321 157.969 130.082 157.544C130.593 157.255 131.081 156.928 131.544 156.567C131.716 156.442 131.876 156.304 132.025 156.152Z" fill="#263238"/>
<path id="Vector_142" d="M132.47 156.313C132.145 156.171 131.801 156.078 131.449 156.04C130.593 155.881 129.708 155.99 128.916 156.352C128.487 156.577 128.12 156.901 127.845 157.299C127.618 157.612 127.428 157.95 127.278 158.307C127.121 158.624 127.009 158.961 126.945 159.308C127.122 159.006 127.279 158.693 127.414 158.37C127.74 157.606 128.306 156.97 129.025 156.556C129.782 156.215 130.619 156.095 131.441 156.208C132.067 156.259 132.462 156.345 132.47 156.313Z" fill="#263238"/>
<path id="Vector_143" d="M153.823 132.085C153.823 132.085 157.439 133.375 157.451 137.43C157.482 145.19 141.765 153.749 141.765 153.749L120.849 139.893L119.539 139.361C119.539 139.361 147.786 128.758 153.823 132.085Z" fill="#263238"/>
<path id="Vector_144" d="M131.445 146.89C131.638 146.784 131.821 146.661 131.993 146.523C132.333 146.273 132.822 145.905 133.42 145.44C134.62 144.517 136.246 143.204 138.002 141.698C139.757 140.193 141.298 138.782 142.392 137.738C142.94 137.218 143.378 136.788 143.679 136.487C143.841 136.34 143.99 136.179 144.124 136.006C143.944 136.132 143.776 136.273 143.62 136.428L142.291 137.628C141.169 138.641 139.613 140.037 137.861 141.538C136.11 143.039 134.499 144.369 133.33 145.323L131.942 146.456C131.765 146.588 131.599 146.733 131.445 146.89Z" fill="#455A64"/>
<path id="Vector_145" d="M147.917 134.985C146.55 134.841 145.18 135.244 144.109 136.107C144.145 136.166 144.891 135.677 145.963 135.372C147.034 135.068 147.917 135.052 147.917 134.985Z" fill="#455A64"/>
<path id="Vector_146" d="M146.119 133.76C145.635 133.966 145.209 134.287 144.879 134.696C144.549 135.105 144.325 135.59 144.227 136.106C144.289 136.106 144.516 135.477 145.044 134.832C145.571 134.186 146.154 133.815 146.119 133.76Z" fill="#455A64"/>
<path id="Vector_147" d="M154.973 158.345C154.973 158.322 154.723 158.271 154.433 158.51C154.092 158.827 153.878 159.258 153.831 159.722C153.763 160.177 153.828 160.643 154.019 161.063C154.167 161.379 154.332 161.528 154.351 161.512C154.3 161.339 154.236 161.169 154.16 161.004C154.023 160.602 153.983 160.173 154.042 159.753C154.089 159.334 154.26 158.939 154.535 158.619C154.758 158.388 154.977 158.381 154.973 158.345Z" fill="#263238"/>
<path id="Vector_148" d="M149.012 119.396L141.564 138.28L109.493 138.804L108.898 137.068L120.139 136.662L125.542 119.909L149.012 119.396Z" fill="#455A64"/>
<path id="Vector_149" d="M134.035 127.584C134.281 127.461 134.558 127.411 134.832 127.441C135.106 127.47 135.365 127.579 135.579 127.752C135.761 127.923 135.887 128.145 135.94 128.388C135.994 128.632 135.973 128.886 135.88 129.117C135.78 129.348 135.617 129.546 135.41 129.689C135.202 129.832 134.959 129.914 134.707 129.926C134.443 129.943 134.18 129.873 133.958 129.727C133.736 129.581 133.569 129.367 133.48 129.117C133.396 128.837 133.403 128.538 133.5 128.263C133.597 127.987 133.779 127.75 134.019 127.584" fill="#EBEBEB"/>
<path id="Vector_150" d="M143.749 154.692C143.749 154.692 114.199 135.308 112.995 134.905C111.791 134.503 108.859 132.587 105.938 133.392C103.018 134.198 100.39 136.821 99.0808 140.653C98.3301 142.842 97.9782 146.576 97.8101 149.379C97.5861 152.731 98.6724 156.039 100.84 158.606C101.8 159.804 103.076 160.71 104.523 161.222C104.832 161.319 105.152 161.401 105.481 161.472C111.068 162.684 116.819 160.174 119.947 155.396L120.635 154.348C120.635 154.348 139.968 161.448 140.269 161.351L143.749 154.692Z" fill="#263238"/>
<path id="Vector_151" d="M107.188 149.357C107.24 149.384 107.293 149.407 107.348 149.428L107.833 149.619L109.705 150.343L116.668 152.966C119.624 154.069 123.166 155.382 127.142 156.829C131.119 158.275 135.521 159.859 140.228 161.45L140.31 161.481L140.353 161.399L142.664 156.989L143.837 154.741L143.88 154.655L143.798 154.604L121.258 140.295L114.487 136.025L112.649 134.876L112.168 134.583C112.059 134.516 112 134.489 112 134.489L112.157 134.602L112.626 134.911L114.444 136.084L121.2 140.42L143.704 154.784L143.665 154.643C143.293 155.359 142.883 156.121 142.492 156.891L140.185 161.301L140.314 161.251C135.622 159.663 131.205 158.084 127.225 156.649L116.735 152.833L109.733 150.26L107.848 149.572L107.356 149.4L107.188 149.357Z" fill="#455A64"/>
<path id="Vector_152" d="M110.256 80.5271C110.76 79.1626 111.875 78.5722 113.286 78.2321C113.996 78.0669 114.735 78.0755 115.441 78.2573C116.147 78.439 116.799 78.7885 117.34 79.276C118.056 79.9289 118.58 80.8399 119.463 81.2308C120.922 81.8916 122.787 80.9259 124.155 81.7352C124.566 81.9773 124.88 82.3544 125.045 82.8022C125.209 83.2501 125.214 83.7411 125.057 84.1917C124.9 84.6423 124.592 85.0248 124.186 85.274C123.779 85.5233 123.298 85.6239 122.826 85.5589C123.776 86.0046 123.952 87.4355 123.299 88.2566C122.646 89.0776 121.438 89.3004 120.425 89.015C119.427 88.6712 118.542 88.0616 117.864 87.2518C117.153 86.4698 116.527 85.6292 115.753 84.9059C115.01 84.151 114.024 83.683 112.969 83.5845C111.55 83.5297 110.233 84.4876 109.494 85.6957C108.755 86.9038 108.469 88.3387 108.262 89.7461C108.055 91.1536 107.899 92.5846 107.355 93.8982C107.293 94.0546 107.199 94.2228 107.038 94.2579C106.8 94.3088 106.628 94.0468 106.534 93.824C105.464 91.3131 104.898 88.6164 104.869 85.8873C104.849 84.3234 105.029 82.826 106.01 81.5866C106.992 80.3472 109.255 79.577 110.244 80.5075" fill="#263238"/>
<path id="Vector_153" d="M106.921 86.8334L104.747 102.621C104.66 103.258 104.703 103.907 104.875 104.527C105.046 105.147 105.342 105.726 105.744 106.228C106.147 106.73 106.647 107.146 107.215 107.448C107.783 107.751 108.406 107.935 109.047 107.989C110.261 108.094 111.469 107.729 112.421 106.969C113.373 106.208 113.996 105.11 114.161 103.903C114.322 102.73 114.458 101.725 114.486 101.604C114.486 101.604 118.556 101.78 119.392 97.8431C119.783 95.9391 120.311 91.9512 120.737 88.3387C120.952 86.4692 120.457 84.5872 119.348 83.0663C118.24 81.5454 116.601 80.4967 114.756 80.1283L114.365 80.054C110.201 79.4598 107.386 82.6657 106.921 86.8334Z" fill="#FFBE9D"/>
<path id="Vector_154" d="M114.485 101.551C112.655 101.215 110.966 100.342 109.633 99.0444C109.633 99.0444 110.282 102.125 114.289 102.563L114.485 101.551Z" fill="#EB996E"/>
<path id="Vector_155" d="M119.038 90.7536C119.011 90.9008 118.926 91.0312 118.804 91.1168C118.681 91.2023 118.529 91.2362 118.382 91.2111C118.309 91.203 118.239 91.1802 118.175 91.1443C118.111 91.1083 118.055 91.0599 118.011 91.0018C117.966 90.9438 117.934 90.8773 117.916 90.8064C117.897 90.7356 117.894 90.6618 117.905 90.5894C117.931 90.4416 118.015 90.3102 118.138 90.2238C118.261 90.1375 118.413 90.1031 118.561 90.1281C118.634 90.1367 118.705 90.1599 118.768 90.1963C118.832 90.2326 118.888 90.2814 118.932 90.3398C118.977 90.3981 119.009 90.4649 119.027 90.536C119.046 90.607 119.049 90.6811 119.038 90.7536Z" fill="#263238"/>
<path id="Vector_156" d="M119.485 90.1041C119.399 90.1666 119.035 89.7639 118.429 89.6427C117.823 89.5215 117.315 89.7405 117.256 89.6427C117.197 89.545 117.33 89.4863 117.553 89.3847C117.85 89.2526 118.182 89.2184 118.499 89.2869C118.815 89.3474 119.103 89.5077 119.32 89.7444C119.488 89.932 119.524 90.0806 119.485 90.1041Z" fill="#263238"/>
<path id="Vector_157" d="M113.049 89.7686C113.022 89.9165 112.938 90.0479 112.815 90.1342C112.692 90.2206 112.54 90.255 112.392 90.23C112.319 90.2208 112.249 90.1973 112.185 90.1609C112.122 90.1244 112.066 90.0757 112.021 90.0175C111.977 89.9593 111.944 89.8929 111.925 89.8219C111.906 89.751 111.901 89.6771 111.911 89.6044C111.941 89.458 112.025 89.3284 112.148 89.2426C112.27 89.1567 112.42 89.1211 112.568 89.1431C112.641 89.1517 112.712 89.1749 112.776 89.2112C112.84 89.2475 112.896 89.2962 112.94 89.3545C112.985 89.4128 113.018 89.4795 113.037 89.5506C113.055 89.6217 113.059 89.6958 113.049 89.7686Z" fill="#263238"/>
<path id="Vector_158" d="M113.5 89.0309C113.414 89.0895 113.051 88.6868 112.445 88.5656C111.839 88.4444 111.33 88.6634 111.272 88.5656C111.213 88.4679 111.346 88.4092 111.569 88.3076C111.866 88.1776 112.197 88.1434 112.515 88.2098C112.83 88.2738 113.119 88.4335 113.34 88.6673C113.504 88.8784 113.539 89.0035 113.5 89.0309Z" fill="#263238"/>
<path id="Vector_159" d="M114.797 93.9601C115.136 93.9223 115.479 93.9288 115.817 93.9797C115.978 93.9797 116.13 93.9797 116.177 93.8898C116.227 93.7347 116.227 93.5679 116.177 93.4128C116.107 93.0218 116.032 92.5839 115.954 92.1382C115.653 90.3319 115.469 88.8619 115.54 88.8502C115.61 88.8384 115.931 90.2928 116.216 92.0991C116.286 92.5448 116.357 92.9671 116.419 93.3737C116.481 93.5806 116.465 93.8026 116.376 93.9992C116.343 94.0486 116.299 94.0898 116.248 94.1196C116.196 94.1494 116.139 94.1671 116.079 94.1713C115.99 94.1839 115.899 94.1839 115.809 94.1713C115.464 94.1434 115.124 94.0725 114.797 93.9601Z" fill="#263238"/>
<path id="Vector_160" d="M112.927 94.0333C113.028 94.0333 112.896 94.7058 113.365 95.2845C113.834 95.8631 114.538 95.9335 114.538 96.0273C114.538 96.1211 114.358 96.1211 114.061 96.0703C113.673 95.9989 113.323 95.7942 113.071 95.4917C112.833 95.1985 112.717 94.8246 112.747 94.4478C112.778 94.1663 112.884 94.0177 112.927 94.0333Z" fill="#263238"/>
<path id="Vector_161" d="M114.127 86.6802C114.037 86.8366 113.447 86.6372 112.716 86.5785C111.985 86.5199 111.375 86.602 111.308 86.4339C111.281 86.3557 111.414 86.2228 111.676 86.1094C112.023 85.9722 112.398 85.9186 112.77 85.953C113.145 85.9815 113.507 86.0995 113.826 86.297C114.065 86.4534 114.162 86.6098 114.127 86.6802Z" fill="#263238"/>
<path id="Vector_162" d="M119.613 88.3087C119.48 88.426 119.093 88.1992 118.589 88.0898C118.084 87.9803 117.643 87.9998 117.576 87.8356C117.545 87.7574 117.639 87.6323 117.854 87.5385C118.134 87.4281 118.441 87.4076 118.733 87.4798C119.028 87.542 119.295 87.6968 119.496 87.9216C119.64 88.0976 119.676 88.2501 119.613 88.3087Z" fill="#263238"/>
<path id="Vector_163" d="M106.657 89.8213C106.595 89.7783 104.104 88.4763 103.651 91.1936C103.197 93.9108 106.02 93.8053 106.036 93.7271C106.051 93.6489 106.657 89.8213 106.657 89.8213Z" fill="#FFBE9D"/>
<path id="Vector_164" d="M105.388 92.5572C105.388 92.5572 105.337 92.5845 105.251 92.608C105.13 92.6368 105.003 92.6187 104.895 92.5572C104.737 92.4175 104.619 92.2378 104.554 92.0369C104.49 91.8359 104.48 91.6213 104.527 91.4155C104.559 91.1808 104.643 90.9562 104.774 90.7587C104.811 90.6776 104.867 90.6066 104.937 90.5515C105.007 90.4964 105.089 90.4589 105.176 90.442C105.234 90.4372 105.291 90.4525 105.338 90.4854C105.385 90.5182 105.419 90.5665 105.435 90.6219C105.458 90.7 105.435 90.7548 105.435 90.7587C105.435 90.7626 105.501 90.7235 105.497 90.6101C105.493 90.5405 105.465 90.4744 105.419 90.4225C105.387 90.3874 105.349 90.3592 105.306 90.3397C105.263 90.3202 105.216 90.3098 105.169 90.3091C105.054 90.3124 104.942 90.3451 104.843 90.4039C104.745 90.4628 104.663 90.5459 104.606 90.6453C104.45 90.8618 104.35 91.1126 104.312 91.3764C104.238 91.9277 104.434 92.4868 104.809 92.6627C104.878 92.6963 104.955 92.7137 105.032 92.7137C105.109 92.7137 105.185 92.6963 105.255 92.6627C105.372 92.6236 105.395 92.565 105.388 92.5572Z" fill="#EB996E"/>
<path id="Vector_165" d="M121.714 87.7045C120.795 87.7541 119.878 87.585 119.037 87.2112C118.196 86.8374 117.456 86.2695 116.877 85.5542C116.096 84.5455 115.576 83.2279 114.446 82.618C114.057 82.4265 113.633 82.3141 113.2 82.2873C112.768 82.2604 112.334 82.3197 111.924 82.4616C111.108 82.7532 110.361 83.2082 109.727 83.7987C110.086 85.9569 109.128 88.0994 108.194 90.0542C108.114 90.2848 107.958 90.4817 107.752 90.6133C107.385 90.7971 106.947 90.5078 106.724 90.1598C106.412 89.5765 106.276 88.9149 106.333 88.2558C106.341 86.7537 106.647 85.2681 107.232 83.8847C107.827 82.4973 108.815 81.3146 110.075 80.4833C111.69 79.4967 113.626 79.1757 115.474 79.588C117.311 80.0154 118.967 81.0097 120.208 82.4303C120.813 83.06 121.252 83.8297 121.487 84.6706" fill="#263238"/>
</g>
<g id="Plant">
<path id="Vector_166" d="M12.3042 151.373C12.3213 151.315 12.3449 151.26 12.3746 151.208L12.5935 150.735C12.8631 150.124 13.0815 149.491 13.2464 148.843C13.6765 147.162 13.825 144.593 13.1878 141.544C12.8449 139.88 12.393 138.241 11.835 136.637C11.2603 134.897 10.5957 133.052 10.0522 131.054C9.43863 128.97 9.14209 126.806 9.17254 124.634C9.25464 122.363 9.9271 120.095 10.666 117.839C11.405 115.583 12.1673 113.37 12.3941 111.15C12.6504 109.013 12.2219 106.85 11.1704 104.972C10.189 103.166 8.96142 101.626 8.04264 100.027C7.18149 98.5459 6.54633 96.9448 6.15819 95.2763C5.60438 92.8576 5.56442 90.3496 6.0409 87.9144C6.21617 87.0243 6.47806 86.1535 6.82283 85.3145C6.81366 85.3742 6.79927 85.4331 6.77982 85.4904L6.62344 85.9869C5.70354 88.9895 5.60499 92.1837 6.33803 95.2372C6.72981 96.8866 7.36632 98.468 8.2264 99.9289C9.14517 101.493 10.3806 103.057 11.3776 104.867C12.4454 106.781 12.8819 108.984 12.6248 111.161C12.3941 113.421 11.6239 115.646 10.8889 117.902C10.1539 120.158 9.48531 122.398 9.40321 124.63C9.36917 126.78 9.65778 128.923 10.2594 130.988C10.795 132.974 11.4558 134.819 12.0188 136.567C12.5721 138.18 13.0175 139.828 13.352 141.501C13.9736 144.574 13.7938 147.17 13.352 148.855C13.1796 149.505 12.9466 150.137 12.656 150.743C12.5544 150.939 12.4723 151.091 12.4136 151.208C12.3825 151.267 12.3459 151.322 12.3042 151.373Z" fill="#263238"/>
<path id="Vector_167" d="M9.28622 101.602C9.28622 101.602 7.41349 95.62 10.7719 92.117C10.7979 92.0888 10.8312 92.0684 10.8682 92.058C10.9051 92.0476 10.9442 92.0477 10.9811 92.0583C11.0179 92.0688 11.0512 92.0894 11.0771 92.1177C11.1029 92.146 11.1205 92.1809 11.1277 92.2186C11.3075 93.2077 11.5304 96.2182 9.28622 101.602Z" fill="#339999"/>
<path id="Vector_168" d="M10.4089 94.1113C10.4026 94.4822 10.3594 94.8515 10.2799 95.2139C10.1587 95.9958 10.014 96.8677 9.85375 97.8529C9.69346 98.8381 9.55662 99.7335 9.43542 100.492C9.4038 100.862 9.33703 101.229 9.23602 101.587C9.20441 101.215 9.21622 100.841 9.27121 100.472C9.33377 99.7882 9.45497 98.8499 9.62308 97.8177C9.7912 96.7856 9.97104 95.8629 10.1196 95.1865C10.1744 94.8182 10.2715 94.4574 10.4089 94.1113Z" fill="#263238"/>
<path id="Vector_169" d="M11.4844 115.718C11.4844 115.718 12.6299 109.552 17.2355 108.035C17.2718 108.022 17.3109 108.02 17.3484 108.028C17.386 108.037 17.4205 108.055 17.4481 108.082C17.4757 108.109 17.4953 108.143 17.5047 108.18C17.5141 108.217 17.5129 108.256 17.5013 108.293C17.2042 109.239 15.9883 112.007 11.4844 115.718Z" fill="#339999"/>
<path id="Vector_170" d="M15.9766 109.617C15.7978 109.942 15.5869 110.249 15.3472 110.532C14.8858 111.15 14.3385 111.869 13.7364 112.667L12.1178 114.805C11.9157 115.117 11.6854 115.408 11.4297 115.677C11.5751 115.334 11.7601 115.008 11.981 114.708C12.3719 114.133 12.8997 113.359 13.5448 112.526C14.1899 111.693 14.7724 110.962 15.2142 110.43C15.4361 110.131 15.692 109.858 15.9766 109.617Z" fill="#263238"/>
<path id="Vector_171" d="M10.2345 131.178C10.2345 131.178 9.53857 124.946 13.503 122.147C13.5342 122.125 13.5711 122.111 13.6095 122.108C13.6479 122.106 13.6863 122.114 13.7204 122.132C13.7545 122.149 13.7829 122.176 13.8025 122.21C13.8221 122.243 13.8321 122.281 13.8314 122.319C13.8197 123.32 13.4639 126.319 10.2345 131.178Z" fill="#339999"/>
<path id="Vector_172" d="M12.7718 124.036C12.6974 124.4 12.5847 124.755 12.4355 125.096C12.1697 125.819 11.8608 126.66 11.5129 127.606L10.6019 130.116C10.505 130.473 10.3741 130.82 10.2109 131.152C10.2523 130.781 10.3349 130.417 10.4572 130.065C10.6488 129.404 10.946 128.501 11.3096 127.524C11.6732 126.546 12.0289 125.666 12.2987 125.037C12.418 124.687 12.5767 124.351 12.7718 124.036Z" fill="#263238"/>
<path id="Vector_173" d="M13.7044 146.739C13.7044 146.739 13.2313 140.484 17.2935 137.833C17.3252 137.811 17.3624 137.798 17.4009 137.797C17.4394 137.795 17.4777 137.804 17.5114 137.822C17.5451 137.841 17.5729 137.869 17.5918 137.902C17.6106 137.936 17.6197 137.974 17.618 138.013C17.5671 139.01 17.1058 141.993 13.7044 146.739Z" fill="#339999"/>
<path id="Vector_174" d="M16.4868 139.701C16.393 140.063 16.262 140.414 16.0959 140.749C15.8026 141.461 15.4625 142.313 15.0833 143.22L14.0785 145.699C13.976 146.044 13.8425 146.379 13.6797 146.7C13.7322 146.331 13.828 145.97 13.9651 145.624C14.1762 144.971 14.5085 144.084 14.9073 143.118C15.3061 142.153 15.6893 141.285 15.9825 140.667C16.1146 140.327 16.2837 140.004 16.4868 139.701Z" fill="#263238"/>
<path id="Vector_175" d="M6.59499 96.3477C6.59499 96.3477 1.03936 93.4467 0.92989 88.5948C0.928186 88.5563 0.937256 88.5181 0.956081 88.4844C0.974906 88.4508 1.00274 88.4231 1.03645 88.4044C1.07017 88.3857 1.10842 88.3768 1.14692 88.3787C1.18542 88.3805 1.22264 88.3931 1.25439 88.415C2.07933 88.9858 4.36648 90.9523 6.59499 96.3477Z" fill="#339999"/>
<path id="Vector_176" d="M2.08594 90.2603C2.34563 90.5252 2.57751 90.816 2.77795 91.1282L4.34181 93.2942L5.90568 95.4562C6.14392 95.7401 6.35591 96.045 6.53904 96.3672C6.24505 96.1318 5.98229 95.8598 5.75711 95.5579C5.31532 95.034 4.73278 94.2833 4.12287 93.4349C3.51296 92.5865 2.98125 91.8007 2.60983 91.222C2.39908 90.9225 2.22331 90.5998 2.08594 90.2603Z" fill="#263238"/>
<path id="Vector_177" d="M12.5569 109.208C12.5569 109.208 6.83704 106.651 6.43044 101.815C6.4272 101.777 6.4345 101.739 6.45155 101.704C6.4686 101.67 6.49474 101.642 6.52708 101.621C6.55942 101.601 6.59671 101.59 6.63484 101.59C6.67298 101.589 6.71048 101.6 6.74321 101.619C7.60334 102.124 10.0078 103.949 12.5569 109.208Z" fill="#339999"/>
<path id="Vector_178" d="M7.6875 103.396C7.96201 103.646 8.21087 103.922 8.43034 104.221L10.1271 106.289L11.8278 108.35C12.0817 108.612 12.3095 108.899 12.5081 109.206C12.21 108.976 11.9385 108.714 11.6988 108.424C11.2257 107.923 10.6002 107.212 9.93947 106.403C9.27873 105.593 8.7001 104.839 8.29741 104.287C8.06106 104.014 7.85645 103.715 7.6875 103.396Z" fill="#263238"/>
<path id="Vector_179" d="M9.27219 123.533C9.27219 123.533 5.34298 118.646 7.18834 114.15C7.20237 114.114 7.22595 114.083 7.25648 114.06C7.28701 114.037 7.32329 114.023 7.36132 114.019C7.39935 114.016 7.43764 114.023 7.47197 114.04C7.5063 114.056 7.53533 114.082 7.55585 114.114C8.08365 114.979 9.38557 117.696 9.27219 123.533Z" fill="#339999"/>
<path id="Vector_180" d="M7.57062 116.146C7.70213 116.493 7.79776 116.852 7.85602 117.218C8.02023 117.972 8.2118 118.856 8.42684 119.833C8.64187 120.811 8.8178 121.69 9.00156 122.441C9.10614 122.797 9.17812 123.163 9.21659 123.532C9.04298 123.2 8.91163 122.848 8.82562 122.484C8.63014 121.823 8.39947 120.92 8.18053 119.88C7.96159 118.84 7.78956 117.925 7.68009 117.253C7.60325 116.889 7.56654 116.518 7.57062 116.146Z" fill="#263238"/>
<path id="Vector_181" d="M13.1658 140.398C13.1658 140.398 7.4851 137.747 7.1645 132.899C7.16204 132.862 7.16992 132.824 7.18728 132.791C7.20465 132.757 7.23085 132.729 7.26305 132.709C7.29524 132.69 7.33222 132.679 7.36997 132.679C7.40773 132.678 7.44483 132.689 7.47728 132.708C8.32958 133.244 10.7027 135.108 13.1658 140.398Z" fill="#339999"/>
<path id="Vector_182" d="M8.38281 134.515C8.65426 134.768 8.89923 135.048 9.11392 135.351C9.5909 135.957 10.1539 136.665 10.7755 137.447L12.441 139.539C12.6915 139.812 12.9165 140.108 13.1135 140.422C12.8226 140.194 12.5601 139.931 12.3316 139.64C11.8702 139.136 11.2564 138.413 10.6113 137.592C9.96623 136.771 9.37978 136.012 8.98881 135.453C8.7538 135.163 8.55064 134.848 8.38281 134.515Z" fill="#263238"/>
<path id="Vector_183" d="M24.4704 115.747C24.4759 115.793 24.4759 115.841 24.4704 115.887C24.4704 115.997 24.4704 116.126 24.4704 116.278C24.4704 116.669 24.4313 117.166 24.4039 117.799C24.3297 119.136 24.228 120.997 24.1068 123.23C23.7158 125.497 22.5429 128.011 20.9791 130.451C19.8414 132.249 18.6333 133.888 17.6207 135.408C16.6845 136.736 15.8419 138.128 15.0989 139.572C14.6132 140.552 14.2205 141.576 13.926 142.63C13.8244 143.001 13.7501 143.294 13.7071 143.494C13.6898 143.597 13.6623 143.697 13.625 143.795C13.6263 143.691 13.638 143.587 13.6602 143.486C13.6876 143.283 13.7501 142.985 13.8361 142.606C14.1014 141.528 14.4761 140.48 14.9543 139.478C15.6809 138.016 16.5133 136.609 17.4447 135.268C18.4652 133.735 19.6537 132.097 20.7875 130.31C22.3514 127.878 23.4774 125.404 23.9152 123.171C24.0716 120.946 24.2006 119.085 24.3062 117.748C24.357 117.115 24.4 116.607 24.4274 116.231C24.4274 116.075 24.4587 115.942 24.4704 115.84C24.467 115.809 24.467 115.778 24.4704 115.747Z" fill="#263238"/>
<path id="Vector_184" d="M21.1098 130.006C21.1098 130.006 23.5142 124.215 20.4881 120.423C20.4647 120.393 20.4332 120.369 20.3973 120.356C20.3614 120.342 20.3223 120.339 20.2846 120.346C20.2469 120.353 20.212 120.371 20.1837 120.397C20.1554 120.423 20.1349 120.456 20.1245 120.493C19.8391 121.463 19.3426 124.454 21.1098 130.006Z" fill="#339999"/>
<path id="Vector_185" d="M20.656 122.445C20.7597 122.802 20.8239 123.169 20.8476 123.54C20.9336 124.22 21.0274 125.162 21.1017 126.206C21.176 127.25 21.2112 128.196 21.2112 128.88C21.2353 129.252 21.213 129.625 21.1447 129.991C21.0768 129.627 21.0441 129.258 21.047 128.888C20.9962 128.106 20.9336 127.219 20.8671 126.222C20.8007 125.225 20.7342 124.321 20.6834 123.555C20.6378 123.187 20.6286 122.815 20.656 122.445Z" fill="#263238"/>
<g id="Group_5" opacity="0.3">
<path id="Vector_186" d="M21.1098 130.005C21.1098 130.005 23.5142 124.215 20.4881 120.423C20.4647 120.392 20.4332 120.369 20.3973 120.355C20.3614 120.342 20.3223 120.338 20.2846 120.346C20.2469 120.353 20.212 120.371 20.1837 120.397C20.1554 120.423 20.1349 120.456 20.1245 120.493C19.8391 121.463 19.3426 124.453 21.1098 130.005Z" fill="black"/>
</g>
<path id="Vector_187" d="M13.6457 143.956C13.6457 143.956 15.5731 137.993 12.2499 134.459C12.2242 134.431 12.1911 134.41 12.1545 134.4C12.1178 134.389 12.0789 134.389 12.0421 134.399C12.0053 134.409 11.972 134.429 11.9459 134.457C11.9198 134.485 11.9019 134.519 11.8941 134.557C11.7026 135.542 11.4523 138.548 13.6457 143.956Z" fill="#339999"/>
<path id="Vector_188" d="M12.5938 136.454C12.7266 136.802 12.8197 137.164 12.8713 137.533C13.0121 138.201 13.1841 139.132 13.3444 140.168C13.5047 141.204 13.6142 142.142 13.6689 142.826C13.722 143.195 13.7299 143.57 13.6924 143.941C13.5971 143.582 13.5343 143.216 13.5047 142.846C13.3913 142.064 13.2584 141.192 13.1137 140.203C12.9691 139.214 12.8283 138.322 12.7228 137.56C12.6435 137.196 12.6003 136.826 12.5938 136.454Z" fill="#263238"/>
<g id="Group_6" opacity="0.3">
<path id="Vector_189" d="M13.6457 143.956C13.6457 143.956 15.5731 137.993 12.2499 134.459C12.2242 134.431 12.1911 134.41 12.1545 134.4C12.1178 134.389 12.0789 134.389 12.0421 134.399C12.0053 134.409 11.972 134.429 11.9459 134.457C11.9198 134.485 11.9019 134.519 11.8941 134.557C11.7026 135.542 11.4523 138.548 13.6457 143.956Z" fill="black"/>
</g>
<path id="Vector_190" d="M24.1484 122.934C24.1484 122.934 29.2857 119.337 28.7657 114.513C28.7624 114.475 28.7485 114.438 28.7256 114.407C28.7026 114.376 28.6716 114.353 28.6359 114.338C28.6002 114.324 28.5613 114.32 28.5235 114.327C28.4856 114.334 28.4504 114.351 28.4217 114.376C27.6789 115.072 25.6615 117.297 24.1484 122.934Z" fill="#339999"/>
<g id="Group_7" opacity="0.3">
<path id="Vector_191" d="M24.1484 122.934C24.1484 122.934 29.2857 119.337 28.7657 114.512C28.7624 114.474 28.7485 114.438 28.7256 114.407C28.7026 114.376 28.6716 114.352 28.6359 114.338C28.6002 114.324 28.5613 114.32 28.5235 114.326C28.4856 114.333 28.4504 114.35 28.4217 114.376C27.6789 115.071 25.6615 117.296 24.1484 122.934Z" fill="black"/>
</g>
<path id="Vector_192" d="M27.843 116.317C27.7393 116.673 27.5963 117.017 27.4169 117.341C27.1236 117.963 26.6975 118.807 26.201 119.73C25.7044 120.653 25.2275 121.47 24.856 122.049C24.6785 122.375 24.459 122.678 24.2031 122.948C24.3442 122.605 24.5156 122.275 24.7153 121.962L25.9937 119.617L27.2683 117.271C27.4265 116.934 27.6191 116.614 27.843 116.317Z" fill="#263238"/>
<path id="Vector_193" d="M15.7109 138.045C15.7109 138.045 21.8921 137.08 23.5654 132.521C23.5793 132.485 23.5828 132.446 23.5757 132.408C23.5685 132.37 23.551 132.335 23.525 132.307C23.499 132.278 23.4656 132.258 23.4286 132.247C23.3915 132.237 23.3523 132.237 23.3152 132.247C22.3495 132.521 19.5463 133.651 15.7109 138.045Z" fill="#339999"/>
<g id="Group_8" opacity="0.3">
<path id="Vector_194" d="M15.7109 138.045C15.7109 138.045 21.8921 137.08 23.5654 132.521C23.5793 132.485 23.5828 132.446 23.5757 132.408C23.5685 132.37 23.551 132.335 23.525 132.307C23.499 132.278 23.4656 132.258 23.4286 132.247C23.3915 132.237 23.3523 132.237 23.3152 132.247C22.3495 132.521 19.5463 133.651 15.7109 138.045Z" fill="black"/>
</g>
<path id="Vector_195" d="M21.939 133.729C21.6893 134.001 21.4114 134.246 21.1101 134.46C20.5745 134.89 19.82 135.461 18.9676 136.067C18.1153 136.673 17.3256 137.201 16.743 137.561C16.4368 137.773 16.106 137.947 15.7578 138.08C16.0343 137.834 16.3327 137.613 16.6492 137.42L18.8347 135.879L21.0124 134.315C21.3001 134.088 21.6106 133.892 21.939 133.729Z" fill="#263238"/>
<path id="Vector_196" d="M9.79845 149.445L7.99219 161.604H19.252L17.7898 149.445H9.79845Z" fill="#455A64"/>
<path id="Vector_197" d="M18.2462 153.212C18.2462 153.278 16.2132 153.329 13.7032 153.329C11.1932 153.329 9.16406 153.278 9.16406 153.212C10.6741 153.096 12.1891 153.057 13.7032 153.094C15.2185 153.057 16.7348 153.096 18.2462 153.212Z" fill="#263238"/>
<path id="Vector_198" d="M18.4691 154.168C18.4691 154.23 16.3696 154.285 13.7775 154.285C11.1854 154.285 9.08594 154.23 9.08594 154.168C9.08594 154.105 11.1854 154.05 13.7775 154.05C16.3696 154.05 18.4691 154.113 18.4691 154.168Z" fill="#263238"/>
</g>
</g>
</svg>
