<svg width="139" height="100" viewBox="0 0 139 100" fill="none" xmlns="http://www.w3.org/2000/svg">
<g id="currentIllo" clip-path="url(#clip0_1836_11458)">
<path id="Vector" d="M116.986 45.2044L103.469 43.5379L104.209 31.6875H116.986V45.2044Z" fill="#FFB6B6"/>
<g id="Group 234">
<path id="Vector_2" d="M124.679 59.684C124.467 59.6835 124.259 59.621 124.082 59.5041C123.905 59.3872 123.766 59.221 123.682 59.0259L121.805 54.647L127.368 54.6663L131.19 50.624L133.023 54.9043C133.135 55.1665 133.139 55.4618 133.035 55.7269C132.931 55.9921 132.727 56.2059 132.467 56.3227L125.119 59.5898C124.981 59.6517 124.831 59.6838 124.679 59.684Z" fill="#E6E6E6"/>
<path id="Vector_3" d="M126.519 55.218C126.473 55.218 126.427 55.2167 126.38 55.214L121.91 54.9611L121.789 54.6896L121.874 54.6518L131.171 50.5117L131.292 50.7833L128.448 54.2981C128.215 54.5852 127.921 54.8166 127.587 54.9758C127.254 55.1349 126.889 55.2176 126.519 55.218Z" fill="#CCCCCC"/>
</g>
<g id="Group 231">
<path id="Path 3126" d="M118.647 14.6777L105.45 14.8427C105.202 14.8424 104.965 14.7439 104.79 14.5687C104.614 14.3936 104.516 14.1561 104.516 13.9084V9.5478C104.516 7.70295 105.248 5.93367 106.553 4.62916C107.857 3.32466 109.627 2.5918 111.472 2.5918C113.316 2.5918 115.086 3.32466 116.39 4.62916C117.695 5.93367 118.428 7.70295 118.428 9.5478L119.582 13.7434C119.582 13.9911 119.483 14.2286 119.308 14.4037C119.133 14.5789 118.895 14.6774 118.647 14.6777Z" fill="#2F2E41"/>
<path id="Path 3127" d="M125.106 53.4485C124.886 53.2497 124.713 53.0052 124.598 52.7322C124.483 52.4592 124.43 52.1643 124.441 51.8683C124.453 51.5723 124.529 51.2824 124.664 51.019C124.8 50.7556 124.991 50.5252 125.226 50.3439L122.93 43.5195L126.547 44.4755L128.173 50.8094C128.454 51.2231 128.572 51.7253 128.506 52.2205C128.44 52.7157 128.194 53.1693 127.815 53.4951C127.437 53.8209 126.951 53.9962 126.452 53.9876C125.952 53.979 125.473 53.7872 125.106 53.4485Z" fill="#FFB6B6"/>
<path id="Path 3128" d="M109.459 97.346L106.75 96.9066L107.156 86.249L111.154 86.8971L109.459 97.346Z" fill="#FFB6B6"/>
<path id="Path 3130" d="M122.963 91.6961L120.513 92.9322L114.023 83.5148L117.639 81.6904L122.963 91.6961Z" fill="#FFB6B6"/>
<path id="Ellipse 597" d="M111.411 14.7975C114.071 14.7975 116.228 12.6407 116.228 9.98028C116.228 7.31982 114.071 5.16309 111.411 5.16309C108.75 5.16309 106.594 7.31982 106.594 9.98028C106.594 12.6407 108.75 14.7975 111.411 14.7975Z" fill="#FFB8B8"/>
<path id="Path 3132" d="M115.225 88.2712L103.943 59.5036C99.9051 48.4744 103.513 40.8729 103.55 40.7976L103.568 40.7605L103.607 40.7465C104.07 42.5496 114.574 42.4269 116.981 39.6494C118.386 40.8296 120.256 43.6085 120.657 46.9292C121.076 50.4917 120.758 54.1022 119.724 57.537L115.28 72.6018L120.778 84.9875L115.225 88.2712Z" fill="#2F2E41"/>
<path id="Path 3133" d="M109.785 70.4277L105.711 91.0837L111.136 92.1068L114.55 74.2271L109.785 70.4277Z" fill="#2F2E41"/>
<path id="Vector_4" d="M103.841 35.2062C104.708 35.438 113.287 38.9731 117.357 35.3914L120.551 19.6222L116.725 18.4153L115.39 16.7915C115.245 16.6154 115.063 16.4741 114.856 16.3782C114.649 16.2823 114.424 16.2342 114.196 16.2375L109.449 16.3009C109.239 16.304 109.032 16.3504 108.841 16.4373C108.649 16.5242 108.478 16.6497 108.338 16.8059L106.817 18.5015L103.383 19.3009L103.841 35.2062Z" fill="#339999"/>
<path id="Path 3135" d="M119.09 20.8516L120.13 19.4668C120.13 19.4668 122.036 19.9674 123.004 22.6977C123.972 25.4279 127.938 47.2413 127.938 47.2413L123.667 49.2244L117.883 29.946L119.09 20.8516Z" fill="#339999"/>
<path id="Path 3136" d="M84.8653 46.8288C84.9056 46.5353 85.0098 46.2543 85.1705 46.0054C85.3313 45.7566 85.5446 45.5461 85.7955 45.3886C86.0463 45.2311 86.3287 45.1306 86.6226 45.094C86.9166 45.0575 87.215 45.0859 87.4968 45.1771L91.8379 39.4326L93.0881 42.9592L88.7739 47.8736C88.5898 48.3377 88.2417 48.718 87.7957 48.9423C87.3497 49.1667 86.8368 49.2194 86.3545 49.0904C85.8722 48.9615 85.4541 48.6599 85.1795 48.243C84.9049 47.826 84.7932 47.3228 84.8653 46.8288Z" fill="#FFB6B6"/>
<path id="Path 3137" d="M104.901 20.5465L103.463 19.2822C103.463 19.2822 101.956 19.6624 100.988 22.3926C100.02 25.1228 87.6641 43.427 87.6641 43.427L91.9352 45.4101L106.109 29.6402L104.901 20.5465Z" fill="#339999"/>
<path id="Path 3159" d="M116.435 9.66287H109.702C109.576 9.66274 109.453 9.61648 109.359 9.53276C109.264 9.44905 109.203 9.33362 109.187 9.20812L109.1 8.51079C109.091 8.4438 109.061 8.38138 109.014 8.33293C108.967 8.28448 108.906 8.25263 108.839 8.24218C108.772 8.23174 108.704 8.24326 108.644 8.27501C108.585 8.30676 108.537 8.35702 108.508 8.41821L108.067 9.36328C108.025 9.45261 107.958 9.52818 107.875 9.58118C107.792 9.63419 107.695 9.66246 107.597 9.66269H106.574C106.436 9.66289 106.304 9.60847 106.207 9.51138C106.11 9.4143 106.055 9.28251 106.055 9.145C106.055 9.12799 106.055 9.111 106.057 9.09405L106.46 4.88179C106.469 4.79172 106.501 4.70543 106.553 4.63134C106.605 4.55724 106.675 4.49789 106.757 4.45906C109.84 3.01961 112.967 3.02146 116.051 4.46462C116.129 4.5014 116.197 4.55709 116.248 4.62667C116.299 4.69624 116.332 4.7775 116.344 4.86309L116.949 9.0698C116.959 9.14343 116.954 9.2185 116.933 9.28989C116.912 9.36128 116.876 9.42732 116.827 9.48353C116.778 9.53974 116.718 9.5848 116.65 9.61565C116.583 9.6465 116.509 9.66241 116.435 9.66232L116.435 9.66287Z" fill="#2F2E41"/>
</g>
<path id="Path 3114" d="M7.82158 3.33203C7.58743 3.33179 7.36273 3.42442 7.19677 3.58961C7.03082 3.7548 6.93715 3.97907 6.93632 4.21322L6.71875 98.7274C6.7185 98.9616 6.81114 99.1863 6.97633 99.3522C7.14152 99.5182 7.36578 99.6118 7.59994 99.6127L83.7412 99.7878C83.9754 99.7881 84.2001 99.6954 84.3661 99.5302C84.532 99.365 84.6257 99.1406 84.6265 98.9065L84.844 4.39227C84.8443 4.15808 84.7516 3.93336 84.5864 3.7674C84.4212 3.60144 84.1968 3.5078 83.9627 3.50701L7.82158 3.33203Z" fill="#E6E6E6"/>
<path id="Path 3115" d="M10.6436 6.16504C10.4095 6.16479 10.1848 6.25742 10.0188 6.42261C9.85287 6.5878 9.7592 6.81207 9.75837 7.04623L9.55469 95.9072C9.55444 96.1414 9.64707 96.3661 9.81226 96.532C9.97746 96.698 10.2017 96.7916 10.4359 96.7925L80.9239 96.9547C81.1581 96.9549 81.3828 96.8623 81.5487 96.6971C81.7147 96.5319 81.8084 96.3076 81.8092 96.0735L82.0129 7.2125C82.0131 6.97832 81.9205 6.75359 81.7552 6.58763C81.59 6.42167 81.3657 6.32802 81.1315 6.32724L10.6436 6.16504Z" fill="white"/>
<path id="Path 3116" d="M71.7681 44.7527L19.83 44.6333C19.4813 44.6284 19.1486 44.4863 18.904 44.2377C18.6594 43.9891 18.5226 43.6541 18.5234 43.3053C18.5242 42.9566 18.6625 42.6222 18.9083 42.3747C19.154 42.1272 19.4874 41.9866 19.8362 41.9834L71.7743 42.103C72.123 42.1079 72.4557 42.25 72.7003 42.4986C72.9449 42.7472 73.0817 43.0822 73.0809 43.431C73.08 43.7797 72.9418 44.1141 72.696 44.3616C72.4503 44.609 72.1169 44.7496 71.7681 44.7529V44.7527Z" fill="#E6E6E6"/>
<path id="Path 3117" d="M72.2711 20.0652L37.8135 19.986C37.328 19.9849 36.9358 19.3907 36.9375 18.6589C36.9392 17.9272 37.3341 17.3348 37.8196 17.3359L72.2773 17.4152C72.7628 17.4163 73.1549 18.0105 73.1533 18.7422C73.1516 19.474 72.7566 20.0671 72.2711 20.0652Z" fill="#E6E6E6"/>
<path id="Path 3118" d="M72.2555 27.6609L37.7979 27.5817C37.3124 27.5806 36.9202 26.9864 36.9219 26.2546C36.9235 25.5229 37.3185 24.9305 37.804 24.9316L72.2616 25.0109C72.7471 25.012 73.1393 25.6062 73.1376 26.338C73.136 27.0697 72.741 27.662 72.2555 27.6609Z" fill="#E6E6E6"/>
<path id="Path 3119" d="M71.7525 53.3201L19.8144 53.2006C19.4657 53.1958 19.1329 53.0537 18.8883 52.8051C18.6437 52.5565 18.507 52.2214 18.5078 51.8727C18.5086 51.5239 18.6469 51.1896 18.8926 50.9421C19.1384 50.6946 19.4718 50.554 19.8205 50.5508L71.7586 50.6702C72.11 50.667 72.4483 50.8034 72.6991 51.0496C72.9499 51.2958 73.0926 51.6315 73.0959 51.9829C73.0991 52.3343 72.9626 52.6726 72.7165 52.9234C72.4703 53.1742 72.1346 53.3169 71.7832 53.3201C71.7729 53.3202 71.7627 53.3202 71.7525 53.3201Z" fill="#E6E6E6"/>
<path id="Path 3120" d="M71.7291 61.8876L19.791 61.768C19.4423 61.7632 19.1095 61.621 18.8649 61.3724C18.6203 61.1238 18.4836 60.7888 18.4844 60.4401C18.4852 60.0913 18.6235 59.7569 18.8692 59.5095C19.1149 59.262 19.4483 59.1214 19.7971 59.1182L71.7352 59.2378C71.9094 59.2358 72.0822 59.2683 72.2439 59.3332C72.4055 59.3981 72.5528 59.4943 72.6772 59.6162C72.8016 59.7381 72.9008 59.8833 72.9691 60.0436C73.0373 60.2039 73.0733 60.376 73.0749 60.5502C73.0766 60.7244 73.0439 60.8972 72.9787 61.0587C72.9135 61.2203 72.817 61.3673 72.6949 61.4916C72.5728 61.6158 72.4274 61.7147 72.267 61.7827C72.1066 61.8507 71.9344 61.8864 71.7602 61.8877C71.7498 61.8878 71.7395 61.8878 71.7291 61.8876Z" fill="#E6E6E6"/>
<path id="Path 3121" d="M71.7135 70.456L19.7754 70.3364C19.4266 70.3315 19.0939 70.1894 18.8493 69.9408C18.6047 69.6922 18.4679 69.3572 18.4688 69.0084C18.4696 68.6597 18.6078 68.3253 18.8536 68.0778C19.0993 67.8304 19.4327 67.6898 19.7815 67.6865L71.7196 67.8061C72.0707 67.8033 72.4086 67.9398 72.6591 68.1859C72.9096 68.432 73.0521 68.7675 73.0555 69.1186C73.0588 69.4697 72.9226 69.8078 72.6768 70.0586C72.431 70.3094 72.0957 70.4523 71.7446 70.4561C71.7342 70.4562 71.7238 70.4562 71.7135 70.456Z" fill="#E6E6E6"/>
<path id="Path 3122" d="M46.1376 78.6542L19.7519 78.5346C19.4032 78.5298 19.0704 78.3876 18.8258 78.139C18.5812 77.8905 18.4445 77.5554 18.4453 77.2067C18.4461 76.8579 18.5844 76.5235 18.8301 76.2761C19.0759 76.0286 19.4093 75.888 19.758 75.8848L46.1437 76.0044C46.4947 76.0017 46.8325 76.1383 47.0828 76.3844C47.3332 76.6305 47.4756 76.9658 47.479 77.3168C47.4823 77.6679 47.3462 78.0058 47.1005 78.2566C46.8549 78.5074 46.5198 78.6504 46.1687 78.6543C46.1584 78.6544 46.148 78.6544 46.1376 78.6542Z" fill="#E6E6E6"/>
<path id="Path 3123" d="M46.122 87.2226L19.7363 87.103C19.3876 87.0981 19.0548 86.956 18.8102 86.7074C18.5656 86.4588 18.4289 86.1238 18.4297 85.775C18.4305 85.4263 18.5688 85.0919 18.8145 84.8444C19.0603 84.597 19.3937 84.4564 19.7424 84.4531L46.1281 84.5728C46.4791 84.57 46.8168 84.7067 47.0671 84.9528C47.3175 85.1989 47.4599 85.5342 47.4633 85.8852C47.4666 86.2362 47.3305 86.5742 47.0848 86.825C46.8392 87.0757 46.5041 87.2188 46.1531 87.2227C46.1427 87.2228 46.1323 87.2228 46.122 87.2226Z" fill="#E6E6E6"/>
<path id="Path 3125" d="M60.8819 9.94965V3.64526C60.8922 3.17697 60.8102 2.71124 60.6405 2.27466C60.4708 1.83808 60.2168 1.43919 59.8929 1.10078C59.5691 0.762363 59.1818 0.491049 58.7531 0.302325C58.3244 0.113602 57.8627 0.0111645 57.3944 0.000862786C56.9261 -0.00943889 56.4604 0.0725982 56.0238 0.242287C55.5872 0.411975 55.1883 0.665991 54.8499 0.989836C54.5115 1.31368 54.2402 1.70101 54.0515 2.12971C53.8627 2.55841 53.7603 3.02008 53.75 3.48837H54.5348C54.5629 2.76962 54.8678 2.08957 55.3859 1.59057C55.904 1.09158 56.595 0.812315 57.3143 0.811237H57.3551C58.0936 0.823072 58.7973 1.12758 59.3114 1.65787C59.8256 2.18816 60.1082 2.90085 60.0972 3.63939V9.99999C60.0907 10.4907 59.8914 10.9592 59.5422 11.3042C59.1931 11.6491 58.7223 11.8429 58.2315 11.8435H58.2085C57.7131 11.8366 57.2406 11.6333 56.895 11.2782C56.5494 10.9232 56.3589 10.4454 56.3654 9.94993L56.3697 3.68797C56.3689 3.43867 56.4672 3.19926 56.6429 3.0224C56.8186 2.84554 57.0573 2.74573 57.3066 2.74491C57.5559 2.7441 57.7953 2.84235 57.9722 3.01805C58.149 3.19375 58.2489 3.43252 58.2497 3.68181V5.50113C58.2497 5.6052 58.291 5.70501 58.3646 5.7786C58.4382 5.85219 58.538 5.89354 58.6421 5.89354C58.7462 5.89354 58.846 5.85219 58.9196 5.7786C58.9931 5.70501 59.0345 5.6052 59.0345 5.50113V3.67559C59.0341 3.44912 58.9891 3.22494 58.9021 3.01585C58.8151 2.80677 58.6877 2.61687 58.5273 2.457C58.3669 2.29714 58.1765 2.17044 57.9671 2.08413C57.7578 1.99782 57.5334 1.9536 57.3069 1.95399C57.0805 1.95438 56.8563 1.99937 56.6472 2.0864C56.4381 2.17343 56.2482 2.30079 56.0884 2.46121C55.9285 2.62162 55.8018 2.81196 55.7155 3.02134C55.6292 3.23073 55.585 3.45506 55.5853 3.68153L55.5812 9.94491C55.5735 10.6477 55.8448 11.3248 56.3357 11.8277C56.8266 12.3307 57.4969 12.6184 58.1997 12.6277H58.2323C58.9297 12.6266 59.5986 12.3512 60.0945 11.8609C60.5905 11.3706 60.8735 10.7049 60.8825 10.0076C60.882 9.98733 60.8821 9.96683 60.8819 9.94965Z" fill="#339999"/>
<path id="Vector_5" d="M71.6192 81.6335C71.6205 82.6775 71.4343 83.7132 71.0695 84.6913C70.9039 85.1394 70.7007 85.5726 70.4621 85.9864C69.6951 87.3248 68.5883 88.4369 67.2536 89.2104C65.9189 89.9838 64.4037 90.3911 62.8611 90.3911C61.3185 90.3911 59.8032 89.9838 58.4686 89.2104C57.1339 88.4369 56.0271 87.3248 55.2601 85.9864C55.1824 85.8518 55.1088 85.7152 55.0392 85.5766C54.4438 84.3956 54.1237 83.0952 54.1027 81.7728C54.0817 80.4505 54.3604 79.1405 54.918 77.9413C55.4755 76.742 56.2974 75.6846 57.322 74.8483C58.3465 74.012 59.5472 73.4187 60.8338 73.1127C62.1205 72.8067 63.4597 72.796 64.7511 73.0815C66.0424 73.367 67.2523 73.9412 68.2901 74.7611C69.3278 75.5809 70.1664 76.6251 70.743 77.8154C71.3196 79.0056 71.6191 80.311 71.6192 81.6335Z" fill="#E4E4E4"/>
<path id="Vector_6" d="M63.3228 83.1114C64.2475 83.1114 64.9972 82.3618 64.9972 81.4371C64.9972 80.5123 64.2475 79.7627 63.3228 79.7627C62.3981 79.7627 61.6484 80.5123 61.6484 81.4371C61.6484 82.3618 62.3981 83.1114 63.3228 83.1114Z" fill="#339999"/>
<path id="Vector_7" d="M55.0391 85.5766C55.7768 84.7794 56.763 83.5136 57.6879 84.4282C58.1521 84.8596 58.8786 85.9286 59.5741 85.2298L65.0046 79.7992C65.1069 79.6983 65.2283 79.6188 65.3616 79.5654C65.495 79.512 65.6377 79.4859 65.7814 79.4885C65.925 79.491 66.0667 79.5223 66.1981 79.5804C66.3295 79.6385 66.4479 79.7223 66.5465 79.8268L71.0694 84.6914C70.9038 85.1394 70.7006 85.5727 70.462 85.9865H55.2599L55.0391 85.5766Z" fill="#3F3D56"/>
<path id="Vector_8" d="M32.3692 22.196C32.3705 23.24 32.1843 24.2757 31.8195 25.2538C31.6539 25.7019 31.4507 26.1351 31.2121 26.5489C30.4451 27.8873 29.3383 28.9994 28.0036 29.7729C26.6689 30.5463 25.1537 30.9536 23.6111 30.9536C22.0685 30.9536 20.5532 30.5463 19.2186 29.7729C17.8839 28.9994 16.7771 27.8873 16.0101 26.5489C15.9324 26.4143 15.8588 26.2777 15.7892 26.1391C15.1938 24.9581 14.8737 23.6577 14.8527 22.3353C14.8317 21.013 15.1104 19.703 15.668 18.5038C16.2255 17.3045 17.0474 16.2471 18.072 15.4108C19.0965 14.5745 20.2972 13.9812 21.5838 13.6752C22.8705 13.3692 24.2097 13.3585 25.5011 13.644C26.7924 13.9295 28.0023 14.5037 29.0401 15.3236C30.0778 16.1434 30.9164 17.1876 31.493 18.3779C32.0696 19.5681 32.3691 20.8735 32.3692 22.196Z" fill="#E4E4E4"/>
<path id="Vector_9" d="M24.065 23.6749C24.9897 23.6749 25.7394 22.9253 25.7394 22.0005C25.7394 21.0758 24.9897 20.3262 24.065 20.3262C23.1403 20.3262 22.3906 21.0758 22.3906 22.0005C22.3906 22.9253 23.1403 23.6749 24.065 23.6749Z" fill="#339999"/>
<path id="Vector_10" d="M15.7891 26.1391C16.5268 25.3419 17.513 24.0761 18.4379 24.9907C18.9021 25.4221 19.6286 26.4912 20.324 25.7923L25.7546 20.3617C25.8569 20.2607 25.9782 20.1813 26.1116 20.1279C26.245 20.0745 26.3877 20.0484 26.5314 20.051C26.675 20.0535 26.8167 20.0848 26.9481 20.1429C27.0795 20.201 27.1979 20.2848 27.2965 20.3893L31.8194 25.2539C31.6537 25.7019 31.4506 26.1352 31.212 26.549H16.0099L15.7891 26.1391Z" fill="#3F3D56"/>
<path id="Vector_11" d="M57.918 11.1348C58.4293 11.1348 58.8438 10.7203 58.8438 10.209C58.8438 9.6977 58.4293 9.2832 57.918 9.2832C57.4067 9.2832 56.9922 9.6977 56.9922 10.209C56.9922 10.7203 57.4067 11.1348 57.918 11.1348Z" fill="#339999"/>
<path id="Vector_12" d="M110.856 99.8279H109.094L108.78 98.1643L107.974 99.8279H103.301C103.077 99.828 102.858 99.7564 102.678 99.6236C102.498 99.4908 102.364 99.3039 102.298 99.09C102.231 98.8761 102.234 98.6466 102.307 98.4348C102.38 98.223 102.519 98.0401 102.704 97.9128L106.436 95.3352V93.6533L110.362 93.8876L110.856 99.8279Z" fill="#2F2E41"/>
<path id="Vector_13" d="M126.468 95.7033L124.988 96.6592L123.821 95.4322L124.047 97.2668L120.121 99.802C119.932 99.9236 119.71 99.9818 119.487 99.9681C119.263 99.9545 119.05 99.8697 118.878 99.7262C118.706 99.5827 118.584 99.388 118.53 99.1704C118.477 98.9529 118.494 98.7239 118.58 98.517L120.317 94.327L119.405 92.9141L122.83 90.9814L126.468 95.7033Z" fill="#2F2E41"/>
<path id="Rectangle 462" d="M138.389 99.6299H0.609375V100H138.389V99.6299Z" fill="#CCCCCC"/>
</g>
<defs>
<clipPath id="clip0_1836_11458">
<rect width="137.78" height="100" fill="white" transform="translate(0.609375)"/>
</clipPath>
</defs>
</svg>
