<svg width="136" height="130" viewBox="0 0 136 130" fill="none" xmlns="http://www.w3.org/2000/svg">
<g id="work-time/pana">
<g id="background-complete">
<path id="Vector" d="M18.8828 114.309V116.661H36.4919V114.309H18.8828Z" fill="#E0E0E0"/>
<path id="Vector_2" d="M21.2845 114.403C21.3439 114.403 21.3939 114.898 21.3939 115.507C21.3939 116.117 21.3439 116.608 21.2845 116.608C21.225 116.608 21.1719 116.114 21.1719 115.507C21.1719 114.901 21.2219 114.403 21.2845 114.403Z" fill="#FAFAFA"/>
<path id="Vector_3" d="M20.8985 114.357C20.9611 114.357 21.008 114.852 21.008 115.458C21.008 116.065 20.9611 116.562 20.8985 116.562C20.836 116.562 20.7891 116.068 20.7891 115.458C20.7891 114.848 20.836 114.357 20.8985 114.357Z" fill="#FAFAFA"/>
<path id="Vector_4" d="M35.1329 114.403C35.1955 114.403 35.2455 114.898 35.2455 115.507C35.2455 116.117 35.1955 116.608 35.1329 116.608C35.0704 116.608 35.0234 116.114 35.0234 115.507C35.0234 114.901 35.0735 114.403 35.1329 114.403Z" fill="#FAFAFA"/>
<path id="Vector_5" d="M34.7532 114.357C34.8127 114.357 34.8627 114.852 34.8627 115.458C34.8627 116.065 34.8127 116.562 34.7532 116.562C34.6938 116.562 34.6406 116.068 34.6406 115.458C34.6406 114.848 34.6907 114.357 34.7532 114.357Z" fill="#FAFAFA"/>
<path id="Vector_6" d="M32.4454 115.554C32.4454 115.616 30.428 115.663 27.9414 115.663C25.4549 115.663 23.4375 115.616 23.4375 115.554C23.4375 115.491 25.4549 115.444 27.9414 115.444C30.428 115.444 32.4454 115.491 32.4454 115.554Z" fill="#FAFAFA"/>
<path id="Vector_7" d="M18.8125 124.901V129.605H36.4216V124.901H18.8125Z" fill="#E0E0E0"/>
<path id="Vector_8" d="M36.6452 128.28C36.6452 128.28 36.6171 128.302 36.5514 128.333C36.4857 128.365 36.3887 128.412 36.2574 128.468C35.8746 128.63 35.4733 128.745 35.0626 128.809C34.4044 128.928 33.7253 128.832 33.1265 128.533C32.7561 128.336 32.4402 128.05 32.207 127.702C31.9392 127.304 31.8278 126.822 31.8942 126.347C31.9327 126.09 32.0408 125.847 32.207 125.647C32.296 125.537 32.4092 125.449 32.5379 125.39C32.6665 125.332 32.807 125.304 32.9482 125.309C33.0936 125.321 33.235 125.362 33.3636 125.431C33.4922 125.5 33.6053 125.595 33.6958 125.709C33.8884 125.936 34.0073 126.217 34.0367 126.513C34.0607 126.818 34.0189 127.125 33.9143 127.412C33.8096 127.7 33.6444 127.962 33.4299 128.18C32.9843 128.651 32.3833 128.946 31.7378 129.009C31.0731 129.073 30.4025 128.989 29.7736 128.765C29.1015 128.555 28.5049 128.154 28.0565 127.611C27.8252 127.319 27.6858 126.965 27.6561 126.594C27.6374 126.401 27.6613 126.207 27.7262 126.024C27.791 125.841 27.8953 125.675 28.0315 125.537C28.1805 125.394 28.3756 125.309 28.5819 125.296C28.7858 125.291 28.9866 125.347 29.1574 125.459C29.4875 125.675 29.7199 126.012 29.8049 126.397C29.8785 126.773 29.8532 127.162 29.7315 127.526C29.6098 127.889 29.3958 128.215 29.1105 128.471C28.5515 128.943 27.8572 129.225 27.1275 129.278C26.4359 129.357 25.7353 129.288 25.0726 129.075C24.4222 128.87 23.8671 128.438 23.5088 127.858C23.3306 127.583 23.2201 127.269 23.1864 126.943C23.1527 126.617 23.1967 126.287 23.3148 125.981C23.3733 125.828 23.4697 125.692 23.5949 125.586C23.7202 125.48 23.8702 125.407 24.0311 125.374C24.1858 125.347 24.3446 125.351 24.4975 125.388C24.6504 125.424 24.794 125.492 24.9194 125.587C25.1389 125.78 25.296 126.034 25.3706 126.316C25.4453 126.599 25.4341 126.897 25.3385 127.173C25.1673 127.666 24.8591 128.1 24.4502 128.424C23.7728 128.998 22.9227 129.328 22.0356 129.362C21.4956 129.382 20.9577 129.287 20.4566 129.085C19.9555 128.883 19.5024 128.578 19.1268 128.189C19.0516 128.112 18.9806 128.031 18.9141 127.945C18.8906 127.917 18.8697 127.887 18.8516 127.855C19.2234 128.265 19.6676 128.603 20.1621 128.853C20.7447 129.139 21.3904 129.272 22.0387 129.24C22.8946 129.192 23.7104 128.862 24.3595 128.302C24.7405 127.993 25.0267 127.584 25.1852 127.12C25.2681 126.878 25.2775 126.617 25.2124 126.37C25.1473 126.123 25.0105 125.901 24.8193 125.731C24.7142 125.653 24.5942 125.597 24.4667 125.567C24.3393 125.537 24.207 125.533 24.078 125.556C23.9472 125.583 23.8256 125.643 23.7248 125.731C23.624 125.818 23.5475 125.931 23.5025 126.056C23.3997 126.333 23.3634 126.629 23.3965 126.922C23.4297 127.215 23.5313 127.496 23.6933 127.742C24.0291 128.278 24.5464 128.676 25.1508 128.862C25.7848 129.063 26.4544 129.127 27.115 129.05C27.7979 128.999 28.4476 128.735 28.9729 128.296C29.2305 128.064 29.4236 127.769 29.5332 127.44C29.6429 127.111 29.6653 126.759 29.5984 126.419C29.5279 126.088 29.3317 125.798 29.0511 125.609C28.9245 125.515 28.7691 125.469 28.612 125.478C28.4548 125.487 28.3058 125.551 28.191 125.659C28.0772 125.774 27.9903 125.913 27.9362 126.065C27.8821 126.218 27.8623 126.38 27.8782 126.541C27.9045 126.87 28.0275 127.183 28.2316 127.442C28.6532 127.951 29.2124 128.328 29.8424 128.527C30.4429 128.743 31.0834 128.826 31.719 128.768C32.314 128.711 32.8688 128.442 33.2829 128.011C33.4803 127.814 33.633 127.576 33.7307 127.314C33.8284 127.052 33.8687 126.773 33.849 126.494C33.8385 126.241 33.7424 125.999 33.5765 125.808C33.4106 125.616 33.1847 125.487 32.9357 125.44C32.8198 125.436 32.7046 125.459 32.5989 125.507C32.4931 125.555 32.3997 125.626 32.3258 125.715C32.1733 125.893 32.0726 126.11 32.0349 126.341C31.971 126.779 32.0724 127.225 32.3196 127.592C32.5365 127.926 32.8317 128.202 33.1797 128.396C33.7576 128.692 34.4151 128.797 35.0563 128.693C35.4621 128.637 35.8607 128.538 36.2449 128.396C36.5076 128.33 36.6421 128.271 36.6452 128.28Z" fill="#FAFAFA"/>
<path id="Vector_9" d="M20.3828 116.727V124.891H36.4187V116.727H20.3828Z" fill="#EBEBEB"/>
<path id="Vector_10" d="M23.0423 117.01C23.1017 117.01 23.1518 118.777 23.1518 120.96C23.1518 123.143 23.1017 124.91 23.0423 124.91C22.9829 124.91 22.9297 123.143 22.9297 120.96C22.9297 118.777 22.9797 117.01 23.0423 117.01Z" fill="#E0E0E0"/>
<path id="Vector_11" d="M24.2688 116.905C24.3283 116.905 24.3783 118.654 24.3783 120.806C24.3783 122.957 24.3283 124.706 24.2688 124.706C24.2094 124.706 24.1562 122.961 24.1562 120.806C24.1562 118.651 24.2063 116.905 24.2688 116.905Z" fill="#E0E0E0"/>
<path id="Vector_12" d="M34.6126 116.655C34.672 116.655 34.7221 118.494 34.7221 120.765C34.7221 123.036 34.672 124.872 34.6126 124.872C34.5532 124.872 34.5 123.033 34.5 120.765C34.5 118.498 34.55 116.655 34.6126 116.655Z" fill="#E0E0E0"/>
<path id="Vector_13" d="M33.1829 116.753C33.2423 116.753 33.2924 118.542 33.2924 120.754C33.2924 122.965 33.2423 124.754 33.1829 124.754C33.1235 124.754 33.0703 122.965 33.0703 120.754C33.0703 118.542 33.1204 116.753 33.1829 116.753Z" fill="#E0E0E0"/>
<path id="Vector_14" d="M119.498 98.909C121.162 98.0488 123.116 97.9393 124.965 98.2427C125.956 98.4085 126.989 98.7025 127.664 99.4501C128.34 100.198 128.465 101.505 127.692 102.143C127.229 102.525 126.588 102.584 125.988 102.575C124.543 102.559 122.941 102.306 121.787 103.175C121.127 103.669 120.689 104.495 119.911 104.739C119.132 104.983 118.272 104.523 117.865 103.829C117.489 103.105 117.406 102.264 117.634 101.48C117.726 100.937 117.942 100.422 118.265 99.9765C118.588 99.5306 119.01 99.1653 119.498 98.909Z" fill="#EBEBEB"/>
<path id="Vector_15" d="M115.695 91.5548C116.711 93.006 118.688 92.5244 119.604 91.6392C120.521 90.7541 120.909 89.4686 121.259 88.2425C122.066 85.4463 122.876 82.5093 122.278 79.6599C122.135 78.7956 121.755 77.9879 121.181 77.3266C120.89 77.0006 120.519 76.7563 120.105 76.618C119.691 76.4797 119.247 76.4523 118.819 76.5384C117.825 76.8043 117.205 77.7895 116.758 78.7059C115.44 81.4471 114.749 84.4472 114.734 87.4887C114.734 88.9024 114.897 90.385 115.695 91.5548Z" fill="#EBEBEB"/>
<path id="Vector_16" d="M112.911 93.6382C114.016 92.3277 114.225 90.4166 113.734 88.7777C113.243 87.1387 112.133 85.7375 110.853 84.599C109.348 83.259 107.596 82.2253 105.696 81.5557C104.96 81.2596 104.17 81.1252 103.378 81.1616C102.982 81.1845 102.598 81.3039 102.259 81.5095C101.92 81.715 101.636 82.0004 101.433 82.3408C100.888 83.376 101.411 84.6303 101.974 85.6562C102.966 87.4598 104.097 89.1832 105.358 90.8107C106.374 92.1212 107.547 93.413 109.083 94.0041C110.619 94.5953 112.239 94.5234 113.058 93.4505" fill="#EBEBEB"/>
<path id="Vector_17" d="M115.627 113.456C115.681 113.24 115.712 113.019 115.721 112.796C115.768 112.318 115.824 111.714 115.896 110.998C115.985 110.111 116.12 109.229 116.299 108.355C116.535 107.288 116.856 106.242 117.26 105.227C117.656 104.219 118.192 103.271 118.852 102.412C119.389 101.712 120.076 101.14 120.863 100.739C121.397 100.476 121.969 100.298 122.558 100.21C122.78 100.203 123 100.172 123.215 100.116C122.992 100.092 122.768 100.092 122.545 100.116C121.934 100.163 121.335 100.319 120.778 100.576C119.951 100.967 119.225 101.544 118.658 102.262C117.968 103.134 117.411 104.104 117.006 105.14C116.602 106.167 116.288 107.227 116.068 108.308C115.897 109.192 115.779 110.085 115.714 110.982C115.658 111.745 115.636 112.365 115.627 112.793C115.604 113.014 115.604 113.236 115.627 113.456Z" fill="#E0E0E0"/>
<path id="Vector_18" d="M115.75 112.07C115.769 111.967 115.775 111.862 115.768 111.757C115.768 111.529 115.768 111.238 115.768 110.881C115.768 110.124 115.768 109.023 115.806 107.666C115.875 104.951 116.119 102.036 116.56 97.9072C116.988 94.035 117.561 89.5248 118.167 86.5941C118.296 85.9279 118.427 85.3274 118.552 84.8019C118.677 84.2765 118.768 83.8229 118.865 83.457C118.962 83.091 119.015 82.8314 119.068 82.6062C119.096 82.5039 119.115 82.3992 119.125 82.2935C119.077 82.3844 119.041 82.4811 119.018 82.5812C118.949 82.8001 118.865 83.0785 118.762 83.4194C118.659 83.7604 118.533 84.2327 118.402 84.7581C118.271 85.2836 118.121 85.881 117.98 86.5472C117.228 90.0133 116.664 93.5173 116.288 97.0439C115.837 101.173 115.634 104.932 115.615 107.653C115.6 109.014 115.615 110.115 115.662 110.875C115.684 111.231 115.703 111.522 115.715 111.751C115.714 111.858 115.725 111.965 115.75 112.07Z" fill="#E0E0E0"/>
<path id="Vector_19" d="M115.764 104.819C115.788 104.515 115.788 104.21 115.764 103.906C115.73 103.318 115.649 102.467 115.483 101.429C115.283 100.211 115.015 99.0063 114.679 97.8193C114.285 96.3589 113.78 94.9306 113.168 93.5468C112.122 90.9961 110.62 88.657 108.736 86.6439C108.408 86.3 108.059 85.9762 107.692 85.6743C107.532 85.5398 107.379 85.4053 107.248 85.2989L106.844 85.0205C106.601 84.8348 106.342 84.6695 106.072 84.5264C106.028 84.5858 107.163 85.252 108.596 86.7784C110.418 88.8092 111.88 91.1363 112.918 93.6594C113.516 95.0336 114.02 96.4464 114.429 97.8881C114.826 99.2143 115.089 100.434 115.289 101.46C115.489 102.486 115.586 103.337 115.652 103.915C115.665 104.219 115.703 104.521 115.764 104.819Z" fill="#E0E0E0"/>
<path id="Vector_20" d="M108.273 116.508L109.002 126.461H121.785L122.514 116.508H108.273Z" fill="#EBEBEB"/>
<path id="Vector_21" d="M124.038 112.586H107.039V116.509H124.038V112.586Z" fill="#EBEBEB"/>
<path id="Vector_22" d="M107.039 126.08V127.168H107.84H123.76V126.08H107.039Z" fill="#E0E0E0"/>
<path id="Vector_23" d="M108.618 128.959L107.836 127.048H123.146L122.233 128.959H108.618Z" fill="#E0E0E0"/>
<path id="Vector_24" d="M122.278 119.763C122.262 119.795 122.242 119.826 122.218 119.853C122.165 119.922 122.102 120.003 122.027 120.107L121.28 121.061L121.249 121.104L121.217 121.058C120.748 120.41 120.123 119.547 119.388 118.527H119.481L117.68 121.079L117.624 121.158L117.561 121.083L115.434 118.533H115.556L115.44 118.68L113.539 121.083L113.473 121.164L113.417 121.079C112.766 120.163 112.166 119.303 111.612 118.53H111.718L109.498 121.061L109.46 121.104L109.429 121.054L108.735 119.888C108.66 119.76 108.603 119.656 108.556 119.575C108.533 119.541 108.514 119.504 108.5 119.466C108.529 119.495 108.554 119.527 108.575 119.562L108.772 119.875L109.501 121.023H109.432L111.621 118.461L111.675 118.399L111.725 118.468L113.545 121.007H113.42L115.328 118.608L115.444 118.458L115.506 118.383L115.569 118.458L117.699 121.004H117.58L119.4 118.465L119.453 118.39L119.503 118.465L121.296 121.023H121.23C121.558 120.629 121.815 120.319 122.006 120.085L122.212 119.844C122.25 119.785 122.275 119.76 122.278 119.763Z" fill="#F5F5F5"/>
<path id="Vector_25" d="M122.687 116.442C122.687 116.486 119.482 116.52 115.531 116.52C111.581 116.52 108.375 116.486 108.375 116.442C108.375 116.398 111.578 116.364 115.531 116.364C119.485 116.364 122.687 116.398 122.687 116.442Z" fill="#F5F5F5"/>
<path id="Vector_26" d="M49.7985 12.7634C49.7985 12.7634 49.7703 12.7634 49.7234 12.7415L49.517 12.6602L48.7288 12.3318L45.8356 11.0807L36.3274 6.93952L35.9958 6.79251H36.0646L26.7471 10.7929L23.9322 11.9752L23.1627 12.288C23.0751 12.3282 22.984 12.3607 22.8906 12.3849C22.9737 12.3354 23.0605 12.2926 23.1502 12.2567L23.9071 11.9127L26.7221 10.6772L36.0177 6.64551H36.0521H36.0865L36.4181 6.78939L45.9076 10.9806L48.7757 12.2661L49.5514 12.6258L49.7516 12.7227C49.7687 12.7344 49.7845 12.7481 49.7985 12.7634Z" fill="#E0E0E0"/>
<path id="Vector_27" d="M64.6283 11.3989H3.54688V57.1361H64.6283V11.3989Z" fill="#E0E0E0"/>
<path id="Vector_28" d="M62.7201 13.5269H5.67969V55.2574H62.7201V13.5269Z" fill="#FAFAFA"/>
<path id="Vector_29" d="M18.2812 31.7588C18.2812 31.7588 18.3407 38.7618 18.6972 40.9012L27.483 40.4852C27.483 40.4852 26.7136 33.6042 27.0107 31.7588H18.2812Z" fill="#E0E0E0"/>
<path id="Vector_30" d="M22.6086 32.7471H22.7369C22.8592 32.7426 22.9816 32.7488 23.1028 32.7659C23.2953 32.7944 23.4828 32.8502 23.6595 32.9316C23.8936 33.0475 24.1004 33.2117 24.2663 33.4133C24.4703 33.6585 24.6148 33.9475 24.6886 34.2578C24.7573 34.6211 24.7259 34.9963 24.5979 35.3431C24.5324 35.5317 24.4497 35.7139 24.3508 35.8874C24.2458 36.0639 24.1518 36.2467 24.0693 36.4347C23.8941 36.8336 23.7741 37.2545 23.7127 37.6858V37.714H23.6846H22.8182H21.908H21.8736V37.6827C21.8346 37.2535 21.6895 36.8408 21.4514 36.4816C21.345 36.3002 21.2293 36.1344 21.1386 35.9624C21.0251 35.8005 20.9206 35.6324 20.8258 35.4588C20.6654 35.1266 20.6171 34.7512 20.6882 34.3892C20.7393 34.0766 20.8554 33.7782 21.0291 33.5134C21.1775 33.3006 21.3721 33.1241 21.5984 32.9973C21.8777 32.8491 22.1841 32.7587 22.4992 32.7314H22.6243C22.6243 32.7314 22.6243 32.7314 22.593 32.7314H22.4992C22.3798 32.7455 22.2617 32.7685 22.1457 32.8003C21.9608 32.8485 21.783 32.9211 21.6171 33.0161C21.3958 33.1411 21.2064 33.3156 21.0635 33.5259C20.902 33.7884 20.7956 34.0811 20.7508 34.386C20.6825 34.7369 20.7308 35.1005 20.8884 35.4213C20.9841 35.5923 21.0885 35.7583 21.2012 35.9186C21.3106 36.0844 21.4263 36.2564 21.5327 36.4378C21.7796 36.8052 21.9292 37.2292 21.9674 37.6702L21.933 37.6358H22.8432H23.7127L23.6783 37.667C23.7408 37.2302 23.8629 36.804 24.0411 36.4003C24.127 36.2107 24.223 36.0259 24.3289 35.8467C24.426 35.6771 24.5077 35.4992 24.5728 35.315C24.6995 34.9788 24.733 34.6146 24.6698 34.2609C24.5985 33.9581 24.4607 33.675 24.2663 33.4321C24.105 33.2329 23.9036 33.0699 23.6752 32.9535C23.5021 32.8698 23.3177 32.8119 23.1278 32.7815C23.0087 32.7632 22.8886 32.7528 22.7681 32.7502H22.6712C22.6211 32.7502 22.6086 32.7502 22.6086 32.7471Z" fill="white"/>
<path id="Vector_31" d="M23.0592 37.6295C23.0586 37.6201 23.0586 37.6107 23.0592 37.6014V37.5201C23.0592 37.4481 23.0311 37.3418 23.0123 37.2073C22.9717 36.932 22.9122 36.5379 22.8747 36.0469C22.8747 35.9249 22.8559 35.7967 22.8528 35.6622C22.8449 35.5215 22.8449 35.3806 22.8528 35.2399C22.8562 35.089 22.8891 34.9402 22.9498 34.802C23.0174 34.6527 23.1376 34.5336 23.2876 34.4674C23.3674 34.4338 23.4554 34.4245 23.5405 34.4407C23.6256 34.4568 23.7041 34.4976 23.7661 34.5581C23.7991 34.5886 23.8252 34.626 23.8425 34.6676C23.8597 34.7091 23.8678 34.7539 23.8662 34.7989C23.8644 34.8895 23.8337 34.9772 23.7786 35.0491C23.7221 35.1222 23.6492 35.1811 23.5659 35.2211C23.4833 35.26 23.3961 35.2884 23.3063 35.3056C22.9399 35.3805 22.5635 35.3932 22.1929 35.3431C22.1012 35.3306 22.0117 35.3054 21.927 35.2681C21.8444 35.2309 21.77 35.1778 21.7081 35.1117C21.6446 35.0455 21.6003 34.9633 21.5798 34.874C21.5601 34.7864 21.5712 34.6947 21.6111 34.6144C21.6473 34.5334 21.7134 34.4695 21.7956 34.4361C21.8347 34.4193 21.8767 34.4106 21.9192 34.4106C21.9617 34.4106 22.0037 34.4193 22.0427 34.4361C22.1182 34.4703 22.1831 34.5244 22.2304 34.5925C22.2745 34.6593 22.3062 34.7334 22.3242 34.8114C22.3507 34.9601 22.3654 35.1108 22.368 35.2618L22.4118 36.0656C22.4337 36.5567 22.4556 36.9539 22.4681 37.2323C22.4681 37.3668 22.4681 37.4731 22.4681 37.5451V37.6545C22.4688 37.6452 22.4688 37.6358 22.4681 37.6264C22.4681 37.6076 22.4681 37.5795 22.4681 37.5451C22.4681 37.5107 22.4681 37.3637 22.4493 37.2323C22.4493 36.9539 22.4087 36.5567 22.3805 36.0656C22.3805 35.8217 22.3524 35.5527 22.3367 35.2618C22.3347 35.1126 22.319 34.964 22.2898 34.8177C22.2745 34.7428 22.2448 34.6716 22.2022 34.6081C22.1558 34.5444 22.0946 34.4929 22.024 34.458C21.9879 34.4426 21.949 34.4346 21.9098 34.4346C21.8706 34.4346 21.8317 34.4426 21.7956 34.458C21.7195 34.4897 21.6581 34.5489 21.6236 34.6237C21.5876 34.6997 21.5777 34.7855 21.5955 34.8677C21.6165 34.9509 21.6585 35.0274 21.7174 35.0898C21.8444 35.215 22.0095 35.2942 22.1866 35.315C22.3701 35.3391 22.5553 35.3474 22.7402 35.34C22.9252 35.3352 23.1094 35.3142 23.2907 35.2774C23.3785 35.2607 23.4637 35.2323 23.544 35.193C23.6233 35.1549 23.6928 35.0993 23.7473 35.0304C23.799 34.9627 23.8285 34.8808 23.8318 34.7958C23.8316 34.7544 23.8232 34.7135 23.8071 34.6753C23.791 34.6372 23.7675 34.6027 23.738 34.5737C23.6791 34.5176 23.6054 34.4795 23.5256 34.464C23.4458 34.4485 23.3632 34.4561 23.2876 34.4861C23.1487 34.5488 23.0375 34.66 22.9748 34.7989C22.9153 34.9353 22.8824 35.0818 22.8778 35.2305C22.8778 35.3744 22.8778 35.512 22.8778 35.6465C22.8778 35.781 22.8778 35.9093 22.8997 36.0344C22.9373 36.5254 22.9936 36.9195 23.028 37.1916C23.0467 37.3293 23.0624 37.4325 23.0718 37.5044V37.5857C23.0693 37.6008 23.0651 37.6155 23.0592 37.6295Z" fill="white"/>
<path id="Vector_32" d="M21.8906 37.6762C21.9049 37.7726 21.9132 37.8697 21.9156 37.9671C21.9156 38.1756 21.9282 38.429 21.9532 38.7272V38.7084L22.5474 39.3996H22.5162L23.2011 39.3621H23.173L23.5108 38.9492L23.6828 38.7397V38.7678C23.6828 38.3643 23.664 37.9859 23.6578 37.6418L23.6953 37.6762H22.4161H21.8906C21.9311 37.6705 21.9722 37.6705 22.0126 37.6762L22.3723 37.6575L23.6734 37.6074H23.711V37.645C23.711 37.9921 23.7329 38.3706 23.7454 38.7709V38.7741C23.6891 38.8429 23.6328 38.9148 23.5733 38.9836L23.2324 39.3996H23.2137L22.5287 39.434H22.5162L21.9344 38.7428C21.9344 38.43 21.9344 38.1798 21.9344 37.9609C21.9142 37.8669 21.8996 37.7719 21.8906 37.6762Z" fill="white"/>
<path id="Vector_33" d="M23.6671 38.6634C23.6671 38.6634 23.6421 38.6634 23.6015 38.6352C23.5433 38.6092 23.4838 38.5862 23.4232 38.5664C23.2224 38.4963 23.0102 38.4645 22.7976 38.4726C22.5828 38.4773 22.3707 38.5218 22.1721 38.604L22.0001 38.6853L21.9375 38.7166C21.9536 38.6997 21.9727 38.6859 21.9938 38.6759C22.0492 38.6422 22.1067 38.6119 22.1658 38.5852C22.3631 38.4976 22.5756 38.4498 22.7914 38.4444C23.0047 38.4366 23.2174 38.4717 23.4169 38.5477C23.4772 38.5692 23.5358 38.5953 23.5921 38.6259L23.6671 38.6634Z" fill="white"/>
<path id="Vector_34" d="M23.664 38.3924L23.6015 38.3643L23.4232 38.2923C23.2219 38.2241 23.0101 38.1923 22.7976 38.1985C22.5831 38.2062 22.3715 38.2506 22.1721 38.3299C22.097 38.3611 22.0407 38.3893 22.0001 38.4112L21.9375 38.4425L21.9938 38.4018C22.0487 38.3681 22.1063 38.3388 22.1658 38.3142C22.3628 38.2255 22.5754 38.1766 22.7914 38.1704C23.0045 38.1656 23.2166 38.2006 23.4169 38.2736C23.492 38.3048 23.5514 38.333 23.5921 38.3549C23.6327 38.3768 23.6671 38.3893 23.664 38.3924Z" fill="white"/>
<path id="Vector_35" d="M23.6562 38.13L23.5936 38.1049C23.5499 38.0862 23.4904 38.058 23.4154 38.033C23.2141 37.9649 23.0022 37.9331 22.7898 37.9392C22.5749 37.9434 22.3627 37.988 22.1643 38.0705C22.0892 38.1018 22.0329 38.13 21.9922 38.1519L21.9297 38.1831L21.986 38.1425C22.0411 38.1081 22.0986 38.0778 22.158 38.0518C22.3558 37.9658 22.568 37.918 22.7836 37.911C22.9967 37.9065 23.2087 37.9415 23.4091 38.0142C23.4693 38.0373 23.5278 38.0644 23.5843 38.0956C23.6103 38.1022 23.6347 38.1139 23.6562 38.13Z" fill="white"/>
<path id="Vector_36" d="M8.5 20.3208C8.5 20.3208 8.55943 27.327 8.91599 29.4632L17.7018 29.0472C17.7018 29.0472 16.9292 22.1662 17.2264 20.3208H8.5Z" fill="#EBEBEB"/>
<path id="Vector_37" d="M15.8989 23.248C14.9237 23.3924 13.941 23.4801 12.9557 23.5107C11.9732 23.6013 10.9862 23.6316 10 23.6014C10.9754 23.4589 11.958 23.3712 12.9432 23.3387C13.9259 23.2519 14.9127 23.2216 15.8989 23.248Z" fill="white"/>
<path id="Vector_38" d="M15.9036 24.7296C14.9286 24.8765 13.9459 24.9653 12.9604 24.9955C11.9788 25.0823 10.9929 25.1126 10.0078 25.0862C10.983 24.9416 11.9657 24.8539 12.951 24.8235C13.9325 24.7348 14.9184 24.7035 15.9036 24.7296Z" fill="white"/>
<path id="Vector_39" d="M14.4061 26.1878C13.855 26.3066 13.2933 26.3695 12.7296 26.3754C12.1701 26.4323 11.6063 26.4323 11.0469 26.3754C11.5969 26.2567 12.1575 26.1938 12.7202 26.1878C13.2807 26.1308 13.8456 26.1308 14.4061 26.1878Z" fill="white"/>
<path id="Vector_40" d="M8.07812 40.918C8.07812 40.918 8.13755 47.921 8.49411 50.0604L17.2799 49.6444C17.2799 49.6444 16.5074 42.7633 16.8045 40.918H8.07812Z" fill="#EBEBEB"/>
<path id="Vector_41" d="M15.4817 43.8571C14.5067 44.0035 13.524 44.0923 12.5385 44.123C11.5569 44.2098 10.5711 44.24 9.58594 44.2137C10.56 44.069 11.5417 43.9812 12.526 43.9509C13.5086 43.8622 14.4955 43.8309 15.4817 43.8571Z" fill="white"/>
<path id="Vector_42" d="M15.4895 45.3432C14.5144 45.488 13.5317 45.5757 12.5463 45.6059C11.5647 45.6928 10.5789 45.723 9.59375 45.6966C10.5689 45.5521 11.5516 45.4643 12.5369 45.4339C13.5186 45.3471 14.5044 45.3168 15.4895 45.3432Z" fill="white"/>
<path id="Vector_43" d="M13.992 46.8002C13.442 46.9187 12.8813 46.9805 12.3187 46.9847C11.7587 47.0469 11.1938 47.0521 10.6328 47.0003C11.1829 46.8816 11.7435 46.8187 12.3061 46.8127C12.8662 46.7505 13.4311 46.7463 13.992 46.8002Z" fill="white"/>
<path id="Vector_44" d="M32.0938 22.1621L32.9633 42.3674L58.1853 42.6708L57.053 22.428L32.0938 22.1621Z" fill="#EBEBEB"/>
<path id="Vector_45" d="M56.8609 22.019H31.8047V40.9388H56.8609V22.019Z" fill="#F5F5F5"/>
<path id="Vector_46" d="M56.8579 40.9399C56.8579 40.9399 56.8579 40.8179 56.8579 40.5864C56.8579 40.355 56.8579 40.0172 56.8579 39.5793C56.8579 38.691 56.8579 37.3899 56.8391 35.7509C56.8391 32.4512 56.8172 27.7314 56.8016 22.0201L56.8735 22.0889H31.8204L31.908 22.0044C31.908 28.8073 31.908 35.2505 31.908 40.9242L31.8298 40.8461L49.9018 40.8836L55.0438 40.9055H56.4106H56.7641H56.886H56.4263L55.0501 40.9649L49.93 40.9868L31.7891 41.0243H31.7109V40.9493C31.7109 35.2755 31.7109 28.8323 31.7109 22.0295V21.9419H31.7985H56.8516H56.9267V22.0138C56.9267 27.7408 56.8985 32.4793 56.8892 35.776C56.8892 37.418 56.8892 38.7035 56.8704 39.5887C56.8704 40.0203 56.8704 40.3519 56.8704 40.5833C56.8641 40.8273 56.8579 40.9399 56.8579 40.9399Z" fill="#E0E0E0"/>
<path id="Vector_47" d="M44.9761 26.0254H34.8203V38.8085H44.9761V26.0254Z" fill="#F5F5F5"/>
<path id="Vector_48" d="M44.9786 38.8087C44.9751 38.7869 44.9751 38.7647 44.9786 38.743V38.5616C44.9786 38.3927 44.9786 38.1612 44.9786 37.8641C44.9786 37.2385 44.9786 36.3596 44.9598 35.2399C44.9598 32.991 44.9348 29.807 44.9191 26.0255L44.9973 26.1037H34.8416C34.8197 26.1037 35.0042 25.9411 34.926 26.0193V29.4942C34.926 30.6296 34.926 31.7368 34.926 32.8096C34.926 34.9584 34.926 36.9695 34.926 38.7962L34.8572 38.7242L42.2105 38.7617L44.2717 38.7805H44.819H45.013C44.9536 38.7848 44.894 38.7848 44.8347 38.7805H44.303L42.2543 38.7993L34.8572 38.8368H34.7853V38.7649C34.7853 36.9383 34.7853 34.9271 34.7853 32.7783C34.7853 31.7055 34.7853 30.5889 34.7853 29.4629V26.0318C34.7071 26.1068 34.8885 25.9223 34.8729 25.9442H45.0286H45.1068V26.0224C45.0912 29.8226 45.0755 33.0254 45.0661 35.2868L45.0474 37.8922C45.0474 38.1841 45.0474 38.4125 45.0474 38.5772C45.0474 38.646 45.0474 38.7023 45.0474 38.7492C45.0269 38.7717 45.0038 38.7916 44.9786 38.8087Z" fill="#E0E0E0"/>
<path id="Vector_49" d="M54.6748 23.1006H35.2109V24.9428H54.6748V23.1006Z" fill="#F5F5F5"/>
<path id="Vector_50" d="M54.6811 24.942C54.6811 24.942 54.6811 24.8951 54.6811 24.8169C54.6811 24.7387 54.6811 24.6073 54.6811 24.4572C54.6811 24.1444 54.6811 23.6846 54.6592 23.0997L54.6936 23.1341C51.4126 23.1654 43.9311 23.1873 35.2298 23.1873C35.4018 23.0122 35.2767 23.1373 35.3173 23.0997V24.9357L35.2329 24.8481L49.0293 24.8857L53.1704 24.9107H54.2964H54.5935C54.6279 24.9081 54.6624 24.9081 54.6968 24.9107H54.606H54.3214H53.2142L49.0919 24.9389L35.2329 24.9733H35.1484V24.8888C35.1484 24.5948 35.1484 24.2914 35.1484 23.9849V23.0466L35.236 22.959C43.9374 22.959 51.4189 22.9809 54.6999 23.0122H54.7374V23.0466C54.7374 23.6377 54.7374 24.1006 54.7186 24.4259C54.7186 24.5729 54.7186 24.6855 54.7186 24.7731C54.7161 24.8311 54.7034 24.8883 54.6811 24.942Z" fill="#E0E0E0"/>
<path id="Vector_51" d="M54.6808 26.0254H46.2266V33.7291H54.6808V26.0254Z" fill="#F5F5F5"/>
<path id="Vector_52" d="M54.6739 33.7288C54.6739 33.7288 54.6739 33.6756 54.6739 33.5818V33.1627C54.6739 32.7873 54.6739 32.2587 54.6552 31.5988C54.6552 30.2413 54.6333 28.3303 54.6177 26.0314L54.6896 26.1064H46.2447L46.3292 26.022V28.0894C46.3292 28.765 46.3292 29.4281 46.3292 30.0756C46.3292 31.3673 46.3292 32.5778 46.3292 33.7225L46.251 33.6475L52.35 33.685L54.0797 33.7069H54.5426C54.5967 33.7023 54.6511 33.7023 54.7052 33.7069C54.6563 33.7114 54.6071 33.7114 54.5582 33.7069H54.111L52.4001 33.7257L46.251 33.7632H46.1759V33.685C46.1759 32.5559 46.1759 31.3298 46.1759 30.038C46.1759 29.3906 46.1759 28.7275 46.1759 28.0519V25.9845C46.0977 26.0595 46.2791 25.8781 46.2635 25.8969H54.7084H54.7834V25.9688C54.7678 28.2865 54.7553 30.2163 54.7459 31.5988C54.7459 32.2556 54.7302 32.7779 54.7271 33.1627C54.7271 33.3274 54.7271 33.4619 54.7271 33.5661C54.7169 33.6225 54.699 33.6773 54.6739 33.7288Z" fill="#E0E0E0"/>
<path id="Vector_53" d="M54.6808 34.936H46.2266V38.8082H54.6808V34.936Z" fill="#F5F5F5"/>
<path id="Vector_54" d="M54.6791 38.8086C54.6791 38.8086 54.6791 38.7085 54.6791 38.5271L54.6635 37.7514C54.6635 37.0664 54.6447 36.1124 54.6291 34.9364L54.6916 34.999L46.2468 35.024C46.1686 35.1022 46.35 34.9176 46.3312 34.9395V36.9319C46.3312 37.5794 46.3312 38.208 46.3312 38.8086L46.2468 38.7272L52.2927 38.7648L54.0567 38.7898H54.5321H54.701C54.6511 38.7944 54.6008 38.7944 54.5509 38.7898H54.0911L52.349 38.8148L46.2468 38.8524H46.1654V38.771C46.1654 38.1705 46.1654 37.5418 46.1654 36.8944V34.902C46.1467 34.902 46.3281 34.7362 46.253 34.8144L54.6979 34.8363H54.7385V34.8989C54.7385 36.0905 54.7135 37.0601 54.7073 37.7514C54.7073 38.0642 54.7073 38.3238 54.7073 38.5146C54.7074 38.6132 54.698 38.7117 54.6791 38.8086Z" fill="#E0E0E0"/>
<path id="Vector_55" d="M44.7258 26.0479C41.5793 30.3923 37.9637 34.4646 34.8203 38.8091L44.7258 26.0479Z" fill="white"/>
<path id="Vector_56" d="M34.8203 38.8063C34.8203 38.8063 34.8422 38.7532 34.9016 38.6624L35.1675 38.2746C35.3989 37.9368 35.7461 37.4583 36.184 36.8734C37.0566 35.6973 38.3046 34.1084 39.7058 32.3725C41.1071 30.6366 42.3675 29.0602 43.2621 27.9061L44.3224 26.5393L44.6132 26.1671C44.682 26.0857 44.7196 26.042 44.7258 26.0451C44.7032 26.0961 44.6748 26.1443 44.6414 26.189L44.3755 26.5768C44.1441 26.9146 43.7969 27.3931 43.359 27.9812C42.4864 29.1541 41.2384 30.743 39.8372 32.4789C38.436 34.2148 37.1786 35.7912 36.281 36.9453L35.2207 38.3153L34.9298 38.6843C34.8982 38.7291 34.8614 38.7701 34.8203 38.8063Z" fill="#E0E0E0"/>
<path id="Vector_57" d="M44.9782 38.8088C44.9407 38.8369 42.6356 35.9938 39.8331 32.472C37.0307 28.9501 34.785 26.0569 34.8288 26.0256C34.8725 25.9944 37.1683 28.8406 39.9739 32.3656C42.7794 35.8906 45.0158 38.7744 44.9782 38.8088Z" fill="#E0E0E0"/>
<path id="Vector_58" d="M32.9668 26.0508C32.9668 26.3651 32.8736 26.6723 32.6991 26.9336C32.5245 27.1949 32.2763 27.3985 31.986 27.5188C31.6957 27.639 31.3762 27.6705 31.068 27.6092C30.7598 27.5479 30.4766 27.3965 30.2544 27.1743C30.0322 26.9521 29.8809 26.669 29.8196 26.3608C29.7583 26.0526 29.7898 25.7331 29.91 25.4428C30.0303 25.1524 30.2339 24.9043 30.4952 24.7297C30.7565 24.5551 31.0637 24.4619 31.3779 24.4619C31.7991 24.4627 32.2028 24.6304 32.5006 24.9282C32.7983 25.226 32.966 25.6297 32.9668 26.0508Z" fill="#E0E0E0"/>
<path id="Vector_59" d="M58.9512 22.1973C58.9512 22.5116 58.858 22.8188 58.6834 23.08C58.5088 23.3413 58.2607 23.545 57.9704 23.6653C57.68 23.7855 57.3606 23.817 57.0523 23.7557C56.7441 23.6944 56.461 23.543 56.2388 23.3208C56.0166 23.0986 55.8653 22.8155 55.804 22.5073C55.7427 22.1991 55.7741 21.8796 55.8944 21.5893C56.0146 21.2989 56.2183 21.0508 56.4796 20.8762C56.7409 20.7016 57.0481 20.6084 57.3623 20.6084C57.7835 20.6092 58.1871 20.7769 58.4849 21.0747C58.7827 21.3725 58.9504 21.7762 58.9512 22.1973Z" fill="#E0E0E0"/>
<path id="Vector_60" d="M121.107 33.2637H102.797V59.8058H121.107V33.2637Z" fill="#E0E0E0"/>
<path id="Vector_61" d="M120.185 33.2622H101.875V59.8043H120.185V33.2622Z" fill="#F5F5F5"/>
<path id="Vector_62" d="M117.918 36.1372H104.156V56.9305H117.918V36.1372Z" fill="white"/>
<path id="Vector_63" d="M117.917 56.9304C117.917 56.9304 117.917 56.8929 117.917 56.8272C117.917 56.7615 117.917 56.6614 117.917 56.5332C117.917 56.2705 117.917 55.8889 117.917 55.3916C117.917 54.3969 117.917 52.9425 117.917 51.1097C117.917 47.4439 117.917 42.2519 117.895 36.1371L117.942 36.184H104.155L104.205 36.134C104.205 43.9784 104.205 51.2097 104.205 56.9273L104.164 56.8866L114.173 56.9085H116.941H117.667H117.92H117.676H116.957H114.198L104.158 56.9273H104.117V56.8898C104.117 51.1722 104.117 43.9408 104.117 36.0964V36.0464H104.155H117.917H117.961V36.0902C117.961 42.2175 117.945 47.4189 117.939 51.1034C117.939 52.9331 117.939 54.3813 117.939 55.3759C117.939 55.867 117.939 56.2454 117.939 56.505C117.939 56.6333 117.939 56.7271 117.939 56.7959L117.917 56.9304Z" fill="#E0E0E0"/>
<path id="Vector_64" d="M120.238 33.2622C120.15 33.4306 120.045 33.5899 119.925 33.7376C119.713 34.0222 119.409 34.407 119.065 34.8261C118.721 35.2452 118.399 35.6143 118.161 35.8801C118.04 36.029 117.905 36.1662 117.758 36.2899C117.862 36.1285 117.979 35.9758 118.108 35.8332L118.99 34.7635L119.869 33.6938C119.981 33.5411 120.105 33.3969 120.238 33.2622Z" fill="#E0E0E0"/>
<path id="Vector_65" d="M117.984 56.8613C118.668 57.95 119.472 58.9573 120.383 59.864L117.984 56.8613Z" fill="white"/>
<path id="Vector_66" d="M120.383 59.864C120.231 59.7525 120.092 59.6245 119.967 59.4824C119.648 59.1585 119.345 58.8181 119.06 58.4627C118.776 58.1073 118.51 57.7378 118.263 57.3555C118.153 57.2012 118.059 57.0355 117.984 56.8613C118.107 57.0045 118.22 57.156 118.322 57.3149C118.522 57.5995 118.807 57.9842 119.139 58.4002C119.47 58.8162 119.786 59.1759 120.017 59.4355C120.15 59.5686 120.273 59.7118 120.383 59.864Z" fill="#E0E0E0"/>
<path id="Vector_67" d="M101.875 59.7821L104.274 56.8232L101.875 59.7821Z" fill="white"/>
<path id="Vector_68" d="M104.279 56.8232C104.297 56.8232 103.778 57.5176 103.118 58.3339C102.727 58.8384 102.309 59.3218 101.867 59.7821C102.614 58.7544 103.415 57.7668 104.266 56.8232H104.279Z" fill="#E0E0E0"/>
<path id="Vector_69" d="M101.875 33.2622C102.286 33.7064 102.674 34.1709 103.039 34.6541C103.427 35.1185 103.789 35.604 104.124 36.1085C103.712 35.6622 103.323 35.1945 102.96 34.7072C102.571 34.2468 102.209 33.7643 101.875 33.2622Z" fill="#E0E0E0"/>
<path id="Vector_70" d="M113.623 40.3599H109.016V53.4433H113.623V40.3599Z" fill="#E0E0E0"/>
<path id="Vector_71" d="M116.887 5.05955L114.266 5.07373L114.336 18.1163L116.957 18.1021L116.887 5.05955Z" fill="#E0E0E0"/>
<path id="Vector_72" d="M98.3418 5.09463L91.5547 5.13135L91.5936 12.3313L98.3807 12.2946L98.3418 5.09463Z" fill="#EBEBEB"/>
<path id="Vector_73" d="M105.1 5.06045L98.3125 5.09717L98.3515 12.2972L105.139 12.2604L105.1 5.06045Z" fill="#F5F5F5"/>
<path id="Vector_74" d="M91.5704 7.12755C96.0806 7.16508 100.603 7.12755 105.113 7.06499C105.133 7.06499 105.151 7.05742 105.164 7.04392C105.178 7.03043 105.185 7.01213 105.185 6.99306C105.185 6.97398 105.178 6.95568 105.164 6.94219C105.151 6.9287 105.133 6.92112 105.113 6.92112C100.599 6.8961 96.0847 6.9232 91.5704 7.00244C91.5538 7.00244 91.5379 7.00903 91.5261 7.02076C91.5144 7.03249 91.5078 7.0484 91.5078 7.06499C91.5078 7.08158 91.5144 7.0975 91.5261 7.10923C91.5379 7.12096 91.5538 7.12755 91.5704 7.12755Z" fill="#E0E0E0"/>
<path id="Vector_75" d="M99.6606 12.1789L87.3281 12.2456L87.3599 18.1132L99.6923 18.0465L99.6606 12.1789Z" fill="#EBEBEB"/>
<path id="Vector_76" d="M111.934 12.112L99.6016 12.1787L99.6333 18.0463L111.966 17.9796L111.934 12.112Z" fill="#F5F5F5"/>
<path id="Vector_77" d="M87.336 13.8794C95.5306 13.9732 103.75 13.8793 111.942 13.7574C111.961 13.7574 111.979 13.7498 111.993 13.7363C112.006 13.7228 112.014 13.7045 112.014 13.6854C112.014 13.6664 112.006 13.6481 111.993 13.6346C111.979 13.6211 111.961 13.6135 111.942 13.6135C103.747 13.5697 95.5275 13.576 87.336 13.7542C87.3194 13.7542 87.3035 13.7608 87.2918 13.7726C87.28 13.7843 87.2734 13.8002 87.2734 13.8168C87.2734 13.8334 87.28 13.8493 87.2918 13.861C87.3035 13.8728 87.3194 13.8794 87.336 13.8794Z" fill="#E0E0E0"/>
<path id="Vector_78" d="M130.506 18.1152H82.7266V20.2171H130.506V18.1152Z" fill="#E0E0E0"/>
<path id="Vector_79" d="M92.4783 19.1255H90.5391V26.2974H92.4783V19.1255Z" fill="#E0E0E0"/>
<path id="Vector_80" d="M121.439 19.1255H119.5V26.2974H121.439V19.1255Z" fill="#E0E0E0"/>
<path id="Vector_81" d="M119.441 0.199686L116.82 0.213867L116.917 18.1513L119.538 18.1371L119.441 0.199686Z" fill="#EBEBEB"/>
<path id="Vector_82" d="M123.541 3.53607L119.469 3.55811L119.547 18.0957L123.62 18.0737L123.541 3.53607Z" fill="#F5F5F5"/>
<path id="Vector_83" d="M123.511 6.34155C122.158 6.43717 120.799 6.43717 119.445 6.34155C120.799 6.25008 122.158 6.25008 123.511 6.34155Z" fill="#E0E0E0"/>
<path id="Vector_84" d="M123.511 5.73071C122.158 5.82633 120.799 5.82633 119.445 5.73071C120.799 5.63924 122.158 5.63924 123.511 5.73071Z" fill="#E0E0E0"/>
<path id="Vector_85" d="M123.511 15.8899C122.158 15.9855 120.799 15.9855 119.445 15.8899C120.799 15.7984 122.158 15.7984 123.511 15.8899Z" fill="#E0E0E0"/>
<path id="Vector_86" d="M123.511 15.2815C122.158 15.3771 120.799 15.3771 119.445 15.2815C120.799 15.19 122.158 15.19 123.511 15.2815Z" fill="#E0E0E0"/>
<path id="Vector_87" d="M121.541 13.9494C121.5 13.9494 121.469 12.4825 121.469 10.6747C121.469 8.86682 121.5 7.3999 121.541 7.3999C121.581 7.3999 121.61 8.86682 121.61 10.6747C121.61 12.4825 121.578 13.9494 121.541 13.9494Z" fill="#E0E0E0"/>
<path id="Vector_88" d="M127.987 7.11133H123.555V18.0835H127.987V7.11133Z" fill="#EBEBEB"/>
<path id="Vector_89" d="M125.899 15.2409C125.767 15.2486 125.635 15.2283 125.512 15.1814C125.388 15.1345 125.276 15.062 125.182 14.9687C125.089 14.8754 125.016 14.7633 124.968 14.6399C124.921 14.5165 124.9 14.3845 124.908 14.2525C124.901 14.1087 124.93 13.9654 124.993 13.8358C125.055 13.7062 125.15 13.5946 125.267 13.5112L125.367 13.652C125.273 13.7206 125.198 13.8112 125.147 13.9159C125.096 14.0207 125.072 14.1362 125.077 14.2525C125.077 14.4707 125.163 14.6799 125.317 14.8342C125.472 14.9884 125.681 15.0751 125.899 15.0751C126.117 15.0751 126.327 14.9884 126.481 14.8342C126.635 14.6799 126.722 14.4707 126.722 14.2525C126.726 14.1359 126.702 14.0199 126.651 13.9151C126.599 13.8103 126.523 13.7198 126.428 13.652L126.531 13.5112C126.647 13.5958 126.74 13.7077 126.802 13.837C126.865 13.9664 126.894 14.1091 126.888 14.2525C126.895 14.3842 126.874 14.5159 126.827 14.6391C126.78 14.7623 126.707 14.8742 126.614 14.9675C126.521 15.0607 126.409 15.1333 126.286 15.1804C126.163 15.2275 126.031 15.2481 125.899 15.2409Z" fill="#FAFAFA"/>
<path id="Vector_90" d="M126.636 13.2394L126.489 13.1549C126.643 12.9526 126.725 12.7052 126.724 12.4512C126.724 12.0414 126.577 11.8757 126.358 11.8757C125.788 11.8757 126.208 13.1705 125.441 13.1705C125.147 13.1705 124.906 12.9235 124.906 12.4293C124.903 12.1922 124.969 11.9593 125.097 11.7599L125.247 11.8475C125.129 12.0195 125.068 12.2239 125.072 12.4324C125.072 12.814 125.229 12.9829 125.438 12.9829C126.023 12.9829 125.61 11.688 126.355 11.688C126.667 11.688 126.886 11.9632 126.886 12.4605C126.896 12.7413 126.807 13.0167 126.636 13.2394Z" fill="#FAFAFA"/>
<path id="Vector_91" d="M126.636 11.4527L126.489 11.3683C126.643 11.166 126.725 10.9186 126.724 10.6645C126.724 10.2548 126.577 10.089 126.358 10.089C125.788 10.089 126.208 11.3808 125.441 11.3808C125.147 11.3808 124.906 11.1368 124.906 10.6426C124.903 10.4056 124.969 10.1727 125.097 9.9733L125.247 10.0578C125.13 10.231 125.069 10.4364 125.072 10.6458C125.072 11.0274 125.229 11.1963 125.438 11.1963C126.023 11.1963 125.61 9.90137 126.355 9.90137C126.667 9.90137 126.886 10.1735 126.886 10.6708C126.896 10.9526 126.808 11.2291 126.636 11.4527Z" fill="#FAFAFA"/>
<path id="Vector_92" d="M118.09 4.02027C118.506 4.02027 118.844 3.68279 118.844 3.26648C118.844 2.85018 118.506 2.5127 118.09 2.5127C117.673 2.5127 117.336 2.85018 117.336 3.26648C117.336 3.68279 117.673 4.02027 118.09 4.02027Z" fill="#E0E0E0"/>
<path id="Vector_93" d="M118.325 5.33887H117.859V16.0108H118.325V5.33887Z" fill="#E0E0E0"/>
</g>
<g id="Floor">
<path id="Vector_94" d="M135.997 129.476C135.997 129.52 105.787 129.558 68.5292 129.558C31.2717 129.558 1.05469 129.526 1.05469 129.476C1.05469 129.426 31.2592 129.395 68.5292 129.395C105.799 129.395 135.997 129.439 135.997 129.476Z" fill="#263238"/>
</g>
<g id="Hourglass">
<path id="Vector_95" d="M37.5914 21.9558C32.5714 29.8502 32.8998 40.7974 38.3858 48.3759C42.0421 53.4304 47.525 56.8209 51.8788 61.281C56.2326 65.7412 59.5418 72.3252 57.2429 78.124C54.9034 84.0261 48.0505 86.4251 42.921 90.1659C37.2615 94.2879 33.4195 100.443 32.2017 107.338C30.984 114.232 32.4853 121.331 36.3903 127.142H89.6931C89.6931 127.142 99.0575 109.298 87.0189 95.6957C74.9803 82.0931 68.5152 81.8742 68.9594 72.9538C69.4035 64.0335 75.6465 61.1403 79.2152 57.7936C82.7839 54.4469 100.171 46.6494 89.9152 21.9526L37.5914 21.9558Z" fill="#FAFAFA"/>
<path id="Vector_96" d="M37.589 21.9573H38.5054H41.2078H51.6106L89.9128 21.9292H89.9535V21.9667C90.7386 23.8367 91.4071 25.7535 91.9552 27.7062C92.5307 29.7506 92.9099 31.8452 93.0874 33.9617C93.2719 36.174 93.1583 38.4011 92.7496 40.5831C92.3008 42.845 91.4874 45.019 90.3413 47.0201C89.7475 48.0407 89.0762 49.0142 88.3333 49.932C87.5751 50.8621 86.7548 51.7399 85.878 52.5593C84.9901 53.3937 84.06 54.1819 83.0912 54.9208C82.1216 55.6714 81.1082 56.3783 80.1199 57.129C79.6257 57.5012 79.1815 57.9203 78.6999 58.3394C78.2182 58.7585 77.7397 59.1495 77.2455 59.5436C76.2603 60.3318 75.2656 61.1075 74.3273 61.9801C72.3689 63.6776 70.864 65.8361 69.9485 68.2607C69.5086 69.5042 69.231 70.7994 69.1228 72.1141C69.0946 72.4268 69.0508 72.7709 69.0383 73.1024C69.0258 73.434 69.0133 73.7655 69.0383 74.097C69.0454 74.7627 69.1124 75.4264 69.2385 76.08C69.4865 77.4046 70.0272 78.657 70.8211 79.7458C71.6381 80.8344 72.5635 81.8373 73.5829 82.739C75.6066 84.5875 77.7553 86.3547 79.8102 88.2627C81.8651 90.1706 83.8763 92.1599 85.8155 94.2648C86.8049 95.3068 87.7303 96.4077 88.5866 97.5615C89.4481 98.7297 90.1969 99.977 90.823 101.287C92.0888 103.941 92.8664 106.802 93.1187 109.732C93.3738 112.702 93.1989 115.694 92.5995 118.614C92.3081 120.09 91.9258 121.546 91.4548 122.974C90.9917 124.415 90.4273 125.821 89.7658 127.181L89.7439 127.225H36.3442L36.3223 127.191C33.8226 123.427 32.2896 119.105 31.859 114.608C31.4257 110.288 32.0594 105.927 33.7043 101.909C35.2678 98.0683 37.6751 94.6283 40.748 91.8439C42.2392 90.5275 43.8496 89.3527 45.5584 88.3346C47.2224 87.3024 48.902 86.3453 50.4877 85.3007C52.075 84.3085 53.5332 83.1234 54.829 81.7726C56.0665 80.446 56.9844 78.8541 57.5126 77.1185C57.9756 75.4251 58.0483 73.6488 57.7253 71.9233C57.4168 70.258 56.8612 68.6482 56.077 67.1472C55.327 65.7018 54.4275 64.339 53.3934 63.0811C52.3952 61.8743 51.3102 60.7422 50.1468 59.6937C47.8917 57.6169 45.5803 55.7997 43.5035 53.9324C42.462 52.9941 41.4768 52.0557 40.5666 51.0955C39.6844 50.1555 38.8712 49.153 38.1332 48.096C36.7991 46.1575 35.7706 44.0256 35.0837 41.7748C34.482 39.8311 34.133 37.818 34.0453 35.7852C34.0015 35.3223 34.0203 34.8656 34.0203 34.4183C34.0203 33.9711 34.0202 33.5363 34.0609 33.1141C34.1016 32.6918 34.1235 32.2789 34.1547 31.863C34.186 31.447 34.2705 31.0748 34.3236 30.6963C34.6692 28.3924 35.3742 26.157 36.413 24.0717C36.5536 23.7491 36.7145 23.4357 36.8946 23.1334L37.2793 22.4797C37.4826 22.1325 37.5921 21.9573 37.5921 21.9573L37.2793 22.4891L36.9071 23.1334C36.7313 23.4371 36.5726 23.7503 36.4317 24.0717C35.4024 26.162 34.7059 28.4004 34.3674 30.7057C34.3143 31.081 34.2517 31.4689 34.2048 31.8661C34.1579 32.2633 34.1422 32.6793 34.111 33.1015C34.0797 33.5238 34.0797 33.9585 34.0765 34.4027C34.0734 34.8468 34.0609 35.3035 34.1047 35.7664C34.1952 37.7925 34.5474 39.7984 35.1525 41.7342C35.8386 43.9769 36.8661 46.1005 38.1989 48.0303C38.935 49.083 39.7473 50.0802 40.6291 51.0142C41.5362 51.9776 42.5214 52.9159 43.563 53.8292C45.6398 55.7058 47.9418 57.5043 50.2125 59.5843C51.3849 60.6404 52.4783 61.7809 53.4841 62.9966C54.524 64.2637 55.4286 65.6359 56.1833 67.0909C56.975 68.6012 57.5359 70.2217 57.8473 71.8982C58.1749 73.6423 58.1022 75.4379 57.6346 77.1497C57.104 78.9055 56.1773 80.516 54.926 81.857C53.6238 83.2157 52.1595 84.409 50.5659 85.4101C48.9739 86.4579 47.2943 87.415 45.6335 88.4472C43.9319 89.4626 42.3279 90.6332 40.8418 91.944C37.7878 94.7141 35.3946 98.1345 33.8388 101.953C32.2038 105.951 31.5755 110.289 32.0091 114.586C32.4398 119.058 33.9652 123.355 36.4505 127.097L36.3879 127.062H89.6907L89.6188 127.106C90.2792 125.749 90.8416 124.346 91.3015 122.909C91.7701 121.487 92.1503 120.037 92.44 118.567C93.0368 115.661 93.2106 112.684 92.9561 109.728C92.7087 106.815 91.9362 103.969 90.676 101.33C90.0543 100.03 89.3119 98.7915 88.4584 97.6303C87.604 96.4824 86.6829 95.3858 85.6997 94.3461C83.771 92.2464 81.7723 90.2488 79.7039 88.3534C77.6521 86.4486 75.5096 84.6845 73.4797 82.8266C72.4522 81.9174 71.5185 80.9073 70.6929 79.8115C69.8835 78.7094 69.329 77.4413 69.0696 76.0988C68.9444 75.4355 68.8763 74.7626 68.8663 74.0877C68.8507 73.753 68.8663 73.4183 68.8663 73.0837C68.8663 72.749 68.9226 72.4174 68.9476 72.0859C69.0624 70.7634 69.3462 69.461 69.7921 68.2106C70.7155 65.7646 72.2346 63.5877 74.2116 61.8769C75.1499 61.0074 76.1539 60.2192 77.1391 59.4341C77.6333 59.04 78.1181 58.6428 78.5904 58.2362C79.0627 57.8296 79.5287 57.3917 80.0166 57.0164C81.0113 56.2657 82.0215 55.5588 82.988 54.8113C83.9538 54.0757 84.8819 53.2917 85.7685 52.4624C86.6395 51.6466 87.4556 50.7742 88.2113 49.8507C88.9482 48.936 89.6163 47.9679 90.2099 46.9544C91.3495 44.9672 92.1587 42.808 92.6058 40.5612C93.0126 38.3969 93.1272 36.1878 92.9467 33.993C92.7719 31.8769 92.3959 29.7822 91.8238 27.7374C91.2833 25.7794 90.6232 23.8564 89.8471 21.9792L89.9003 22.0136L51.62 21.9855H41.2109H38.5023L37.589 21.9573Z" fill="#263238"/>
<path id="Vector_97" d="M87.7852 36.4355C95.6358 37.7272 83.2593 51.6332 76.2501 57.1193C72.184 60.294 67.8365 63.7408 65.9098 68.52C63.7204 73.9435 65.3437 80.0364 64.2865 85.4912C64.2525 85.6793 64.1485 85.8475 63.9955 85.9621C63.8425 86.0767 63.6518 86.1292 63.4617 86.109C63.2717 86.0888 63.0963 85.9974 62.9708 85.8533C62.8453 85.7091 62.779 85.5227 62.7852 85.3317C62.8353 81.7504 62.7414 78.1722 62.1597 74.6473C61.3183 69.6428 59.3979 64.7041 55.9042 61.0415C53.0423 58.0483 49.2922 56.0621 46.2426 53.2659C41.7888 49.1842 37.2129 43.9202 36.7656 37.8961C36.7656 37.8961 45.3168 31.0151 50.0647 31.8752C55.6133 32.8917 61.0743 41.4524 69.6693 40.4734C75.6496 39.7884 78.6803 34.9404 87.7852 36.4355Z" fill="#339999"/>
<path id="Vector_98" d="M88.4801 110.861C88.283 108.897 87.7576 106.676 86.0154 105.75C84.9614 105.187 83.6759 105.25 82.5186 105.553C81.3613 105.857 80.276 106.385 79.1313 106.726C76.8556 107.395 74.4253 107.318 72.1971 106.504C70.0671 105.722 68.2405 104.315 66.2544 103.195C64.2683 102.075 61.9632 101.256 59.7612 101.803C55.9642 102.741 53.9875 107.32 50.2342 108.425C48.564 108.912 46.7718 108.637 45.0766 108.256C43.3813 107.874 41.6767 107.377 39.9408 107.442C38.5771 107.492 37.1603 107.965 36.2063 108.897L36.1813 108.925C36.0225 109.081 35.878 109.25 35.7497 109.432C34.5861 110.996 34.3985 113.069 34.7582 114.965C35.1585 117.088 36.15 119.05 37.2134 120.929C38.4645 123.144 39.8908 125.346 41.9613 126.822C44.5198 128.645 47.732 127.388 50.8629 127.635C58.1599 128.211 66.0104 128.602 73.3106 128.039C77.1671 127.726 80.7796 128.158 83.8385 125.79C85.9904 124.126 87.3916 121.617 88.0672 118.984C88.7428 116.35 88.7522 113.567 88.4801 110.861Z" fill="#339999"/>
<g id="Group" opacity="0.24">
<path id="Vector_99" d="M74.7044 107.1C74.2947 107.726 74.1164 108.576 74.5137 109.214C74.9109 109.853 75.452 110.437 75.6209 111.172C75.893 112.323 75.1986 113.449 74.6826 114.516C73.7273 116.423 73.3667 118.573 73.6473 120.687C73.9431 122.808 75.0386 124.736 76.7093 126.076C77.4506 126.649 78.4139 127.093 79.3085 126.811C80.1498 126.548 80.6909 125.695 80.8723 124.828C81.0537 123.962 80.9005 123.07 80.791 122.198C80.2816 118.131 80.3871 114.01 81.1038 109.975C81.2226 109.302 81.3352 108.533 80.9099 107.998C80.603 107.686 80.2133 107.469 79.787 107.372C78.1606 106.831 76.4059 107.432 74.7201 107.113" fill="black"/>
</g>
<path id="Vector_100" d="M32.4776 129.565C32.4776 129.565 32.3306 127.12 35.5209 125.756H91.5855C91.5855 125.756 94.5099 127.238 94.8696 129.509L32.4776 129.565Z" fill="#263238"/>
<path id="Vector_101" d="M90.3923 22.255L90.3016 22.2956L37.5837 21.9578C37.5837 21.9578 37.396 21.839 37.1177 21.6169C36.789 21.3595 36.5493 21.0056 36.432 20.6049C36.3148 20.2042 36.3259 19.7769 36.4639 19.3829C36.6019 18.9889 36.8598 18.648 37.2015 18.408C37.5431 18.1681 37.9513 18.0411 38.3688 18.045L89.5384 18.4579C91.6434 18.4766 92.3065 21.3542 90.3923 22.255Z" fill="#263238"/>
<g id="Group_2" opacity="0.24">
<path id="Vector_102" d="M81.9477 42.3646C82.054 42.5679 81.6568 42.9901 80.903 43.6782C80.1492 44.3664 79.0264 45.2703 77.6314 46.4057C75.9565 47.7895 74.1791 49.0442 72.3143 50.159C71.1559 50.8297 69.937 51.39 68.6736 51.8323C67.989 52.069 67.2901 52.2622 66.5811 52.4109C65.8364 52.5691 65.0802 52.6674 64.3198 52.705C62.7789 52.7888 61.2362 52.5765 59.7752 52.0794C58.4836 51.6096 57.2562 50.9791 56.122 50.2027C55.0711 49.5084 54.1672 48.8203 53.3071 48.1603C52.4469 47.5004 51.6806 46.8654 50.9863 46.2649C48.2182 43.8659 46.7607 42.1019 47.0422 41.7609C47.3237 41.42 49.2942 42.5304 52.3594 44.407L54.8615 45.9396C55.7592 46.4838 56.7194 47.0875 57.7015 47.6442C58.6761 48.2163 59.7089 48.6829 60.7823 49.0361C61.8808 49.365 63.028 49.5005 64.1728 49.4364C66.5749 49.3113 68.9051 48.4668 70.9224 47.491C72.9398 46.5151 74.7664 45.3766 76.3491 44.4883C77.6015 43.7492 78.911 43.1112 80.265 42.5804C81.2565 42.2332 81.857 42.1675 81.9477 42.3646Z" fill="black"/>
</g>
<path id="Vector_103" d="M62.8218 92.0252C63.0434 91.937 63.2908 91.9397 63.5104 92.0326C63.7301 92.1255 63.9043 92.3012 63.9954 92.5217C64.0864 92.7421 64.087 92.9895 63.997 93.2104C63.907 93.4312 63.7336 93.6077 63.5143 93.7017C63.2951 93.7956 63.0477 93.7995 62.8257 93.7124C62.6037 93.6252 62.4249 93.4542 62.3281 93.2362C62.2313 93.0182 62.2242 92.7709 62.3084 92.5478C62.3926 92.3246 62.5613 92.1436 62.778 92.0439" fill="#339999"/>
<path id="Vector_104" d="M43.9659 51.0892C43.8973 51.0329 43.8344 50.97 43.7782 50.9015L43.2684 50.3448C43.0526 50.0977 42.7679 49.8099 42.4771 49.444L41.4824 48.1929C41.1415 47.7112 40.7568 47.192 40.369 46.629L39.7966 45.7188C39.6996 45.5624 39.5964 45.406 39.5026 45.2403L39.2273 44.7336C38.3949 43.2583 37.7428 41.6884 37.285 40.0576C36.825 38.4281 36.5769 36.7461 36.5469 35.0532C36.5469 34.6622 36.5688 34.2837 36.575 33.9115C36.575 33.727 36.575 33.5456 36.6 33.3673C36.6251 33.189 36.6376 33.0139 36.6563 32.8418C36.697 32.4978 36.722 32.1631 36.7689 31.8441C36.8159 31.525 36.8815 31.2185 36.9347 30.9339C37.0223 30.349 37.1787 29.8392 37.2881 29.37C37.3476 29.1448 37.3945 28.9321 37.4539 28.7445L37.6259 28.2221L37.8668 27.5059C37.8898 27.4206 37.9212 27.3378 37.9606 27.2588C37.9478 27.346 37.9268 27.4319 37.8981 27.5153C37.8449 27.6967 37.7761 27.9375 37.6854 28.2409L37.529 28.7632C37.4758 28.954 37.432 29.1667 37.3757 29.3888C37.2756 29.8423 37.1286 30.3553 37.0629 30.9527C37.0129 31.2404 36.9629 31.5438 36.9097 31.8597C36.8565 32.1756 36.844 32.5072 36.8065 32.8512C36.8065 33.0232 36.7721 33.1953 36.7533 33.3736C36.7345 33.5518 36.7533 33.7332 36.7345 33.9147C36.7345 34.2837 36.7095 34.6591 36.7126 35.0469C36.7432 36.7299 36.9881 38.4021 37.4414 40.0232C37.8968 41.642 38.5402 43.2019 39.3587 44.671C39.4494 44.8399 39.5401 45.0088 39.6277 45.1777C39.7153 45.3466 39.8247 45.4905 39.9186 45.6531L40.4816 46.5633C40.8631 47.1388 41.2416 47.658 41.5731 48.1272L42.549 49.3783C42.8305 49.7505 43.1089 50.0414 43.3153 50.2978L43.8032 50.8765C43.8618 50.9439 43.9162 51.0149 43.9659 51.0892Z" fill="#263238"/>
<path id="Vector_105" d="M41 97.5553C41.0155 97.5192 41.0343 97.4846 41.0563 97.4521L41.244 97.1581C41.3284 97.0267 41.4316 96.8703 41.5567 96.6827L41.7538 96.3699C41.832 96.2667 41.9227 96.1635 42.0134 96.0571L42.6389 95.3064C42.8798 95.0468 43.155 94.7779 43.4459 94.4838C44.1203 93.8344 44.8371 93.2305 45.5915 92.676C47.2523 91.4249 49.3948 90.1738 51.7156 88.7069C52.9359 87.9548 54.109 87.1286 55.228 86.2328C56.4286 85.2765 57.4888 84.1562 58.3777 82.9049C60.0045 80.4053 60.8885 77.4953 60.9268 74.5131C60.9664 72.0825 60.5593 69.6653 59.7257 67.3818C59.1736 65.8408 58.4804 64.3541 57.6552 62.9404C57.3643 62.4369 57.1266 62.0553 56.9639 61.7957L56.7794 61.5017C56.7387 61.436 56.72 61.3984 56.72 61.3984C56.7479 61.4265 56.772 61.458 56.7919 61.4923L56.9921 61.78C57.1641 62.0302 57.4112 62.4056 57.7083 62.9091C58.5592 64.3152 59.2715 65.8006 59.8352 67.3443C60.6912 69.6373 61.1154 72.0689 61.0863 74.5162C61.073 75.2219 61.0156 75.9259 60.9143 76.6244C60.8129 77.3549 60.6593 78.0771 60.4545 78.7856C60.0273 80.2858 59.3631 81.7081 58.4871 82.9987C57.5892 84.2637 56.5173 85.3956 55.3031 86.3611C54.1774 87.2576 52.9981 88.0849 51.7719 88.8383C49.4417 90.2927 47.2961 91.5312 45.6353 92.773C44.8811 93.3201 44.1623 93.9145 43.4834 94.5527C43.1925 94.8435 42.9142 95.1063 42.6702 95.3627L42.0447 96.0978C41.9508 96.2104 41.8601 96.3136 41.7819 96.4105L41.5786 96.7077L41.2659 97.1737L41.0657 97.4583C41.0464 97.4924 41.0245 97.5248 41 97.5553Z" fill="#263238"/>
<path id="Vector_106" d="M38.0912 103.082C38.0724 103.133 38.0493 103.182 38.0224 103.229L37.7972 103.626C37.6971 103.795 37.5783 104.008 37.4563 104.252C37.3343 104.496 37.1779 104.784 37.0466 105.112C36.9778 105.275 36.9027 105.444 36.8276 105.619C36.7526 105.794 36.69 105.988 36.6149 106.182C36.4648 106.57 36.346 106.995 36.2083 107.433C35.6643 109.394 35.4768 111.436 35.6547 113.463C35.7079 113.926 35.7454 114.37 35.8268 114.777C35.8612 114.98 35.8893 115.18 35.93 115.368C35.9706 115.556 36.0144 115.737 36.0551 115.909C36.1239 116.256 36.2271 116.56 36.3022 116.829C36.3772 117.098 36.4523 117.329 36.5211 117.517L36.6681 117.948C36.6892 117.997 36.7029 118.049 36.7088 118.102C36.6786 118.058 36.6544 118.011 36.6368 117.961C36.5899 117.845 36.5336 117.708 36.4617 117.539C36.3672 117.316 36.2847 117.088 36.2146 116.857C36.1301 116.588 36.0207 116.284 35.9425 115.937C35.8987 115.765 35.8549 115.584 35.808 115.396C35.7611 115.209 35.7329 115.005 35.6923 114.802C35.6047 114.389 35.5609 113.945 35.5046 113.479C35.3088 111.439 35.4977 109.381 36.0613 107.411C36.2021 106.961 36.3272 106.532 36.4867 106.144C36.5649 105.95 36.6274 105.76 36.7088 105.581L36.9402 105.071C37.0778 104.759 37.253 104.468 37.375 104.218C37.4852 104.002 37.6074 103.794 37.7409 103.592L37.9911 103.207C38.0537 103.123 38.085 103.079 38.0912 103.082Z" fill="#263238"/>
<path id="Vector_107" d="M76.7628 110.601L76.7002 110.644L76.5063 110.766L75.7463 111.223L75.1958 111.536C74.9894 111.652 74.7611 111.758 74.5171 111.88C74.0229 112.118 73.4787 112.421 72.8344 112.665L71.8335 113.075C71.4863 113.212 71.1079 113.322 70.7263 113.453C69.9662 113.732 69.1218 113.932 68.2429 114.16C64.3839 115.064 60.381 115.17 56.4795 114.473C55.5849 114.291 54.7342 114.135 53.9585 113.897C53.5707 113.785 53.1891 113.697 52.8325 113.585L51.8129 113.212C51.1592 113.003 50.5962 112.731 50.0926 112.518C49.8424 112.409 49.6078 112.312 49.3983 112.205L48.829 111.908L48.0471 111.492L47.8469 111.379L47.7812 111.339C47.7812 111.339 47.8094 111.339 47.8563 111.367L48.0627 111.464L48.8572 111.852L49.4296 112.133C49.6423 112.233 49.88 112.324 50.1302 112.43C50.6337 112.631 51.1967 112.896 51.8536 113.097L52.8607 113.463C53.2172 113.581 53.5988 113.666 53.9867 113.775C54.7592 114.007 55.6068 114.154 56.4889 114.332C60.3723 115.005 64.3508 114.898 68.1928 114.019C69.0686 113.794 69.9099 113.603 70.67 113.331C71.0516 113.203 71.4269 113.1 71.7741 112.962L72.775 112.565C73.4193 112.327 73.9666 112.033 74.4608 111.805C74.7048 111.686 74.9362 111.583 75.1426 111.492L75.6994 111.179L76.4719 110.748L76.6752 110.641C76.7378 110.607 76.7628 110.598 76.7628 110.601Z" fill="#263238"/>
<path id="Vector_108" d="M80.0218 44.4023C80.0027 44.425 79.9806 44.445 79.9561 44.4618L79.7497 44.6307C79.5589 44.7839 79.2931 44.9997 78.9521 45.2562C78.2578 45.8067 77.2506 46.6043 75.9777 47.5551C74.4963 48.6892 72.9427 49.7256 71.3267 50.6579C70.3657 51.1957 69.3638 51.6569 68.3304 52.0372C67.2156 52.4428 66.0527 52.7015 64.8711 52.8066C62.5738 52.9356 60.2829 52.4588 58.2278 51.4242C57.339 50.9727 56.4812 50.4628 55.6599 49.8978C54.8968 49.3598 54.1993 48.8375 53.5831 48.3339C52.332 47.3393 51.3749 46.4979 50.6993 45.9224L49.9268 45.2531L49.7297 45.0779L49.6641 45.0123C49.6641 45.0123 49.6922 45.0123 49.7391 45.0623L49.9487 45.2281L50.74 45.8724C51.4281 46.4354 52.4102 47.2611 53.655 48.2432C54.2806 48.7343 54.9718 49.2504 55.7381 49.7821C56.5565 50.3373 57.4101 50.8388 58.2935 51.2834C60.3281 52.2976 62.5918 52.7643 64.8617 52.6377C66.0292 52.5342 67.1783 52.2798 68.2803 51.8808C69.3068 51.5055 70.3023 51.0506 71.2579 50.5202C72.8714 49.6049 74.4268 48.5906 75.9151 47.4832C77.1912 46.5449 78.2077 45.7629 78.9177 45.2281L79.7341 44.6025L79.9499 44.4461C79.9715 44.428 79.9958 44.4133 80.0218 44.4023Z" fill="#263238"/>
<g id="Group_3" opacity="0.24">
<path id="Vector_109" d="M51.8125 113.229C53.295 112.084 55.3781 112.359 57.211 112.747C59.0438 113.135 60.8892 113.757 62.7439 113.498C64.142 113.301 65.4244 112.616 66.81 112.315C68.1955 112.015 69.8626 112.237 70.6289 113.423C64.5043 115.396 57.9045 115.328 51.8219 113.229" fill="black"/>
</g>
</g>
<g id="Character">
<path id="Vector_110" d="M103.525 104.741L96.8003 97.1996L96.7315 106.367L98.7583 112.247L78.6095 115.741L77.7556 99.8426L76.3043 87.6443C76.2181 86.9171 76.3751 86.1817 76.7508 85.5531C77.1265 84.9245 77.6998 84.4379 78.3811 84.1694L83.9266 81.98L91.7459 83.4125L94.8893 84.6073C96.2072 85.1092 97.3821 85.9264 98.311 86.9875L107.769 97.8033" fill="#339999"/>
<path id="Vector_111" d="M96.3281 95.3866C96.7078 95.3814 97.0869 95.3542 97.4635 95.3052C98.3707 95.1668 99.2159 94.7606 99.8907 94.1387C100.566 93.5168 101.039 92.7076 101.251 91.8147C101.329 91.4417 101.386 91.0648 101.423 90.6855C101.449 90.7877 101.458 90.8932 101.451 90.9983C101.454 91.2822 101.424 91.5655 101.364 91.8428C101.174 92.7716 100.698 93.6172 100.001 94.2599C99.3044 94.9027 98.4232 95.31 97.4823 95.4241C97.2012 95.4604 96.917 95.4667 96.6346 95.4429C96.5301 95.4407 96.4266 95.4217 96.3281 95.3866Z" fill="white"/>
<path id="Vector_112" d="M96.9189 105.977C96.9658 105.977 96.9783 102.799 96.947 98.8831C96.9158 94.9671 96.8501 91.7925 96.8032 91.7925C96.7563 91.7925 96.7437 94.9672 96.775 98.8862C96.8063 102.805 96.872 105.977 96.9189 105.977Z" fill="#263238"/>
<path id="Vector_113" d="M96.1787 108.308L84.0056 103.406C83.5244 103.213 83.1069 102.888 82.8002 102.47C82.4934 102.052 82.3097 101.556 82.2697 101.039L81.3783 89.3659C81.3783 89.3659 81.4847 84.399 78.3819 84.1582L76.6273 84.8526C74.3472 86.063 73.7842 89.3847 74.0938 91.9463C74.5348 95.587 74.7194 100.742 75.2104 103.901C75.617 106.487 77.0871 108.761 79.6268 109.427L94.6211 112.674L96.1787 108.308Z" fill="#339999"/>
<path id="Vector_114" d="M81.555 91.144C81.5753 91.2314 81.5879 91.3203 81.5925 91.4099C81.6113 91.6007 81.6394 91.8572 81.6707 92.1793C81.7332 92.8643 81.8208 93.8277 81.9272 95.0099C82.0335 96.1922 82.1524 97.6341 82.29 99.2105C82.3213 99.6078 82.3557 100.011 82.3901 100.424C82.4142 100.844 82.4665 101.262 82.5465 101.675C82.6314 102.093 82.8433 102.474 83.1532 102.767C83.4867 103.06 83.8661 103.297 84.2761 103.467C87.6321 104.919 90.7255 106.12 92.9712 106.961L95.6391 107.943L96.3648 108.209C96.4497 108.237 96.5323 108.272 96.6119 108.312C96.5233 108.296 96.4365 108.272 96.3523 108.24L95.6172 108.003C94.9917 107.79 94.0534 107.474 92.9337 107.064C90.6723 106.251 87.5759 105.069 84.2073 103.624C83.7813 103.445 83.3872 103.198 83.0406 102.892C82.708 102.576 82.4808 102.165 82.3901 101.716C82.3093 101.297 82.2581 100.872 82.2368 100.446C82.2024 100.03 82.1711 99.6265 82.1398 99.2293C82.0179 97.6654 81.9053 96.2266 81.8271 95.0256C81.7489 93.8245 81.6707 92.8768 81.6206 92.1918C81.5988 91.8791 81.5831 91.6101 81.5737 91.4193C81.5595 91.3283 81.5532 91.2362 81.555 91.144Z" fill="#263238"/>
<path id="Vector_115" d="M74.5744 97.4902C74.587 97.5415 74.5943 97.5939 74.5963 97.6466L74.637 98.097C74.6745 98.513 74.7214 99.0729 74.7808 99.7547C74.8403 100.437 74.9341 101.284 75.0561 102.204C75.1758 103.2 75.3586 104.187 75.6034 105.159C75.7186 105.66 75.9197 106.138 76.1977 106.57C76.4694 106.967 76.7738 107.341 77.1079 107.687C77.6771 108.272 78.3346 108.765 79.0565 109.147C79.7294 109.489 80.451 109.726 81.1958 109.848C81.1429 109.855 81.0893 109.855 81.0363 109.848C80.8851 109.838 80.7346 109.818 80.5859 109.789C80.0357 109.686 79.5029 109.506 79.0033 109.254C78.2611 108.88 77.585 108.388 77.0015 107.796C76.6557 107.446 76.3417 107.066 76.0632 106.661C75.7712 106.216 75.5594 105.724 75.4377 105.206C75.1894 104.226 75.0086 103.23 74.8966 102.226C74.784 101.287 74.7089 100.468 74.6589 99.7672C74.6088 99.0666 74.5807 98.4974 74.565 98.1033C74.565 97.9219 74.565 97.7717 74.565 97.6497C74.5597 97.5964 74.5628 97.5426 74.5744 97.4902Z" fill="#263238"/>
<path id="Vector_116" d="M79.7812 105.658C79.8132 105.43 79.8886 105.21 80.0033 105.011C80.2542 104.512 80.6019 104.069 81.0261 103.706C81.4504 103.344 81.9427 103.069 82.4742 102.9C82.6897 102.817 82.9192 102.778 83.1498 102.784C82.9451 102.869 82.7364 102.944 82.5243 103.009C82.0214 103.204 81.5551 103.482 81.1449 103.832C80.7358 104.182 80.388 104.599 80.1159 105.064C79.897 105.424 79.8063 105.668 79.7812 105.658Z" fill="#263238"/>
<path id="Vector_117" d="M82.1797 96.7796C82.2062 96.7874 82.2315 96.799 82.2547 96.814L82.4737 96.9297C82.756 97.0688 83.0464 97.191 83.3432 97.2956C84.4377 97.6797 85.6115 97.7808 86.7556 97.5897C88.4549 97.2865 89.973 96.3427 90.9968 94.953C91.6086 94.1502 91.9923 93.1971 92.1071 92.1943C92.1639 91.6673 92.1085 91.1344 91.9445 90.6304C91.7714 90.1159 91.47 89.6541 91.0687 89.2886C90.6732 88.9183 90.1749 88.6763 89.6393 88.5942C89.3856 88.5488 89.1248 88.5615 88.8767 88.6314C88.6286 88.7013 88.3995 88.8265 88.2068 88.9977C88.0323 89.1687 87.9313 89.4009 87.9253 89.6452C87.9307 89.888 88.0141 90.1227 88.163 90.3145C88.3183 90.4999 88.5089 90.6525 88.7237 90.7637C88.9384 90.8748 89.1731 90.9422 89.4141 90.9619C90.2611 91.0675 91.121 90.9588 91.9151 90.6456C92.7091 90.3325 93.4118 89.825 93.9587 89.1697C94.3733 88.6598 94.6856 88.0747 94.8783 87.4463C95.022 86.9702 95.0999 86.4767 95.1097 85.9794C95.1132 85.6653 95.0901 85.3514 95.0409 85.0411C95.0221 84.9441 95.0065 84.8628 94.9971 84.8003C94.9944 84.7722 94.9944 84.7439 94.9971 84.7158C95.1264 85.1201 95.1897 85.5425 95.1848 85.9669C95.188 86.4716 95.1185 86.974 94.9784 87.4589C94.6301 88.6274 93.8784 89.6344 92.8572 90.3005C91.8359 90.9667 90.6114 91.2487 89.4016 91.0964C89.1433 91.0736 88.8921 91 88.6623 90.8798C88.4326 90.7595 88.2289 90.5951 88.0629 90.3958C87.8931 90.1772 87.7987 89.9094 87.794 89.6326C87.7942 89.348 87.9066 89.075 88.1067 88.8726C88.3169 88.685 88.5666 88.547 88.8373 88.4691C89.108 88.3911 89.3928 88.3751 89.6706 88.4222C90.2395 88.5065 90.7688 88.763 91.1875 89.1572C91.611 89.5399 91.9279 90.026 92.1071 90.5679C92.2774 91.092 92.335 91.6463 92.276 92.1943C92.154 93.2189 91.7573 94.1915 91.1281 95.0093C90.2599 96.1941 89.0274 97.0619 87.6192 97.4798C86.2111 97.8978 84.7048 97.843 83.3307 97.3238C82.9247 97.1939 82.5377 97.0109 82.1797 96.7796Z" fill="white"/>
<path id="Vector_118" d="M74.2031 93.6691C74.2559 93.5754 74.3235 93.4909 74.4033 93.4189C74.6032 93.2073 74.8232 93.0156 75.0601 92.8465C75.8586 92.2978 76.7873 91.9688 77.7531 91.8925C78.283 91.8329 78.8188 91.855 79.342 91.9582C79.7672 92.0465 80.1785 92.1917 80.5649 92.3898C80.8243 92.5205 81.0732 92.6711 81.3093 92.8402C81.4007 92.8962 81.483 92.9658 81.5533 93.0466C81.5345 93.0717 81.1717 92.7964 80.5149 92.493C79.6587 92.096 78.7091 91.9444 77.7719 92.0552C76.8307 92.1294 75.9222 92.4334 75.1258 92.9403C74.5222 93.3438 74.225 93.691 74.2031 93.6691Z" fill="white"/>
<path id="Vector_119" d="M76.1484 85.3205C76.4452 85.6 76.7763 85.8407 77.1337 86.0367C77.524 86.2369 77.9483 86.3621 78.3848 86.4058C78.9161 86.4591 79.4524 86.384 79.9486 86.1869C80.4351 85.9794 80.8643 85.6575 81.1997 85.2486C81.4766 84.9073 81.6886 84.5183 81.8253 84.1007C81.9377 83.7086 82.0018 83.3042 82.0161 82.8965C82.0465 83.0043 82.0602 83.1161 82.0567 83.228C82.062 83.5348 82.0208 83.8406 81.9347 84.1351C81.8072 84.5746 81.5947 84.9848 81.3092 85.3424C80.9663 85.791 80.5108 86.1407 79.9888 86.3561C79.4669 86.5714 78.8973 86.6447 78.3378 86.5685C77.8843 86.5171 77.4454 86.3768 77.0461 86.1556C76.7773 86.008 76.5326 85.8203 76.3205 85.5989C76.2465 85.5174 76.1882 85.4231 76.1484 85.3205Z" fill="white"/>
<path id="Vector_120" d="M86.7656 104.517C86.7662 104.439 86.7746 104.361 86.7907 104.285C86.8344 104.068 86.9069 103.858 87.0065 103.66C87.4042 102.931 88.0501 102.37 88.8268 102.077C89.97 101.623 91.2352 101.577 92.4081 101.949C93.0524 102.14 93.7905 102.377 94.2847 103.006C94.409 103.167 94.4874 103.358 94.5117 103.559C94.5359 103.761 94.505 103.965 94.4223 104.151C94.2336 104.513 93.9283 104.8 93.5559 104.967C93.1964 105.145 92.8028 105.243 92.4018 105.255C92.0037 105.274 91.6116 105.152 91.2946 104.911C91.1482 104.786 91.0289 104.633 90.9439 104.46C90.8589 104.287 90.8101 104.099 90.8004 103.907C90.7799 103.548 90.8364 103.188 90.9662 102.853C91.4375 101.713 92.3353 100.801 93.4683 100.313C94.2201 99.9781 95.0437 99.8362 95.8642 99.9002C96.163 99.923 96.4574 99.985 96.74 100.085C96.74 100.107 96.4272 100.003 95.8579 99.9628C95.1782 99.9259 94.4981 100.028 93.8592 100.263C93.2203 100.498 92.636 100.861 92.1422 101.33C91.6837 101.769 91.3262 102.302 91.0944 102.893C90.9731 103.209 90.9208 103.547 90.9411 103.885C90.9502 104.056 90.9943 104.223 91.0707 104.377C91.1471 104.53 91.2542 104.666 91.3853 104.776C91.6713 104.996 92.026 105.107 92.3862 105.089C92.7622 105.079 93.1315 104.988 93.4683 104.82C93.8084 104.669 94.088 104.408 94.2628 104.079C94.3332 103.919 94.3594 103.743 94.3385 103.57C94.3175 103.397 94.2504 103.232 94.1439 103.094C93.9257 102.818 93.6462 102.598 93.3276 102.449C93.0187 102.302 92.6974 102.181 92.3674 102.09C91.2256 101.72 89.9917 101.752 88.8706 102.18C88.1108 102.455 87.4712 102.988 87.0628 103.685C86.9274 103.948 86.8274 104.228 86.7656 104.517Z" fill="white"/>
<path id="Vector_121" d="M78.6562 108.91C78.6562 108.879 79.1191 108.841 79.8229 108.597C80.7416 108.274 81.5647 107.725 82.217 107.002C82.8694 106.278 83.3302 105.403 83.5574 104.456C83.7357 103.73 83.7294 103.258 83.7607 103.261C83.7826 103.369 83.7879 103.48 83.7763 103.59C83.7691 103.889 83.7335 104.188 83.67 104.481C83.4673 105.459 83.0074 106.365 82.3377 107.105C81.668 107.846 80.8128 108.394 79.8604 108.694C79.5753 108.787 79.2821 108.853 78.9847 108.891C78.8767 108.913 78.7661 108.92 78.6562 108.91Z" fill="white"/>
<path id="Vector_122" d="M74.7031 99.8367C74.7494 99.8107 74.7988 99.7908 74.8501 99.7773C74.9502 99.746 75.0941 99.7022 75.2849 99.6522C75.8263 99.5097 76.3867 99.4527 76.9457 99.4833C77.3339 99.5126 77.7145 99.6067 78.0717 99.7616C78.4877 99.9411 78.8499 100.226 79.1226 100.587C79.4221 100.998 79.5671 101.501 79.5323 102.007C79.5123 102.277 79.4298 102.538 79.2915 102.771C79.1515 103.015 78.9302 103.204 78.666 103.302C78.5266 103.35 78.3773 103.36 78.2329 103.331C78.0885 103.303 77.9541 103.237 77.8434 103.14C77.6556 102.933 77.5539 102.662 77.5587 102.383C77.5426 101.884 77.6411 101.389 77.8465 100.935C78.1319 100.287 78.6255 99.7535 79.2489 99.4186C79.8722 99.0837 80.5895 98.9667 81.287 99.086C81.437 99.1093 81.5846 99.146 81.728 99.1955C81.825 99.233 81.875 99.255 81.8719 99.2612C81.8688 99.2675 81.6623 99.1955 81.2776 99.1486C80.7339 99.0828 80.1824 99.1538 79.6731 99.355C78.9186 99.6578 78.3147 100.247 77.9935 100.994C77.8025 101.428 77.7116 101.899 77.7276 102.373C77.721 102.613 77.8061 102.845 77.9654 103.024C78.055 103.1 78.1631 103.152 78.2788 103.174C78.3945 103.196 78.5139 103.187 78.6253 103.149C78.857 103.063 79.0516 102.9 79.1758 102.686C79.3002 102.475 79.3751 102.239 79.3947 101.995C79.4275 101.525 79.296 101.058 79.0225 100.675C78.7686 100.331 78.4289 100.059 78.0373 99.8868C77.6951 99.7314 77.3293 99.6341 76.9551 99.599C76.4081 99.5582 75.8582 99.5972 75.3224 99.7147C74.9189 99.7929 74.7094 99.8492 74.7031 99.8367Z" fill="white"/>
<g id="Group_4" opacity="0.3">
<path id="Vector_123" d="M92.6812 106.916C91.3801 106.18 90.1071 105.614 88.7466 104.998C87.386 104.382 86.0505 103.584 85.159 102.383C83.4795 100.119 83.6702 96.8504 81.9531 94.6172C82.0657 96.1185 82.1773 97.6209 82.2878 99.1243C82.391 100.5 82.1814 101.864 83.0666 102.799C83.8141 103.588 85.2716 104.191 86.3038 104.532C88.3775 105.217 90.6107 106.234 92.6812 106.916Z" fill="black"/>
</g>
<path id="Vector_124" d="M113.85 124.071C113.85 124.071 124.038 126.886 124.447 127.036C125.073 127.252 124.957 129.501 124.003 129.463C123.55 129.447 116.184 129.738 115.245 129.682C114.307 129.626 111.492 128.515 111.492 128.515L113.85 124.071Z" fill="#339999"/>
<path id="Vector_125" d="M118.079 127.958C118.205 127.584 118.355 127.218 118.529 126.864C118.748 126.536 118.989 126.222 119.249 125.925C118.886 126.124 118.585 126.418 118.379 126.776C118.173 127.134 118.069 127.542 118.079 127.955V127.958Z" fill="#263238"/>
<path id="Vector_126" d="M117.016 127.477C117.066 127.477 117.169 127.004 117.441 126.473C117.713 125.941 118.032 125.569 117.998 125.534C117.7 125.766 117.458 126.06 117.288 126.397C117.118 126.733 117.025 127.103 117.016 127.48V127.477Z" fill="#263238"/>
<path id="Vector_127" d="M116.037 127.211C116.087 126.846 116.166 126.486 116.275 126.135C116.434 125.803 116.619 125.484 116.828 125.181C116.505 125.398 116.256 125.709 116.115 126.072C115.973 126.435 115.946 126.832 116.037 127.211Z" fill="#263238"/>
<path id="Vector_128" d="M116.199 125.893C116.288 125.652 116.326 125.394 116.308 125.136C116.305 124.856 116.27 124.577 116.205 124.304C116.166 124.143 116.115 123.985 116.052 123.832C116.022 123.735 115.966 123.648 115.889 123.582C115.838 123.544 115.774 123.525 115.711 123.528C115.647 123.532 115.586 123.557 115.539 123.601C115.46 123.677 115.412 123.779 115.404 123.888C115.397 123.978 115.397 124.068 115.404 124.157C115.405 124.325 115.426 124.492 115.467 124.655C115.534 124.928 115.64 125.19 115.78 125.434C115.892 125.669 116.046 125.881 116.236 126.059C116.261 126.059 116.089 125.806 115.886 125.39C115.767 125.149 115.678 124.895 115.62 124.633C115.587 124.48 115.57 124.323 115.57 124.167C115.57 124.01 115.57 123.816 115.664 123.741C115.682 123.725 115.706 123.715 115.731 123.715C115.756 123.715 115.78 123.725 115.798 123.741C115.849 123.791 115.888 123.852 115.911 123.92C115.971 124.067 116.022 124.217 116.064 124.37C116.136 124.63 116.181 124.896 116.199 125.165C116.217 125.602 116.171 125.89 116.199 125.893Z" fill="#263238"/>
<path id="Vector_129" d="M116.191 125.79C115.983 125.704 115.758 125.667 115.534 125.684C115.29 125.684 115.048 125.713 114.811 125.772C114.666 125.805 114.525 125.856 114.392 125.925C114.309 125.967 114.241 126.036 114.2 126.12C114.159 126.204 114.146 126.299 114.164 126.391C114.187 126.479 114.233 126.559 114.298 126.623C114.362 126.687 114.442 126.734 114.53 126.757C114.68 126.795 114.837 126.795 114.987 126.757C115.228 126.702 115.454 126.595 115.65 126.444C115.835 126.32 115.995 126.162 116.122 125.978C115.934 126.088 115.753 126.21 115.581 126.344C115.392 126.474 115.179 126.566 114.955 126.616C114.831 126.647 114.701 126.647 114.577 126.616C114.518 126.601 114.464 126.571 114.421 126.529C114.378 126.487 114.346 126.434 114.33 126.375C114.32 126.318 114.33 126.259 114.357 126.208C114.384 126.156 114.427 126.115 114.48 126.091C114.596 126.027 114.72 125.978 114.849 125.947C115.073 125.883 115.304 125.843 115.537 125.828C115.934 125.778 116.184 125.819 116.191 125.79Z" fill="#263238"/>
<path id="Vector_130" d="M119.642 128.069C119.686 127.757 119.754 127.45 119.846 127.149C119.989 126.87 120.155 126.603 120.343 126.352C120.046 126.513 119.814 126.772 119.687 127.085C119.559 127.398 119.543 127.746 119.642 128.069Z" fill="#263238"/>
<path id="Vector_131" d="M112.531 128.54C112.655 128.618 112.787 128.681 112.925 128.728C113.295 128.868 113.673 128.985 114.058 129.078C115.335 129.357 116.641 129.481 117.948 129.447C119.475 129.429 120.851 129.36 121.849 129.319L123.028 129.257C123.173 129.254 123.317 129.239 123.46 129.213C123.316 129.19 123.17 129.183 123.025 129.191H121.846L117.948 129.266C116.653 129.299 115.359 129.194 114.086 128.953C113.11 128.756 112.544 128.506 112.531 128.54Z" fill="#263238"/>
<path id="Vector_132" d="M112.234 128.772C112.234 128.794 112.525 128.631 112.998 128.425C113.598 128.141 114.265 128.033 114.924 128.112C115.572 128.252 116.157 128.599 116.591 129.1C116.772 129.314 116.967 129.515 117.176 129.701C117.042 129.452 116.875 129.223 116.679 129.019C116.478 128.786 116.251 128.576 116.003 128.393C115.692 128.163 115.331 128.011 114.949 127.949C114.258 127.866 113.558 127.998 112.944 128.328C112.685 128.437 112.446 128.587 112.234 128.772Z" fill="#263238"/>
<path id="Vector_133" d="M103.021 121.258C103.021 121.258 93.3812 127.57 93.0371 127.827C92.5179 128.218 93.1122 130.085 94.013 129.763C94.4383 129.609 102.527 127.357 103.396 127.02C104.266 126.682 106.608 124.786 106.608 124.786L103.021 121.258Z" fill="#339999"/>
<path id="Vector_134" d="M100.162 126.252C100.046 125.855 99.8231 125.498 99.5175 125.219C99.2119 124.941 98.8356 124.751 98.4297 124.672C98.7686 124.876 99.0936 125.101 99.4024 125.348C99.6743 125.633 99.9282 125.935 100.162 126.252Z" fill="#263238"/>
<path id="Vector_135" d="M101.024 125.467C100.902 125.11 100.701 124.785 100.438 124.514C100.175 124.244 99.8547 124.035 99.5011 123.903C99.476 123.947 99.8983 124.216 100.314 124.629C100.73 125.042 100.98 125.492 101.024 125.467Z" fill="#263238"/>
<path id="Vector_136" d="M101.896 124.912C101.895 124.518 101.746 124.14 101.477 123.852C101.253 123.534 100.919 123.311 100.539 123.226C100.829 123.453 101.102 123.7 101.355 123.967C101.561 124.267 101.741 124.583 101.896 124.912Z" fill="#263238"/>
<path id="Vector_137" d="M101.336 123.715C101.361 123.715 101.23 123.443 101.12 122.992C101.054 122.731 101.015 122.464 101.004 122.195C100.994 122.036 100.994 121.877 101.004 121.719C101.003 121.648 101.022 121.577 101.058 121.516C101.071 121.495 101.092 121.479 101.117 121.474C101.141 121.468 101.167 121.472 101.189 121.485C101.298 121.528 101.355 121.716 101.408 121.866C101.454 122.015 101.485 122.168 101.502 122.323C101.526 122.591 101.517 122.861 101.477 123.127C101.411 123.583 101.32 123.862 101.345 123.871C101.474 123.647 101.559 123.401 101.595 123.145C101.655 122.871 101.677 122.59 101.658 122.31C101.645 122.143 101.615 121.977 101.567 121.816C101.542 121.73 101.51 121.645 101.473 121.563C101.432 121.46 101.354 121.377 101.255 121.328C101.197 121.301 101.131 121.295 101.069 121.312C101.007 121.329 100.953 121.366 100.917 121.419C100.865 121.506 100.838 121.605 100.839 121.707C100.804 122.152 100.855 122.6 100.989 123.027C101.055 123.278 101.173 123.512 101.336 123.715Z" fill="#263238"/>
<path id="Vector_138" d="M101.305 123.61C101.305 123.635 101.542 123.523 101.93 123.426C102.157 123.372 102.388 123.34 102.621 123.332C102.754 123.323 102.888 123.331 103.019 123.357C103.076 123.365 103.13 123.391 103.171 123.432C103.213 123.472 103.241 123.525 103.25 123.582C103.253 123.644 103.239 123.706 103.21 123.761C103.181 123.816 103.137 123.862 103.084 123.895C102.977 123.963 102.854 124.003 102.728 124.014C102.499 124.036 102.269 124.013 102.049 123.945C101.845 123.869 101.636 123.807 101.424 123.761C101.6 123.902 101.802 124.008 102.018 124.073C102.25 124.162 102.499 124.2 102.747 124.183C102.901 124.175 103.05 124.127 103.181 124.045C103.259 123.998 103.322 123.93 103.364 123.85C103.407 123.769 103.427 123.679 103.422 123.589C103.411 123.495 103.37 123.408 103.305 123.341C103.24 123.273 103.155 123.228 103.062 123.213C102.916 123.187 102.767 123.181 102.618 123.194C102.375 123.211 102.135 123.256 101.902 123.329C101.684 123.375 101.479 123.472 101.305 123.61Z" fill="#263238"/>
<path id="Vector_139" d="M95.2384 129.416C95.2384 129.432 95.401 129.319 95.4761 129.044C95.551 128.685 95.4861 128.31 95.2947 127.996C95.202 127.829 95.0975 127.668 94.9819 127.515C94.8879 127.384 94.7775 127.267 94.6535 127.164C94.5646 127.091 94.4556 127.046 94.3407 127.036C94.2594 127.036 94.2188 127.052 94.2188 127.061C94.2188 127.071 94.3908 127.077 94.5691 127.258C94.6742 127.365 94.7676 127.482 94.8474 127.609C94.9596 127.759 95.064 127.916 95.1602 128.078C95.333 128.358 95.4078 128.688 95.3729 129.016C95.3362 129.152 95.2913 129.286 95.2384 129.416Z" fill="#263238"/>
<path id="Vector_140" d="M98.7042 126.83C98.7171 126.66 98.6933 126.49 98.6345 126.331C98.5757 126.172 98.4831 126.027 98.3632 125.907C98.2669 125.767 98.1411 125.65 97.9947 125.564C97.8482 125.478 97.6847 125.425 97.5156 125.41C97.7713 125.591 98.0109 125.794 98.2319 126.016C98.4119 126.274 98.5699 126.546 98.7042 126.83Z" fill="#263238"/>
<path id="Vector_141" d="M105.622 125.121C105.472 125.204 105.329 125.301 105.196 125.409C104.814 125.674 104.417 125.917 104.008 126.138C103.401 126.459 102.774 126.74 102.131 126.979C101.399 127.251 100.567 127.508 99.7164 127.758C97.9805 128.258 96.4104 128.715 95.2782 129.056L93.9301 129.478C93.7637 129.522 93.6015 129.581 93.4453 129.653C93.6158 129.63 93.7842 129.593 93.9489 129.544L95.3032 129.165C96.4448 128.853 98.018 128.415 99.7539 127.914C100.62 127.661 101.443 127.398 102.175 127.117C102.826 126.869 103.459 126.574 104.067 126.235C104.476 126.003 104.867 125.742 105.237 125.453C105.374 125.353 105.503 125.242 105.622 125.121Z" fill="#263238"/>
<path id="Vector_142" d="M105.974 125.25C105.715 125.136 105.44 125.062 105.158 125.031C104.473 124.904 103.765 124.992 103.131 125.281C102.788 125.461 102.494 125.721 102.274 126.038C102.093 126.289 101.94 126.56 101.821 126.845C101.695 127.099 101.606 127.368 101.555 127.646C101.696 127.404 101.822 127.154 101.93 126.895C102.191 126.285 102.643 125.775 103.219 125.444C103.824 125.172 104.494 125.075 105.152 125.166C105.652 125.206 105.968 125.275 105.974 125.25Z" fill="#263238"/>
<path id="Vector_143" d="M123.052 105.868C123.052 105.868 125.945 106.9 125.955 110.144C125.98 116.352 113.406 123.199 113.406 123.199L96.6728 112.114L95.625 111.689C95.625 111.689 118.223 103.206 123.052 105.868Z" fill="#263238"/>
<path id="Vector_144" d="M105.156 117.712C105.31 117.627 105.457 117.528 105.594 117.418C105.866 117.218 106.257 116.924 106.736 116.552C107.696 115.814 108.997 114.763 110.401 113.558C111.806 112.354 113.038 111.225 113.914 110.39C114.352 109.974 114.702 109.63 114.943 109.389C115.073 109.272 115.192 109.143 115.299 109.004C115.156 109.105 115.021 109.218 114.896 109.342L113.833 110.302C112.935 111.113 111.69 112.229 110.289 113.43C108.888 114.631 107.599 115.695 106.664 116.458L105.553 117.365C105.412 117.47 105.279 117.586 105.156 117.712Z" fill="#455A64"/>
<path id="Vector_145" d="M118.335 108.188C117.241 108.072 116.146 108.395 115.289 109.086C115.317 109.133 115.915 108.742 116.772 108.498C117.629 108.254 118.335 108.241 118.335 108.188Z" fill="#455A64"/>
<path id="Vector_146" d="M116.889 107.208C116.502 107.372 116.161 107.63 115.897 107.957C115.633 108.284 115.454 108.672 115.375 109.085C115.425 109.085 115.606 108.581 116.029 108.065C116.451 107.549 116.917 107.252 116.889 107.208Z" fill="#455A64"/>
<path id="Vector_147" d="M123.974 126.876C123.974 126.857 123.773 126.816 123.542 127.007C123.269 127.261 123.098 127.606 123.06 127.977C123.005 128.341 123.058 128.714 123.21 129.05C123.329 129.303 123.461 129.422 123.476 129.409C123.435 129.27 123.384 129.134 123.323 129.003C123.213 128.681 123.181 128.338 123.229 128.002C123.266 127.667 123.404 127.351 123.623 127.095C123.802 126.91 123.977 126.904 123.974 126.876Z" fill="#263238"/>
<path id="Vector_148" d="M119.208 95.7168L113.249 110.824L87.5926 111.243L87.1172 109.854L96.1094 109.529L100.432 96.1265L119.208 95.7168Z" fill="#455A64"/>
<path id="Vector_149" d="M107.225 102.267C107.422 102.168 107.643 102.128 107.862 102.152C108.082 102.176 108.289 102.263 108.46 102.402C108.606 102.538 108.706 102.716 108.749 102.91C108.792 103.105 108.775 103.308 108.701 103.493C108.621 103.678 108.49 103.837 108.325 103.951C108.159 104.065 107.964 104.131 107.763 104.141C107.551 104.154 107.341 104.098 107.163 103.982C106.986 103.865 106.852 103.693 106.781 103.493C106.714 103.27 106.719 103.03 106.797 102.81C106.875 102.59 107.02 102.4 107.212 102.267" fill="#EBEBEB"/>
<path id="Vector_150" d="M114.993 123.954C114.993 123.954 91.3533 108.446 90.39 108.124C89.4266 107.802 87.0808 106.27 84.7444 106.914C82.408 107.558 80.3061 109.657 79.2584 112.722C78.6578 114.474 78.3763 117.461 78.2418 119.703C78.0626 122.385 78.9317 125.031 80.6658 127.085C81.434 128.043 82.4544 128.768 83.6122 129.177C83.8592 129.255 84.1157 129.321 84.3785 129.377C88.848 130.347 93.4489 128.339 95.9511 124.517L96.5015 123.679C96.5015 123.679 111.968 129.359 112.209 129.28L114.993 123.954Z" fill="#263238"/>
<path id="Vector_151" d="M85.75 119.686C85.7917 119.707 85.8345 119.726 85.8782 119.742L86.2661 119.895L87.7643 120.474L93.3347 122.573C95.6993 123.455 98.533 124.506 101.714 125.663C104.895 126.82 108.417 128.087 112.182 129.36L112.248 129.385L112.283 129.319L114.131 125.791L115.069 123.993L115.104 123.924L115.038 123.883L97.0067 112.436L91.5895 109.02L90.1194 108.101L89.7347 107.866C89.6471 107.813 89.6002 107.791 89.6002 107.791L89.7253 107.882L90.1007 108.129L91.5551 109.067L96.9598 112.536L114.963 124.027L114.932 123.915C114.635 124.487 114.306 125.097 113.993 125.713L112.148 129.241L112.251 129.201C108.498 127.931 104.964 126.667 101.78 125.519L93.3879 122.466L87.7862 120.408L86.2786 119.858L85.8845 119.72L85.75 119.686Z" fill="#455A64"/>
<path id="Vector_152" d="M88.2017 64.6212C88.6052 63.5296 89.4966 63.0573 90.6257 62.7852C91.1937 62.653 91.7851 62.6599 92.3498 62.8053C92.9145 62.9507 93.4357 63.2303 93.8692 63.6203C94.4416 64.1426 94.8607 64.8714 95.5675 65.1842C96.7342 65.7128 98.2261 64.9402 99.3208 65.5877C99.6497 65.7814 99.9013 66.083 100.033 66.4413C100.164 66.7996 100.168 67.1924 100.042 67.5529C99.9171 67.9134 99.6708 68.2193 99.3454 68.4187C99.0199 68.6181 98.6355 68.6987 98.2574 68.6466C99.0174 69.0032 99.1582 70.1479 98.6358 70.8048C98.1135 71.4616 97.147 71.6399 96.337 71.4115C95.5385 71.1365 94.8301 70.6488 94.2883 70.0009C93.719 69.3754 93.2186 68.7029 92.5993 68.1243C92.0049 67.5203 91.2161 67.1459 90.3724 67.0671C89.237 67.0233 88.183 67.7896 87.5918 68.7561C87.0007 69.7225 86.7724 70.8704 86.6066 71.9964C86.4408 73.1224 86.3157 74.2672 85.881 75.3181C85.8309 75.4432 85.7558 75.5777 85.6276 75.6059C85.4368 75.6465 85.2992 75.437 85.2241 75.2587C84.3683 73.25 83.9155 71.0926 83.8917 68.9093C83.8761 67.6582 84.02 66.4603 84.805 65.4688C85.5901 64.4773 87.401 63.8611 88.1924 64.6055" fill="#263238"/>
<path id="Vector_153" d="M85.5318 69.666L83.7928 82.2959C83.7231 82.8059 83.7578 83.3248 83.8951 83.8209C84.0323 84.3171 84.269 84.7801 84.5909 85.1819C84.9127 85.5836 85.313 85.9156 85.7672 86.1578C86.2215 86.3999 86.7203 86.5471 87.2333 86.5903C88.2044 86.6747 89.1708 86.3825 89.9323 85.774C90.6939 85.1656 91.1923 84.2876 91.3243 83.3218C91.4526 82.3834 91.562 81.5796 91.5839 81.4826C91.5839 81.4826 94.8399 81.6234 95.5092 78.4737C95.822 76.9505 96.2443 73.7602 96.5852 70.8702C96.7572 69.3746 96.3605 67.869 95.4741 66.6523C94.5876 65.4355 93.276 64.5966 91.7998 64.3019L91.487 64.2424C88.1559 63.767 85.904 66.3318 85.5318 69.666Z" fill="#FFBE9D"/>
<path id="Vector_154" d="M91.5846 81.4404C90.1206 81.1718 88.7696 80.4739 87.7031 79.4355C87.7031 79.4355 88.2223 81.9002 91.4283 82.2505L91.5846 81.4404Z" fill="#EB996E"/>
<path id="Vector_155" d="M95.2245 72.8022C95.2024 72.92 95.1349 73.0243 95.0366 73.0927C94.9383 73.1612 94.8171 73.1883 94.699 73.1682C94.6408 73.1617 94.5846 73.1435 94.5336 73.1147C94.4826 73.086 94.438 73.0472 94.4023 73.0008C94.3667 72.9543 94.3408 72.9012 94.3262 72.8445C94.3116 72.7878 94.3086 72.7287 94.3174 72.6709C94.3388 72.5526 94.406 72.4475 94.5043 72.3784C94.6027 72.3093 94.7243 72.2818 94.8429 72.3018C94.9012 72.3087 94.9575 72.3272 95.0085 72.3563C95.0595 72.3854 95.1041 72.4245 95.1397 72.4711C95.1753 72.5178 95.2012 72.5712 95.2157 72.6281C95.2303 72.685 95.2333 72.7442 95.2245 72.8022Z" fill="#263238"/>
<path id="Vector_156" d="M95.5829 72.2834C95.5141 72.3334 95.2233 72.0112 94.7385 71.9143C94.2537 71.8173 93.8471 71.9925 93.8001 71.9143C93.7532 71.8361 93.8596 71.7892 94.0379 71.7078C94.2755 71.6022 94.5405 71.5748 94.7948 71.6297C95.0473 71.678 95.2776 71.8063 95.4516 71.9956C95.5861 72.1457 95.6142 72.2646 95.5829 72.2834Z" fill="#263238"/>
<path id="Vector_157" d="M90.4376 72.0143C90.4163 72.1326 90.3491 72.2377 90.2507 72.3068C90.1524 72.3759 90.0307 72.4034 89.9122 72.3834C89.854 72.3761 89.7977 72.3573 89.7468 72.3281C89.6959 72.2989 89.6512 72.2599 89.6155 72.2134C89.5797 72.1669 89.5535 72.1137 89.5384 72.057C89.5233 72.0003 89.5196 71.9411 89.5275 71.8829C89.551 71.7658 89.6187 71.6621 89.7165 71.5935C89.8143 71.5248 89.9347 71.4963 90.0529 71.5139C90.1114 71.5208 90.1678 71.5393 90.2189 71.5684C90.2701 71.5974 90.3149 71.6364 90.3507 71.683C90.3866 71.7297 90.4127 71.783 90.4277 71.8399C90.4426 71.8968 90.446 71.9561 90.4376 72.0143Z" fill="#263238"/>
<path id="Vector_158" d="M90.7939 71.4245C90.7251 71.4714 90.4342 71.1493 89.9494 71.0523C89.4646 70.9553 89.058 71.1305 89.0111 71.0523C88.9642 70.9741 89.0705 70.9272 89.2488 70.8459C89.4868 70.7419 89.7514 70.7145 90.0057 70.7677C90.2581 70.8188 90.4886 70.9466 90.6657 71.1336C90.797 71.3025 90.8252 71.4026 90.7939 71.4245Z" fill="#263238"/>
<path id="Vector_159" d="M91.8359 75.3673C92.1076 75.337 92.382 75.3423 92.6523 75.383C92.7805 75.383 92.9025 75.383 92.94 75.311C92.9798 75.1869 92.9798 75.0535 92.94 74.9294C92.8837 74.6167 92.8243 74.2664 92.7617 73.9098C92.5209 72.4648 92.3739 71.2887 92.4302 71.2794C92.4865 71.27 92.743 72.4335 92.9713 73.8785C93.0276 74.2351 93.0839 74.5729 93.1339 74.8982C93.1829 75.0637 93.1707 75.2413 93.0995 75.3986C93.073 75.4381 93.0378 75.4711 92.9966 75.4949C92.9554 75.5188 92.9093 75.5329 92.8618 75.5362C92.7903 75.5464 92.7176 75.5464 92.646 75.5362C92.37 75.5139 92.0979 75.4572 91.8359 75.3673Z" fill="#263238"/>
<path id="Vector_160" d="M90.343 75.4262C90.4243 75.4262 90.318 75.9642 90.6933 76.4271C91.0686 76.89 91.6316 76.9463 91.6316 77.0213C91.6316 77.0964 91.4877 77.0964 91.25 77.0558C90.9403 76.9986 90.6603 76.8349 90.4587 76.5928C90.2678 76.3584 90.1748 76.0592 90.1991 75.7577C90.2241 75.5325 90.3086 75.4137 90.343 75.4262Z" fill="#263238"/>
<path id="Vector_161" d="M91.297 69.5435C91.225 69.6686 90.7527 69.5091 90.1679 69.4621C89.583 69.4152 89.0951 69.4809 89.0419 69.3464C89.02 69.2839 89.1263 69.1775 89.3359 69.0868C89.614 68.9771 89.914 68.9342 90.2116 68.9617C90.5111 68.9845 90.8007 69.0789 91.0561 69.2369C91.2469 69.362 91.3251 69.4872 91.297 69.5435Z" fill="#263238"/>
<path id="Vector_162" d="M95.6811 70.8469C95.5748 70.9407 95.2651 70.7593 94.8617 70.6717C94.4582 70.5841 94.1047 70.5998 94.0516 70.4684C94.0266 70.4058 94.1016 70.3058 94.2736 70.2307C94.4977 70.1424 94.7436 70.126 94.9774 70.1838C95.2132 70.2335 95.4269 70.3573 95.5873 70.5372C95.703 70.678 95.7312 70.7999 95.6811 70.8469Z" fill="#263238"/>
<path id="Vector_163" d="M85.3275 72.0571C85.2775 72.0227 83.2851 70.9812 82.9223 73.155C82.5595 75.3288 84.8177 75.2443 84.8302 75.1817C84.8427 75.1192 85.3275 72.0571 85.3275 72.0571Z" fill="#FFBE9D"/>
<path id="Vector_164" d="M84.3023 74.2447C84.3023 74.2447 84.2616 74.2666 84.1928 74.2854C84.0962 74.3085 83.9945 74.294 83.9082 74.2447C83.7815 74.1331 83.6874 73.9893 83.6356 73.8285C83.5839 73.6678 83.5765 73.496 83.6142 73.3314C83.6392 73.1436 83.7066 72.964 83.8112 72.806C83.8408 72.7411 83.8855 72.6843 83.9416 72.6402C83.9976 72.5962 84.0634 72.5661 84.1334 72.5526C84.1792 72.5488 84.2249 72.5611 84.2626 72.5873C84.3002 72.6136 84.3276 72.6522 84.3398 72.6965C84.3586 72.7591 84.3398 72.8029 84.3398 72.806C84.3398 72.8091 84.393 72.7778 84.3899 72.6871C84.3865 72.6315 84.3645 72.5785 84.3273 72.537C84.302 72.5089 84.2711 72.4864 84.2367 72.4708C84.2022 72.4552 84.1649 72.4468 84.1271 72.4463C84.0353 72.449 83.9458 72.4751 83.8669 72.5222C83.7881 72.5692 83.7226 72.6357 83.6767 72.7153C83.5525 72.8884 83.472 73.0891 83.4422 73.3002C83.3827 73.7412 83.5391 74.1884 83.8394 74.3292C83.895 74.3561 83.9559 74.37 84.0177 74.37C84.0794 74.37 84.1403 74.3561 84.1959 74.3292C84.2898 74.2979 84.3085 74.251 84.3023 74.2447Z" fill="#EB996E"/>
<path id="Vector_165" d="M97.3694 70.363C96.6344 70.4027 95.9005 70.2674 95.2279 69.9684C94.5554 69.6693 93.9633 69.215 93.5004 68.6428C92.8748 67.8358 92.4589 66.7817 91.5549 66.2938C91.2436 66.1406 90.905 66.0507 90.5588 66.0292C90.2125 66.0078 89.8654 66.0552 89.5375 66.1687C88.885 66.402 88.2868 66.766 87.7798 67.2384C88.0675 68.9649 87.3012 70.6789 86.5537 72.2428C86.4893 72.4273 86.3648 72.5848 86.2003 72.6901C85.9063 72.8371 85.556 72.6056 85.3777 72.3273C85.1278 71.8606 85.0191 71.3314 85.0649 70.804C85.0716 69.6024 85.3161 68.4139 85.7843 67.3072C86.2597 66.1972 87.0503 65.2511 88.0581 64.5861C89.3508 63.7968 90.8993 63.54 92.3775 63.8698C93.8473 64.2117 95.1724 65.0072 96.1652 66.1437C96.649 66.6474 97.0004 67.2631 97.188 67.9359" fill="#263238"/>
</g>
<g id="Plant">
<path id="Vector_166" d="M9.83709 121.298C9.85078 121.252 9.86967 121.208 9.89339 121.166L10.0685 120.788C10.2842 120.299 10.4589 119.792 10.5909 119.274C10.9349 117.929 11.0538 115.874 10.544 113.435C10.2697 112.104 9.90817 110.793 9.46176 109.509C9.00199 108.117 8.47027 106.641 8.03552 105.043C7.54466 103.376 7.30742 101.645 7.33178 99.907C7.39746 98.0898 7.93543 96.2757 8.52657 94.471C9.11771 92.6663 9.72762 90.8959 9.90903 89.1194C10.114 87.41 9.77126 85.6797 8.93005 84.1775C8.14499 82.7325 7.16288 81.5002 6.42787 80.2209C5.73894 79.0363 5.23081 77.7554 4.9203 76.4207C4.47726 74.4857 4.44529 72.4793 4.82647 70.5311C4.96668 69.8191 5.1762 69.1224 5.45201 68.4512C5.44468 68.499 5.43316 68.5461 5.41761 68.5919L5.2925 68.9891C4.55658 71.3912 4.47774 73.9466 5.06418 76.3894C5.3776 77.7089 5.88681 78.974 6.57487 80.1427C7.30988 81.3938 8.29825 82.6449 9.09582 84.0931C9.95008 85.6248 10.2992 87.387 10.0936 89.1288C9.90903 90.9366 9.29287 92.7163 8.70485 94.521C8.11684 96.3257 7.582 98.1179 7.51632 99.9039C7.48909 101.624 7.71998 103.338 8.20129 104.99C8.62979 106.579 9.15837 108.055 9.60877 109.453C10.0514 110.744 10.4077 112.062 10.6753 113.4C11.1726 115.859 11.0288 117.935 10.6753 119.283C10.5375 119.803 10.3511 120.309 10.1186 120.794C10.0373 120.951 9.97158 121.073 9.92467 121.166C9.89977 121.213 9.87044 121.257 9.83709 121.298Z" fill="#263238"/>
<path id="Vector_167" d="M7.42428 81.4811C7.42428 81.4811 5.9261 76.6956 8.61282 73.8932C8.63364 73.8706 8.6603 73.8543 8.68985 73.846C8.71939 73.8377 8.75066 73.8378 8.78017 73.8462C8.80967 73.8546 8.83626 73.8711 8.85696 73.8938C8.87767 73.9164 8.89168 73.9443 8.89745 73.9745C9.04132 74.7658 9.2196 77.1742 7.42428 81.4811Z" fill="#339999"/>
<path id="Vector_168" d="M8.32714 75.4883C8.32212 75.785 8.28754 76.0805 8.22392 76.3703C8.12696 76.9959 8.01124 77.6933 7.883 78.4815C7.75476 79.2697 7.64529 79.986 7.54833 80.5928C7.52304 80.8891 7.46963 81.1823 7.38882 81.4685C7.36353 81.1713 7.37297 80.8722 7.41697 80.5771C7.46701 80.0298 7.56397 79.2791 7.69847 78.4534C7.83296 77.6277 7.97683 76.8895 8.09569 76.3484C8.13955 76.0538 8.21721 75.7652 8.32714 75.4883Z" fill="#263238"/>
<path id="Vector_169" d="M9.1875 92.7735C9.1875 92.7735 10.1039 87.841 13.7884 86.6274C13.8174 86.6173 13.8487 86.6154 13.8788 86.6221C13.9088 86.6287 13.9364 86.6436 13.9585 86.665C13.9805 86.6864 13.9962 86.7135 14.0037 86.7434C14.0113 86.7732 14.0103 86.8045 14.0011 86.8339C13.7634 87.5908 12.7906 89.8052 9.1875 92.7735Z" fill="#339999"/>
<path id="Vector_170" d="M12.7782 87.8931C12.6351 88.1532 12.4664 88.3984 12.2746 88.625C11.9055 89.1192 11.4677 89.6947 10.986 90.3327L9.69111 92.0436C9.52945 92.2925 9.34518 92.526 9.14062 92.7411C9.25692 92.4662 9.40492 92.2059 9.58164 91.9654C9.89441 91.5056 10.3167 90.8863 10.8327 90.2201C11.3488 89.5539 11.8148 88.969 12.1683 88.5436C12.3458 88.304 12.5505 88.0857 12.7782 87.8931Z" fill="#263238"/>
<path id="Vector_171" d="M8.18603 105.143C8.18603 105.143 7.6293 100.157 10.8008 97.9176C10.8258 97.8995 10.8553 97.8888 10.886 97.8867C10.9167 97.8845 10.9474 97.8909 10.9747 97.9052C11.002 97.9194 11.0248 97.941 11.0405 97.9675C11.0561 97.994 11.0641 98.0244 11.0635 98.0552C11.0542 98.8559 10.7695 101.255 8.18603 105.143Z" fill="#339999"/>
<path id="Vector_172" d="M10.2127 99.4282C10.1532 99.7195 10.0631 100.004 9.94374 100.276C9.73106 100.854 9.48397 101.527 9.2056 102.284L8.47684 104.292C8.39932 104.578 8.29458 104.855 8.16406 105.121C8.19717 104.824 8.26326 104.533 8.36111 104.251C8.51437 103.723 8.75207 103 9.04295 102.218C9.33383 101.436 9.61846 100.732 9.83427 100.229C9.92971 99.9486 10.0567 99.6799 10.2127 99.4282Z" fill="#263238"/>
<path id="Vector_173" d="M10.9666 117.591C10.9666 117.591 10.5882 112.587 13.8379 110.466C13.8633 110.449 13.8931 110.439 13.9239 110.437C13.9547 110.436 13.9853 110.443 14.0122 110.458C14.0392 110.473 14.0615 110.495 14.0765 110.522C14.0916 110.549 14.0989 110.579 14.0975 110.61C14.0568 111.408 13.6878 113.794 10.9666 117.591Z" fill="#339999"/>
<path id="Vector_174" d="M13.191 111.96C13.116 112.25 13.0112 112.531 12.8782 112.799C12.6437 113.368 12.3716 114.05 12.0682 114.775L11.2643 116.758C11.1824 117.034 11.0756 117.302 10.9453 117.559C10.9874 117.264 11.064 116.976 11.1736 116.699C11.3425 116.177 11.6084 115.467 11.9274 114.694C12.2464 113.922 12.553 113.227 12.7875 112.733C12.8932 112.461 13.0286 112.202 13.191 111.96Z" fill="#263238"/>
<path id="Vector_175" d="M5.27443 77.2773C5.27443 77.2773 0.829926 74.9565 0.74235 71.075C0.740986 71.0442 0.748242 71.0136 0.763302 70.9867C0.778362 70.9598 0.800629 70.9376 0.8276 70.9226C0.854571 70.9077 0.885177 70.9006 0.915977 70.902C0.946777 70.9035 0.976551 70.9136 1.00195 70.9311C1.6619 71.3877 3.49162 72.961 5.27443 77.2773Z" fill="#339999"/>
<path id="Vector_176" d="M1.66406 72.4072C1.87182 72.6192 2.05732 72.8518 2.21767 73.1016L3.46876 74.8344L4.71985 76.564C4.91045 76.7911 5.08004 77.035 5.22655 77.2928C4.99136 77.1044 4.78114 76.8869 4.601 76.6453C4.24757 76.2262 3.78154 75.6257 3.29361 74.947C2.80568 74.2682 2.38031 73.6396 2.08318 73.1767C1.91458 72.937 1.77396 72.6788 1.66406 72.4072Z" fill="#263238"/>
<path id="Vector_177" d="M10.0502 87.5656C10.0502 87.5656 5.47432 85.5201 5.14904 81.6511C5.14644 81.6207 5.15229 81.5901 5.16593 81.5628C5.17957 81.5356 5.20048 81.5126 5.22635 81.4964C5.25222 81.4802 5.28205 81.4715 5.31256 81.4712C5.34307 81.4709 5.37307 81.479 5.39926 81.4947C6.08736 81.8982 8.01091 83.3588 10.0502 87.5656Z" fill="#339999"/>
<path id="Vector_178" d="M6.14844 82.9165C6.36805 83.1161 6.56713 83.3372 6.74271 83.5765L8.10014 85.231L9.46071 86.8794C9.66376 87.0896 9.84602 87.319 10.0049 87.5643C9.76642 87.3807 9.54925 87.1708 9.35749 86.9388C8.97903 86.5384 8.4786 85.9692 7.95001 85.3217C7.42142 84.6743 6.95852 84.0706 6.63636 83.6296C6.44729 83.4111 6.2836 83.1719 6.14844 82.9165Z" fill="#263238"/>
<path id="Vector_179" d="M7.41306 99.0256C7.41306 99.0256 4.2697 95.1159 5.74599 91.5189C5.75721 91.4905 5.77608 91.4658 5.8005 91.4474C5.82492 91.429 5.85394 91.4177 5.88437 91.4148C5.91479 91.4119 5.94542 91.4175 5.97289 91.4309C6.00035 91.4443 6.02358 91.465 6.03999 91.4908C6.46223 92.182 7.50377 94.3558 7.41306 99.0256Z" fill="#339999"/>
<path id="Vector_180" d="M6.05493 93.1167C6.16014 93.3938 6.23665 93.681 6.28326 93.9737C6.41462 94.5774 6.56788 95.2842 6.73991 96.0662C6.91193 96.8481 7.05268 97.5519 7.19968 98.1524C7.28335 98.4375 7.34093 98.7295 7.37171 99.025C7.23282 98.7598 7.12774 98.4782 7.05893 98.1868C6.90255 97.6582 6.71801 96.9357 6.54286 96.1037C6.36771 95.2717 6.23009 94.5398 6.14251 94.0019C6.08104 93.7109 6.05167 93.4141 6.05493 93.1167Z" fill="#263238"/>
<path id="Vector_181" d="M10.528 112.518C10.528 112.518 5.98339 110.398 5.72692 106.519C5.72494 106.489 5.73125 106.459 5.74514 106.432C5.75903 106.405 5.77999 106.383 5.80575 106.367C5.83151 106.351 5.86109 106.343 5.89129 106.343C5.9215 106.343 5.95118 106.351 5.97713 106.366C6.65898 106.795 8.55751 108.287 10.528 112.518Z" fill="#339999"/>
<path id="Vector_182" d="M6.70312 107.811C6.92029 108.014 7.11626 108.238 7.28801 108.48C7.66959 108.965 8.11999 109.531 8.6173 110.157L9.94971 111.83C10.15 112.049 10.3301 112.286 10.4877 112.537C10.255 112.354 10.045 112.144 9.86213 111.912C9.49306 111.508 9.00201 110.929 8.48593 110.273C7.96986 109.616 7.5007 109.009 7.18792 108.562C6.99992 108.33 6.83739 108.078 6.70312 107.811Z" fill="#263238"/>
<path id="Vector_183" d="M19.5748 92.7964C19.5791 92.8338 19.5791 92.8716 19.5748 92.909C19.5748 92.9966 19.5748 93.0998 19.5748 93.2218C19.5748 93.5345 19.5435 93.9318 19.5216 94.4385C19.4622 95.5082 19.3808 96.997 19.2839 98.7829C18.9711 100.597 18.0328 102.608 16.7817 104.56C15.8715 105.999 14.9051 107.309 14.095 108.526C13.3461 109.588 12.672 110.701 12.0776 111.857C11.689 112.641 11.3748 113.46 11.1393 114.303C11.058 114.6 10.9985 114.835 10.9641 114.994C10.9503 115.076 10.9283 115.157 10.8984 115.235C10.8994 115.152 10.9089 115.069 10.9266 114.988C10.9485 114.825 10.9985 114.587 11.0673 114.284C11.2796 113.422 11.5793 112.583 11.9619 111.782C12.5432 110.612 13.2091 109.486 13.9542 108.413C14.7706 107.187 15.7214 105.877 16.6284 104.447C17.8795 102.502 18.7803 100.522 19.1306 98.736C19.2557 96.9563 19.3589 95.4675 19.4434 94.3978C19.4841 93.8911 19.5185 93.4845 19.5404 93.1842C19.5404 93.0591 19.5654 92.9528 19.5748 92.8714C19.5721 92.8465 19.5721 92.8213 19.5748 92.7964Z" fill="#263238"/>
<path id="Vector_184" d="M16.8862 104.204C16.8862 104.204 18.8098 99.5721 16.3889 96.5382C16.3702 96.5139 16.345 96.4952 16.3163 96.4844C16.2875 96.4735 16.2563 96.4708 16.2261 96.4767C16.196 96.4825 16.168 96.4966 16.1454 96.5174C16.1228 96.5382 16.1064 96.5649 16.0981 96.5945C15.8697 97.3702 15.4725 99.7629 16.8862 104.204Z" fill="#339999"/>
<path id="Vector_185" d="M16.5201 98.1548C16.6031 98.4402 16.6545 98.7339 16.6734 99.0306C16.7422 99.5748 16.8173 100.329 16.8767 101.164C16.9361 101.999 16.9643 102.756 16.9643 103.303C16.9835 103.6 16.9657 103.899 16.9111 104.191C16.8567 103.901 16.8306 103.605 16.8329 103.309C16.7922 102.684 16.7422 101.974 16.689 101.176C16.6359 100.379 16.5827 99.6561 16.542 99.0431C16.5056 98.7484 16.4982 98.4509 16.5201 98.1548Z" fill="#263238"/>
<g id="Group_5" opacity="0.3">
<path id="Vector_186" d="M16.8862 104.203C16.8862 104.203 18.8098 99.5712 16.3889 96.5372C16.3702 96.5129 16.345 96.4942 16.3163 96.4834C16.2875 96.4725 16.2563 96.4698 16.2261 96.4757C16.196 96.4815 16.168 96.4956 16.1454 96.5165C16.1228 96.5373 16.1064 96.564 16.0981 96.5935C15.8697 97.3692 15.4725 99.762 16.8862 104.203Z" fill="black"/>
</g>
<path id="Vector_187" d="M10.9118 115.364C10.9118 115.364 12.4538 110.594 9.79524 107.767C9.77464 107.744 9.74821 107.728 9.71888 107.719C9.68955 107.711 9.65845 107.711 9.62901 107.719C9.59958 107.727 9.57294 107.743 9.55205 107.765C9.53116 107.787 9.51682 107.815 9.51062 107.845C9.35736 108.633 9.15718 111.038 10.9118 115.364Z" fill="#339999"/>
<path id="Vector_188" d="M10.0703 109.362C10.1766 109.64 10.2511 109.93 10.2924 110.225C10.405 110.76 10.5426 111.504 10.6708 112.333C10.7991 113.162 10.8867 113.913 10.9304 114.46C10.9729 114.755 10.9792 115.055 10.9492 115.351C10.873 115.065 10.8228 114.772 10.7991 114.476C10.7084 113.85 10.602 113.153 10.4863 112.361C10.3706 111.57 10.258 110.857 10.1735 110.247C10.1101 109.956 10.0755 109.66 10.0703 109.362Z" fill="#263238"/>
<g id="Group_6" opacity="0.3">
<path id="Vector_189" d="M10.9118 115.364C10.9118 115.364 12.4538 110.594 9.79524 107.767C9.77464 107.744 9.74821 107.728 9.71888 107.719C9.68955 107.711 9.65845 107.711 9.62901 107.719C9.59958 107.727 9.57294 107.743 9.55205 107.765C9.53116 107.787 9.51682 107.815 9.51062 107.845C9.35736 108.633 9.15718 111.038 10.9118 115.364Z" fill="black"/>
</g>
<path id="Vector_190" d="M19.3203 98.5467C19.3203 98.5467 23.4301 95.6692 23.0142 91.8095C23.0115 91.7789 23.0004 91.7497 22.982 91.725C22.9637 91.7004 22.9388 91.6813 22.9103 91.6699C22.8817 91.6586 22.8506 91.6554 22.8203 91.6607C22.7901 91.666 22.7619 91.6796 22.7389 91.7001C22.1447 92.2568 20.5307 94.0365 19.3203 98.5467Z" fill="#339999"/>
<g id="Group_7" opacity="0.3">
<path id="Vector_191" d="M19.3203 98.5467C19.3203 98.5467 23.4301 95.6692 23.0142 91.8095C23.0115 91.7789 23.0004 91.7497 22.982 91.725C22.9637 91.7004 22.9388 91.6813 22.9103 91.6699C22.8817 91.6586 22.8506 91.6554 22.8203 91.6607C22.7901 91.666 22.7619 91.6796 22.7389 91.7001C22.1447 92.2568 20.5307 94.0365 19.3203 98.5467Z" fill="black"/>
</g>
<path id="Vector_192" d="M22.2713 93.2529C22.1883 93.5378 22.0739 93.8127 21.9304 94.0724C21.6958 94.5697 21.3549 95.2453 20.9576 95.9835C20.5604 96.7216 20.1788 97.3753 19.8817 97.8382C19.7396 98.0997 19.5641 98.3416 19.3594 98.5576C19.4722 98.2832 19.6093 98.0194 19.7691 97.7694L20.7919 95.8928L21.8115 94.0161C21.9381 93.7466 22.0922 93.4908 22.2713 93.2529Z" fill="#263238"/>
<path id="Vector_193" d="M12.5703 110.636C12.5703 110.636 17.5153 109.863 18.8539 106.216C18.865 106.187 18.8678 106.156 18.8621 106.126C18.8564 106.095 18.8423 106.067 18.8216 106.045C18.8008 106.022 18.774 106.005 18.7444 105.997C18.7148 105.989 18.6834 105.989 18.6537 105.997C17.8812 106.216 15.6386 107.12 12.5703 110.636Z" fill="#339999"/>
<g id="Group_8" opacity="0.3">
<path id="Vector_194" d="M12.5625 110.636C12.5625 110.636 17.5074 109.863 18.8461 106.217C18.8572 106.188 18.86 106.156 18.8543 106.126C18.8486 106.096 18.8345 106.068 18.8137 106.045C18.793 106.022 18.7662 106.006 18.7366 105.997C18.707 105.989 18.6756 105.989 18.6459 105.998C17.8734 106.217 15.6308 107.12 12.5625 110.636Z" fill="black"/>
</g>
<path id="Vector_195" d="M17.5543 107.182C17.3545 107.4 17.1323 107.596 16.8912 107.767C16.4627 108.111 15.8591 108.568 15.1772 109.053C14.4954 109.537 13.8636 109.96 13.3976 110.247C13.1526 110.417 12.8879 110.557 12.6094 110.663C12.8306 110.466 13.0693 110.289 13.3225 110.135L15.0709 108.902L16.813 107.651C17.0432 107.47 17.2916 107.312 17.5543 107.182Z" fill="#263238"/>
<path id="Vector_196" d="M7.84345 119.756L6.39844 129.483H15.4063L14.2365 119.756H7.84345Z" fill="#455A64"/>
<path id="Vector_197" d="M14.5938 122.769C14.5938 122.822 12.9674 122.863 10.9594 122.863C8.95142 122.863 7.32812 122.822 7.32812 122.769C8.53619 122.676 9.74818 122.645 10.9594 122.675C12.1717 122.645 13.3847 122.676 14.5938 122.769Z" fill="#263238"/>
<path id="Vector_198" d="M14.78 123.533C14.78 123.583 13.1004 123.627 11.0267 123.627C8.95303 123.627 7.27344 123.583 7.27344 123.533C7.27344 123.483 8.95303 123.439 11.0267 123.439C13.1004 123.439 14.78 123.489 14.78 123.533Z" fill="#263238"/>
</g>
</g>
</svg>
