<svg width="16" height="16" viewBox="0 0 16 16" fill="none" xmlns="http://www.w3.org/2000/svg">
<path fill-rule="evenodd" clip-rule="evenodd" d="M2.66699 5.33301C2.66699 4.53736 2.98306 3.7743 3.54567 3.21169C4.10828 2.64908 4.87134 2.33301 5.66699 2.33301H12.3337C12.5989 2.33301 12.8532 2.43836 13.0408 2.6259C13.2283 2.81344 13.3337 3.06779 13.3337 3.33301V13.333C13.3337 13.5098 13.2634 13.6794 13.1384 13.8044C13.0134 13.9294 12.8438 13.9997 12.667 13.9997H5.00033C4.43914 13.9998 3.89669 13.7977 3.47243 13.4304C3.04816 13.063 2.7705 12.5551 2.69033 11.9997H2.66699V5.33301ZM12.3337 10.333H5.00033C4.6467 10.333 4.30756 10.4735 4.05752 10.7235C3.80747 10.9736 3.66699 11.3127 3.66699 11.6663C3.66699 12.02 3.80747 12.3591 4.05752 12.6091C4.30756 12.8592 4.6467 12.9997 5.00033 12.9997H12.3337V10.333ZM5.50033 5.33301C5.50033 5.2004 5.553 5.07322 5.64677 4.97945C5.74054 4.88569 5.86772 4.83301 6.00033 4.83301H10.667C10.7996 4.83301 10.9268 4.88569 11.0205 4.97945C11.1143 5.07322 11.167 5.2004 11.167 5.33301C11.167 5.46562 11.1143 5.59279 11.0205 5.68656C10.9268 5.78033 10.7996 5.83301 10.667 5.83301H6.00033C5.86772 5.83301 5.74054 5.78033 5.64677 5.68656C5.553 5.59279 5.50033 5.46562 5.50033 5.33301ZM6.00033 6.83301C5.86772 6.83301 5.74054 6.88569 5.64677 6.97945C5.553 7.07322 5.50033 7.2004 5.50033 7.33301C5.50033 7.46562 5.553 7.59279 5.64677 7.68656C5.74054 7.78033 5.86772 7.83301 6.00033 7.83301H9.33366C9.46627 7.83301 9.59344 7.78033 9.68721 7.68656C9.78098 7.59279 9.83366 7.46562 9.83366 7.33301C9.83366 7.2004 9.78098 7.07322 9.68721 6.97945C9.59344 6.88569 9.46627 6.83301 9.33366 6.83301H6.00033Z" fill="#414A4B"/>
</svg>
