<svg width="54" height="48" viewBox="0 0 54 48" fill="none" xmlns="http://www.w3.org/2000/svg">
<g id="grades/bro">
<g id="Plants">
<path id="Vector" d="M23.1452 2.58629C23.1452 2.58629 23.7952 2.09894 23.9627 1.7866C24.1046 1.51734 24.2068 1.14308 24.0606 0.860358C24.0291 0.792175 23.9827 0.731078 23.9245 0.681063C23.8664 0.631047 23.7978 0.59324 23.7231 0.570112C23.6485 0.546984 23.5696 0.539058 23.4915 0.546851C23.4134 0.554643 23.338 0.57798 23.2701 0.615335C22.8684 0.85228 22.8258 1.65736 22.928 2.04508C22.9365 2.08278 23.1381 2.59167 23.1452 2.58629Z" fill="#339999"/>
<path id="Vector_2" d="M17.1313 6.64467C17.1583 6.6689 17.6224 6.98797 17.6238 6.97989C17.6252 6.97182 17.8835 6.23271 17.841 5.88537C17.8041 5.58919 17.6706 5.2203 17.3839 5.06144C17.3179 5.02145 17.2437 4.99514 17.1662 4.98423C17.0887 4.97332 17.0096 4.97806 16.9342 4.99815C16.8588 5.01823 16.7887 5.05319 16.7285 5.10076C16.6683 5.14832 16.6193 5.20741 16.5849 5.27416C16.3876 5.68073 16.8205 6.37541 17.1313 6.64467Z" fill="#339999"/>
<path id="Vector_3" d="M30.7595 3.32422C30.7595 3.32422 28.3779 5.65598 28.3907 8.51952C28.4035 11.3831 30.8035 13.696 30.8035 13.696C30.8035 13.696 33.1851 11.3642 33.1724 8.50067C33.1596 5.63713 30.7595 3.32422 30.7595 3.32422Z" fill="#339999"/>
<path id="Vector_4" d="M27.3643 10.2357C27.395 10.2029 27.4235 10.1683 27.4494 10.132C27.6226 9.88293 27.7702 9.52078 27.6595 9.22325C27.636 9.15232 27.597 9.08687 27.545 9.03119C27.4931 8.97551 27.4293 8.93084 27.358 8.9001C27.2866 8.86936 27.2092 8.85323 27.1308 8.85278C27.0524 8.85232 26.9748 8.86755 26.903 8.89746C26.5794 9.04285 26.4219 9.53425 26.3878 9.93678C26.2586 9.90851 26.1422 9.88697 26.0415 9.87082C25.9989 9.78061 25.9563 9.68772 25.9123 9.60156C25.8683 9.5154 25.8328 9.41039 25.7917 9.31345C25.7349 9.17075 25.6838 9.01997 25.6313 8.87053C25.8201 8.78975 26.3693 8.54742 26.5737 8.33202C26.7781 8.11661 26.9882 7.77331 26.9257 7.46367C26.9138 7.39019 26.8857 7.31992 26.8433 7.25743C26.8008 7.19494 26.745 7.14163 26.6794 7.10098C26.6138 7.06034 26.5399 7.03326 26.4625 7.02152C26.3851 7.00979 26.306 7.01365 26.2302 7.03286C25.7775 7.16748 25.5121 7.92679 25.5021 8.32663C25.5021 8.34009 25.5021 8.42491 25.5192 8.52454C25.4737 8.37644 25.4269 8.2297 25.3872 8.07892C25.2708 7.64945 25.1658 7.20922 25.0593 6.76899C25.038 6.67609 25.0139 6.58589 24.9912 6.49973C25.1501 6.43376 25.7463 6.17528 25.9606 5.95045C26.1749 5.72562 26.3764 5.39174 26.314 5.0821C26.3019 5.00857 26.2737 4.93827 26.2311 4.87578C26.1885 4.81328 26.1325 4.75999 26.0668 4.71936C26.001 4.67873 25.927 4.65167 25.8496 4.63994C25.7721 4.62821 25.6929 4.63208 25.6171 4.65129C25.1658 4.78591 24.9003 5.54522 24.8904 5.94506C24.8904 5.95852 24.8989 6.0595 24.9103 6.17258C24.8478 5.93429 24.784 5.69735 24.713 5.46309C24.5925 5.06183 24.4436 4.66872 24.2673 4.28644C24.3241 4.26356 25.0295 3.97411 25.2679 3.7237C25.4794 3.50291 25.6824 3.16499 25.6199 2.85535C25.608 2.78187 25.58 2.7116 25.5375 2.64911C25.4951 2.58662 25.4392 2.53331 25.3736 2.49267C25.308 2.45202 25.2341 2.42495 25.1567 2.41321C25.0793 2.40147 25.0002 2.40533 24.9245 2.42454C24.4731 2.55917 24.2063 3.31847 24.1978 3.71831C24.1978 3.74659 24.2318 4.11143 24.2489 4.24202V4.22855C24.0669 3.85665 23.8498 3.50113 23.6002 3.16634C23.3816 2.8658 23.1447 2.57766 22.8906 2.30337C22.6564 2.04758 22.425 1.82544 22.2192 1.63023C22.1057 1.52657 22.0007 1.43233 21.9027 1.34617H21.9127C21.9212 1.34617 21.6912 0.846698 21.6728 0.81708C21.4627 0.471086 20.8397 -0.0781962 20.3784 0.009312C20.3023 0.0272845 20.2311 0.0602161 20.1694 0.105971C20.1076 0.151726 20.0567 0.209283 20.0199 0.274909C19.9831 0.340536 19.9612 0.412766 19.9557 0.486917C19.9503 0.561068 19.9613 0.635484 19.9881 0.705339C20.0917 1.00556 20.4408 1.2075 20.7389 1.30443C21.0369 1.40137 21.7083 1.35694 21.8743 1.34213C21.9751 1.43368 22.0816 1.5333 22.1965 1.6437C22.3981 1.8416 22.6223 2.06777 22.8523 2.32761C22.9119 2.39627 22.9743 2.47435 23.0368 2.54705C22.9048 2.44339 22.7231 2.30472 22.7032 2.2926C22.3484 2.07854 21.528 1.86314 21.1661 2.14855C21.107 2.19739 21.0594 2.25753 21.0265 2.32503C20.9936 2.39253 20.9761 2.46586 20.9751 2.54023C20.9742 2.61459 20.9899 2.6883 21.021 2.75653C21.0522 2.82476 21.0983 2.88596 21.1562 2.93613C21.3932 3.15826 21.8034 3.18384 22.1142 3.14076C22.425 3.09768 23.0183 2.75169 23.1446 2.67495C23.2795 2.83919 23.4143 3.01152 23.5435 3.19865C23.7808 3.53489 23.9865 3.89034 24.158 4.26087C24.168 4.28241 24.1751 4.30529 24.185 4.32683C24.1296 4.2649 23.7975 3.94853 23.772 3.92295C23.4441 3.67254 22.655 3.37232 22.2604 3.61869C22.1961 3.66123 22.142 3.71615 22.1016 3.77986C22.0612 3.84356 22.0354 3.91464 22.0259 3.98844C22.0164 4.06224 22.0234 4.13712 22.0464 4.20818C22.0695 4.27925 22.108 4.34491 22.1596 4.40088C22.3711 4.6459 22.7742 4.71456 23.0879 4.70379C23.4512 4.69168 24.1637 4.34972 24.1907 4.3376C24.3515 4.71111 24.4862 5.09429 24.5938 5.48463C24.6747 5.77274 24.7456 6.06892 24.8123 6.3651C24.7385 6.28702 24.4305 5.99218 24.405 5.97333C24.0771 5.72293 23.288 5.42271 22.8934 5.66907C22.8291 5.71162 22.775 5.76653 22.7346 5.83024C22.6942 5.89395 22.6684 5.96502 22.6589 6.03882C22.6494 6.11263 22.6564 6.1875 22.6794 6.25857C22.7025 6.32963 22.741 6.39529 22.7926 6.45126C23.0041 6.69629 23.4072 6.76495 23.7209 6.75418C24.0757 6.74206 24.7598 6.41761 24.818 6.39068C24.8492 6.52531 24.879 6.65994 24.9089 6.79456C25.0054 7.23614 25.1005 7.68042 25.2069 8.11527C25.2438 8.26605 25.2864 8.41279 25.329 8.56088C25.2126 8.44645 24.9983 8.24182 24.9784 8.22566C24.6505 7.9766 23.86 7.67638 23.4668 7.9214C23.4025 7.96394 23.3484 8.01886 23.308 8.08257C23.2676 8.14628 23.2418 8.21735 23.2323 8.29115C23.2228 8.36495 23.2298 8.43983 23.2528 8.51089C23.2759 8.58196 23.3145 8.64762 23.3661 8.70359C23.5761 8.94861 23.9806 9.01862 24.2943 9.0065C24.608 8.99439 25.1927 8.73725 25.3559 8.65916C25.4269 8.90419 25.4979 9.14652 25.5915 9.38077C25.6313 9.48174 25.6654 9.58675 25.7094 9.68099L25.7761 9.83043L25.6852 9.82235C25.6852 9.82235 25.6852 9.95698 25.6923 10.1899C25.346 9.95563 24.8407 9.75369 24.5214 9.89639C24.4512 9.92924 24.389 9.97574 24.339 10.0329C24.289 10.09 24.2522 10.1565 24.2311 10.2279C24.2099 10.2994 24.2049 10.3743 24.2163 10.4478C24.2276 10.5213 24.2552 10.5917 24.2971 10.6544C24.3183 10.6881 24.3425 10.7201 24.3695 10.7499C24.4324 11.095 24.5867 11.4193 24.818 11.6923C24.8351 11.7125 25.0707 11.9185 25.1941 12.0208C25.0749 11.9602 24.9571 11.8997 24.835 11.835C24.6576 11.7408 24.4745 11.6371 24.2957 11.5375L24.0204 11.3719C23.9267 11.3167 23.8429 11.2548 23.7521 11.1956C23.6215 11.1054 23.491 11.0071 23.3618 10.9088C23.4725 10.7446 23.7876 10.2545 23.8344 9.9664C23.8813 9.6783 23.8543 9.28249 23.6229 9.05632C23.5705 9.00099 23.5064 8.95674 23.4347 8.92645C23.3631 8.89616 23.2855 8.88051 23.2071 8.88051C23.1286 8.88051 23.0511 8.89616 22.9794 8.92645C22.9078 8.95674 22.8437 9.00099 22.7912 9.05632C22.4889 9.39962 22.7132 10.1778 22.9332 10.5157C22.9332 10.5265 22.9956 10.5938 23.0623 10.6719C22.9388 10.5722 22.8139 10.4739 22.6919 10.3689C22.3456 10.0728 22.0021 9.75907 21.6572 9.44808L21.44 9.25422C21.5337 9.11959 21.8814 8.58108 21.9297 8.28894C21.978 7.99679 21.951 7.60502 21.7182 7.37885C21.6658 7.32374 21.6017 7.27968 21.5302 7.24953C21.4587 7.21937 21.3813 7.20379 21.3031 7.20379C21.2248 7.20379 21.1474 7.21937 21.0759 7.24953C21.0044 7.27968 20.9403 7.32374 20.8879 7.37885C20.5856 7.72215 20.8084 8.5003 21.0298 8.83822C21.0384 8.85034 21.1051 8.92976 21.1789 9.01862C20.9901 8.85168 20.7971 8.68743 20.6026 8.52992C20.2685 8.25846 19.9158 8.00839 19.5467 7.78139C19.5807 7.73292 20.0008 7.12171 20.0534 6.78918C20.1016 6.493 20.0746 6.10527 19.8433 5.87909C19.7902 5.82486 19.7258 5.78161 19.6543 5.75203C19.5827 5.72245 19.5055 5.70718 19.4274 5.70718C19.3494 5.70718 19.2722 5.72245 19.2006 5.75203C19.1291 5.78161 19.0647 5.82486 19.0116 5.87909C18.7093 6.2224 18.9335 7.00055 19.1535 7.33846C19.1691 7.3627 19.4104 7.64811 19.5012 7.74235L19.4885 7.73427C19.1202 7.52004 18.7326 7.33713 18.3303 7.18768C17.9715 7.0526 17.6047 6.93753 17.2317 6.84303C16.8868 6.75148 16.5647 6.68821 16.2794 6.63436C16.1261 6.60609 15.9842 6.5832 15.8536 6.563H15.8621C15.8621 6.563 15.388 6.26144 15.3554 6.24663C14.9779 6.06892 14.139 5.93564 13.8098 6.25605C13.7567 6.31076 13.7164 6.37543 13.6913 6.44588C13.6663 6.51633 13.6572 6.59097 13.6646 6.66498C13.6719 6.73898 13.6956 6.81069 13.7341 6.87546C13.7725 6.94023 13.8249 6.9966 13.8878 7.04093C14.149 7.23749 14.5577 7.22268 14.8629 7.14864C15.168 7.07459 15.7017 6.68282 15.8323 6.58589C15.9742 6.60878 16.1162 6.6357 16.2765 6.66801C16.5604 6.72725 16.8783 6.80264 17.2204 6.89554C17.3112 6.92111 17.4077 6.95343 17.5042 6.9817C17.3339 6.9642 17.1012 6.944 17.0785 6.944C16.6527 6.944 15.8479 7.19979 15.7116 7.62791C15.6909 7.69961 15.6864 7.77465 15.6983 7.84813C15.7101 7.92161 15.7382 7.99189 15.7807 8.05439C15.8231 8.11688 15.879 8.17019 15.9446 8.21083C16.0103 8.25148 16.0842 8.27855 16.1616 8.29028C16.488 8.35086 16.8457 8.15565 17.0799 7.9591C17.3141 7.76254 17.6079 7.1621 17.6689 7.03151C17.8761 7.09882 18.0947 7.16614 18.3047 7.26038C18.6999 7.41592 19.0799 7.60423 19.4402 7.82312C19.4601 7.83658 19.4799 7.85274 19.5012 7.86486C19.4189 7.84332 18.9576 7.75177 18.925 7.74908C18.4992 7.71138 17.6717 7.87428 17.4872 8.28759C17.4585 8.35672 17.4454 8.4308 17.4488 8.50503C17.4522 8.57926 17.472 8.65199 17.507 8.7185C17.5419 8.78501 17.5911 8.84381 17.6516 8.89111C17.712 8.9384 17.7822 8.97313 17.8577 8.99304C18.1756 9.08728 18.5531 8.93246 18.8086 8.76013C19.1038 8.55954 19.4998 7.90121 19.5183 7.87697C19.8689 8.10483 20.2036 8.35396 20.5203 8.62281C20.7573 8.82072 20.9873 9.0267 21.2158 9.24345C21.1079 9.21652 20.6793 9.13171 20.648 9.12901C20.2223 9.09267 19.3962 9.25557 19.2103 9.66753C19.1816 9.73666 19.1685 9.81074 19.1719 9.88497C19.1753 9.9592 19.1951 10.0319 19.23 10.0984C19.2649 10.1649 19.3142 10.2238 19.3746 10.271C19.435 10.3183 19.5053 10.3531 19.5807 10.373C19.8986 10.4672 20.2762 10.3137 20.5317 10.1401C20.8155 9.94486 21.203 9.3148 21.2413 9.2623L21.5536 9.55175C21.8914 9.87082 22.2278 10.1912 22.5698 10.4941C22.689 10.6005 22.8097 10.7015 22.9303 10.8024C22.7685 10.7674 22.4705 10.7082 22.4435 10.7069C22.0248 10.6692 21.1916 10.8321 21.0057 11.2454C20.977 11.3146 20.964 11.3888 20.9675 11.4631C20.971 11.5374 20.9909 11.6101 21.026 11.6767C21.061 11.7432 21.1105 11.802 21.171 11.8492C21.2316 11.8964 21.302 11.9311 21.3776 11.9508C21.6955 12.0437 22.0716 11.8902 22.3271 11.7179C22.5826 11.5456 22.919 11.0205 23.0112 10.8724C23.2128 11.0394 23.4171 11.2009 23.6272 11.3504C23.7195 11.4137 23.8089 11.485 23.8997 11.5389L24.1708 11.7098C24.3596 11.8216 24.5356 11.9252 24.7144 12.0249L24.9784 12.1689C24.8194 12.1097 24.5654 12.0208 24.5413 12.0154C24.1325 11.9185 23.2837 11.9589 23.0339 12.3399C22.9946 12.4041 22.97 12.4754 22.9616 12.5492C22.9532 12.6231 22.9613 12.6977 22.9852 12.7684C23.0092 12.8391 23.0485 12.9042 23.1006 12.9596C23.1528 13.0149 23.2166 13.0593 23.288 13.0898C23.5875 13.2244 23.9849 13.1302 24.2645 12.9955C24.5739 12.8474 25.0394 12.3009 25.0962 12.2335C25.3134 12.3507 25.522 12.4624 25.725 12.5634C26.2601 12.8326 26.7185 13.0521 27.0875 13.2123C28.2641 14.1776 29.9262 14.2893 29.9262 14.2893C29.9262 14.2893 30.0142 12.4045 28.8461 11.1713C28.431 10.7595 27.925 10.4399 27.3643 10.2357ZM25.2637 12.0693C25.3006 11.9912 25.5816 11.3962 25.6015 11.0569C25.6668 11.0461 25.7335 11.0327 25.7974 11.0192C25.9165 11.6133 26.165 12.1773 26.5269 12.6751C26.3126 12.5782 26.0812 12.4718 25.8357 12.3534C25.6526 12.2645 25.461 12.1689 25.2637 12.0693Z" fill="#339999"/>
<path id="Vector_5" d="M36.0425 9.875C36.0425 9.875 34.0554 9.93289 32.8447 11.1297C31.6341 12.3266 31.6426 14.2127 31.6426 14.2127C31.6426 14.2127 33.6296 14.1548 34.8403 12.958C36.051 11.7611 36.0425 9.875 36.0425 9.875Z" fill="#339999"/>
<g id="Group" opacity="0.5">
<path id="Vector_6" d="M23.1422 2.58629C23.1422 2.58629 23.7923 2.09894 23.9598 1.7866C24.1017 1.51734 24.2039 1.14308 24.0577 0.860358C24.0261 0.792175 23.9798 0.731078 23.9216 0.681063C23.8635 0.631047 23.7948 0.59324 23.7202 0.570112C23.6456 0.546984 23.5667 0.539058 23.4886 0.546851C23.4105 0.554643 23.3351 0.57798 23.2671 0.615335C22.8655 0.85228 22.8229 1.65736 22.9251 2.04508C22.9336 2.08278 23.1351 2.59167 23.1422 2.58629Z" fill="white"/>
<path id="Vector_7" d="M17.1303 6.64467C17.1573 6.6689 17.6214 6.98797 17.6228 6.97989C17.6243 6.97182 17.8826 6.23271 17.84 5.88537C17.8031 5.58919 17.6697 5.2203 17.383 5.06144C17.3169 5.02145 17.2427 4.99514 17.1652 4.98423C17.0877 4.97332 17.0087 4.97806 16.9332 4.99815C16.8578 5.01823 16.7877 5.05319 16.7275 5.10076C16.6673 5.14832 16.6183 5.20741 16.5839 5.27416C16.3866 5.68073 16.8195 6.37541 17.1303 6.64467Z" fill="white"/>
<path id="Vector_8" d="M30.7605 3.32422C30.7605 3.32422 28.3789 5.65598 28.3917 8.51952C28.4044 11.3831 30.8045 13.696 30.8045 13.696C30.8045 13.696 33.1861 11.3642 33.1734 8.50067C33.1606 5.63713 30.7605 3.32422 30.7605 3.32422Z" fill="white"/>
<path id="Vector_9" d="M27.3653 10.2357C27.396 10.2029 27.4245 10.1683 27.4504 10.132C27.6236 9.88293 27.7712 9.52078 27.6605 9.22325C27.637 9.15232 27.598 9.08687 27.546 9.03119C27.4941 8.97551 27.4303 8.93084 27.3589 8.9001C27.2876 8.86936 27.2101 8.85323 27.1318 8.85278C27.0534 8.85232 26.9758 8.86755 26.904 8.89746C26.5804 9.04285 26.4228 9.53425 26.3888 9.93678C26.2596 9.90851 26.1432 9.88697 26.0425 9.87082C25.9999 9.78061 25.9573 9.68772 25.9133 9.60156C25.8693 9.5154 25.8338 9.41039 25.7927 9.31345C25.7359 9.17075 25.6848 9.01997 25.6323 8.87053C25.821 8.78975 26.3703 8.54742 26.5747 8.33202C26.7791 8.11661 26.9891 7.77331 26.9267 7.46367C26.9148 7.39019 26.8867 7.31992 26.8443 7.25743C26.8018 7.19494 26.746 7.14163 26.6804 7.10098C26.6147 7.06034 26.5408 7.03326 26.4634 7.02152C26.3861 7.00979 26.3069 7.01365 26.2312 7.03286C25.7785 7.16748 25.513 7.92679 25.5031 8.32663C25.5031 8.34009 25.5031 8.42491 25.5201 8.52454C25.4747 8.37644 25.4279 8.2297 25.3881 8.07892C25.2718 7.64945 25.1667 7.20922 25.0603 6.76899C25.039 6.67609 25.0149 6.58589 24.9922 6.49973C25.1511 6.43376 25.7472 6.17528 25.9616 5.95045C26.1759 5.72562 26.3774 5.39174 26.315 5.0821C26.3029 5.00857 26.2746 4.93827 26.232 4.87578C26.1895 4.81328 26.1335 4.75999 26.0677 4.71936C26.002 4.67873 25.928 4.65167 25.8505 4.63994C25.7731 4.62821 25.6939 4.63208 25.6181 4.65129C25.1667 4.78591 24.9013 5.54522 24.8914 5.94506C24.8914 5.95852 24.8999 6.0595 24.9113 6.17258C24.8488 5.93429 24.7849 5.69735 24.714 5.46309C24.5934 5.06183 24.4445 4.66872 24.2683 4.28644C24.3251 4.26356 25.0305 3.97411 25.2689 3.7237C25.4804 3.50291 25.6834 3.16499 25.6209 2.85535C25.609 2.78187 25.5809 2.7116 25.5385 2.64911C25.496 2.58662 25.4402 2.53331 25.3746 2.49267C25.309 2.45202 25.2351 2.42495 25.1577 2.41321C25.0803 2.40147 25.0012 2.40533 24.9254 2.42454C24.4741 2.55917 24.2073 3.31847 24.1988 3.71831C24.1988 3.74659 24.2328 4.11143 24.2498 4.24202V4.22855C24.0679 3.85665 23.8508 3.50113 23.6012 3.16634C23.3826 2.8658 23.1456 2.57766 22.8916 2.30337C22.6574 2.04758 22.426 1.82544 22.2202 1.63023C22.1067 1.52657 22.0016 1.43233 21.9037 1.34617H21.9136C21.9222 1.34617 21.6922 0.846698 21.6738 0.81708C21.4637 0.471086 20.8406 -0.0781962 20.3794 0.009312C20.3033 0.0272845 20.2321 0.0602161 20.1703 0.105971C20.1086 0.151726 20.0576 0.209283 20.0208 0.274909C19.984 0.340536 19.9622 0.412766 19.9567 0.486917C19.9512 0.561068 19.9623 0.635484 19.989 0.705339C20.0927 1.00556 20.4418 1.2075 20.7399 1.30443C21.0379 1.40137 21.7093 1.35694 21.8753 1.34213C21.9761 1.43368 22.0825 1.5333 22.1975 1.6437C22.399 1.8416 22.6233 2.06777 22.8532 2.32761C22.9128 2.39627 22.9753 2.47435 23.0377 2.54705C22.9057 2.44339 22.7241 2.30472 22.7042 2.2926C22.3494 2.07854 21.529 1.86314 21.1671 2.14855C21.108 2.19739 21.0604 2.25753 21.0275 2.32503C20.9946 2.39253 20.9771 2.46586 20.9761 2.54023C20.9752 2.61459 20.9908 2.6883 21.022 2.75653C21.0532 2.82476 21.0993 2.88596 21.1571 2.93613C21.3942 3.15826 21.8044 3.18384 22.1152 3.14076C22.426 3.09768 23.0193 2.75169 23.1456 2.67495C23.2805 2.83919 23.4153 3.01152 23.5444 3.19865C23.7818 3.53489 23.9875 3.89034 24.159 4.26087C24.1689 4.28241 24.176 4.30529 24.186 4.32683C24.1306 4.2649 23.7985 3.94853 23.773 3.92295C23.4451 3.67254 22.6559 3.37232 22.2614 3.61869C22.1971 3.66123 22.143 3.71615 22.1026 3.77986C22.0622 3.84356 22.0364 3.91464 22.0268 3.98844C22.0173 4.06224 22.0243 4.13712 22.0474 4.20818C22.0704 4.27925 22.109 4.34491 22.1606 4.40088C22.3721 4.6459 22.7752 4.71456 23.0888 4.70379C23.4522 4.69168 24.1647 4.34972 24.1917 4.3376C24.3525 4.71111 24.4871 5.09429 24.5947 5.48463C24.6756 5.77274 24.7466 6.06892 24.8133 6.3651C24.7395 6.28702 24.4315 5.99218 24.406 5.97333C24.0781 5.72293 23.289 5.42271 22.8944 5.66907C22.8301 5.71162 22.776 5.76653 22.7356 5.83024C22.6952 5.89395 22.6694 5.96502 22.6599 6.03882C22.6504 6.11263 22.6574 6.1875 22.6804 6.25857C22.7034 6.32963 22.742 6.39529 22.7936 6.45126C23.0051 6.69629 23.4082 6.76495 23.7219 6.75418C24.0767 6.74206 24.7608 6.41761 24.819 6.39068C24.8502 6.52531 24.88 6.65994 24.9098 6.79456C25.0063 7.23614 25.1014 7.68042 25.2079 8.11527C25.2448 8.26605 25.2874 8.41279 25.33 8.56088C25.2136 8.44645 24.9993 8.24182 24.9794 8.22566C24.6515 7.9766 23.861 7.67638 23.4678 7.9214C23.4035 7.96394 23.3494 8.01886 23.309 8.08257C23.2686 8.14628 23.2428 8.21735 23.2333 8.29115C23.2238 8.36495 23.2308 8.43983 23.2538 8.51089C23.2769 8.58196 23.3154 8.64762 23.367 8.70359C23.5771 8.94861 23.9816 9.01862 24.2953 9.0065C24.6089 8.99439 25.1937 8.73725 25.3569 8.65916C25.4279 8.90419 25.4989 9.14652 25.5925 9.38077C25.6323 9.48174 25.6663 9.58675 25.7103 9.68099L25.777 9.83043L25.6862 9.82235C25.6862 9.82235 25.6862 9.95698 25.6933 10.1899C25.347 9.95563 24.8417 9.75369 24.5224 9.89639C24.4522 9.92924 24.39 9.97574 24.34 10.0329C24.29 10.09 24.2532 10.1565 24.2321 10.2279C24.2109 10.2994 24.2058 10.3743 24.2172 10.4478C24.2286 10.5213 24.2562 10.5917 24.2981 10.6544C24.3193 10.6881 24.3435 10.7201 24.3705 10.7499C24.4334 11.095 24.5877 11.4193 24.819 11.6923C24.836 11.7125 25.0716 11.9185 25.1951 12.0208C25.0759 11.9602 24.9581 11.8997 24.836 11.835C24.6586 11.7408 24.4755 11.6371 24.2967 11.5375L24.0213 11.3719C23.9277 11.3167 23.8439 11.2548 23.7531 11.1956C23.6225 11.1054 23.4919 11.0071 23.3628 10.9088C23.4735 10.7446 23.7886 10.2545 23.8354 9.9664C23.8822 9.6783 23.8553 9.28249 23.6239 9.05632C23.5715 9.00099 23.5074 8.95674 23.4357 8.92645C23.3641 8.89616 23.2865 8.88051 23.2081 8.88051C23.1296 8.88051 23.0521 8.89616 22.9804 8.92645C22.9088 8.95674 22.8446 9.00099 22.7922 9.05632C22.4899 9.39962 22.7141 10.1778 22.9341 10.5157C22.9341 10.5265 22.9966 10.5938 23.0633 10.6719C22.9398 10.5722 22.8149 10.4739 22.6929 10.3689C22.3465 10.0728 22.0031 9.75907 21.6582 9.44808L21.441 9.25422C21.5347 9.11959 21.8824 8.58108 21.9307 8.28894C21.9789 7.99679 21.952 7.60502 21.7192 7.37885C21.6668 7.32374 21.6027 7.27968 21.5312 7.24953C21.4597 7.21937 21.3823 7.20379 21.304 7.20379C21.2258 7.20379 21.1484 7.21937 21.0769 7.24953C21.0054 7.27968 20.9413 7.32374 20.8889 7.37885C20.5866 7.72215 20.8094 8.5003 21.0308 8.83822C21.0393 8.85034 21.106 8.92976 21.1799 9.01862C20.9911 8.85168 20.7981 8.68743 20.6036 8.52992C20.2695 8.25846 19.9167 8.00839 19.5476 7.78139C19.5817 7.73292 20.0018 7.12171 20.0543 6.78918C20.1026 6.493 20.0756 6.10527 19.8443 5.87909C19.7911 5.82486 19.7268 5.78161 19.6552 5.75203C19.5837 5.72245 19.5065 5.70718 19.4284 5.70718C19.3504 5.70718 19.2731 5.72245 19.2016 5.75203C19.13 5.78161 19.0657 5.82486 19.0125 5.87909C18.7102 6.2224 18.9345 7.00055 19.1545 7.33846C19.1701 7.3627 19.4114 7.64811 19.5022 7.74235L19.4894 7.73427C19.1211 7.52004 18.7336 7.33713 18.3313 7.18768C17.9725 7.0526 17.6057 6.93753 17.2327 6.84303C16.8878 6.75148 16.5656 6.68821 16.2803 6.63436C16.1271 6.60609 15.9851 6.5832 15.8546 6.563H15.8631C15.8631 6.563 15.389 6.26144 15.3564 6.24663C14.9788 6.06892 14.14 5.93564 13.8107 6.25605C13.7577 6.31076 13.7173 6.37543 13.6923 6.44588C13.6673 6.51633 13.6582 6.59097 13.6656 6.66498C13.6729 6.73898 13.6966 6.81069 13.7351 6.87546C13.7735 6.94023 13.8259 6.9966 13.8888 7.04093C14.1499 7.23749 14.5587 7.22268 14.8639 7.14864C15.169 7.07459 15.7027 6.68282 15.8333 6.58589C15.9752 6.60878 16.1171 6.6357 16.2775 6.66801C16.5614 6.72725 16.8793 6.80264 17.2214 6.89554C17.3122 6.92111 17.4087 6.95343 17.5052 6.9817C17.3349 6.9642 17.1021 6.944 17.0794 6.944C16.6536 6.944 15.8489 7.19979 15.7126 7.62791C15.6919 7.69961 15.6873 7.77465 15.6992 7.84813C15.7111 7.92161 15.7392 7.99189 15.7817 8.05439C15.8241 8.11688 15.88 8.17019 15.9456 8.21083C16.0112 8.25148 16.0851 8.27855 16.1625 8.29028C16.489 8.35086 16.8467 8.15565 17.0808 7.9591C17.315 7.76254 17.6088 7.1621 17.6699 7.03151C17.8771 7.09882 18.0957 7.16614 18.3057 7.26038C18.7009 7.41592 19.0809 7.60423 19.4412 7.82312C19.4611 7.83658 19.4809 7.85274 19.5022 7.86486C19.4199 7.84332 18.9586 7.75177 18.926 7.74908C18.5002 7.71138 17.6727 7.87428 17.4882 8.28759C17.4595 8.35672 17.4464 8.4308 17.4498 8.50503C17.4532 8.57926 17.473 8.65199 17.5079 8.7185C17.5429 8.78501 17.5921 8.84381 17.6525 8.89111C17.713 8.9384 17.7832 8.97313 17.8586 8.99304C18.1766 9.08728 18.5541 8.93246 18.8096 8.76013C19.1048 8.55954 19.5008 7.90121 19.5192 7.87697C19.8699 8.10483 20.2046 8.35396 20.5213 8.62281C20.7583 8.82072 20.9882 9.0267 21.2168 9.24345C21.1089 9.21652 20.6802 9.13171 20.649 9.12901C20.2232 9.09267 19.3972 9.25557 19.2113 9.66753C19.1825 9.73666 19.1695 9.81074 19.1729 9.88497C19.1763 9.9592 19.1961 10.0319 19.231 10.0984C19.2659 10.1649 19.3152 10.2238 19.3756 10.271C19.436 10.3183 19.5062 10.3531 19.5817 10.373C19.8996 10.4672 20.2772 10.3137 20.5326 10.1401C20.8165 9.94486 21.204 9.3148 21.2423 9.2623L21.5546 9.55175C21.8924 9.87082 22.2287 10.1912 22.5708 10.4941C22.69 10.6005 22.8107 10.7015 22.9313 10.8024C22.7695 10.7674 22.4714 10.7082 22.4445 10.7069C22.0258 10.6692 21.1926 10.8321 21.0067 11.2454C20.978 11.3146 20.965 11.3888 20.9685 11.4631C20.972 11.5374 20.9919 11.6101 21.027 11.6767C21.062 11.7432 21.1114 11.802 21.172 11.8492C21.2326 11.8964 21.303 11.9311 21.3786 11.9508C21.6965 12.0437 22.0726 11.8902 22.3281 11.7179C22.5836 11.5456 22.9199 11.0205 23.0122 10.8724C23.2137 11.0394 23.4181 11.2009 23.6282 11.3504C23.7204 11.4137 23.8099 11.485 23.9007 11.5389L24.1718 11.7098C24.3606 11.8216 24.5366 11.9252 24.7154 12.0249L24.9794 12.1689C24.8204 12.1097 24.5664 12.0208 24.5422 12.0154C24.1335 11.9185 23.2847 11.9589 23.0349 12.3399C22.9956 12.4041 22.971 12.4754 22.9626 12.5492C22.9542 12.6231 22.9622 12.6977 22.9862 12.7684C23.0101 12.8391 23.0495 12.9042 23.1016 12.9596C23.1538 13.0149 23.2176 13.0593 23.289 13.0898C23.5884 13.2244 23.9859 13.1302 24.2655 12.9955C24.5749 12.8474 25.0404 12.3009 25.0972 12.2335C25.3143 12.3507 25.523 12.4624 25.7259 12.5634C26.261 12.8326 26.7195 13.0521 27.0885 13.2123C28.2651 14.1776 29.9271 14.2893 29.9271 14.2893C29.9271 14.2893 30.0151 12.4045 28.847 11.1713C28.432 10.7595 27.926 10.4399 27.3653 10.2357ZM25.2647 12.0693C25.3016 11.9912 25.5826 11.3962 25.6025 11.0569C25.6678 11.0461 25.7345 11.0327 25.7983 11.0192C25.9175 11.6133 26.1659 12.1773 26.5279 12.6751C26.3135 12.5782 26.0822 12.4718 25.8366 12.3534C25.6536 12.2645 25.4619 12.1689 25.2647 12.0693Z" fill="white"/>
<path id="Vector_10" d="M36.0415 9.875C36.0415 9.875 34.0545 9.93289 32.8438 11.1297C31.6331 12.3266 31.6416 14.2127 31.6416 14.2127C31.6416 14.2127 33.6287 14.1548 34.8393 12.958C36.05 11.7611 36.0415 9.875 36.0415 9.875Z" fill="white"/>
</g>
<path id="Vector_11" d="M30.8586 11.0882L32.8059 9.42691L32.7236 9.33805L30.8572 10.9294L30.8472 8.75242L30.8572 8.75915L32.505 6.47317L32.4028 6.40585L30.8458 8.56394L30.8231 3.32422L30.6982 3.32556L30.7138 6.88109L29.4733 5.8633L29.3924 5.95216L30.7152 7.03861L30.7266 9.58038L28.846 8.00389L28.7637 8.0914L30.7266 9.73924L30.738 12.0548L29.3243 11.0034L29.2477 11.0963L30.738 12.2056L30.745 13.696H30.8699L30.8572 11.0869L30.8586 11.0882Z" fill="white"/>
<path id="Vector_12" d="M29.0617 11.7278L28.9382 11.7144L28.7807 13.0297L27.9447 12.1438H27.9461L27.7332 10.5512L27.6097 10.566L27.7999 11.9904L25.7206 9.78516L25.627 9.86459L27.0378 11.3603L26.145 11.3711L26.1464 11.4895L27.1485 11.4774L28.1377 12.5262L26.7411 12.5275V12.646L28.2499 12.6447L29.1483 13.5978L28.1633 13.6544L28.1718 13.7728L29.2547 13.7109L29.8537 14.3464L29.9474 14.2669L28.8928 13.1482L29.0617 11.7278Z" fill="white"/>
<path id="Vector_13" d="M33.7721 12.1967L35.4298 11.8776L35.4057 11.7619L33.9225 12.0473L36.0856 9.91611L35.9947 9.83398L34.5271 11.2799L34.4505 10.4358L34.3256 10.4465L34.4122 11.393L33.3832 12.4067L33.2781 11.086L33.1532 11.0955L33.2668 12.5212L32.3314 13.4434L32.1994 12.5158L32.076 12.5319L32.2207 13.5524L31.5977 14.1663L31.6885 14.2484L32.7856 13.1674L34.2915 13.2226L34.2972 13.1041L32.902 13.0529L33.7721 12.1954V12.1967Z" fill="white"/>
</g>
<g id="Grade">
<path id="Vector_14" d="M14.6927 30.4606C14.8049 30.9897 16.1447 31.2024 16.1447 31.2024L17.1382 30.6639C17.5541 33.9758 17.9231 36.6791 18.0466 36.9147C18.3816 37.5502 20.8384 36.7033 21.0612 35.6438C21.1521 35.2157 20.7121 32.3279 20.1571 29.0403L23.6288 27.1717C23.6288 27.1717 23.7807 26.6991 22.7006 26.8822C22.323 26.9469 21.2216 27.3359 19.9527 27.8394C19.1721 23.3025 18.2694 18.4882 18.2694 18.4882C18.2694 18.4882 30.1037 30.6666 30.663 30.6666C31.2222 30.6666 32.0028 30.5616 31.6678 29.6084C31.3329 28.6553 18.2694 16.7946 18.2694 16.7946C18.2694 16.7946 16.0368 16.6882 15.5912 17.6414C15.5912 17.6414 16.2881 23.7696 16.9466 29.1171C15.6394 29.7215 14.6502 30.2587 14.6927 30.4606Z" fill="#263238"/>
<path id="Vector_15" d="M41.09 27.3383C41.0753 26.7902 41.0179 26.2439 40.9182 25.7039C40.7208 24.6234 40.3579 23.5762 39.841 22.5953C39.5885 22.1092 39.2996 21.6408 38.9766 21.1939C38.6605 20.7486 38.3144 20.3232 37.9405 19.9203C37.573 19.5183 37.1801 19.138 36.7639 18.7813C35.9419 18.0785 35.0523 17.4502 34.1069 16.9046C30.3514 14.7411 26.0168 13.7489 21.7247 13.8082C20.6514 13.8364 19.5822 13.9453 18.527 14.134C17.4706 14.3181 16.4377 14.6079 15.4457 14.9983C14.4594 15.3907 13.5284 15.8976 12.6737 16.5075C11.8287 17.1075 11.0574 17.7957 10.3744 18.5592C10.3622 18.5716 10.3555 18.588 10.3555 18.605C10.3555 18.6219 10.3622 18.6383 10.3744 18.6507C10.381 18.657 10.3889 18.6621 10.3975 18.6655C10.4062 18.6689 10.4154 18.6706 10.4248 18.6706C10.4342 18.6706 10.4434 18.6689 10.4521 18.6655C10.4607 18.6621 10.4686 18.657 10.4752 18.6507C11.1905 17.9398 11.988 17.3076 12.8525 16.7659C13.7101 16.2148 14.6358 15.7658 15.6089 15.4291C17.5576 14.7559 19.6454 14.5015 21.712 14.5203C23.7875 14.5498 25.8496 14.8423 27.8434 15.39C29.8397 15.9277 31.7437 16.7357 33.4966 17.7891C35.2324 18.8513 36.7979 20.1949 37.9334 21.828C38.219 22.235 38.4732 22.6611 38.6942 23.1029C39.1423 23.983 39.4527 24.9205 39.6153 25.8856C39.6968 26.3679 39.7409 26.8553 39.7473 27.3437C39.7525 27.8317 39.725 28.3196 39.665 28.8044C39.6267 29.0454 39.5912 29.2863 39.5415 29.526L39.4549 29.8814L39.4123 30.0591L39.357 30.2341C39.0685 31.1712 38.6336 32.062 38.0668 32.8769C36.9314 34.5059 35.3176 35.8104 33.5321 36.7811C31.729 37.7469 29.7714 38.4263 27.737 38.7924C25.7023 39.1667 23.6238 39.2799 21.5573 39.129C21.2975 39.1182 21.0406 39.0846 20.7837 39.063C20.6546 39.0496 20.5254 39.0388 20.3977 39.024L20.0145 38.9688C19.759 38.9284 19.5021 38.9015 19.2494 38.8503L18.4972 38.7143C18.3703 38.6903 18.2448 38.6602 18.1211 38.6241L17.7478 38.5259C17.498 38.4599 17.2482 38.398 17.0055 38.3132L16.2717 38.0749L15.5521 37.7989C15.4329 37.7518 15.3122 37.7073 15.1944 37.6575L14.8439 37.5027C14.6111 37.395 14.3741 37.2967 14.1456 37.1823C13.6928 36.944 13.2315 36.7205 12.8 36.4486L12.4722 36.2533L12.3075 36.1551L12.15 36.0487L11.5184 35.6179C11.3069 35.4752 11.1125 35.3123 10.9095 35.1602L10.6086 34.9286C10.5064 34.8532 10.4156 34.7644 10.3247 34.6836L9.75701 34.1855L9.21766 33.651C9.12967 33.5608 9.03741 33.476 8.95367 33.3817L8.70529 33.099L8.45691 32.8163C8.376 32.7207 8.28801 32.6305 8.21704 32.5282L7.7657 31.9304L7.65215 31.781L7.55138 31.6235L7.34416 31.3098C7.07678 30.8905 6.83187 30.4587 6.61037 30.016C6.17707 29.1263 5.87568 28.1839 5.71477 27.2158C5.56454 26.2459 5.5698 25.26 5.73039 24.2916C5.89238 23.3214 6.19172 22.3763 6.6203 21.482C7.05234 20.5892 7.58484 19.7433 8.20852 18.959C9.46861 17.3924 10.9943 16.0353 12.7234 14.9431C12.7387 14.9337 12.7495 14.919 12.7535 14.9021C12.7575 14.8852 12.7543 14.8676 12.7447 14.8529C12.735 14.8378 12.7194 14.827 12.7014 14.8227C12.6833 14.8184 12.6642 14.821 12.6482 14.83C11.7429 15.3399 10.8807 15.9156 10.0693 16.5519C9.25421 17.1982 8.50311 17.9138 7.82531 18.6898C7.13538 19.4757 6.54251 20.3339 6.05825 21.2477C5.56483 22.1773 5.20627 23.1659 4.99234 24.1866C4.78369 25.2253 4.74348 26.2881 4.87312 27.3383C5.01344 28.3911 5.30671 29.4205 5.74458 30.397C6.18696 31.3603 6.73651 32.276 7.3839 33.1286C7.45912 33.239 7.54996 33.3373 7.6337 33.441L7.89202 33.7493L8.14891 34.0562C8.23691 34.1572 8.33343 34.2514 8.42426 34.3484L8.98347 34.9273L9.57817 35.4658C9.67894 35.5546 9.77404 35.6502 9.87907 35.735L10.1942 35.9881C10.4056 36.1537 10.6086 36.3314 10.8286 36.4876L11.4886 36.9642L11.6546 37.0813L11.825 37.189L12.1699 37.4044C12.6212 37.7046 13.1094 37.9429 13.5892 38.2122C13.8305 38.336 14.0803 38.4451 14.3258 38.5636L14.6963 38.7359C14.8212 38.7911 14.9489 38.8396 15.0752 38.8907L15.836 39.195L16.6152 39.4642C16.8735 39.5585 17.1389 39.6285 17.4043 39.7025L17.8017 39.8129C17.9337 39.8506 18.0671 39.887 18.2034 39.9139L19.0124 40.0902C19.2835 40.1495 19.5603 40.1831 19.8342 40.2249L20.2458 40.2895C20.3877 40.3083 20.5169 40.3205 20.6517 40.3366C20.9228 40.3635 21.1939 40.4026 21.4664 40.4187C22.5559 40.5137 23.6512 40.5326 24.7436 40.4753C25.8394 40.4222 26.93 40.2985 28.0081 40.1051C30.1955 39.7235 32.3019 39.0035 34.2432 37.9739C36.1805 36.9117 37.9504 35.4671 39.2278 33.6254C39.8659 32.6967 40.3535 31.6824 40.6741 30.6165L40.7351 30.4172L40.7848 30.2139L40.8799 29.81C40.9353 29.5408 40.975 29.2608 41.0218 28.9875C41.0859 28.44 41.1087 27.8888 41.09 27.3383Z" fill="#263238"/>
<path id="Vector_16" d="M21.5546 18.4874C21.5945 18.5676 21.6575 18.6355 21.7364 18.6831C21.8153 18.7307 21.9067 18.7562 22.0002 18.7567C22.0761 18.7571 22.151 18.7405 22.2188 18.7082L24.2059 17.7833L25.5074 18.8334C25.5566 18.8762 25.6145 18.9092 25.6775 18.9304C25.7405 18.9515 25.8073 18.9604 25.874 18.9565C25.9407 18.9525 26.0058 18.9359 26.0656 18.9075C26.1253 18.8791 26.1784 18.8396 26.2217 18.7913C26.265 18.743 26.2975 18.6869 26.3174 18.6264C26.3373 18.5659 26.3441 18.5022 26.3375 18.4392C26.3308 18.3761 26.3108 18.315 26.2786 18.2594C26.2465 18.2038 26.2029 18.155 26.1503 18.1158L25.1767 17.3296L26.2738 16.8167C26.333 16.7887 26.3858 16.75 26.4292 16.7027C26.4726 16.6554 26.5058 16.6005 26.5268 16.5411C26.5478 16.4816 26.5563 16.4188 26.5517 16.3563C26.5472 16.2937 26.5296 16.2326 26.5002 16.1765C26.4708 16.1204 26.4299 16.0703 26.3801 16.0291C26.3302 15.988 26.2723 15.9565 26.2096 15.9366C26.147 15.9166 26.0808 15.9086 26.0148 15.9129C25.9489 15.9172 25.8845 15.9338 25.8253 15.9618L24.3421 16.6551L23.3003 15.8137C23.2 15.7326 23.0699 15.6927 22.9385 15.7027C22.8071 15.7126 22.6853 15.7717 22.5999 15.8669C22.5145 15.962 22.4724 16.0855 22.4829 16.2101C22.4934 16.3347 22.5556 16.4502 22.656 16.5313L23.3656 17.1088L21.7703 17.8533C21.6531 17.9103 21.5645 18.0091 21.524 18.128C21.4836 18.2469 21.4945 18.3762 21.5546 18.4874Z" fill="#263238"/>
</g>
<g id="Shadow">
<path id="Vector_17" opacity="0.3" d="M52.506 46.6578L43.1683 42.7886C42.0328 41.8718 40.6887 40.8136 40.4716 40.7611C40.077 40.6668 40.2743 40.1997 40.9655 39.0755C41.6567 37.9514 36.7884 35.7987 35.5437 35.9131C34.5502 36.006 33.3665 35.8162 32.9392 35.7381C33.2955 34.7351 33.6631 33.7402 33.6631 33.7402L28.8246 31.7316L24.9712 26.1553L23.7676 26.5188C23.7676 26.5188 25.4537 30.1699 27.4308 34.3501C26.7013 34.1293 25.2181 33.8291 25.0705 34.9546C24.8732 36.4516 26.0569 37.5758 27.2407 37.5758C27.8935 37.5758 28.518 37.5475 28.9438 37.5219C31.1026 42.0279 33.2018 46.2525 33.5595 46.468C34.35 46.9365 37.1078 47.5907 37.2114 46.9365C37.315 46.2822 34.448 41.5069 34.448 41.5069C34.448 41.5069 49.6461 47.2165 51.2286 47.2165C52.8112 47.2165 52.506 46.6578 52.506 46.6578ZM38.0999 38.6043C38.0999 38.6043 37.6599 39.8039 37.7238 40.5295L35.1321 39.4525L38.0999 38.6043ZM31.0927 33.6433L30.7464 34.5211L29.9544 33.374L31.0927 33.6433Z" fill="black"/>
</g>
<g id="Character">
<path id="Vector_18" d="M46.6033 17.6515C46.6033 17.6515 46.9113 17.0295 46.7182 16.5529C46.5252 16.0763 42.9741 15.3076 42.9741 15.3076C42.9741 15.3076 42.1622 15.3076 42.2005 15.7465C42.2389 16.1854 45.174 17.8709 45.4054 18.0177C45.6367 18.1644 46.5252 18.4943 46.6033 17.6515Z" fill="white" stroke="#263238" stroke-width="0.903643" stroke-linecap="round" stroke-linejoin="round"/>
<path id="Vector_19" d="M43.9766 17.2852C44.0864 17.1007 44.2359 16.9402 44.4154 16.814C44.5949 16.6878 44.8003 16.5989 45.0183 16.5528C45.7521 16.4061 46.7215 16.8827 46.8337 17.6514C46.9458 18.4201 46.3312 18.7863 45.9452 18.7863C45.5591 18.7863 45.2114 18.2734 45.2114 18.2734C45.2114 18.2734 43.9766 17.8345 43.9766 17.2852Z" fill="white" stroke="#263238" stroke-width="0.903643" stroke-linecap="round" stroke-linejoin="round"/>
<path id="Vector_20" d="M43.0241 20.8994C43.1725 21.2359 43.3984 21.5367 43.6852 21.7797C43.9721 22.0227 44.3126 22.2017 44.6819 22.3036C45.9848 22.6967 48.4119 22.1353 49.8326 22.3036L50.8971 23.3712L49.2407 24.3809C48.0171 23.9972 46.7718 23.6786 45.5108 23.4264C43.5436 23.0427 42.3145 21.2925 42.3145 21.2925L43.0241 20.8994Z" fill="#263238"/>
<path id="Vector_21" d="M24.5558 25.999L23.7695 26.5187L24.1457 26.7772L24.7616 26.5833L24.5558 25.999Z" fill="#263238" stroke="#263238" stroke-width="0.903643" stroke-linecap="round" stroke-linejoin="round"/>
<path id="Vector_22" d="M42.4202 13.5019C42.4202 13.5019 42.0824 13.3848 41.7758 13.2394C41.4693 13.094 41.8056 13.7631 41.9291 13.7927C42.0526 13.8223 42.3549 13.8802 42.3549 13.8802L42.4202 13.5019Z" fill="white" stroke="#263238" stroke-width="0.903643" stroke-linecap="round" stroke-linejoin="round"/>
<path id="Vector_23" d="M25.9455 23.9795L24.4212 25.9006C24.3684 25.9667 24.3362 26.0455 24.3282 26.128C24.3201 26.2106 24.3366 26.2936 24.3758 26.3678C24.421 26.4535 24.4941 26.5232 24.5844 26.5663C24.6747 26.6095 24.7772 26.6239 24.8768 26.6074L27.0881 26.2426L51.0079 13.1984C51.2816 13.0473 51.5204 12.8456 51.7104 12.6053C51.9003 12.365 52.0374 12.0909 52.1137 11.7994C52.1899 11.5079 52.2037 11.2048 52.1542 10.9082C52.1047 10.6115 51.9929 10.3273 51.8255 10.0724C51.6591 9.81978 51.4414 9.60112 51.1851 9.42917C50.9287 9.25722 50.6388 9.13542 50.3323 9.07088C50.0258 9.00634 49.7088 9.00035 49.3998 9.05326C49.0908 9.10617 48.796 9.21692 48.5326 9.37905L25.9455 23.9795Z" fill="#339999" stroke="#263238" stroke-width="0.903643" stroke-linecap="round" stroke-linejoin="round"/>
<path id="Vector_24" d="M48.5319 9.38002L42.1562 13.5535C42.2159 14.6009 42.6899 15.9876 44.6216 16.6001L51.0086 13.1954C51.2889 13.0488 51.5349 12.8498 51.7317 12.6103C51.9285 12.3709 52.0721 12.096 52.1536 11.8024C52.2351 11.5088 52.2529 11.2026 52.206 10.9022C52.1591 10.6019 52.0483 10.3137 51.8805 10.0552C51.7127 9.79666 51.4912 9.57313 51.2296 9.39816C50.968 9.2232 50.6717 9.10043 50.3586 9.0373C50.0455 8.97417 49.7222 8.972 49.4082 9.03091C49.0942 9.08982 48.796 9.20859 48.5319 9.38002Z" fill="#263238" stroke="#263238" stroke-width="0.903643" stroke-linecap="round" stroke-linejoin="round"/>
<path id="Vector_25" d="M24.3749 26.3688C24.4202 26.4545 24.4933 26.5242 24.5836 26.5673C24.6738 26.6105 24.7764 26.6249 24.876 26.6084L27.0873 26.2436C25.2989 25.5839 25.9518 23.9805 25.9518 23.9805L24.4274 25.9016C24.3735 25.967 24.34 26.0455 24.3308 26.1281C24.3215 26.2106 24.3368 26.294 24.3749 26.3688Z" fill="#339999" stroke="#263238" stroke-width="0.903643" stroke-linecap="round" stroke-linejoin="round"/>
<path id="Vector_26" d="M40.4592 14.1709C40.4592 14.1709 40.1158 14.1709 40.1158 14.319C40.1158 14.4671 40.0263 14.9921 40.2251 14.9773C40.4238 14.9625 40.4053 14.6313 40.4223 14.5155C40.4394 14.3998 40.4592 14.1709 40.4592 14.1709Z" fill="white" stroke="#263238" stroke-width="0.903643" stroke-linecap="round" stroke-linejoin="round"/>
<path id="Vector_27" d="M40.8329 13.6334C40.8329 13.6334 40.5249 13.5445 40.4554 13.7236C40.3858 13.9026 40.3134 14.7521 40.5249 14.7306C40.7364 14.7091 40.7847 13.9417 40.8329 13.6334Z" fill="white" stroke="#263238" stroke-width="0.903643" stroke-linecap="round" stroke-linejoin="round"/>
<path id="Vector_28" d="M41.3052 13.6811C41.3052 13.6811 40.9517 13.3903 40.8339 13.6353C40.7161 13.8803 40.692 14.5777 40.8339 14.5777C40.9759 14.5777 41.1873 14.2869 41.2342 14.1307C41.2696 13.9827 41.2933 13.8324 41.3052 13.6811Z" fill="white" stroke="#263238" stroke-width="0.903643" stroke-linecap="round" stroke-linejoin="round"/>
<path id="Vector_29" d="M41.8011 13.807C41.8011 13.807 41.3526 13.4489 41.2816 13.5162C41.2107 13.5836 40.9282 14.2728 41.1397 14.4115C41.3512 14.5502 41.6208 13.9322 41.6208 13.9322L41.8011 13.807Z" fill="white" stroke="#263238" stroke-width="0.903643" stroke-linecap="round" stroke-linejoin="round"/>
<path id="Vector_30" d="M36.1721 17.1272C36.1721 17.1272 36.2218 17.8461 36.4233 18.0131C36.545 18.1138 36.6553 18.2261 36.7526 18.3483C36.7797 18.5309 36.7963 18.7147 36.8023 18.8989C36.8023 19.1143 36.9542 19.0915 37.0862 19.0915C37.2182 19.0915 37.4396 19.4953 37.5659 19.6892C37.7036 19.8663 37.8882 20.0056 38.101 20.0931C38.3281 20.2116 38.7056 19.7579 38.7056 19.7579L39.2052 20.5454L40.9978 19.4442L40.115 17.8165C40.0629 17.2518 39.8817 16.7047 39.5842 16.2131C39.0803 15.3515 38.3976 14.8668 37.2622 15.1832C36.1267 15.4996 36.1721 17.1272 36.1721 17.1272Z" fill="white" stroke="#263238" stroke-width="0.903643" stroke-linecap="round" stroke-linejoin="round"/>
<path id="Vector_31" d="M39.0237 20.0732L38.2559 19.3408" stroke="#263238" stroke-width="0.903643" stroke-linecap="round" stroke-linejoin="round"/>
<path id="Vector_32" d="M37.6973 17.9686C37.623 18.015 37.5359 18.0398 37.4468 18.0398C37.3578 18.0398 37.2707 18.015 37.1963 17.9686C37.0518 17.8762 36.935 17.7499 36.8571 17.6019C36.7793 17.454 36.7431 17.2896 36.7521 17.1245C36.7521 16.7542 36.2511 16.9131 36.2511 16.9131C36.2511 16.9131 35.6933 17.4933 35.3044 17.282C34.9155 17.0706 34.6912 16.6492 35.8054 15.3285C36.9196 14.0078 37.977 14.0617 38.8669 14.5894C39.7568 15.1172 40.1088 17.8205 40.1088 17.8205C40.1088 17.8205 40.0917 18.3361 39.3679 18.4936C38.644 18.6511 37.6973 18.4963 37.6973 17.9686Z" fill="#263238" stroke="#263238" stroke-width="0.903643" stroke-linecap="round" stroke-linejoin="round"/>
<g id="Vector_33">
<path d="M37.5586 18.4213C37.5586 18.4213 37.306 17.5112 37.7091 17.631C38.1122 17.7508 38.3407 18.564 38.3151 18.6595C38.2896 18.7551 38.088 18.8036 37.9873 18.7794" fill="white"/>
<path d="M37.5586 18.4213C37.5586 18.4213 37.306 17.5112 37.7091 17.631C38.1122 17.7508 38.3407 18.564 38.3151 18.6595C38.2896 18.7551 38.088 18.8036 37.9873 18.7794" stroke="#263238" stroke-width="0.903643" stroke-linecap="round" stroke-linejoin="round"/>
</g>
<path id="Vector_34" d="M40.4754 18.7511C40.0044 19.0015 39.5546 19.2859 39.1299 19.602C38.7041 19.9614 38.3223 21.0385 38.3223 21.0385C38.3223 21.0385 40.9225 19.3624 41.3766 19.1227C41.8308 18.8831 41.9316 18.7646 41.9316 18.7646C41.9316 18.7646 40.9807 18.6313 40.4754 18.7511Z" fill="white" stroke="#263238" stroke-width="0.903643" stroke-linecap="round" stroke-linejoin="round"/>
<path id="Vector_35" d="M34.0713 25.1863C34.0713 25.1863 33.3361 24.8632 32.4873 24.4337C31.6386 24.0043 30.7331 23.5223 30.7331 23.5223C30.4889 23.4939 30.242 23.4939 29.9979 23.5223C29.5701 23.6235 29.1351 23.695 28.6963 23.7364C28.4125 23.7364 28.2436 24.0056 28.4125 24.112C28.5814 24.2183 29.4883 24.112 29.4883 24.112L28.069 24.7568C28.069 24.7568 27.9001 25.0786 28.2961 25.0786C28.6921 25.0786 28.8638 25.0247 29.3137 25.0786C29.7637 25.1324 30.672 24.5953 30.672 24.5953C30.672 24.5953 33.0678 27.2138 33.6242 27.2461C34.1806 27.2784 35.3175 26.0452 34.0713 25.1863Z" fill="white" stroke="#263238" stroke-width="0.903643" stroke-linecap="round" stroke-linejoin="round"/>
<path id="Vector_36" d="M34.8267 24.6826C34.8267 24.6826 33.5905 25.0125 33.3592 25.5254C33.1278 26.0383 33.1661 26.807 33.6288 27.2459C34.0915 27.6848 34.286 27.7952 34.787 27.6121C35.288 27.429 35.4058 27.1369 35.4442 26.8434C35.4825 26.5499 35.7592 25.5617 34.8267 24.6826Z" fill="white" stroke="#263238" stroke-width="0.903643" stroke-linecap="round" stroke-linejoin="round"/>
<path id="Vector_37" d="M51.3574 45.2941C51.258 45.448 51.1679 45.6071 51.0877 45.7707C51.0494 45.8811 50.1992 45.9902 50.3156 46.3563C50.432 46.7225 51.3191 47.016 51.7449 47.0524C52.1707 47.0887 53.0223 46.5394 53.1727 46.3927C53.2636 46.3065 53.3998 45.7384 53.3274 45.2941C53.2799 45.0874 53.1728 44.8972 53.018 44.7448C53.018 44.7448 52.2842 43.6826 51.3574 45.2941Z" fill="white" stroke="#263238" stroke-width="0.903643" stroke-linecap="round" stroke-linejoin="round"/>
<path id="Vector_38" d="M53.3296 45.2954C53.2898 45.1099 53.1993 44.9376 53.067 44.7959C52.9071 44.7968 52.7491 44.8287 52.6027 44.8895C52.4562 44.9504 52.3245 45.039 52.2154 45.15C51.8294 45.5889 52.0224 46.577 51.5583 46.7238C51.2134 46.8328 50.6102 46.433 50.3263 46.223C50.3105 46.2666 50.3105 46.314 50.3263 46.3576C50.4427 46.7238 51.3298 47.0173 51.7556 47.0536C52.1813 47.09 53.0329 46.5407 53.1834 46.3939C53.2657 46.3078 53.402 45.7396 53.3296 45.2954Z" fill="white" stroke="#263238" stroke-width="0.903643" stroke-linecap="round" stroke-linejoin="round"/>
<path id="Vector_39" d="M52.3252 45.5525C52.1705 46.2109 52.3635 46.6511 51.7461 47.0536C52.1719 47.09 53.0235 46.5407 53.1739 46.394C53.2648 46.3078 53.401 45.7397 53.3286 45.2954C53.3121 45.204 53.2799 45.1158 53.2335 45.0342H53.1739C53.1739 45.0342 52.4785 44.8928 52.3252 45.5525Z" fill="#263238" stroke="#263238" stroke-width="0.903643" stroke-linecap="round" stroke-linejoin="round"/>
<path id="Vector_40" d="M49.987 40.4233C49.4079 39.3248 47.0646 36.3657 47.0646 36.3657C47.0646 36.3657 45.9845 29.9587 45.9447 29.5171C45.8709 28.6717 45.2989 27.3954 45.2989 27.3954C45.2989 27.3954 43.4354 27.0265 39.8828 29.0042L39.9211 30.1028L42.3979 33C42.5171 32.9071 42.5866 32.8505 42.5866 32.8505C42.5866 32.8505 44.1692 36.6201 44.5169 37.3552C44.8646 38.0902 46.5806 40.6926 47.4322 41.2311C47.9062 41.5313 51.358 45.2942 51.358 45.2942C51.358 45.2942 52.0152 44.7449 52.4396 44.7449H53.0186C53.0186 44.7449 50.5661 41.5219 49.987 40.4233Z" fill="#263238" stroke="#263238" stroke-width="0.903643" stroke-linecap="round" stroke-linejoin="round"/>
<g id="Group_2" opacity="0.35">
<path id="Vector_41" d="M50.6299 43.7471C51.1011 44.3112 51.4119 44.7325 51.4119 44.7325" stroke="white" stroke-width="0.903643" stroke-linecap="round" stroke-linejoin="round"/>
<path id="Vector_42" d="M43.5791 33.2402C43.5791 33.2402 44.1908 34.7494 44.9871 36.4902C45.7833 38.2309 46.7612 40.3217 48.2302 41.3664C48.8505 41.8066 49.5076 42.4757 50.0753 43.1004" stroke="white" stroke-width="0.903643" stroke-linecap="round" stroke-linejoin="round"/>
<path id="Vector_43" d="M45.2529 31.7139L42.5889 32.8488L45.4147 32.7182" stroke="white" stroke-width="0.903643" stroke-linecap="round" stroke-linejoin="round"/>
</g>
<path id="Vector_44" d="M44.7869 17.0294C44.1312 17.1021 42.4322 18.2007 42.3158 18.3111C42.1995 18.4215 41.7368 18.6773 41.5437 18.824C41.5437 18.824 37.5696 21.1679 37.2191 21.382C36.8685 21.596 36.1773 22.0403 36.2156 22.1897C36.2539 22.3392 34.1689 25.5554 34.1689 25.5554C34.1689 25.5554 33.5515 26.3242 34.1306 27.0202C34.7097 27.7162 35.2505 27.2396 35.5201 27.0942C35.7898 26.9488 37.9145 25.0425 37.9145 25.0425L39.8746 29.4852C39.8746 29.4852 42.5884 27.7593 45.4838 27.8697L43.5535 20.6913C43.5535 20.6913 46.2176 18.7863 46.2942 18.1334C46.3709 17.4804 45.444 16.9554 44.7869 17.0294Z" fill="white"/>
<g id="Clip path group">
<mask id="mask0_1437_8400" style="mask-type:luminance" maskUnits="userSpaceOnUse" x="33" y="17" width="14" height="13">
<g id="clip-path">
<path id="Vector_45" d="M44.7908 17.0304C44.1351 17.1031 42.4361 18.2017 42.3198 18.3121C42.2034 18.4225 41.7407 18.6783 41.5476 18.825C41.5476 18.825 37.5735 21.1689 37.223 21.3829C36.8724 21.597 36.1812 22.0413 36.2195 22.1907C36.2578 22.3401 34.1728 25.5564 34.1728 25.5564C34.1728 25.5564 33.5554 26.3251 34.1345 27.0212C34.7136 27.7172 35.2544 27.2406 35.524 27.0952C35.7937 26.9498 37.9184 25.0435 37.9184 25.0435L39.8785 29.4862C39.8785 29.4862 42.5923 27.7603 45.4877 27.8707L43.5574 20.6923C43.5574 20.6923 46.2215 18.7873 46.2981 18.1344C46.3748 17.4814 45.4479 16.9564 44.7908 17.0304Z" fill="white"/>
</g>
</mask>
<g mask="url(#mask0_1437_8400)">
<g id="Group_3">
<path id="Vector_46" d="M44.7905 17.0304C44.528 17.0587 44.0979 17.2526 43.6693 17.4828C43.7671 17.465 43.8682 17.4749 43.9601 17.5113C44.052 17.5477 44.1305 17.6089 44.1859 17.6874C44.5053 18.0765 43.8211 19.3285 43.8211 19.3285C43.8211 19.3285 43.5373 17.5972 43.5486 18.1169C43.56 18.6365 43.4067 20.2332 43.4067 20.2332C43.4067 20.2332 42.4955 19.1966 42.5409 19.4564C42.5863 19.7162 43.1782 22.1342 43.543 23.0416C43.9077 23.949 43.269 26.4975 42.9057 27.2325C42.5423 27.9676 42.7638 24.1226 42.3592 25.0717C41.9547 26.0209 40.5879 28.6609 40.2686 28.9208C39.9492 29.1806 40.3708 25.3976 40.4843 24.9048C40.3424 25.3168 39.4042 27.9259 39.4042 27.9259L38.1268 24.816C38.1268 24.816 35.9411 23.1304 36.1682 23.4333C36.3952 23.7362 36.9431 24.6867 36.9431 24.6867C36.9431 24.6867 35.6217 24.4269 35.8502 24.513C36.0787 24.5992 37.0794 25.0744 37.0794 25.0744C37.0794 25.0744 35.0313 26.4638 34.4394 26.6307C34.2803 26.6752 34.1166 26.7037 33.9512 26.7156C33.9939 26.8284 34.0557 26.9339 34.1343 27.0279C34.7133 27.7239 35.2541 27.2473 35.5238 27.1019C35.7935 26.9565 37.9182 25.0502 37.9182 25.0502L39.8783 29.4862C39.8783 29.4862 42.592 27.7603 45.4874 27.8707L43.5572 20.6923C43.5572 20.6923 46.2212 18.7873 46.2979 18.1344C46.3745 17.4814 45.4477 16.9564 44.7905 17.0304Z" fill="#339999"/>
<path id="Vector_47" opacity="0.5" d="M44.7905 17.0304C44.528 17.0587 44.0979 17.2526 43.6693 17.4828C43.7671 17.465 43.8682 17.4749 43.9601 17.5113C44.052 17.5477 44.1305 17.6089 44.1859 17.6874C44.5053 18.0765 43.8211 19.3285 43.8211 19.3285C43.8211 19.3285 43.5373 17.5972 43.5486 18.1169C43.56 18.6365 43.4067 20.2332 43.4067 20.2332C43.4067 20.2332 42.4955 19.1966 42.5409 19.4564C42.5863 19.7162 43.1782 22.1342 43.543 23.0416C43.9077 23.949 43.269 26.4975 42.9057 27.2325C42.5423 27.9676 42.7638 24.1226 42.3592 25.0717C41.9547 26.0209 40.5879 28.6609 40.2686 28.9208C39.9492 29.1806 40.3708 25.3976 40.4843 24.9048C40.3424 25.3168 39.4042 27.9259 39.4042 27.9259L38.1268 24.816C38.1268 24.816 35.9411 23.1304 36.1682 23.4333C36.3952 23.7362 36.9431 24.6867 36.9431 24.6867C36.9431 24.6867 35.6217 24.4269 35.8502 24.513C36.0787 24.5992 37.0794 25.0744 37.0794 25.0744C37.0794 25.0744 35.0313 26.4638 34.4394 26.6307C34.2803 26.6752 34.1166 26.7037 33.9512 26.7156C33.9939 26.8284 34.0557 26.9339 34.1343 27.0279C34.7133 27.7239 35.2541 27.2473 35.5238 27.1019C35.7935 26.9565 37.9182 25.0502 37.9182 25.0502L39.8783 29.4862C39.8783 29.4862 42.592 27.7603 45.4874 27.8707L43.5572 20.6923C43.5572 20.6923 46.2212 18.7873 46.2979 18.1344C46.3745 17.4814 45.4477 16.9564 44.7905 17.0304Z" fill="white"/>
</g>
</g>
</g>
<path id="Vector_48" d="M44.7869 17.0294C44.1312 17.1021 42.4322 18.2007 42.3158 18.3111C42.1995 18.4215 41.7368 18.6773 41.5437 18.824C41.5437 18.824 37.5696 21.1679 37.2191 21.382C36.8685 21.596 36.1773 22.0403 36.2156 22.1897C36.2539 22.3392 34.1689 25.5554 34.1689 25.5554C34.1689 25.5554 33.5515 26.3242 34.1306 27.0202C34.7097 27.7162 35.2505 27.2396 35.5201 27.0942C35.7898 26.9488 37.9145 25.0425 37.9145 25.0425L39.8746 29.4852C39.8746 29.4852 42.5884 27.7593 45.4838 27.8697L43.5535 20.6913C43.5535 20.6913 46.2176 18.7863 46.2942 18.1334C46.3709 17.4804 45.444 16.9554 44.7869 17.0294Z" stroke="#263238" stroke-width="0.903643" stroke-linecap="round" stroke-linejoin="round"/>
<g id="Vector_49">
<path d="M39.8744 29.4853C39.7603 28.476 39.8149 27.456 40.0362 26.4629L39.8744 29.4853Z" fill="white"/>
<path d="M39.8744 29.4853C39.7603 28.476 39.8149 27.456 40.0362 26.4629" stroke="#263238" stroke-width="0.903643" stroke-linecap="round" stroke-linejoin="round"/>
</g>
<g id="Vector_50">
<path d="M39.5078 27.2405C39.5078 27.2405 39.5078 26.6213 40.2416 24.6826L39.5078 27.2405Z" fill="white"/>
<path d="M39.5078 27.2405C39.5078 27.2405 39.5078 26.6213 40.2416 24.6826" stroke="#263238" stroke-width="0.903643" stroke-linecap="round" stroke-linejoin="round"/>
</g>
<g id="Vector_51">
<path d="M36.4094 23.4375L37.9153 25.049L36.3711 23.9868" fill="white"/>
<path d="M36.4094 23.4375L37.9153 25.049L36.3711 23.9868" stroke="#263238" stroke-width="0.903643" stroke-linecap="round" stroke-linejoin="round"/>
</g>
<g id="Vector_52">
<path d="M43.5527 18.6407V20.6911L44.0538 18.0537" fill="white"/>
<path d="M43.5527 18.6407V20.6911L44.0538 18.0537" stroke="#263238" stroke-width="0.903643" stroke-linecap="round" stroke-linejoin="round"/>
</g>
<path id="Vector_53" d="M40.4913 24.8583C40.4854 24.8731 40.4811 24.8884 40.4785 24.9041C40.4955 24.8542 40.5012 24.8354 40.4913 24.8583Z" fill="#263238"/>
<path id="Vector_54" d="M41.3754 16.0784C41.269 16.0792 41.1651 16.0475 41.0791 15.988C40.9931 15.9285 40.9295 15.8444 40.8977 15.748C40.8659 15.6516 40.8676 15.5481 40.9025 15.4527C40.9374 15.3574 41.0037 15.2751 41.0916 15.2182L46.8157 11.4944C46.8695 11.459 46.9301 11.434 46.994 11.4209C47.0579 11.4077 47.124 11.4067 47.1884 11.4177C47.2528 11.4288 47.3142 11.4518 47.3692 11.4854C47.4243 11.519 47.4718 11.5625 47.509 11.6135C47.5463 11.6645 47.5726 11.722 47.5865 11.7826C47.6004 11.8433 47.6015 11.9059 47.5898 11.967C47.5782 12.0281 47.5539 12.0864 47.5185 12.1386C47.4831 12.1907 47.4372 12.2358 47.3834 12.2712L41.6593 15.9963C41.5757 16.0505 41.4767 16.0791 41.3754 16.0784Z" fill="#263238"/>
<path id="Vector_55" d="M42.8633 15.293L47.3143 12.3877" stroke="white" stroke-width="0.903643" stroke-linecap="round" stroke-linejoin="round"/>
<path id="Vector_56" d="M42.3594 14.4069L46.8104 11.5029" stroke="white" stroke-width="0.903643" stroke-linecap="round" stroke-linejoin="round"/>
<g id="Vector_57">
<path d="M39.9217 30.0977C39.9217 30.0977 35.6339 34.8271 35.5403 35.9042C35.4466 36.9812 36.2968 38.0582 37.3371 38.3275C38.3775 38.5967 48.52 38.8108 48.52 38.8108L48.4249 37.0162L39.4193 35.7251L42.3999 32.9948" fill="#263238"/>
<path d="M39.9217 30.0977C39.9217 30.0977 35.6339 34.8271 35.5403 35.9042C35.4466 36.9812 36.2968 38.0582 37.3371 38.3275C38.3775 38.5967 48.52 38.8108 48.52 38.8108L48.4249 37.0162L39.4193 35.7251L42.3999 32.9948" stroke="#263238" stroke-width="0.903643" stroke-linecap="round" stroke-linejoin="round"/>
</g>
<g id="Group_4" opacity="0.35">
<path id="Vector_58" d="M46.626 37.8115L47.3115 37.8856" stroke="white" stroke-width="0.903643" stroke-linecap="round" stroke-linejoin="round"/>
<path id="Vector_59" d="M36.982 35.5605L36.7861 35.7961C36.7861 35.7961 38.0096 35.7383 37.7655 35.9698C37.6033 36.1517 37.4972 36.3725 37.4589 36.608L38.1927 36.4343C38.1927 36.4343 37.7669 37.2421 38.0706 37.1895C38.3031 37.1353 38.5287 37.0572 38.7434 36.9566L45.84 37.7254" stroke="white" stroke-width="0.903643" stroke-linecap="round" stroke-linejoin="round"/>
<path id="Vector_60" d="M41.0697 29.291C41.0697 29.291 39.9058 30.0463 40.4579 30.1621C41.01 30.2778 41.6814 30.1042 41.4969 30.3357C41.2291 30.6199 40.9448 30.8895 40.6453 31.1435L37.9131 34.4338" stroke="white" stroke-width="0.903643" stroke-linecap="round" stroke-linejoin="round"/>
<path id="Vector_61" d="M40.458 30.1655C40.458 30.1655 41.1308 29.2366 42.6608 29.1787" stroke="white" stroke-width="0.903643" stroke-linecap="round" stroke-linejoin="round"/>
</g>
<path id="Vector_62" d="M48.2289 36.9997C48.2289 36.9997 49.2948 36.7695 49.4893 37.0912C49.6837 37.413 49.7802 38.1938 49.7802 38.5614C49.7802 38.9289 50.0641 39.5267 50.0215 40.0786C49.9789 40.6306 49.1018 41.227 48.8108 41.227C48.5199 41.227 48.527 39.5724 48.2289 38.9289C47.9309 38.2854 47.8911 37.3672 48.2289 36.9997Z" fill="white" stroke="#263238" stroke-width="0.903643" stroke-linecap="round" stroke-linejoin="round"/>
<path id="Vector_63" d="M48.9 41.2127C49.2492 41.1211 49.9759 40.5813 50.0199 40.0791C50.0695 39.5271 49.7786 38.9294 49.7786 38.5618C49.7786 38.1943 49.6806 37.4135 49.4876 37.0917C49.401 36.9477 49.1399 36.914 48.8773 36.9207C48.807 36.989 48.7542 37.0718 48.7232 37.1627C48.6922 37.2535 48.6837 37.35 48.6985 37.4444C48.7666 37.9708 49.3216 40.1087 49.1143 40.7011C49.0534 40.8754 48.9818 41.0462 48.9 41.2127Z" fill="white" stroke="#263238" stroke-width="0.903643" stroke-linecap="round" stroke-linejoin="round"/>
<path id="Vector_64" d="M49.4882 37.0985C49.4357 37.028 49.3562 36.9797 49.2668 36.9639C49.0835 37.2014 48.995 37.4929 49.017 37.7864C49.078 38.6629 49.2639 39.3656 49.3249 40.1249C49.3693 40.4587 49.3148 40.7976 49.1674 41.1037C49.5308 40.8977 49.9864 40.4817 50.019 40.0872C50.0687 39.5353 49.7777 38.9375 49.7777 38.57C49.7777 38.2024 49.6812 37.4135 49.4882 37.0985Z" fill="#263238" stroke="#263238" stroke-width="0.903643" stroke-linecap="round" stroke-linejoin="round"/>
</g>
</g>
</svg>
