<svg width="18" height="18" viewBox="0 0 18 18" fill="none" xmlns="http://www.w3.org/2000/svg">
<g id="class-notes_svgrepo.com" clip-path="url(#clip0_2495_53619)">
<g id="Group">
<g id="Group_2">
<g id="Group_3">
<g id="Group_4">
<path id="Vector" d="M10.4033 5.50541H2.60182C2.3859 5.50541 2.21094 5.33044 2.21094 5.11452C2.21094 4.89859 2.3859 4.72363 2.60182 4.72363H10.4033C10.6192 4.72363 10.7942 4.89859 10.7942 5.11452C10.7942 5.33044 10.6192 5.50541 10.4033 5.50541Z" fill="#394141"/>
</g>
<g id="Group_5">
<path id="Vector_2" d="M8.54105 7.25736H2.60182C2.3859 7.25736 2.21094 7.0824 2.21094 6.86647C2.21094 6.65055 2.3859 6.47559 2.60182 6.47559H8.54105C8.75693 6.47559 8.93194 6.65055 8.93194 6.86647C8.93194 7.0824 8.75688 7.25736 8.54105 7.25736Z" fill="#394141"/>
</g>
<g id="Group_6">
<path id="Vector_3" d="M4.56756 12.5132H2.60182C2.3859 12.5132 2.21094 12.3383 2.21094 12.1223C2.21094 11.9064 2.3859 11.7314 2.60182 11.7314H4.56756C4.78344 11.7314 4.95845 11.9064 4.95845 12.1223C4.95845 12.3382 4.78339 12.5132 4.56756 12.5132Z" fill="#394141"/>
</g>
<g id="Group_7">
<path id="Vector_4" d="M3.71543 14.2652H2.60182C2.3859 14.2652 2.21094 14.0902 2.21094 13.8743C2.21094 13.6584 2.3859 13.4834 2.60182 13.4834H3.71543C3.93131 13.4834 4.10632 13.6584 4.10632 13.8743C4.10632 14.0902 3.93131 14.2652 3.71543 14.2652Z" fill="#394141"/>
</g>
<path id="Vector_5" d="M17.3772 1.81277L16.4855 1.1479C16.261 0.980499 15.9849 0.910348 15.7078 0.950948C15.4307 0.99134 15.186 1.13717 15.0186 1.36164C15.0185 1.36174 15.0184 1.3619 15.0183 1.362L12.808 4.35776V1.38264C12.808 1.16672 12.633 0.991757 12.4171 0.991757H10.7972V0.390886C10.7972 0.174961 10.6222 0 10.4064 0C10.1904 0 10.0155 0.174961 10.0155 0.390886V0.991757H8.84677V0.390886C8.84677 0.174961 8.67181 0 8.45588 0C8.24001 0 8.06499 0.174961 8.06499 0.390886V0.991757H6.8964V0.390886C6.8964 0.174961 6.72144 0 6.50551 0C6.28959 0 6.11463 0.174961 6.11463 0.390886V0.991757H4.94609V0.390886C4.94609 0.174961 4.77107 0 4.5552 0C4.33927 0 4.16431 0.174961 4.16431 0.390886V0.991757H2.99572V0.390886C2.99572 0.174961 2.82071 0 2.60483 0C2.38891 0 2.21395 0.174961 2.21395 0.390886V0.991757H0.594011C0.378138 0.991757 0.203125 1.16672 0.203125 1.38264V17.6091C0.203125 17.825 0.378138 18 0.594011 18H12.4171C12.633 18 12.808 17.825 12.808 17.6091V9.80541L17.5907 3.28C17.5908 3.2799 17.5909 3.27985 17.591 3.27974C17.9364 2.81636 17.8405 2.15832 17.3772 1.81277ZM12.0262 17.2182H0.984898V1.77353H2.21395V2.3743C2.21395 2.59022 2.38891 2.76518 2.60483 2.76518C2.82071 2.76518 2.99572 2.59022 2.99572 2.3743V1.77353H4.16431V2.3743C4.16431 2.59022 4.33927 2.76518 4.5552 2.76518C4.77107 2.76518 4.94609 2.59022 4.94609 2.3743V1.77353H6.11468V2.3743C6.11468 2.59022 6.28964 2.76518 6.50557 2.76518C6.72149 2.76518 6.89645 2.59022 6.89645 2.3743V1.77353H8.06505V2.3743C8.06505 2.59022 8.24006 2.76518 8.45593 2.76518C8.67186 2.76518 8.84682 2.59022 8.84682 2.3743V1.77353H10.0155V2.3743C10.0155 2.59022 10.1905 2.76518 10.4064 2.76518C10.6223 2.76518 10.7973 2.59022 10.7973 2.3743V1.77353H12.0262V5.43045L9.98774 8.22753H2.60483C2.38891 8.22753 2.21395 8.40249 2.21395 8.61842C2.21395 8.83434 2.38891 9.0093 2.60483 9.0093H9.41798C9.41798 9.0093 7.19556 12.0589 7.19514 12.0595C7.19514 12.0595 7.19525 12.0595 7.19535 12.0595C7.17013 12.0946 7.15001 12.1342 7.13724 12.1779L6.24341 15.2357H2.60483C2.38891 15.2357 2.21395 15.4106 2.21395 15.6265C2.21395 15.8425 2.38891 16.0174 2.60483 16.0174C2.60483 16.0174 6.54054 16.0171 6.54262 16.0171L6.54252 16.017C6.61408 16.0159 6.68553 15.9955 6.74844 15.9548L9.67013 14.0666C9.71031 14.0407 9.74372 14.0083 9.77082 13.9722C9.77176 13.9709 12.0262 10.8781 12.0262 10.8781V17.2182H12.0262ZM7.72967 12.9373L8.77328 13.7155L7.20614 14.7283L7.72967 12.9373ZM9.37478 13.1889L8.05593 12.2054L14.2209 3.74641L15.5397 4.72983L9.37478 13.1889ZM16.0036 4.10055L14.6847 3.11714L15.1056 2.5527L16.4245 3.53622L16.0036 4.10055ZM16.9642 2.8124C16.9641 2.8125 16.964 2.81266 16.9639 2.81277L16.8918 2.90944L15.5729 1.92592L15.645 1.8293C15.6451 1.82919 15.6452 1.82909 15.6453 1.82898C15.6878 1.77191 15.7501 1.73481 15.8205 1.72454C15.891 1.71432 15.9611 1.73215 16.0181 1.77462L16.9098 2.4395C17.0276 2.52731 17.052 2.69461 16.9642 2.8124Z" fill="#394141"/>
</g>
</g>
</g>
</g>
<defs>
<clipPath id="clip0_2495_53619">
<rect width="18" height="18" fill="white"/>
</clipPath>
</defs>
</svg>
