<svg width="170" height="120" viewBox="0 0 170 120" fill="none" xmlns="http://www.w3.org/2000/svg">
<g id="currentIllo" clip-path="url(#clip0_2147_120839)">
<path id="Vector" d="M84.7696 55.2482C87.7619 55.2482 90.1876 52.8168 90.1876 49.8174C90.1876 46.8181 87.7619 44.3867 84.7696 44.3867C81.7773 44.3867 79.3516 46.8181 79.3516 49.8174C79.3516 52.8168 81.7773 55.2482 84.7696 55.2482Z" fill="#339999"/>
<path id="Vector_2" d="M25.5859 7.1417V58.8631C25.5874 60.1196 26.0861 61.3242 26.9725 62.2127C27.8589 63.1012 29.0607 63.601 30.3142 63.6025H165.269C166.523 63.601 167.724 63.1012 168.611 62.2127C169.497 61.3242 169.996 60.1196 169.997 58.8631V7.1417C169.996 5.88521 169.497 4.68062 168.611 3.79214C167.724 2.90367 166.523 2.40386 165.269 2.40234H30.3142C29.0607 2.40386 27.8589 2.90367 26.9725 3.79214C26.0861 4.68061 25.5874 5.88521 25.5859 7.1417ZM26.0027 7.1417C26.0027 5.99554 26.457 4.89632 27.2655 4.08586C28.0741 3.2754 29.1707 2.82009 30.3142 2.82009H137.14C145.744 2.82009 153.995 6.24594 160.079 12.344C166.163 18.442 169.581 26.7128 169.581 35.3367V58.8631C169.581 60.0093 169.126 61.1085 168.318 61.919C167.509 62.7294 166.413 63.1847 165.269 63.1847H30.3142C29.1707 63.1847 28.0741 62.7294 27.2655 61.919C26.457 61.1085 26.0027 60.0093 26.0027 58.8631V7.1417Z" fill="#3F3D56"/>
<path id="Vector_3" d="M27.1413 116.11L30.1643 116.11L31.6024 104.422L27.1406 104.422L27.1413 116.11Z" fill="#FFB6B6"/>
<path id="Vector_4" d="M27.0392 119.271L36.3354 119.27V119.152C36.3354 118.191 35.9541 117.268 35.2756 116.588C34.597 115.908 33.6767 115.526 32.7171 115.526H32.7169L31.0188 114.234L27.8506 115.526L27.0391 115.526L27.0392 119.271Z" fill="#2F2E41"/>
<path id="Vector_5" d="M13.9616 116.11L16.9846 116.11L18.4227 104.422L13.9609 104.422L13.9616 116.11Z" fill="#FFB6B6"/>
<path id="Vector_6" d="M13.8517 119.271L23.1479 119.27V119.152C23.1479 118.191 22.7666 117.268 22.0881 116.588C21.4095 115.908 20.4892 115.526 19.5296 115.526H19.5294L17.8313 114.234L14.6631 115.526L13.8516 115.526L13.8517 119.271Z" fill="#2F2E41"/>
<path id="Vector_7" d="M34.6717 52.4258C34.6717 52.4258 37.5803 61.3799 37.0435 62.5584C36.5066 63.737 35.5906 62.8188 36.5066 63.737C37.4226 64.6551 38.2222 63.6791 37.3644 65.2382C36.5066 66.7974 35.2071 79.6325 34.6355 80.2539C34.064 80.8752 33.2782 80.8919 33.9764 81.4956C34.6747 82.0993 35.5906 80.8752 34.6747 82.0993C33.7587 83.3235 31.3281 111.563 31.3281 111.563H26.5799C26.5799 111.563 25.3974 110.197 26.0668 109.308C26.7362 108.419 26.008 108.076 26.0668 107.482C26.1256 106.889 25.9029 105.608 25.8616 105.024C25.8202 104.44 25.0178 90.5249 26.9456 82.4866L23.4303 67.1809L19.1719 85.6799C19.1719 85.6799 21.1307 101.197 19.1719 106.185C19.1719 106.185 20.7512 107.503 20.0508 108.267C19.3504 109.031 18.7397 108.419 19.3504 109.031C19.961 109.643 18.4344 111.785 18.4344 111.785L13.2439 111.479L10.306 82.4866C10.306 82.4866 9.8108 79.463 10.306 78.9449C10.8013 78.4268 10.8013 80.2631 10.8013 78.4269V75.9785C10.8013 75.9785 11.0882 60.9199 11.1264 60.0331C11.1647 59.1463 14.8286 52.7195 14.8286 52.7195L34.6717 52.4258Z" fill="#2F2E41"/>
<path id="Vector_8" d="M34.6275 21.5V39.1562C34.0589 40.8658 33.7655 42.6553 33.7585 44.4574C33.7773 47.4589 34.4358 50.9179 34.4337 52.4301C34.4425 52.6307 34.4207 52.8314 34.3691 53.0254C31.4538 61.4953 16.027 53.7983 14.6245 53.0776C14.5578 53.0442 14.5224 53.0254 14.5224 53.0254L14.8267 43.5384L14.7746 40.8105L14.4141 22.0974L14.7371 21.8384L17.5669 19.5763L17.8441 19.3549L18.6943 20.5977L26.2733 20.0755L29.1657 19.2734L30.068 19.6411L34.1357 21.2995L34.6275 21.5Z" fill="#339999"/>
<path id="Vector_9" d="M61.0423 35.3734L55.7311 33.6133L54.3047 36.5142L59.9861 38.1748C60.1718 38.4702 60.436 38.7079 60.7491 38.861C61.0621 39.0142 61.4116 39.0768 61.7582 39.0418C62.1048 39.0067 62.4348 38.8755 62.7111 38.6628C62.9874 38.4501 63.199 38.1644 63.3222 37.8378C63.4453 37.5111 63.4751 37.1566 63.4082 36.8139C63.3414 36.4712 63.1804 36.154 62.9436 35.898C62.7067 35.6419 62.4033 35.4572 62.0674 35.3645C61.7316 35.2718 61.3765 35.2749 61.0423 35.3734Z" fill="#FFB6B6"/>
<path id="Vector_10" d="M29.4836 19.7812L29.4616 19.8694C29.0466 21.5336 28.5167 26.2871 29.6521 27.5706C31.1102 29.221 42.8882 34.259 45.228 33.8486C47.0427 33.5302 46.6691 33.6371 47.5373 34.5425C48.4056 35.4479 46.9645 35.6594 48.9012 35.8178C50.838 35.9763 50.8766 35.2329 51.2914 36.0573C51.7062 36.8817 51.3372 37.3785 52.6553 37.3326C53.9734 37.2867 54.3039 37.5333 54.7573 37.6144C55.2107 37.6954 58.0579 39.0481 58.0579 39.0481C58.0579 39.0481 59.2001 35.782 60.6376 34.5383C60.6376 34.5383 57.3406 34.1368 57.091 33.4357C56.8414 32.7346 57.0452 32.1145 56.1805 32.2414C55.3159 32.3683 54.866 33.3196 54.9854 32.1217C55.1049 30.9238 48.8762 28.5917 48.8762 28.5917C45.1172 24.8821 37.3942 22.3049 29.4836 19.7812Z" fill="#339999"/>
<path id="Vector_11" d="M12.6324 56.6565L12.3915 51.0546L9.17969 50.7461L9.64464 56.6596C9.43488 56.9384 9.30686 57.2703 9.27496 57.618C9.24307 57.9658 9.30858 58.3155 9.46412 58.6279C9.61966 58.9404 9.85906 59.2031 10.1554 59.3867C10.4518 59.5702 10.7933 59.6673 11.1417 59.6669C11.4901 59.6665 11.8314 59.5688 12.1274 59.3846C12.4234 59.2004 12.6622 58.9372 12.8171 58.6244C12.972 58.3116 13.0367 57.9617 13.0041 57.6141C12.9715 57.2665 12.8428 56.9348 12.6324 56.6565Z" fill="#FFB6B6"/>
<path id="Vector_12" d="M15.992 21.5508L15.902 21.5614C15.0648 21.6604 14.2643 21.9624 13.5698 22.4414C12.8753 22.9203 12.3077 23.5617 11.9162 24.31C10.8936 26.2617 7.65847 39.48 8.4506 41.2941C9.18933 42.9857 9.15877 42.5698 8.62194 43.7045C8.08511 44.8393 7.37693 43.5635 7.91574 45.4349C8.45454 47.3063 9.16172 47.079 8.53972 47.76C7.91771 48.441 7.32344 48.2713 7.83351 49.4904C8.34358 50.7095 8.23067 51.1066 8.31585 51.5603C8.40103 52.014 8.14844 55.1621 8.14844 55.1621C8.14844 55.1621 11.6002 55.0748 13.2701 55.9812C13.2701 55.9812 12.4757 52.7487 13.0413 52.2662C13.6068 51.7837 14.2576 51.7549 13.8327 50.9895C13.4078 50.2241 12.3609 50.1397 13.5207 49.827C14.6805 49.5143 14.6478 42.8498 14.6478 42.8498L15.992 21.5508Z" fill="#339999"/>
<path id="Vector_13" d="M24.2685 14.412C24.133 14.4433 23.9976 14.4705 23.8621 14.4914C23.4484 14.5595 23.0283 14.5812 22.6097 14.5561C21.5194 14.4974 20.4666 14.1372 19.5681 13.5154C18.6696 12.8935 17.9605 12.0344 17.5194 11.0332C17.0783 10.032 16.9225 8.92799 17.0693 7.84347C17.216 6.75896 17.6596 5.73638 18.3507 4.88914C19.0419 4.0419 19.9537 3.40311 20.985 3.04361C22.0163 2.68411 23.1268 2.61795 24.1933 2.85247C25.2598 3.08699 26.2407 3.61303 27.0272 4.37224C27.8136 5.13145 28.3749 6.09416 28.6488 7.15361C28.6613 7.20166 28.6738 7.24761 28.6842 7.29565C29.0397 8.82624 28.7743 10.4357 27.9463 11.7702C27.1182 13.1047 25.7953 14.0549 24.2685 14.412Z" fill="#FFB6B6"/>
<path id="Vector_14" d="M18.8111 13.7131C17.9889 13.0681 17.9091 11.8388 17.2075 11.0638C16.0344 9.7681 15.4832 8.37412 16.0977 6.83883C16.6412 5.48092 16.5257 3.81171 17.6963 2.93764C17.1214 2.72903 16.9861 2.29581 17.4934 2.28781C17.8355 2.28242 19.1107 2.93776 18.4971 2.12138C17.8835 1.30499 19.045 1.62724 18.9682 1.29306C18.8914 0.958889 18.3987 0.7738 18.1814 1.03869C18.8752 0.223957 20.3901 0.397658 20.8823 1.34837C21.5737 0.309699 22.3077 -0.405005 23.3657 0.254135C24.4049 0.901509 24.3913 1.70176 25.5087 1.50944C26.0341 1.41903 26.0837 2.41386 26.4426 2.80888C26.8015 3.20391 27.3261 3.50963 27.8498 3.41042C28.3736 3.31121 28.7741 2.65697 28.4806 2.21098L29.715 5.03376L30.2125 4.42209C31.003 4.93848 30.7434 6.28595 29.9477 6.79423C29.1519 7.30251 27.6333 6.12771 27.2015 6.96862C26.5207 8.29417 24.9239 7.62482 23.8272 6.68804C22.4973 5.55198 20.8921 9.0062 21.5327 10.6355C20.868 9.9813 19.6384 10.5242 19.294 11.3919C18.9497 12.2595 19.2022 13.237 19.4575 14.1351L18.8111 13.7131Z" fill="#2F2E41"/>
<path id="Vector_15" d="M100.946 33.2176H94.6903C94.528 33.2174 94.3724 33.1527 94.2576 33.0376C94.1429 32.9226 94.0783 32.7666 94.0781 32.6039V26.4105C94.0783 26.2478 94.1429 26.0918 94.2576 25.9768C94.3724 25.8618 94.528 25.7971 94.6903 25.7969H100.946C101.108 25.7971 101.264 25.8618 101.378 25.9768C101.493 26.0918 101.558 26.2478 101.558 26.4105V32.6039C101.558 32.7666 101.493 32.9226 101.378 33.0376C101.264 33.1527 101.108 33.2174 100.946 33.2176Z" fill="#F2F2F2"/>
<path id="Vector_16" d="M101.985 33.7391H95.7294C95.5671 33.7389 95.4115 33.6742 95.2967 33.5591C95.1819 33.4441 95.1174 33.2881 95.1172 33.1254V26.932C95.1174 26.7693 95.1819 26.6133 95.2967 26.4983C95.4115 26.3832 95.5671 26.3185 95.7294 26.3184H101.985C102.147 26.3185 102.303 26.3832 102.417 26.4983C102.532 26.6133 102.597 26.7693 102.597 26.932V33.1254C102.597 33.2881 102.532 33.4441 102.417 33.5591C102.303 33.6742 102.147 33.7389 101.985 33.7391Z" fill="#F2F2F2"/>
<path id="Vector_17" d="M94.8187 25.9785C94.6699 25.9785 94.5273 26.0377 94.4221 26.1432C94.3169 26.2486 94.2578 26.3916 94.2578 26.5407V32.4714C94.2578 32.6205 94.3169 32.7635 94.4221 32.8689C94.5273 32.9743 94.6699 33.0336 94.8187 33.0336H98.6436C99.3674 33.0336 100.062 32.7454 100.573 32.2324C101.085 31.7194 101.373 31.0236 101.373 30.2981V26.5407C101.373 26.3916 101.314 26.2486 101.208 26.1432C101.103 26.0377 100.961 25.9785 100.812 25.9785H94.8187Z" fill="white"/>
<path id="Vector_18" d="M99.4958 27.7782H96.132C96.1011 27.7782 96.0715 27.7659 96.0497 27.7441C96.0279 27.7222 96.0156 27.6925 96.0156 27.6616C96.0156 27.6306 96.0279 27.601 96.0497 27.5791C96.0715 27.5572 96.1011 27.5449 96.132 27.5449H99.4958C99.5267 27.5449 99.5563 27.5572 99.5781 27.5791C99.5999 27.601 99.6122 27.6306 99.6122 27.6616C99.6122 27.6925 99.5999 27.7222 99.5781 27.7441C99.5563 27.7659 99.5267 27.7782 99.4958 27.7782Z" fill="#F2F2F2"/>
<path id="Vector_19" d="M99.4958 30.2665H96.132C96.1011 30.2665 96.0715 30.2542 96.0497 30.2324C96.0279 30.2105 96.0156 30.1808 96.0156 30.1499C96.0156 30.1189 96.0279 30.0892 96.0497 30.0674C96.0715 30.0455 96.1011 30.0332 96.132 30.0332H99.4958C99.5267 30.0332 99.5563 30.0455 99.5781 30.0674C99.5999 30.0892 99.6122 30.1189 99.6122 30.1499C99.6122 30.1808 99.5999 30.2105 99.5781 30.2324C99.5563 30.2542 99.5267 30.2665 99.4958 30.2665Z" fill="#F2F2F2"/>
<path id="Vector_20" d="M100.861 29.0243H94.7648C94.7339 29.0243 94.7044 29.012 94.6825 28.9902C94.6607 28.9683 94.6484 28.9386 94.6484 28.9077C94.6484 28.8767 94.6607 28.8471 94.6825 28.8252C94.7044 28.8033 94.7339 28.791 94.7648 28.791H100.861C100.891 28.791 100.921 28.8033 100.943 28.8252C100.965 28.8471 100.977 28.8767 100.977 28.9077C100.977 28.9386 100.965 28.9683 100.943 28.9902C100.921 29.012 100.891 29.0243 100.861 29.0243Z" fill="#F2F2F2"/>
<path id="Vector_21" d="M100.92 31.2782H98.7179C98.6871 31.2782 98.6575 31.2659 98.6356 31.2441C98.6138 31.2222 98.6016 31.1925 98.6016 31.1616C98.6016 31.1306 98.6138 31.101 98.6356 31.0791C98.6575 31.0572 98.6871 31.0449 98.7179 31.0449H100.92C100.951 31.0449 100.981 31.0572 101.002 31.0791C101.024 31.101 101.036 31.1306 101.036 31.1616C101.036 31.1925 101.024 31.2222 101.002 31.2441C100.981 31.2659 100.951 31.2782 100.92 31.2782Z" fill="#F2F2F2"/>
<path id="Vector_22" d="M82.0838 37.094L82.0026 37.0538C77.2559 34.7016 72.1209 34.7038 66.3045 37.0602L66.1484 36.6729C72.048 34.283 77.269 34.2717 82.1056 36.6391C88.9122 34.0428 93.2879 29.6425 95.1123 23.5586L95.5115 23.6789C93.6401 29.9188 89.1509 34.4216 82.1685 37.062L82.0838 37.094Z" fill="#F2F2F2"/>
<path id="Vector_23" d="M101.88 37.0943L101.798 37.0559C97.133 34.8622 91.995 34.8642 86.0906 37.0627L85.9453 36.671C91.925 34.4445 97.143 34.4337 101.893 36.6394C109.514 33.5873 113.889 29.1946 114.898 23.582L115.309 23.6561C114.268 29.4406 109.778 33.9507 101.964 37.0609L101.88 37.0943Z" fill="#F2F2F2"/>
<path id="Vector_24" d="M117.488 36.8717L117.437 36.8495C113.593 35.1932 108.592 35.1967 101.699 36.8607L101.602 36.4546C108.556 34.7758 113.625 34.7718 117.55 36.4436C125.339 35.4889 129.585 31.2167 130.529 23.3848L130.943 23.4349C129.97 31.5045 125.587 35.8976 117.544 36.865L117.488 36.8717Z" fill="#F2F2F2"/>
<path id="Vector_25" d="M97.0655 24.5432C97.9862 24.5432 98.7326 23.795 98.7326 22.8722C98.7326 21.9493 97.9862 21.2012 97.0655 21.2012C96.1448 21.2012 95.3984 21.9493 95.3984 22.8722C95.3984 23.795 96.1448 24.5432 97.0655 24.5432Z" fill="#339999"/>
<path id="Vector_26" d="M115.823 24.5432C116.744 24.5432 117.49 23.795 117.49 22.8722C117.49 21.9493 116.744 21.2012 115.823 21.2012C114.903 21.2012 114.156 21.9493 114.156 22.8722C114.156 23.795 114.903 24.5432 115.823 24.5432Z" fill="#339999"/>
<path id="Vector_27" d="M130.823 24.3342C131.744 24.3342 132.49 23.586 132.49 22.6632C132.49 21.7403 131.744 20.9922 130.823 20.9922C129.903 20.9922 129.156 21.7403 129.156 22.6632C129.156 23.586 129.903 24.3342 130.823 24.3342Z" fill="#339999"/>
<path id="Vector_28" d="M84.3479 49.8216H66.8244C66.3697 49.8211 65.9338 49.6398 65.6123 49.3175C65.2907 48.9953 65.1099 48.5583 65.1094 48.1026V30.7522C65.1099 30.2965 65.2907 29.8595 65.6123 29.5373C65.9338 29.215 66.3697 29.0337 66.8244 29.0332H84.3479C84.8026 29.0337 85.2386 29.215 85.5601 29.5373C85.8816 29.8595 86.0625 30.2965 86.063 30.7522V48.1026C86.0625 48.5583 85.8816 48.9953 85.5601 49.3175C85.2386 49.6398 84.8026 49.8211 84.3479 49.8216Z" fill="#E6E6E6"/>
<path id="Vector_29" d="M81.4339 48.3607H63.9103C63.4556 48.3602 63.0197 48.1789 62.6982 47.8566C62.3767 47.5343 62.1958 47.0974 62.1953 46.6416V29.2913C62.1958 28.8355 62.3767 28.3986 62.6982 28.0763C63.0197 27.7541 63.4556 27.5728 63.9103 27.5723H81.4339C81.8886 27.5728 82.3245 27.7541 82.646 28.0763C82.9675 28.3986 83.1484 28.8355 83.1489 29.2913V46.6416C83.1484 47.0974 82.9675 47.5343 82.646 47.8566C82.3245 48.1789 81.8886 48.3602 81.4339 48.3607Z" fill="#E6E6E6"/>
<path id="Vector_30" d="M67.1706 28.084C65.9857 28.084 64.8494 28.5558 64.0116 29.3955C63.1738 30.2353 62.7031 31.3743 62.7031 32.5619V46.273C62.7031 46.4799 62.7438 46.6847 62.8227 46.8758C62.9017 47.0668 63.0174 47.2405 63.1633 47.3867C63.3092 47.533 63.4825 47.649 63.6731 47.7281C63.8637 47.8073 64.0681 47.848 64.2744 47.848H74.9896C75.9936 47.848 76.9877 47.6498 77.9152 47.2647C78.8428 46.8796 79.6856 46.3151 80.3955 45.6036C81.1054 44.892 81.6686 44.0472 82.0528 43.1175C82.437 42.1878 82.6347 41.1913 82.6347 40.185V29.6589C82.6347 29.2412 82.4692 28.8406 82.1745 28.5453C81.8798 28.2499 81.4802 28.084 81.0634 28.084H67.1706Z" fill="white"/>
<path id="Vector_31" d="M77.3666 33.1262H67.9432C67.8568 33.1262 67.7738 33.0918 67.7127 33.0305C67.6515 32.9692 67.6172 32.8861 67.6172 32.7994C67.6172 32.7128 67.6515 32.6297 67.7127 32.5684C67.7738 32.5071 67.8568 32.4727 67.9432 32.4727H77.3666C77.453 32.4727 77.536 32.5071 77.5971 32.5684C77.6582 32.6297 77.6926 32.7128 77.6926 32.7994C77.6926 32.8861 77.6582 32.9692 77.5971 33.0305C77.536 33.0918 77.453 33.1262 77.3666 33.1262Z" fill="#E6E6E6"/>
<path id="Vector_32" d="M77.3674 40.095H67.944C67.9012 40.0951 67.8587 40.0867 67.819 40.0704C67.7794 40.054 67.7433 40.0299 67.713 39.9996C67.6826 39.9692 67.6585 39.9332 67.6421 39.8934C67.6257 39.8537 67.6172 39.8112 67.6172 39.7682C67.6172 39.7252 67.6257 39.6827 67.6421 39.643C67.6585 39.6032 67.6826 39.5672 67.713 39.5368C67.7433 39.5065 67.7794 39.4824 67.819 39.466C67.8587 39.4497 67.9012 39.4413 67.944 39.4414H77.3674C77.4537 39.4416 77.5364 39.4761 77.5974 39.5374C77.6584 39.5987 77.6926 39.6817 77.6926 39.7682C77.6926 39.8547 77.6584 39.9377 77.5974 39.999C77.5364 40.0603 77.4537 40.0948 77.3674 40.095Z" fill="#E6E6E6"/>
<path id="Vector_33" d="M81.1917 36.6126H64.1151C64.0286 36.6126 63.9457 36.5781 63.8845 36.5169C63.8234 36.4556 63.7891 36.3724 63.7891 36.2858C63.7891 36.1991 63.8234 36.116 63.8845 36.0547C63.9457 35.9934 64.0286 35.959 64.1151 35.959H81.1917C81.2781 35.959 81.3611 35.9934 81.4222 36.0547C81.4834 36.116 81.5177 36.1991 81.5177 36.2858C81.5177 36.3724 81.4834 36.4556 81.4222 36.5169C81.3611 36.5781 81.2781 36.6126 81.1917 36.6126Z" fill="#E6E6E6"/>
<path id="Vector_34" d="M81.37 42.927H75.201C75.1582 42.927 75.1158 42.9186 75.0763 42.9022C75.0367 42.8857 75.0008 42.8617 74.9705 42.8313C74.9402 42.801 74.9162 42.7649 74.8998 42.7253C74.8834 42.6856 74.875 42.6431 74.875 42.6002C74.875 42.5573 74.8834 42.5148 74.8998 42.4752C74.9162 42.4355 74.9402 42.3995 74.9705 42.3692C75.0008 42.3388 75.0367 42.3147 75.0763 42.2983C75.1158 42.2819 75.1582 42.2734 75.201 42.2734H81.37C81.4565 42.2734 81.5394 42.3079 81.6005 42.3692C81.6617 42.4304 81.696 42.5136 81.696 42.6002C81.696 42.6869 81.6617 42.77 81.6005 42.8313C81.5394 42.8926 81.4565 42.927 81.37 42.927Z" fill="#E6E6E6"/>
<path id="Vector_35" d="M123.032 32.3816H116.776C116.614 32.3815 116.458 32.3167 116.344 32.2017C116.229 32.0867 116.164 31.9307 116.164 31.768V25.5746C116.164 25.4119 116.229 25.2559 116.344 25.1409C116.458 25.0258 116.614 24.9611 116.776 24.9609H123.032C123.194 24.9611 123.349 25.0258 123.464 25.1409C123.579 25.2559 123.644 25.4119 123.644 25.5746V31.768C123.644 31.9307 123.579 32.0867 123.464 32.2017C123.349 32.3167 123.194 32.3815 123.032 32.3816Z" fill="#F2F2F2"/>
<path id="Vector_36" d="M124.078 32.9031H117.823C117.661 32.9029 117.505 32.8382 117.39 32.7232C117.276 32.6082 117.211 32.4522 117.211 32.2895V26.0961C117.211 25.9334 117.276 25.7774 117.39 25.6624C117.505 25.5473 117.661 25.4826 117.823 25.4824H124.078C124.241 25.4826 124.396 25.5473 124.511 25.6624C124.626 25.7774 124.69 25.9334 124.691 26.0961V32.2895C124.69 32.4522 124.626 32.6081 124.511 32.7232C124.396 32.8382 124.241 32.9029 124.078 32.9031Z" fill="#F2F2F2"/>
<path id="Vector_37" d="M116.912 25.1426C116.764 25.1426 116.621 25.2018 116.516 25.3072C116.411 25.4127 116.352 25.5557 116.352 25.7048V31.6354C116.352 31.7845 116.411 31.9275 116.516 32.033C116.621 32.1384 116.764 32.1976 116.912 32.1976H120.737C121.461 32.1976 122.155 31.9094 122.667 31.3964C123.179 30.8834 123.466 30.1877 123.466 29.4622V25.7048C123.466 25.5557 123.407 25.4127 123.302 25.3072C123.197 25.2018 123.054 25.1426 122.906 25.1426H116.912Z" fill="white"/>
<path id="Vector_38" d="M121.582 26.9423H118.218C118.187 26.9423 118.157 26.93 118.136 26.9081C118.114 26.8863 118.102 26.8566 118.102 26.8256C118.102 26.7947 118.114 26.765 118.136 26.7432C118.157 26.7213 118.187 26.709 118.218 26.709H121.582C121.613 26.709 121.642 26.7213 121.664 26.7432C121.686 26.765 121.698 26.7947 121.698 26.8256C121.698 26.8566 121.686 26.8863 121.664 26.9081C121.642 26.93 121.613 26.9423 121.582 26.9423Z" fill="#F2F2F2"/>
<path id="Vector_39" d="M121.582 29.4306H118.218C118.187 29.4306 118.157 29.4183 118.136 29.3964C118.114 29.3745 118.102 29.3449 118.102 29.3139C118.102 29.283 118.114 29.2533 118.136 29.2314C118.157 29.2096 118.187 29.1973 118.218 29.1973H121.582C121.613 29.1973 121.642 29.2096 121.664 29.2314C121.686 29.2533 121.698 29.283 121.698 29.3139C121.698 29.3449 121.686 29.3745 121.664 29.3964C121.642 29.4183 121.613 29.4306 121.582 29.4306Z" fill="#F2F2F2"/>
<path id="Vector_40" d="M122.946 28.1884H116.851C116.82 28.1884 116.79 28.1761 116.768 28.1542C116.747 28.1323 116.734 28.1027 116.734 28.0717C116.734 28.0408 116.747 28.0111 116.768 27.9892C116.79 27.9674 116.82 27.9551 116.851 27.9551H122.946C122.977 27.9551 123.007 27.9674 123.029 27.9892C123.051 28.0111 123.063 28.0408 123.063 28.0717C123.063 28.1027 123.051 28.1323 123.029 28.1542C123.007 28.1761 122.977 28.1884 122.946 28.1884Z" fill="#F2F2F2"/>
<path id="Vector_41" d="M123.014 30.4423H120.812C120.781 30.4423 120.751 30.43 120.729 30.4081C120.708 30.3863 120.695 30.3566 120.695 30.3256C120.695 30.2947 120.708 30.265 120.729 30.2432C120.751 30.2213 120.781 30.209 120.812 30.209H123.014C123.045 30.209 123.074 30.2213 123.096 30.2432C123.118 30.265 123.13 30.2947 123.13 30.3256C123.13 30.3566 123.118 30.3863 123.096 30.4081C123.074 30.43 123.045 30.4423 123.014 30.4423Z" fill="#F2F2F2"/>
<path id="Vector_42" d="M51.328 116.38C51.2311 116.385 51.1352 116.359 51.0533 116.307C50.9714 116.255 50.9074 116.179 50.87 116.09C50.8326 116 50.8236 115.901 50.8442 115.806C50.8648 115.711 50.9141 115.625 50.9853 115.559L51.0177 115.43C51.0134 115.419 51.0091 115.409 51.0048 115.399C50.9072 115.167 50.7437 114.971 50.5348 114.832C50.3259 114.694 50.0809 114.621 49.8306 114.622C49.5803 114.623 49.3359 114.698 49.128 114.838C48.9202 114.977 48.7581 115.175 48.6622 115.407C48.2791 116.332 47.7913 117.259 47.6712 118.237C47.6183 118.669 47.6406 119.107 47.7372 119.532C46.8373 117.564 46.37 115.426 46.367 113.261C46.3668 112.718 46.3969 112.175 46.4572 111.636C46.507 111.193 46.5761 110.754 46.6644 110.317C47.1468 107.951 48.1823 105.732 49.6861 103.845C50.4139 103.446 51.0025 102.834 51.3725 102.091C51.5066 101.823 51.6013 101.538 51.6538 101.243C51.5717 101.254 51.3443 100.001 51.4062 99.9241C51.2918 99.75 51.087 99.6635 50.962 99.4937C50.3406 98.6492 49.4843 98.7966 49.0373 99.9443C48.0825 100.427 48.0732 101.228 48.6591 101.999C49.0319 102.489 49.0831 103.152 49.4102 103.677C49.3765 103.72 49.3415 103.762 49.3079 103.805C48.6928 104.598 48.1567 105.449 47.7072 106.347C47.8165 105.342 47.6861 104.324 47.3266 103.379C46.9623 102.498 46.2795 101.756 45.6782 100.995C45.5192 100.79 45.3032 100.638 45.0576 100.556C44.812 100.474 44.5478 100.468 44.2983 100.537C44.0489 100.606 43.8254 100.747 43.6562 100.943C43.487 101.139 43.3796 101.381 43.3476 101.639C43.3464 101.65 43.3452 101.661 43.344 101.672C43.4333 101.723 43.5208 101.777 43.6063 101.833C43.7138 101.905 43.797 102.008 43.8452 102.128C43.8934 102.249 43.9042 102.381 43.8762 102.507C43.8483 102.633 43.7828 102.749 43.6885 102.837C43.5942 102.926 43.4754 102.984 43.3477 103.003L43.3346 103.005C43.3664 103.328 43.4227 103.648 43.5028 103.962C42.7314 106.952 44.3968 108.041 46.7748 108.09C46.8273 108.117 46.8785 108.144 46.931 108.17C46.4794 109.452 46.1962 110.788 46.0884 112.144C46.0274 112.944 46.031 113.748 46.0992 114.547L46.0951 114.519C45.9228 113.63 45.4498 112.828 44.7559 112.248C43.7253 111.399 42.2693 111.087 41.1574 110.405C41.0393 110.329 40.9019 110.288 40.7615 110.288C40.6211 110.288 40.4835 110.327 40.3649 110.403C40.2464 110.478 40.1519 110.586 40.0925 110.714C40.0331 110.841 40.0114 110.983 40.0298 111.123L40.0344 111.153C40.2001 111.22 40.3615 111.298 40.5176 111.386C40.6069 111.436 40.6943 111.49 40.7798 111.547C40.8873 111.619 40.9706 111.722 41.0187 111.842C41.0669 111.962 41.0777 112.094 41.0498 112.22C41.0218 112.347 40.9564 112.462 40.8621 112.551C40.7678 112.639 40.6489 112.697 40.5212 112.717L40.5081 112.719C40.4987 112.72 40.4906 112.722 40.4812 112.723C40.7644 113.401 41.1619 114.024 41.6562 114.567C42.1386 117.177 44.2102 117.425 46.4262 116.665H46.4276C46.6707 117.724 47.023 118.755 47.4787 119.741H51.2339C51.2474 119.699 51.2595 119.656 51.2716 119.614C50.924 119.636 50.5751 119.615 50.2325 119.552C50.5111 119.209 50.7897 118.864 51.0684 118.521C51.0746 118.515 51.0804 118.508 51.0859 118.501C51.2272 118.326 51.3699 118.152 51.5112 117.976L51.5113 117.976C51.5188 117.438 51.4571 116.902 51.328 116.38Z" fill="#F2F2F2"/>
<path id="Vector_43" d="M1.09816e-06 119.752C-9.60256e-05 119.785 0.00625012 119.818 0.0186788 119.848C0.0311074 119.878 0.0493713 119.905 0.0724192 119.928C0.0954671 119.952 0.122846 119.97 0.152977 119.982C0.183109 119.995 0.2154 120.001 0.247994 120.001H53.0301C53.0959 120.001 53.1589 119.975 53.2054 119.928C53.2519 119.882 53.2781 119.818 53.2781 119.752C53.2781 119.687 53.2519 119.623 53.2054 119.577C53.1589 119.53 53.0959 119.504 53.0301 119.504H0.247994C0.2154 119.504 0.183109 119.51 0.152977 119.523C0.122846 119.535 0.0954701 119.553 0.0724224 119.576C0.0493747 119.6 0.031111 119.627 0.0186819 119.657C0.00625291 119.687 -9.49192e-05 119.72 1.09816e-06 119.752Z" fill="#CCCCCC"/>
<path id="Vector_44" d="M22.6094 14.5569L23.8618 14.4922C23.448 14.5603 23.0279 14.582 22.6094 14.5569Z" fill="#F2F2F2"/>
<path id="Vector_45" d="M30.0714 19.6414L29.8651 19.9045L29.3108 20.6105L24.5242 26.7117L17.5703 19.5766L17.8475 19.3552L19.3228 16.2116L26.9018 15.6895L29.1691 19.2737L30.0714 19.6414Z" fill="#3F3D56"/>
</g>
<defs>
<clipPath id="clip0_2147_120839">
<rect width="170" height="120" fill="white"/>
</clipPath>
</defs>
</svg>
