<svg width="56" height="56" viewBox="0 0 56 56" fill="none" xmlns="http://www.w3.org/2000/svg">
<rect width="56" height="56" rx="28" fill="#F8D0D0"/>
<path d="M28.3097 16.334H25.0243C23.9403 16.334 23.0657 16.334 22.3577 16.3913C21.6297 16.4513 20.9897 16.578 20.3977 16.8793C19.4562 17.3585 18.6907 18.1235 18.211 19.0647C17.9097 19.6567 17.7843 20.2967 17.7243 21.0247C17.667 21.7327 17.667 22.6073 17.667 23.6913V32.31C17.667 33.394 17.667 34.2687 17.7243 34.9767C17.7843 35.7047 17.911 36.3447 18.2123 36.9367C18.6915 37.8781 19.4565 38.6436 20.3977 39.1233C20.9897 39.4247 21.6297 39.55 22.3577 39.61C23.0657 39.6673 23.9403 39.6673 25.0243 39.6673H28.3097C29.3937 39.6673 30.2683 39.6673 30.9763 39.61C31.7043 39.55 32.3443 39.4233 32.9363 39.122C33.8778 38.6428 34.6433 37.8778 35.123 36.9367C35.4243 36.3447 35.5497 35.7047 35.6097 34.9767C35.667 34.2687 35.667 33.394 35.667 32.31V32.0007C35.667 31.7354 35.5616 31.4811 35.3741 31.2935C35.1866 31.106 34.9322 31.0007 34.667 31.0007C34.4018 31.0007 34.1474 31.106 33.9599 31.2935C33.7723 31.4811 33.667 31.7354 33.667 32.0007V32.2673C33.667 33.4033 33.667 34.1967 33.6163 34.814C33.5657 35.418 33.4737 35.766 33.3403 36.03C33.0523 36.594 32.5937 37.0527 32.0297 37.3407C31.7657 37.474 31.4177 37.5673 30.8123 37.6167C30.1963 37.666 29.4043 37.6673 28.267 37.6673H25.067C23.931 37.6673 23.1377 37.6673 22.5203 37.6167C21.9163 37.566 21.5683 37.474 21.3057 37.3407C20.7409 37.0533 20.2816 36.5945 19.9937 36.03C19.8603 35.766 19.767 35.418 19.7177 34.8127C19.6683 34.1967 19.667 33.4033 19.667 32.2673V23.734C19.667 22.598 19.667 21.8047 19.7177 21.1873C19.767 20.5833 19.8603 20.2353 19.9937 19.9727C20.2814 19.4077 20.7407 18.9484 21.3057 18.6607C21.5683 18.5273 21.9163 18.434 22.5217 18.3847C23.1377 18.3353 23.931 18.334 25.067 18.334H28.267C29.4043 18.334 30.1963 18.334 30.8137 18.3847C31.4177 18.434 31.7657 18.5273 32.0297 18.6607C32.5937 18.9487 33.0523 19.4073 33.3403 19.9727C33.4737 20.2353 33.567 20.5833 33.6163 21.1887C33.6657 21.8047 33.667 22.598 33.667 23.734V24.0007C33.667 24.2659 33.7723 24.5202 33.9599 24.7078C34.1474 24.8953 34.4018 25.0007 34.667 25.0007C34.9322 25.0007 35.1866 24.8953 35.3741 24.7078C35.5616 24.5202 35.667 24.2659 35.667 24.0007V23.6913C35.667 22.6073 35.667 21.7327 35.6097 21.0247C35.5497 20.2967 35.423 19.6567 35.1217 19.0647C34.6425 18.1232 33.8775 17.3577 32.9363 16.878C32.3443 16.5767 31.7043 16.4513 30.9763 16.3913C30.2683 16.334 29.3937 16.334 28.3097 16.334Z" fill="#8A2A2A"/>
<path d="M28.6264 23.2929C28.718 23.1946 28.8284 23.1158 28.9511 23.0612C29.0737 23.0065 29.2061 22.9771 29.3404 22.9748C29.4747 22.9724 29.6081 22.9971 29.7326 23.0474C29.8571 23.0977 29.9702 23.1725 30.0652 23.2675C30.1601 23.3625 30.235 23.4756 30.2853 23.6001C30.3356 23.7246 30.3603 23.858 30.3579 23.9923C30.3555 24.1265 30.3261 24.2589 30.2715 24.3816C30.2168 24.5043 30.138 24.6147 30.0398 24.7062L27.7464 26.9996H38.6664C38.9317 26.9996 39.186 27.1049 39.3735 27.2924C39.5611 27.48 39.6664 27.7343 39.6664 27.9996C39.6664 28.2648 39.5611 28.5191 39.3735 28.7067C39.186 28.8942 38.9317 28.9996 38.6664 28.9996H27.7464L30.0398 31.2929C30.138 31.3844 30.2168 31.4948 30.2715 31.6175C30.3261 31.7402 30.3555 31.8726 30.3579 32.0069C30.3603 32.1411 30.3356 32.2745 30.2853 32.399C30.235 32.5235 30.1601 32.6366 30.0652 32.7316C29.9702 32.8266 29.8571 32.9014 29.7326 32.9517C29.6081 33.002 29.4747 33.0267 29.3404 33.0243C29.2061 33.022 29.0737 32.9926 28.9511 32.9379C28.8284 32.8833 28.718 32.8045 28.6264 32.7062L24.6264 28.7062C24.4392 28.5187 24.334 28.2646 24.334 27.9996C24.334 27.7346 24.4392 27.4804 24.6264 27.2929L28.6264 23.2929Z" fill="#8A2A2A"/>
</svg>
