<svg width="24" height="25" viewBox="0 0 24 25" fill="none" xmlns="http://www.w3.org/2000/svg">
<path d="M21.25 12.5C21.25 14.9533 20.2754 17.306 18.5407 19.0407C16.806 20.7754 14.4533 21.75 12 21.75V23.25C17.937 23.25 22.75 18.437 22.75 12.5H21.25ZM12 21.75C9.54675 21.75 7.19397 20.7754 5.45926 19.0407C3.72455 17.306 2.75 14.9533 2.75 12.5H1.25C1.25 18.437 6.063 23.25 12 23.25V21.75ZM2.75 12.5C2.75 10.0467 3.72455 7.69397 5.45926 5.95926C7.19397 4.22455 9.54675 3.25 12 3.25V1.75C6.063 1.75 1.25 6.563 1.25 12.5H2.75ZM15.5 14.75C13.975 14.75 12.5125 14.1442 11.4341 13.0659C10.3558 11.9875 9.75 10.525 9.75 9H8.25C8.25 10.9228 9.01384 12.7669 10.3735 14.1265C11.7331 15.4862 13.5772 16.25 15.5 16.25V14.75ZM20.425 11.969C19.9133 12.8176 19.191 13.5197 18.3281 14.0069C17.4652 14.4942 16.491 14.7501 15.5 14.75V16.25C16.7494 16.2504 17.9777 15.9279 19.0657 15.3138C20.1537 14.6997 21.0646 13.8148 21.71 12.745L20.425 11.969ZM9.75 9C9.74986 8.00903 10.0058 7.03483 10.4931 6.17193C10.9803 5.30902 11.6824 4.58669 12.531 4.075L11.755 2.791C10.6854 3.43628 9.80058 4.34701 9.18649 5.43486C8.57239 6.52271 8.2498 7.75078 8.25 9H9.75ZM12 3.25C11.9497 3.24903 11.9002 3.23811 11.8542 3.21785C11.8082 3.1976 11.7666 3.16842 11.732 3.132C11.6898 3.08965 11.6613 3.03568 11.65 2.977C11.646 2.946 11.648 2.856 11.755 2.791L12.531 4.075C13.034 3.771 13.196 3.214 13.137 2.776C13.075 2.321 12.717 1.75 12 1.75V3.25ZM21.71 12.745C21.644 12.852 21.554 12.854 21.523 12.85C21.4643 12.8387 21.4103 12.8102 21.368 12.768C21.3316 12.7334 21.3024 12.6918 21.2821 12.6458C21.2619 12.5998 21.251 12.5503 21.25 12.5H22.75C22.75 11.783 22.179 11.425 21.724 11.363C21.286 11.304 20.729 11.466 20.425 11.969L21.71 12.745Z" fill="#414A4B"/>
</svg>
