<svg width="33" height="32" viewBox="0 0 33 32" fill="none" xmlns="http://www.w3.org/2000/svg">
<path d="M16.4974 27.6667C13.4032 27.6667 10.4357 26.4375 8.24782 24.2496C6.05989 22.0617 4.83073 19.0942 4.83073 16C4.83073 12.9058 6.05989 9.93837 8.24782 7.75044C10.4357 5.56252 13.4032 4.33335 16.4974 4.33335C19.5916 4.33335 22.559 5.56252 24.747 7.75044C26.9349 9.93837 28.1641 12.9058 28.1641 16C28.1641 19.0942 26.9349 22.0617 24.747 24.2496C22.559 26.4375 19.5916 27.6667 16.4974 27.6667ZM16.4974 29.3334C20.0336 29.3334 23.425 27.9286 25.9255 25.4281C28.426 22.9276 29.8307 19.5362 29.8307 16C29.8307 12.4638 28.426 9.07241 25.9255 6.57193C23.425 4.07145 20.0336 2.66669 16.4974 2.66669C12.9612 2.66669 9.56979 4.07145 7.06931 6.57193C4.56882 9.07241 3.16406 12.4638 3.16406 16C3.16406 19.5362 4.56882 22.9276 7.06931 25.4281C9.56979 27.9286 12.9612 29.3334 16.4974 29.3334Z" fill="black"/>
<path d="M9.82812 20.1667C9.82812 20.3877 9.91592 20.5996 10.0722 20.7559C10.2285 20.9122 10.4404 21 10.6615 21H22.3281C22.5491 21 22.7611 20.9122 22.9174 20.7559C23.0737 20.5996 23.1615 20.3877 23.1615 20.1667C23.1615 19.9457 23.0737 19.7337 22.9174 19.5774C22.7611 19.4211 22.5491 19.3333 22.3281 19.3333H10.6615C10.4404 19.3333 10.2285 19.4211 10.0722 19.5774C9.91592 19.7337 9.82812 19.9457 9.82812 20.1667ZM14.8281 13.5C14.8281 12.12 14.0815 11 13.1615 11C12.2415 11 11.4948 12.12 11.4948 13.5C11.4948 14.88 12.2415 16 13.1615 16C14.0815 16 14.8281 14.88 14.8281 13.5ZM21.4948 13.5C21.4948 12.12 20.7481 11 19.8281 11C18.9081 11 18.1615 12.12 18.1615 13.5C18.1615 14.88 18.9081 16 19.8281 16C20.7481 16 21.4948 14.88 21.4948 13.5Z" fill="black"/>
</svg>
