<svg width="296" height="200" viewBox="0 0 296 200" fill="none" xmlns="http://www.w3.org/2000/svg">
<g clip-path="url(#clip0_2229_17669)">
<path d="M264.809 195.255C258.212 200.008 249.663 200.246 241.399 199.662C240.245 199.581 239.099 199.485 237.964 199.382C237.957 199.381 237.948 199.381 237.941 199.379C237.887 199.374 237.832 199.369 237.78 199.366C237.546 199.344 237.311 199.322 237.079 199.3L237.134 199.405L237.306 199.729C237.244 199.621 237.182 199.514 237.121 199.406C237.102 199.373 237.082 199.341 237.064 199.308C234.923 195.583 232.8 191.72 232.258 187.466C231.698 183.051 233.272 178.051 237.158 175.881C237.667 175.597 238.207 175.371 238.767 175.207C238.999 175.136 239.235 175.079 239.473 175.029C240.931 174.705 242.448 174.775 243.869 175.232C245.29 175.69 246.564 176.517 247.56 177.63C248.555 178.742 249.236 180.1 249.533 181.563C249.829 183.026 249.731 184.542 249.248 185.955C252.542 182.576 251.928 177.096 250.791 172.515C249.653 167.935 248.274 162.838 250.59 158.724C251.878 156.434 254.142 155.014 256.682 154.441C256.76 154.424 256.838 154.408 256.916 154.393C259.944 153.78 263.091 154.331 265.729 155.937C270.587 158.999 273.083 164.803 273.893 170.489C275.197 179.639 272.31 189.851 264.809 195.255Z" fill="#F2F2F2"/>
<path d="M262.686 180.587C262.494 182.605 262.009 184.585 261.247 186.463C260.544 188.125 259.596 189.673 258.435 191.055C256.022 193.879 252.966 196.083 249.524 197.481C246.921 198.547 244.193 199.28 241.405 199.662C240.252 199.581 239.106 199.485 237.971 199.382C237.964 199.38 237.955 199.381 237.948 199.379C237.893 199.374 237.839 199.369 237.786 199.366C237.552 199.344 237.318 199.322 237.086 199.3L237.14 199.404L237.312 199.729C237.251 199.62 237.189 199.514 237.127 199.405C237.109 199.373 237.088 199.34 237.07 199.307C239.16 197.226 240.72 194.673 241.62 191.864C242.52 189.055 242.734 186.071 242.243 183.162C241.729 180.274 240.541 177.548 238.773 175.207C239.006 175.136 239.241 175.079 239.48 175.028C240.151 175.946 240.74 176.922 241.24 177.944C243.033 181.589 243.605 185.714 242.872 189.709C242.189 193.324 240.49 196.669 237.973 199.352C238.193 199.337 238.416 199.319 238.634 199.299C242.759 198.95 246.876 198.063 250.617 196.246C253.815 194.731 256.592 192.453 258.702 189.612C260.968 186.487 261.966 182.728 262.138 178.908C262.27 174.792 261.839 170.677 260.856 166.678C259.903 162.6 258.454 158.654 256.542 154.928C256.5 154.844 256.491 154.746 256.518 154.655C256.545 154.564 256.607 154.488 256.689 154.441C256.757 154.395 256.842 154.377 256.923 154.393C256.963 154.403 256.999 154.423 257.031 154.449C257.062 154.476 257.087 154.51 257.103 154.547C257.339 155.008 257.57 155.468 257.793 155.934C259.647 159.813 261.013 163.908 261.857 168.124C262.677 172.191 263.115 176.445 262.686 180.587Z" fill="white"/>
<path d="M13.2019 63.5693C13.0055 63.5691 12.8108 63.5323 12.6279 63.4609C12.332 63.3472 12.0777 63.1462 11.8988 62.8846C11.7199 62.623 11.6248 62.3132 11.6261 61.9962V45.5797C11.6255 45.0241 11.4045 44.4913 11.0116 44.0984C10.6187 43.7055 10.0859 43.4844 9.53026 43.4838H6.16853C4.77958 43.4822 3.44797 42.9298 2.46583 41.9477C1.48369 40.9655 0.931244 39.6339 0.929688 38.2449V5.23884C0.931245 3.84989 1.48369 2.51828 2.46583 1.53614C3.44797 0.554006 4.77958 0.00155667 6.16853 0H124.746C126.135 0.00155851 127.467 0.554006 128.449 1.53614C129.431 2.51828 129.984 3.84989 129.985 5.23884V38.2449C129.984 39.6339 129.431 40.9655 128.449 41.9476C127.467 42.9298 126.135 43.4822 124.746 43.4838H33.2211C32.9306 43.4841 32.6433 43.5447 32.3774 43.6617C32.1115 43.7787 31.8727 43.9495 31.6761 44.1635L14.3561 63.0582C14.2098 63.219 14.0317 63.3475 13.8329 63.4355C13.6342 63.5235 13.4192 63.5691 13.2019 63.5693ZM6.16853 0.69808C4.96467 0.699439 3.81049 1.17828 2.95923 2.02954C2.10796 2.8808 1.62913 4.03497 1.62777 5.23884V38.2449C1.62913 39.4488 2.10797 40.603 2.95923 41.4543C3.81049 42.3055 4.96467 42.7844 6.16853 42.7857H9.53026C10.271 42.7865 10.9812 43.0812 11.505 43.605C12.0288 44.1288 12.3234 44.839 12.3242 45.5797V61.9962C12.3242 62.1722 12.3774 62.3441 12.4767 62.4893C12.5761 62.6346 12.717 62.7464 12.881 62.8102C13.045 62.874 13.2245 62.8868 13.3959 62.8468C13.5673 62.8069 13.7226 62.7161 13.8415 62.5864L31.1615 43.6917C31.4236 43.4065 31.7419 43.1788 32.0964 43.0228C32.4509 42.8669 32.8339 42.7861 33.2211 42.7857H124.746C125.95 42.7844 127.104 42.3055 127.956 41.4543C128.807 40.603 129.286 39.4488 129.287 38.2449V5.23884C129.286 4.03497 128.807 2.8808 127.956 2.02954C127.104 1.17828 125.95 0.69944 124.746 0.69808H6.16853Z" fill="#CCCCCC"/>
<path d="M13.7795 14.8656C16.3113 14.8656 18.3637 12.8132 18.3637 10.2815C18.3637 7.74968 16.3113 5.69727 13.7795 5.69727C11.2477 5.69727 9.19531 7.74968 9.19531 10.2815C9.19531 12.8132 11.2477 14.8656 13.7795 14.8656Z" fill="#CCCCCC"/>
<path d="M119.399 35.6471H11.5181C11.1968 35.6475 10.8786 35.5846 10.5816 35.4619C10.2847 35.3392 10.0148 35.1591 9.78744 34.9321C9.5601 34.705 9.37975 34.4353 9.2567 34.1385C9.13365 33.8417 9.07031 33.5235 9.07031 33.2022C9.07031 32.8809 9.13365 32.5628 9.2567 32.2659C9.37975 31.9691 9.5601 31.6995 9.78744 31.4724C10.0148 31.2453 10.2847 31.0653 10.5816 30.9426C10.8786 30.8199 11.1968 30.7569 11.5181 30.7573H119.399C119.721 30.7569 120.039 30.8199 120.336 30.9426C120.633 31.0653 120.903 31.2453 121.13 31.4724C121.357 31.6995 121.538 31.9691 121.661 32.2659C121.784 32.5628 121.847 32.8809 121.847 33.2022C121.847 33.5235 121.784 33.8417 121.661 34.1385C121.538 34.4353 121.357 34.705 121.13 34.9321C120.903 35.1591 120.633 35.3392 120.336 35.4619C120.039 35.5846 119.721 35.6475 119.399 35.6471Z" fill="#CCCCCC"/>
<path d="M84.254 25.2565H11.5181C11.1968 25.2569 10.8786 25.1939 10.5816 25.0712C10.2847 24.9485 10.0148 24.7685 9.78744 24.5414C9.5601 24.3144 9.37975 24.0447 9.2567 23.7479C9.13365 23.4511 9.07031 23.1329 9.07031 22.8116C9.07031 22.4903 9.13365 22.1721 9.2567 21.8753C9.37975 21.5785 9.5601 21.3088 9.78744 21.0818C10.0148 20.8547 10.2847 20.6747 10.5816 20.552C10.8786 20.4293 11.1968 20.3663 11.5181 20.3667H84.254C84.5753 20.3663 84.8935 20.4293 85.1905 20.552C85.4875 20.6747 85.7573 20.8547 85.9847 21.0818C86.212 21.3088 86.3924 21.5785 86.5154 21.8753C86.6385 22.1721 86.7018 22.4903 86.7018 22.8116C86.7018 23.1329 86.6385 23.4511 86.5154 23.7479C86.3924 24.0447 86.212 24.3144 85.9847 24.5414C85.7573 24.7685 85.4875 24.9485 85.1905 25.0712C84.8935 25.1939 84.5753 25.2569 84.254 25.2565Z" fill="#CCCCCC"/>
<path d="M13.2019 180.008C13.0055 180.008 12.8108 179.971 12.6279 179.899C12.332 179.786 12.0777 179.585 11.8988 179.323C11.7199 179.061 11.6248 178.752 11.6261 178.435V162.018C11.6255 161.463 11.4045 160.93 11.0116 160.537C10.6187 160.144 10.0859 159.923 9.53026 159.922H6.16853C4.77959 159.921 3.44797 159.368 2.46583 158.386C1.4837 157.404 0.931248 156.072 0.929688 154.683V121.677C0.931245 120.288 1.48369 118.957 2.46583 117.975C3.44797 116.992 4.77958 116.44 6.16853 116.438H124.746C126.135 116.44 127.467 116.992 128.449 117.975C129.431 118.957 129.984 120.288 129.985 121.677V154.683C129.984 156.072 129.431 157.404 128.449 158.386C127.467 159.368 126.135 159.921 124.746 159.922H33.2211C32.9306 159.923 32.6433 159.983 32.3774 160.1C32.1115 160.217 31.8727 160.388 31.6761 160.602L14.3561 179.497C14.2098 179.657 14.0317 179.786 13.8329 179.874C13.6342 179.962 13.4192 180.008 13.2019 180.008ZM6.16853 117.137C4.96466 117.138 3.81049 117.617 2.95923 118.468C2.10796 119.319 1.62913 120.473 1.62777 121.677V154.683C1.62913 155.887 2.10797 157.041 2.95923 157.893C3.81049 158.744 4.96467 159.223 6.16853 159.224H9.53026C10.271 159.225 10.9812 159.52 11.505 160.043C12.0288 160.567 12.3234 161.277 12.3242 162.018V178.435C12.3242 178.611 12.3774 178.783 12.4767 178.928C12.5761 179.073 12.717 179.185 12.881 179.249C13.045 179.312 13.2245 179.325 13.3959 179.285C13.5673 179.245 13.7226 179.155 13.8415 179.025L31.1615 160.13C31.4236 159.845 31.7419 159.617 32.0964 159.461C32.4509 159.305 32.8339 159.225 33.2211 159.224H124.746C125.95 159.223 127.104 158.744 127.956 157.893C128.807 157.041 129.286 155.887 129.287 154.683V121.677C129.286 120.473 128.807 119.319 127.956 118.468C127.104 117.617 125.95 117.138 124.746 117.137L6.16853 117.137Z" fill="#CCCCCC"/>
<path d="M188.307 119.497C188.089 119.496 187.874 119.451 187.676 119.363C187.477 119.275 187.299 119.146 187.152 118.985L169.832 100.091C169.636 99.8768 169.397 99.7059 169.131 99.5889C168.865 99.472 168.578 99.4114 168.287 99.411H76.7623C75.3733 99.4095 74.0417 98.857 73.0596 97.8749C72.0774 96.8927 71.525 95.5611 71.5234 94.1722V61.1661C71.525 59.7771 72.0774 58.4455 73.0596 57.4634C74.0417 56.4813 75.3733 55.9288 76.7623 55.9272H195.34C196.729 55.9288 198.061 56.4812 199.043 57.4634C200.025 58.4455 200.577 59.7771 200.579 61.1661V94.1722C200.577 95.5611 200.025 96.8928 199.043 97.8749C198.061 98.857 196.729 99.4095 195.34 99.411H191.978C191.423 99.4117 190.89 99.6327 190.497 100.026C190.104 100.419 189.883 100.951 189.882 101.507V117.923C189.884 118.24 189.789 118.55 189.61 118.812C189.431 119.073 189.177 119.274 188.881 119.388C188.698 119.46 188.503 119.496 188.307 119.497ZM76.7623 56.6253C75.5584 56.6267 74.4042 57.1055 73.553 57.9568C72.7017 58.808 72.2229 59.9622 72.2215 61.1661V94.1722C72.2229 95.376 72.7017 96.5302 73.553 97.3815C74.4042 98.2327 75.5584 98.7116 76.7623 98.7129H168.287C168.675 98.7134 169.058 98.7941 169.412 98.9501C169.767 99.106 170.085 99.3338 170.347 99.6189L187.667 118.514C187.786 118.643 187.941 118.734 188.113 118.774C188.284 118.814 188.464 118.801 188.628 118.737C188.792 118.674 188.932 118.562 189.032 118.417C189.131 118.271 189.184 118.099 189.184 117.923V101.507C189.185 100.766 189.48 100.056 190.004 99.5322C190.527 99.0084 191.238 98.7138 191.978 98.713H195.34C196.544 98.7116 197.698 98.2328 198.549 97.3815C199.401 96.5302 199.879 95.3761 199.881 94.1722V61.1661C199.879 59.9622 199.401 58.808 198.549 57.9568C197.698 57.1055 196.544 56.6267 195.34 56.6253L76.7623 56.6253Z" fill="#3F3D56"/>
<path d="M13.7795 131.304C16.3113 131.304 18.3637 129.252 18.3637 126.72C18.3637 124.188 16.3113 122.136 13.7795 122.136C11.2477 122.136 9.19531 124.188 9.19531 126.72C9.19531 129.252 11.2477 131.304 13.7795 131.304Z" fill="#CCCCCC"/>
<path d="M119.399 152.086H11.5181C11.1968 152.086 10.8786 152.023 10.5816 151.9C10.2847 151.778 10.0148 151.598 9.78744 151.371C9.5601 151.143 9.37975 150.874 9.2567 150.577C9.13365 150.28 9.07031 149.962 9.07031 149.641C9.07031 149.319 9.13365 149.001 9.2567 148.704C9.37975 148.408 9.5601 148.138 9.78744 147.911C10.0148 147.684 10.2847 147.504 10.5816 147.381C10.8786 147.258 11.1968 147.195 11.5181 147.196H119.399C120.048 147.196 120.67 147.453 121.128 147.912C121.587 148.37 121.844 148.992 121.844 149.641C121.844 150.289 121.587 150.911 121.128 151.37C120.67 151.828 120.048 152.086 119.399 152.086Z" fill="#CCCCCC"/>
<path d="M84.254 141.695H11.5181C11.1968 141.695 10.8786 141.632 10.5816 141.51C10.2847 141.387 10.0148 141.207 9.78744 140.98C9.5601 140.753 9.37975 140.483 9.2567 140.186C9.13365 139.89 9.07031 139.571 9.07031 139.25C9.07031 138.929 9.13365 138.611 9.2567 138.314C9.37975 138.017 9.5601 137.747 9.78744 137.52C10.0148 137.293 10.2847 137.113 10.5816 136.99C10.8786 136.868 11.1968 136.805 11.5181 136.805H84.254C84.5753 136.805 84.8935 136.868 85.1905 136.99C85.4875 137.113 85.7573 137.293 85.9847 137.52C86.212 137.747 86.3924 138.017 86.5154 138.314C86.6385 138.611 86.7018 138.929 86.7018 139.25C86.7018 139.571 86.6385 139.89 86.5154 140.186C86.3924 140.483 86.212 140.753 85.9847 140.98C85.7573 141.207 85.4875 141.387 85.1905 141.51C84.8935 141.632 84.5753 141.695 84.254 141.695Z" fill="#CCCCCC"/>
<path d="M84.3811 70.4872C86.9128 70.4872 88.9653 68.4348 88.9653 65.903C88.9653 63.3713 86.9128 61.3188 84.3811 61.3188C81.8493 61.3188 79.7969 63.3713 79.7969 65.903C79.7969 68.4348 81.8493 70.4872 84.3811 70.4872Z" fill="#3F3D56"/>
<path d="M189.998 91.2687H82.1168C81.4683 91.2687 80.8465 91.0111 80.388 90.5526C79.9295 90.0941 79.6719 89.4722 79.6719 88.8238C79.6719 88.1754 79.9295 87.5535 80.388 87.095C80.8465 86.6365 81.4683 86.3789 82.1168 86.3789H189.998C190.647 86.3789 191.268 86.6365 191.727 87.095C192.185 87.5535 192.443 88.1754 192.443 88.8238C192.443 89.4722 192.185 90.0941 191.727 90.5526C191.268 91.0111 190.647 91.2687 189.998 91.2687Z" fill="#339999"/>
<path d="M154.848 80.8781H82.1119C81.7906 80.8785 81.4723 80.8155 81.1754 80.6928C80.8784 80.5701 80.6085 80.3901 80.3812 80.163C80.1538 79.936 79.9735 79.6663 79.8504 79.3695C79.7274 79.0727 79.6641 78.7545 79.6641 78.4332C79.6641 78.1119 79.7274 77.7937 79.8504 77.4969C79.9735 77.2001 80.1538 76.9304 80.3812 76.7033C80.6085 76.4763 80.8784 76.2962 81.1754 76.1736C81.4723 76.0509 81.7906 75.9879 82.1119 75.9883H154.848C155.169 75.9879 155.487 76.0509 155.784 76.1736C156.081 76.2962 156.351 76.4763 156.578 76.7033C156.806 76.9304 156.986 77.2001 157.109 77.4969C157.232 77.7937 157.296 78.1119 157.296 78.4332C157.296 78.7545 157.232 79.0727 157.109 79.3695C156.986 79.6663 156.806 79.936 156.578 80.163C156.351 80.3901 156.081 80.5701 155.784 80.6928C155.487 80.8155 155.169 80.8785 154.848 80.8781Z" fill="#339999"/>
<path d="M189.946 125.779C190.051 125.277 190.265 124.804 190.572 124.393C190.88 123.982 191.273 123.644 191.726 123.402C192.178 123.16 192.678 123.019 193.19 122.991C193.703 122.963 194.215 123.048 194.691 123.239L202.879 113.831L204.619 120.074L196.576 128.052C196.202 128.83 195.555 129.445 194.758 129.778C193.961 130.111 193.069 130.141 192.252 129.861C191.435 129.58 190.749 129.01 190.324 128.258C189.899 127.506 189.764 126.624 189.946 125.779Z" fill="#FFB8B8"/>
<path d="M234.885 81.627C239.62 81.627 243.458 77.7888 243.458 73.0542C243.458 68.3196 239.62 64.4814 234.885 64.4814C230.151 64.4814 226.312 68.3196 226.312 73.0542C226.312 77.7888 230.151 81.627 234.885 81.627Z" fill="#FFB8B8"/>
<path d="M224.815 191.055L220.536 191.055L218.5 174.549L224.816 174.55L224.815 191.055Z" fill="#FFB8B8"/>
<path d="M225.907 195.203L212.109 195.203V195.028C212.109 194.323 212.248 193.625 212.518 192.973C212.788 192.321 213.184 191.729 213.682 191.231C214.181 190.732 214.773 190.336 215.425 190.066C216.076 189.797 216.775 189.658 217.48 189.658L225.907 189.658L225.907 195.203Z" fill="#2F2E41"/>
<path d="M237.731 195.593L233.452 195.592L232.859 179.481L237.732 179.087L237.731 195.593Z" fill="#FFB8B8"/>
<path d="M238.821 199.741L225.023 199.74V199.566C225.023 198.86 225.162 198.162 225.432 197.511C225.702 196.859 226.098 196.267 226.596 195.768C227.095 195.27 227.687 194.874 228.339 194.604C228.99 194.334 229.689 194.195 230.394 194.195L238.821 194.196L238.821 199.741Z" fill="#2F2E41"/>
<path d="M236.519 192.58L233.186 192.188C232.809 192.143 232.46 191.962 232.205 191.679C231.95 191.397 231.806 191.031 231.799 190.651L231.175 147.251C231.173 147.129 231.128 147.01 231.048 146.917C230.968 146.824 230.858 146.762 230.736 146.743C230.615 146.723 230.491 146.746 230.385 146.809C230.279 146.871 230.199 146.969 230.158 147.084L225.535 160.138L225.865 184.607C225.871 185.011 225.721 185.401 225.446 185.697C225.171 185.993 224.793 186.172 224.389 186.196L220.039 186.38C219.641 186.403 219.249 186.274 218.942 186.02C218.635 185.766 218.435 185.406 218.383 185.011L216.111 157.331L216.109 157.314L219.557 128.407L245.45 130.28L238.262 191.205C238.217 191.586 238.033 191.938 237.746 192.194C237.458 192.449 237.088 192.591 236.703 192.591C236.642 192.591 236.58 192.588 236.519 192.58Z" fill="#2F2E41"/>
<path d="M219.666 130.969C219.433 130.845 219.236 130.664 219.092 130.444C218.949 130.223 218.863 129.969 218.844 129.706C218.844 129.706 221.172 115.227 222.025 114.955L220.159 99.4705C219.935 97.5819 220.091 95.6676 220.617 93.8401C221.143 92.0126 222.029 90.3086 223.223 88.8282C224.373 87.3919 225.802 86.2036 227.423 85.3348C229.045 84.466 230.826 83.9348 232.658 83.7732C232.919 83.7497 233.179 83.7318 233.437 83.7194C235.646 83.6011 237.851 84.0179 239.865 84.9344C241.878 85.8509 243.64 87.24 245.002 88.9836C246.414 90.7422 247.381 92.8159 247.82 95.0283C248.259 97.2407 248.156 99.5264 247.522 101.691L246.475 105.335V130.799C246.474 131.048 246.414 131.293 246.302 131.514C246.189 131.736 246.026 131.927 245.825 132.074C242.565 134.467 238.88 135.313 235.3 135.313C228.524 135.313 222.121 132.284 219.666 130.969Z" fill="#339999"/>
<path d="M199.563 126.309L195.06 122.942C194.883 122.81 194.736 122.642 194.629 122.449C194.521 122.257 194.456 122.044 194.436 121.824C194.416 121.604 194.443 121.383 194.515 121.174C194.586 120.966 194.701 120.774 194.852 120.613L221.68 91.8261C222.541 90.9101 223.702 90.3333 224.952 90.2004C226.203 90.0674 227.459 90.3872 228.494 91.1017C229.124 91.5412 229.65 92.1142 230.033 92.78C230.417 93.4458 230.649 94.188 230.713 94.9537C230.778 95.7195 230.672 96.4899 230.405 97.2103C230.137 97.9307 229.714 98.5832 229.166 99.1214L201.604 126.173C201.362 126.413 201.048 126.567 200.71 126.611C200.372 126.656 200.029 126.589 199.732 126.42C199.674 126.387 199.617 126.35 199.563 126.309Z" fill="#339999"/>
<path d="M234.029 122.498C234.226 122.024 234.524 121.599 234.903 121.253C235.282 120.907 235.732 120.649 236.222 120.495C236.711 120.342 237.229 120.298 237.737 120.366C238.246 120.434 238.733 120.613 239.165 120.89L248.968 113.179L249.509 119.638L240.117 125.971C239.603 126.665 238.853 127.148 238.008 127.326C237.162 127.504 236.281 127.367 235.531 126.939C234.78 126.511 234.213 125.822 233.936 125.004C233.659 124.185 233.692 123.294 234.029 122.498Z" fill="#FFB8B8"/>
<path d="M242.806 125.508C242.546 125.428 242.312 125.281 242.127 125.082C241.942 124.883 241.812 124.639 241.75 124.374L240.76 120.215C240.688 119.92 240.704 119.61 240.806 119.324C240.908 119.037 241.093 118.788 241.336 118.605L247.999 111.4L238.198 96.2876C237.457 95.3742 237.039 94.2408 237.009 93.0645C236.98 91.8882 237.342 90.7355 238.037 89.7864C238.592 89.0302 239.336 88.434 240.195 88.0582C241.054 87.6824 241.998 87.5404 242.929 87.6465C243.861 87.7526 244.748 88.103 245.501 88.6623C246.253 89.2217 246.845 89.97 247.215 90.8315L256.326 108.566C257.232 110.328 257.458 112.362 256.961 114.28C256.464 116.198 255.279 117.866 253.632 118.966L244.32 125.186C244.035 125.441 243.666 125.582 243.284 125.583C243.121 125.583 242.96 125.557 242.806 125.508Z" fill="#339999"/>
<path d="M241.241 80.7182C241.039 80.8395 240.812 80.9126 240.577 80.9319C240.342 80.9513 240.106 80.9163 239.887 80.8297C239.668 80.7432 239.471 80.6074 239.313 80.4328C239.155 80.2582 239.039 80.0495 238.974 79.823L238.969 79.8016C238.795 79.0883 238.932 78.3418 238.977 77.6088C239.023 76.8759 238.947 76.0713 238.445 75.5353C237.509 74.536 235.857 75.0772 234.51 74.8305C233.722 74.6589 233.022 74.2056 232.544 73.5557C232.065 72.9057 231.839 72.1035 231.909 71.2993C231.927 71.1469 231.957 70.9942 231.99 70.8417C232.072 70.4552 232.063 70.0549 231.964 69.6723C231.866 69.2897 231.68 68.9351 231.421 68.6365C231.162 68.3379 230.838 68.1033 230.473 67.9512C230.108 67.799 229.713 67.7335 229.319 67.7597C227.96 67.8447 226.495 68.2644 225.365 67.2636C224.95 66.8686 224.662 66.3604 224.534 65.8023C224.407 65.2441 224.446 64.6608 224.648 64.1252C225.281 62.268 227.091 61.2879 228.884 60.7448C231.102 60.091 233.438 59.9398 235.722 60.302C238.005 60.6642 240.18 61.5308 242.087 62.8387C243.225 63.6323 244.29 64.6314 244.781 65.9299C245.271 67.2284 245.047 68.8711 243.961 69.7359C244.811 70.6262 245.412 71.7243 245.704 72.9201C245.996 74.1159 245.969 75.3675 245.624 76.5493C245.095 78.2876 242.534 79.9651 241.241 80.7182Z" fill="#2F2E41"/>
<path d="M295.073 199.651C295.073 199.743 295.036 199.832 294.97 199.897C294.905 199.963 294.816 200 294.724 200H161.74C161.647 200 161.558 199.963 161.493 199.898C161.427 199.832 161.391 199.743 161.391 199.651C161.391 199.558 161.427 199.469 161.493 199.404C161.558 199.339 161.647 199.302 161.74 199.302H294.724C294.816 199.302 294.905 199.339 294.97 199.404C295.036 199.47 295.073 199.558 295.073 199.651Z" fill="#3F3D56"/>
</g>
<defs>
<clipPath id="clip0_2229_17669">
<rect width="294.147" height="200" fill="white" transform="translate(0.929688)"/>
</clipPath>
</defs>
</svg>
