<svg width="272" height="200" viewBox="0 0 272 200" fill="none" xmlns="http://www.w3.org/2000/svg">
<path d="M60.5119 55.1944L9.85938 89.0776L59.7518 163.662L110.404 129.779L60.5119 55.1944Z" fill="#F5F5F5"/>
<path d="M84.2315 126.251L83.6582 129.809L58.4766 126.179L59.0499 122.622L84.2315 126.251Z" fill="#E0E0E0"/>
<path d="M71.5479 113.561L75.1595 114.08L71.1551 138.874L67.5391 138.35L71.5479 113.561Z" fill="#E0E0E0"/>
<path d="M48.373 82.05C48.4091 82.0996 43.3349 85.5622 37.0372 89.7697C30.7396 93.9771 25.6066 97.3539 25.5705 97.2998C25.5344 97.2456 30.6086 93.7875 36.9063 89.5755C43.204 85.3636 48.3143 81.9958 48.373 82.05Z" fill="#E0E0E0"/>
<path d="M66.9808 77.3729C67.017 77.4271 58.5749 83.1334 48.1285 90.1217C37.682 97.1101 29.1678 102.731 29.1407 102.681C29.1136 102.631 37.5376 96.916 47.9976 89.9276C58.4576 82.9393 66.9447 77.3188 66.9808 77.3729Z" fill="#E0E0E0"/>
<path d="M70.7152 82.953C70.7513 83.0072 62.3093 88.718 51.8629 95.7063C41.4164 102.695 32.9022 108.315 32.8751 108.261C32.848 108.207 41.281 102.501 51.7319 95.5077C62.1829 88.5148 70.6791 82.8989 70.7152 82.953Z" fill="#E0E0E0"/>
<path d="M74.4537 88.5375C74.4898 88.5917 66.0478 94.3024 55.6013 101.286C45.1549 108.27 36.6406 113.9 36.6406 113.845C36.6406 113.791 45.042 108.081 55.493 101.092C65.9439 94.1038 74.4176 88.4833 74.4537 88.5375Z" fill="#E0E0E0"/>
<path d="M78.1716 94.122C78.2077 94.1761 69.7657 99.8824 59.3193 106.871C48.8728 113.859 40.3586 119.48 40.336 119.425C40.3134 119.371 48.7509 113.665 59.2109 106.677C69.6709 99.6883 78.1716 94.0678 78.1716 94.122Z" fill="#E0E0E0"/>
<path d="M229.884 105.171L187.344 133.627L229.244 196.265L271.784 167.808L229.884 105.171Z" fill="#F5F5F5"/>
<path d="M249.813 164.859L249.33 167.847L228.18 164.8L228.667 161.812L249.813 164.859Z" fill="#E0E0E0"/>
<path d="M239.157 154.2L242.191 154.638L238.827 175.459L235.789 175.021L239.157 154.2Z" fill="#E0E0E0"/>
<path d="M219.678 127.759C219.715 127.813 215.457 130.725 210.167 134.26C204.876 137.794 200.56 140.62 200.524 140.58C200.488 140.539 204.749 137.618 210.036 134.079C215.322 130.54 219.642 127.682 219.678 127.759Z" fill="#E0E0E0"/>
<path d="M235.325 123.809C235.361 123.863 228.278 128.666 219.525 134.53C210.771 140.395 203.607 145.117 203.57 145.063C203.534 145.008 210.618 140.205 219.371 134.336C228.125 128.467 235.275 123.754 235.325 123.809Z" fill="#E0E0E0"/>
<path d="M238.458 128.495C238.494 128.549 231.411 133.352 222.657 139.221C213.904 145.09 206.739 149.803 206.703 149.749C206.667 149.694 213.728 144.914 222.504 139.045C231.28 133.176 238.431 128.445 238.458 128.495Z" fill="#E0E0E0"/>
<path d="M241.591 133.176C241.627 133.23 234.539 138.034 225.79 143.902C217.041 149.771 209.872 154.484 209.836 154.43C209.8 154.376 216.883 149.577 225.637 143.704C234.39 137.831 241.559 133.131 241.591 133.176Z" fill="#E0E0E0"/>
<path d="M244.755 137.876C244.791 137.93 237.708 142.729 228.954 148.598C220.201 154.467 213.036 159.18 213 159.13C212.964 159.08 220.047 154.272 228.801 148.404C237.554 142.535 244.696 137.822 244.755 137.876Z" fill="#E0E0E0"/>
<path d="M162.588 57.9381L116.172 33.1123L79.6167 101.459L126.033 126.285L162.588 57.9381Z" fill="#F5F5F5"/>
<path d="M118.091 104.902L115.148 105.909L107.672 85.2461L110.62 84.2349L118.091 104.902Z" fill="#E0E0E0"/>
<path d="M122.601 90.0767L123.675 93.0427L103.153 100.072L102.078 97.1057L122.601 90.0767Z" fill="#E0E0E0"/>
<path d="M137.187 59.5906C137.151 59.6584 132.447 57.2115 126.673 54.1282C120.899 51.0448 116.253 48.4851 116.289 48.4174C116.325 48.3497 121.034 50.7965 126.808 53.8799C132.582 56.9632 137.223 59.5184 137.187 59.5906Z" fill="#E0E0E0"/>
<path d="M148.327 71.8836C148.291 71.9513 140.499 67.8522 130.924 62.7328C121.349 57.6134 113.62 53.4059 113.656 53.3382C113.692 53.2705 121.48 57.3651 131.055 62.489C140.63 67.6129 148.363 71.8159 148.327 71.8836Z" fill="#E0E0E0"/>
<path d="M145.593 76.9983C145.557 77.066 137.765 72.9714 128.19 67.8475C118.615 62.7236 110.886 58.5207 110.922 58.453C110.958 58.3853 118.746 62.4844 128.321 67.6038C137.896 72.7231 145.629 76.9306 145.593 76.9983Z" fill="#E0E0E0"/>
<path d="M142.851 82.1133C142.815 82.181 135.023 78.0864 125.448 72.967C115.872 67.8477 108.144 63.6537 108.18 63.5725C108.216 63.4912 116.003 67.5994 125.579 72.7187C135.154 77.8381 142.887 82.0456 142.851 82.1133Z" fill="#E0E0E0"/>
<path d="M140.116 87.2282C140.08 87.2959 132.288 83.2013 122.713 78.0819C113.138 72.9625 105.405 68.7551 105.445 68.6874C105.486 68.6196 113.269 72.7142 122.844 77.8336C132.419 82.953 140.153 87.1605 140.116 87.2282Z" fill="#E0E0E0"/>
<path opacity="0.2" d="M140.36 0H139.195V19.8545H140.36V0Z" fill="black"/>
<path d="M112.578 43.8761H166.959C166.959 43.8761 161.939 19.8638 139.358 19.8638C119.273 19.8638 112.578 43.8761 112.578 43.8761Z" fill="#339999"/>
<path d="M140.352 0H139.188V19.8545H140.352V0Z" fill="#339999"/>
<path d="M260.856 198.559C260.856 198.622 202.507 198.677 130.542 198.677C58.5771 198.677 0.21875 198.636 0.21875 198.559C0.21875 198.483 58.559 198.442 130.542 198.442C202.525 198.442 260.856 198.492 260.856 198.559Z" fill="#263238"/>
<path d="M14.641 170.285C15.4043 170.34 16.1486 170.549 16.8296 170.898C17.5106 171.247 18.1143 171.729 18.6047 172.317C19.5797 173.499 20.2702 174.889 20.6227 176.38C21.3856 179.233 20.9161 182.605 20.1035 185.445C17.0156 184.339 15.106 181.043 14.2347 179.31C12.8804 176.574 12.0723 170.795 14.6275 170.281" fill="#339999"/>
<path d="M24.5549 188.907C24.0912 188.188 23.8261 187.359 23.7865 186.504C23.7468 185.65 23.9341 184.8 24.3292 184.041C24.7367 183.289 25.2899 182.626 25.9565 182.09C26.6231 181.555 27.3898 181.157 28.2116 180.921C28.9656 180.686 29.8414 180.592 30.496 181.03C30.791 181.253 31.0209 181.551 31.1614 181.893C31.3019 182.235 31.3481 182.609 31.295 182.975C31.1765 183.709 30.8649 184.398 30.3921 184.971C28.8888 187.007 27.065 188.7 24.5233 188.907" fill="#339999"/>
<path d="M24.8958 198.447C24.8288 198.255 24.7819 198.057 24.7559 197.855C24.6746 197.431 24.5663 196.885 24.4354 196.23C24.0301 194.438 23.9173 192.591 24.1013 190.763C24.3141 188.926 25.0139 187.179 26.1283 185.702C26.4687 185.261 26.8613 184.862 27.2975 184.515C27.416 184.421 27.5396 184.334 27.6677 184.253C27.7084 184.219 27.7541 184.192 27.8031 184.172C27.2321 184.66 26.7104 185.203 26.2457 185.793C25.1901 187.27 24.5254 188.991 24.3135 190.795C24.0245 192.898 24.3812 194.826 24.5888 196.212C24.6972 196.903 24.7875 197.462 24.8371 197.851C24.8727 198.047 24.8923 198.247 24.8958 198.447Z" fill="#263238"/>
<path d="M15.6328 174.633C15.6844 174.704 15.7268 174.781 15.7592 174.863C15.8405 175.044 15.9488 175.269 16.0752 175.554C16.3506 176.154 16.7343 177.025 17.1993 178.104C18.1293 180.267 19.3753 183.273 20.6755 186.623C21.9756 189.973 23.0817 193.029 23.8356 195.255C24.2238 196.365 24.5263 197.268 24.7385 197.896C24.8333 198.194 24.9055 198.433 24.9642 198.618C24.9964 198.701 25.0191 198.787 25.0319 198.875C24.9861 198.799 24.9497 198.717 24.9236 198.632C24.8558 198.451 24.7701 198.216 24.6572 197.923L23.7047 195.304C22.8966 193.097 21.768 190.045 20.4723 186.7C19.1767 183.355 17.9487 180.339 17.0549 178.163C16.6034 177.093 16.2558 176.222 15.9985 175.585C15.8811 175.296 15.7863 175.066 15.7141 174.881C15.6802 174.801 15.653 174.718 15.6328 174.633Z" fill="#263238"/>
<path d="M21.2242 192.135C20.2953 190.589 19.0116 189.285 17.4793 188.333C15.947 187.381 14.21 186.807 12.412 186.659C11.5091 186.596 10.3986 186.749 9.99226 187.562C9.58596 188.375 10.1277 189.368 10.7507 190.027C12.0744 191.412 13.7783 192.374 15.6478 192.791C17.5173 193.209 19.4686 193.064 21.2558 192.374" fill="#339999"/>
<path d="M13.8047 189.106C13.9961 189.097 14.188 189.104 14.378 189.129C14.6006 189.141 14.8222 189.166 15.0417 189.205C15.299 189.255 15.6015 189.282 15.9175 189.372C16.2707 189.447 16.619 189.544 16.9603 189.661C17.3558 189.788 17.7432 189.939 18.1205 190.113C18.9884 190.502 19.8093 190.988 20.5674 191.562C21.3167 192.15 21.9954 192.822 22.5898 193.566C22.8465 193.89 23.0832 194.229 23.2986 194.582C23.4933 194.887 23.6711 195.202 23.8313 195.526C23.9669 195.789 24.0875 196.061 24.1925 196.338C24.283 196.544 24.3599 196.755 24.4227 196.97C24.4896 197.15 24.5394 197.336 24.5717 197.525C24.522 197.525 24.3053 196.749 23.6959 195.593C23.5299 195.283 23.3476 194.981 23.1496 194.69C22.9296 194.348 22.6915 194.018 22.4363 193.702C21.2555 192.243 19.7497 191.08 18.0393 190.307C17.6465 190.135 17.2718 189.973 16.9061 189.855C16.5704 189.733 16.2283 189.629 15.8814 189.544C14.6173 189.196 13.8002 189.156 13.8047 189.106Z" fill="#263238"/>
<path d="M218.732 47.6182C217.405 47.9207 216.759 49.4511 216.633 50.8054C216.507 52.1597 216.678 53.5953 216.109 54.8323C215.468 56.2227 213.938 57.252 213.888 58.7824C213.857 59.7169 214.412 60.5882 214.385 61.5317C214.34 63.0666 212.778 64.2404 212.692 65.7573C212.633 66.8633 213.369 67.9197 213.193 69.0122C213.058 69.8609 212.394 70.529 212.114 71.3416C211.559 72.9668 212.674 74.75 214.123 75.662C214.935 76.1724 215.848 76.4994 216.8 76.6201C217.751 76.7408 218.717 76.6523 219.631 76.3608C220.544 76.0693 221.383 75.5819 222.089 74.9325C222.795 74.2831 223.35 73.4875 223.716 72.6012C224.52 70.6509 224.344 68.4524 224.168 66.3532C223.626 59.8042 223.223 53.2462 222.958 46.6792" fill="#263238"/>
<path d="M214.875 70.7231C215.148 70.5534 215.361 70.3024 215.484 70.0053C215.615 69.652 215.667 69.2747 215.638 68.8993C215.588 68.4015 215.478 67.9117 215.308 67.4411C215.092 66.8495 215.012 66.2169 215.074 65.5902C215.186 64.8859 215.692 64.3081 216.148 63.7392C216.394 63.4609 216.599 63.1493 216.758 62.8138C216.917 62.4745 216.942 62.0878 216.83 61.7303C216.595 60.9945 215.873 60.4527 215.543 59.5995C215.388 59.1771 215.363 58.7181 215.471 58.2813C215.573 57.8718 215.725 57.4761 215.922 57.103C216.304 56.431 216.606 55.7176 216.825 54.9767C217.141 53.5456 216.992 52.1777 217.209 51.0536C217.329 50.1533 217.729 49.3134 218.351 48.652C218.527 48.4738 218.728 48.3218 218.947 48.2005C219.023 48.1612 219.103 48.1323 219.186 48.1147C218.903 48.2705 218.644 48.465 218.414 48.6926C217.838 49.3606 217.474 50.1862 217.371 51.0627C217.292 51.6614 217.25 52.2645 217.245 52.8685C217.244 53.5792 217.174 54.2882 217.037 54.9857C216.822 55.7437 216.519 56.4739 216.135 57.1617C215.796 57.8705 215.484 58.7011 215.782 59.4776C216.08 60.2541 216.798 60.7913 217.074 61.622C217.198 62.0323 217.167 62.4741 216.988 62.8634C216.812 63.2327 216.584 63.5748 216.311 63.8792C215.859 64.448 215.367 64.9897 215.259 65.6218C215.195 66.2212 215.266 66.8273 215.466 67.3959C215.628 67.8812 215.728 68.3847 215.764 68.8947C215.787 69.2876 215.717 69.6802 215.561 70.0414C215.464 70.2679 215.308 70.4643 215.11 70.6102C215.039 70.6619 214.96 70.7002 214.875 70.7231Z" fill="#455A64"/>
<path d="M211.344 81.4272L207.281 93.1648L190.288 94.0677L187.453 100.388L205.195 102.194C206.033 102.538 206.932 102.708 207.838 102.695C208.744 102.682 209.638 102.485 210.466 102.117C211.294 101.749 212.039 101.216 212.655 100.552C213.271 99.8879 213.747 99.1056 214.052 98.2526L218.788 85.0343L211.344 81.4272Z" fill="#B78876"/>
<path d="M246.473 192.18C246.473 192.18 234.022 152.624 233.755 151.342C233.516 150.177 238.27 121.714 238.875 114.324L222.049 114.951V115.118L214.898 115.516L221.3 196.378H229.042L228.275 169.54C233.051 182.356 239.895 195.421 239.895 195.421L246.473 192.18Z" fill="#B78876"/>
<path d="M228.596 179.169C228.596 178.926 228.501 170.177 228.501 170.177C228.406 170.7 225.535 162.583 225.603 162.091C225.639 161.834 228.596 179.169 228.596 179.169Z" fill="#A36957"/>
<path d="M225.271 158.245C225.232 158.405 225.215 158.571 225.222 158.737C225.197 159.188 225.197 159.64 225.222 160.091C225.222 160.375 225.262 160.682 225.299 161.017C225.335 161.351 225.384 161.703 225.461 162.068C225.622 162.867 225.834 163.654 226.098 164.425C226.657 166.064 227.28 167.495 227.718 168.533C227.926 168.985 228.107 169.413 228.26 169.756C228.315 169.916 228.391 170.068 228.486 170.208C228.462 170.052 228.416 169.9 228.35 169.756C228.247 169.459 228.089 169.03 227.899 168.501C227.502 167.445 226.906 166 226.35 164.38C226.088 163.62 225.872 162.845 225.705 162.059C225.624 161.698 225.569 161.351 225.52 161.026C225.47 160.7 225.434 160.394 225.411 160.123C225.357 159.563 225.335 159.111 225.321 158.795C225.33 158.61 225.313 158.425 225.271 158.245Z" fill="#A36957"/>
<path d="M221.161 196.789V196.062L229.093 195.715L229.116 198.717L228.628 198.749C226.448 198.875 217.545 199.245 216.091 198.807C214.462 198.32 221.161 196.789 221.161 196.789Z" fill="#455A64"/>
<path d="M229.218 198.536C229.173 198.539 229.128 198.539 229.083 198.536L228.694 198.563L227.259 198.626C226.049 198.676 224.374 198.721 222.528 198.73C220.681 198.739 219.002 198.708 217.787 198.672L216.356 198.613H215.964H215.828C215.873 198.609 215.918 198.609 215.964 198.613H216.356L217.792 198.64C219.002 198.64 220.677 198.676 222.523 198.667C224.369 198.658 226.049 198.626 227.259 198.595L228.694 198.559H229.218V198.536Z" fill="#263238"/>
<path d="M218.568 198.789C218.502 198.553 218.411 198.324 218.297 198.107C218.154 197.907 217.989 197.724 217.805 197.561C218.051 197.649 218.256 197.826 218.378 198.058C218.527 198.271 218.595 198.53 218.568 198.789Z" fill="#263238"/>
<path d="M220.912 197.602C220.912 197.602 220.781 197.48 220.663 197.299C220.546 197.119 220.474 196.961 220.496 196.947C220.519 196.934 220.627 197.065 220.745 197.245C220.862 197.426 220.934 197.588 220.912 197.602Z" fill="#263238"/>
<path d="M221.553 197.281C221.553 197.304 221.409 197.218 221.273 197.096C221.138 196.974 221.039 196.861 221.057 196.843C221.075 196.825 221.201 196.907 221.337 197.028C221.472 197.15 221.571 197.241 221.553 197.281Z" fill="#263238"/>
<path d="M221.951 196.514C221.818 196.562 221.677 196.581 221.536 196.568C221.398 196.586 221.257 196.572 221.125 196.527C221.256 196.479 221.397 196.46 221.536 196.473C221.676 196.454 221.818 196.468 221.951 196.514Z" fill="#263238"/>
<path d="M222.09 195.99C221.956 196.077 221.799 196.124 221.639 196.126C221.486 196.146 221.329 196.124 221.188 196.062C221.337 196.037 221.488 196.025 221.639 196.026C221.788 196 221.939 195.988 222.09 195.99Z" fill="#263238"/>
<path d="M220.646 196.911C220.478 196.943 220.305 196.943 220.136 196.911C219.954 196.889 219.774 196.85 219.599 196.794C219.49 196.764 219.386 196.721 219.287 196.667C219.227 196.632 219.182 196.576 219.161 196.509C219.153 196.472 219.155 196.433 219.169 196.396C219.183 196.36 219.207 196.329 219.238 196.306C219.363 196.246 219.5 196.214 219.639 196.212C219.777 196.211 219.915 196.241 220.041 196.299C220.167 196.357 220.279 196.443 220.368 196.55C220.457 196.656 220.521 196.781 220.556 196.916C220.565 196.96 220.565 197.006 220.556 197.051C220.505 196.888 220.425 196.735 220.321 196.6C220.201 196.465 220.044 196.367 219.87 196.32C219.67 196.255 219.453 196.271 219.265 196.365C219.188 196.424 219.22 196.518 219.305 196.573C219.398 196.622 219.494 196.663 219.594 196.695C219.764 196.75 219.938 196.794 220.113 196.825C220.452 196.898 220.646 196.898 220.646 196.911Z" fill="#263238"/>
<path d="M220.511 196.938C220.445 196.833 220.422 196.707 220.448 196.586C220.464 196.453 220.512 196.326 220.588 196.216C220.63 196.141 220.691 196.077 220.764 196.031C220.837 195.985 220.921 195.959 221.007 195.954C221.059 195.966 221.103 195.997 221.133 196.04C221.162 196.084 221.174 196.137 221.165 196.189C221.154 196.27 221.125 196.347 221.08 196.415C221.011 196.527 220.931 196.631 220.84 196.726C220.762 196.816 220.663 196.886 220.551 196.929C220.551 196.929 220.651 196.839 220.791 196.676C220.872 196.583 220.943 196.482 221.003 196.374C221.071 196.266 221.12 196.071 221.003 196.049C220.885 196.026 220.75 196.166 220.673 196.266C220.602 196.364 220.552 196.476 220.529 196.595C220.51 196.709 220.504 196.824 220.511 196.938Z" fill="#263238"/>
<path d="M229.048 196.378C229.048 196.378 228.822 196.378 228.466 196.401C228.001 196.457 227.562 196.641 227.197 196.934C226.832 197.227 226.557 197.616 226.402 198.058C226.285 198.396 226.276 198.627 226.258 198.622C226.24 198.618 226.258 198.563 226.258 198.464C226.27 198.319 226.297 198.175 226.339 198.035C226.483 197.573 226.759 197.163 227.134 196.857C227.513 196.556 227.974 196.375 228.457 196.338C228.607 196.32 228.758 196.32 228.908 196.338C228.956 196.345 229.003 196.359 229.048 196.378Z" fill="#263238"/>
<path d="M225.252 197.904C224.874 197.993 224.485 198.03 224.096 198.017C223.71 198.037 223.323 198.003 222.945 197.918C222.945 197.891 223.46 197.918 224.096 197.918C224.733 197.918 225.248 197.877 225.252 197.904Z" fill="#263238"/>
<path d="M226.796 197.891C226.796 197.891 226.755 197.999 226.701 198.117C226.647 198.234 226.62 198.342 226.593 198.338C226.566 198.333 226.552 198.216 226.616 198.076C226.679 197.936 226.778 197.868 226.796 197.891Z" fill="#263238"/>
<path d="M227.381 197.164C227.381 197.164 227.35 197.263 227.268 197.344C227.187 197.425 227.106 197.48 227.083 197.462C227.061 197.444 227.115 197.362 227.196 197.277C227.277 197.191 227.359 197.141 227.381 197.164Z" fill="#263238"/>
<path d="M228.209 196.83C228.209 196.857 228.101 196.857 227.983 196.898C227.866 196.938 227.785 197.002 227.762 196.983C227.739 196.965 227.807 196.857 227.952 196.807C228.096 196.758 228.218 196.803 228.209 196.83Z" fill="#263238"/>
<path d="M228.798 196.667C228.798 196.694 228.767 196.735 228.699 196.758C228.631 196.78 228.573 196.785 228.564 196.758C228.555 196.731 228.6 196.69 228.663 196.667C228.726 196.645 228.789 196.645 228.798 196.667Z" fill="#263238"/>
<path d="M239.736 196.089L239.438 195.426L246.53 191.864L247.78 194.572L247.329 194.803C245.392 195.809 237.424 199.791 235.917 199.99C234.251 200.229 239.736 196.089 239.736 196.089Z" fill="#455A64"/>
<path d="M247.811 194.378L247.693 194.451L247.346 194.631L246.064 195.281C244.98 195.819 243.472 196.545 241.788 197.313C240.105 198.08 238.561 198.735 237.441 199.2L236.109 199.737L235.748 199.877C235.706 199.896 235.662 199.91 235.617 199.918L235.739 199.859L236.096 199.701L237.414 199.137C238.529 198.658 240.064 197.99 241.748 197.223C243.432 196.455 244.944 195.742 246.037 195.218L247.328 194.6L247.684 194.433L247.811 194.378Z" fill="#263238"/>
<path d="M238.216 198.97C238.06 198.779 237.883 198.607 237.688 198.455C237.477 198.33 237.251 198.23 237.016 198.157C237.275 198.154 237.529 198.23 237.744 198.375C237.958 198.52 238.123 198.728 238.216 198.97Z" fill="#263238"/>
<path d="M239.846 196.929C239.846 196.929 239.675 196.875 239.494 196.758C239.314 196.64 239.183 196.527 239.196 196.505C239.21 196.482 239.368 196.559 239.548 196.676C239.729 196.794 239.86 196.907 239.846 196.929Z" fill="#263238"/>
<path d="M240.288 196.378C240.288 196.401 240.135 196.378 239.959 196.324C239.783 196.27 239.652 196.202 239.656 196.175C239.771 196.165 239.886 196.183 239.99 196.229C240.162 196.27 240.297 196.333 240.288 196.378Z" fill="#263238"/>
<path d="M240.351 195.512C240.351 195.539 240.202 195.634 239.994 195.733C239.875 195.805 239.74 195.85 239.602 195.864C239.602 195.837 239.751 195.742 239.954 195.643C240.075 195.571 240.211 195.526 240.351 195.512Z" fill="#263238"/>
<path d="M240.262 194.979C240.262 194.979 240.132 195.16 239.897 195.291C239.764 195.381 239.606 195.428 239.445 195.426C239.575 195.339 239.712 195.265 239.856 195.205C240.077 195.083 240.24 194.957 240.262 194.979Z" fill="#263238"/>
<path d="M239.337 196.414C239.199 196.509 239.047 196.579 238.885 196.622C238.708 196.674 238.527 196.711 238.344 196.735C238.233 196.749 238.121 196.749 238.01 196.735C237.94 196.73 237.875 196.697 237.829 196.645C237.808 196.612 237.797 196.575 237.797 196.536C237.797 196.498 237.808 196.46 237.829 196.428C237.966 196.262 238.157 196.148 238.369 196.107C238.58 196.066 238.8 196.099 238.989 196.202C239.101 196.261 239.2 196.342 239.278 196.441C239.332 196.514 239.355 196.559 239.35 196.563C239.239 196.439 239.106 196.337 238.958 196.261C238.799 196.186 238.621 196.159 238.448 196.184C238.344 196.195 238.244 196.226 238.152 196.275C238.061 196.325 237.98 196.392 237.915 196.473C237.865 196.559 237.915 196.631 238.037 196.645C238.14 196.654 238.245 196.654 238.348 196.645C238.528 196.626 238.706 196.595 238.881 196.55C239.138 196.478 239.337 196.401 239.337 196.414Z" fill="#263238"/>
<path d="M239.214 196.491C239.113 196.42 239.042 196.314 239.015 196.193C238.976 196.066 238.966 195.932 238.988 195.8C238.996 195.714 239.026 195.63 239.075 195.559C239.124 195.487 239.19 195.428 239.268 195.39C239.381 195.353 239.643 195.584 239.661 195.669C239.679 195.755 239.53 195.71 239.521 195.782C239.506 195.91 239.476 196.036 239.431 196.157C239.398 196.273 239.335 196.379 239.25 196.464C239.25 196.464 239.304 196.342 239.367 196.139C239.4 196.019 239.422 195.897 239.435 195.773C239.435 195.647 239.435 195.453 239.291 195.484C239.146 195.516 239.105 195.692 239.074 195.818C239.046 195.936 239.046 196.058 239.074 196.175C239.111 196.284 239.158 196.39 239.214 196.491Z" fill="#263238"/>
<path d="M246.774 192.478C246.774 192.478 246.558 192.555 246.251 192.74C245.849 192.98 245.523 193.327 245.307 193.742C245.098 194.161 245.009 194.63 245.05 195.096C245.077 195.458 245.163 195.665 245.145 195.674C245.116 195.63 245.093 195.581 245.077 195.53C245.032 195.392 245.001 195.25 244.982 195.105C244.918 194.625 245.001 194.136 245.221 193.703C245.441 193.271 245.788 192.916 246.215 192.686C246.342 192.615 246.477 192.558 246.616 192.514C246.667 192.494 246.72 192.482 246.774 192.478Z" fill="#263238"/>
<path d="M243.935 195.43C243.299 195.873 242.588 196.197 241.836 196.388C241.836 196.36 242.31 196.18 242.888 195.936C243.466 195.692 243.922 195.408 243.935 195.43Z" fill="#263238"/>
<path d="M245.34 194.785C245.363 194.785 245.34 194.898 245.34 195.029C245.34 195.16 245.34 195.268 245.34 195.277C245.34 195.286 245.25 195.178 245.25 195.029C245.25 194.88 245.318 194.771 245.34 194.785Z" fill="#263238"/>
<path d="M245.568 193.882C245.59 193.882 245.568 193.986 245.541 194.094C245.514 194.203 245.446 194.284 245.423 194.275C245.401 194.266 245.423 194.171 245.45 194.063C245.477 193.954 245.541 193.873 245.568 193.882Z" fill="#263238"/>
<path d="M246.187 193.218C246.187 193.245 246.097 193.286 246.007 193.372C245.916 193.458 245.867 193.548 245.844 193.539C245.821 193.53 245.844 193.403 245.943 193.3C246.043 193.196 246.183 193.218 246.187 193.218Z" fill="#263238"/>
<path d="M246.667 192.848C246.667 192.848 246.667 192.921 246.613 192.97C246.559 193.02 246.509 193.047 246.491 193.029C246.473 193.011 246.491 192.957 246.545 192.907C246.599 192.857 246.649 192.83 246.667 192.848Z" fill="#263238"/>
<path d="M237.786 100.961L236.468 84.8445L243.239 84.9664C243.239 84.9664 243.551 82.5873 242.553 77.3776C241.939 74.1814 239.813 72.2221 237.425 71.0574V71.0123L237.217 70.9581C235.251 70.0755 233.152 69.5277 231.005 69.3374L222.676 69.4322C222.676 69.4322 216.315 68.6196 212.807 73.1747C211.453 74.9218 207.25 86.8805 207.25 86.8805L217.25 91.6929L216.315 85.0612C216.315 85.0612 216.505 89.8691 217.119 91.3814C217.457 92.2302 218.473 94.8666 218.473 94.8666L218.342 102.821L237.786 100.961Z" fill="#339999"/>
<path d="M233.19 82.5059L231.953 87.7697H243.614L242.847 78.9395L233.19 82.5059Z" fill="#339999"/>
<path d="M243.618 87.7699C243.109 87.676 242.593 87.6247 242.075 87.6164C241.117 87.5622 239.817 87.5125 238.337 87.5216C236.856 87.5306 235.551 87.5938 234.594 87.666C234.076 87.6841 233.561 87.7475 233.055 87.8556C233.572 87.8968 234.091 87.8968 234.608 87.8556C235.56 87.824 236.865 87.7879 238.337 87.7834C239.808 87.7789 241.113 87.7834 242.07 87.806C242.586 87.8349 243.104 87.8229 243.618 87.7699Z" fill="#263238"/>
<path d="M232.686 78.8989C232.63 79.3482 232.618 79.8017 232.65 80.2533C232.65 81.0794 232.686 82.217 232.736 83.4766C232.785 84.7361 232.844 85.8783 232.898 86.6999C232.9 87.1551 232.949 87.6088 233.043 88.0542C233.098 87.605 233.11 87.1514 233.079 86.6999C233.079 85.8737 233.043 84.7316 232.993 83.4721C232.943 82.2125 232.885 81.0749 232.831 80.2487C232.829 79.795 232.78 79.3427 232.686 78.8989Z" fill="#263238"/>
<g opacity="0.3">
<path d="M222.078 83.4585C222.078 83.4585 224.669 102.676 231.956 102.166C231.956 102.166 235.238 102.13 236.29 99.9498V99.092L222.078 83.4585Z" fill="black"/>
</g>
<g opacity="0.3">
<path d="M232.684 80.0317L231.289 89.4534L232.192 91.1057L233.682 87.8733L233.05 87.8553L232.684 80.0317Z" fill="black"/>
</g>
<path d="M218.433 94.8757C218.347 94.735 218.28 94.5831 218.235 94.4242C218.122 94.1308 217.973 93.7019 217.783 93.1647C217.331 91.7649 216.959 90.3405 216.668 88.8985C216.379 87.4557 216.194 85.9936 216.118 84.524C216.09 83.9597 216.081 83.5038 216.09 83.1697C216.079 83.0065 216.09 82.8425 216.122 82.6821C216.158 82.6821 216.185 83.3774 216.28 84.4879C216.407 85.9442 216.614 87.3925 216.899 88.8263C217.233 90.5057 217.634 92.009 217.941 93.0879C218.086 93.589 218.208 94.0179 218.307 94.37C218.369 94.533 218.411 94.7027 218.433 94.8757Z" fill="#263238"/>
<path d="M221.371 100.397C221.308 100.397 221.127 100.004 220.969 99.4937C220.833 99.1811 220.773 98.8408 220.793 98.5005C220.992 98.7764 221.129 99.0921 221.195 99.426C221.324 99.7325 221.384 100.064 221.371 100.397Z" fill="#263238"/>
<path d="M222.384 100.324C222.043 99.4187 222.028 98.4224 222.343 97.5073C222.379 97.9762 222.379 98.447 222.343 98.9158C222.393 99.3836 222.406 99.8545 222.384 100.324Z" fill="#263238"/>
<path d="M217.453 91.9142C217.421 91.9684 215.096 90.8669 212.257 89.4493C209.417 88.0318 207.137 86.8309 207.164 86.7723C207.191 86.7136 209.521 87.8196 212.36 89.2371C215.2 90.6547 217.48 91.8555 217.453 91.9142Z" fill="#263238"/>
<path d="M221.552 70.9896C221.602 68.7053 221.616 66.3036 221.616 66.3036C221.616 66.3036 218.686 65.7393 218.176 61.884C217.688 58.2092 219.051 49.5821 219.051 49.5821C223.331 47.9659 227.778 49.4331 230.708 52.9002L229.981 71.4411C229.895 73.5945 227.977 75.2377 225.674 75.1294C223.345 75.0165 221.503 73.1656 221.552 70.9896Z" fill="#B78876"/>
<path d="M218.821 56.4755C218.817 56.602 218.861 56.7253 218.945 56.8202C219.029 56.915 219.146 56.9742 219.272 56.9856C219.336 56.9918 219.401 56.9849 219.462 56.9653C219.523 56.9456 219.58 56.9137 219.629 56.8715C219.677 56.8292 219.717 56.7775 219.745 56.7196C219.773 56.6616 219.788 56.5985 219.791 56.5342C219.795 56.4081 219.75 56.2853 219.666 56.1912C219.582 56.0971 219.465 56.0389 219.34 56.0285C219.275 56.0188 219.21 56.023 219.147 56.041C219.085 56.059 219.027 56.0903 218.977 56.1328C218.928 56.1752 218.889 56.2278 218.862 56.287C218.834 56.3461 218.82 56.4104 218.821 56.4755Z" fill="#263238"/>
<path d="M218.641 55.8299C218.7 55.8931 219.092 55.6268 219.612 55.6448C220.131 55.6629 220.515 55.9337 220.578 55.8705C220.641 55.8073 220.551 55.7261 220.384 55.5952C220.157 55.4314 219.886 55.3415 219.607 55.3378C219.332 55.3274 219.061 55.4066 218.835 55.5636C218.668 55.6854 218.609 55.7983 218.641 55.8299Z" fill="#263238"/>
<path d="M224.204 56.8099C224.198 56.9368 224.243 57.0607 224.327 57.1558C224.411 57.2508 224.528 57.3097 224.655 57.3201C224.72 57.3299 224.786 57.3255 224.849 57.3073C224.911 57.289 224.97 57.2574 225.019 57.2144C225.068 57.1715 225.108 57.1183 225.135 57.0586C225.161 56.9989 225.175 56.9341 225.174 56.8686C225.179 56.7423 225.135 56.6189 225.051 56.5245C224.966 56.4302 224.849 56.3723 224.723 56.363C224.658 56.3533 224.593 56.3575 224.53 56.3755C224.468 56.3935 224.41 56.4248 224.36 56.4672C224.311 56.5097 224.272 56.5623 224.245 56.6214C224.217 56.6806 224.203 56.7449 224.204 56.8099Z" fill="#263238"/>
<path d="M224.163 56.1641C224.221 56.2318 224.614 55.9654 225.133 55.979C225.652 55.9925 226.036 56.2679 226.104 56.2047C226.172 56.1415 226.072 56.0602 225.905 55.9338C225.683 55.7658 225.412 55.6739 225.133 55.672C224.857 55.6637 224.585 55.7427 224.357 55.8977C224.194 56.0196 224.136 56.1325 224.163 56.1641Z" fill="#263238"/>
<path d="M222.137 60.0423C221.86 59.9471 221.572 59.8879 221.28 59.8663C221.144 59.8663 221.018 59.8166 221 59.7263C220.989 59.5852 221.024 59.4443 221.099 59.3245L221.524 58.3088C221.918 57.4455 222.243 56.5517 222.494 55.6362C222.032 56.4657 221.636 57.3307 221.311 58.223C221.171 58.5797 221.031 58.9228 220.901 59.2478C220.813 59.4091 220.784 59.5958 220.819 59.776C220.837 59.8249 220.866 59.8691 220.903 59.9051C220.941 59.9411 220.986 59.968 221.036 59.9836C221.111 60.0053 221.188 60.0175 221.266 60.0198C221.554 60.0641 221.847 60.0717 222.137 60.0423Z" fill="#263238"/>
<path d="M221.617 66.3035C223.423 66.3758 225.214 65.9461 226.791 65.062C226.791 65.062 225.477 67.6669 221.644 67.2109L221.617 66.3035Z" fill="#A36957"/>
<path d="M225.865 54.6247C225.757 54.7918 225.351 54.7195 224.899 54.6247C224.448 54.5299 224.051 54.4532 223.996 54.259C223.942 54.0649 224.416 53.8076 225.021 53.9295C225.626 54.0514 225.974 54.4803 225.865 54.6247Z" fill="#263238"/>
<path d="M220.594 53.8572C220.554 54.0514 220.12 54.1236 219.624 54.1462C219.127 54.1687 218.689 54.1462 218.63 53.9475C218.572 53.7489 218.992 53.469 219.592 53.4419C220.192 53.4148 220.635 53.6722 220.594 53.8572Z" fill="#263238"/>
<path d="M222.152 61.3107C222.095 61.2972 222.035 61.3032 221.982 61.3277C221.929 61.3523 221.885 61.394 221.859 61.4461C221.833 61.4921 221.82 61.5441 221.82 61.5968C221.821 61.6495 221.835 61.7012 221.862 61.7467C221.889 61.7921 221.927 61.8298 221.972 61.856C222.018 61.8822 222.07 61.896 222.123 61.896C222.175 61.896 222.227 61.8822 222.273 61.856C222.319 61.8298 222.357 61.7921 222.384 61.7467C222.41 61.7012 222.425 61.6495 222.425 61.5968C222.426 61.5441 222.413 61.4921 222.387 61.4461C222.354 61.3855 222.302 61.3377 222.239 61.3106C222.176 61.2835 222.105 61.2788 222.039 61.2971" fill="#A36957"/>
<path d="M222.27 61.365C222.27 61.3424 222.184 61.2115 221.954 61.2612C221.885 61.2791 221.822 61.3148 221.772 61.3648C221.721 61.4147 221.684 61.477 221.665 61.5456C221.641 61.632 221.643 61.7237 221.671 61.8089C221.699 61.8942 221.752 61.9691 221.823 62.0241C221.898 62.0755 221.987 62.1031 222.078 62.1031C222.169 62.1031 222.258 62.0755 222.333 62.0241C222.393 61.9837 222.441 61.9269 222.469 61.8605C222.498 61.7941 222.507 61.7209 222.496 61.6494C222.451 61.4101 222.275 61.374 222.266 61.4056C222.257 61.4372 222.329 61.5185 222.315 61.6584C222.312 61.693 222.301 61.7263 222.282 61.7554C222.263 61.7846 222.237 61.8086 222.207 61.8255C222.172 61.8457 222.132 61.8563 222.092 61.8563C222.051 61.8563 222.012 61.8457 221.977 61.8255C221.945 61.7987 221.921 61.7643 221.907 61.7256C221.893 61.6868 221.889 61.645 221.895 61.6043C221.901 61.5686 221.914 61.5347 221.936 61.5056C221.957 61.4765 221.985 61.453 222.017 61.4372C222.144 61.3605 222.257 61.3966 222.27 61.365Z" fill="#263238"/>
<path d="M228.955 57.4283C228.504 58.4847 227.384 59.3018 227.538 60.444C227.637 61.1798 228.111 61.866 228.021 62.6064C227.903 63.5093 226.942 64.1774 226.802 65.1029C226.635 66.236 227.741 67.1163 228.179 68.1727C228.824 69.7166 228.003 71.4502 227.98 73.1386C228.007 74.4205 228.497 75.6492 229.36 76.5972C230.224 77.5451 231.401 78.148 232.675 78.2941C233.704 78.3799 234.865 78.0684 235.384 77.1835C235.835 76.4522 235.736 75.5222 235.998 74.7141C236.395 73.5043 237.546 72.6194 237.803 71.3734C238.255 69.1162 235.501 67.2201 235.682 64.9088C235.758 63.9201 236.368 63.0623 236.625 62.1053C236.789 61.4763 236.802 60.8175 236.662 60.1827C236.522 59.5479 236.234 58.9552 235.822 58.4531C235.14 57.645 234.156 57.0988 233.564 56.232C232.91 55.2343 232.887 53.9748 232.661 52.7965C232.358 51.3643 231.697 50.0324 230.739 48.9252C229.782 47.818 228.559 46.9716 227.186 46.4652C225.812 45.9588 224.333 45.8089 222.885 46.0296C221.438 46.2502 220.071 46.8341 218.91 47.7268C218.91 47.7268 218.256 50.7018 221.312 51.2029C224.368 51.704 225.781 51.1261 226.125 52.3496C226.044 52.8536 226.083 53.3695 226.24 53.8552C226.397 54.3409 226.667 54.7826 227.027 55.144C228.273 56.4893 229.461 56.2004 228.955 57.4283Z" fill="#263238"/>
<path d="M233.811 78.0636C233.717 78.0668 233.623 78.0577 233.531 78.0365C233.266 77.9896 233.006 77.9185 232.754 77.8243C231.822 77.4669 231.005 76.8631 230.389 76.0772C229.957 75.535 229.618 74.9247 229.387 74.2714C229.123 73.5274 228.984 72.7449 228.976 71.9555C228.966 71.0855 229.076 70.2183 229.301 69.3778C229.424 68.9339 229.575 68.4982 229.752 68.0731C229.939 67.65 230.103 67.2176 230.244 66.7775C230.368 66.3438 230.368 65.8839 230.244 65.4502C230.112 65.0233 229.941 64.6092 229.734 64.2133C229.525 63.8206 229.348 63.4114 229.206 62.9898C229.067 62.5726 229.034 62.1272 229.111 61.6942C229.292 60.8455 229.806 60.2135 230.113 59.5679C230.406 58.9703 230.545 58.3095 230.52 57.6447C230.479 56.6719 230.126 55.738 229.513 54.9812C229.276 54.7161 229.021 54.4672 228.75 54.2363C229.067 54.4142 229.349 54.6465 229.585 54.9225C230.243 55.6782 230.63 56.6311 230.687 57.6312C230.724 58.325 230.587 59.017 230.289 59.6446C229.978 60.3128 229.477 60.9493 229.323 61.7258C229.17 62.5023 229.536 63.3194 229.937 64.1049C230.156 64.5122 230.335 64.9402 230.47 65.3825C230.603 65.8548 230.603 66.3548 230.47 66.8271C230.32 67.2826 230.147 67.7301 229.951 68.1679C229.773 68.5837 229.623 69.0105 229.499 69.4455C229.275 70.2647 229.164 71.1108 229.17 71.96C229.156 73.4065 229.623 74.8166 230.497 75.9689C231.082 76.7449 231.86 77.3536 232.754 77.734C233.427 77.9959 233.815 78.0365 233.811 78.0636Z" fill="#455A64"/>
<path d="M233.357 55.2837C233.137 55.3406 232.911 55.3739 232.684 55.383C232.065 55.4492 231.439 55.4325 230.824 55.3333C230.358 55.2643 229.91 55.103 229.507 54.8588C229.104 54.6146 228.754 54.2925 228.477 53.9113C228.218 53.429 228.013 52.9205 227.863 52.3944C227.67 51.869 227.308 51.4226 226.833 51.1259C225.845 50.4983 224.684 50.4216 223.673 50.2997C222.74 50.2532 221.835 49.9705 221.041 49.4781C220.51 49.1259 220.126 48.591 219.962 47.9748C219.923 47.8077 219.912 47.6352 219.931 47.4646C219.931 47.3473 219.958 47.2886 219.967 47.2886C219.972 47.5122 220.001 47.7346 220.053 47.9522C220.239 48.5284 220.623 49.0206 221.136 49.3426C221.915 49.7971 222.794 50.0515 223.696 50.083C224.707 50.2004 225.908 50.2591 226.964 50.9272C227.481 51.2519 227.875 51.7395 228.084 52.3132C228.225 52.8259 228.42 53.3222 228.666 53.7939C229.192 54.5152 229.98 55.0015 230.86 55.1482C231.455 55.2589 232.061 55.2998 232.666 55.2701C232.896 55.2572 233.127 55.2617 233.357 55.2837Z" fill="#455A64"/>
<path d="M232.235 51.6091C232.065 51.666 231.886 51.692 231.706 51.6859C230.865 51.6915 230.055 51.3674 229.449 50.783C229.173 50.5061 228.937 50.1914 228.749 49.8485C228.343 49.1623 227.95 48.3181 227.106 47.966C226.293 47.6931 225.426 47.6173 224.578 47.7448C223.862 47.8453 223.136 47.8453 222.42 47.7448C221.922 47.6757 221.453 47.4693 221.066 47.1488C220.966 47.0616 220.878 46.9614 220.804 46.8509C220.75 46.7726 220.727 46.732 220.736 46.729C220.736 46.729 220.863 46.8735 221.125 47.0766C221.511 47.3512 221.959 47.525 222.429 47.5822C223.132 47.6615 223.842 47.6493 224.542 47.5461C225.427 47.4015 226.335 47.4791 227.183 47.7718C227.619 47.9677 227.992 48.2802 228.262 48.6747C228.5 49.0267 228.718 49.3914 228.916 49.7672C229.095 50.0953 229.315 50.3989 229.571 50.6701C229.798 50.8995 230.058 51.0928 230.343 51.2435C230.763 51.4627 231.225 51.5904 231.697 51.6181C232.045 51.6136 232.23 51.5865 232.235 51.6091Z" fill="#455A64"/>
<path d="M235.156 77.0888C235.133 77.0888 235.278 76.7909 235.445 76.2311C235.671 75.4452 235.772 74.6286 235.743 73.8113C235.71 72.6016 235.38 71.4186 234.781 70.3668C234.452 69.7754 233.951 69.2472 233.54 68.5971C233.322 68.266 233.169 67.8969 233.088 67.5092C233.017 67.101 233.051 66.6815 233.188 66.2903C233.44 65.5093 233.892 64.8547 233.991 64.1369C234.091 63.4191 233.747 62.7825 233.404 62.1821C233.227 61.89 233.066 61.5886 232.921 61.2792C232.789 60.9792 232.702 60.6612 232.664 60.3357C232.622 59.7621 232.64 59.1855 232.718 58.6157C232.863 57.8102 232.788 56.9807 232.501 56.214C232.374 55.9455 232.192 55.7058 231.969 55.5098C231.969 55.5098 231.991 55.5098 232.023 55.5369C232.076 55.5634 232.125 55.5985 232.167 55.6407C232.344 55.7878 232.487 55.9709 232.587 56.1779C232.914 56.9511 233.015 57.8008 232.881 58.6292C232.818 59.1885 232.811 59.7524 232.858 60.3131C232.969 60.9439 233.219 61.5421 233.589 62.0647C233.782 62.3698 233.947 62.6917 234.082 63.0263C234.224 63.3876 234.27 63.7794 234.217 64.164C234.109 64.954 233.644 65.6221 233.409 66.358C233.286 66.713 233.253 67.0932 233.314 67.464C233.393 67.8227 233.537 68.1639 233.738 68.4707C234.122 69.0983 234.641 69.6355 234.971 70.2539C235.576 71.3412 235.899 72.5627 235.91 73.8068C235.924 74.6396 235.796 75.4686 235.531 76.2582C235.458 76.4718 235.371 76.68 235.269 76.8812C235.241 76.9554 235.203 77.0253 235.156 77.0888Z" fill="#455A64"/>
<path d="M216.762 161.206C216.762 161.206 213.72 132.386 213.544 121.736C213.368 111.087 218.333 100.577 218.333 100.577L237.782 99.769C237.782 99.769 241.628 110.572 241.696 115.118C241.831 123.939 239.353 132.648 239.637 139.645L240.287 161.224" fill="#263238"/>
<path d="M240.946 125.772C240.844 125.861 240.737 125.942 240.625 126.016L240.449 126.138L240.26 126.323C240.093 126.468 239.941 126.63 239.808 126.806C239.181 127.574 238.725 128.951 238.287 130.662C238.063 131.611 237.733 132.531 237.303 133.406C237.172 133.646 237.021 133.874 236.851 134.088C236.77 134.196 236.693 134.314 236.598 134.418L236.301 134.716C235.874 135.114 235.378 135.433 234.838 135.655C233.75 136.133 232.517 136.359 231.398 136.923C230.251 137.54 229.365 138.55 228.901 139.767C228.351 140.991 227.998 142.273 227.547 143.474C227.096 144.674 226.486 145.821 225.515 146.552C224.587 147.197 223.485 147.545 222.355 147.55C221.308 147.613 220.337 147.582 219.466 147.713C218.682 147.794 217.932 148.077 217.29 148.534C216.821 148.901 216.47 149.397 216.279 149.961C216.158 150.317 216.131 150.698 216.202 151.067C216.256 151.32 216.324 151.442 216.311 151.446C216.238 151.333 216.186 151.207 216.157 151.076C216.062 150.699 216.074 150.304 216.193 149.934C216.373 149.342 216.727 148.818 217.209 148.43C217.867 147.934 218.647 147.622 219.466 147.528C220.369 147.383 221.331 147.401 222.364 147.333C223.461 147.326 224.53 146.986 225.43 146.358C226.342 145.561 227.016 144.527 227.375 143.37C227.827 142.182 228.156 140.896 228.73 139.65C229.216 138.382 230.142 137.333 231.339 136.693C232.504 136.115 233.736 135.894 234.797 135.433C235.317 135.218 235.794 134.913 236.206 134.53L236.49 134.246C236.58 134.147 236.657 134.034 236.738 133.93C236.898 133.725 237.038 133.506 237.158 133.275C237.591 132.413 237.925 131.504 238.156 130.567C238.607 128.86 239.099 127.465 239.763 126.693C239.895 126.518 240.047 126.357 240.215 126.215C240.287 126.152 240.35 126.088 240.413 126.039L240.598 125.921C240.711 125.865 240.827 125.815 240.946 125.772Z" fill="#FAFAFA"/>
<path d="M241.06 112.437C241.081 112.563 241.09 112.692 241.087 112.82C241.086 113.193 241.04 113.564 240.952 113.926C240.563 115.247 239.799 116.426 238.753 117.321C238.063 117.956 237.306 118.514 236.496 118.987C235.625 119.502 234.663 119.994 233.674 120.554C232.636 121.11 231.669 121.791 230.794 122.58C229.897 123.471 229.158 124.507 228.609 125.646C228.056 126.8 227.424 127.914 226.718 128.982C226.359 129.479 225.944 129.934 225.481 130.336C225.024 130.725 224.522 131.057 223.986 131.325C223.017 131.802 222.006 132.19 220.966 132.485C220 132.783 219.097 133.049 218.312 133.388C217.599 133.672 216.92 134.035 216.289 134.472C215.815 134.801 215.388 135.194 215.021 135.641C214.714 136.028 214.457 136.453 214.258 136.905C214.29 136.78 214.332 136.657 214.384 136.539C214.532 136.198 214.722 135.877 214.949 135.582C215.309 135.117 215.734 134.706 216.213 134.363C216.846 133.911 217.529 133.533 218.249 133.235C219.118 132.88 220.006 132.571 220.908 132.309C221.932 132.007 222.929 131.617 223.887 131.144C224.395 130.879 224.872 130.558 225.309 130.187C225.755 129.791 226.154 129.346 226.501 128.86C227.197 127.798 227.823 126.691 228.374 125.546C228.941 124.383 229.705 123.326 230.632 122.422C231.522 121.621 232.507 120.933 233.566 120.373C234.559 119.818 235.521 119.335 236.392 118.824C237.2 118.368 237.957 117.826 238.649 117.208C239.687 116.34 240.457 115.196 240.871 113.908C240.986 113.426 241.05 112.932 241.06 112.437Z" fill="#FAFAFA"/>
<path d="M213.644 123.244C213.626 123.216 213.612 123.186 213.603 123.154C213.569 123.067 213.541 122.978 213.517 122.888C213.44 122.528 213.455 122.156 213.562 121.804C213.815 120.901 214.813 119.741 216.42 119.168C217.224 118.892 218.131 118.716 219.079 118.481C219.866 118.351 220.611 118.034 221.251 117.558C221.891 117.081 222.408 116.458 222.758 115.741C223.015 115.215 223.24 114.674 223.431 114.121C223.784 112.919 224.264 111.758 224.862 110.658C225.548 109.576 226.588 108.767 227.805 108.369C228.913 108.01 230.042 107.723 231.187 107.511C232.208 107.315 233.197 106.978 234.126 106.509C234.912 106.06 235.59 105.443 236.112 104.703C236.883 103.635 237.322 102.363 237.376 101.047C237.378 100.564 237.346 100.081 237.281 99.6021C237.418 100.071 237.48 100.558 237.466 101.047C237.449 102.392 237.024 103.7 236.247 104.798C235.719 105.563 235.026 106.2 234.22 106.663C233.28 107.149 232.275 107.5 231.236 107.705C230.103 107.921 228.984 108.209 227.887 108.568C226.718 108.951 225.719 109.728 225.061 110.766C224.472 111.851 223.998 112.995 223.648 114.179C223.453 114.743 223.222 115.293 222.957 115.827C222.69 116.34 222.349 116.811 221.946 117.226C221.153 117.949 220.177 118.441 219.124 118.649C218.167 118.892 217.264 119.046 216.474 119.308C214.908 119.84 213.914 120.937 213.648 121.813C213.539 122.151 213.509 122.509 213.562 122.86C213.601 122.986 213.628 123.114 213.644 123.244Z" fill="#FAFAFA"/>
<path d="M239.388 147.623C239.406 147.716 239.417 147.811 239.419 147.907C239.428 148.18 239.399 148.454 239.333 148.72C239.05 149.698 238.45 150.556 237.627 151.157C237.078 151.595 236.47 151.954 235.821 152.223C235.13 152.516 234.367 152.751 233.564 152.999C232.73 153.243 231.914 153.545 231.122 153.902C230.299 154.295 229.561 154.846 228.95 155.523C228.291 156.209 227.722 156.963 227.09 157.631C226.486 158.278 225.783 158.827 225.009 159.256C223.691 159.975 222.217 160.36 220.716 160.376C219.71 160.387 218.711 160.22 217.763 159.884C217.506 159.795 217.256 159.688 217.014 159.563C216.926 159.527 216.842 159.48 216.766 159.423C216.857 159.448 216.946 159.48 217.032 159.518C217.28 159.624 217.533 159.718 217.79 159.798C218.736 160.095 219.725 160.233 220.716 160.209C222.184 160.171 223.621 159.779 224.905 159.067C225.655 158.642 226.336 158.104 226.923 157.473C227.542 156.814 228.106 156.065 228.779 155.36C229.426 154.658 230.205 154.09 231.072 153.69C231.876 153.331 232.704 153.029 233.55 152.787C234.345 152.543 235.103 152.336 235.808 152.038C236.437 151.78 237.03 151.438 237.568 151.022C238.377 150.451 238.98 149.634 239.288 148.692C239.355 148.34 239.388 147.982 239.388 147.623Z" fill="#FAFAFA"/>
<path d="M237.176 87.7878L233.411 87.8781C233.267 88.6373 232.979 89.3619 232.563 90.0134C229.403 84.5509 226.978 77.2375 226.373 74.2986C226.464 74.0052 226.568 73.6801 226.698 73.319C226.792 72.7704 226.775 72.2086 226.649 71.6667C226.54 71.0121 226.36 70.1318 226.306 69.7255C226.139 68.4795 225.935 68.2854 225.502 68.4253C224.915 68.6194 225.746 71.915 225.263 71.9872C225.001 72.0233 224.685 70.8947 224.595 69.9693C224.504 69.0438 224.08 66.1907 223.778 66.0011C223.326 65.7212 222.933 66.1636 223.051 67.0845C223.168 68.0055 223.308 70.8044 222.82 70.8451C222.333 70.8857 221.918 66.1545 221.918 66.1545C221.918 66.1545 221.994 65.1253 221.426 65.1478C220.405 65.193 221.204 70.1769 221.29 70.6509C221.353 70.976 220.839 71.0392 220.775 70.6825C220.712 70.3259 220.478 65.9559 219.421 65.992C218.618 65.992 220.04 70.0957 219.588 71.0437C219.137 71.9917 218.83 67.8294 218.067 67.8836C217.782 67.9062 217.57 67.9603 218.094 70.3124C218.595 72.1811 219.198 74.0212 219.9 75.8245C221.11 82.3479 226.419 103.218 234.739 99.3989C239.398 97.2591 241.285 87.7878 241.285 87.7878H237.176Z" fill="#B78876"/>
<path d="M221.124 70.9673C221.16 70.9763 221.197 70.9763 221.232 70.9673C221.287 70.9506 221.333 70.9151 221.364 70.8672C221.395 70.8192 221.407 70.7618 221.399 70.7055C221.399 70.4256 221.345 70.0193 221.282 69.4911C221.176 68.8545 221.107 68.2124 221.074 67.5679C221.074 67.1887 221.074 66.7824 221.097 66.3535C221.104 66.1355 221.126 65.9182 221.165 65.7034C221.201 65.5003 221.336 65.252 221.494 65.2926H221.521C221.679 65.2926 221.806 65.41 221.855 65.5996C221.911 65.7961 221.933 66.0008 221.919 66.2045C222.012 67.4688 222.173 68.7272 222.402 69.9741C222.438 70.1411 222.474 70.3127 222.528 70.4842C222.552 70.572 222.582 70.658 222.618 70.7416C222.641 70.7881 222.667 70.8333 222.695 70.877C222.715 70.91 222.743 70.9378 222.776 70.9582C222.809 70.9786 222.846 70.9909 222.885 70.9944C222.95 70.9871 223.013 70.9605 223.063 70.9179C223.114 70.8753 223.151 70.8187 223.169 70.7551C223.208 70.6668 223.237 70.5744 223.255 70.4797C223.29 70.2978 223.314 70.1138 223.327 69.929C223.368 69.1767 223.358 68.4225 223.295 67.6717C223.238 67.2969 223.223 66.9168 223.25 66.5386C223.267 66.3752 223.346 66.2247 223.471 66.1188C223.5 66.1016 223.533 66.0907 223.566 66.0868C223.6 66.0829 223.633 66.0861 223.666 66.0962C223.704 66.1054 223.74 66.1206 223.774 66.1413C223.797 66.1585 223.814 66.1821 223.824 66.2091C223.966 66.5752 224.07 66.9548 224.135 67.3422C224.216 67.7395 224.284 68.1503 224.347 68.5611C224.41 68.9719 224.469 69.3872 224.519 69.8071C224.558 70.2403 224.627 70.6703 224.727 71.0937C224.78 71.3102 224.848 71.5229 224.93 71.7302C224.976 71.8463 225.04 71.9545 225.119 72.0508C225.15 72.0908 225.191 72.1213 225.238 72.1389C225.285 72.1565 225.336 72.1604 225.386 72.1501C225.431 72.135 225.472 72.1084 225.505 72.0728C225.537 72.0372 225.56 71.9938 225.571 71.9469C225.624 71.7162 225.641 71.4786 225.62 71.2427C225.62 71.0169 225.593 70.7912 225.571 70.5745C225.539 70.1953 225.503 69.8206 225.489 69.4504C225.478 69.2685 225.478 69.0861 225.489 68.9042C225.498 68.8237 225.518 68.7447 225.548 68.6694C225.558 68.6446 225.571 68.6217 225.589 68.6017H225.647C225.945 68.4798 226.045 68.8952 226.126 69.2292C226.207 69.5633 226.239 69.9425 226.311 70.2992C226.428 71.0079 226.582 71.7167 226.659 72.3939C226.711 72.7181 226.699 73.0495 226.623 73.369C226.514 73.694 226.406 74.0145 226.302 74.3351V74.3667V74.3938C226.831 76.6116 227.505 78.7923 228.32 80.9216C229.033 82.8493 229.751 84.5332 230.379 85.8875C231.006 87.2419 231.575 88.3028 231.963 89.016L232.415 89.8241C232.463 89.9204 232.523 90.0112 232.591 90.095C232.553 89.9947 232.506 89.898 232.451 89.8061L231.999 88.9799C231.629 88.2531 231.096 87.1742 230.482 85.8198C229.868 84.4655 229.173 82.7816 228.478 80.8539C227.682 78.7278 227.022 76.5535 226.501 74.3441V74.4073C226.605 74.0913 226.708 73.7708 226.817 73.4502C226.911 73.0984 226.929 72.7307 226.871 72.3713C226.79 71.6625 226.641 70.9763 226.523 70.263C226.456 69.9109 226.41 69.5498 226.338 69.1796C226.334 68.9894 226.302 68.8009 226.243 68.6198C226.192 68.5096 226.104 68.4204 225.995 68.367C225.879 68.3291 225.754 68.3291 225.638 68.367H225.566C225.528 68.3792 225.493 68.3992 225.462 68.4257C225.412 68.4682 225.373 68.5225 225.35 68.5837C225.308 68.6814 225.282 68.785 225.273 68.8906C225.259 69.086 225.259 69.2821 225.273 69.4775C225.273 69.8567 225.327 70.2359 225.359 70.6152C225.359 70.8364 225.395 71.0666 225.404 71.2698C225.422 71.4734 225.411 71.6785 225.372 71.8792C225.372 71.9244 225.336 71.9153 225.372 71.9379L225.345 71.9108C225.288 71.8371 225.242 71.7548 225.21 71.667C225.131 71.4717 225.066 71.2711 225.015 71.0666C224.916 70.6555 224.848 70.2375 224.812 69.8161C224.764 69.3917 224.705 68.9719 224.636 68.5566C224.573 68.1412 224.501 67.7349 224.42 67.3286C224.351 66.9151 224.236 66.5107 224.076 66.1233C224.045 66.0586 223.997 66.0038 223.936 65.9653C223.884 65.9348 223.828 65.9105 223.769 65.8931C223.705 65.8762 223.638 65.8722 223.572 65.8815C223.506 65.8908 223.443 65.9132 223.386 65.9472C223.293 66.0168 223.215 66.1048 223.157 66.2058C223.1 66.3068 223.064 66.4186 223.052 66.5341C223.022 66.7392 223.022 66.9475 223.052 67.1526C223.052 67.3467 223.097 67.5363 223.11 67.7259C223.173 68.4646 223.187 69.2066 223.151 69.947C223.14 70.1229 223.118 70.2979 223.083 70.4707C223.07 70.5514 223.048 70.6302 223.016 70.7055C223.004 70.7352 222.987 70.7627 222.966 70.7867C222.966 70.8273 222.934 70.7867 222.939 70.8409C222.939 70.7957 222.939 70.8409 222.939 70.7822C222.919 70.7517 222.901 70.7201 222.885 70.6874C222.853 70.6152 222.826 70.5339 222.799 70.4572C222.749 70.2946 222.713 70.1276 222.677 69.9651C222.441 68.7289 222.271 67.4812 222.167 66.2271C222.18 66.0002 222.154 65.7726 222.09 65.5545C222.06 65.4407 221.999 65.3375 221.914 65.2565C221.87 65.2138 221.817 65.1806 221.76 65.1589C221.703 65.1371 221.641 65.1274 221.58 65.1301H221.607C221.531 65.1189 221.453 65.1305 221.383 65.1635C221.313 65.1964 221.254 65.2492 221.214 65.3152C221.147 65.4229 221.101 65.5424 221.079 65.6673C221.041 65.8912 221.02 66.1175 221.016 66.3445C221.016 66.7959 221.016 67.1887 221.016 67.5724C221.058 68.221 221.141 68.8663 221.264 69.5046C221.341 70.0283 221.399 70.4346 221.426 70.71C221.435 70.7582 221.427 70.8079 221.403 70.8507C221.379 70.8935 221.341 70.9267 221.296 70.9447C221.16 70.9583 221.119 70.9628 221.124 70.9673Z" fill="#A36957"/>
<path d="M191.723 94.0042C190.842 93.9854 189.963 94.0871 189.109 94.3066C186.775 94.9206 182.753 97.3584 182.586 100.37H185.511C185.511 100.37 183.873 103.855 184.351 103.53C185.602 102.69 188.085 100.166 188.085 100.166L191.723 94.0042Z" fill="#B78876"/>
<path d="M231.599 41.5329C231.531 41.5329 231.269 39.1222 231.008 36.1156C230.746 33.109 230.583 30.6982 230.646 30.6982C230.71 30.6982 230.976 33.109 231.238 36.1156C231.5 39.1222 231.662 41.5329 231.599 41.5329Z" fill="#263238"/>
<path d="M244.423 30.8832C244.472 30.9193 242.5 33.7859 240.012 37.2846C237.525 40.7833 235.462 43.6049 235.407 43.5507C235.353 43.4965 237.331 40.6479 239.818 37.1492C242.305 33.6505 244.369 30.847 244.423 30.8832Z" fill="#263238"/>
<path d="M249.749 43.8759C249.749 43.9391 247.456 44.4673 244.602 45.0541C241.749 45.641 239.42 46.0654 239.406 46.0022C239.393 45.939 241.695 45.4108 244.553 44.8239C247.41 44.237 249.717 43.8127 249.749 43.8759Z" fill="#263238"/>
<path d="M96.2219 105.882L80.2407 187.954L78.1641 198.699L184.705 198.184C189.49 198.162 193.734 193.913 195.264 187.602L214.162 110.121C215.331 105.331 212.767 100.347 209.137 100.352L101.278 100.464C98.9306 100.46 96.8268 102.681 96.2219 105.882Z" fill="#339999"/>
<g opacity="0.5">
<path d="M96.2219 105.882L80.2407 187.954L78.1641 198.699L184.705 198.184C189.49 198.162 193.734 193.913 195.264 187.602L214.162 110.121C215.331 105.331 212.767 100.347 209.137 100.352L101.278 100.464C98.9306 100.46 96.8268 102.681 96.2219 105.882Z" fill="black"/>
</g>
<path d="M174.501 182.384L163.215 91.4581C162.763 87.7337 159.788 84.9528 156.28 84.9664L131.541 85.0431C130.622 85.0535 129.714 85.2509 128.874 85.6235C128.033 85.996 127.277 86.5358 126.652 87.21L114.914 99.7015L46.1141 100.072C41.9112 100.094 38.6788 104.076 39.2341 108.545L49.7121 192.582C50.1636 196.302 53.1386 199.078 56.6373 199.074L176.564 198.834C189.918 199.11 191.195 195.169 191.195 195.169C175.864 198.559 174.501 182.406 174.501 182.384Z" fill="#339999"/>
<g opacity="0.5">
<path d="M122.788 164.2L118.743 168.542L87.5938 140.517L91.6387 136.174L122.788 164.2Z" fill="white"/>
<path d="M117.048 135.212L121.517 139.235L93.3332 169.504L88.8594 165.482L117.048 135.212Z" fill="white"/>
</g>
<path d="M191.631 46.8506C191.484 46.789 191.359 46.6871 191.269 46.5568C191.178 46.4265 191.127 46.2732 191.12 46.1147L190.94 41.9253C190.933 41.7952 190.957 41.6653 191.01 41.546C191.062 41.4267 191.142 41.3213 191.242 41.2381C191.343 41.1549 191.461 41.0961 191.588 41.0665C191.715 41.0369 191.847 41.0373 191.974 41.0676C192.323 41.143 192.684 41.1463 193.035 41.0772C193.386 41.0081 193.719 40.8681 194.014 40.6658C194.286 40.494 194.519 40.2683 194.7 40.0028C194.881 39.7372 195.005 39.4374 195.066 39.1219C195.107 38.8024 195.083 38.4779 194.996 38.1677C194.91 37.8575 194.761 37.5679 194.56 37.3161C194.349 37.0296 194.083 36.7876 193.778 36.604C193.472 36.4204 193.134 36.2988 192.782 36.2462C192.071 36.2067 191.368 36.408 190.787 36.8177C190.205 37.2273 189.779 37.8213 189.576 38.5034C189.509 38.7101 189.364 38.8828 189.173 38.9855C188.981 39.0883 188.757 39.1131 188.548 39.0549C188.338 38.9968 188.16 38.86 188.048 38.6732C187.937 38.4863 187.902 38.2638 187.951 38.0519C188.258 36.9791 188.926 36.0446 189.841 35.4058C190.756 34.767 191.863 34.4627 192.976 34.5442C193.555 34.6214 194.113 34.8142 194.616 35.1113C195.12 35.4083 195.558 35.8034 195.906 36.2733C196.244 36.7087 196.491 37.2075 196.633 37.7402C196.775 38.273 196.809 38.8287 196.732 39.3747C196.629 39.9198 196.416 40.4382 196.106 40.8978C195.795 41.3575 195.394 41.7486 194.926 42.0472C194.249 42.5032 193.458 42.7612 192.642 42.7921L192.782 46.0245C192.787 46.1665 192.756 46.3075 192.692 46.4345C192.629 46.5615 192.534 46.6703 192.417 46.7509C192.3 46.8315 192.164 46.8812 192.023 46.8955C191.881 46.9098 191.739 46.8881 191.608 46.8325L191.631 46.8506Z" fill="#339999"/>
<path d="M192.864 48.5663C192.874 48.7026 192.842 48.8387 192.775 48.9573C192.707 49.076 192.605 49.1718 192.483 49.2327C192.361 49.2936 192.223 49.3168 192.087 49.2995C191.952 49.2821 191.824 49.2249 191.721 49.1352C191.618 49.0454 191.544 48.9271 191.508 48.7952C191.473 48.6633 191.477 48.5237 191.52 48.3942C191.564 48.2647 191.645 48.151 191.753 48.0675C191.861 47.984 191.992 47.9345 192.128 47.9252C192.219 47.9185 192.31 47.9298 192.396 47.9584C192.482 47.9871 192.562 48.0325 192.63 48.0921C192.698 48.1518 192.754 48.2244 192.795 48.3058C192.835 48.3871 192.858 48.4757 192.864 48.5663Z" fill="#339999"/>
<path d="M177.126 40.9414C177.145 40.8521 177.159 40.7616 177.166 40.6705C177.166 40.4719 177.216 40.2191 177.252 39.8625C177.297 39.4246 177.37 38.9902 177.473 38.5623C177.532 38.3095 177.564 38.0296 177.654 37.7452C177.744 37.4608 177.834 37.1538 177.934 36.8423C178.456 35.2989 179.218 33.8472 180.191 32.54C181.466 30.8474 183.083 29.4416 184.936 28.4138C185.99 27.8191 187.114 27.3552 188.281 27.0324C189.54 26.6985 190.838 26.5286 192.141 26.5268C192.827 26.5158 193.513 26.552 194.195 26.6351C194.542 26.6712 194.886 26.7615 195.233 26.8202C195.585 26.8804 195.932 26.9649 196.271 27.073C197.694 27.4707 199.048 28.0843 200.285 28.8924C203.035 30.6761 205.13 33.3066 206.253 36.3863C206.858 38.036 207.163 39.7803 207.156 41.5373C207.174 43.3473 206.854 45.1449 206.212 46.8373L206.009 47.3519L205.982 47.4196L206.009 47.4874C207.142 50.0922 208.266 52.6519 209.327 55.1303L209.517 54.9136L202.745 52.3178L202.664 52.2862L202.596 52.3494C200.805 54.0851 198.612 55.3506 196.213 56.0332C194.163 56.5976 192.017 56.7208 189.915 56.3947C187.814 56.0687 185.806 55.3008 184.024 54.1417C182.564 53.1842 181.277 51.9859 180.218 50.5978C178.684 48.5717 177.689 46.1886 177.329 43.6727C177.275 43.2212 177.23 42.842 177.189 42.4989C177.148 42.1558 177.189 41.8759 177.166 41.6366C177.144 41.3974 177.166 41.2394 177.166 41.1084C177.189 41.105 177.209 41.0932 177.223 41.0754C177.238 41.0576 177.245 41.0351 177.243 41.0124C177.241 40.9897 177.231 40.9685 177.214 40.953C177.197 40.9375 177.176 40.9289 177.153 40.9289C177.13 40.9289 177.108 40.9375 177.091 40.953C177.075 40.9685 177.064 40.9897 177.063 41.0124C177.061 41.0351 177.068 41.0576 177.082 41.0754C177.096 41.0932 177.117 41.105 177.139 41.1084C177.139 41.2394 177.139 41.4154 177.139 41.6366C177.139 41.8578 177.139 42.1648 177.139 42.5079C177.139 42.851 177.216 43.2438 177.261 43.6907C177.41 44.7766 177.668 45.8445 178.033 46.8779C178.55 48.2427 179.245 49.533 180.101 50.7152C181.164 52.128 182.46 53.3494 183.933 54.3267C185.738 55.5148 187.774 56.3055 189.908 56.6464C192.041 56.9873 194.223 56.8706 196.308 56.3041C198.736 55.6145 200.956 54.3368 202.772 52.5842L202.623 52.6158L209.395 55.2251L209.734 55.356L209.585 55.0084C208.51 52.53 207.4 49.9748 206.271 47.3655V47.4964L206.479 46.9682C207.137 45.2389 207.465 43.4012 207.445 41.5509C207.459 39.7565 207.153 37.9741 206.542 36.287C205.395 33.1459 203.253 30.4654 200.443 28.6531C199.175 27.8261 197.786 27.2017 196.326 26.8022C195.98 26.6928 195.627 26.6098 195.269 26.5539C194.917 26.4907 194.57 26.4004 194.217 26.3688C193.527 26.2831 192.832 26.2439 192.136 26.2514C190.812 26.257 189.495 26.4361 188.218 26.7841C187.035 27.1199 185.897 27.5958 184.827 28.2016C182.956 29.2547 181.329 30.6934 180.056 32.4226C179.086 33.7514 178.334 35.2267 177.83 36.7926C177.735 37.1177 177.645 37.4292 177.564 37.6955C177.492 37.9677 177.435 38.2434 177.392 38.5217C177.295 38.9525 177.232 39.3902 177.202 39.8309C177.175 40.1785 177.157 40.4448 177.144 40.6435C177.125 40.7416 177.119 40.8417 177.126 40.9414Z" fill="#263238"/>
</svg>
