<svg width="200" height="200" viewBox="0 0 200 200" fill="none" xmlns="http://www.w3.org/2000/svg">
<g id="Frame">
<g id="freepik--Floor--inject-3">
<path id="freepik--floor--inject-3" d="M101.448 190.076C152.694 190.076 194.236 166.091 194.236 136.504C194.236 106.917 152.694 82.9316 101.448 82.9316C50.2028 82.9316 8.66016 106.917 8.66016 136.504C8.66016 166.091 50.2028 190.076 101.448 190.076Z" fill="#F0F0F0"/>
</g>
<g id="freepik--Shadows--inject-3">
<path id="freepik--Shadow--inject-3" d="M161.526 157.379C175.404 157.379 186.654 150.884 186.654 142.871C186.654 134.859 175.404 128.363 161.526 128.363C147.649 128.363 136.398 134.859 136.398 142.871C136.398 150.884 147.649 157.379 161.526 157.379Z" fill="#E0E0E0"/>
<path id="freepik--shadow--inject-3" d="M21.9049 147.043L29.7809 151.599C30.1114 151.769 30.4775 151.857 30.8489 151.857C31.2204 151.857 31.5865 151.769 31.9169 151.599L123.917 98.4794C124.509 98.1394 124.509 97.5874 123.917 97.2474L116.037 92.6954C115.707 92.5278 115.341 92.4404 114.971 92.4404C114.601 92.4404 114.235 92.5278 113.905 92.6954L21.9049 145.819C21.3129 146.151 21.3129 146.703 21.9049 147.043Z" fill="#E0E0E0"/>
<path id="freepik--shadow--inject-3_2" d="M128.025 166.067L92.6848 186.467C92.4193 186.603 92.1252 186.674 91.8268 186.674C91.5284 186.674 91.2343 186.603 90.9688 186.467L43.2808 158.935C43.1772 158.9 43.0873 158.833 43.0237 158.744C42.96 158.655 42.9258 158.549 42.9258 158.439C42.9258 158.33 42.96 158.223 43.0237 158.134C43.0873 158.045 43.1772 157.978 43.2808 157.943L78.6168 137.543C78.8823 137.407 79.1764 137.336 79.4748 137.336C79.7732 137.336 80.0673 137.407 80.3328 137.543L128.025 165.075C128.128 165.11 128.218 165.177 128.282 165.266C128.346 165.355 128.38 165.462 128.38 165.571C128.38 165.681 128.346 165.787 128.282 165.876C128.218 165.965 128.128 166.032 128.025 166.067Z" fill="#E0E0E0"/>
<path id="freepik--shadow--inject-3_3" opacity="0.1" d="M148.802 112.443L145.266 110.403C144.939 110.213 144.568 110.112 144.19 110.112C143.812 110.112 143.44 110.213 143.114 110.403L99.1136 136.143L94.9696 141.019C94.926 141.071 94.9 141.135 94.8953 141.203C94.8906 141.271 94.9075 141.338 94.9435 141.395C94.9796 141.453 95.0329 141.497 95.0958 141.522C95.1587 141.547 95.2279 141.552 95.2936 141.535L104.314 139.135L148.802 113.479C148.892 113.426 148.967 113.351 149.019 113.26C149.071 113.169 149.099 113.066 149.099 112.961C149.099 112.856 149.071 112.753 149.019 112.663C148.967 112.572 148.892 112.496 148.802 112.443Z" fill="#455A64"/>
</g>
<g id="freepik--Clouds--inject-3">
<g id="freepik--clouds--inject-3">
<path id="Vector" d="M41.6007 24.9041L40.0407 25.4241V22.4441C40.0407 20.0841 37.8647 19.5161 35.5047 20.7001C33.1447 21.9001 31.2287 24.7481 31.2287 27.1001V27.5321C30.8946 27.4402 30.5454 27.4162 30.2019 27.4616C29.8584 27.5069 29.5275 27.6207 29.2287 27.7961C27.5287 28.6441 26.1527 30.7121 26.1527 32.4121V32.6081L24.0007 33.7081C22.8807 34.2681 21.9727 35.6281 21.9727 36.7481C21.9727 37.8681 22.8887 38.3201 24.0007 37.7601L41.6007 28.9601C42.7207 28.4001 43.6287 27.0401 43.6287 25.9201C43.6287 24.8001 42.7367 24.3441 41.6007 24.9041Z" fill="#EBEBEB"/>
<path id="Vector_2" d="M59.7564 31.6001L56.9244 33.0161C56.9404 32.9089 56.9484 32.8006 56.9484 32.6921V32.0001C56.9484 30.7401 55.9244 30.2281 54.6604 30.8601C54.1299 31.1389 53.6649 31.5275 53.2964 32.0001C53.0924 30.4001 51.6524 29.8201 49.9044 30.6961C48.0124 31.6401 46.4804 33.9401 46.4804 35.8281V36.8921C46.4699 37.3206 46.5691 37.7447 46.7684 38.1241L44.4204 39.2961C44.0666 39.4824 43.7649 39.7541 43.5427 40.0866C43.3206 40.4192 43.1851 40.8019 43.1484 41.2001C43.1484 41.9001 43.7204 42.1841 44.4204 41.8361L59.7564 34.1681C60.1095 33.9814 60.4105 33.7094 60.6319 33.3769C60.8533 33.0444 60.9882 32.6619 61.0244 32.2641C61.0244 31.5481 60.4564 31.2641 59.7564 31.6001Z" fill="#EBEBEB"/>
</g>
</g>
<g id="freepik--Plants--inject-3">
<g id="freepik--plants--inject-3">
<path id="Vector_3" d="M25.2 136.052L28.46 134.88C28.46 134.88 29.42 127.756 28.532 121.904C27.208 113.144 19.792 104.664 14.508 103.024C4.79998 100 4.85598 109.2 12.188 114.336C18.568 118.8 24.252 125.472 25.2 136.052Z" fill="#339999"/>
<path id="Vector_4" d="M26.799 135.649H26.759C26.662 135.623 26.5782 135.562 26.5241 135.478C26.47 135.393 26.4496 135.292 26.467 135.193C28.215 127.193 22.003 112.053 13.267 107.565C13.2036 107.505 13.1613 107.427 13.1465 107.341C13.1317 107.255 13.1452 107.167 13.185 107.09C13.2247 107.013 13.2886 106.95 13.3669 106.913C13.4452 106.875 13.5337 106.864 13.619 106.881C22.635 111.509 29.035 127.097 27.219 135.357C27.1941 135.447 27.1385 135.525 27.0618 135.579C26.985 135.632 26.8921 135.657 26.799 135.649Z" fill="white"/>
<path id="Vector_5" d="M29.4835 143.12C29.6395 142.172 29.7395 140.776 29.7675 140.436C29.884 139.222 29.7478 137.996 29.3675 136.836C29.1915 136.328 28.8435 135.836 28.7795 135.32C28.7155 134.804 28.8355 134.344 28.7035 133.832C28.5762 133.322 28.3492 132.843 28.0354 132.421C27.7216 132 27.3274 131.645 26.8755 131.376C26.0035 130.88 24.8755 130.656 24.3835 129.776C24.0555 129.184 24.1315 128.464 24.1595 127.776C24.1995 126.74 24.0755 125.628 23.4115 124.836C22.5555 123.816 21.0595 123.612 19.7355 123.748C18.4115 123.884 17.0995 124.284 15.7715 124.172C13.5275 123.992 11.6115 122.396 9.37152 122.072C8.58152 121.965 7.77882 121.996 6.99952 122.164C5.84752 122.404 4.66752 122.964 4.13152 124.012C3.91231 124.507 3.81947 125.048 3.86136 125.587C3.90326 126.126 4.07857 126.646 4.37152 127.1C4.99152 128.124 5.97152 128.772 7.00752 129.336C8.04352 129.9 8.83952 130.512 8.31552 131.852C8.13211 132.23 8.01442 132.635 7.96752 133.052C7.97838 133.42 8.08478 133.779 8.27624 134.093C8.4677 134.407 8.73764 134.666 9.05952 134.844C9.70525 135.195 10.4082 135.428 11.1355 135.532L13.6835 136.048C14.4235 136.2 15.3355 136.536 15.3715 137.292C15.3955 137.76 15.0435 138.152 14.8635 138.588C14.7122 139.034 14.6952 139.514 14.8147 139.969C14.9342 140.425 15.1849 140.835 15.5355 141.148C16.2518 141.767 17.1418 142.148 18.0835 142.24C19.0155 142.376 19.9595 142.36 20.8835 142.464C22.329 142.63 23.7261 143.086 24.9915 143.804C25.2995 144.018 25.6399 144.18 25.9995 144.284C26.5475 144.4 29.3835 143.716 29.4835 143.12Z" fill="#339999"/>
<g id="Group" opacity="0.1">
<path id="Vector_6" d="M29.4835 143.12C29.6395 142.172 29.7395 140.776 29.7675 140.436C29.884 139.222 29.7478 137.996 29.3675 136.836C29.1915 136.328 28.8435 135.836 28.7795 135.32C28.7155 134.804 28.8355 134.344 28.7035 133.832C28.5762 133.322 28.3492 132.843 28.0354 132.421C27.7216 132 27.3274 131.645 26.8755 131.376C26.0035 130.88 24.8755 130.656 24.3835 129.776C24.0555 129.184 24.1315 128.464 24.1595 127.776C24.1995 126.74 24.0755 125.628 23.4115 124.836C22.5555 123.816 21.0595 123.612 19.7355 123.748C18.4115 123.884 17.0995 124.284 15.7715 124.172C13.5275 123.992 11.6115 122.396 9.37152 122.072C8.58152 121.965 7.77882 121.996 6.99952 122.164C5.84752 122.404 4.66752 122.964 4.13152 124.012C3.91231 124.507 3.81947 125.048 3.86136 125.587C3.90326 126.126 4.07857 126.646 4.37152 127.1C4.99152 128.124 5.97152 128.772 7.00752 129.336C8.04352 129.9 8.83952 130.512 8.31552 131.852C8.13211 132.23 8.01442 132.635 7.96752 133.052C7.97838 133.42 8.08478 133.779 8.27624 134.093C8.4677 134.407 8.73764 134.666 9.05952 134.844C9.70525 135.195 10.4082 135.428 11.1355 135.532L13.6835 136.048C14.4235 136.2 15.3355 136.536 15.3715 137.292C15.3955 137.76 15.0435 138.152 14.8635 138.588C14.7122 139.034 14.6952 139.514 14.8147 139.969C14.9342 140.425 15.1849 140.835 15.5355 141.148C16.2518 141.767 17.1418 142.148 18.0835 142.24C19.0155 142.376 19.9595 142.36 20.8835 142.464C22.329 142.63 23.7261 143.086 24.9915 143.804C25.2995 144.018 25.6399 144.18 25.9995 144.284C26.5475 144.4 29.3835 143.716 29.4835 143.12Z" fill="black"/>
</g>
<path id="Vector_7" d="M27.9426 144C27.8769 143.994 27.8142 143.969 27.7619 143.929C27.7095 143.888 27.6696 143.834 27.6466 143.772C24.4466 135.344 16.8706 128.608 6.29063 124.8C6.20336 124.768 6.13213 124.704 6.09242 124.62C6.05272 124.536 6.04776 124.44 6.07863 124.352C6.11194 124.266 6.17698 124.196 6.26034 124.157C6.3437 124.117 6.43902 124.111 6.52663 124.14C17.3026 128.02 25.0346 134.904 28.2986 143.524C28.3154 143.567 28.3235 143.613 28.3225 143.658C28.3215 143.704 28.3114 143.75 28.2928 143.792C28.2742 143.834 28.2475 143.872 28.2142 143.903C28.1808 143.935 28.1416 143.96 28.0986 143.976C28.0491 143.996 27.9958 144.004 27.9426 144Z" fill="white"/>
</g>
</g>
<g id="freepik--Pencil--inject-3">
<g id="freepik--pencil--inject-3">
<path id="Vector_8" d="M140.911 115.391L140.179 115.815L139.303 116.331L104.155 136.775C104.427 136.159 104.203 134.931 103.567 133.755C102.827 132.387 101.699 131.307 100.887 131.271L135.799 110.963L137.483 109.999C136.431 110.679 139.843 116.075 140.911 115.391Z" fill="#339999"/>
<path id="Vector_9" d="M137.375 110.047C137.839 109.755 138.655 110.623 139.435 111.723C140.475 113.187 141.323 115.123 140.711 115.507L139.511 116.207L139.079 116.451C139.691 116.051 138.843 114.127 137.803 112.667C137.055 111.611 136.203 110.803 135.727 111.003L137.375 110.047Z" fill="#EBEBEB"/>
<path id="Vector_10" d="M136.077 110.798C137.153 110.122 140.561 115.546 139.485 116.222L137.853 117.174C138.929 116.498 135.525 111.078 134.449 111.754L136.077 110.798Z" fill="#339999"/>
<path id="Vector_11" d="M132.895 112.655L134.495 111.715C135.543 111.043 138.895 116.247 137.995 117.083L137.939 117.127L136.311 118.063C137.379 117.367 133.963 111.971 132.895 112.655Z" fill="#EBEBEB"/>
<path id="Vector_12" d="M96.0664 136.807L94.8984 138.151L96.0664 136.807Z" fill="#E0E0E0"/>
<path id="Vector_13" d="M103.398 132.723C102.726 131.883 101.822 131.275 100.894 131.267L96.0664 136.799C96.2602 136.83 96.4378 136.926 96.5704 137.071C97.1384 137.831 97.0864 138.207 97.0864 138.207L104.154 136.767C104.85 135.699 104.378 133.959 103.398 132.723Z" fill="#FFA8A7"/>
<path id="Vector_14" d="M96.569 137.079C96.5102 136.999 96.4346 136.933 96.3475 136.886C96.2603 136.839 96.1639 136.812 96.065 136.807L94.897 138.151C94.8572 138.194 94.8323 138.249 94.8259 138.307C94.8194 138.366 94.8319 138.425 94.8614 138.476C94.8908 138.527 94.9358 138.567 94.9897 138.59C95.0436 138.614 95.1036 138.62 95.161 138.607L97.085 138.207C97.085 138.207 97.169 137.843 96.569 137.079Z" fill="#37474F"/>
<path id="Vector_15" d="M147.315 111.651L140.915 115.395C140.88 115.415 140.842 115.43 140.803 115.439C141.239 114.927 140.427 113.111 139.439 111.723C138.719 110.711 137.863 109.927 137.379 110.047L144.059 106.139C145.523 105.119 147.451 107.883 147.835 109.859C147.999 110.607 147.855 111.267 147.315 111.651Z" fill="#F28F8F"/>
<path id="Vector_16" opacity="0.15" d="M147.318 111.651C147.858 111.251 147.982 110.607 147.83 109.859C147.83 109.767 147.786 109.671 147.762 109.575L104.378 134.707L94.918 138.539C94.9501 138.569 94.9891 138.591 95.0316 138.603C95.0741 138.615 95.1188 138.616 95.162 138.607L97.086 138.207L104.154 136.767L147.318 111.651Z" fill="black"/>
</g>
</g>
<g id="freepik--Device--inject-3">
<g id="freepik--device--inject-3">
<g id="freepik--device--inject-3_2">
<path id="Vector_17" d="M119.914 18.7987C119.314 18.4747 118.538 18.5227 117.69 19.0107L32.898 67.9587C31.8783 68.6123 31.0501 69.5246 30.498 70.6027L27.082 68.6267C27.83 67.2067 28.89 66.7227 29.814 66.1867L114.614 17.2307C115.502 16.7227 116.306 16.6987 116.914 17.0667L119.914 18.7987Z" fill="#455A64"/>
<path id="Vector_18" d="M27.5638 147.331C26.8158 146.911 26.3398 145.919 26.3398 144.507V72.843C26.3398 71.243 26.4518 69.807 27.0958 68.627L30.5118 70.6029C30.4238 70.7629 30.3398 70.9309 30.2558 71.1029C30.1718 71.2749 30.1318 71.3789 30.0798 71.5029C30.0684 71.5228 30.0603 71.5444 30.0558 71.5669C29.9862 71.725 29.9248 71.8866 29.8718 72.051C29.8118 72.219 29.7598 72.3909 29.7158 72.5589C29.6757 72.6902 29.6437 72.8238 29.6198 72.9589C29.4892 73.5013 29.4221 74.0571 29.4198 74.6149V146.275C29.4198 147.703 29.9038 148.703 30.6598 149.115L27.5638 147.331Z" fill="#263238"/>
<path id="Vector_19" d="M117.694 19.0065L32.134 68.3305C30.21 69.4425 29.418 71.3505 29.418 73.9305V146.279C29.418 148.847 30.978 150.023 32.902 148.915L117.702 99.9585C119.626 98.8505 121.186 95.8665 121.186 93.3025V21.6385C121.178 19.0745 119.602 17.8945 117.694 19.0065Z" fill="#37474F"/>
<path id="Vector_20" d="M113.022 99.319L37.5735 142.879C36.5775 143.455 35.7695 142.843 35.7695 141.511V72.047C35.7695 70.715 36.5695 69.171 37.5735 68.595L113.022 25.035C114.018 24.459 114.826 25.071 114.826 26.403V95.867C114.826 97.199 114.002 98.743 113.022 99.319Z" fill="#339999"/>
<path id="Vector_21" opacity="0.1" d="M113.022 99.319L37.5735 142.879C36.5775 143.455 35.7695 142.843 35.7695 141.511V72.047C35.7695 70.715 36.5695 69.171 37.5735 68.595L113.022 25.035C114.018 24.459 114.826 25.071 114.826 26.403V95.867C114.826 97.199 114.002 98.743 113.022 99.319Z" fill="black"/>
<path id="Vector_22" d="M33.4996 110.799C33.4939 111.139 33.4088 111.473 33.2512 111.774C33.0935 112.076 32.8677 112.336 32.5916 112.535C32.0916 112.823 31.6836 112.515 31.6836 111.847C31.6893 111.507 31.7744 111.172 31.932 110.871C32.0897 110.57 32.3155 110.309 32.5916 110.111C33.0916 109.815 33.4996 110.123 33.4996 110.799Z" fill="#263238"/>
<path id="Vector_23" d="M32.5908 99.1542C32.3754 99.3086 32.1991 99.5113 32.0761 99.7461C31.9532 99.9809 31.887 100.241 31.8828 100.506V106.69C31.8828 107.21 32.1988 107.45 32.5908 107.222C32.8052 107.068 32.9805 106.866 33.1028 106.632C33.225 106.398 33.2908 106.138 33.2948 105.874V99.6902C33.2948 99.1702 32.9788 98.9302 32.5908 99.1542Z" fill="#263238"/>
</g>
<g id="freepik--Sheet--inject-3">
<path id="Vector_24" d="M112.123 31.9311C112.067 31.4991 111.723 31.3431 111.323 31.5831L40.8429 72.2591C40.602 72.4167 40.4018 72.6292 40.2589 72.8791L38.7109 71.9991C38.7852 71.8708 38.8737 71.7514 38.9749 71.6431L39.0509 71.5671C39.1248 71.4964 39.2067 71.4347 39.2949 71.3831L109.755 30.6911C110.138 30.4901 110.581 30.4333 111.003 30.5311C111.127 30.5544 111.246 30.599 111.355 30.6631C111.406 30.6923 111.454 30.7258 111.499 30.7631C111.532 30.7853 111.562 30.8122 111.587 30.8431C111.611 30.8614 111.633 30.8829 111.651 30.9071C111.693 30.9486 111.73 30.9942 111.763 31.0431C111.793 31.0815 111.821 31.1216 111.847 31.1631C111.907 31.2549 111.956 31.3528 111.995 31.4551C112.022 31.5107 112.044 31.5682 112.063 31.6271C112.063 31.6711 112.083 31.7111 112.095 31.7591C112.108 31.8158 112.118 31.8732 112.123 31.9311Z" fill="#FAFAFA"/>
<path id="Vector_25" d="M40.4782 137.163C40.2062 137.163 40.0182 136.947 40.0182 136.571V73.691C40.0298 73.4084 40.1123 73.1333 40.2582 72.891L38.7102 71.999C38.6162 72.1586 38.5461 72.3311 38.5022 72.511C38.4871 72.5782 38.4764 72.6464 38.4702 72.715C38.4683 72.7483 38.4683 72.7817 38.4702 72.815V135.679C38.4797 135.957 38.555 136.229 38.6899 136.472C38.8248 136.716 39.0154 136.924 39.2462 137.079C39.5382 137.229 39.8686 137.287 40.1942 137.247C40.4231 137.236 40.6456 137.169 40.8422 137.051C40.7313 137.116 40.6067 137.155 40.4782 137.163Z" fill="#E0E0E0"/>
<path id="Vector_26" d="M112.132 32.0636C112.132 31.5356 111.76 31.3236 111.308 31.5836L40.8435 72.2636C40.6039 72.4204 40.4045 72.6314 40.2614 72.8794C40.1183 73.1274 40.0354 73.4056 40.0195 73.6916V136.572C40.0195 137.1 40.3915 137.312 40.8435 137.052L111.308 96.3756C111.547 96.2181 111.747 96.0065 111.89 95.7577C112.033 95.509 112.116 95.2301 112.132 94.9436V32.0636Z" fill="#F0F0F0"/>
</g>
<g id="freepik--Report--inject-3">
<path id="Vector_27" d="M51.1095 89.8267L47.2015 94.7987L44.9215 97.6947C44.4292 96.6093 44.1898 95.4262 44.2215 94.2347C44.2215 90.8947 45.6655 87.0347 48.0055 84.0547L48.5215 85.0147L51.1095 89.8267Z" fill="#339999"/>
<path id="Vector_28" d="M54.4544 79.8506L51.3944 89.1106L49.9984 86.5426L48.3984 83.5466C49.2981 82.4468 50.3806 81.5105 51.5984 80.7786C52.4634 80.2471 53.4423 79.929 54.4544 79.8506Z" fill="#339999"/>
<path id="Vector_29" d="M57.9511 81.9232L52.2031 88.5432L55.0711 79.8672C55.6866 79.9359 56.2744 80.1609 56.7784 80.5207C57.2825 80.8806 57.6862 81.3634 57.9511 81.9232Z" fill="#339999"/>
<path id="Vector_30" d="M58.7184 85.4986C58.7184 90.5506 55.3984 96.5826 51.3144 98.9346C48.7784 100.403 46.5144 100.135 45.2344 98.2346L51.6664 90.0746L51.7024 90.0306L58.2264 82.5186C58.5727 83.4731 58.7395 84.4834 58.7184 85.4986Z" fill="#339999"/>
<path id="Vector_31" opacity="0.7" d="M54.4544 79.8506L51.3944 89.1106L49.9984 86.5426L48.3984 83.5466C49.2981 82.4468 50.3806 81.5105 51.5984 80.7786C52.4634 80.2471 53.4423 79.929 54.4544 79.8506Z" fill="white"/>
<path id="Vector_32" opacity="0.3" d="M57.9511 81.9232L52.2031 88.5432L55.0711 79.8672C55.6866 79.9359 56.2744 80.1609 56.7784 80.5207C57.2825 80.8806 57.6862 81.3634 57.9511 81.9232Z" fill="black"/>
<path id="Vector_33" opacity="0.5" d="M58.7184 85.4986C58.7184 90.5506 55.3984 96.5826 51.3144 98.9346C48.7784 100.403 46.5144 100.135 45.2344 98.2346L51.6664 90.0746L51.7024 90.0306L58.2264 82.5186C58.5727 83.4731 58.7395 84.4834 58.7184 85.4986Z" fill="white"/>
<path id="Vector_34" d="M45.2401 75.7752C45.3629 75.6987 45.4983 75.6445 45.6401 75.6152C45.7439 75.5926 45.8523 75.6097 45.9441 75.6632C46.0385 75.7263 46.1067 75.8216 46.1361 75.9312C46.1859 76.0917 46.2088 76.2593 46.2041 76.4272C46.2071 76.6715 46.1706 76.9146 46.0961 77.1472C46.0303 77.3552 45.9287 77.5501 45.7961 77.7232L46.2201 78.7352C46.2242 78.7523 46.2242 78.7701 46.2201 78.7872C46.2198 78.8207 46.2115 78.8536 46.1961 78.8832C46.1856 78.9093 46.1675 78.9316 46.1441 78.9472L45.6761 79.2152C45.6321 79.2432 45.6001 79.2432 45.5801 79.2152C45.5597 79.196 45.5433 79.1729 45.5321 79.1472L45.1321 78.2352L44.8161 78.4192V79.5512C44.8163 79.5916 44.8067 79.6314 44.7881 79.6672C44.7744 79.6992 44.7523 79.7268 44.7241 79.7472L44.2721 80.0072C44.2633 80.0151 44.2519 80.0194 44.2401 80.0194C44.2283 80.0194 44.2169 80.0151 44.2081 80.0072C44.198 79.9959 44.1902 79.9825 44.1854 79.9681C44.1806 79.9537 44.1788 79.9384 44.1801 79.9232V76.5072C44.1793 76.4668 44.189 76.4268 44.2081 76.3912C44.2192 76.3578 44.2419 76.3294 44.2721 76.3112L45.2401 75.7752ZM44.8401 77.6032L45.2401 77.3792C45.3355 77.323 45.4175 77.2466 45.4801 77.1552C45.5452 77.0468 45.5772 76.9216 45.5721 76.7952C45.5721 76.6472 45.5401 76.5632 45.4801 76.5432C45.4387 76.5347 45.3959 76.535 45.3546 76.5439C45.3133 76.5529 45.2743 76.5703 45.2401 76.5952L44.8401 76.8192V77.6032Z" fill="#455A64"/>
<path id="Vector_35" d="M48.4944 76.7513C48.5035 76.7442 48.5148 76.7403 48.5264 76.7403C48.538 76.7403 48.5492 76.7442 48.5584 76.7513C48.5685 76.7627 48.5762 76.776 48.581 76.7904C48.5858 76.8049 48.5877 76.8201 48.5864 76.8353V77.3993C48.5862 77.4396 48.5766 77.4793 48.5584 77.5153C48.5449 77.5474 48.5227 77.5751 48.4944 77.5953L46.8664 78.5353C46.8576 78.5432 46.8462 78.5475 46.8344 78.5475C46.8226 78.5475 46.8112 78.5432 46.8024 78.5353C46.7916 78.5244 46.7834 78.5111 46.7786 78.4966C46.7737 78.482 46.7723 78.4665 46.7744 78.4513V75.0353C46.7746 74.995 46.7842 74.9553 46.8024 74.9193C46.8159 74.8872 46.838 74.8595 46.8664 74.8393L48.4664 73.9153C48.4755 73.9082 48.4868 73.9043 48.4984 73.9043C48.51 73.9043 48.5212 73.9082 48.5304 73.9153C48.5405 73.9267 48.5482 73.94 48.553 73.9544C48.5578 73.9689 48.5597 73.9841 48.5584 73.9993V74.5633C48.5582 74.6036 48.5486 74.6433 48.5304 74.6793C48.5169 74.7114 48.4947 74.7391 48.4664 74.7593L47.4104 75.3673V75.9393L48.3904 75.3713C48.3992 75.3634 48.4106 75.3591 48.4224 75.3591C48.4342 75.3591 48.4456 75.3634 48.4544 75.3713C48.4652 75.3822 48.4733 75.3955 48.4782 75.41C48.483 75.4246 48.4845 75.4401 48.4824 75.4553V76.0153C48.4826 76.0557 48.473 76.0955 48.4544 76.1313C48.4419 76.164 48.4195 76.192 48.3904 76.2113L47.4104 76.7993V77.3913L48.4944 76.7513Z" fill="#455A64"/>
<path id="Vector_36" d="M50.2284 72.8949C50.3511 72.8197 50.4868 72.7682 50.6284 72.7429C50.7324 72.7224 50.8403 72.744 50.9284 72.8029C51.0211 72.873 51.0885 72.9713 51.1204 73.0829C51.1752 73.2494 51.2022 73.4237 51.2004 73.5989C51.2025 73.7955 51.181 73.9915 51.1364 74.1829C51.093 74.3555 51.0285 74.5221 50.9444 74.6789C50.8615 74.8243 50.7608 74.9587 50.6444 75.0789C50.5266 75.2003 50.3919 75.3041 50.2444 75.3869L49.8084 75.6389V76.7189C49.8067 76.7591 49.7972 76.7985 49.7804 76.8349C49.7677 76.8687 49.7437 76.8969 49.7124 76.9149L49.2644 77.1749C49.2556 77.1828 49.2442 77.1872 49.2324 77.1872C49.2206 77.1872 49.2092 77.1828 49.2004 77.1749C49.1901 77.1637 49.1822 77.1504 49.1774 77.1359C49.1726 77.1215 49.1709 77.1061 49.1724 77.0909V73.6749C49.1717 73.6345 49.1813 73.5946 49.2004 73.5589C49.2116 73.5255 49.2342 73.4971 49.2644 73.4789L50.2284 72.8949ZM49.7924 74.7989L50.1924 74.5549C50.2987 74.4943 50.386 74.4054 50.4446 74.298C50.5032 74.1906 50.5309 74.0691 50.5244 73.9469C50.5244 73.7989 50.4964 73.7109 50.4324 73.6789C50.3921 73.6659 50.3493 73.6627 50.3075 73.6696C50.2658 73.6766 50.2263 73.6935 50.1924 73.7189L49.7924 73.9629V74.7989Z" fill="#455A64"/>
<path id="Vector_37" d="M51.6016 73.4824C51.6099 73.2775 51.638 73.0739 51.6856 72.8744C51.7332 72.6752 51.8029 72.482 51.8936 72.2984C51.984 72.1204 52.0955 71.9539 52.2256 71.8024C52.3518 71.653 52.5035 71.527 52.6736 71.4304C52.808 71.3446 52.9623 71.2949 53.1216 71.2864C53.2409 71.2824 53.3576 71.3222 53.4496 71.3984C53.55 71.4886 53.6234 71.6049 53.6616 71.7344C53.7128 71.8991 53.7411 72.07 53.7456 72.2424C53.7456 72.3904 53.7456 72.5504 53.7456 72.7144C53.7456 72.8784 53.7456 73.0384 53.7456 73.1864C53.7369 73.39 53.7087 73.5922 53.6616 73.7904C53.6138 73.9914 53.5426 74.186 53.4496 74.3704C53.362 74.5491 53.2517 74.7158 53.1216 74.8664C52.9934 75.0139 52.8421 75.1395 52.6736 75.2384C52.5389 75.3238 52.3847 75.3734 52.2256 75.3824C52.104 75.3884 51.9849 75.3468 51.8936 75.2664C51.7947 75.1756 51.7228 75.0594 51.6856 74.9304C51.6343 74.7658 51.606 74.5948 51.6016 74.4224C51.6016 74.2784 51.6016 74.1264 51.6016 73.9624C51.6016 73.7984 51.6016 73.6344 51.6016 73.4824ZM53.1096 73.5264C53.1096 73.4584 53.1096 73.3864 53.1096 73.3104C53.1096 73.2344 53.1096 73.1504 53.1096 73.0704C53.1096 72.9904 53.1096 72.9104 53.1096 72.8344C53.1096 72.7584 53.1096 72.6944 53.1096 72.6384C53.1073 72.5625 53.0952 72.4872 53.0736 72.4144C53.0591 72.3597 53.0301 72.3099 52.9896 72.2704C52.9544 72.2354 52.9071 72.2153 52.8576 72.2144C52.7922 72.219 52.7291 72.2397 52.6736 72.2744C52.6027 72.314 52.5402 72.367 52.4896 72.4304C52.4347 72.4907 52.3901 72.5596 52.3576 72.6344C52.3211 72.7112 52.293 72.7917 52.2736 72.8744C52.2537 72.9612 52.2417 73.0495 52.2376 73.1384C52.2376 73.2024 52.2376 73.2744 52.2376 73.3504C52.2376 73.4264 52.2376 73.5024 52.2376 73.5864C52.2376 73.6704 52.2376 73.7464 52.2376 73.8224C52.2376 73.8984 52.2376 73.9664 52.2376 74.0304C52.2332 74.1633 52.2757 74.2936 52.3576 74.3984C52.4256 74.4744 52.5296 74.4744 52.6736 74.3984C52.815 74.3176 52.9261 74.1925 52.9896 74.0424C53.0608 73.879 53.1027 73.7043 53.1136 73.5264H53.1096Z" fill="#455A64"/>
<path id="Vector_38" d="M55.3456 69.9431C55.4687 69.8672 55.6041 69.813 55.7456 69.7831C55.849 69.7612 55.9568 69.7768 56.0496 69.8271C56.1431 69.892 56.2122 69.9864 56.2456 70.0951C56.2932 70.2574 56.3148 70.4261 56.3096 70.5951C56.3117 70.839 56.2767 71.0818 56.2056 71.3151C56.1376 71.5217 56.0348 71.7152 55.9016 71.8871L56.3256 72.8991C56.3289 72.9163 56.3289 72.934 56.3256 72.9511C56.3253 72.9846 56.3171 73.0175 56.3016 73.0471C56.2921 73.0738 56.2737 73.0964 56.2496 73.1111L55.7816 73.3831C55.7376 73.4071 55.7056 73.4111 55.6856 73.3831C55.6661 73.3632 55.6499 73.3402 55.6376 73.3151L55.2576 72.4031L54.9416 72.5831V73.7151C54.9424 73.7556 54.9327 73.7955 54.9136 73.8311C54.9012 73.8649 54.8789 73.8942 54.8496 73.9151L54.3976 74.1711C54.3935 74.1755 54.3886 74.179 54.3831 74.1813C54.3775 74.1837 54.3716 74.1849 54.3656 74.1849C54.3596 74.1849 54.3537 74.1837 54.3482 74.1813C54.3427 74.179 54.3377 74.1755 54.3336 74.1711C54.3228 74.1602 54.3147 74.147 54.3098 74.1324C54.305 74.1178 54.3035 74.1024 54.3056 74.0871V70.6711C54.3054 70.6308 54.315 70.591 54.3336 70.5551C54.3473 70.5232 54.3694 70.4955 54.3976 70.4751L55.3456 69.9431ZM54.9456 71.7671L55.3456 71.5431C55.4409 71.4884 55.5229 71.4133 55.5856 71.3231C55.6503 71.213 55.6822 71.0867 55.6776 70.9591C55.6776 70.8111 55.6456 70.7271 55.5856 70.7071C55.5439 70.6995 55.5011 70.7005 55.4598 70.7101C55.4185 70.7197 55.3796 70.7378 55.3456 70.7631L54.9456 70.9871V71.7671Z" fill="#455A64"/>
<path id="Vector_39" d="M58.6239 68.0471C58.633 68.04 58.6443 68.0361 58.6559 68.0361C58.6675 68.0361 58.6788 68.04 58.6879 68.0471C58.6983 68.0591 58.7062 68.0731 58.711 68.0882C58.7158 68.1034 58.7175 68.1193 58.7159 68.1351V68.6951C58.7157 68.7355 58.7061 68.7752 58.6879 68.8111C58.6744 68.8432 58.6522 68.8709 58.6239 68.8911L58.0199 69.2391V71.9511C58.0207 71.9916 58.011 72.0315 57.9919 72.0671C57.9808 72.1006 57.9581 72.1289 57.9279 72.1471L57.4759 72.4071C57.4671 72.415 57.4557 72.4194 57.4439 72.4194C57.4321 72.4194 57.4207 72.415 57.4119 72.4071C57.4011 72.3962 57.393 72.383 57.3881 72.3684C57.3832 72.3538 57.3818 72.3384 57.3839 72.3231V69.5991L56.7799 69.9471C56.7711 69.955 56.7597 69.9594 56.7479 69.9594C56.7361 69.9594 56.7247 69.955 56.7159 69.9471C56.7058 69.9358 56.6981 69.9225 56.6932 69.908C56.6884 69.8936 56.6866 69.8783 56.6879 69.8631V69.3031C56.6876 69.2615 56.6972 69.2204 56.7159 69.1831C56.7294 69.1511 56.7516 69.1234 56.7799 69.1031L58.6239 68.0471Z" fill="#455A64"/>
<path id="Vector_40" d="M61.8164 66.207L106.776 40.251V43.831L61.8164 69.787V66.207Z" fill="#339999"/>
<g id="Group_2" opacity="0.3">
<path id="Vector_41" d="M61.539 77.4827C61.4726 77.4831 61.4073 77.4659 61.3497 77.4329C61.292 77.3999 61.2442 77.3522 61.211 77.2947C61.1639 77.2062 61.1517 77.1032 61.1769 77.0062C61.2021 76.9091 61.2628 76.8251 61.347 76.7707L87.703 61.5707C87.7881 61.5451 87.8793 61.5485 87.9622 61.5805C88.0452 61.6125 88.1151 61.6712 88.1609 61.7473C88.2068 61.8234 88.226 61.9127 88.2155 62.0009C88.205 62.0892 88.1654 62.1714 88.103 62.2347L61.751 77.4347C61.6861 77.47 61.6127 77.4866 61.539 77.4827Z" fill="#455A64"/>
<path id="Vector_42" d="M61.539 81.0628C61.4726 81.0632 61.4073 81.046 61.3497 81.013C61.292 80.98 61.2442 80.9323 61.211 80.8748C61.1639 80.7863 61.1517 80.6833 61.1769 80.5863C61.2021 80.4892 61.2628 80.4052 61.347 80.3508L87.703 65.1508C87.7881 65.1251 87.8793 65.1286 87.9622 65.1606C88.0452 65.1926 88.1151 65.2512 88.1609 65.3274C88.2068 65.4035 88.226 65.4927 88.2155 65.581C88.205 65.6693 88.1654 65.7515 88.103 65.8148L61.751 81.0148C61.6861 81.05 61.6127 81.0666 61.539 81.0628Z" fill="#455A64"/>
<path id="Vector_43" d="M61.539 84.6428C61.4726 84.6433 61.4073 84.6261 61.3497 84.5931C61.292 84.56 61.2442 84.5124 61.211 84.4548C61.1639 84.3664 61.1517 84.2634 61.1769 84.1663C61.2021 84.0693 61.2628 83.9853 61.347 83.9308L87.703 68.7308C87.7881 68.7052 87.8793 68.7087 87.9622 68.7407C88.0452 68.7726 88.1151 68.8313 88.1609 68.9075C88.2068 68.9836 88.226 69.0728 88.2155 69.1611C88.205 69.2493 88.1654 69.3316 88.103 69.3948L61.751 84.5948C61.6861 84.6301 61.6127 84.6467 61.539 84.6428Z" fill="#455A64"/>
<path id="Vector_44" d="M61.539 88.2231C61.4726 88.2235 61.4073 88.2064 61.3497 88.1733C61.292 88.1403 61.2442 88.0926 61.211 88.0351C61.1639 87.9466 61.1517 87.8437 61.1769 87.7466C61.2021 87.6496 61.2628 87.5655 61.347 87.5111L87.703 72.3111C87.7454 72.2665 87.7974 72.2323 87.8552 72.2111C87.9129 72.1898 87.9748 72.1822 88.0359 72.1888C88.0971 72.1954 88.1559 72.216 88.2078 72.249C88.2597 72.2821 88.3033 72.3266 88.3352 72.3792C88.3671 72.4318 88.3864 72.4911 88.3916 72.5524C88.3969 72.6136 88.3879 72.6753 88.3655 72.7326C88.343 72.7899 88.3077 72.8412 88.2621 72.8825C88.2166 72.9239 88.1622 72.9542 88.103 72.9711L61.751 88.1711C61.6865 88.2078 61.6131 88.2258 61.539 88.2231Z" fill="#455A64"/>
<path id="Vector_45" d="M61.5393 91.8068C61.4694 91.8048 61.4012 91.7846 61.3415 91.7481C61.2819 91.7116 61.2328 91.6601 61.1993 91.5988C61.1522 91.5103 61.14 91.4073 61.1652 91.3103C61.1904 91.2132 61.2511 91.1292 61.3353 91.0748L87.6913 75.8748C87.7756 75.8507 87.8656 75.855 87.9472 75.887C88.0289 75.919 88.0978 75.977 88.1433 76.0521C88.1887 76.1271 88.2083 76.215 88.1989 76.3022C88.1895 76.3894 88.1517 76.4711 88.0913 76.5348L61.7393 91.7348C61.6803 91.7764 61.6112 91.8012 61.5393 91.8068Z" fill="#455A64"/>
</g>
<path id="Vector_46" d="M91.6852 57.8873L95.0772 55.9313C95.3052 55.7993 95.4772 55.9073 95.4772 56.1713V60.0873C95.471 60.2291 95.4316 60.3674 95.3621 60.4911C95.2927 60.6148 95.195 60.7204 95.0772 60.7993L91.6852 62.7593C91.4572 62.8913 91.2852 62.7833 91.2852 62.5193V58.6033C91.2919 58.4612 91.3315 58.3225 91.401 58.1983C91.4704 58.0741 91.5676 57.9676 91.6852 57.8873Z" fill="#339999"/>
<path id="Vector_47" d="M97.3063 54.643L100.698 52.687C100.926 52.555 101.098 52.659 101.098 52.923V56.839C101.092 56.9813 101.053 57.1202 100.983 57.2445C100.914 57.3689 100.816 57.4752 100.698 57.555L97.3063 59.511C97.0783 59.643 96.9062 59.539 96.9062 59.275V55.359C96.9124 55.2167 96.9518 55.0779 97.0212 54.9535C97.0907 54.8292 97.1883 54.7229 97.3063 54.643Z" fill="#339999"/>
<path id="Vector_48" d="M102.931 51.3952L106.319 49.4391C106.547 49.3071 106.719 49.4151 106.719 49.6791V53.5992C106.713 53.7414 106.673 53.8801 106.604 54.0044C106.534 54.1287 106.437 54.2351 106.319 54.3151L102.931 56.2752C102.703 56.4072 102.531 56.2991 102.531 56.0351V52.1192C102.536 51.9756 102.575 51.8352 102.645 51.7094C102.714 51.5837 102.812 51.476 102.931 51.3952Z" fill="#339999"/>
<path id="Vector_49" d="M91.6852 64.3991L95.0772 62.4391C95.3052 62.3071 95.4772 62.4151 95.4772 62.6791V66.5951C95.471 66.7374 95.4316 66.8763 95.3622 67.0006C95.2927 67.125 95.1951 67.2313 95.0772 67.3111L91.6852 69.2671C91.4572 69.3991 91.2852 69.2912 91.2852 69.0272V65.1151C91.2913 64.9729 91.3307 64.834 91.4001 64.7096C91.4696 64.5853 91.5672 64.479 91.6852 64.3991Z" fill="#339999"/>
<path id="Vector_50" d="M97.3063 61.1352L100.698 59.1792C100.926 59.0472 101.098 59.1512 101.098 59.4152V63.3312C101.092 63.4735 101.053 63.6124 100.983 63.7367C100.914 63.8611 100.816 63.9674 100.698 64.0472L97.3063 65.9992C97.0783 66.1312 96.9062 66.0272 96.9062 65.7632V61.8472C96.913 61.7056 96.9527 61.5676 97.0221 61.444C97.0915 61.3204 97.1888 61.2147 97.3063 61.1352Z" fill="#339999"/>
<path id="Vector_51" d="M102.931 57.8913L106.319 55.9313C106.547 55.7993 106.719 55.9073 106.719 56.1713V60.0873C106.713 60.229 106.673 60.3672 106.604 60.4908C106.534 60.6145 106.437 60.7201 106.319 60.7993L102.931 62.7593C102.703 62.8913 102.531 62.7833 102.531 62.5193V58.6033C102.538 58.4617 102.577 58.3235 102.647 58.1998C102.716 58.0762 102.814 57.9705 102.931 57.8913Z" fill="#339999"/>
<path id="Vector_52" d="M91.6852 70.8747L95.0772 68.9147C95.3052 68.7827 95.4772 68.8907 95.4772 69.1547V73.0707C95.471 73.213 95.4316 73.3519 95.3622 73.4762C95.2927 73.6006 95.1951 73.7069 95.0772 73.7867L91.6852 75.7427C91.4572 75.8747 91.2852 75.7667 91.2852 75.5067V71.5987C91.2901 71.4551 91.3288 71.3146 91.3984 71.1888C91.4679 71.063 91.5661 70.9554 91.6852 70.8747Z" fill="#339999"/>
<path id="Vector_53" d="M97.3063 67.6267L100.698 65.6707C100.926 65.5387 101.098 65.6467 101.098 65.9067V69.8227C101.092 69.965 101.053 70.1039 100.983 70.2282C100.914 70.3525 100.816 70.4589 100.698 70.5387L97.3063 72.4987C97.0783 72.6307 96.9062 72.5227 96.9062 72.2587V68.3427C96.9124 68.2004 96.9518 68.0615 97.0212 67.9372C97.0907 67.8129 97.1883 67.7065 97.3063 67.6267Z" fill="#339999"/>
<path id="Vector_54" d="M102.931 64.3991L106.319 62.4391C106.547 62.3071 106.719 62.4151 106.719 62.6791V66.5951C106.713 66.7374 106.673 66.8761 106.604 67.0004C106.534 67.1247 106.437 67.2311 106.319 67.3111L102.931 69.2671C102.703 69.3991 102.531 69.2912 102.531 69.0272V65.1151C102.538 64.9729 102.577 64.8342 102.647 64.7099C102.716 64.5856 102.814 64.4792 102.931 64.3991Z" fill="#339999"/>
<path id="Vector_55" d="M44.7656 127.963L88.1736 102.903V104.691L44.7656 129.755V127.963Z" fill="#455A64"/>
<path id="Vector_56" d="M44.7656 126.175V115.431L48.5896 117.639L52.2736 110.815L56.6656 113.351L58.7176 110.959L61.8176 112.747L66.3296 106.007L69.9256 107.511L74.2216 98.4271L77.2256 103.647L81.3296 97.6991L82.8576 100.599L88.1736 92.1631V101.111L44.7656 126.175Z" fill="#339999"/>
<path id="Vector_57" d="M44.7656 114.435L48.3336 116.327L52.0336 109.447L56.4496 111.999L58.4336 109.683L61.5336 111.475L65.9736 104.979L69.5696 106.483L74.2216 96.6389L77.3216 102.007L81.4256 96.0589L82.9256 98.9629L88.1736 90.6269V83.2109L82.6856 91.7669L80.4216 87.6869L77.3216 93.0589L74.2216 91.2669L71.1216 96.6389L68.0216 94.8469L63.3696 102.903L60.2696 100.219L57.1976 104.675L52.3496 102.007L48.4296 108.599L44.7656 106.483V114.435Z" fill="#339999"/>
<path id="Vector_58" opacity="0.3" d="M44.7656 114.435L48.3336 116.327L52.0336 109.447L56.4496 111.999L58.4336 109.683L61.5336 111.475L65.9736 104.979L69.5696 106.483L74.2216 96.6389L77.3216 102.007L81.4256 96.0589L82.9256 98.9629L88.1736 90.6269V83.2109L82.6856 91.7669L80.4216 87.6869L77.3216 93.0589L74.2216 91.2669L71.1216 96.6389L68.0216 94.8469L63.3696 102.903L60.2696 100.219L57.1976 104.675L52.3496 102.007L48.4296 108.599L44.7656 106.483V114.435Z" fill="black"/>
<g id="Group_3" opacity="0.3">
<path id="Vector_59" d="M91.2721 81.803C91.194 81.7925 91.1209 81.7591 91.0617 81.7071C91.0026 81.6551 90.9601 81.5868 90.9396 81.5108C90.9191 81.4348 90.9215 81.3544 90.9465 81.2797C90.9715 81.2051 91.0179 81.1394 91.0801 81.091L106.584 72.1391C106.669 72.1134 106.76 72.1169 106.843 72.1489C106.926 72.1808 106.996 72.2395 107.042 72.3157C107.088 72.3918 107.107 72.481 107.097 72.5693C107.086 72.6575 107.046 72.7398 106.984 72.803L91.4801 81.751C91.4172 81.7882 91.345 81.8063 91.2721 81.803Z" fill="#455A64"/>
<path id="Vector_60" d="M91.2721 85.3831C91.194 85.3726 91.1209 85.3392 91.0617 85.2872C91.0026 85.2352 90.9601 85.1669 90.9396 85.0909C90.9191 85.0149 90.9215 84.9345 90.9465 84.8598C90.9715 84.7851 91.0179 84.7195 91.0801 84.6711L106.584 75.7191C106.669 75.6935 106.76 75.697 106.843 75.7289C106.926 75.7609 106.996 75.8196 107.042 75.8957C107.088 75.9719 107.107 76.0611 107.097 76.1494C107.086 76.2376 107.046 76.3199 106.984 76.3831L91.4801 85.3311C91.4172 85.3683 91.345 85.3864 91.2721 85.3831Z" fill="#455A64"/>
<path id="Vector_61" d="M91.2721 88.9632C91.194 88.9526 91.1209 88.9193 91.0617 88.8673C91.0026 88.8153 90.9601 88.747 90.9396 88.671C90.9191 88.595 90.9215 88.5146 90.9465 88.4399C90.9715 88.3652 91.0179 88.2996 91.0801 88.2512L106.584 79.2992C106.669 79.2736 106.76 79.277 106.843 79.309C106.926 79.341 106.996 79.3997 107.042 79.4758C107.088 79.552 107.107 79.6412 107.097 79.7294C107.086 79.8177 107.046 79.9 106.984 79.9632L91.4801 88.9112C91.4172 88.9484 91.345 88.9664 91.2721 88.9632Z" fill="#455A64"/>
<path id="Vector_62" d="M91.2721 92.5433C91.194 92.5327 91.1209 92.4993 91.0617 92.4473C91.0026 92.3953 90.9601 92.3271 90.9396 92.251C90.9191 92.175 90.9215 92.0946 90.9465 92.0199C90.9715 91.9453 91.0179 91.8796 91.0801 91.8313L106.584 82.8833C106.672 82.8373 106.774 82.8258 106.87 82.8509C106.966 82.876 107.05 82.9361 107.104 83.0193C107.151 83.1078 107.163 83.2107 107.138 83.3078C107.113 83.4048 107.052 83.4889 106.968 83.5433L91.4641 92.4913C91.4059 92.5255 91.3396 92.5435 91.2721 92.5433Z" fill="#455A64"/>
<path id="Vector_63" d="M91.2721 96.1233C91.194 96.1128 91.1209 96.0794 91.0617 96.0274C91.0026 95.9754 90.9601 95.9071 90.9396 95.8311C90.9191 95.7551 90.9215 95.6747 90.9465 95.6C90.9715 95.5254 91.0179 95.4597 91.0801 95.4113L106.584 86.4633C106.672 86.4174 106.774 86.4058 106.87 86.431C106.966 86.4561 107.05 86.5161 107.104 86.5993C107.151 86.6878 107.163 86.7908 107.138 86.8878C107.113 86.9849 107.052 87.0689 106.968 87.1233L91.4641 96.0713C91.4059 96.1056 91.3396 96.1236 91.2721 96.1233Z" fill="#455A64"/>
<path id="Vector_64" d="M91.2721 99.7034C91.194 99.6928 91.1209 99.6595 91.0617 99.6075C91.0026 99.5555 90.9601 99.4872 90.9396 99.4112C90.9191 99.3352 90.9215 99.2548 90.9465 99.1801C90.9715 99.1054 91.0179 99.0398 91.0801 98.9914L106.584 90.0434C106.672 89.9975 106.774 89.9859 106.87 90.0111C106.966 90.0362 107.05 90.0962 107.104 90.1794C107.151 90.2679 107.163 90.3709 107.138 90.4679C107.113 90.565 107.052 90.649 106.968 90.7034L91.4641 99.6514C91.4059 99.6857 91.3396 99.7036 91.2721 99.7034Z" fill="#455A64"/>
<path id="Vector_65" d="M91.2721 103.283C91.194 103.272 91.1209 103.239 91.0617 103.187C91.0026 103.135 90.9601 103.067 90.9396 102.991C90.9191 102.915 90.9215 102.834 90.9465 102.759C90.9715 102.685 91.0179 102.619 91.0801 102.571L106.584 93.6228C106.668 93.5987 106.758 93.603 106.84 93.635C106.922 93.6671 106.991 93.7251 107.036 93.8001C107.081 93.8751 107.101 93.963 107.092 94.0502C107.082 94.1375 107.044 94.2192 106.984 94.2828L91.4801 103.231C91.4172 103.268 91.345 103.286 91.2721 103.283Z" fill="#455A64"/>
</g>
</g>
</g>
</g>
<g id="freepik--Clipboard--inject-3">
<g id="freepik--clipboard--inject-3">
<g id="freepik--List--inject-3">
<path id="Vector_66" d="M44.3398 155.971V156.799C44.3463 156.942 44.3858 157.081 44.4552 157.206C44.5246 157.331 44.622 157.438 44.7398 157.519L91.4398 184.479C91.5689 184.544 91.7113 184.578 91.8558 184.578C92.0003 184.578 92.1428 184.544 92.2718 184.479L125.74 165.199C125.858 165.118 125.955 165.011 126.024 164.886C126.094 164.761 126.133 164.622 126.14 164.479V163.639C126.134 163.496 126.094 163.357 126.025 163.232C125.955 163.107 125.858 163 125.74 162.919L79.0398 135.935C78.9115 135.87 78.7697 135.836 78.6258 135.836C78.482 135.836 78.3402 135.87 78.2118 135.935L44.7558 155.251C44.6351 155.33 44.5345 155.436 44.4623 155.561C44.39 155.686 44.3481 155.827 44.3398 155.971Z" fill="#339999"/>
<path id="Vector_67" opacity="0.5" d="M125.795 162.935C125.967 163.067 125.947 163.259 125.739 163.379L92.2867 182.691C92.1639 182.757 92.0263 182.791 91.8867 182.791V184.591C92.0263 184.591 92.1639 184.557 92.2867 184.491L125.739 165.199C125.857 165.118 125.954 165.011 126.023 164.886C126.093 164.761 126.132 164.621 126.139 164.479V163.639C126.136 163.503 126.104 163.37 126.045 163.248C125.985 163.127 125.9 163.02 125.795 162.935Z" fill="black"/>
<path id="Vector_68" opacity="0.6" d="M44.692 155.299L44.656 155.327L44.6 155.383C44.4909 155.511 44.4177 155.665 44.388 155.831C44.3863 155.865 44.3863 155.9 44.388 155.935V156.799C44.3954 156.941 44.4352 157.08 44.5046 157.205C44.5739 157.33 44.6709 157.437 44.788 157.519L91.488 184.479C91.611 184.545 91.7485 184.579 91.888 184.579V182.799C91.7488 182.801 91.6112 182.768 91.488 182.703L44.756 155.731C44.6866 155.696 44.6315 155.638 44.6 155.567C44.5843 155.528 44.5805 155.486 44.5891 155.445C44.5977 155.405 44.6182 155.368 44.648 155.339C44.6607 155.323 44.6755 155.31 44.692 155.299Z" fill="black"/>
<g id="Group_4" opacity="0.3">
<path id="Vector_69" d="M44.3717 155.763C44.357 155.814 44.3476 155.866 44.3438 155.919C44.3438 155.919 44.3438 155.887 44.3438 155.871C44.3511 155.834 44.3605 155.798 44.3717 155.763Z" fill="black"/>
<path id="Vector_70" d="M125.738 163.379L92.286 182.691C92.1631 182.757 92.0256 182.791 91.886 182.791C91.7464 182.791 91.609 182.757 91.486 182.691L44.786 155.731C44.7148 155.698 44.6589 155.639 44.63 155.567C44.6163 155.528 44.6135 155.486 44.622 155.446C44.6305 155.406 44.6498 155.369 44.678 155.339C44.6871 155.325 44.6994 155.314 44.714 155.307L44.778 155.259L78.23 135.943C78.359 135.878 78.5015 135.844 78.646 135.844C78.7905 135.844 78.9329 135.878 79.062 135.943L125.762 162.907L125.818 162.943C125.966 163.075 125.946 163.259 125.738 163.379Z" fill="black"/>
<path id="Vector_71" opacity="0.15" d="M44.5945 155.383L44.5625 155.423C44.5748 155.411 44.5856 155.397 44.5945 155.383Z" fill="black"/>
</g>
<path id="Vector_72" d="M56.9886 144.023C56.9886 144.775 58.0366 145.567 58.3246 146.235C58.3498 146.29 58.3712 146.346 58.3886 146.403C58.2446 146.879 57.8046 147.203 57.7126 147.527C57.6893 147.598 57.6771 147.672 57.6766 147.747V148.399C57.6863 148.547 57.7064 148.694 57.7366 148.839C57.7133 148.997 57.6772 149.152 57.6286 149.303C57.5357 149.56 57.4844 149.83 57.4766 150.103V150.715C57.4624 150.831 57.4849 150.949 57.5408 151.051C57.5968 151.154 57.6834 151.236 57.7886 151.287L59.6646 152.367L73.6846 144.271V143.651L71.8086 142.567C71.5193 142.417 71.1927 142.355 70.8686 142.387H70.7446C70.4286 142.387 70.0166 142.419 69.4606 142.479C68.7608 142.559 68.0552 142.575 67.3526 142.527C67.1566 142.527 66.9846 142.503 66.8086 142.503C66.6749 142.502 66.5414 142.509 66.4086 142.523C65.6086 142.603 64.7606 143.107 63.1406 142.887H63.0886C61.9406 142.719 60.5806 142.119 59.2806 142.115H59.1526C58.6317 142.119 58.1206 142.256 57.6686 142.515C57.1646 142.803 56.9766 143.115 56.9766 143.427C56.9846 143.507 56.9886 143.923 56.9886 144.023ZM59.1166 144.455C59.1958 144.317 59.3122 144.203 59.4526 144.127C59.5625 144.066 59.6793 144.017 59.8006 143.983C60.6764 143.789 61.5933 143.932 62.3686 144.383C62.6879 144.546 62.9511 144.801 63.1246 145.115C63.0437 145.254 62.926 145.367 62.7846 145.443C62.1864 145.713 61.5125 145.764 60.8806 145.587C60.5253 145.505 60.1842 145.37 59.8686 145.187C59.5497 145.025 59.2876 144.77 59.1166 144.455Z" fill="#263238"/>
<path id="Vector_73" d="M70.8657 142.363H70.7417C70.4257 142.363 70.0137 142.395 69.4577 142.455C68.7567 142.535 68.0497 142.551 67.3457 142.503C67.1537 142.503 66.9817 142.479 66.8057 142.479C66.6721 142.477 66.5386 142.484 66.4057 142.499C65.6057 142.579 64.7578 143.083 63.1378 142.863H63.0857C61.9377 142.695 60.5777 142.095 59.2777 142.091H59.1497C58.6289 142.094 58.1178 142.232 57.6657 142.491C55.9537 143.479 57.9017 144.671 58.3097 145.619C58.7177 146.567 57.8337 147.067 57.6977 147.535C57.5617 148.003 57.9377 148.259 57.6137 149.291C57.2897 150.323 57.5377 150.511 57.7737 150.647L59.6497 151.731L73.6697 143.635L71.7937 142.551C71.5088 142.4 71.1867 142.335 70.8657 142.363ZM60.3537 150.243C60.2294 150.292 60.0955 150.311 59.9623 150.3C59.8291 150.289 59.7003 150.248 59.5857 150.179C59.3417 150.039 59.2897 149.839 59.4737 149.735C59.5986 149.685 59.7333 149.665 59.8673 149.676C60.0013 149.687 60.1308 149.729 60.2457 149.799C60.4857 149.939 60.5417 150.139 60.3537 150.243ZM62.7818 145.443C62.1836 145.712 61.5097 145.763 60.8777 145.587C60.5224 145.504 60.1814 145.37 59.8657 145.187C58.9457 144.655 58.7617 143.899 59.4657 143.503C59.5755 143.44 59.6923 143.39 59.8137 143.355C60.6897 143.164 61.6054 143.306 62.3818 143.755C63.2858 144.279 63.4737 145.031 62.7977 145.431L62.7818 145.443ZM71.1817 144.011C71.0567 144.06 70.9221 144.079 70.7883 144.068C70.6545 144.057 70.525 144.016 70.4097 143.947C70.1657 143.807 70.1137 143.607 70.2977 143.503C70.4224 143.452 70.5573 143.431 70.6914 143.442C70.8255 143.454 70.9552 143.496 71.0697 143.567C71.3057 143.695 71.3537 143.891 71.1737 143.999L71.1817 144.011Z" fill="#37474F"/>
<path id="Vector_74" d="M90.5752 179.759L119.683 162.959C119.756 162.912 119.818 162.848 119.861 162.773C119.905 162.698 119.93 162.614 119.935 162.527V162.203C119.93 162.116 119.905 162.032 119.861 161.957C119.817 161.882 119.756 161.818 119.683 161.771L81.2232 139.559C81.1464 139.52 81.0614 139.499 80.9752 139.499C80.889 139.499 80.8039 139.52 80.7272 139.559L51.6152 156.359C51.5427 156.406 51.4824 156.47 51.4393 156.545C51.3962 156.62 51.3715 156.704 51.3672 156.791V157.115C51.3724 157.201 51.3975 157.285 51.4405 157.36C51.4835 157.435 51.5433 157.499 51.6152 157.547L90.0752 179.751C90.152 179.791 90.2373 179.813 90.3242 179.815C90.4111 179.816 90.4971 179.797 90.5752 179.759Z" fill="#FAFAFA"/>
<path id="Vector_75" d="M119.748 161.811C119.82 161.887 119.8 161.987 119.688 162.051L90.5761 178.851C90.5 178.891 90.4146 178.912 90.3281 178.911V179.811C90.4159 179.812 90.5027 179.792 90.5801 179.751L119.688 162.951C119.762 162.904 119.823 162.841 119.867 162.765C119.911 162.69 119.936 162.606 119.94 162.519V162.195C119.936 162.121 119.917 162.049 119.884 161.983C119.851 161.917 119.805 161.858 119.748 161.811Z" fill="#F0F0F0"/>
<path id="Vector_76" d="M51.5646 156.398L51.4966 156.466L51.4686 156.506C51.4407 156.548 51.4166 156.592 51.3966 156.638C51.3853 156.668 51.3773 156.699 51.3726 156.73C51.3706 156.752 51.3706 156.773 51.3726 156.794V157.114C51.3769 157.201 51.4016 157.285 51.4447 157.36C51.4878 157.435 51.5481 157.499 51.6206 157.546L90.0806 179.754C90.1569 179.795 90.2422 179.816 90.3286 179.814V178.918C90.2408 178.92 90.1541 178.9 90.0766 178.858L51.6006 156.654C51.5006 156.586 51.4806 156.482 51.5646 156.398Z" fill="#E0E0E0"/>
<path id="Vector_77" d="M61.4844 152.343V152.967C61.4984 153.28 61.6135 153.581 61.8124 153.823L78.9644 143.927V143.303C78.4472 143.035 77.8747 142.891 77.2924 142.883H77.2684C76.8759 142.88 76.4873 142.96 76.1284 143.119C74.8844 143.683 74.5284 143.863 73.7604 144.183C73.5668 144.252 73.3591 144.273 73.1555 144.244C72.9519 144.215 72.7586 144.136 72.5924 144.015L72.5684 143.995L72.0524 143.523L70.6644 142.235C70.5762 142.156 70.472 142.096 70.3589 142.06C70.2457 142.024 70.1262 142.013 70.0084 142.027H69.9724C69.8624 142.029 69.7527 142.04 69.6444 142.059C69.1727 142.134 68.692 142.134 68.2204 142.059C67.6602 142.006 67.1251 141.801 66.6724 141.467C66.0018 140.903 65.1484 140.603 64.2724 140.623H64.2044C63.6485 140.621 63.1002 140.752 62.6044 141.003C61.7724 141.439 61.4044 142.155 61.5684 142.855C61.5148 143.151 61.5419 143.455 61.6467 143.737C61.7516 144.018 61.9304 144.266 62.1644 144.455C62.3747 144.647 62.5154 144.903 62.5644 145.183C62.524 145.474 62.4082 145.75 62.2284 145.983C62.1213 146.091 62.0549 146.232 62.0404 146.383C62.0404 146.531 62.0404 146.915 62.0404 147.007C62.0407 147.067 62.0545 147.126 62.0808 147.18C62.1071 147.234 62.1452 147.282 62.1924 147.319L63.7924 148.791L64.3044 149.263L64.3604 149.323C64.325 149.382 64.2849 149.438 64.2404 149.491L62.1684 151.111C61.9737 151.256 61.812 151.441 61.6941 151.654C61.5762 151.866 61.5047 152.101 61.4844 152.343ZM66.0644 142.935C65.9505 143.216 65.7347 143.443 65.4604 143.571C64.8974 143.841 64.2507 143.879 63.6604 143.675C63.4075 143.59 63.1748 143.454 62.9764 143.275C62.8279 143.145 62.7139 142.98 62.6444 142.795C62.7604 142.515 62.9753 142.287 63.2484 142.155C63.3254 142.114 63.4057 142.079 63.4884 142.051C63.8654 141.92 64.2696 141.889 64.6625 141.959C65.0553 142.029 65.4236 142.198 65.7324 142.451C65.8814 142.582 65.9955 142.749 66.0644 142.935Z" fill="#37474F"/>
<path id="Vector_78" d="M77.2905 142.883H77.2665C76.8741 142.88 76.4854 142.96 76.1265 143.119C74.8825 143.683 74.5265 143.863 73.7585 144.183C73.5649 144.252 73.3572 144.273 73.1536 144.244C72.95 144.215 72.7567 144.136 72.5905 144.015L72.5665 143.995L72.0505 143.523L70.6625 142.235C70.5743 142.156 70.4702 142.096 70.357 142.06C70.2439 142.024 70.1244 142.013 70.0065 142.027H69.9705C69.8605 142.029 69.7508 142.04 69.6425 142.059C69.1708 142.134 68.6902 142.134 68.2185 142.059C67.6583 142.006 67.1232 141.801 66.6705 141.467C65.9999 140.903 65.1466 140.603 64.2705 140.623H64.2025C63.6466 140.621 63.0983 140.752 62.6025 141.003C61.3665 141.655 61.1665 142.919 62.1625 143.831C62.7905 144.407 62.6065 145.511 62.2105 145.983C61.8145 146.455 62.1785 146.711 62.1785 146.711L63.7785 148.187L64.2905 148.655C64.6905 149.007 64.2265 149.507 64.2265 149.507L62.1545 151.127C61.2585 151.927 61.3065 152.591 61.7745 153.227L78.9265 143.327C78.4222 143.056 77.8626 142.904 77.2905 142.883ZM65.7305 141.831C66.3385 142.391 66.2225 143.171 65.4585 143.571C64.8956 143.841 64.2488 143.879 63.6585 143.675C63.4057 143.59 63.1729 143.454 62.9745 143.275C62.3625 142.715 62.4825 141.935 63.2465 141.535C63.3243 141.494 63.4044 141.458 63.4865 141.427C63.8639 141.297 64.2683 141.266 64.6612 141.337C65.054 141.407 65.4221 141.578 65.7305 141.831Z" fill="#455A64"/>
</g>
<path id="Vector_79" opacity="0.1" d="M64.8554 161.511L73.9594 166.763C74.0502 166.81 74.1511 166.835 74.2534 166.835C74.3558 166.835 74.4566 166.81 74.5474 166.763L87.1114 159.511C87.2754 159.415 87.2754 159.263 87.1114 159.171L77.9994 153.915C77.9074 153.869 77.8061 153.846 77.7034 153.846C77.6007 153.846 77.4995 153.869 77.4074 153.915L64.8434 161.167C64.809 161.181 64.7797 161.206 64.7595 161.237C64.7394 161.269 64.7293 161.306 64.7306 161.343C64.7319 161.38 64.7445 161.416 64.7668 161.446C64.7891 161.476 64.82 161.499 64.8554 161.511Z" fill="#339999"/>
<path id="Vector_80" d="M74.256 165.335L67.332 161.339L67.812 161.063L74.732 165.063L74.256 165.335Z" fill="#339999"/>
<path id="Vector_81" d="M74.6289 165.675L75.3209 165.275L75.5329 165.399L74.8409 165.799L74.6289 165.675Z" fill="#455A64"/>
<path id="Vector_82" d="M75.165 164.811L69.625 161.615L70.105 161.339L75.641 164.539L75.165 164.811Z" fill="#339999"/>
<path id="Vector_83" d="M75.5352 165.151L76.2272 164.751L76.4392 164.875L75.7472 165.275L75.5352 165.151Z" fill="#455A64"/>
<path id="Vector_84" d="M76.5472 164.015L70.5312 160.539L71.0112 160.263L77.0232 163.739L76.5472 164.015Z" fill="#339999"/>
<path id="Vector_85" d="M76.9219 164.351L77.6139 163.951L77.8259 164.075L77.1339 164.475L76.9219 164.351Z" fill="#455A64"/>
<path id="Vector_86" d="M77.4565 163.487L72.4805 160.615L72.9565 160.339L77.9325 163.215L77.4565 163.487Z" fill="#339999"/>
<path id="Vector_87" d="M77.8281 163.827L78.5201 163.427L78.7361 163.551L78.0401 163.947L77.8281 163.827Z" fill="#455A64"/>
<path id="Vector_88" d="M78.8463 162.692L76.0703 161.088L76.5463 160.812L79.3223 162.416L78.8463 162.692Z" fill="#339999"/>
<path id="Vector_89" d="M79.2109 163.031L79.9029 162.631L80.1149 162.751L79.4229 163.151L79.2109 163.031Z" fill="#455A64"/>
<path id="Vector_90" d="M79.7536 162.167L76.6016 160.347L77.0776 160.071L80.2296 161.891L79.7536 162.167Z" fill="#339999"/>
<path id="Vector_91" d="M80.1211 162.502L80.8131 162.106L81.0251 162.226L80.3331 162.626L80.1211 162.502Z" fill="#455A64"/>
<path id="Vector_92" d="M81.1359 161.367L77.3359 159.175L77.8159 158.899L81.6119 161.091L81.1359 161.367Z" fill="#339999"/>
<path id="Vector_93" d="M81.5117 161.703L82.2037 161.303L82.4197 161.423L81.7237 161.823L81.5117 161.703Z" fill="#455A64"/>
<path id="Vector_94" d="M82.0423 160.843L79.5703 159.415L80.0463 159.139L82.5183 160.567L82.0423 160.843Z" fill="#339999"/>
<path id="Vector_95" d="M82.4258 161.179L83.1138 160.779L83.3298 160.899L82.6378 161.299L82.4258 161.179Z" fill="#455A64"/>
<path id="Vector_96" d="M83.4277 160.044L82.3477 159.42L82.8237 159.144L83.9037 159.768L83.4277 160.044Z" fill="#339999"/>
<path id="Vector_97" d="M74.256 165.335L67.332 161.339L67.812 161.063L74.732 165.063L74.256 165.335Z" fill="#339999"/>
<path id="Vector_98" d="M76.5472 164.015L70.5312 160.539L71.0112 160.263L77.0232 163.739L76.5472 164.015Z" fill="#339999"/>
<path id="Vector_99" d="M78.8463 162.692L76.0703 161.088L76.5463 160.812L79.3223 162.416L78.8463 162.692Z" fill="#339999"/>
<path id="Vector_100" d="M81.1359 161.367L77.3359 159.175L77.8159 158.899L81.6119 161.091L81.1359 161.367Z" fill="#339999"/>
<path id="Vector_101" d="M83.4277 160.044L82.3477 159.42L82.8237 159.144L83.9037 159.768L83.4277 160.044Z" fill="#339999"/>
<path id="Vector_102" d="M83.8047 160.379L84.4967 159.979L84.7127 160.099L84.0167 160.499L83.8047 160.379Z" fill="#455A64"/>
<path id="Vector_103" d="M84.3368 159.519L83.8008 159.207L84.2768 158.931L84.8128 159.243L84.3368 159.519Z" fill="#339999"/>
<path id="Vector_104" d="M84.7109 159.851L85.4029 159.455L85.6149 159.575L84.9229 159.975L84.7109 159.851Z" fill="#455A64"/>
<path id="Vector_105" d="M74.0122 157.203L73.4922 157.503L74.0122 157.803L74.5322 157.503L74.0122 157.203Z" fill="#339999"/>
<path id="Vector_106" opacity="0.25" d="M74.0122 157.203L73.4922 157.503L74.0122 157.803L74.5322 157.503L74.0122 157.203Z" fill="black"/>
<path id="Vector_107" d="M78.1047 154.923L74.4007 157.067C74.3248 157.111 74.3248 157.179 74.4007 157.223L74.5007 157.279C74.5428 157.301 74.5894 157.312 74.6367 157.312C74.6841 157.312 74.7307 157.301 74.7727 157.279L78.4848 155.139C78.5003 155.133 78.5137 155.122 78.5231 155.108C78.5325 155.094 78.5376 155.078 78.5376 155.061C78.5376 155.044 78.5325 155.028 78.5231 155.014C78.5137 155 78.5003 154.989 78.4848 154.983L78.3848 154.923C78.3417 154.9 78.2936 154.888 78.2448 154.888C78.1959 154.888 78.1478 154.9 78.1047 154.923Z" fill="#455A64"/>
<path id="Vector_108" d="M74.8754 157.703L74.3594 157.999L74.8794 158.299L75.3954 157.999L74.8754 157.703Z" fill="#339999"/>
<path id="Vector_109" d="M78.9679 155.423L75.2559 157.567C75.2404 157.573 75.227 157.584 75.2176 157.598C75.2082 157.612 75.2031 157.628 75.2031 157.645C75.2031 157.662 75.2082 157.678 75.2176 157.692C75.227 157.706 75.2404 157.717 75.2559 157.723L75.3599 157.779C75.402 157.8 75.4486 157.812 75.4959 157.812C75.5433 157.812 75.5899 157.8 75.6319 157.779L79.3399 155.639C79.4159 155.595 79.4159 155.523 79.3399 155.483L79.2399 155.423C79.1979 155.401 79.1513 155.39 79.1039 155.39C79.0566 155.39 79.01 155.401 78.9679 155.423Z" fill="#455A64"/>
<path id="Vector_110" d="M74.256 165.335L67.332 161.339L67.812 161.063L74.732 165.063L74.256 165.335Z" fill="#339999"/>
<path id="Vector_111" d="M76.5472 164.015L70.5312 160.539L71.0112 160.263L77.0232 163.739L76.5472 164.015Z" fill="#339999"/>
<path id="Vector_112" d="M78.8463 162.692L76.0703 161.088L76.5463 160.812L79.3223 162.416L78.8463 162.692Z" fill="#339999"/>
<path id="Vector_113" d="M81.1359 161.367L77.3359 159.175L77.8159 158.899L81.6119 161.091L81.1359 161.367Z" fill="#339999"/>
<path id="Vector_114" d="M74.256 165.335L67.332 161.339L67.812 161.063L74.732 165.063L74.256 165.335Z" fill="#339999"/>
<path id="Vector_115" d="M76.5472 164.015L70.5312 160.539L71.0112 160.263L77.0232 163.739L76.5472 164.015Z" fill="#339999"/>
<path id="Vector_116" d="M78.8463 162.692L76.0703 161.088L76.5463 160.812L79.3223 162.416L78.8463 162.692Z" fill="#339999"/>
<path id="Vector_117" d="M81.1359 161.367L77.3359 159.175L77.8159 158.899L81.6119 161.091L81.1359 161.367Z" fill="#339999"/>
<path id="Vector_118" d="M83.4277 160.044L82.3477 159.42L82.8237 159.144L83.9037 159.768L83.4277 160.044Z" fill="#339999"/>
<path id="Vector_119" opacity="0.25" d="M74.256 165.335L67.332 161.339L67.812 161.063L74.732 165.063L74.256 165.335Z" fill="black"/>
<path id="Vector_120" opacity="0.25" d="M76.5472 164.015L70.5312 160.539L71.0112 160.263L77.0232 163.739L76.5472 164.015Z" fill="black"/>
<path id="Vector_121" opacity="0.25" d="M78.8463 162.692L76.0703 161.088L76.5463 160.812L79.3223 162.416L78.8463 162.692Z" fill="black"/>
<path id="Vector_122" opacity="0.25" d="M81.1359 161.367L77.3359 159.175L77.8159 158.899L81.6119 161.091L81.1359 161.367Z" fill="black"/>
<path id="Vector_123" opacity="0.25" d="M83.4277 160.044L82.3477 159.42L82.8237 159.144L83.9037 159.768L83.4277 160.044Z" fill="black"/>
<path id="Vector_124" opacity="0.1" d="M77.65 168.891L89.65 175.811C89.7709 175.872 89.9045 175.904 90.04 175.904C90.1755 175.904 90.3091 175.872 90.43 175.811L102.802 168.667C102.849 168.65 102.889 168.62 102.917 168.579C102.946 168.539 102.961 168.491 102.961 168.441C102.961 168.392 102.946 168.343 102.917 168.303C102.889 168.262 102.849 168.232 102.802 168.215L90.802 161.295C90.6818 161.234 90.5488 161.202 90.414 161.202C90.2791 161.202 90.1462 161.234 90.026 161.295L77.65 168.443C77.6029 168.459 77.562 168.489 77.5329 168.529C77.5039 168.569 77.4883 168.618 77.4883 168.667C77.4883 168.717 77.5039 168.765 77.5329 168.805C77.562 168.845 77.6029 168.876 77.65 168.891Z" fill="#339999"/>
<path id="Vector_125" d="M79.7699 168.271L79.0859 168.667L79.7699 169.063L80.4539 168.667L79.7699 168.271Z" fill="#339999"/>
<path id="Vector_126" d="M82.4651 166.916L80.2091 168.219C80.1491 168.251 80.1491 168.307 80.2091 168.343L80.3931 168.452C80.4269 168.467 80.4637 168.475 80.5011 168.475C80.5384 168.475 80.5752 168.467 80.6091 168.452L82.8651 167.147C82.9251 167.111 82.9251 167.059 82.8651 167.023L82.6811 166.916C82.6472 166.9 82.6104 166.892 82.5731 166.892C82.5357 166.892 82.4989 166.9 82.4651 166.916Z" fill="#455A64"/>
<path id="Vector_127" d="M83.641 166.035L82.957 166.427L83.641 166.823L84.325 166.427L83.641 166.035Z" fill="#339999"/>
<path id="Vector_128" opacity="0.25" d="M83.641 166.035L82.957 166.427L83.641 166.823L84.325 166.427L83.641 166.035Z" fill="black"/>
<path id="Vector_129" d="M86.3752 164.683L84.1192 165.999C84.0592 166.035 84.0592 166.087 84.1192 166.123L84.3072 166.231C84.3404 166.247 84.3766 166.255 84.4132 166.255C84.4499 166.255 84.4861 166.247 84.5192 166.231L86.7752 164.927C86.8352 164.895 86.8352 164.839 86.7752 164.803L86.5912 164.695C86.5583 164.678 86.5219 164.668 86.4845 164.665C86.4472 164.663 86.4099 164.669 86.3752 164.683Z" fill="#455A64"/>
<path id="Vector_130" d="M87.5121 163.795L86.8281 164.191L87.5161 164.583L88.1961 164.191L87.5121 163.795Z" fill="#339999"/>
<path id="Vector_131" opacity="0.4" d="M87.5121 163.795L86.8281 164.191L87.5161 164.583L88.1961 164.191L87.5121 163.795Z" fill="black"/>
<path id="Vector_132" d="M90.2933 162.455L88.0333 163.755C87.9733 163.791 87.9733 163.847 88.0333 163.879L88.2213 163.987C88.2544 164.003 88.2906 164.011 88.3273 164.011C88.3639 164.011 88.4001 164.003 88.4333 163.987L90.6933 162.683C90.7052 162.678 90.7154 162.669 90.7225 162.658C90.7296 162.647 90.7334 162.634 90.7334 162.621C90.7334 162.608 90.7296 162.595 90.7225 162.584C90.7154 162.573 90.7052 162.564 90.6933 162.559L90.5053 162.455C90.4728 162.437 90.4363 162.428 90.3993 162.428C90.3622 162.428 90.3258 162.437 90.2933 162.455Z" fill="#455A64"/>
<path id="Vector_133" d="M94.6264 166.663C94.5686 166.631 94.5084 166.605 94.4464 166.583L94.2904 166.515C93.8758 166.356 93.4473 166.235 93.0104 166.155L92.5864 166.079C92.3 166.037 92.0116 166.012 91.7224 166.003C91.5744 166.003 91.4264 166.003 91.2824 166.003C91.1384 166.003 91.0504 166.003 90.9304 166.003L90.6424 166.023L90.2184 166.063L89.9744 166.103L89.8224 166.127L89.6064 166.171C89.3464 166.227 89.0984 166.291 88.8584 166.367L88.6024 166.459C88.4989 166.493 88.3975 166.533 88.2984 166.579C88.1994 166.618 88.1032 166.663 88.0104 166.715L87.7344 166.859C85.7344 168.023 85.7344 169.911 87.7344 171.075C89.7344 172.239 93.0144 172.235 95.0304 171.075C97.0464 169.915 97.0304 168.027 95.0304 166.867C94.8994 166.792 94.7646 166.724 94.6264 166.663ZM94.2264 170.619C93.4064 171.061 92.4898 171.293 91.5584 171.295C91.5144 171.295 91.4584 171.295 91.4064 171.295H91.2424H91.0904C90.1932 171.281 89.3125 171.052 88.5224 170.627C86.9464 169.715 86.9464 168.227 88.5224 167.331C88.7021 167.23 88.8878 167.141 89.0784 167.063C89.2264 167.003 89.3824 166.951 89.5384 166.903L89.7784 166.839L89.9784 166.795C90.0602 166.775 90.1429 166.759 90.2264 166.747L90.4464 166.715H90.5144L90.8304 166.687H90.8864C90.9969 166.679 91.1079 166.679 91.2184 166.687C91.3103 166.681 91.4025 166.681 91.4944 166.687C91.8811 166.691 92.2666 166.73 92.6464 166.803C93.207 166.9 93.7477 167.089 94.2464 167.363C95.8064 168.239 95.8064 169.711 94.2344 170.619H94.2264Z" fill="#339999"/>
<path id="Vector_134" opacity="0.25" d="M93.0066 166.155L92.6506 166.767C92.2708 166.694 91.8853 166.655 91.4986 166.651C91.4067 166.646 91.3145 166.646 91.2226 166.651C91.112 166.643 91.0011 166.643 90.8906 166.651H90.8346C90.7306 166.651 90.6226 166.651 90.5186 166.679H90.4506L90.2306 166.711C90.1471 166.723 90.0644 166.739 89.9826 166.759L89.7826 166.803L89.5426 166.867C89.3866 166.915 89.2306 166.967 89.0826 167.027C88.8909 167.103 88.7051 167.193 88.5266 167.295L87.7266 166.835L88.0026 166.691C88.0954 166.64 88.1916 166.594 88.2906 166.555C88.3896 166.51 88.4911 166.47 88.5946 166.435L88.8506 166.343C89.0906 166.267 89.3386 166.203 89.5986 166.147L89.8146 166.103L89.9666 166.079L90.2106 166.039L90.6346 165.999L90.9226 165.979C91.0426 165.979 91.1546 165.979 91.2746 165.979C91.3946 165.979 91.5666 165.979 91.7146 165.979C92.0066 165.979 92.2946 166.019 92.5786 166.055L93.0066 166.155Z" fill="black"/>
<path id="Vector_135" opacity="0.4" d="M95.0289 166.871L94.2289 167.327C93.7302 167.053 93.1896 166.864 92.6289 166.767L92.9849 166.155C93.4218 166.235 93.8503 166.356 94.2649 166.515L94.4209 166.583C94.4829 166.605 94.5431 166.632 94.6009 166.663C94.7473 166.725 94.8902 166.794 95.0289 166.871Z" fill="black"/>
<path id="Vector_136" d="M60.5148 158.071C60.629 158.001 60.753 157.949 60.8828 157.915C61.013 157.879 61.1477 157.862 61.2828 157.863C61.4183 157.865 61.5528 157.885 61.6828 157.923C61.8228 157.969 61.9571 158.031 62.0828 158.107C62.2259 158.179 62.3504 158.283 62.4468 158.411C62.4774 158.454 62.4967 158.503 62.503 158.555C62.5093 158.607 62.5024 158.659 62.4828 158.707L63.6828 159.007C63.6988 159.011 63.7138 159.018 63.7268 159.027C63.7508 159.027 63.7628 159.051 63.7668 159.067C63.7708 159.083 63.7668 159.095 63.7468 159.107L63.3828 159.319C63.349 159.339 63.3097 159.348 63.2708 159.343H63.1708L62.1028 159.071L61.8548 159.215L62.6228 159.659C62.6508 159.659 62.6668 159.691 62.6708 159.711C62.6727 159.721 62.6713 159.731 62.667 159.739C62.6626 159.748 62.6555 159.755 62.6468 159.759L62.2948 159.963C62.2686 159.97 62.241 159.97 62.2148 159.963C62.1825 159.961 62.1511 159.951 62.1228 159.935L59.7988 158.595C59.7787 158.582 59.7622 158.564 59.7508 158.543C59.749 158.534 59.7503 158.524 59.7546 158.515C59.759 158.507 59.7661 158.5 59.7748 158.495L60.5148 158.071ZM61.3148 158.871L61.6228 158.695C61.6829 158.666 61.7289 158.614 61.7508 158.551C61.7508 158.503 61.7148 158.447 61.6148 158.391C61.5317 158.337 61.4341 158.309 61.3348 158.311C61.2476 158.318 61.163 158.344 61.0868 158.387L60.7828 158.563L61.3148 158.871Z" fill="#455A64"/>
<path id="Vector_137" d="M65.0142 157.715C65.0404 157.708 65.0679 157.708 65.0942 157.715C65.1265 157.718 65.1579 157.727 65.1862 157.743L65.5662 157.963C65.5942 157.963 65.6102 157.995 65.6142 158.015C65.616 158.025 65.6147 158.034 65.6103 158.043C65.606 158.052 65.5989 158.059 65.5902 158.063L64.3102 158.799C64.284 158.806 64.2563 158.806 64.2302 158.799C64.1991 158.796 64.169 158.787 64.1422 158.771L61.8182 157.427C61.8065 157.423 61.7961 157.416 61.7877 157.407C61.7794 157.398 61.7733 157.387 61.7702 157.375C61.7686 157.366 61.7701 157.357 61.7744 157.349C61.7788 157.341 61.7857 157.335 61.7942 157.331L63.0502 156.603C63.0761 156.595 63.1042 156.595 63.1302 156.603C63.1625 156.606 63.1939 156.615 63.2222 156.631L63.6022 156.851C63.624 156.862 63.641 156.88 63.6502 156.903C63.6527 156.912 63.6516 156.922 63.6471 156.93C63.6426 156.938 63.6351 156.944 63.6262 156.947L62.7942 157.427L63.1942 157.651L63.9662 157.207C63.9921 157.199 64.0202 157.199 64.0462 157.207C64.0785 157.21 64.1099 157.219 64.1382 157.235L64.5182 157.455C64.5298 157.459 64.5402 157.466 64.5486 157.475C64.5569 157.484 64.563 157.495 64.5662 157.507C64.5662 157.527 64.5662 157.539 64.5422 157.551L63.7702 157.999L64.1702 158.231L65.0142 157.715Z" fill="#455A64"/>
<path id="Vector_138" d="M64.4328 155.807C64.5462 155.739 64.6688 155.688 64.7968 155.655C64.9273 155.621 65.0621 155.607 65.1968 155.611C65.3324 155.618 65.4667 155.641 65.5968 155.679C65.7435 155.722 65.8846 155.782 66.0168 155.859C66.1334 155.925 66.2399 156.007 66.3328 156.103C66.3963 156.168 66.4358 156.253 66.4448 156.343C66.4474 156.426 66.4204 156.507 66.3688 156.571C66.2973 156.656 66.2104 156.727 66.1128 156.779L65.7688 156.979L66.5008 157.403C66.5288 157.403 66.5448 157.435 66.5488 157.455C66.5513 157.464 66.5502 157.474 66.5457 157.482C66.5412 157.49 66.5337 157.496 66.5248 157.499L66.1728 157.707C66.1464 157.712 66.1193 157.712 66.0928 157.707C66.0606 157.704 66.0294 157.694 66.0008 157.679L63.6768 156.335C63.6661 156.33 63.6566 156.323 63.649 156.314C63.6414 156.305 63.6359 156.295 63.6328 156.283C63.6328 156.283 63.6328 156.251 63.6528 156.239L64.4328 155.807ZM65.2128 156.655L65.5448 156.463C65.5755 156.45 65.6027 156.429 65.6243 156.404C65.6458 156.378 65.661 156.348 65.6688 156.315C65.6688 156.265 65.6208 156.209 65.5248 156.147C65.4368 156.094 65.3357 156.066 65.2328 156.067C65.1429 156.066 65.0545 156.09 64.9768 156.135L64.6448 156.327L65.2128 156.655Z" fill="#455A64"/>
<path id="Vector_139" d="M66.453 155.723C66.3362 155.654 66.2309 155.568 66.141 155.467C66.0718 155.391 66.0235 155.299 66.001 155.199C65.9864 155.106 66.0048 155.011 66.053 154.931C66.1202 154.824 66.2158 154.738 66.329 154.683C66.4617 154.606 66.6064 154.552 66.757 154.523C66.9114 154.495 67.0684 154.485 67.225 154.495C67.3852 154.503 67.5438 154.531 67.697 154.579C67.8522 154.623 68.0023 154.683 68.145 154.759L68.473 154.943L68.785 155.131C68.901 155.2 69.0062 155.286 69.097 155.387C69.1704 155.463 69.2215 155.559 69.245 155.663C69.2596 155.755 69.2412 155.85 69.193 155.931C69.1235 156.035 69.0286 156.121 68.917 156.179C68.7837 156.254 68.6392 156.308 68.489 156.339C68.3348 156.368 68.1775 156.377 68.021 156.367C67.8608 156.358 67.7022 156.33 67.549 156.283C67.3944 156.236 67.2445 156.176 67.101 156.103L66.781 155.923C66.657 155.851 66.553 155.787 66.453 155.723ZM68.261 155.399L68.121 155.315L67.961 155.219L67.801 155.127L67.657 155.051C67.5941 155.018 67.5285 154.991 67.461 154.971C67.397 154.951 67.3314 154.938 67.265 154.931C67.2012 154.923 67.1367 154.923 67.073 154.931C67.0111 154.942 66.9516 154.963 66.897 154.995C66.8498 155.018 66.8098 155.054 66.781 155.099C66.7674 155.133 66.7674 155.172 66.781 155.207C66.7943 155.25 66.8176 155.29 66.849 155.323C66.8901 155.365 66.9357 155.402 66.985 155.435L67.117 155.519L67.277 155.611L67.441 155.703L67.589 155.783C67.7143 155.846 67.8497 155.886 67.989 155.903C68.1166 155.917 68.2454 155.89 68.357 155.827C68.469 155.763 68.513 155.691 68.489 155.615C68.4369 155.521 68.3573 155.446 68.261 155.399Z" fill="#455A64"/>
<path id="Vector_140" d="M68.4521 153.486C68.5663 153.416 68.6903 153.364 68.8201 153.33C68.9503 153.294 69.085 153.277 69.2201 153.278C69.3556 153.28 69.4902 153.3 69.6201 153.338C69.7599 153.385 69.8941 153.446 70.0201 153.522C70.1632 153.594 70.2877 153.699 70.3841 153.826C70.4147 153.869 70.434 153.918 70.4403 153.97C70.4466 154.022 70.4397 154.074 70.4201 154.122L71.6201 154.422C71.6373 154.426 71.6536 154.433 71.6681 154.442C71.6921 154.442 71.7041 154.466 71.7081 154.482C71.7121 154.498 71.7081 154.51 71.6881 154.522L71.3241 154.734C71.2901 154.754 71.251 154.762 71.2121 154.758H71.1121L70.0401 154.486L69.7921 154.63L70.5641 155.074C70.5859 155.085 70.603 155.104 70.6121 155.126C70.614 155.136 70.6126 155.146 70.6083 155.155C70.6039 155.163 70.5969 155.17 70.5881 155.174L70.2361 155.378C70.2101 155.387 70.1821 155.387 70.1561 155.378C70.1238 155.376 70.0924 155.366 70.0641 155.35L67.7441 153.998C67.7161 153.998 67.7001 153.966 67.6961 153.946C67.6943 153.937 67.6956 153.927 67.7 153.918C67.7043 153.91 67.7114 153.903 67.7201 153.898L68.4521 153.486ZM69.2521 154.286L69.5561 154.11C69.6169 154.083 69.6644 154.033 69.6881 153.97C69.6881 153.918 69.6521 153.862 69.5521 153.806C69.4688 153.753 69.3713 153.725 69.2721 153.726C69.1849 153.733 69.1003 153.759 69.0241 153.802L68.7201 153.978L69.2521 154.286Z" fill="#455A64"/>
<path id="Vector_141" d="M71.0285 151.999C71.0547 151.992 71.0823 151.992 71.1085 151.999C71.1408 152.002 71.1722 152.011 71.2005 152.027L71.5805 152.247C71.6085 152.247 71.6245 152.279 71.6285 152.299C71.6304 152.309 71.629 152.319 71.6247 152.327C71.6203 152.336 71.6132 152.343 71.6045 152.347L71.1285 152.619L72.9765 153.687C72.9872 153.692 72.9967 153.699 73.0043 153.708C73.0119 153.717 73.0175 153.728 73.0205 153.739C73.0205 153.739 73.0205 153.771 73.0005 153.783L72.6445 153.987C72.6186 153.996 72.5904 153.996 72.5645 153.987C72.5336 153.987 72.5031 153.979 72.4765 153.963L70.6285 152.895L70.1565 153.171C70.1305 153.18 70.1025 153.18 70.0765 153.171C70.0442 153.169 70.0128 153.159 69.9845 153.143L69.5845 152.923C69.5565 152.923 69.5405 152.891 69.5365 152.871C69.5325 152.851 69.5365 152.839 69.5605 152.827L71.0285 151.999Z" fill="#455A64"/>
<path id="Vector_142" d="M74.7775 152.259L86.4895 145.499L83.9815 144.051L72.2695 150.811L74.7775 152.259Z" fill="#339999"/>
<g id="Group_5" opacity="0.3">
<path id="Vector_143" d="M80.6337 153.43C80.6074 153.437 80.58 153.439 80.5532 153.435C80.5263 153.431 80.5004 153.422 80.477 153.409C80.4536 153.395 80.4331 153.377 80.4168 153.355C80.4004 153.333 80.3885 153.309 80.3816 153.282C80.3748 153.256 80.3732 153.229 80.377 153.202C80.3807 153.175 80.3897 153.149 80.4035 153.126C80.4172 153.102 80.4354 153.082 80.4571 153.066C80.4787 153.049 80.5034 153.037 80.5297 153.03L90.2256 147.43C90.249 147.417 90.2748 147.408 90.3015 147.405C90.3283 147.402 90.3554 147.403 90.3814 147.41C90.4074 147.418 90.4317 147.43 90.4531 147.446C90.4744 147.463 90.4923 147.483 90.5056 147.506C90.519 147.53 90.5277 147.556 90.5311 147.582C90.5346 147.609 90.5327 147.636 90.5256 147.662C90.5186 147.688 90.5065 147.713 90.49 147.734C90.4735 147.755 90.453 147.773 90.4297 147.786L80.7376 153.386C80.7071 153.409 80.6714 153.425 80.6337 153.43Z" fill="#455A64"/>
<path id="Vector_144" d="M82.3069 154.398C82.2539 154.411 82.1978 154.403 82.1509 154.375C82.104 154.347 82.0702 154.301 82.0569 154.248C82.0437 154.195 82.052 154.139 82.0802 154.092C82.1083 154.045 82.1539 154.011 82.2069 153.998L91.8989 148.398C91.9454 148.378 91.9974 148.377 92.0451 148.393C92.0929 148.409 92.1333 148.441 92.1587 148.485C92.1841 148.528 92.1928 148.58 92.1833 148.629C92.1738 148.679 92.1467 148.723 92.1069 148.754L82.4109 154.354C82.3815 154.379 82.3452 154.394 82.3069 154.398Z" fill="#455A64"/>
<path id="Vector_145" d="M84.0027 155.367C83.9522 155.374 83.9007 155.362 83.8582 155.334C83.8157 155.305 83.7852 155.263 83.7723 155.213C83.7595 155.164 83.7652 155.111 83.7886 155.066C83.8119 155.02 83.8511 154.985 83.8987 154.967L93.5907 149.367C93.6385 149.339 93.6952 149.332 93.7484 149.346C93.8017 149.36 93.8471 149.395 93.8747 149.443C93.901 149.49 93.9078 149.546 93.8936 149.598C93.8794 149.65 93.8454 149.695 93.7987 149.723L84.1027 155.323C84.0733 155.345 84.039 155.36 84.0027 155.367Z" fill="#455A64"/>
<path id="Vector_146" d="M85.6532 156.331C85.6001 156.345 85.5438 156.337 85.4965 156.309C85.4493 156.281 85.415 156.236 85.4012 156.183C85.3874 156.13 85.3952 156.073 85.423 156.026C85.4507 155.979 85.4961 155.945 85.5492 155.931L95.2452 150.331C95.2686 150.317 95.2943 150.309 95.3211 150.305C95.3478 150.302 95.3749 150.304 95.4009 150.311C95.4269 150.318 95.4513 150.33 95.4726 150.347C95.4939 150.363 95.5118 150.383 95.5252 150.407C95.5386 150.43 95.5472 150.456 95.5507 150.483C95.5541 150.509 95.5522 150.537 95.5452 150.563C95.5381 150.589 95.526 150.613 95.5095 150.634C95.4931 150.656 95.4726 150.673 95.4492 150.687L85.7572 156.287C85.7273 156.311 85.6913 156.326 85.6532 156.331Z" fill="#455A64"/>
<path id="Vector_147" d="M87.3236 157.298C87.2873 157.298 87.2517 157.288 87.2203 157.269C87.1888 157.251 87.1625 157.225 87.1436 157.194C87.1171 157.146 87.1102 157.09 87.1244 157.037C87.1386 156.984 87.1727 156.939 87.2196 156.91L96.9156 151.31C96.939 151.297 96.9648 151.288 96.9915 151.285C97.0182 151.281 97.0454 151.283 97.0714 151.29C97.0974 151.297 97.1217 151.31 97.143 151.326C97.1644 151.342 97.1822 151.363 97.1956 151.386C97.209 151.41 97.2177 151.436 97.2211 151.462C97.2245 151.489 97.2227 151.516 97.2156 151.542C97.2086 151.568 97.1964 151.592 97.18 151.614C97.1635 151.635 97.143 151.653 97.1196 151.666L87.4276 157.266C87.3959 157.285 87.3603 157.296 87.3236 157.298Z" fill="#455A64"/>
</g>
<g id="Group_6" opacity="0.3">
<path id="Vector_148" d="M94.024 161.159C93.9877 161.158 93.9521 161.148 93.9206 161.13C93.8892 161.112 93.8628 161.086 93.844 161.055C93.8304 161.031 93.8217 161.005 93.8181 160.979C93.8146 160.952 93.8165 160.925 93.8235 160.899C93.8306 160.873 93.8428 160.848 93.8593 160.827C93.8759 160.806 93.8965 160.788 93.92 160.775L103.616 155.175C103.663 155.148 103.719 155.14 103.772 155.155C103.824 155.169 103.869 155.203 103.896 155.251C103.923 155.298 103.93 155.354 103.916 155.406C103.902 155.459 103.867 155.504 103.82 155.531L94.124 161.131C94.0934 161.148 94.0591 161.157 94.024 161.159Z" fill="#455A64"/>
<path id="Vector_149" d="M95.6962 162.123C95.6699 162.13 95.6425 162.131 95.6157 162.128C95.5888 162.124 95.5629 162.115 95.5395 162.101C95.5161 162.087 95.4956 162.069 95.4793 162.047C95.4629 162.026 95.451 162.001 95.4441 161.975C95.4373 161.949 95.4357 161.921 95.4395 161.894C95.4432 161.867 95.4522 161.842 95.466 161.818C95.4797 161.795 95.4979 161.774 95.5196 161.758C95.5412 161.742 95.5659 161.73 95.5921 161.723L105.288 156.123C105.312 156.109 105.337 156.101 105.364 156.097C105.391 156.094 105.418 156.096 105.444 156.103C105.47 156.11 105.494 156.122 105.516 156.139C105.537 156.155 105.555 156.175 105.568 156.199C105.582 156.222 105.59 156.248 105.594 156.275C105.597 156.301 105.595 156.329 105.588 156.355C105.581 156.381 105.569 156.405 105.553 156.426C105.536 156.448 105.516 156.465 105.492 156.479L95.8001 162.079C95.7707 162.104 95.7344 162.119 95.6962 162.123Z" fill="#455A64"/>
<path id="Vector_150" d="M97.3692 163.091C97.3334 163.09 97.2984 163.08 97.2675 163.062C97.2367 163.044 97.2111 163.018 97.1932 162.987C97.1791 162.964 97.1698 162.938 97.166 162.911C97.1622 162.884 97.1639 162.857 97.171 162.831C97.1782 162.804 97.1905 162.78 97.2074 162.759C97.2243 162.737 97.2453 162.72 97.2692 162.707L106.961 157.107C107.008 157.087 107.06 157.086 107.107 157.102C107.155 157.118 107.196 157.15 107.221 157.194C107.246 157.237 107.255 157.289 107.246 157.338C107.236 157.388 107.209 157.432 107.169 157.463L97.4732 163.063C97.4411 163.08 97.4056 163.09 97.3692 163.091Z" fill="#455A64"/>
<path id="Vector_151" d="M99.0435 164.054C99.0069 164.055 98.9707 164.046 98.9389 164.028C98.9072 164.009 98.8811 163.982 98.8635 163.95C98.85 163.927 98.8412 163.901 98.8377 163.874C98.8342 163.848 98.836 163.82 98.8431 163.794C98.8501 163.768 98.8623 163.744 98.8789 163.723C98.8954 163.701 98.916 163.684 98.9395 163.67L108.632 158.07C108.655 158.052 108.682 158.039 108.711 158.032C108.74 158.025 108.77 158.025 108.799 158.03C108.828 158.036 108.855 158.047 108.88 158.065C108.904 158.082 108.924 158.104 108.939 158.129C108.954 158.155 108.963 158.184 108.966 158.213C108.969 158.243 108.966 158.272 108.957 158.3C108.947 158.329 108.932 158.354 108.912 158.376C108.891 158.398 108.867 158.415 108.84 158.426L99.1435 164.026C99.1135 164.045 99.0788 164.055 99.0435 164.054Z" fill="#455A64"/>
<path id="Vector_152" d="M100.715 165.023C100.679 165.022 100.644 165.012 100.612 164.994C100.581 164.975 100.554 164.95 100.535 164.919C100.522 164.895 100.513 164.869 100.51 164.843C100.506 164.816 100.508 164.789 100.515 164.763C100.522 164.737 100.534 164.712 100.551 164.691C100.567 164.67 100.588 164.652 100.611 164.639L110.303 159.039C110.351 159.011 110.408 159.004 110.461 159.018C110.514 159.032 110.56 159.067 110.587 159.115C110.601 159.138 110.61 159.164 110.613 159.19C110.617 159.217 110.615 159.244 110.608 159.27C110.601 159.296 110.589 159.321 110.572 159.342C110.556 159.363 110.535 159.381 110.511 159.395L100.819 164.995C100.787 165.011 100.752 165.021 100.715 165.023Z" fill="#455A64"/>
<path id="Vector_153" d="M102.399 165.999C102.364 165.999 102.329 165.99 102.298 165.972C102.267 165.955 102.241 165.93 102.223 165.899C102.196 165.851 102.188 165.795 102.202 165.741C102.217 165.688 102.251 165.643 102.299 165.615L111.991 160.015C112.038 159.996 112.09 159.994 112.137 160.01C112.185 160.026 112.225 160.059 112.251 160.102C112.276 160.146 112.285 160.197 112.276 160.246C112.266 160.296 112.239 160.34 112.199 160.371L102.503 165.971C102.471 165.988 102.436 165.998 102.399 165.999Z" fill="#455A64"/>
</g>
</g>
</g>
<g id="freepik--Character--inject-3">
<g id="freepik--character--inject-3">
<path id="Vector_154" d="M150.614 78.2236L140.874 81.6156L140.602 82.0596L149.866 96.7436L159.09 92.5836L159.366 92.1396L150.614 78.2236Z" fill="#37474F"/>
<path id="Vector_155" d="M150.891 77.7803L140.875 81.6163L150.143 96.3003L159.367 92.1403L150.891 77.7803Z" fill="#455A64"/>
<path id="Vector_156" d="M150.965 79.248L142.457 82.772L150.165 94.776L158.013 90.98L150.965 79.248Z" fill="#F0F0F0"/>
<path id="Vector_157" opacity="0.15" d="M149.099 80.5204L148.623 80.0004C148.359 79.7044 147.587 79.6764 146.895 79.9324L145.571 80.4004C144.883 80.6604 144.535 81.1084 144.799 81.4004L145.275 81.9324L149.099 80.5204Z" fill="black"/>
<path id="Vector_158" d="M147.8 78.5202C147.691 78.4267 147.559 78.3654 147.418 78.3435C147.276 78.3216 147.131 78.3398 147 78.3962L146.492 78.6042C146.492 78.6042 145.46 77.4522 144.224 77.8042C142.988 78.1562 144.052 79.4762 144.052 79.4762L143.516 79.7082C143.22 79.8362 143.116 80.0842 143.248 80.2682L143.516 80.6002L148.108 78.8442L147.8 78.5202Z" fill="#339999"/>
<path id="Vector_159" opacity="0.15" d="M147.8 78.5202C147.691 78.4267 147.559 78.3654 147.418 78.3435C147.276 78.3216 147.131 78.3398 147 78.3962L146.492 78.6042C146.492 78.6042 145.46 77.4522 144.224 77.8042C142.988 78.1562 144.052 79.4762 144.052 79.4762L143.516 79.7082C143.22 79.8362 143.116 80.0842 143.248 80.2682L143.516 80.6002L148.108 78.8442L147.8 78.5202Z" fill="black"/>
<path id="Vector_160" d="M147.55 79.0714C147.114 79.2194 146.918 79.3034 147.322 79.7594C147.726 80.2154 148.158 80.6594 148.158 80.6594L146.126 81.4394C146.126 81.4394 145.554 80.7834 145.326 80.5274C145.239 80.3961 145.112 80.2966 144.963 80.2439C144.814 80.1913 144.653 80.1883 144.502 80.2354L144.238 80.0314L147.474 78.8594L147.55 79.0714Z" fill="#339999"/>
<path id="Vector_161" opacity="0.4" d="M147.55 79.0714C147.114 79.2194 146.918 79.3034 147.322 79.7594C147.726 80.2154 148.158 80.6594 148.158 80.6594L146.126 81.4394C146.126 81.4394 145.554 80.7834 145.326 80.5274C145.239 80.3961 145.112 80.2966 144.963 80.2439C144.814 80.1913 144.653 80.1883 144.502 80.2354L144.238 80.0314L147.474 78.8594L147.55 79.0714Z" fill="black"/>
<path id="Vector_162" d="M149.236 80.5714L148.76 80.0394C148.496 79.7434 147.724 79.7154 147.032 79.9714L145.708 80.4634C145.02 80.7234 144.672 81.1714 144.936 81.4634L145.408 81.9954L149.236 80.5714Z" fill="#339999"/>
<path id="Vector_163" opacity="0.15" d="M149.236 80.5714L148.76 80.0394C148.496 79.7434 147.724 79.7154 147.032 79.9714L145.708 80.4634C145.02 80.7234 144.672 81.1714 144.936 81.4634L145.408 81.9954L149.236 80.5714Z" fill="black"/>
<path id="Vector_164" d="M155.436 85.3243C155.436 85.3243 155.572 83.6484 155.036 83.1204C154.5 82.5924 152.46 82.8724 151.436 82.5204C150.316 82.1444 150.584 83.3644 151.148 83.7204C152.34 84.4404 154.664 84.6203 155.436 85.3243Z" fill="#B16668"/>
<g id="freepik--Boy--inject-3">
<path id="Vector_165" d="M173.6 135.548C173.896 135.66 174.064 136.216 174.196 137.572C174.276 138.412 174.564 139.524 173.28 140.204C172.811 140.446 172.289 140.57 171.762 140.564C171.234 140.558 170.716 140.424 170.252 140.172C169.144 139.484 168.796 137.912 167.496 136.892C166.356 136 164.52 135.104 163.896 133.724C163.368 132.584 163.368 130.956 165.26 131.044C167.568 131.152 168.86 132.968 170.436 133.004C171.292 133.024 173.304 135.44 173.6 135.548Z" fill="#263238"/>
<path id="Vector_166" d="M173.602 134.88V136.248C173.602 136.916 170.758 137.916 169.962 136.388C169.902 136.256 169.594 134.388 169.594 134.388L173.602 134.88Z" fill="#B16668"/>
<path id="Vector_167" d="M161.417 142.956C161.417 142.956 161.917 142.956 162.117 145C162.193 145.78 162.377 147.38 162.117 147.96C161.857 148.54 160.401 148.8 158.801 148.94C157.601 149.048 156.505 149.632 155.385 150.264C154.325 150.859 153.136 151.186 151.921 151.216H151.845C150.803 151.248 149.766 151.068 148.797 150.688C148.037 150.368 147.197 149.856 146.953 149.008C146.918 148.895 146.904 148.777 146.913 148.66C146.947 148.455 147.057 148.271 147.221 148.144C147.384 148.018 147.563 147.914 147.753 147.836C148.849 147.316 149.957 146.816 151.037 146.268C152.117 145.72 153.133 145.188 154.141 144.576C154.641 144.268 155.129 143.944 155.601 143.592C155.805 143.44 156.029 143.292 156.229 143.136C156.337 143.052 156.541 142.684 156.693 142.692L161.417 142.956Z" fill="#263238"/>
<path id="Vector_168" d="M161.29 141.439C161.29 141.439 161.29 142.467 161.29 143.039C161.29 143.611 160.602 144.503 158.794 144.451C157.522 144.411 156.63 144.075 156.678 143.039V141.543L161.29 141.439Z" fill="#B16668"/>
<path id="Vector_169" d="M174.401 118.107C174.107 115.863 173.594 113.652 172.869 111.507C172.869 111.507 173.293 105.803 173.481 100.395C173.646 94.8551 173.493 89.31 173.021 83.7874C173.021 83.7874 154.649 82.0474 154.345 88.7954C154.041 95.5434 154.401 112.279 154.401 115.527C154.401 118.499 154.765 121.455 155.305 126.979C155.821 132.275 156.617 142.019 156.617 142.019C158.777 143.171 161.417 141.895 161.417 141.895C161.417 141.895 162.909 128.431 163.289 125.027C163.554 122.585 163.305 120.115 162.557 117.775C162.557 117.775 162.773 115.183 163.453 109.447C163.933 105.395 164.333 100.559 164.333 100.559C164.333 100.559 164.697 107.135 165.077 110.319C165.433 113.271 165.857 114.451 166.989 120.239C168.089 125.839 169.361 135.159 169.361 135.159C171.521 136.311 173.653 134.947 173.653 134.947C173.653 134.947 174.985 122.247 174.401 118.107Z" fill="#37474F"/>
<path id="Vector_170" d="M164.328 100.56L165.204 94.9203C165.204 94.9203 168.78 93.7843 170.6 91.6562C170.6 91.6562 169.628 94.1362 166.296 95.4682L164.96 100.216L164.592 104.616L164.328 100.56Z" fill="#263238"/>
<path id="Vector_171" d="M169.217 61.1561C172.085 60.4641 173.893 61.8521 174.953 65.7481C175.857 69.0881 177.185 76.0001 177.701 78.5841C177.893 79.5401 178.269 80.6361 176.257 81.8441C173.34 83.5317 170.33 85.0528 167.241 86.4001L166.141 82.2801L170.585 73.1841L169.217 61.1561Z" fill="#37474F"/>
<path id="Vector_172" d="M161.309 59.3395L162.165 65.3675L168.109 65.0635L167.589 58.0195L161.309 59.3395Z" fill="#B16668"/>
<path id="Vector_173" d="M157.413 51.9004C157.413 51.9004 155.961 54.0324 156.117 54.2484C156.273 54.4644 157.317 54.6484 157.317 54.6484L157.413 51.9004Z" fill="#9A4A4D"/>
<path id="Vector_174" d="M157.892 53.2918C157.542 53.2862 157.201 53.1769 156.913 52.9776C156.624 52.7783 156.402 52.498 156.273 52.1721C156.144 51.8462 156.114 51.4895 156.188 51.1469C156.262 50.8043 156.436 50.4913 156.687 50.2474C156.939 50.0036 157.257 49.8398 157.602 49.7769C157.947 49.7139 158.303 49.7546 158.624 49.8938C158.946 50.033 159.219 50.2644 159.409 50.5588C159.599 50.8532 159.698 51.1974 159.692 51.5478C159.684 52.0175 159.49 52.4646 159.152 52.7915C158.815 53.1183 158.362 53.2982 157.892 53.2918ZM157.94 50.1438C157.668 50.1399 157.401 50.2167 157.173 50.3646C156.944 50.5126 156.765 50.7249 156.657 50.9748C156.549 51.2246 156.518 51.5009 156.567 51.7685C156.616 52.0362 156.744 52.2832 156.933 52.4784C157.123 52.6736 157.366 52.8082 157.632 52.8652C157.898 52.9222 158.175 52.8989 158.428 52.7985C158.681 52.698 158.899 52.5248 159.053 52.3008C159.208 52.0767 159.292 51.8119 159.296 51.5398C159.301 51.1752 159.16 50.8237 158.906 50.5621C158.652 50.3005 158.305 50.1501 157.94 50.1438Z" fill="#263238"/>
<path id="Vector_175" d="M161.456 45.9996C158.568 46.5596 157.72 47.8116 157.376 52.3756C157.016 57.1436 157.48 58.6516 158.096 59.3036C158.496 59.7436 160.864 59.8596 162.056 59.5516C163.548 59.1516 166.924 58.0316 168.536 55.6556C170.428 52.8556 170.976 49.0356 169.02 47.4356C166.268 45.1756 162.628 45.7676 161.456 45.9996Z" fill="#B16668"/>
<path id="Vector_176" d="M161.354 59.6723C160.114 59.8083 158.446 59.6723 158.098 59.3003C159.156 59.2935 160.203 59.0887 161.186 58.6963L161.354 59.6723Z" fill="#9A4A4D"/>
<path id="Vector_177" d="M156.835 47.4319C156.835 47.4919 156.835 47.5519 156.855 47.6079C156.906 47.8259 157.004 48.03 157.142 48.2062C157.28 48.3824 157.455 48.5263 157.655 48.6279C157.948 48.7867 158.273 48.8782 158.607 48.8959C158.727 48.8959 159.571 48.9399 159.603 48.8439C159.444 49.1365 159.339 49.4547 159.291 49.7839C159.287 49.9499 159.327 50.1139 159.406 50.2598C159.486 50.4057 159.602 50.5284 159.743 50.6159C159.922 50.681 160.095 50.7627 160.259 50.8599C160.527 51.0799 160.423 51.5839 160.539 51.8759C160.575 51.9719 161.235 52.8479 161.267 52.7319C161.267 52.7319 161.771 50.8919 163.323 51.1319C164.875 51.3719 165.067 53.3919 164.063 54.5879C163.059 55.7839 162.143 55.3079 162.143 55.3079C162.143 55.3079 162.143 57.9439 163.295 59.4599C163.295 59.4599 164.619 59.9119 167.075 59.4279C168.583 59.1319 170.739 57.2839 171.663 55.3079C173.623 51.1239 173.815 47.3399 171.143 46.1599C170.775 43.4079 167.783 42.5959 165.431 42.5239C163.907 42.4799 162.371 42.6319 160.855 42.4399C160.134 42.3354 159.42 42.1926 158.715 42.0119C158.278 41.8752 157.818 41.8262 157.363 41.8679C156.914 41.9725 156.511 42.2195 156.213 42.572C155.916 42.9245 155.741 43.3637 155.715 43.8239C155.68 44.3039 155.765 44.7851 155.963 45.2239C156.173 45.6734 156.508 46.0536 156.927 46.3199C156.952 46.3334 156.973 46.3544 156.987 46.3799C156.995 46.4101 156.995 46.4418 156.987 46.4719C156.887 46.7823 156.836 47.1061 156.835 47.4319Z" fill="#263238"/>
<path id="Vector_178" d="M170.938 46.4997L172.674 45.5117C172.613 45.3907 172.528 45.2833 172.424 45.1961C172.321 45.1089 172.2 45.0438 172.07 45.0046C171.94 44.9654 171.804 44.953 171.669 44.9682C171.535 44.9834 171.404 45.0258 171.287 45.0928C171.169 45.1599 171.066 45.2502 170.984 45.3583C170.902 45.4663 170.843 45.5899 170.811 45.7215C170.778 45.8531 170.772 45.9899 170.794 46.1237C170.816 46.2575 170.865 46.3854 170.938 46.4997Z" fill="#263238"/>
<path id="Vector_179" d="M161.225 53.7636L161.308 51.7636C161.043 51.7524 160.785 51.8471 160.589 52.0268C160.394 52.2064 160.278 52.4564 160.267 52.7216C160.255 52.9868 160.35 53.2456 160.53 53.441C160.709 53.6364 160.959 53.7524 161.225 53.7636Z" fill="#263238"/>
<path id="Vector_180" d="M156.32 51.124L161.657 51.9L161.436 52.272L156.312 51.528L156.32 51.124Z" fill="#263238"/>
<path id="Vector_181" d="M173.575 64.3244C172.943 61.8484 172.051 61.0404 169.895 60.9844C168.783 61.0593 167.677 61.2009 166.583 61.4084C166.359 62.4524 163.655 63.1644 160.919 62.6084C160.119 62.8444 157.955 63.4284 157.279 63.6764C155.343 64.3764 154.407 66.3884 154.279 72.7644C154.279 72.7644 153.907 87.8924 154.279 90.5044C159.159 92.4084 164.223 92.3204 167.019 91.7044C172.839 90.4004 173.527 87.9804 173.527 87.9804C173.527 87.9804 173.223 81.9084 173.027 77.2924C173.315 74.3524 173.755 72.1404 173.915 69.7964C174.057 67.9654 173.943 66.1235 173.575 64.3244Z" fill="#455A64"/>
<path id="Vector_182" d="M135.112 68.9405C135.288 69.0645 136.588 70.1404 137.156 70.6604C137.156 70.6604 138.292 65.7325 138.292 65.7285C138.292 65.7245 137.768 65.2405 137.72 65.1845C137.534 64.9843 137.362 64.7718 137.204 64.5484C136.874 64.0075 136.592 63.4387 136.36 62.8484C136.078 62.2067 135.719 61.6011 135.292 61.0444C134.876 60.4791 134.459 59.9164 134.04 59.3564C133.972 59.2387 133.868 59.1451 133.744 59.0884C133.637 59.0624 133.525 59.076 133.427 59.1268C133.329 59.1775 133.253 59.2619 133.212 59.3644C133.136 59.5732 133.12 59.7989 133.164 60.0164C133.227 60.4537 133.337 60.8828 133.492 61.2965C133.584 61.5405 133.852 62.1445 133.296 62.0965C133.122 62.056 132.964 61.9623 132.844 61.8285C132.169 61.1981 131.538 60.5218 130.956 59.8044C130.775 59.5547 130.559 59.3313 130.316 59.1405C130.193 59.048 130.049 58.9858 129.897 58.9587C129.745 58.9316 129.589 58.9405 129.44 58.9845C129.267 59.08 129.116 59.2104 128.995 59.3673C128.875 59.5243 128.788 59.7044 128.74 59.8965C128.529 60.3512 128.394 60.8377 128.34 61.3364C128.334 61.6553 128.375 61.9733 128.46 62.2804C128.8 63.497 129.443 64.6076 130.328 65.5084C131.018 66.2849 131.816 66.9585 132.696 67.5084C132.892 67.6284 133.26 67.8364 133.624 68.0644C134.164 68.3724 134.492 68.5125 135.112 68.9405Z" fill="#B16668"/>
<path id="Vector_183" d="M146.19 71.4877L137.446 65.0877L135.738 69.3517C135.738 69.3517 141.59 74.9117 144.426 77.3277C145.626 78.3877 146.95 78.1517 148.242 77.5197C150.466 76.4317 156.142 72.0317 156.142 72.0317C156.142 72.0317 159.174 66.7517 157.278 63.6797C156.281 63.8727 155.349 64.3128 154.566 64.9597C153.21 66.0997 146.358 71.4677 146.358 71.4677" fill="#B16668"/>
<path id="Vector_184" d="M157.651 63.5437C156.707 63.4986 155.77 63.7249 154.951 64.1957C153.955 64.7597 146.359 71.2917 146.359 71.2917L140.211 66.9397C138.511 67.3637 137.367 69.5917 137.207 71.1157C137.207 71.1157 140.499 74.1637 142.455 76.1437C145.655 79.3717 146.387 78.9677 148.155 78.0477C149.923 77.1277 156.399 72.3997 156.399 72.3997C156.399 72.3997 158.379 70.9277 158.755 69.2637C159.791 64.6717 157.651 63.5437 157.651 63.5437Z" fill="#37474F"/>
<path id="Vector_185" opacity="0.1" d="M146.361 71.2914C145.582 71.9064 145.007 72.7432 144.713 73.6914C144.682 73.1768 144.769 72.662 144.966 72.1859C145.164 71.7098 145.467 71.2849 145.853 70.9434L146.361 71.2914Z" fill="black"/>
<path id="Vector_186" d="M140.214 66.9398L138.678 65.8398C137.886 66.2724 137.202 66.8798 136.678 67.6158C136.183 68.2475 135.857 68.9951 135.73 69.7878L137.198 71.1158C137.824 69.4855 138.863 68.0462 140.214 66.9398Z" fill="#263238"/>
<path id="Vector_187" d="M136.401 69.756C136.421 69.8083 136.455 69.8537 136.501 69.8864C136.546 69.9191 136.6 69.9377 136.656 69.9399C136.712 69.942 136.767 69.9277 136.815 69.8986C136.862 69.8695 136.9 69.827 136.924 69.7763C136.948 69.7257 136.956 69.6692 136.948 69.6139C136.939 69.5586 136.915 69.5071 136.877 69.4656C136.84 69.4241 136.791 69.3947 136.737 69.3809C136.683 69.3671 136.626 69.3696 136.573 69.388C136.537 69.4005 136.504 69.42 136.476 69.4454C136.448 69.4708 136.426 69.5015 136.41 69.5358C136.394 69.5701 136.384 69.6072 136.383 69.6451C136.382 69.6829 136.388 69.7206 136.401 69.756Z" fill="#339999"/>
<path id="Vector_188" d="M167.715 59.7235L167.755 60.3035C167.09 60.9667 166.231 61.4021 165.303 61.5475C162.539 62.0595 161.571 61.1995 161.571 61.1995L161.499 60.7035C161.499 60.7035 161.235 60.5955 160.787 60.9395C160.104 61.6467 159.464 62.3947 158.871 63.1795C158.871 63.1795 159.399 63.0275 161.127 63.7635C162.852 64.434 164.753 64.5044 166.523 63.9635C167.907 63.5035 168.947 62.1395 169.019 61.6355C169.091 61.1315 168.191 59.5155 167.715 59.7235Z" fill="#263238"/>
</g>
</g>
</g>
</g>
</svg>
