<svg width="262" height="200" viewBox="0 0 262 200" fill="none" xmlns="http://www.w3.org/2000/svg">
<g clip-path="url(#clip0_2495_67784)">
<path d="M24.2389 199.688L24.2267 199.767C24.2122 199.69 24.1983 199.611 24.185 199.533C24.1608 199.407 24.1398 199.281 24.1199 199.155C23.3336 194.205 23.7663 189.137 25.3806 184.392C25.6908 183.466 26.0442 182.557 26.4407 181.665C27.9571 178.209 30.1068 175.068 32.7787 172.404C33.6463 171.516 34.6361 170.756 35.7183 170.148C35.8772 170.064 36.037 169.984 36.2003 169.911C37.2011 169.425 38.3279 169.262 39.4254 169.443C39.8241 169.518 40.2105 169.648 40.5737 169.829C40.701 169.891 40.8236 169.959 40.9439 170.031C41.6775 170.512 42.3039 171.14 42.7838 171.874C43.2637 172.608 43.5869 173.434 43.733 174.299C43.9415 175.589 43.8938 176.908 43.5928 178.18C43.5669 178.301 43.5391 178.422 43.5094 178.543C43.2959 179.39 43.0277 180.223 42.7065 181.036C39.4908 189.311 32.5801 196.651 24.2389 199.688Z" fill="#F2F2F2"/>
<path d="M40.5513 169.856C38.0421 173.461 35.6718 177.158 33.4404 180.947C31.2117 184.733 29.1287 188.599 27.1915 192.546C26.1078 194.755 25.0715 196.986 24.0826 199.239C23.9731 199.488 24.3424 199.705 24.4533 199.452C26.2195 195.43 28.1361 191.479 30.2032 187.598C32.269 183.721 34.4799 179.927 36.8359 176.214C38.1541 174.137 39.5162 172.089 40.922 170.069C41.0792 169.843 40.7079 169.63 40.5513 169.856Z" fill="white"/>
<path d="M43.2372 178.202C41.3516 180.652 38.5761 182.261 35.5125 182.679C34.6578 182.795 33.7925 182.812 32.9339 182.73C32.6591 182.704 32.6572 183.132 32.9296 183.158C36.125 183.427 39.2974 182.424 41.7582 180.368C42.4484 179.791 43.0692 179.136 43.6079 178.416C43.7729 178.196 43.401 177.984 43.2372 178.202Z" fill="white"/>
<path d="M27.1315 191.494C26.6932 190.869 26.3289 190.196 26.0462 189.487C25.4003 187.872 25.171 186.119 25.3794 184.392C25.6897 183.466 26.0431 182.556 26.4396 181.664C26.4636 181.699 26.4781 181.74 26.4815 181.782C26.485 181.825 26.4774 181.867 26.4594 181.906C26.1802 182.575 25.9795 183.275 25.8612 183.99C25.4368 186.542 26.026 189.158 27.5031 191.282C27.5218 191.305 27.5342 191.332 27.5392 191.362C27.5442 191.391 27.5415 191.421 27.5315 191.449C27.515 191.486 27.489 191.519 27.4562 191.543C27.4233 191.567 27.3848 191.582 27.3443 191.586C27.3039 191.591 27.2629 191.585 27.2256 191.568C27.1883 191.552 27.1559 191.526 27.1315 191.494Z" fill="white"/>
<path d="M35.78 169.877C35.2639 171.934 35.4176 174.101 36.2187 176.064C36.2471 176.113 36.2936 176.149 36.3483 176.164C36.4029 176.179 36.4613 176.172 36.5106 176.144C36.5588 176.115 36.594 176.068 36.6089 176.014C36.6237 175.96 36.617 175.902 36.5903 175.852C35.8401 173.989 35.701 171.937 36.1928 169.99C36.2056 169.936 36.1969 169.879 36.1685 169.831C36.1402 169.784 36.0944 169.749 36.0408 169.734C35.9873 169.719 35.9301 169.726 35.8815 169.753C35.8328 169.78 35.7964 169.824 35.78 169.877Z" fill="white"/>
<path d="M24.1869 189.354L24.2129 189.43C24.1643 189.368 24.1152 189.305 24.0673 189.242C23.9874 189.142 23.9103 189.04 23.8339 188.937C20.8381 184.919 18.8675 180.231 18.0928 175.279C17.9373 174.314 17.8279 173.345 17.7645 172.371C17.5023 168.606 17.9469 164.826 19.0753 161.225C19.4312 160.036 19.9549 158.904 20.6307 157.862C20.7324 157.714 20.8368 157.569 20.9472 157.428C21.6079 156.533 22.5299 155.865 23.5862 155.516C23.9741 155.397 24.3765 155.333 24.7821 155.324C24.9236 155.32 25.0638 155.323 25.204 155.331C26.0771 155.417 26.9232 155.681 27.6893 156.109C28.4555 156.536 29.1251 157.117 29.6563 157.815C30.4403 158.861 31.0107 160.051 31.3349 161.317C31.3685 161.437 31.4001 161.557 31.4298 161.677C31.6345 162.527 31.7839 163.389 31.8771 164.259C32.8729 173.08 30.163 182.791 24.1869 189.354Z" fill="#F2F2F2"/>
<path d="M24.7752 155.357C24.2281 159.716 23.8465 164.091 23.6303 168.483C23.4151 172.87 23.3665 177.262 23.4846 181.657C23.5508 184.116 23.6694 186.573 23.8403 189.028C23.8591 189.3 24.287 189.32 24.2679 189.045C23.9635 184.663 23.8252 180.273 23.8531 175.876C23.8817 171.484 24.0769 167.096 24.4387 162.714C24.6413 160.262 24.896 157.816 25.2028 155.374C25.2371 155.101 24.8094 155.085 24.7752 155.357Z" fill="white"/>
<path d="M31.0268 161.501C30.4953 164.547 28.7847 167.261 26.2657 169.054C25.563 169.554 24.8047 169.971 24.0059 170.297C23.7506 170.401 23.9478 170.781 24.2009 170.678C27.1555 169.431 29.4992 167.07 30.7232 164.106C31.0665 163.275 31.3119 162.406 31.4544 161.518C31.4985 161.247 31.0706 161.232 31.0268 161.501Z" fill="white"/>
<path d="M22.9406 180.754C22.2623 180.404 21.627 179.977 21.0474 179.481C19.7248 178.35 18.7078 176.905 18.09 175.278C17.9345 174.314 17.8251 173.344 17.7617 172.37C17.7993 172.39 17.831 172.419 17.8538 172.455C17.8765 172.491 17.8895 172.532 17.8915 172.575C17.9552 173.297 18.1023 174.01 18.33 174.699C19.1395 177.155 20.8766 179.199 23.1711 180.393C23.1984 180.405 23.2222 180.424 23.2403 180.447C23.2583 180.471 23.27 180.499 23.2741 180.528C23.2768 180.569 23.2687 180.61 23.2508 180.646C23.2329 180.683 23.2057 180.714 23.172 180.737C23.1383 180.759 23.0992 180.773 23.0586 180.776C23.018 180.779 22.9773 180.771 22.9406 180.754Z" fill="white"/>
<path d="M20.5583 157.593C21.0565 159.654 22.1995 161.502 23.8207 162.868C23.8686 162.898 23.9265 162.908 23.9819 162.896C24.0372 162.884 24.0855 162.85 24.1162 162.803C24.1454 162.755 24.155 162.697 24.1429 162.642C24.1308 162.587 24.0979 162.539 24.0512 162.507C22.5217 161.206 21.4449 159.453 20.9761 157.501C20.9624 157.447 20.9282 157.401 20.881 157.372C20.8337 157.343 20.777 157.333 20.7227 157.345C20.6685 157.357 20.6211 157.389 20.5904 157.436C20.5597 157.482 20.5482 157.538 20.5583 157.593Z" fill="white"/>
<path d="M24.3711 199.74L24.4338 199.79C24.3597 199.764 24.2841 199.737 24.2099 199.71C24.0887 199.669 23.9689 199.624 23.8491 199.579C19.1607 197.806 14.9754 194.917 11.6557 191.162C11.0053 190.433 10.391 189.676 9.81292 188.889C7.56464 185.858 5.90339 182.434 4.91498 178.792C4.5743 177.598 4.40573 176.362 4.41438 175.121C4.42009 174.941 4.43005 174.763 4.44718 174.584C4.52193 173.475 4.93903 172.415 5.64101 171.552C5.90382 171.243 6.20812 170.972 6.54526 170.746C6.66219 170.666 6.78203 170.594 6.90469 170.525C7.68626 170.127 8.54167 169.894 9.41735 169.842C10.293 169.789 11.1701 169.918 11.9937 170.22C13.2175 170.679 14.339 171.374 15.2941 172.267C15.3868 172.349 15.4781 172.434 15.568 172.519C16.1983 173.125 16.7885 173.771 17.3352 174.453C22.9248 181.349 25.8716 190.991 24.3711 199.74Z" fill="#F2F2F2"/>
<path d="M6.55805 170.779C8.4445 174.746 10.4792 178.638 12.6623 182.455C14.8439 186.268 17.1681 189.994 19.6348 193.634C21.0149 195.67 22.438 197.677 23.9041 199.653C24.0663 199.872 24.4378 199.659 24.2735 199.437C21.6569 195.908 19.1764 192.284 16.8319 188.565C14.4902 184.848 12.2918 181.046 10.2366 177.159C9.08688 174.984 7.98386 172.785 6.92752 170.563C6.80933 170.314 6.44029 170.531 6.55805 170.779Z" fill="white"/>
<path d="M15.1352 172.587C16.3278 175.44 16.348 178.647 15.1913 181.515C14.8686 182.315 14.4543 183.075 13.9567 183.779C13.7979 184.005 14.1687 184.219 14.3262 183.995C16.1444 181.354 16.8474 178.102 16.2825 174.945C16.124 174.06 15.8629 173.196 15.5047 172.371C15.3959 172.119 15.0271 172.336 15.1352 172.587Z" fill="white"/>
<path d="M18.6912 193.164C17.9315 193.235 17.1661 193.217 16.4105 193.111C14.6872 192.871 13.0519 192.201 11.6553 191.163C11.0049 190.434 10.3906 189.676 9.8125 188.889C9.85488 188.886 9.89743 188.894 9.93595 188.912C9.97447 188.93 10.0076 188.957 10.0322 188.992C10.4749 189.567 10.9827 190.088 11.5454 190.545C13.5506 192.179 16.1147 192.966 18.6912 192.736C18.7206 192.731 18.7507 192.734 18.7787 192.745C18.8066 192.755 18.8315 192.772 18.8509 192.795C18.875 192.827 18.8901 192.866 18.8946 192.906C18.8992 192.947 18.8931 192.988 18.877 193.025C18.8608 193.063 18.8352 193.095 18.8026 193.119C18.77 193.144 18.7316 193.159 18.6912 193.164Z" fill="white"/>
<path d="M4.20942 174.931C5.73912 176.399 7.69744 177.341 9.79935 177.619C9.91486 177.634 10.0122 177.509 10.0133 177.405C10.012 177.348 9.98898 177.295 9.94915 177.255C9.90931 177.215 9.85567 177.192 9.79935 177.191C7.80996 176.918 5.95851 176.021 4.51198 174.628C4.31366 174.437 4.01071 174.739 4.20942 174.931Z" fill="white"/>
<path d="M53.5743 143.306C53.9922 143.019 54.3421 142.645 54.5996 142.208C54.857 141.772 55.0156 141.285 55.0643 140.78C55.1129 140.276 55.0504 139.767 54.8812 139.29C54.7119 138.812 54.44 138.378 54.0846 138.017L55.4289 108.011L48.5851 108.779L48.9827 138.129C48.4158 138.766 48.1022 139.589 48.1016 140.442C48.1009 141.295 48.4131 142.119 48.9791 142.757C49.5451 143.395 50.3255 143.803 51.1724 143.904C52.0193 144.006 52.8739 143.793 53.5743 143.306Z" fill="#FFB8B8"/>
<path d="M66.0625 194.099L69.9577 194.784L73.8073 180.086L68.7038 179.075L66.0625 194.099Z" fill="#FFB8B8"/>
<path d="M76.832 199.722L64.5905 197.57L65.422 192.84L72.9338 194.161C73.5549 194.27 74.1485 194.5 74.6805 194.839C75.2126 195.177 75.6727 195.617 76.0347 196.134C76.3967 196.65 76.6534 197.233 76.7902 197.848C76.927 198.464 76.9412 199.101 76.832 199.722Z" fill="#2F2E41"/>
<path d="M55.3717 196.049L59.3266 196.049L61.2079 180.795L55.3711 180.795L55.3717 196.049Z" fill="#FFB8B8"/>
<path d="M66.9531 199.721L54.5238 199.721L54.5236 194.919L62.1507 194.919C63.4243 194.919 64.6458 195.425 65.5464 196.325C66.4471 197.226 66.9531 198.447 66.9531 199.721Z" fill="#2F2E41"/>
<path d="M72.1942 191.872C72.1325 191.872 72.0708 191.869 72.0096 191.861L67.3547 191.478C67.1428 191.453 66.9381 191.386 66.7532 191.279C66.5682 191.173 66.4069 191.03 66.2789 190.859C66.1509 190.688 66.0589 190.493 66.0086 190.286C65.9583 190.079 65.9507 189.863 65.9862 189.653L70.2845 165.562L67.3801 150.248C67.3564 150.123 67.2885 150.012 67.189 149.933C67.0894 149.855 66.9649 149.815 66.8384 149.822C66.712 149.828 66.592 149.88 66.5007 149.968C66.4094 150.055 66.3529 150.173 66.3417 150.299L62.7108 191.147C62.6709 191.557 62.4734 191.935 62.1599 192.202C61.8463 192.469 61.4413 192.604 61.0303 192.578L56.6449 192.415C56.2606 192.388 55.8995 192.221 55.6299 191.946C55.3603 191.67 55.2008 191.306 55.1815 190.921L54.8867 141.964L77.6226 139.122L79.2108 163.651L79.2045 163.677L73.7236 190.669C73.6402 191.012 73.4441 191.317 73.1668 191.535C72.8895 191.753 72.547 191.872 72.1942 191.872Z" fill="#2F2E41"/>
<path d="M62.3838 88.5665C66.7596 88.5665 70.3068 85.0193 70.3068 80.6436C70.3068 76.2679 66.7596 72.7207 62.3838 72.7207C58.0081 72.7207 54.4609 76.2679 54.4609 80.6436C54.4609 85.0193 58.0081 88.5665 62.3838 88.5665Z" fill="#FFB8B8"/>
<path d="M69.8461 145.542C68.607 145.549 67.3917 145.202 66.3439 144.54C62.506 142.141 58.1469 143.095 55.8901 143.877C55.6661 143.955 55.4273 143.982 55.1916 143.955C54.9558 143.928 54.7292 143.848 54.5286 143.721C54.3303 143.597 54.1628 143.429 54.0385 143.231C53.9143 143.032 53.8365 142.808 53.8111 142.576L49.707 105.922C49.0193 99.7811 52.7186 94.0072 58.503 92.1934C58.7204 92.1252 58.9413 92.0606 59.166 91.9995C60.9661 91.5114 62.8512 91.4238 64.6888 91.7427C66.5264 92.0616 68.2718 92.7794 69.8021 93.8454C71.3609 94.9233 72.6646 96.3296 73.6213 97.9655C74.5781 99.6014 75.1647 101.427 75.3398 103.314L78.7948 140.213C78.8183 140.452 78.7861 140.693 78.7006 140.918C78.6151 141.142 78.4787 141.343 78.3022 141.506C77.0911 142.626 73.5758 145.542 69.8461 145.542Z" fill="#339999"/>
<path d="M57.3511 113.783L48.092 112.765C47.8285 112.736 47.5744 112.65 47.347 112.514C47.1195 112.378 46.924 112.195 46.7738 111.976C46.6237 111.758 46.5223 111.51 46.4767 111.249C46.4311 110.988 46.4423 110.72 46.5096 110.463L48.8664 101.481C49.0222 100.134 49.7059 98.9034 50.7674 98.0596C51.829 97.2159 53.1818 96.8275 54.5292 96.9796C55.8767 97.1318 57.1088 97.812 57.9555 98.8713C58.8022 99.9305 59.1943 101.282 59.0458 102.63L59.3957 111.88C59.4056 112.145 59.3584 112.409 59.2571 112.654C59.1559 112.899 59.0031 113.119 58.809 113.3C58.615 113.48 58.3843 113.617 58.1327 113.7C57.8812 113.783 57.6146 113.812 57.3511 113.783Z" fill="#339999"/>
<path d="M78.759 142.021C79.1393 141.686 79.4416 141.272 79.6446 140.808C79.8475 140.344 79.9463 139.841 79.9338 139.334C79.9213 138.828 79.7979 138.33 79.5724 137.877C79.3468 137.423 79.0245 137.024 78.6282 136.709L76.3466 106.76L69.6406 108.269L73.577 137.435C73.091 138.136 72.8789 138.991 72.9811 139.838C73.0832 140.685 73.4924 141.464 74.1312 142.03C74.7699 142.595 75.5938 142.906 76.4468 142.905C77.2997 142.903 78.1224 142.589 78.759 142.021Z" fill="#FFB8B8"/>
<path d="M67.0684 111.899C66.8743 111.719 66.7214 111.498 66.6202 111.253C66.5189 111.009 66.4717 110.745 66.4818 110.48L66.8317 101.23C66.6832 99.8818 67.0753 98.5301 67.922 97.4709C68.7687 96.4117 70.0008 95.7314 71.3483 95.5792C72.6957 95.4271 74.0485 95.8155 75.1101 96.6592C76.1716 97.503 76.8553 98.7332 77.0112 100.08L79.3679 109.063C79.4352 109.319 79.4464 109.587 79.4008 109.848C79.3552 110.109 79.2538 110.358 79.1037 110.576C78.9535 110.794 78.758 110.978 78.5306 111.114C78.3031 111.25 78.049 111.335 77.7855 111.364L68.5264 112.382C68.2629 112.411 67.9963 112.383 67.7446 112.3C67.493 112.216 67.2624 112.08 67.0684 111.899Z" fill="#339999"/>
<path d="M61.9122 88.8654C61.7714 88.8653 61.631 88.8489 61.4939 88.8166L61.4537 88.8068C54.4877 87.7411 52.9483 83.7064 52.6104 82.0213C52.2606 80.2767 52.6589 78.5928 53.5588 77.9388C53.0682 76.3895 53.1469 75.0159 53.7934 73.8543C54.921 71.8284 57.368 71.1434 57.6961 71.0596C59.6504 69.6179 61.9885 70.5803 62.414 70.7754C66.1941 69.3769 67.639 70.541 67.9003 70.8009C69.59 71.1044 70.62 71.7572 70.9619 72.7415C71.6042 74.5902 69.5731 76.8898 69.4863 76.9868L69.4413 77.0371L66.4154 77.1812C66.1283 77.1949 65.8473 77.2688 65.5905 77.3981C65.3338 77.5274 65.1071 77.7092 64.9252 77.9318C64.7433 78.1543 64.6102 78.4126 64.5345 78.6899C64.4588 78.9672 64.4423 79.2574 64.486 79.5415C64.5679 79.9081 64.6714 80.2695 64.7958 80.6239C65.3126 82.2388 65.6998 83.6185 65.2004 84.143C65.0872 84.2445 64.9478 84.3121 64.798 84.338C64.6483 84.364 64.4942 84.3473 64.3535 84.2898C63.8805 84.1635 63.5592 84.1899 63.3992 84.3687C63.1507 84.6459 63.2266 85.3476 63.6128 86.3447C63.7339 86.6599 63.7666 87.0023 63.7071 87.3348C63.6476 87.6673 63.4983 87.9771 63.2754 88.2308C63.1075 88.4288 62.8987 88.5881 62.6634 88.6977C62.4281 88.8072 62.1718 88.8645 61.9122 88.8654Z" fill="#2F2E41"/>
<path d="M155.481 114.193H116.449C114.995 114.192 113.601 113.613 112.573 112.585C111.545 111.557 110.966 110.163 110.965 108.71V50.0542C110.966 48.6003 111.545 47.2064 112.573 46.1783C113.601 45.1502 114.995 44.5719 116.449 44.5703H155.481C156.935 44.5719 158.329 45.1502 159.357 46.1783C160.385 47.2064 160.963 48.6003 160.965 50.0542V108.71C160.963 110.163 160.385 111.557 159.357 112.585C158.329 113.613 156.935 114.192 155.481 114.193ZM116.449 45.2155C115.166 45.2169 113.936 45.7272 113.029 46.6343C112.122 47.5414 111.611 48.7713 111.61 50.0542V108.71C111.611 109.992 112.122 111.222 113.029 112.129C113.936 113.037 115.166 113.547 116.449 113.548H155.481C156.764 113.547 157.994 113.037 158.901 112.129C159.808 111.222 160.318 109.992 160.32 108.71V50.0542C160.318 48.7713 159.808 47.5414 158.901 46.6343C157.994 45.7272 156.764 45.2169 155.481 45.2155H116.449Z" fill="#3F3D56"/>
<path d="M149.511 72.7689H122.414C121.687 72.7681 120.99 72.479 120.476 71.9649C119.962 71.4509 119.673 70.754 119.672 70.027V57.1238C119.673 56.3968 119.962 55.6999 120.476 55.1858C120.99 54.6718 121.687 54.3826 122.414 54.3818H149.511C150.238 54.3827 150.934 54.6718 151.448 55.1859C151.963 55.6999 152.252 56.3968 152.253 57.1238V70.027C152.252 70.7539 151.963 71.4509 151.448 71.9649C150.934 72.4789 150.238 72.7681 149.511 72.7689Z" fill="#339999"/>
<path d="M147.576 84.8654H124.35C123.666 84.8654 123.009 84.5935 122.525 84.1095C122.041 83.6256 121.77 82.9692 121.77 82.2847C121.77 81.6003 122.041 80.9439 122.525 80.46C123.009 79.976 123.666 79.7041 124.35 79.7041H147.576C148.26 79.7041 148.917 79.976 149.401 80.46C149.885 80.9439 150.157 81.6003 150.157 82.2847C150.157 82.9692 149.885 83.6256 149.401 84.1095C148.917 84.5935 148.26 84.8654 147.576 84.8654Z" fill="#CCCCCC"/>
<path d="M147.576 94.5431H124.35C123.666 94.5431 123.009 94.2712 122.525 93.7873C122.041 93.3033 121.77 92.6469 121.77 91.9625C121.77 91.2781 122.041 90.6217 122.525 90.1377C123.009 89.6537 123.666 89.3818 124.35 89.3818H147.576C148.26 89.3818 148.917 89.6537 149.401 90.1377C149.885 90.6217 150.157 91.2781 150.157 91.9625C150.157 92.6469 149.885 93.3033 149.401 93.7873C148.917 94.2712 148.26 94.5431 147.576 94.5431Z" fill="#CCCCCC"/>
<path d="M147.576 104.221H124.35C123.666 104.221 123.009 103.949 122.525 103.465C122.041 102.981 121.77 102.325 121.77 101.64C121.77 100.956 122.041 100.299 122.525 99.8154C123.009 99.3315 123.666 99.0596 124.35 99.0596H147.576C148.26 99.0596 148.917 99.3315 149.401 99.8154C149.885 100.299 150.157 100.956 150.157 101.64C150.157 102.325 149.885 102.981 149.401 103.465C148.917 103.949 148.26 104.221 147.576 104.221Z" fill="#CCCCCC"/>
<path d="M250.641 147.097H211.609C210.155 147.095 208.761 146.517 207.733 145.489C206.705 144.461 206.127 143.067 206.125 141.613V82.9575C206.127 81.5036 206.705 80.1097 207.733 79.0816C208.761 78.0536 210.155 77.4753 211.609 77.4736H250.641C252.095 77.4753 253.489 78.0536 254.517 79.0816C255.545 80.1097 256.123 81.5036 256.125 82.9575V141.613C256.123 143.067 255.545 144.461 254.517 145.489C253.489 146.517 252.095 147.095 250.641 147.097ZM211.609 78.1188C210.326 78.1202 209.096 78.6305 208.189 79.5376C207.282 80.4447 206.772 81.6746 206.77 82.9575V141.613C206.772 142.896 207.282 144.126 208.189 145.033C209.096 145.94 210.326 146.45 211.609 146.452H250.641C251.924 146.45 253.154 145.94 254.061 145.033C254.968 144.126 255.478 142.896 255.48 141.613V82.9575C255.478 81.6746 254.968 80.4447 254.061 79.5376C253.154 78.6305 251.924 78.1202 250.641 78.1188H211.609Z" fill="#3F3D56"/>
<path d="M242.736 91.963H219.51C218.826 91.963 218.17 91.6912 217.686 91.2072C217.202 90.7232 216.93 90.0668 216.93 89.3824C216.93 88.698 217.202 88.0416 217.686 87.5576C218.17 87.0736 218.826 86.8018 219.51 86.8018H242.736C243.421 86.8018 244.077 87.0736 244.561 87.5576C245.045 88.0416 245.317 88.698 245.317 89.3824C245.317 90.0668 245.045 90.7232 244.561 91.2072C244.077 91.6912 243.421 91.963 242.736 91.963Z" fill="#CCCCCC"/>
<path d="M242.736 101.64H219.51C218.826 101.64 218.17 101.368 217.686 100.884C217.202 100.4 216.93 99.7436 216.93 99.0592C216.93 98.3747 217.202 97.7183 217.686 97.2344C218.17 96.7504 218.826 96.4785 219.51 96.4785H242.736C243.421 96.4785 244.077 96.7504 244.561 97.2344C245.045 97.7183 245.317 98.3747 245.317 99.0592C245.317 99.7436 245.045 100.4 244.561 100.884C244.077 101.368 243.421 101.64 242.736 101.64Z" fill="#CCCCCC"/>
<path d="M244.675 126.318H217.578C216.851 126.317 216.154 126.028 215.64 125.514C215.126 125 214.837 124.303 214.836 123.576V110.673C214.837 109.946 215.126 109.249 215.64 108.735C216.154 108.221 216.851 107.932 217.578 107.931H244.675C245.402 107.932 246.099 108.221 246.613 108.735C247.127 109.249 247.416 109.946 247.417 110.673V123.576C247.416 124.303 247.127 125 246.613 125.514C246.099 126.028 245.402 126.317 244.675 126.318Z" fill="#E6E6E6"/>
<path d="M242.736 137.769H219.51C218.826 137.769 218.17 137.497 217.686 137.013C217.202 136.529 216.93 135.872 216.93 135.188C216.93 134.504 217.202 133.847 217.686 133.363C218.17 132.879 218.826 132.607 219.51 132.607H242.736C243.421 132.607 244.077 132.879 244.561 133.363C245.045 133.847 245.317 134.504 245.317 135.188C245.317 135.872 245.045 136.529 244.561 137.013C244.077 137.497 243.421 137.769 242.736 137.769Z" fill="#CCCCCC"/>
<path d="M226.77 53.8709H187.738C186.284 53.8692 184.89 53.2909 183.862 52.2629C182.834 51.2348 182.256 49.8409 182.254 48.387V11.9897C182.256 10.5358 182.834 9.14193 183.862 8.11386C184.89 7.08578 186.284 6.5075 187.738 6.50586H226.77C228.224 6.5075 229.618 7.08578 230.646 8.11386C231.674 9.14193 232.252 10.5358 232.254 11.9897V48.387C232.252 49.8409 231.674 51.2348 230.646 52.2629C229.618 53.2909 228.224 53.8692 226.77 53.8709ZM187.738 7.15102C186.455 7.15247 185.225 7.66273 184.318 8.56985C183.411 9.47697 182.901 10.7069 182.899 11.9897V48.387C182.901 49.6699 183.411 50.8998 184.318 51.8069C185.225 52.714 186.455 53.2243 187.738 53.2257H226.77C228.053 53.2243 229.283 52.714 230.19 51.8069C231.097 50.8998 231.607 49.6699 231.609 48.387V11.9897C231.607 10.7069 231.097 9.47697 230.19 8.56985C229.283 7.66273 228.053 7.15247 226.77 7.15102H187.738Z" fill="#3F3D56"/>
<path d="M218.865 42.4465H195.639C194.955 42.4465 194.298 42.1746 193.814 41.6906C193.33 41.2066 193.059 40.5502 193.059 39.8658C193.059 39.1814 193.33 38.525 193.814 38.041C194.298 37.557 194.955 37.2852 195.639 37.2852H218.865C219.549 37.2852 220.206 37.557 220.69 38.041C221.174 38.525 221.446 39.1814 221.446 39.8658C221.446 40.5502 221.174 41.2066 220.69 41.6906C220.206 42.1746 219.549 42.4465 218.865 42.4465Z" fill="#CCCCCC"/>
<path d="M218.865 32.7687H195.639C194.955 32.7687 194.298 32.4968 193.814 32.0129C193.33 31.5289 193.059 30.8725 193.059 30.1881C193.059 29.5036 193.33 28.8472 193.814 28.3633C194.298 27.8793 194.955 27.6074 195.639 27.6074H218.865C219.549 27.6074 220.206 27.8793 220.69 28.3633C221.174 28.8472 221.446 29.5036 221.446 30.1881C221.446 30.8725 221.174 31.5289 220.69 32.0129C220.206 32.4968 219.549 32.7687 218.865 32.7687Z" fill="#CCCCCC"/>
<path d="M218.865 23.092H195.639C194.955 23.092 194.298 22.8201 193.814 22.3361C193.33 21.8521 193.059 21.1957 193.059 20.5113C193.059 19.8269 193.33 19.1705 193.814 18.6865C194.298 18.2026 194.955 17.9307 195.639 17.9307H218.865C219.549 17.9307 220.206 18.2026 220.69 18.6865C221.174 19.1705 221.446 19.8269 221.446 20.5113C221.446 21.1957 221.174 21.8521 220.69 22.3361C220.206 22.8201 219.549 23.092 218.865 23.092Z" fill="#CCCCCC"/>
<path d="M157.74 53.5487C161.837 53.5487 165.159 50.2269 165.159 46.1293C165.159 42.0317 161.837 38.71 157.74 38.71C153.642 38.71 150.32 42.0317 150.32 46.1293C150.32 50.2269 153.642 53.5487 157.74 53.5487Z" fill="#339999"/>
<path d="M157.001 48.9591C156.834 48.9594 156.672 48.9054 156.538 48.8053L156.53 48.7991L154.786 47.4641C154.705 47.4024 154.637 47.3253 154.586 47.2371C154.534 47.149 154.501 47.0516 154.487 46.9506C154.474 46.8495 154.48 46.7468 154.507 46.6483C154.533 46.5497 154.578 46.4574 154.64 46.3764C154.702 46.2955 154.78 46.2276 154.868 46.1766C154.956 46.1257 155.054 46.0926 155.155 46.0794C155.256 46.0662 155.359 46.0731 155.457 46.0997C155.555 46.1263 155.648 46.172 155.728 46.2343L156.858 47.1003L159.527 43.6197C159.589 43.539 159.666 43.4712 159.754 43.4203C159.842 43.3694 159.939 43.3364 160.04 43.3231C160.141 43.3098 160.243 43.3164 160.342 43.3427C160.44 43.369 160.532 43.4144 160.613 43.4763L160.596 43.4989L160.613 43.4767C160.776 43.6018 160.883 43.7864 160.909 43.9901C160.936 44.1937 160.881 44.3996 160.757 44.5627L157.617 48.6568C157.545 48.7511 157.451 48.8275 157.344 48.8799C157.238 48.9323 157.12 48.9594 157.001 48.9591Z" fill="white"/>
<path d="M254.513 86.7743C258.611 86.7743 261.932 83.4525 261.932 79.3549C261.932 75.2573 258.611 71.9355 254.513 71.9355C250.416 71.9355 247.094 75.2573 247.094 79.3549C247.094 83.4525 250.416 86.7743 254.513 86.7743Z" fill="#3F3D56"/>
<path d="M253.778 82.1847C253.611 82.185 253.449 82.131 253.315 82.0309L253.307 82.0247L251.564 80.6897C251.482 80.628 251.414 80.5508 251.363 80.4627C251.312 80.3746 251.278 80.2772 251.265 80.1762C251.251 80.0751 251.258 79.9724 251.284 79.8738C251.31 79.7753 251.356 79.6829 251.418 79.602C251.48 79.5211 251.557 79.4532 251.645 79.4022C251.734 79.3513 251.831 79.3182 251.932 79.305C252.033 79.2918 252.136 79.2987 252.234 79.3253C252.333 79.3519 252.425 79.3976 252.506 79.4599L253.635 80.3259L256.304 76.8453C256.366 76.7646 256.443 76.6968 256.531 76.6459C256.619 76.595 256.717 76.562 256.817 76.5487C256.918 76.5353 257.021 76.542 257.119 76.5683C257.217 76.5946 257.309 76.64 257.39 76.7019L257.374 76.7244L257.391 76.7022C257.553 76.8274 257.66 77.012 257.687 77.2156C257.714 77.4193 257.659 77.6252 257.534 77.7883L254.395 81.8823C254.322 81.9767 254.229 82.053 254.122 82.1055C254.015 82.1579 253.897 82.185 253.778 82.1847Z" fill="white"/>
<path d="M230.966 14.8387C235.064 14.8387 238.386 11.517 238.386 7.41935C238.386 3.32176 235.064 0 230.966 0C226.869 0 223.547 3.32176 223.547 7.41935C223.547 11.517 226.869 14.8387 230.966 14.8387Z" fill="#3F3D56"/>
<path d="M230.232 10.2491C230.065 10.2494 229.902 10.1955 229.769 10.0953L229.76 10.0891L228.017 8.75416C227.935 8.69244 227.867 8.6153 227.816 8.52717C227.765 8.43905 227.731 8.34167 227.718 8.24061C227.704 8.13956 227.711 8.03682 227.737 7.9383C227.763 7.83977 227.809 7.74739 227.871 7.66646C227.933 7.58553 228.01 7.51763 228.098 7.46667C228.187 7.4157 228.284 7.38267 228.385 7.36947C228.486 7.35627 228.589 7.36315 228.688 7.38973C228.786 7.41631 228.878 7.46206 228.959 7.52436L230.088 8.39035L232.757 4.90974C232.819 4.82901 232.896 4.76126 232.984 4.71037C233.072 4.65947 233.17 4.62642 233.27 4.61311C233.371 4.59979 233.474 4.60648 233.572 4.63277C233.67 4.65907 233.763 4.70447 233.843 4.76637L233.827 4.7889L233.844 4.76669C234.006 4.89185 234.113 5.07648 234.14 5.28009C234.167 5.4837 234.112 5.68966 233.987 5.85278L230.848 9.94681C230.775 10.0412 230.682 10.1175 230.575 10.1699C230.468 10.2224 230.351 10.2495 230.232 10.2491Z" fill="white"/>
<path d="M123.3 200H0.396799C0.311246 200 0.229196 199.966 0.1687 199.905C0.108205 199.845 0.0742188 199.763 0.0742188 199.677C0.0742188 199.592 0.108205 199.509 0.1687 199.449C0.229196 199.388 0.311246 199.354 0.396799 199.354H123.3C123.386 199.354 123.468 199.388 123.528 199.449C123.589 199.509 123.623 199.592 123.623 199.677C123.623 199.763 123.589 199.845 123.528 199.905C123.468 199.966 123.386 200 123.3 200Z" fill="#3F3D56"/>
</g>
<defs>
<clipPath id="clip0_2495_67784">
<rect width="261.858" height="200" fill="white" transform="translate(0.0703125)"/>
</clipPath>
</defs>
</svg>
