<svg width="136" height="130" viewBox="0 0 136 130" fill="none" xmlns="http://www.w3.org/2000/svg">
<path d="M18.8868 114.309V116.661H36.4959V114.309H18.8868Z" fill="#E0E0E0"/>
<path d="M21.2887 114.404C21.3482 114.404 21.3982 114.898 21.3982 115.508C21.3982 116.118 21.3482 116.609 21.2887 116.609C21.2293 116.609 21.1761 116.115 21.1761 115.508C21.1761 114.902 21.2262 114.404 21.2887 114.404Z" fill="#FAFAFA"/>
<path d="M20.9029 114.358C20.9655 114.358 21.0124 114.853 21.0124 115.459C21.0124 116.066 20.9655 116.563 20.9029 116.563C20.8404 116.563 20.7935 116.069 20.7935 115.459C20.7935 114.849 20.8404 114.358 20.9029 114.358Z" fill="#FAFAFA"/>
<path d="M35.1371 114.404C35.1996 114.404 35.2497 114.898 35.2497 115.508C35.2497 116.118 35.1996 116.609 35.1371 116.609C35.0745 116.609 35.0276 116.115 35.0276 115.508C35.0276 114.902 35.0776 114.404 35.1371 114.404Z" fill="#FAFAFA"/>
<path d="M34.7562 114.358C34.8156 114.358 34.8657 114.853 34.8657 115.459C34.8657 116.066 34.8156 116.563 34.7562 116.563C34.6968 116.563 34.6436 116.069 34.6436 115.459C34.6436 114.849 34.6937 114.358 34.7562 114.358Z" fill="#FAFAFA"/>
<path d="M32.4507 115.554C32.4507 115.616 30.4333 115.663 27.9468 115.663C25.4603 115.663 23.4429 115.616 23.4429 115.554C23.4429 115.491 25.4603 115.444 27.9468 115.444C30.4333 115.444 32.4507 115.491 32.4507 115.554Z" fill="#FAFAFA"/>
<path d="M18.8135 124.901V129.605H36.4227V124.901H18.8135Z" fill="#E0E0E0"/>
<path d="M36.6451 128.28C36.6451 128.28 36.6169 128.302 36.5513 128.333C36.4856 128.365 36.3886 128.412 36.2573 128.468C35.8745 128.63 35.4732 128.745 35.0625 128.809C34.4043 128.928 33.7252 128.832 33.1264 128.533C32.756 128.336 32.4401 128.05 32.2069 127.702C31.9391 127.304 31.8277 126.822 31.8941 126.347C31.9325 126.09 32.0407 125.847 32.2069 125.647C32.2958 125.537 32.4091 125.449 32.5377 125.39C32.6664 125.332 32.8068 125.304 32.9481 125.309C33.0935 125.321 33.2349 125.362 33.3635 125.431C33.4921 125.5 33.6052 125.595 33.6956 125.709C33.8882 125.936 34.0072 126.217 34.0366 126.513C34.0606 126.818 34.0188 127.125 33.9141 127.412C33.8095 127.7 33.6443 127.962 33.4298 128.18C32.9841 128.651 32.3832 128.946 31.7377 129.009C31.073 129.073 30.4024 128.989 29.7735 128.765C29.1014 128.555 28.5048 128.154 28.0564 127.611C27.825 127.319 27.6857 126.965 27.656 126.594C27.6373 126.401 27.6612 126.207 27.7261 126.024C27.7909 125.841 27.8951 125.675 28.0313 125.537C28.1804 125.394 28.3755 125.309 28.5818 125.296C28.7857 125.291 28.9865 125.347 29.1573 125.459C29.4874 125.675 29.7198 126.012 29.8048 126.397C29.8784 126.773 29.8531 127.162 29.7314 127.526C29.6097 127.889 29.3957 128.215 29.1104 128.471C28.5514 128.943 27.8571 129.225 27.1274 129.278C26.4358 129.357 25.7351 129.288 25.0725 129.075C24.422 128.87 23.867 128.438 23.5086 127.858C23.3304 127.583 23.22 127.269 23.1863 126.943C23.1526 126.617 23.1966 126.287 23.3147 125.981C23.3732 125.828 23.4696 125.692 23.5948 125.586C23.72 125.48 23.8701 125.407 24.031 125.374C24.1857 125.347 24.3445 125.351 24.4974 125.388C24.6502 125.424 24.7939 125.492 24.9192 125.587C25.1388 125.78 25.2959 126.034 25.3705 126.316C25.4452 126.599 25.434 126.897 25.3384 127.173C25.1671 127.666 24.859 128.1 24.4501 128.424C23.7727 128.998 22.9226 129.328 22.0355 129.362C21.4955 129.382 20.9576 129.287 20.4565 129.085C19.9554 128.883 19.5023 128.578 19.1267 128.189C19.0515 128.112 18.9805 128.031 18.914 127.945C18.8905 127.917 18.8696 127.887 18.8514 127.855C19.2232 128.265 19.6675 128.603 20.162 128.853C20.7446 129.139 21.3903 129.272 22.0386 129.24C22.8944 129.192 23.7103 128.862 24.3594 128.302C24.7404 127.993 25.0266 127.584 25.1851 127.12C25.2679 126.878 25.2774 126.617 25.2123 126.37C25.1472 126.123 25.0104 125.901 24.8191 125.731C24.7141 125.653 24.5941 125.597 24.4666 125.567C24.3391 125.537 24.2069 125.533 24.0779 125.556C23.9471 125.583 23.8255 125.643 23.7247 125.731C23.6239 125.818 23.5473 125.931 23.5024 126.056C23.3995 126.333 23.3632 126.629 23.3964 126.922C23.4295 127.215 23.5312 127.496 23.6932 127.742C24.029 128.278 24.5463 128.676 25.1507 128.862C25.7847 129.063 26.4543 129.127 27.1149 129.05C27.7978 128.999 28.4475 128.735 28.9728 128.296C29.2304 128.064 29.4235 127.769 29.5331 127.44C29.6428 127.111 29.6652 126.759 29.5983 126.419C29.5278 126.088 29.3316 125.798 29.051 125.609C28.9244 125.515 28.769 125.469 28.6118 125.478C28.4547 125.487 28.3057 125.551 28.1908 125.659C28.0771 125.774 27.9901 125.913 27.9361 126.065C27.882 126.218 27.8622 126.38 27.8781 126.541C27.9044 126.87 28.0274 127.183 28.2315 127.442C28.6531 127.951 29.2123 128.328 29.8423 128.527C30.4428 128.743 31.0833 128.826 31.7189 128.768C32.3139 128.711 32.8686 128.442 33.2828 128.011C33.4802 127.814 33.6329 127.576 33.7306 127.314C33.8282 127.052 33.8686 126.773 33.8489 126.494C33.8383 126.241 33.7423 125.999 33.5764 125.808C33.4105 125.616 33.1846 125.487 32.9356 125.44C32.8197 125.436 32.7045 125.459 32.5987 125.507C32.493 125.555 32.3996 125.626 32.3257 125.715C32.1732 125.893 32.0725 126.11 32.0348 126.341C31.9708 126.779 32.0723 127.225 32.3194 127.592C32.5363 127.926 32.8316 128.202 33.1796 128.396C33.7574 128.692 34.415 128.797 35.0562 128.693C35.462 128.637 35.8606 128.538 36.2448 128.396C36.5075 128.33 36.642 128.271 36.6451 128.28Z" fill="#FAFAFA"/>
<path d="M20.3844 116.727V124.891H36.4203V116.727H20.3844Z" fill="#EBEBEB"/>
<path d="M23.048 117.011C23.1074 117.011 23.1574 118.778 23.1574 120.961C23.1574 123.144 23.1074 124.911 23.048 124.911C22.9885 124.911 22.9354 123.144 22.9354 120.961C22.9354 118.778 22.9854 117.011 23.048 117.011Z" fill="#E0E0E0"/>
<path d="M24.2671 116.905C24.3266 116.905 24.3766 118.654 24.3766 120.806C24.3766 122.957 24.3266 124.706 24.2671 124.706C24.2077 124.706 24.1545 122.961 24.1545 120.806C24.1545 118.651 24.2046 116.905 24.2671 116.905Z" fill="#E0E0E0"/>
<path d="M34.6113 116.655C34.6707 116.655 34.7208 118.494 34.7208 120.765C34.7208 123.036 34.6707 124.872 34.6113 124.872C34.5519 124.872 34.4987 123.033 34.4987 120.765C34.4987 118.498 34.5488 116.655 34.6113 116.655Z" fill="#E0E0E0"/>
<path d="M33.1812 116.754C33.2406 116.754 33.2907 118.543 33.2907 120.754C33.2907 122.966 33.2406 124.755 33.1812 124.755C33.1218 124.755 33.0686 122.966 33.0686 120.754C33.0686 118.543 33.1186 116.754 33.1812 116.754Z" fill="#E0E0E0"/>
<path d="M119.502 98.9094C121.166 98.0493 123.121 97.9398 124.97 98.2432C125.961 98.409 126.993 98.703 127.669 99.4505C128.344 100.198 128.47 101.505 127.697 102.144C127.234 102.525 126.593 102.585 125.992 102.575C124.547 102.56 122.946 102.306 121.792 103.176C121.132 103.67 120.694 104.496 119.915 104.74C119.136 104.984 118.276 104.524 117.87 103.829C117.494 103.105 117.411 102.264 117.638 101.48C117.73 100.937 117.946 100.423 118.27 99.977C118.593 99.5311 119.015 99.1658 119.502 98.9094Z" fill="#EBEBEB"/>
<path d="M115.695 91.5557C116.712 93.007 118.689 92.5253 119.605 91.6402C120.521 90.755 120.909 89.4695 121.26 88.2435C122.067 85.4472 122.877 82.5103 122.279 79.6609C122.136 78.7966 121.756 77.9889 121.181 77.3276C120.891 77.0015 120.52 76.7572 120.106 76.619C119.691 76.4807 119.248 76.4532 118.82 76.5394C117.825 76.8052 117.206 77.7905 116.759 78.7069C115.441 81.4481 114.75 84.4482 114.735 87.4897C114.735 88.9034 114.898 90.386 115.695 91.5557Z" fill="#EBEBEB"/>
<path d="M112.912 93.6387C114.017 92.3282 114.226 90.4171 113.735 88.7782C113.244 87.1392 112.134 85.738 110.854 84.5995C109.349 83.2595 107.597 82.2258 105.697 81.5562C104.961 81.2601 104.171 81.1257 103.379 81.1621C102.983 81.185 102.599 81.3044 102.26 81.51C101.921 81.7155 101.637 82.0009 101.434 82.3412C100.889 83.3765 101.412 84.6308 101.975 85.6567C102.967 87.4603 104.099 89.1837 105.359 90.8112C106.376 92.1217 107.548 93.4135 109.084 94.0046C110.62 94.5958 112.24 94.5238 113.059 93.451" fill="#EBEBEB"/>
<path d="M115.626 113.457C115.679 113.241 115.711 113.02 115.72 112.797C115.767 112.318 115.823 111.715 115.895 110.998C115.984 110.111 116.119 109.229 116.298 108.355C116.534 107.289 116.855 106.243 117.258 105.228C117.655 104.22 118.191 103.272 118.85 102.413C119.388 101.712 120.075 101.141 120.862 100.739C121.396 100.477 121.968 100.299 122.557 100.211C122.779 100.204 122.999 100.172 123.214 100.117C122.991 100.093 122.767 100.093 122.544 100.117C121.933 100.164 121.334 100.319 120.777 100.577C119.95 100.968 119.224 101.545 118.657 102.263C117.967 103.135 117.41 104.105 117.005 105.14C116.601 106.167 116.287 107.227 116.067 108.309C115.896 109.192 115.778 110.085 115.713 110.983C115.657 111.746 115.635 112.365 115.626 112.794C115.602 113.014 115.602 113.236 115.626 113.457Z" fill="#E0E0E0"/>
<path d="M115.752 112.07C115.77 111.967 115.777 111.862 115.77 111.757C115.77 111.529 115.77 111.238 115.77 110.882C115.77 110.125 115.77 109.024 115.808 107.666C115.877 104.951 116.121 102.036 116.562 97.9077C116.99 94.0355 117.563 89.5253 118.169 86.5946C118.298 85.9284 118.429 85.3279 118.554 84.8024C118.679 84.2769 118.77 83.8234 118.867 83.4575C118.964 83.0915 119.017 82.8319 119.07 82.6067C119.098 82.5044 119.117 82.3997 119.126 82.2939C119.079 82.3849 119.043 82.4816 119.02 82.5817C118.951 82.8006 118.867 83.079 118.764 83.4199C118.66 83.7609 118.535 84.2331 118.404 84.7586C118.273 85.2841 118.122 85.8815 117.982 86.5477C117.23 90.0138 116.665 93.5178 116.29 97.0444C115.839 101.173 115.636 104.933 115.617 107.654C115.601 109.014 115.617 110.115 115.664 110.875C115.686 111.232 115.705 111.523 115.717 111.751C115.715 111.859 115.727 111.966 115.752 112.07Z" fill="#E0E0E0"/>
<path d="M115.768 104.819C115.792 104.515 115.792 104.21 115.768 103.906C115.734 103.318 115.652 102.467 115.487 101.429C115.287 100.211 115.019 99.0063 114.683 97.8193C114.288 96.3589 113.783 94.9306 113.172 93.5468C112.126 90.9961 110.624 88.657 108.74 86.6439C108.412 86.3 108.063 85.9762 107.695 85.6743C107.536 85.5398 107.383 85.4053 107.251 85.2989L106.848 85.0205C106.604 84.8348 106.346 84.6695 106.075 84.5264C106.031 84.5858 107.167 85.252 108.599 86.7784C110.421 88.8092 111.883 91.1363 112.922 93.6594C113.519 95.0336 114.024 96.4464 114.433 97.8881C114.83 99.2143 115.092 100.434 115.293 101.46C115.493 102.486 115.59 103.337 115.655 103.915C115.669 104.219 115.706 104.521 115.768 104.819Z" fill="#E0E0E0"/>
<path d="M108.273 116.509L109.002 126.461H121.785L122.514 116.509H108.273Z" fill="#EBEBEB"/>
<path d="M124.039 112.587H107.04V116.509H124.039V112.587Z" fill="#EBEBEB"/>
<path d="M107.04 126.08V127.169H107.841H123.761V126.08H107.04Z" fill="#E0E0E0"/>
<path d="M108.622 128.96L107.84 127.049H123.15L122.237 128.96H108.622Z" fill="#E0E0E0"/>
<path d="M122.276 119.763C122.26 119.796 122.24 119.826 122.217 119.854C122.163 119.923 122.101 120.004 122.026 120.107L121.278 121.061L121.247 121.105L121.216 121.058C120.746 120.411 120.121 119.547 119.386 118.528H119.48L117.678 121.08L117.622 121.158L117.559 121.083L115.432 118.534H115.554L115.439 118.681L113.537 121.083L113.471 121.164L113.415 121.08C112.765 120.163 112.164 119.303 111.61 118.531H111.717L109.496 121.061L109.458 121.105L109.427 121.055L108.733 119.888C108.658 119.76 108.602 119.657 108.555 119.575C108.531 119.541 108.513 119.505 108.498 119.466C108.527 119.495 108.552 119.528 108.573 119.563L108.77 119.876L109.499 121.024H109.43L111.62 118.462L111.673 118.399L111.723 118.468L113.543 121.008H113.418L115.326 118.609L115.442 118.459L115.504 118.384L115.567 118.459L117.697 121.005H117.578L119.398 118.465L119.452 118.39L119.502 118.465L121.294 121.024H121.228C121.557 120.63 121.813 120.32 122.004 120.085L122.21 119.844C122.248 119.785 122.273 119.76 122.276 119.763Z" fill="#F5F5F5"/>
<path d="M122.691 116.442C122.691 116.486 119.485 116.521 115.535 116.521C111.585 116.521 108.379 116.486 108.379 116.442C108.379 116.399 111.582 116.364 115.535 116.364C119.489 116.364 122.691 116.399 122.691 116.442Z" fill="#F5F5F5"/>
<path d="M49.7966 12.7644C49.7966 12.7644 49.7684 12.7644 49.7215 12.7425L49.5151 12.6612L48.7269 12.3327L45.8338 11.0816L36.3255 6.94049L35.9939 6.79349H36.0627L26.7452 10.7939L23.9303 11.9762L23.1608 12.289C23.0732 12.3292 22.9821 12.3617 22.8887 12.3859C22.9718 12.3364 23.0586 12.2935 23.1483 12.2577L23.9052 11.9136L26.7202 10.6782L36.0158 6.64648H36.0502H36.0846L36.4162 6.79036L45.9057 10.9816L48.7738 12.2671L49.5495 12.6268L49.7497 12.7237C49.7668 12.7354 49.7826 12.749 49.7966 12.7644Z" fill="#E0E0E0"/>
<path d="M64.6301 11.3994H3.54871V57.1366H64.6301V11.3994Z" fill="#E0E0E0"/>
<path d="M62.7253 13.5273H5.68494V55.2579H62.7253V13.5273Z" fill="#FAFAFA"/>
<path d="M18.2821 31.7598C18.2821 31.7598 18.3415 38.7628 18.6981 40.9022L27.4839 40.4862C27.4839 40.4862 26.7145 33.6051 27.0116 31.7598H18.2821Z" fill="#E0E0E0"/>
<path d="M22.6138 32.7481H22.742C22.8643 32.7435 22.9867 32.7498 23.1079 32.7668C23.3004 32.7954 23.4879 32.8512 23.6647 32.9326C23.8987 33.0485 24.1055 33.2127 24.2715 33.4143C24.4755 33.6594 24.62 33.9485 24.6937 34.2588C24.7624 34.6221 24.7311 34.9972 24.603 35.3441C24.5375 35.5327 24.4548 35.7149 24.3559 35.8883C24.2509 36.0648 24.1569 36.2476 24.0744 36.4357C23.8992 36.8346 23.7793 37.2555 23.7178 37.6868V37.7149H23.6897H22.8233H21.9131H21.8787V37.6837C21.8397 37.2545 21.6946 36.8418 21.4565 36.4826C21.3502 36.3012 21.2344 36.1354 21.1437 35.9634C21.0302 35.8015 20.9258 35.6334 20.8309 35.4598C20.6705 35.1276 20.6222 34.7522 20.6933 34.3901C20.7444 34.0776 20.8605 33.7792 21.0343 33.5144C21.1826 33.3015 21.3772 33.1251 21.6035 32.9983C21.8829 32.8501 22.1892 32.7597 22.5043 32.7324H22.6294C22.6294 32.7324 22.6294 32.7324 22.5981 32.7324H22.5043C22.3849 32.7465 22.2668 32.7695 22.1509 32.8012C21.9659 32.8495 21.7882 32.9221 21.6223 33.017C21.401 33.1421 21.2115 33.3166 21.0687 33.5269C20.9071 33.7894 20.8007 34.082 20.7559 34.387C20.6876 34.7379 20.736 35.1014 20.8935 35.4223C20.9893 35.5933 21.0937 35.7592 21.2063 35.9196C21.3157 36.0854 21.4315 36.2574 21.5378 36.4388C21.7847 36.8062 21.9343 37.2302 21.9726 37.6712L21.9382 37.6367H22.8483H23.7178L23.6834 37.668C23.746 37.2312 23.868 36.805 24.0463 36.4013C24.1321 36.2117 24.2282 36.0269 24.334 35.8477C24.4311 35.6781 24.5128 35.5002 24.578 35.316C24.7046 34.9797 24.7381 34.6156 24.6749 34.2619C24.6036 33.9591 24.4658 33.676 24.2715 33.433C24.1101 33.2339 23.9087 33.0708 23.6803 32.9545C23.5072 32.8708 23.3228 32.8128 23.133 32.7825C23.0139 32.7642 22.8937 32.7538 22.7733 32.7512H22.6763C22.6263 32.7512 22.6138 32.7512 22.6138 32.7481Z" fill="white"/>
<path d="M23.0628 37.63C23.0622 37.6206 23.0622 37.6112 23.0628 37.6019V37.5205C23.0628 37.4486 23.0347 37.3423 23.0159 37.2078C22.9753 36.9325 22.9158 36.5384 22.8783 36.0474C22.8783 35.9254 22.8595 35.7971 22.8564 35.6627C22.8485 35.522 22.8485 35.381 22.8564 35.2404C22.8598 35.0895 22.8927 34.9407 22.9534 34.8025C23.021 34.6532 23.1412 34.5341 23.2912 34.4678C23.371 34.4343 23.459 34.425 23.5441 34.4411C23.6292 34.4573 23.7077 34.4981 23.7697 34.5586C23.8027 34.5891 23.8288 34.6265 23.8461 34.668C23.8633 34.7096 23.8714 34.7544 23.8698 34.7994C23.868 34.89 23.8373 34.9777 23.7822 35.0496C23.7257 35.1227 23.6528 35.1816 23.5695 35.2216C23.4869 35.2605 23.3997 35.2889 23.3099 35.3061C22.9435 35.381 22.5671 35.3937 22.1965 35.3436C22.1048 35.3311 22.0153 35.3059 21.9306 35.2686C21.848 35.2314 21.7736 35.1783 21.7117 35.1122C21.6482 35.046 21.6039 34.9638 21.5834 34.8745C21.5638 34.7869 21.5748 34.6952 21.6147 34.6149C21.6509 34.5339 21.717 34.47 21.7992 34.4366C21.8383 34.4198 21.8803 34.4111 21.9228 34.4111C21.9653 34.4111 22.0073 34.4198 22.0463 34.4366C22.1218 34.4708 22.1867 34.5249 22.234 34.593C22.2781 34.6598 22.3098 34.7339 22.3278 34.8119C22.3543 34.9606 22.369 35.1112 22.3716 35.2623L22.4154 36.0661C22.4373 36.5572 22.4592 36.9544 22.4717 37.2328C22.4717 37.3673 22.4717 37.4736 22.4717 37.5456V37.655C22.4724 37.6457 22.4724 37.6363 22.4717 37.6269C22.4717 37.6081 22.4717 37.58 22.4717 37.5456C22.4717 37.5112 22.4717 37.3642 22.4529 37.2328C22.4529 36.9544 22.4123 36.5572 22.3841 36.0661C22.3841 35.8222 22.356 35.5532 22.3403 35.2623C22.3383 35.1131 22.3226 34.9645 22.2934 34.8182C22.2781 34.7433 22.2484 34.6721 22.2058 34.6086C22.1594 34.5449 22.0982 34.4934 22.0276 34.4585C21.9915 34.4431 21.9526 34.4351 21.9134 34.4351C21.8742 34.4351 21.8353 34.4431 21.7992 34.4585C21.7231 34.4902 21.6617 34.5493 21.6272 34.6242C21.5912 34.7002 21.5813 34.786 21.5991 34.8682C21.6201 34.9514 21.6621 35.0279 21.721 35.0903C21.848 35.2155 22.0131 35.2947 22.1902 35.3155C22.3737 35.3395 22.5589 35.3479 22.7438 35.3405C22.9288 35.3356 23.113 35.3147 23.2943 35.2779C23.3821 35.2612 23.4673 35.2328 23.5476 35.1935C23.6269 35.1554 23.6964 35.0998 23.7509 35.0308C23.8026 34.9632 23.8321 34.8813 23.8354 34.7963C23.8352 34.7549 23.8268 34.7139 23.8107 34.6758C23.7946 34.6377 23.7711 34.6032 23.7416 34.5742C23.6827 34.5181 23.609 34.48 23.5292 34.4645C23.4494 34.4489 23.3668 34.4566 23.2912 34.4866C23.1523 34.5493 23.0411 34.6605 22.9784 34.7994C22.9189 34.9358 22.886 35.0823 22.8814 35.231C22.8814 35.3749 22.8814 35.5125 22.8814 35.647C22.8814 35.7815 22.8814 35.9097 22.9033 36.0349C22.9409 36.5259 22.9972 36.92 23.0316 37.1921C23.0503 37.3297 23.066 37.433 23.0754 37.5049V37.5862C23.0729 37.6013 23.0687 37.616 23.0628 37.63Z" fill="white"/>
<path d="M21.8961 37.6772C21.9104 37.7736 21.9187 37.8707 21.9211 37.9681C21.9211 38.1766 21.9336 38.43 21.9587 38.7281V38.7094L22.5529 39.4006H22.5217L23.2066 39.3631H23.1785L23.5163 38.9502L23.6883 38.7406V38.7688C23.6883 38.3653 23.6695 37.9869 23.6633 37.6428L23.7008 37.6772H22.4216H21.8961C21.9366 37.6714 21.9776 37.6714 22.0181 37.6772L22.3778 37.6584L23.6789 37.6084H23.7165V37.6459C23.7165 37.9931 23.7384 38.3716 23.7509 38.7719V38.7751C23.6946 38.8439 23.6383 38.9158 23.5788 38.9846L23.2379 39.4006H23.2191L22.5342 39.435H22.5217L21.9399 38.7438C21.9399 38.431 21.9399 38.1808 21.9399 37.9618C21.9197 37.8679 21.9051 37.7729 21.8961 37.6772Z" fill="white"/>
<path d="M23.6722 38.6644C23.6722 38.6644 23.6472 38.6644 23.6065 38.6362C23.5483 38.6102 23.4888 38.5872 23.4282 38.5674C23.2274 38.4973 23.0152 38.4655 22.8027 38.4736C22.5878 38.4783 22.3757 38.5228 22.1771 38.6049L22.0051 38.6863L21.9426 38.7175C21.9587 38.7007 21.9778 38.6869 21.9989 38.6769C22.0543 38.6432 22.1118 38.6129 22.1709 38.5862C22.3681 38.4986 22.5807 38.4508 22.7964 38.4454C23.0098 38.4375 23.2225 38.4726 23.422 38.5486C23.4823 38.5702 23.5408 38.5963 23.5971 38.6268L23.6722 38.6644Z" fill="white"/>
<path d="M23.669 38.3934L23.6064 38.3653L23.4281 38.2933C23.2268 38.2251 23.015 38.1933 22.8026 38.1995C22.5881 38.2072 22.3765 38.2516 22.177 38.3308C22.102 38.3621 22.0457 38.3903 22.005 38.4122L21.9424 38.4434L21.9987 38.4028C22.0537 38.3691 22.1112 38.3398 22.1708 38.3152C22.3678 38.2265 22.5804 38.1776 22.7963 38.1713C23.0094 38.1665 23.2216 38.2015 23.4219 38.2745C23.4969 38.3058 23.5564 38.334 23.597 38.3559C23.6377 38.3778 23.6721 38.3903 23.669 38.3934Z" fill="white"/>
<path d="M23.655 38.1305L23.5924 38.1054C23.5486 38.0867 23.4892 38.0585 23.4141 38.0335C23.2128 37.9654 23.001 37.9336 22.7886 37.9397C22.5737 37.9439 22.3615 37.9885 22.163 38.071C22.088 38.1023 22.0317 38.1305 21.991 38.1524L21.9285 38.1836L21.9848 38.143C22.0398 38.1086 22.0973 38.0783 22.1568 38.0523C22.3546 37.9663 22.5668 37.9185 22.7823 37.9115C22.9954 37.907 23.2075 37.942 23.4079 38.0147C23.4681 38.0377 23.5266 38.0649 23.583 38.0961C23.6091 38.1027 23.6335 38.1144 23.655 38.1305Z" fill="white"/>
<path d="M8.49872 20.3213C8.49872 20.3213 8.55815 27.3275 8.91471 29.4637L17.7005 29.0477C17.7005 29.0477 16.928 22.1667 17.2251 20.3213H8.49872Z" fill="#EBEBEB"/>
<path d="M15.9023 23.2485C14.9271 23.3928 13.9444 23.4806 12.9591 23.5112C11.9767 23.6018 10.9896 23.6321 10.0034 23.6019C10.9788 23.4594 11.9614 23.3717 12.9466 23.3392C13.9293 23.2524 14.9162 23.2221 15.9023 23.2485Z" fill="white"/>
<path d="M15.9035 24.7296C14.9286 24.8765 13.9458 24.9653 12.9603 24.9955C11.9787 25.0823 10.9929 25.1126 10.0078 25.0862C10.9829 24.9416 11.9656 24.8539 12.9509 24.8235C13.9325 24.7348 14.9183 24.7035 15.9035 24.7296Z" fill="white"/>
<path d="M14.4117 26.1882C13.8607 26.3071 13.299 26.37 12.7353 26.3759C12.1758 26.4328 11.612 26.4328 11.0526 26.3759C11.6026 26.2572 12.1632 26.1943 12.7259 26.1882C13.2864 26.1313 13.8512 26.1313 14.4117 26.1882Z" fill="white"/>
<path d="M8.08398 40.918C8.08398 40.918 8.14341 47.921 8.49997 50.0604L17.2858 49.6444C17.2858 49.6444 16.5132 42.7633 16.8104 40.918H8.08398Z" fill="#EBEBEB"/>
<path d="M15.4871 43.8576C14.5121 44.004 13.5293 44.0928 12.5439 44.1234C11.5622 44.2102 10.5764 44.2405 9.59131 44.2141C10.5654 44.0695 11.5471 43.9817 12.5314 43.9514C13.5139 43.8627 14.5009 43.8314 15.4871 43.8576Z" fill="white"/>
<path d="M15.4887 45.3432C14.5136 45.488 13.5309 45.5757 12.5455 45.6059C11.5639 45.6928 10.5781 45.723 9.59296 45.6966C10.5681 45.5521 11.5508 45.4643 12.5361 45.4339C13.5178 45.3471 14.5036 45.3168 15.4887 45.3432Z" fill="white"/>
<path d="M13.9969 46.8011C13.4469 46.9197 12.8862 46.9815 12.3235 46.9857C11.7636 47.0479 11.1987 47.0531 10.6377 47.0013C11.1877 46.8826 11.7484 46.8197 12.311 46.8137C12.8711 46.7515 13.436 46.7473 13.9969 46.8011Z" fill="white"/>
<path d="M32.0967 22.1631L32.9662 42.3684L58.1883 42.6718L57.056 22.4289L32.0967 22.1631Z" fill="#EBEBEB"/>
<path d="M56.8594 22.0195H31.8032V40.9393H56.8594V22.0195Z" fill="#F5F5F5"/>
<path d="M56.8601 40.9404C56.8601 40.9404 56.8601 40.8184 56.8601 40.5869C56.8601 40.3555 56.8601 40.0177 56.8601 39.5798C56.8601 38.6915 56.8601 37.3904 56.8413 35.7514C56.8413 32.4516 56.8194 27.7319 56.8038 22.0206L56.8757 22.0894H31.8226L31.9102 22.0049C31.9102 28.8078 31.9102 35.251 31.9102 40.9247L31.832 40.8465L49.904 40.8841L55.046 40.906H56.4128H56.7662H56.8882H56.4285L55.0523 40.9654L49.9322 40.9873L31.7913 41.0248H31.7131V40.9498C31.7131 35.276 31.7131 28.8328 31.7131 22.03V21.9424H31.8007H56.8538H56.9289V22.0143C56.9289 27.7412 56.9007 32.4798 56.8914 35.7764C56.8914 37.4185 56.8914 38.704 56.8726 39.5892C56.8726 40.0208 56.8726 40.3524 56.8726 40.5838C56.8663 40.8278 56.8601 40.9404 56.8601 40.9404Z" fill="#E0E0E0"/>
<path d="M44.9795 26.0264H34.8238V38.8095H44.9795V26.0264Z" fill="#F5F5F5"/>
<path d="M44.9818 38.8096C44.9784 38.7879 44.9784 38.7657 44.9818 38.744V38.5625C44.9818 38.3936 44.9818 38.1622 44.9818 37.8651C44.9818 37.2395 44.9818 36.3606 44.9631 35.2409C44.9631 32.992 44.9381 29.808 44.9224 26.0265L45.0006 26.1047H34.8449C34.823 26.1047 35.0075 25.942 34.9293 26.0202V29.4952C34.9293 30.6306 34.9293 31.7378 34.9293 32.8106C34.9293 34.9594 34.9293 36.9705 34.9293 38.7971L34.8605 38.7252L42.2138 38.7627L44.275 38.7815H44.8223H45.0163C44.9569 38.7858 44.8973 38.7858 44.838 38.7815H44.3063L42.2576 38.8003L34.8605 38.8378H34.7886V38.7658C34.7886 36.9392 34.7886 34.9281 34.7886 32.7793C34.7886 31.7065 34.7886 30.5899 34.7886 29.4639V26.0328C34.7104 26.1078 34.8918 25.9233 34.8762 25.9452H45.0319H45.1101V26.0234C45.0944 29.8236 45.0788 33.0264 45.0694 35.2878L45.0507 37.8932C45.0507 38.1851 45.0507 38.4135 45.0507 38.5782C45.0507 38.647 45.0507 38.7033 45.0507 38.7502C45.0302 38.7727 45.0071 38.7926 44.9818 38.8096Z" fill="#E0E0E0"/>
<path d="M54.6786 23.1016H35.2147V24.9438H54.6786V23.1016Z" fill="#F5F5F5"/>
<path d="M54.6798 24.943C54.6798 24.943 54.6798 24.896 54.6798 24.8178C54.6798 24.7397 54.6798 24.6083 54.6798 24.4582C54.6798 24.1454 54.6798 23.6856 54.6579 23.1007L54.6923 23.1351C51.4114 23.1664 43.9298 23.1883 35.2285 23.1883C35.4005 23.0131 35.2754 23.1382 35.3161 23.1007V24.9367L35.2316 24.8491L49.028 24.8867L53.1691 24.9117H54.2951H54.5923C54.6266 24.9091 54.6611 24.9091 54.6955 24.9117H54.6048H54.3201H53.2129L49.0906 24.9398L35.2316 24.9742H35.1472V24.8898C35.1472 24.5958 35.1472 24.2924 35.1472 23.9859V23.0475L35.2347 22.96C43.9361 22.96 51.4176 22.9819 54.6986 23.0131H54.7361V23.0475C54.7361 23.6387 54.7361 24.1016 54.7174 24.4269C54.7174 24.5739 54.7174 24.6865 54.7174 24.7741C54.7148 24.8321 54.7021 24.8893 54.6798 24.943Z" fill="#E0E0E0"/>
<path d="M54.6798 26.0264H46.2256V33.73H54.6798V26.0264Z" fill="#F5F5F5"/>
<path d="M54.6771 33.7298C54.6771 33.7298 54.6771 33.6766 54.6771 33.5828V33.1636C54.6771 32.7883 54.6771 32.2597 54.6584 31.5998C54.6584 30.2423 54.6365 28.3313 54.6208 26.0323L54.6928 26.1074H46.2479L46.3323 26.023V28.0904C46.3323 28.766 46.3323 29.4291 46.3323 30.0765C46.3323 31.3683 46.3323 32.5787 46.3323 33.7235L46.2541 33.6484L52.3532 33.686L54.0829 33.7079H54.5458C54.5999 33.7033 54.6543 33.7033 54.7084 33.7079C54.6595 33.7124 54.6103 33.7124 54.5614 33.7079H54.1141L52.4033 33.7266L46.2541 33.7642H46.1791V33.686C46.1791 32.5568 46.1791 31.3308 46.1791 30.039C46.1791 29.3916 46.1791 28.7285 46.1791 28.0529V25.9854C46.1009 26.0605 46.2823 25.8791 46.2667 25.8979H54.7115H54.7866V25.9698C54.771 28.2875 54.7584 30.2173 54.7491 31.5998C54.7491 32.2566 54.7334 32.7789 54.7303 33.1636C54.7303 33.3284 54.7303 33.4629 54.7303 33.5671C54.7201 33.6235 54.7022 33.6782 54.6771 33.7298Z" fill="#E0E0E0"/>
<path d="M54.6798 34.9365H46.2256V38.8087H54.6798V34.9365Z" fill="#F5F5F5"/>
<path d="M54.6788 38.8091C54.6788 38.8091 54.6788 38.709 54.6788 38.5276L54.6632 37.7519C54.6632 37.0669 54.6444 36.1129 54.6288 34.9369L54.6913 34.9994L46.2465 35.0245C46.1683 35.1027 46.3497 34.9181 46.3309 34.94V36.9324C46.3309 37.5798 46.3309 38.2085 46.3309 38.8091L46.2465 38.7277L52.2923 38.7653L54.0564 38.7903H54.5318H54.7007C54.6508 38.7949 54.6005 38.7949 54.5506 38.7903H54.0908L52.3487 38.8153L46.2465 38.8528H46.1651V38.7715C46.1651 38.171 46.1651 37.5423 46.1651 36.8949V34.9025C46.1464 34.9025 46.3278 34.7367 46.2527 34.8149L54.6976 34.8368H54.7382V34.8994C54.7382 36.091 54.7132 37.0606 54.707 37.7519C54.707 38.0646 54.707 38.3242 54.707 38.515C54.7071 38.6137 54.6977 38.7122 54.6788 38.8091Z" fill="#E0E0E0"/>
<path d="M44.7293 26.0488C41.5828 30.3933 37.9672 34.4656 34.8238 38.8101L44.7293 26.0488Z" fill="white"/>
<path d="M34.8237 38.8073C34.8237 38.8073 34.8456 38.7541 34.9051 38.6634L35.1709 38.2756C35.4024 37.9378 35.7495 37.4592 36.1874 36.8743C37.0601 35.6983 38.308 34.1094 39.7092 32.3735C41.1105 30.6376 42.3709 29.0612 43.2655 27.9071L44.3258 26.5402L44.6167 26.168C44.6855 26.0867 44.723 26.0429 44.7292 26.0461C44.7066 26.097 44.6783 26.1453 44.6448 26.1899L44.3789 26.5778C44.1475 26.9156 43.8003 27.3941 43.3624 27.9821C42.4898 29.155 41.2418 30.7439 39.8406 32.4799C38.4394 34.2158 37.182 35.7921 36.2844 36.9463L35.2241 38.3162L34.9332 38.6853C34.9016 38.7301 34.8648 38.771 34.8237 38.8073Z" fill="#E0E0E0"/>
<path d="M44.9823 38.8098C44.9448 38.8379 42.6397 35.9948 39.8372 32.4729C37.0348 28.9511 34.7891 26.0579 34.8328 26.0266C34.8766 25.9953 37.1724 28.8416 39.978 32.3666C42.7835 35.8916 45.0199 38.7754 44.9823 38.8098Z" fill="#E0E0E0"/>
<path d="M32.9656 26.0518C32.9656 26.366 32.8724 26.6732 32.6978 26.9345C32.5232 27.1958 32.275 27.3995 31.9847 27.5197C31.6944 27.64 31.3749 27.6715 31.0667 27.6102C30.7585 27.5489 30.4754 27.3975 30.2532 27.1753C30.0309 26.9531 29.8796 26.67 29.8183 26.3618C29.757 26.0536 29.7885 25.7341 29.9087 25.4437C30.029 25.1534 30.2326 24.9053 30.4939 24.7307C30.7552 24.5561 31.0624 24.4629 31.3767 24.4629C31.7978 24.4637 32.2015 24.6314 32.4993 24.9292C32.7971 25.227 32.9647 25.6306 32.9656 26.0518Z" fill="#E0E0E0"/>
<path d="M58.9544 22.1973C58.9544 22.5116 58.8612 22.8188 58.6866 23.08C58.512 23.3413 58.2639 23.545 57.9735 23.6653C57.6832 23.7855 57.3637 23.817 57.0555 23.7557C56.7473 23.6944 56.4642 23.543 56.242 23.3208C56.0198 23.0986 55.8684 22.8155 55.8071 22.5073C55.7458 22.1991 55.7773 21.8796 55.8976 21.5893C56.0178 21.2989 56.2215 21.0508 56.4828 20.8762C56.744 20.7016 57.0512 20.6084 57.3655 20.6084C57.7866 20.6092 58.1903 20.7769 58.4881 21.0747C58.7859 21.3725 58.9536 21.7762 58.9544 22.1973Z" fill="#E0E0E0"/>
<path d="M121.108 33.2646H102.799V59.8068H121.108V33.2646Z" fill="#E0E0E0"/>
<path d="M120.19 33.2627H101.88V59.8048H120.19V33.2627Z" fill="#F5F5F5"/>
<path d="M117.918 36.1377H104.156V56.931H117.918V36.1377Z" fill="white"/>
<path d="M117.918 56.9309C117.918 56.9309 117.918 56.8934 117.918 56.8277C117.918 56.762 117.918 56.6619 117.918 56.5337C117.918 56.2709 117.918 55.8894 117.918 55.392C117.918 54.3974 117.918 52.943 117.918 51.1102C117.918 47.4444 117.918 42.2523 117.896 36.1376L117.943 36.1845H104.156L104.206 36.1345C104.206 43.9789 104.206 51.2102 104.206 56.9278L104.165 56.8871L114.174 56.909H116.942H117.667H117.921H117.677H116.957H114.199L104.159 56.9278H104.118V56.8902C104.118 51.1727 104.118 43.9413 104.118 36.0969V36.0469H104.156H117.918H117.961V36.0907C117.961 42.2179 117.946 47.4194 117.939 51.1039C117.939 52.9336 117.939 54.3818 117.939 55.3764C117.939 55.8675 117.939 56.2459 117.939 56.5055C117.939 56.6338 117.939 56.7276 117.939 56.7964L117.918 56.9309Z" fill="#E0E0E0"/>
<path d="M120.24 33.2627C120.152 33.4311 120.047 33.5904 119.927 33.7381C119.715 34.0227 119.411 34.4075 119.067 34.8266C118.723 35.2457 118.401 35.6148 118.163 35.8806C118.042 36.0295 117.907 36.1667 117.76 36.2904C117.864 36.129 117.981 35.9763 118.11 35.8337L118.992 34.764L119.871 33.6943C119.983 33.5416 120.107 33.3974 120.24 33.2627Z" fill="#E0E0E0"/>
<path d="M117.986 56.8623C118.669 57.951 119.474 58.9583 120.385 59.8649L117.986 56.8623Z" fill="white"/>
<path d="M120.385 59.8649C120.233 59.7535 120.093 59.6255 119.969 59.4834C119.649 59.1594 119.347 58.8191 119.062 58.4637C118.778 58.1083 118.512 57.7387 118.265 57.3565C118.154 57.2021 118.061 57.0365 117.986 56.8623C118.109 57.0055 118.222 57.157 118.324 57.3158C118.524 57.6005 118.809 57.9852 119.14 58.4012C119.472 58.8172 119.788 59.1768 120.019 59.4364C120.152 59.5695 120.275 59.7128 120.385 59.8649Z" fill="#E0E0E0"/>
<path d="M101.876 59.7821L104.275 56.8232L101.876 59.7821Z" fill="white"/>
<path d="M104.278 56.8232C104.297 56.8232 103.778 57.5176 103.118 58.3339C102.726 58.8384 102.309 59.3218 101.867 59.7821C102.614 58.7544 103.415 57.7668 104.266 56.8232H104.278Z" fill="#E0E0E0"/>
<path d="M101.88 33.2627C102.291 33.7068 102.68 34.1714 103.044 34.6545C103.432 35.119 103.795 35.6045 104.129 36.109C103.717 35.6627 103.329 35.195 102.966 34.7077C102.576 34.2473 102.214 33.7648 101.88 33.2627Z" fill="#E0E0E0"/>
<path d="M113.629 40.3604H109.021V53.4438H113.629V40.3604Z" fill="#E0E0E0"/>
<path d="M116.886 5.06004L114.265 5.07422L114.336 18.1168L116.957 18.1026L116.886 5.06004Z" fill="#E0E0E0"/>
<path d="M98.3473 5.09511L91.5602 5.13184L91.5991 12.3318L98.3862 12.2951L98.3473 5.09511Z" fill="#EBEBEB"/>
<path d="M105.098 5.06093L98.3114 5.09766L98.3504 12.2976L105.137 12.2609L105.098 5.06093Z" fill="#F5F5F5"/>
<path d="M91.572 7.12853C96.0822 7.16606 100.605 7.12853 105.115 7.06597C105.134 7.06597 105.152 7.05839 105.166 7.0449C105.179 7.03141 105.187 7.01311 105.187 6.99403C105.187 6.97495 105.179 6.95665 105.166 6.94316C105.152 6.92967 105.134 6.92209 105.115 6.92209C100.601 6.89707 96.0864 6.92418 91.572 7.00342C91.5554 7.00342 91.5395 7.01001 91.5278 7.02174C91.5161 7.03347 91.5095 7.04938 91.5095 7.06597C91.5095 7.08256 91.5161 7.09847 91.5278 7.1102C91.5395 7.12194 91.5554 7.12853 91.572 7.12853Z" fill="#E0E0E0"/>
<path d="M99.6597 12.1794L87.3272 12.2461L87.359 18.1137L99.6914 18.047L99.6597 12.1794Z" fill="#EBEBEB"/>
<path d="M111.936 12.112L99.6038 12.1787L99.6355 18.0463L111.968 17.9796L111.936 12.112Z" fill="#F5F5F5"/>
<path d="M87.3349 13.8803C95.5295 13.9742 103.749 13.8803 111.941 13.7583C111.96 13.7583 111.978 13.7508 111.992 13.7373C112.005 13.7238 112.013 13.7055 112.013 13.6864C112.013 13.6673 112.005 13.649 111.992 13.6355C111.978 13.622 111.96 13.6145 111.941 13.6145C103.746 13.5707 95.5264 13.5769 87.3349 13.7552C87.3183 13.7552 87.3024 13.7618 87.2907 13.7735C87.2789 13.7853 87.2723 13.8012 87.2723 13.8178C87.2723 13.8344 87.2789 13.8503 87.2907 13.862C87.3024 13.8737 87.3183 13.8803 87.3349 13.8803Z" fill="#E0E0E0"/>
<path d="M130.504 18.1162H82.7247V20.2181H130.504V18.1162Z" fill="#E0E0E0"/>
<path d="M92.484 19.126H90.5448V26.2979H92.484V19.126Z" fill="#E0E0E0"/>
<path d="M121.438 19.126H119.499V26.2979H121.438V19.126Z" fill="#E0E0E0"/>
<path d="M119.444 0.200663L116.823 0.214844L116.92 18.1523L119.541 18.1381L119.444 0.200663Z" fill="#EBEBEB"/>
<path d="M123.543 3.53656L119.471 3.55859L119.55 18.0962L123.622 18.0742L123.543 3.53656Z" fill="#F5F5F5"/>
<path d="M123.512 6.34204C122.158 6.43765 120.8 6.43765 119.446 6.34204C120.8 6.25057 122.158 6.25057 123.512 6.34204Z" fill="#E0E0E0"/>
<path d="M123.512 5.73168C122.158 5.8273 120.8 5.8273 119.446 5.73168C120.8 5.64022 122.158 5.64022 123.512 5.73168Z" fill="#E0E0E0"/>
<path d="M123.512 15.8909C122.158 15.9865 120.8 15.9865 119.446 15.8909C120.8 15.7994 122.158 15.7994 123.512 15.8909Z" fill="#E0E0E0"/>
<path d="M123.512 15.2825C122.158 15.3781 120.8 15.3781 119.446 15.2825C120.8 15.191 122.158 15.191 123.512 15.2825Z" fill="#E0E0E0"/>
<path d="M121.544 13.9499C121.504 13.9499 121.472 12.483 121.472 10.6752C121.472 8.86731 121.504 7.40039 121.544 7.40039C121.585 7.40039 121.613 8.86731 121.613 10.6752C121.613 12.483 121.582 13.9499 121.544 13.9499Z" fill="#E0E0E0"/>
<path d="M127.987 7.1123H123.555V18.0845H127.987V7.1123Z" fill="#EBEBEB"/>
<path d="M125.899 15.2414C125.767 15.2491 125.635 15.2288 125.512 15.1819C125.388 15.135 125.276 15.0625 125.182 14.9692C125.089 14.8759 125.016 14.7638 124.968 14.6404C124.921 14.517 124.9 14.385 124.908 14.253C124.901 14.1092 124.93 13.9659 124.993 13.8363C125.056 13.7067 125.15 13.5951 125.267 13.5117L125.368 13.6525C125.274 13.7211 125.198 13.8117 125.147 13.9164C125.096 14.0211 125.072 14.1367 125.077 14.253C125.077 14.4712 125.163 14.6804 125.318 14.8347C125.472 14.9889 125.681 15.0756 125.899 15.0756C126.117 15.0756 126.327 14.9889 126.481 14.8347C126.635 14.6804 126.722 14.4712 126.722 14.253C126.726 14.1364 126.702 14.0204 126.651 13.9156C126.599 13.8108 126.523 13.7203 126.428 13.6525L126.531 13.5117C126.647 13.5963 126.74 13.7082 126.803 13.8375C126.865 13.9669 126.894 14.1096 126.888 14.253C126.895 14.3847 126.874 14.5164 126.827 14.6396C126.78 14.7628 126.707 14.8747 126.614 14.9679C126.521 15.0612 126.409 15.1338 126.286 15.1809C126.163 15.228 126.031 15.2486 125.899 15.2414Z" fill="#FAFAFA"/>
<path d="M126.635 13.2398L126.488 13.1554C126.641 12.9531 126.724 12.7057 126.722 12.4516C126.722 12.0419 126.575 11.8761 126.356 11.8761C125.787 11.8761 126.206 13.171 125.44 13.171C125.146 13.171 124.905 12.9239 124.905 12.4298C124.901 12.1927 124.968 11.9598 125.096 11.7604L125.246 11.848C125.128 12.02 125.067 12.2244 125.071 12.4329C125.071 12.8145 125.227 12.9834 125.437 12.9834C126.022 12.9834 125.609 11.6885 126.353 11.6885C126.666 11.6885 126.885 11.9637 126.885 12.461C126.894 12.7418 126.806 13.0171 126.635 13.2398Z" fill="#FAFAFA"/>
<path d="M126.636 11.4527L126.489 11.3683C126.643 11.166 126.725 10.9186 126.724 10.6645C126.724 10.2548 126.577 10.089 126.358 10.089C125.788 10.089 126.208 11.3808 125.441 11.3808C125.147 11.3808 124.906 11.1368 124.906 10.6426C124.903 10.4056 124.969 10.1727 125.097 9.9733L125.247 10.0578C125.13 10.231 125.069 10.4364 125.072 10.6458C125.072 11.0274 125.229 11.1963 125.438 11.1963C126.023 11.1963 125.61 9.90137 126.355 9.90137C126.667 9.90137 126.886 10.1735 126.886 10.6708C126.896 10.9526 126.808 11.2291 126.636 11.4527Z" fill="#FAFAFA"/>
<path d="M118.094 4.02125C118.511 4.02125 118.848 3.68377 118.848 3.26746C118.848 2.85115 118.511 2.51367 118.094 2.51367C117.678 2.51367 117.341 2.85115 117.341 3.26746C117.341 3.68377 117.678 4.02125 118.094 4.02125Z" fill="#E0E0E0"/>
<path d="M118.324 5.33887H117.858V16.0108H118.324V5.33887Z" fill="#E0E0E0"/>
<path d="M136 129.477C136 129.521 105.789 129.558 68.5318 129.558C31.2743 129.558 1.05731 129.527 1.05731 129.477C1.05731 129.427 31.2618 129.396 68.5318 129.396C105.802 129.396 136 129.439 136 129.477Z" fill="#263238"/>
<path d="M37.5969 21.9553C32.5769 29.8497 32.9053 40.7969 38.3914 48.3754C42.0477 53.4299 47.5306 56.8204 51.8844 61.2806C56.2382 65.7407 59.5473 72.3247 57.2485 78.1235C54.9089 84.0256 48.0561 86.4246 42.9266 90.1654C37.2671 94.2874 33.425 100.442 32.2073 107.337C30.9895 114.232 32.4908 121.33 36.3959 127.142H89.6987C89.6987 127.142 99.0631 109.298 87.0244 95.6953C74.9858 82.0926 68.5208 81.8737 68.9649 72.9533C69.4091 64.033 75.652 61.1398 79.2208 57.7931C82.7895 54.4464 100.177 46.6489 89.9207 21.9521L37.5969 21.9553Z" fill="#FAFAFA"/>
<path d="M37.5952 21.9569H38.5116H41.2139H51.6168L89.919 21.9287H89.9596V21.9662C90.7447 23.8362 91.4133 25.753 91.9614 27.7057C92.5369 29.7501 92.916 31.8447 93.0936 33.9612C93.2781 36.1735 93.1645 38.4006 92.7558 40.5826C92.3069 42.8446 91.4935 45.0185 90.3475 47.0196C89.7536 48.0402 89.0823 49.0137 88.3395 49.9315C87.5812 50.8616 86.7609 51.7394 85.8842 52.5588C84.9963 53.3932 84.0661 54.1814 83.0974 54.9203C82.1278 55.6709 81.1144 56.3778 80.126 57.1285C79.6319 57.5007 79.1877 57.9198 78.706 58.3389C78.2244 58.758 77.7458 59.149 77.2516 59.5431C76.2664 60.3313 75.2718 61.107 74.3335 61.9796C72.3751 63.6771 70.8702 65.8356 69.9547 68.2602C69.5147 69.5037 69.2372 70.7989 69.1289 72.1136C69.1008 72.4263 69.057 72.7704 69.0445 73.1019C69.032 73.4335 69.0195 73.765 69.0445 74.0966C69.0516 74.7622 69.1186 75.4259 69.2447 76.0796C69.4927 77.4041 70.0334 78.6565 70.8273 79.7453C71.6443 80.8339 72.5696 81.8368 73.5891 82.7386C75.6127 84.5871 77.7615 86.3542 79.8164 88.2622C81.8713 90.1701 83.8824 92.1594 85.8216 94.2643C86.8111 95.3063 87.7365 96.4072 88.5928 97.561C89.4543 98.7292 90.2031 99.9765 90.8291 101.286C92.0949 103.941 92.8726 106.801 93.1249 109.731C93.38 112.702 93.2051 115.693 92.6057 118.614C92.3143 120.089 91.932 121.546 91.4609 122.974C90.9979 124.414 90.4335 125.82 89.772 127.181L89.7501 127.225H36.3503L36.3284 127.19C33.8288 123.427 32.2958 119.105 31.8652 114.607C31.4319 110.287 32.0655 105.927 33.7105 101.909C35.2739 98.0678 37.6812 94.6278 40.7542 91.8435C42.2454 90.5271 43.8558 89.3522 45.5646 88.3341C47.2286 87.3019 48.9082 86.3449 50.4939 85.3002C52.0812 84.308 53.5394 83.1229 54.8352 81.7721C56.0727 80.4455 56.9906 78.8536 57.5188 77.118C57.9818 75.4246 58.0545 73.6483 57.7315 71.9228C57.4229 70.2575 56.8674 68.6478 56.0832 67.1467C55.3331 65.7013 54.4337 64.3385 53.3996 63.0806C52.4014 61.8739 51.3163 60.7417 50.153 59.6932C47.8979 57.6164 45.5865 55.7992 43.5097 53.9319C42.4682 52.9936 41.4829 52.0553 40.5728 51.095C39.6906 50.155 38.8774 49.1525 38.1394 48.0955C36.8052 46.157 35.7767 44.0251 35.0898 41.7743C34.4882 39.8306 34.1392 37.8175 34.0514 35.7847C34.0077 35.3218 34.0264 34.8651 34.0264 34.4178C34.0264 33.9706 34.0264 33.5358 34.0671 33.1136C34.1077 32.6913 34.1296 32.2785 34.1609 31.8625C34.1922 31.4465 34.2766 31.0743 34.3298 30.6958C34.6754 28.3919 35.3804 26.1565 36.4191 24.0712C36.5598 23.7486 36.7207 23.4352 36.9008 23.1329L37.2855 22.4792C37.4888 22.132 37.5983 21.9569 37.5983 21.9569L37.2855 22.4886L36.9133 23.1329C36.7375 23.4366 36.5788 23.7498 36.4379 24.0712C35.4085 26.1616 34.712 28.3999 34.3736 30.7052C34.3204 31.0805 34.2579 31.4684 34.211 31.8656C34.164 32.2628 34.1484 32.6788 34.1171 33.1011C34.0858 33.5233 34.0858 33.9581 34.0827 34.4022C34.0796 34.8463 34.0671 35.303 34.1109 35.7659C34.2013 37.792 34.5535 39.7979 35.1587 41.7337C35.8447 43.9764 36.8723 46.1 38.2051 48.0298C38.9412 49.0825 39.7535 50.0798 40.6353 51.0137C41.5423 51.9771 42.5276 52.9154 43.5691 53.8287C45.6459 55.7054 47.9479 57.5038 50.2187 59.5838C51.391 60.6399 52.4845 61.7804 53.4903 62.9961C54.5301 64.2632 55.4348 65.6354 56.1895 67.0904C56.9812 68.6007 57.542 70.2212 57.8535 71.8978C58.1811 73.6418 58.1083 75.4374 57.6408 77.1493C57.1102 78.905 56.1835 80.5155 54.9322 81.8565C53.63 83.2152 52.1656 84.4085 50.5721 85.4097C48.9801 86.4575 47.3005 87.4146 45.6397 88.4467C43.9381 89.4622 42.334 90.6327 40.848 91.9435C37.7939 94.7136 35.4008 98.134 33.845 101.952C32.21 105.95 31.5817 110.288 32.0153 114.585C32.446 119.057 33.9713 123.354 36.4567 127.096L36.3941 127.062H89.6969L89.6249 127.106C90.2854 125.749 90.8478 124.346 91.3077 122.908C91.7763 121.486 92.1565 120.036 92.4462 118.567C93.043 115.661 93.2168 112.684 92.9622 109.728C92.7149 106.814 91.9424 103.969 90.6821 101.33C90.0605 100.03 89.3181 98.791 88.4646 97.6298C87.6102 96.4819 86.6891 95.3853 85.7059 94.3457C83.7771 92.2459 81.7785 90.2483 79.71 88.3529C77.6582 86.4481 75.5158 84.684 73.4859 82.8261C72.4583 81.9169 71.5247 80.9068 70.699 79.811C69.8896 78.7089 69.3352 77.4408 69.0758 76.0983C68.9505 75.435 68.8825 74.7621 68.8725 74.0872C68.8568 73.7525 68.8725 73.4178 68.8725 73.0832C68.8725 72.7485 68.9288 72.417 68.9538 72.0854C69.0686 70.7629 69.3524 69.4605 69.7983 68.2101C70.7217 65.7642 72.2407 63.5872 74.2177 61.8764C75.1561 61.0069 76.1601 60.2187 77.1453 59.4336C77.6395 59.0395 78.1243 58.6423 78.5966 58.2357C79.0689 57.8291 79.5349 57.3912 80.0228 57.0159C81.0174 56.2652 82.0277 55.5583 82.9942 54.8108C83.96 54.0752 84.888 53.2912 85.7747 52.4619C86.6457 51.6461 87.4617 50.7737 88.2175 49.8502C88.9544 48.9355 89.6225 47.9674 90.2161 46.9539C91.3557 44.9667 92.1649 42.8075 92.6119 40.5608C93.0187 38.3964 93.1334 36.1873 92.9529 33.9925C92.7781 31.8764 92.4021 29.7817 91.83 27.737C91.2895 25.7789 90.6294 23.8559 89.8533 21.9788L89.9064 22.0132L51.6262 21.985H41.2171H38.5085L37.5952 21.9569Z" fill="#263238"/>
<path d="M87.7908 36.4355C95.6414 37.7272 83.265 51.6332 76.2558 57.1193C72.1897 60.294 67.8422 63.7408 65.9155 68.52C63.7261 73.9435 65.3494 80.0364 64.2922 85.4912C64.2581 85.6793 64.1542 85.8475 64.0012 85.9621C63.8482 86.0767 63.6575 86.1292 63.4674 86.109C63.2773 86.0888 63.1019 85.9974 62.9764 85.8533C62.8509 85.7091 62.7847 85.5227 62.7909 85.3317C62.8409 81.7504 62.7471 78.1722 62.1653 74.6473C61.324 69.6428 59.4036 64.7041 55.9099 61.0415C53.048 58.0483 49.2979 56.0621 46.2483 53.2659C41.7944 49.1842 37.2186 43.9202 36.7713 37.8961C36.7713 37.8961 45.3225 31.0151 50.0704 31.8752C55.619 32.8917 61.08 41.4524 69.675 40.4734C75.6552 39.7884 78.686 34.9404 87.7908 36.4355Z" fill="#339999"/>
<path d="M88.4892 110.861C88.2921 108.897 87.7666 106.676 86.0245 105.75C84.9705 105.187 83.685 105.25 82.5277 105.553C81.3704 105.857 80.2851 106.385 79.1404 106.726C76.8647 107.395 74.4344 107.318 72.2062 106.504C70.0762 105.722 68.2496 104.315 66.2635 103.195C64.2774 102.075 61.9723 101.256 59.7703 101.803C55.9733 102.741 53.9966 107.32 50.2433 108.425C48.5731 108.912 46.7809 108.637 45.0857 108.256C43.3904 107.874 41.6858 107.377 39.9499 107.442C38.5862 107.492 37.1694 107.965 36.2154 108.897L36.1904 108.925C36.0316 109.081 35.8871 109.25 35.7588 109.432C34.5952 110.996 34.4076 113.069 34.7673 114.965C35.1676 117.088 36.1591 119.05 37.2225 120.929C38.4736 123.144 39.8999 125.346 41.9704 126.822C44.5289 128.645 47.7411 127.388 50.872 127.635C58.1689 128.211 66.0195 128.602 73.3197 128.039C77.1762 127.726 80.7887 128.158 83.8476 125.79C85.9995 124.126 87.4007 121.617 88.0763 118.984C88.7519 116.35 88.7613 113.567 88.4892 110.861Z" fill="#339999"/>
<g opacity="0.24">
<path d="M74.7137 107.101C74.304 107.726 74.1257 108.577 74.5229 109.215C74.9202 109.853 75.4613 110.438 75.6301 111.173C75.9023 112.324 75.2079 113.45 74.6918 114.517C73.7366 116.423 73.3759 118.573 73.6566 120.688C73.9524 122.809 75.0478 124.737 76.7186 126.077C77.4599 126.649 78.4232 127.093 79.3177 126.812C80.1591 126.549 80.7002 125.695 80.8816 124.829C81.063 123.962 80.9098 123.071 80.8003 122.198C80.2909 118.131 80.3963 114.011 81.1131 109.975C81.2319 109.303 81.3445 108.533 80.9191 107.998C80.6123 107.687 80.2226 107.47 79.7963 107.373C78.1699 106.832 76.4152 107.432 74.7294 107.113" fill="black"/>
</g>
<path d="M32.4819 129.565C32.4819 129.565 32.3349 127.12 35.5252 125.756H91.5897C91.5897 125.756 94.5142 127.238 94.8738 129.509L32.4819 129.565Z" fill="#263238"/>
<path d="M90.3972 22.255L90.3065 22.2956L37.5886 21.9578C37.5886 21.9578 37.4009 21.839 37.1225 21.6169C36.7939 21.3595 36.5541 21.0056 36.4369 20.6049C36.3196 20.2042 36.3308 19.7769 36.4688 19.3829C36.6068 18.9889 36.8647 18.648 37.2064 18.408C37.548 18.1681 37.9562 18.0411 38.3736 18.045L89.5433 18.4579C91.6483 18.4766 92.3113 21.3542 90.3972 22.255Z" fill="#263238"/>
<g opacity="0.24">
<path d="M81.9551 42.3651C82.0615 42.5684 81.6643 42.9906 80.9105 43.6787C80.1567 44.3668 79.0338 45.2708 77.6389 46.4061C75.964 47.7899 74.1865 49.0446 72.3217 50.1594C71.1633 50.8302 69.9444 51.3905 68.681 51.8328C67.9964 52.0694 67.2975 52.2627 66.5886 52.4114C65.8439 52.5696 65.0877 52.6679 64.3272 52.7054C62.7863 52.7893 61.2436 52.5769 59.7827 52.0799C58.491 51.6101 57.2636 50.9796 56.1295 50.2032C55.0785 49.5089 54.1746 48.8208 53.3145 48.1608C52.4544 47.5009 51.6881 46.8659 50.9937 46.2654C48.2257 43.8664 46.7682 42.1023 47.0497 41.7614C47.3312 41.4205 49.3016 42.5309 52.3668 44.4075L54.869 45.9401C55.7666 46.4843 56.7269 47.088 57.709 47.6447C58.6835 48.2168 59.7163 48.6834 60.7898 49.0366C61.8882 49.3655 63.0354 49.501 64.1802 49.4369C66.5823 49.3118 68.9125 48.4673 70.9299 47.4915C72.9473 46.5156 74.7739 45.3771 76.3565 44.4888C77.609 43.7497 78.9184 43.1117 80.2724 42.5809C81.2639 42.2337 81.8644 42.168 81.9551 42.3651Z" fill="black"/>
</g>
<path d="M62.8299 92.0252C63.0515 91.937 63.2989 91.9397 63.5185 92.0326C63.7382 92.1255 63.9124 92.3012 64.0035 92.5217C64.0945 92.7421 64.0951 92.9895 64.0051 93.2104C63.9151 93.4312 63.7417 93.6077 63.5225 93.7017C63.3032 93.7956 63.0558 93.7995 62.8338 93.7124C62.6118 93.6252 62.433 93.4542 62.3362 93.2362C62.2394 93.0182 62.2323 92.7709 62.3165 92.5478C62.4007 92.3246 62.5694 92.1436 62.7861 92.0439" fill="#339999"/>
<path d="M43.9751 51.0892C43.9066 51.0329 43.8437 50.97 43.7875 50.9015L43.2776 50.3448C43.0618 50.0977 42.7772 49.8099 42.4863 49.444L41.4917 48.1929C41.1508 47.7112 40.7661 47.192 40.3782 46.629L39.8059 45.7188C39.7089 45.5624 39.6057 45.406 39.5119 45.2403L39.2366 44.7336C38.4042 43.2583 37.7521 41.6884 37.2943 40.0576C36.8343 38.4281 36.5862 36.7461 36.5562 35.0532C36.5562 34.6622 36.578 34.2837 36.5843 33.9115C36.5843 33.727 36.5843 33.5456 36.6093 33.3673C36.6343 33.189 36.6469 33.0139 36.6656 32.8418C36.7063 32.4978 36.7313 32.1631 36.7782 31.8441C36.8251 31.525 36.8908 31.2185 36.944 30.9339C37.0316 30.349 37.188 29.8392 37.2974 29.37C37.3568 29.1448 37.4038 28.9321 37.4632 28.7445L37.6352 28.2221L37.8761 27.5059C37.8991 27.4206 37.9305 27.3378 37.9699 27.2588C37.957 27.346 37.9361 27.4319 37.9073 27.5153C37.8542 27.6967 37.7854 27.9375 37.6946 28.2409L37.5383 28.7632C37.4851 28.954 37.4413 29.1667 37.385 29.3888C37.2849 29.8423 37.1379 30.3553 37.0722 30.9527C37.0222 31.2404 36.9721 31.5438 36.919 31.8597C36.8658 32.1756 36.8533 32.5072 36.8158 32.8512C36.8158 33.0232 36.7814 33.1953 36.7626 33.3736C36.7438 33.5518 36.7626 33.7332 36.7438 33.9147C36.7438 34.2837 36.7188 34.6591 36.7219 35.0469C36.7525 36.7299 36.9973 38.4021 37.4507 40.0232C37.906 41.642 38.5495 43.2019 39.368 44.671C39.4587 44.8399 39.5494 45.0088 39.637 45.1777C39.7245 45.3466 39.834 45.4905 39.9278 45.6531L40.4908 46.5633C40.8724 47.1388 41.2509 47.658 41.5824 48.1272L42.5583 49.3783C42.8398 49.7505 43.1181 50.0414 43.3246 50.2978L43.8125 50.8765C43.8711 50.9439 43.9254 51.0149 43.9751 51.0892Z" fill="#263238"/>
<path d="M41.007 97.5553C41.0224 97.5192 41.0413 97.4846 41.0633 97.4521L41.2509 97.1581C41.3354 97.0267 41.4386 96.8703 41.5637 96.6827L41.7607 96.3699C41.8389 96.2667 41.9296 96.1635 42.0203 96.0571L42.6459 95.3064C42.8867 95.0468 43.162 94.7779 43.4528 94.4838C44.1273 93.8344 44.8441 93.2305 45.5985 92.676C47.2593 91.4249 49.4018 90.1738 51.7226 88.7069C52.9429 87.9548 54.1159 87.1286 55.235 86.2328C56.4356 85.2765 57.4958 84.1562 58.3846 82.9049C60.0115 80.4053 60.8954 77.4953 60.9337 74.5131C60.9734 72.0825 60.5663 69.6653 59.7327 67.3818C59.1805 65.8408 58.4874 64.3541 57.6621 62.9404C57.3712 62.4369 57.1335 62.0553 56.9709 61.7957L56.7864 61.5017C56.7457 61.436 56.7269 61.3984 56.7269 61.3984C56.7548 61.4265 56.779 61.458 56.7989 61.4923L56.999 61.78C57.1711 62.0302 57.4182 62.4056 57.7153 62.9091C58.5661 64.3152 59.2784 65.8006 59.8421 67.3443C60.6981 69.6373 61.1223 72.0689 61.0932 74.5162C61.08 75.2219 61.0225 75.9259 60.9212 76.6244C60.8199 77.3549 60.6662 78.0771 60.4614 78.7856C60.0342 80.2858 59.3701 81.7081 58.4941 82.9987C57.5962 84.2637 56.5243 85.3956 55.3101 86.3611C54.1843 87.2576 53.0051 88.0849 51.7789 88.8383C49.4487 90.2927 47.3031 91.5312 45.6423 92.773C44.888 93.3201 44.1693 93.9145 43.4904 94.5527C43.1995 94.8435 42.9211 95.1063 42.6772 95.3627L42.0516 96.0978C41.9578 96.2104 41.8671 96.3136 41.7889 96.4105L41.5856 96.7077L41.2728 97.1737L41.0726 97.4583C41.0534 97.4924 41.0314 97.5248 41.007 97.5553Z" fill="#263238"/>
<path d="M38.0983 103.082C38.0794 103.133 38.0564 103.182 38.0295 103.229L37.8043 103.626C37.7042 103.795 37.5854 104.008 37.4634 104.252C37.3414 104.496 37.185 104.784 37.0536 105.112C36.9848 105.275 36.9098 105.444 36.8347 105.619C36.7596 105.794 36.6971 105.988 36.622 106.182C36.4719 106.57 36.353 106.995 36.2154 107.433C35.6714 109.394 35.4839 111.436 35.6618 113.463C35.715 113.926 35.7525 114.37 35.8338 114.777C35.8682 114.98 35.8964 115.18 35.937 115.368C35.9777 115.556 36.0215 115.737 36.0622 115.909C36.131 116.256 36.2342 116.56 36.3092 116.829C36.3843 117.098 36.4594 117.329 36.5282 117.517L36.6752 117.948C36.6963 117.997 36.71 118.049 36.7158 118.102C36.6857 118.058 36.6615 118.011 36.6439 117.961C36.597 117.845 36.5407 117.708 36.4688 117.539C36.3742 117.316 36.2917 117.088 36.2217 116.857C36.1372 116.588 36.0277 116.284 35.9496 115.937C35.9058 115.765 35.862 115.584 35.8151 115.396C35.7682 115.209 35.74 115.005 35.6993 114.802C35.6118 114.389 35.568 113.945 35.5117 113.479C35.3159 111.439 35.5047 109.381 36.0684 107.411C36.2092 106.961 36.3343 106.532 36.4938 106.144C36.572 105.95 36.6345 105.76 36.7158 105.581L36.9473 105.071C37.0849 104.759 37.2601 104.468 37.3821 104.218C37.4923 104.002 37.6145 103.794 37.748 103.592L37.9982 103.207C38.0608 103.123 38.092 103.079 38.0983 103.082Z" fill="#263238"/>
<path d="M76.768 110.601L76.7054 110.645L76.5115 110.767L75.7515 111.224L75.201 111.536C74.9946 111.652 74.7662 111.758 74.5223 111.88C74.0281 112.118 73.4839 112.422 72.8396 112.665L71.8387 113.075C71.4915 113.213 71.1131 113.322 70.7315 113.454C69.9714 113.732 69.1269 113.932 68.2481 114.161C64.3891 115.064 60.3862 115.171 56.4847 114.473C55.5901 114.292 54.7394 114.136 53.9637 113.898C53.5759 113.785 53.1943 113.698 52.8377 113.585L51.8181 113.213C51.1644 113.003 50.6014 112.731 50.0978 112.518C49.8476 112.409 49.613 112.312 49.4035 112.206L48.8342 111.909L48.0523 111.493L47.8521 111.38L47.7864 111.339C47.7864 111.339 47.8146 111.339 47.8615 111.367L48.0679 111.464L48.8624 111.852L49.4348 112.134C49.6474 112.234 49.8851 112.325 50.1354 112.431C50.6389 112.631 51.2019 112.897 51.8587 113.097L52.8659 113.463C53.2224 113.582 53.604 113.666 53.9919 113.776C54.7644 114.007 55.612 114.154 56.494 114.333C60.3775 115.005 64.356 114.899 68.198 114.02C69.0738 113.795 69.9151 113.604 70.6752 113.332C71.0568 113.203 71.4321 113.1 71.7793 112.963L72.7801 112.565C73.4244 112.328 73.9718 112.034 74.466 111.805C74.7099 111.686 74.9414 111.583 75.1478 111.493L75.7046 111.18L76.4771 110.748L76.6804 110.642C76.743 110.607 76.768 110.598 76.768 110.601Z" fill="#263238"/>
<path d="M80.0299 44.4023C80.0108 44.425 79.9887 44.445 79.9643 44.4618L79.7578 44.6307C79.567 44.7839 79.3012 44.9997 78.9602 45.2562C78.2659 45.8067 77.2588 46.6043 75.9858 47.5551C74.5044 48.6892 72.9508 49.7256 71.3348 50.6579C70.3738 51.1957 69.372 51.6569 68.3385 52.0372C67.2237 52.4428 66.0608 52.7015 64.8792 52.8066C62.5819 52.9356 60.2911 52.4588 58.2359 51.4242C57.3471 50.9727 56.4893 50.4628 55.668 49.8978C54.9049 49.3598 54.2074 48.8375 53.5912 48.3339C52.3401 47.3393 51.3831 46.4979 50.7075 45.9224L49.9349 45.2531L49.7379 45.0779L49.6722 45.0123C49.6722 45.0123 49.7003 45.0123 49.7472 45.0623L49.9568 45.2281L50.7481 45.8724C51.4362 46.4354 52.4183 47.2611 53.6632 48.2432C54.2887 48.7343 54.9799 49.2504 55.7462 49.7821C56.5646 50.3373 57.4182 50.8388 58.3016 51.2834C60.3362 52.2976 62.6 52.7643 64.8698 52.6377C66.0373 52.5342 67.1864 52.2798 68.2884 51.8808C69.3149 51.5055 70.3105 51.0506 71.266 50.5202C72.8796 49.6049 74.4349 48.5906 75.9232 47.4832C77.1993 46.5449 78.2159 45.7629 78.9258 45.2281L79.7422 44.6025L79.958 44.4461C79.9796 44.428 80.0039 44.4133 80.0299 44.4023Z" fill="#263238"/>
<g opacity="0.24">
<path d="M51.8222 113.228C53.3047 112.083 55.3878 112.359 57.2207 112.746C59.0535 113.134 60.8989 113.757 62.7536 113.497C64.1517 113.3 65.4341 112.615 66.8197 112.315C68.2053 112.015 69.8723 112.237 70.6386 113.422C64.514 115.396 57.9142 115.328 51.8316 113.228" fill="black"/>
</g>
<path d="M103.53 104.741L96.8055 97.2001L96.7366 106.368L98.7634 112.248L78.6146 115.741L77.7607 99.8431L76.3094 87.6448C76.2232 86.9176 76.3802 86.1822 76.7559 85.5536C77.1316 84.9249 77.7049 84.4384 78.3863 84.1699L83.9317 81.9805L91.751 83.413L94.8944 84.6078C96.2124 85.1097 97.3872 85.9269 98.3161 86.988L107.774 97.8038" fill="#339999"/>
<path d="M96.3354 95.3866C96.7151 95.3814 97.0942 95.3542 97.4708 95.3052C98.3779 95.1668 99.2231 94.7606 99.898 94.1387C100.573 93.5168 101.047 92.7076 101.258 91.8147C101.336 91.4417 101.394 91.0648 101.43 90.6855C101.456 90.7877 101.465 90.8932 101.459 90.9983C101.461 91.2822 101.432 91.5655 101.371 91.8428C101.182 92.7716 100.705 93.6172 100.008 94.2599C99.3117 94.9027 98.4305 95.31 97.4895 95.4241C97.2085 95.4604 96.9243 95.4667 96.6419 95.4429C96.5374 95.4407 96.4339 95.4217 96.3354 95.3866Z" fill="white"/>
<path d="M96.9198 105.977C96.9667 105.977 96.9792 102.8 96.9479 98.8836C96.9166 94.9676 96.8509 91.793 96.804 91.793C96.7571 91.793 96.7446 94.9676 96.7759 98.8867C96.8072 102.806 96.8728 105.977 96.9198 105.977Z" fill="#263238"/>
<path d="M96.1827 108.308L84.0096 103.406C83.5284 103.213 83.1108 102.888 82.8041 102.47C82.4974 102.052 82.3137 101.556 82.2737 101.039L81.3823 89.3659C81.3823 89.3659 81.4886 84.399 78.3859 84.1582L76.6313 84.8526C74.3511 86.063 73.7882 89.3847 74.0978 91.9463C74.5388 95.587 74.7233 100.742 75.2144 103.901C75.621 106.487 77.091 108.761 79.6308 109.427L94.6251 112.674L96.1827 108.308Z" fill="#339999"/>
<path d="M81.5588 91.1445C81.5792 91.2319 81.5917 91.3208 81.5963 91.4104C81.6151 91.6012 81.6433 91.8577 81.6745 92.1798C81.7371 92.8648 81.8247 93.8281 81.931 95.0104C82.0374 96.1927 82.1562 97.6346 82.2938 99.211C82.3251 99.6082 82.3595 100.012 82.3939 100.425C82.4181 100.845 82.4703 101.263 82.5503 101.676C82.6352 102.093 82.8471 102.475 83.1571 102.767C83.4906 103.061 83.8699 103.297 84.2799 103.468C87.636 104.919 90.7293 106.12 92.975 106.962L95.643 107.944L96.3686 108.21C96.4535 108.238 96.5361 108.272 96.6157 108.313C96.5272 108.297 96.4403 108.273 96.3561 108.241L95.6211 108.003C94.9955 107.79 94.0572 107.475 92.9375 107.065C90.6761 106.252 87.5797 105.069 84.2111 103.624C83.7851 103.445 83.3911 103.198 83.0445 102.892C82.7119 102.577 82.4847 102.166 82.3939 101.716C82.3132 101.297 82.262 100.873 82.2407 100.446C82.2062 100.03 82.175 99.627 82.1437 99.2298C82.0217 97.6659 81.9091 96.2271 81.8309 95.0261C81.7527 93.825 81.6745 92.8773 81.6245 92.1923C81.6026 91.8796 81.587 91.6106 81.5776 91.4198C81.5634 91.3287 81.5571 91.2366 81.5588 91.1445Z" fill="#263238"/>
<path d="M74.5813 97.4902C74.5939 97.5415 74.6012 97.5939 74.6032 97.6466L74.6439 98.097C74.6814 98.513 74.7283 99.0729 74.7877 99.7547C74.8472 100.437 74.941 101.284 75.063 102.204C75.1827 103.2 75.3655 104.187 75.6103 105.159C75.7255 105.66 75.9266 106.138 76.2046 106.57C76.4763 106.967 76.7807 107.341 77.1148 107.687C77.684 108.272 78.3415 108.765 79.0634 109.147C79.7363 109.489 80.4579 109.726 81.2027 109.848C81.1498 109.855 81.0962 109.855 81.0432 109.848C80.8919 109.838 80.7415 109.818 80.5928 109.789C80.0426 109.686 79.5098 109.506 79.0102 109.254C78.268 108.88 77.5919 108.388 77.0084 107.796C76.6626 107.446 76.3486 107.066 76.0701 106.661C75.7781 106.216 75.5663 105.724 75.4446 105.206C75.1963 104.226 75.0155 103.23 74.9035 102.226C74.7909 101.287 74.7158 100.468 74.6658 99.7672C74.6157 99.0666 74.5876 98.4974 74.5719 98.1033C74.5719 97.9219 74.5719 97.7717 74.5719 97.6497C74.5666 97.5964 74.5697 97.5426 74.5813 97.4902Z" fill="#263238"/>
<path d="M79.7853 105.658C79.8172 105.43 79.8926 105.21 80.0073 105.011C80.2582 104.512 80.6059 104.069 81.0302 103.706C81.4544 103.344 81.9467 103.069 82.4783 102.9C82.6937 102.817 82.9232 102.778 83.1538 102.784C82.9492 102.869 82.7404 102.944 82.5283 103.009C82.0255 103.204 81.5591 103.482 81.149 103.832C80.7398 104.182 80.392 104.599 80.1199 105.064C79.901 105.424 79.8103 105.668 79.7853 105.658Z" fill="#263238"/>
<path d="M82.1829 96.7805C82.2094 96.7883 82.2347 96.7999 82.2579 96.815L82.4769 96.9307C82.7592 97.0698 83.0495 97.192 83.3464 97.2966C84.4409 97.6807 85.6147 97.7818 86.7587 97.5906C88.458 97.2875 89.9762 96.3437 90.9999 94.9539C91.6118 94.1512 91.9954 93.1981 92.1103 92.1953C92.1671 91.6683 92.1117 91.1353 91.9476 90.6314C91.7746 90.1169 91.4732 89.6551 91.0719 89.2896C90.6763 88.9193 90.1781 88.6772 89.6425 88.5952C89.3888 88.5498 89.128 88.5625 88.8799 88.6324C88.6318 88.7023 88.4027 88.8275 88.21 88.9987C88.0355 89.1696 87.9345 89.4019 87.9285 89.6461C87.9339 89.889 88.0172 90.1236 88.1662 90.3155C88.3215 90.5008 88.5121 90.6535 88.7268 90.7647C88.9416 90.8758 89.1763 90.9432 89.4173 90.9629C90.2643 91.0685 91.1242 90.9597 91.9182 90.6466C92.7123 90.3335 93.415 89.826 93.9619 89.1707C94.3765 88.6608 94.6887 88.0756 94.8814 87.4473C95.0252 86.9712 95.1031 86.4777 95.1129 85.9804C95.1163 85.6663 95.0933 85.3524 95.0441 85.0421C95.0253 84.9451 95.0097 84.8638 95.0003 84.8012C94.9976 84.7732 94.9976 84.7449 95.0003 84.7168C95.1296 85.1211 95.1929 85.5435 95.188 85.9679C95.1911 86.4725 95.1216 86.975 94.9815 87.4598C94.6333 88.6284 93.8816 89.6354 92.8603 90.3015C91.8391 90.9676 90.6145 91.2497 89.4048 91.0974C89.1465 91.0746 88.8953 91.001 88.6655 90.8807C88.4358 90.7605 88.2321 90.596 88.0661 90.3968C87.8962 90.1782 87.8019 89.9104 87.7971 89.6336C87.7974 89.349 87.9098 89.0759 88.1099 88.8736C88.3201 88.6859 88.5698 88.548 88.8405 88.47C89.1112 88.3921 89.396 88.3761 89.6738 88.4232C90.2426 88.5075 90.772 88.764 91.1907 89.1582C91.6142 89.5409 91.931 90.0269 92.1103 90.5688C92.2806 91.093 92.3381 91.6473 92.2792 92.1953C92.1571 93.2199 91.7605 94.1925 91.1313 95.0102C90.263 96.1951 89.0306 97.0628 87.6224 97.4808C86.2142 97.8988 84.7079 97.844 83.3339 97.3248C82.9279 97.1948 82.5409 97.0118 82.1829 96.7805Z" fill="white"/>
<path d="M74.2081 93.6696C74.2609 93.5759 74.3285 93.4914 74.4082 93.4193C74.6082 93.2077 74.8281 93.0161 75.0651 92.847C75.8635 92.2983 76.7923 91.9693 77.758 91.893C78.2879 91.8334 78.8238 91.8555 79.3469 91.9587C79.7721 92.047 80.1835 92.1922 80.5699 92.3903C80.8292 92.521 81.0781 92.6716 81.3143 92.8407C81.4056 92.8967 81.4879 92.9663 81.5582 93.0471C81.5395 93.0722 81.1766 92.7969 80.5198 92.4935C79.6636 92.0965 78.7141 91.9449 77.7768 92.0556C76.8357 92.1299 75.9271 92.4339 75.1308 92.9408C74.5271 93.3443 74.23 93.6915 74.2081 93.6696Z" fill="white"/>
<path d="M76.1555 85.3205C76.4523 85.6 76.7833 85.8407 77.1408 86.0367C77.5311 86.2369 77.9554 86.3621 78.3918 86.4058C78.9231 86.4591 79.4595 86.384 79.9557 86.1869C80.4422 85.9794 80.8714 85.6575 81.2068 85.2486C81.4837 84.9073 81.6957 84.5183 81.8323 84.1007C81.9448 83.7086 82.0089 83.3042 82.0231 82.8965C82.0536 83.0043 82.0673 83.1161 82.0638 83.228C82.069 83.5348 82.0279 83.8406 81.9418 84.1351C81.8143 84.5746 81.6018 84.9848 81.3163 85.3424C80.9734 85.791 80.5178 86.1407 79.9959 86.3561C79.474 86.5714 78.9044 86.6447 78.3449 86.5685C77.8914 86.5171 77.4524 86.3768 77.0532 86.1556C76.7844 86.008 76.5397 85.8203 76.3275 85.5989C76.2536 85.5174 76.1953 85.4231 76.1555 85.3205Z" fill="white"/>
<path d="M86.7659 104.517C86.7664 104.439 86.7748 104.362 86.7909 104.286C86.8346 104.069 86.9072 103.858 87.0067 103.66C87.4044 102.932 88.0503 102.37 88.827 102.078C89.9703 101.623 91.2355 101.578 92.4083 101.949C93.0526 102.14 93.7908 102.378 94.2849 103.007C94.4092 103.167 94.4877 103.358 94.5119 103.56C94.5361 103.762 94.5053 103.966 94.4226 104.151C94.2338 104.513 93.9286 104.801 93.5562 104.968C93.1967 105.146 92.803 105.244 92.402 105.255C92.004 105.275 91.6119 105.153 91.2948 104.911C91.1485 104.786 91.0291 104.633 90.9442 104.46C90.8592 104.288 90.8103 104.1 90.8006 103.907C90.7802 103.548 90.8367 103.189 90.9664 102.853C91.4378 101.713 92.3355 100.802 93.4686 100.314C94.2204 99.9786 95.0439 99.8367 95.8644 99.9007C96.1632 99.9234 96.4577 99.9855 96.7402 100.085C96.7402 100.107 96.4274 100.004 95.8582 99.9633C95.1784 99.9264 94.4983 100.029 93.8594 100.264C93.2205 100.499 92.6363 100.862 92.1424 101.33C91.6839 101.769 91.3264 102.303 91.0946 102.894C90.9733 103.21 90.9211 103.548 90.9414 103.885C90.9504 104.057 90.9945 104.224 91.0709 104.377C91.1473 104.531 91.2544 104.667 91.3855 104.777C91.6715 104.997 92.0262 105.107 92.3864 105.09C92.7624 105.08 93.1317 104.988 93.4686 104.821C93.8086 104.669 94.0882 104.408 94.263 104.079C94.3335 103.92 94.3596 103.744 94.3387 103.57C94.3178 103.397 94.2506 103.233 94.1442 103.094C93.926 102.819 93.6464 102.598 93.3279 102.45C93.0189 102.302 92.6976 102.182 92.3676 102.09C91.2258 101.721 89.992 101.753 88.8708 102.181C88.111 102.456 87.4714 102.988 87.063 103.685C86.9276 103.948 86.8277 104.228 86.7659 104.517Z" fill="white"/>
<path d="M78.6573 108.91C78.6573 108.879 79.1202 108.842 79.8239 108.598C80.7427 108.274 81.5657 107.726 82.2181 107.002C82.8704 106.279 83.3312 105.404 83.5584 104.457C83.7367 103.731 83.7305 103.259 83.7617 103.262C83.7836 103.37 83.7889 103.481 83.7774 103.59C83.7702 103.89 83.7346 104.188 83.671 104.482C83.4683 105.459 83.0084 106.365 82.3387 107.106C81.669 107.846 80.8139 108.395 79.8615 108.695C79.5763 108.787 79.2831 108.853 78.9857 108.892C78.8777 108.914 78.7671 108.92 78.6573 108.91Z" fill="white"/>
<path d="M74.7101 99.8372C74.7564 99.8112 74.8058 99.7913 74.8571 99.7778C74.9572 99.7465 75.1011 99.7027 75.2919 99.6527C75.8333 99.5102 76.3937 99.4532 76.9527 99.4838C77.341 99.5131 77.7215 99.6072 78.0787 99.7621C78.4947 99.9416 78.8569 100.226 79.1296 100.588C79.4291 100.998 79.5742 101.501 79.5394 102.008C79.5193 102.277 79.4368 102.539 79.2985 102.771C79.1585 103.016 78.9372 103.204 78.673 103.303C78.5337 103.35 78.3843 103.36 78.2399 103.332C78.0955 103.303 77.9611 103.237 77.8504 103.14C77.6627 102.933 77.5609 102.663 77.5658 102.383C77.5496 101.885 77.6481 101.389 77.8535 100.935C78.139 100.288 78.6325 99.754 79.2559 99.4191C79.8792 99.0842 80.5966 98.9671 81.294 99.0865C81.444 99.1098 81.5916 99.1465 81.735 99.196C81.832 99.2335 81.882 99.2554 81.8789 99.2617C81.8758 99.2679 81.6693 99.196 81.2846 99.1491C80.741 99.0833 80.1894 99.1543 79.6801 99.3555C78.9256 99.6583 78.3217 100.248 78.0005 100.994C77.8095 101.428 77.7186 101.9 77.7347 102.374C77.728 102.613 77.8131 102.846 77.9724 103.024C78.0621 103.101 78.1701 103.152 78.2858 103.174C78.4015 103.196 78.5209 103.188 78.6323 103.149C78.864 103.064 79.0586 102.9 79.1828 102.687C79.3073 102.476 79.3821 102.239 79.4017 101.995C79.4345 101.526 79.303 101.059 79.0295 100.675C78.7756 100.331 78.4359 100.059 78.0443 99.8872C77.7021 99.7318 77.3363 99.6346 76.9621 99.5995C76.4152 99.5587 75.8652 99.5977 75.3294 99.7152C74.926 99.7934 74.7164 99.8497 74.7101 99.8372Z" fill="white"/>
<g opacity="0.3">
<path d="M92.6834 106.916C91.3822 106.18 90.1093 105.614 88.7487 104.998C87.3881 104.382 86.0526 103.584 85.1612 102.383C83.4816 100.119 83.6724 96.8504 81.9553 94.6172C82.0679 96.1185 82.1794 97.6209 82.2899 99.1243C82.3931 100.5 82.1836 101.864 83.0687 102.799C83.8163 103.588 85.2738 104.191 86.3059 104.532C88.3796 105.217 90.6128 106.234 92.6834 106.916Z" fill="black"/>
</g>
<path d="M113.852 124.071C113.852 124.071 124.039 126.886 124.448 127.036C125.074 127.252 124.958 129.501 124.004 129.464C123.551 129.448 116.185 129.739 115.247 129.682C114.308 129.626 111.493 128.516 111.493 128.516L113.852 124.071Z" fill="#339999"/>
<path d="M118.082 127.959C118.208 127.584 118.358 127.219 118.533 126.864C118.752 126.536 118.992 126.223 119.252 125.926C118.889 126.124 118.589 126.419 118.382 126.777C118.176 127.135 118.072 127.543 118.082 127.956V127.959Z" fill="#263238"/>
<path d="M117.018 127.477C117.068 127.477 117.172 127.004 117.444 126.473C117.716 125.941 118.035 125.569 118.001 125.534C117.703 125.766 117.461 126.06 117.291 126.397C117.121 126.733 117.028 127.103 117.018 127.48V127.477Z" fill="#263238"/>
<path d="M116.041 127.212C116.091 126.847 116.171 126.487 116.279 126.136C116.439 125.804 116.624 125.485 116.833 125.182C116.51 125.399 116.261 125.71 116.119 126.073C115.978 126.436 115.951 126.833 116.041 127.212Z" fill="#263238"/>
<path d="M116.206 125.894C116.295 125.652 116.333 125.394 116.315 125.137C116.312 124.857 116.277 124.577 116.212 124.305C116.173 124.144 116.121 123.986 116.059 123.833C116.029 123.736 115.973 123.649 115.896 123.582C115.844 123.544 115.781 123.525 115.717 123.529C115.653 123.532 115.593 123.558 115.546 123.601C115.467 123.677 115.419 123.78 115.411 123.889C115.403 123.978 115.403 124.068 115.411 124.158C115.412 124.326 115.433 124.493 115.474 124.655C115.541 124.928 115.647 125.19 115.786 125.434C115.898 125.669 116.053 125.881 116.243 126.06C116.268 126.06 116.096 125.806 115.893 125.39C115.774 125.15 115.685 124.895 115.627 124.633C115.594 124.48 115.577 124.324 115.577 124.167C115.577 124.011 115.577 123.817 115.671 123.742C115.689 123.725 115.713 123.716 115.738 123.716C115.763 123.716 115.787 123.725 115.805 123.742C115.856 123.792 115.895 123.853 115.918 123.92C115.978 124.067 116.029 124.218 116.071 124.371C116.143 124.63 116.188 124.896 116.206 125.165C116.224 125.603 116.177 125.891 116.206 125.894Z" fill="#263238"/>
<path d="M116.191 125.791C115.984 125.704 115.759 125.668 115.534 125.685C115.291 125.685 115.048 125.714 114.812 125.772C114.666 125.805 114.525 125.857 114.393 125.925C114.309 125.968 114.242 126.036 114.201 126.12C114.16 126.204 114.147 126.3 114.164 126.391C114.188 126.479 114.234 126.559 114.298 126.624C114.362 126.688 114.443 126.734 114.53 126.757C114.68 126.795 114.837 126.795 114.987 126.757C115.228 126.702 115.454 126.596 115.65 126.445C115.835 126.32 115.996 126.162 116.122 125.979C115.934 126.089 115.753 126.211 115.581 126.345C115.392 126.474 115.18 126.567 114.956 126.617C114.831 126.648 114.701 126.648 114.577 126.617C114.519 126.602 114.465 126.572 114.421 126.529C114.378 126.487 114.346 126.434 114.33 126.376C114.321 126.319 114.33 126.26 114.357 126.208C114.384 126.157 114.428 126.116 114.48 126.091C114.596 126.027 114.721 125.979 114.849 125.947C115.074 125.883 115.305 125.843 115.537 125.828C115.935 125.778 116.185 125.819 116.191 125.791Z" fill="#263238"/>
<path d="M119.646 128.07C119.69 127.758 119.758 127.451 119.85 127.15C119.992 126.871 120.159 126.604 120.347 126.353C120.05 126.514 119.818 126.773 119.691 127.086C119.563 127.399 119.547 127.747 119.646 128.07Z" fill="#263238"/>
<path d="M112.538 128.54C112.662 128.618 112.794 128.681 112.932 128.728C113.302 128.868 113.68 128.985 114.065 129.078C115.342 129.357 116.648 129.481 117.956 129.447C119.482 129.429 120.858 129.36 121.856 129.319L123.035 129.257C123.18 129.254 123.324 129.239 123.467 129.213C123.323 129.19 123.177 129.183 123.032 129.191H121.853L117.956 129.266C116.661 129.299 115.366 129.194 114.093 128.953C113.117 128.756 112.551 128.506 112.538 128.54Z" fill="#263238"/>
<path d="M112.24 128.772C112.24 128.794 112.531 128.631 113.003 128.425C113.603 128.141 114.271 128.033 114.93 128.112C115.578 128.252 116.163 128.599 116.597 129.1C116.778 129.314 116.973 129.515 117.182 129.701C117.047 129.452 116.88 129.223 116.684 129.019C116.484 128.786 116.257 128.576 116.009 128.393C115.698 128.163 115.337 128.011 114.955 127.949C114.263 127.866 113.563 127.998 112.95 128.328C112.691 128.437 112.451 128.587 112.24 128.772Z" fill="#263238"/>
<path d="M103.024 121.259C103.024 121.259 93.3839 127.571 93.0399 127.827C92.5207 128.218 93.1149 130.085 94.0157 129.763C94.4411 129.61 102.529 127.358 103.399 127.02C104.268 126.682 106.611 124.787 106.611 124.787L103.024 121.259Z" fill="#339999"/>
<path d="M100.166 126.252C100.05 125.856 99.8269 125.498 99.5213 125.22C99.2157 124.941 98.8393 124.752 98.4335 124.673C98.7724 124.876 99.0974 125.102 99.4062 125.348C99.6781 125.634 99.9319 125.936 100.166 126.252Z" fill="#263238"/>
<path d="M101.028 125.468C100.905 125.111 100.705 124.786 100.442 124.515C100.178 124.245 99.8584 124.036 99.5047 123.904C99.4797 123.948 99.9019 124.217 100.318 124.63C100.734 125.043 100.984 125.493 101.028 125.468Z" fill="#263238"/>
<path d="M101.897 124.912C101.896 124.519 101.746 124.14 101.478 123.852C101.254 123.534 100.92 123.311 100.54 123.227C100.83 123.453 101.103 123.701 101.356 123.968C101.561 124.268 101.742 124.584 101.897 124.912Z" fill="#263238"/>
<path d="M101.339 123.715C101.364 123.715 101.233 123.443 101.123 122.992C101.057 122.731 101.019 122.464 101.007 122.195C100.997 122.036 100.997 121.877 101.007 121.719C101.006 121.648 101.025 121.577 101.061 121.516C101.074 121.495 101.095 121.479 101.12 121.474C101.144 121.468 101.17 121.472 101.192 121.485C101.301 121.528 101.358 121.716 101.411 121.866C101.457 122.015 101.488 122.168 101.505 122.323C101.529 122.591 101.52 122.861 101.48 123.127C101.414 123.583 101.323 123.862 101.348 123.871C101.477 123.647 101.562 123.401 101.599 123.145C101.659 122.871 101.68 122.59 101.661 122.31C101.649 122.143 101.618 121.977 101.57 121.816C101.545 121.73 101.513 121.645 101.477 121.563C101.435 121.46 101.357 121.377 101.258 121.328C101.2 121.301 101.134 121.295 101.072 121.312C101.01 121.329 100.956 121.366 100.92 121.419C100.868 121.506 100.841 121.605 100.842 121.707C100.807 122.152 100.858 122.6 100.992 123.027C101.058 123.278 101.176 123.512 101.339 123.715Z" fill="#263238"/>
<path d="M101.305 123.611C101.305 123.636 101.543 123.524 101.931 123.427C102.157 123.373 102.389 123.341 102.622 123.333C102.755 123.324 102.888 123.332 103.019 123.358C103.077 123.366 103.13 123.392 103.172 123.433C103.213 123.473 103.241 123.526 103.25 123.583C103.253 123.645 103.239 123.707 103.21 123.762C103.181 123.817 103.138 123.863 103.085 123.896C102.977 123.964 102.855 124.004 102.728 124.015C102.5 124.037 102.269 124.014 102.049 123.946C101.846 123.87 101.637 123.808 101.424 123.762C101.6 123.902 101.802 124.009 102.018 124.074C102.25 124.163 102.499 124.201 102.747 124.184C102.901 124.176 103.051 124.128 103.182 124.046C103.259 123.999 103.322 123.931 103.365 123.851C103.407 123.77 103.427 123.68 103.423 123.589C103.411 123.496 103.37 123.409 103.306 123.342C103.241 123.274 103.155 123.229 103.063 123.214C102.916 123.188 102.767 123.182 102.619 123.195C102.375 123.212 102.135 123.257 101.902 123.33C101.684 123.376 101.48 123.473 101.305 123.611Z" fill="#263238"/>
<path d="M95.2457 129.417C95.2457 129.433 95.4083 129.32 95.4834 129.045C95.5583 128.685 95.4934 128.311 95.302 127.997C95.2093 127.83 95.1048 127.669 94.9892 127.516C94.8952 127.385 94.7848 127.268 94.6608 127.165C94.5719 127.092 94.4628 127.047 94.348 127.037C94.2667 127.037 94.226 127.053 94.226 127.062C94.226 127.072 94.398 127.078 94.5763 127.259C94.6815 127.366 94.7748 127.483 94.8547 127.609C94.9669 127.76 95.0713 127.917 95.1675 128.079C95.3403 128.359 95.4151 128.689 95.3801 129.017C95.3434 129.153 95.2985 129.287 95.2457 129.417Z" fill="#263238"/>
<path d="M98.7065 126.83C98.7195 126.661 98.6957 126.491 98.6369 126.332C98.578 126.172 98.4855 126.028 98.3656 125.907C98.2693 125.768 98.1435 125.651 97.9971 125.565C97.8506 125.479 97.6871 125.426 97.518 125.41C97.7736 125.592 98.0133 125.795 98.2343 126.017C98.4143 126.274 98.5723 126.546 98.7065 126.83Z" fill="#263238"/>
<path d="M105.622 125.122C105.472 125.205 105.33 125.302 105.196 125.41C104.814 125.675 104.418 125.918 104.008 126.139C103.402 126.46 102.775 126.741 102.131 126.98C101.399 127.252 100.567 127.509 99.7167 127.759C97.9808 128.259 96.4106 128.716 95.2784 129.057L93.9304 129.479C93.764 129.523 93.6017 129.582 93.4456 129.654C93.616 129.631 93.7844 129.594 93.9491 129.545L95.3034 129.166C96.4451 128.853 98.0183 128.416 99.7542 127.915C100.621 127.662 101.443 127.399 102.175 127.118C102.826 126.87 103.459 126.575 104.067 126.236C104.476 126.004 104.867 125.743 105.237 125.454C105.374 125.354 105.503 125.243 105.622 125.122Z" fill="#263238"/>
<path d="M105.978 125.25C105.718 125.136 105.443 125.062 105.161 125.031C104.476 124.904 103.768 124.992 103.134 125.281C102.792 125.461 102.498 125.721 102.277 126.038C102.096 126.289 101.944 126.56 101.824 126.845C101.698 127.099 101.609 127.368 101.558 127.646C101.7 127.404 101.825 127.154 101.933 126.895C102.194 126.285 102.646 125.775 103.222 125.444C103.827 125.172 104.497 125.075 105.155 125.166C105.655 125.206 105.971 125.275 105.978 125.25Z" fill="#263238"/>
<path d="M123.059 105.869C123.059 105.869 125.952 106.901 125.962 110.144C125.987 116.353 113.413 123.199 113.413 123.199L96.6801 112.115L95.6323 111.689C95.6323 111.689 118.23 103.207 123.059 105.869Z" fill="#263238"/>
<path d="M105.158 117.713C105.312 117.627 105.459 117.529 105.596 117.419C105.868 117.218 106.259 116.924 106.738 116.552C107.698 115.814 108.999 114.763 110.403 113.559C111.808 112.355 113.04 111.226 113.916 110.39C114.354 109.974 114.704 109.63 114.945 109.39C115.075 109.272 115.194 109.143 115.301 109.005C115.157 109.106 115.022 109.219 114.898 109.343L113.834 110.303C112.937 111.113 111.692 112.23 110.291 113.431C108.89 114.632 107.601 115.695 106.666 116.458L105.555 117.365C105.414 117.47 105.281 117.586 105.158 117.713Z" fill="#455A64"/>
<path d="M118.337 108.189C117.242 108.073 116.147 108.396 115.29 109.087C115.318 109.134 115.916 108.743 116.773 108.499C117.63 108.255 118.337 108.242 118.337 108.189Z" fill="#455A64"/>
<path d="M116.897 107.209C116.51 107.373 116.169 107.63 115.905 107.958C115.641 108.285 115.462 108.673 115.383 109.086C115.433 109.086 115.614 108.582 116.037 108.066C116.459 107.55 116.925 107.253 116.897 107.209Z" fill="#455A64"/>
<path d="M123.979 126.876C123.979 126.858 123.779 126.817 123.547 127.008C123.274 127.262 123.103 127.606 123.065 127.977C123.011 128.342 123.063 128.715 123.216 129.05C123.334 129.304 123.466 129.422 123.481 129.41C123.44 129.271 123.389 129.135 123.328 129.003C123.219 128.682 123.186 128.339 123.234 128.002C123.271 127.667 123.409 127.351 123.628 127.095C123.807 126.911 123.982 126.905 123.979 126.876Z" fill="#263238"/>
<path d="M119.208 95.7168L113.25 110.824L87.5928 111.243L87.1174 109.854L96.1097 109.529L100.432 96.1265L119.208 95.7168Z" fill="#455A64"/>
<path d="M107.228 102.268C107.425 102.169 107.646 102.129 107.865 102.153C108.085 102.177 108.292 102.264 108.463 102.403C108.609 102.539 108.709 102.717 108.752 102.911C108.795 103.106 108.778 103.309 108.704 103.494C108.624 103.679 108.493 103.838 108.327 103.952C108.162 104.066 107.967 104.132 107.766 104.142C107.554 104.155 107.344 104.099 107.166 103.983C106.989 103.866 106.855 103.694 106.784 103.494C106.717 103.271 106.722 103.031 106.8 102.811C106.878 102.591 107.023 102.401 107.215 102.268" fill="#EBEBEB"/>
<path d="M114.998 123.954C114.998 123.954 91.3588 108.447 90.3954 108.125C89.4321 107.803 87.0863 106.27 84.7499 106.914C82.4135 107.559 80.3116 109.657 79.2639 112.723C78.6633 114.474 78.3818 117.461 78.2473 119.704C78.0681 122.385 78.9372 125.032 80.6713 127.085C81.4395 128.043 82.4599 128.768 83.6176 129.178C83.8647 129.256 84.1212 129.322 84.3839 129.378C88.8535 130.347 93.4544 128.339 95.9565 124.517L96.507 123.679C96.507 123.679 111.974 129.359 112.214 129.281L114.998 123.954Z" fill="#263238"/>
<path d="M85.7518 119.686C85.7936 119.707 85.8364 119.726 85.8801 119.742L86.2679 119.895L87.7661 120.474L93.3366 122.573C95.7011 123.455 98.5349 124.506 101.716 125.663C104.897 126.82 108.418 128.087 112.184 129.36L112.25 129.385L112.284 129.319L114.133 125.791L115.071 123.993L115.106 123.924L115.04 123.883L97.0085 112.436L91.5913 109.02L90.1213 108.101L89.7366 107.866C89.649 107.813 89.6021 107.791 89.6021 107.791L89.7272 107.882L90.1025 108.129L91.5569 109.067L96.9616 112.536L114.965 124.027L114.934 123.915C114.636 124.487 114.308 125.097 113.995 125.713L112.15 129.241L112.253 129.201C108.5 127.931 104.965 126.667 101.781 125.519L93.3897 122.466L87.788 120.408L86.2804 119.858L85.8863 119.72L85.7518 119.686Z" fill="#455A64"/>
<path d="M88.2054 64.6217C88.6089 63.5301 89.5003 63.0578 90.6294 62.7857C91.1973 62.6535 91.7888 62.6604 92.3534 62.8058C92.9181 62.9512 93.4394 63.2308 93.8728 63.6208C94.4452 64.1431 94.8643 64.8719 95.5712 65.1847C96.7378 65.7133 98.2298 64.9407 99.3245 65.5881C99.6533 65.7819 99.9049 66.0835 100.036 66.4418C100.168 66.8001 100.171 67.1928 100.046 67.5534C99.9208 67.9139 99.6745 68.2198 99.349 68.4192C99.0236 68.6186 98.6391 68.6991 98.261 68.6471C99.0211 69.0037 99.1618 70.1484 98.6395 70.8052C98.1172 71.4621 97.1507 71.6404 96.3406 71.412C95.5421 71.137 94.8338 70.6492 94.292 70.0014C93.7227 69.3759 93.2223 68.7034 92.603 68.1248C92.0085 67.5208 91.2198 67.1464 90.376 67.0676C89.2407 67.0238 88.1866 67.7901 87.5955 68.7566C87.0043 69.723 86.776 70.8709 86.6103 71.9969C86.4445 73.1229 86.3194 74.2677 85.8846 75.3186C85.8346 75.4437 85.7595 75.5782 85.6313 75.6064C85.4405 75.647 85.3029 75.4374 85.2278 75.2592C84.3719 73.2505 83.9192 71.0931 83.8954 68.9098C83.8797 67.6587 84.0236 66.4608 84.8087 65.4693C85.5937 64.4778 87.4047 63.8616 88.196 64.606" fill="#263238"/>
<path d="M85.5389 69.666L83.7999 82.2959C83.7301 82.8059 83.7649 83.3248 83.9021 83.8209C84.0393 84.3171 84.2761 84.7801 84.5979 85.1819C84.9198 85.5836 85.3201 85.9156 85.7743 86.1578C86.2286 86.3999 86.7274 86.5471 87.2404 86.5903C88.2115 86.6747 89.1778 86.3825 89.9394 85.774C90.701 85.1656 91.1994 84.2876 91.3314 83.3218C91.4597 82.3834 91.5691 81.5796 91.591 81.4826C91.591 81.4826 94.847 81.6234 95.5163 78.4737C95.8291 76.9505 96.2513 73.7602 96.5923 70.8702C96.7642 69.3746 96.3676 67.869 95.4811 66.6523C94.5947 65.4355 93.2831 64.5966 91.8068 64.3019L91.4941 64.2424C88.163 63.767 85.9111 66.3318 85.5389 69.666Z" fill="#FFBE9D"/>
<path d="M91.588 81.4404C90.124 81.1718 88.7729 80.4739 87.7065 79.4355C87.7065 79.4355 88.2257 81.9002 91.4316 82.2505L91.588 81.4404Z" fill="#EB996E"/>
<path d="M95.2308 72.8027C95.2087 72.9204 95.1413 73.0248 95.043 73.0932C94.9447 73.1617 94.8234 73.1888 94.7054 73.1687C94.6472 73.1622 94.5909 73.144 94.5399 73.1152C94.489 73.0865 94.4443 73.0477 94.4087 73.0013C94.3731 72.9548 94.3472 72.9017 94.3326 72.845C94.318 72.7883 94.315 72.7292 94.3238 72.6714C94.3451 72.5531 94.4123 72.448 94.5107 72.3789C94.609 72.3098 94.7307 72.2823 94.8492 72.3023C94.9075 72.3092 94.9639 72.3277 95.0149 72.3568C95.0658 72.3859 95.1105 72.4249 95.1461 72.4716C95.1817 72.5183 95.2075 72.5717 95.2221 72.6286C95.2366 72.6854 95.2396 72.7447 95.2308 72.8027Z" fill="#263238"/>
<path d="M95.5867 72.2838C95.5179 72.3339 95.227 72.0117 94.7422 71.9148C94.2574 71.8178 93.8508 71.993 93.8039 71.9148C93.757 71.8366 93.8634 71.7897 94.0416 71.7083C94.2793 71.6027 94.5443 71.5753 94.7985 71.6301C95.0511 71.6785 95.2814 71.8068 95.4554 71.9961C95.5899 72.1462 95.618 72.2651 95.5867 72.2838Z" fill="#263238"/>
<path d="M90.4391 72.0153C90.4177 72.1336 90.3506 72.2387 90.2522 72.3078C90.1538 72.3769 90.0322 72.4044 89.9137 72.3844C89.8554 72.377 89.7992 72.3582 89.7483 72.3291C89.6973 72.2999 89.6527 72.2609 89.6169 72.2144C89.5812 72.1678 89.555 72.1147 89.5399 72.058C89.5248 72.0012 89.521 71.9421 89.5289 71.8839C89.5525 71.7668 89.6202 71.6631 89.718 71.5944C89.8158 71.5257 89.9362 71.4973 90.0544 71.5148C90.1128 71.5218 90.1692 71.5403 90.2204 71.5693C90.2715 71.5984 90.3163 71.6374 90.3522 71.684C90.388 71.7306 90.4142 71.784 90.4291 71.8409C90.444 71.8978 90.4474 71.9571 90.4391 72.0153Z" fill="#263238"/>
<path d="M90.7985 71.4245C90.7297 71.4714 90.4388 71.1493 89.954 71.0523C89.4692 70.9553 89.0626 71.1305 89.0157 71.0523C88.9688 70.9741 89.0751 70.9272 89.2534 70.8459C89.4915 70.7419 89.756 70.7145 90.0103 70.7677C90.2627 70.8188 90.4932 70.9466 90.6703 71.1336C90.8017 71.3025 90.8298 71.4026 90.7985 71.4245Z" fill="#263238"/>
<path d="M91.8409 75.3673C92.1125 75.337 92.3869 75.3423 92.6572 75.383C92.7855 75.383 92.9074 75.383 92.945 75.311C92.9847 75.1869 92.9847 75.0535 92.945 74.9294C92.8887 74.6167 92.8292 74.2664 92.7667 73.9098C92.5259 72.4648 92.3788 71.2887 92.4351 71.2794C92.4914 71.27 92.7479 72.4335 92.9762 73.8785C93.0325 74.2351 93.0888 74.5729 93.1389 74.8982C93.1878 75.0637 93.1756 75.2413 93.1045 75.3986C93.0779 75.4381 93.0427 75.4711 93.0015 75.4949C92.9603 75.5188 92.9143 75.5329 92.8668 75.5362C92.7952 75.5464 92.7225 75.5464 92.651 75.5362C92.375 75.5139 92.1028 75.4572 91.8409 75.3673Z" fill="#263238"/>
<path d="M90.3448 75.4267C90.4262 75.4267 90.3198 75.9647 90.6951 76.4276C91.0705 76.8905 91.6335 76.9468 91.6335 77.0218C91.6335 77.0969 91.4896 77.0969 91.2519 77.0562C90.9421 76.9991 90.6621 76.8353 90.4606 76.5933C90.2696 76.3588 90.1766 76.0596 90.201 75.7582C90.226 75.533 90.3104 75.4142 90.3448 75.4267Z" fill="#263238"/>
<path d="M91.3033 69.5439C91.2314 69.6691 90.7591 69.5095 90.1742 69.4626C89.5893 69.4157 89.1014 69.4814 89.0482 69.3469C89.0263 69.2843 89.1327 69.178 89.3422 69.0873C89.6203 68.9776 89.9203 68.9347 90.218 68.9622C90.5175 68.985 90.8071 69.0794 91.0625 69.2374C91.2533 69.3625 91.3315 69.4877 91.3033 69.5439Z" fill="#263238"/>
<path d="M95.6887 70.8474C95.5823 70.9412 95.2727 70.7598 94.8692 70.6722C94.4657 70.5846 94.1123 70.6003 94.0591 70.4689C94.0341 70.4063 94.1092 70.3062 94.2812 70.2312C94.5052 70.1429 94.7512 70.1265 94.9849 70.1843C95.2208 70.234 95.4345 70.3578 95.5949 70.5377C95.7106 70.6784 95.7387 70.8004 95.6887 70.8474Z" fill="#263238"/>
<path d="M85.3293 72.0576C85.2793 72.0232 83.2869 70.9817 82.9241 73.1555C82.5613 75.3292 84.8195 75.2448 84.832 75.1822C84.8445 75.1197 85.3293 72.0576 85.3293 72.0576Z" fill="#FFBE9D"/>
<path d="M84.3084 74.2457C84.3084 74.2457 84.2677 74.2676 84.1989 74.2864C84.1023 74.3095 84.0006 74.2949 83.9143 74.2457C83.7876 74.134 83.6935 73.9902 83.6417 73.8295C83.59 73.6687 83.5826 73.497 83.6203 73.3324C83.6453 73.1446 83.7127 72.9649 83.8173 72.807C83.8469 72.7421 83.8916 72.6853 83.9477 72.6412C84.0037 72.5971 84.0695 72.5671 84.1395 72.5536C84.1853 72.5498 84.231 72.562 84.2687 72.5883C84.3064 72.6146 84.3337 72.6532 84.3459 72.6975C84.3647 72.76 84.3459 72.8038 84.3459 72.807C84.3459 72.8101 84.3991 72.7788 84.396 72.6881C84.3926 72.6324 84.3706 72.5795 84.3334 72.538C84.3081 72.5099 84.2772 72.4874 84.2428 72.4718C84.2083 72.4562 84.171 72.4478 84.1332 72.4473C84.0414 72.4499 83.9519 72.4761 83.873 72.5231C83.7942 72.5702 83.7287 72.6367 83.6828 72.7162C83.5586 72.8894 83.4781 73.0901 83.4483 73.3011C83.3888 73.7422 83.5452 74.1894 83.8455 74.3302C83.9011 74.357 83.962 74.371 84.0238 74.371C84.0855 74.371 84.1465 74.357 84.202 74.3302C84.2959 74.2989 84.3146 74.252 84.3084 74.2457Z" fill="#EB996E"/>
<path d="M97.3734 70.363C96.6384 70.4027 95.9045 70.2674 95.232 69.9684C94.5594 69.6693 93.9673 69.215 93.5044 68.6428C92.8789 67.8358 92.4629 66.7817 91.559 66.2938C91.2477 66.1406 90.9091 66.0507 90.5628 66.0292C90.2165 66.0078 89.8694 66.0552 89.5416 66.1687C88.889 66.402 88.2909 66.766 87.7838 67.2384C88.0715 68.9649 87.3052 70.6789 86.5577 72.2428C86.4933 72.4273 86.3688 72.5848 86.2043 72.6901C85.9103 72.8371 85.56 72.6056 85.3817 72.3273C85.1318 71.8606 85.0232 71.3314 85.0689 70.804C85.0756 69.6024 85.3201 68.4139 85.7883 67.3072C86.2637 66.1972 87.0543 65.2511 88.0622 64.5861C89.3548 63.7968 90.9033 63.54 92.3816 63.8698C93.8514 64.2117 95.1764 65.0072 96.1692 66.1437C96.653 66.6474 97.0044 67.2631 97.192 67.9359" fill="#263238"/>
<path d="M9.84216 121.298C9.85584 121.252 9.87473 121.208 9.89846 121.166L10.0736 120.788C10.2893 120.299 10.464 119.792 10.5959 119.274C10.94 117.929 11.0588 115.874 10.549 113.435C10.2747 112.104 9.91323 110.793 9.46683 109.509C9.00705 108.117 8.47534 106.641 8.04058 105.043C7.54972 103.376 7.31249 101.645 7.33685 99.907C7.40253 98.0898 7.9405 96.2757 8.53164 94.471C9.12278 92.6663 9.73269 90.8959 9.9141 89.1194C10.1191 87.41 9.77632 85.6797 8.93511 84.1775C8.15005 82.7325 7.16795 81.5002 6.43293 80.2209C5.74401 79.0363 5.23588 77.7554 4.92537 76.4207C4.48232 74.4857 4.45035 72.4793 4.83153 70.5311C4.97175 69.8191 5.18126 69.1224 5.45708 68.4512C5.44974 68.499 5.43823 68.5461 5.42268 68.5919L5.29757 68.9891C4.56165 71.3912 4.48281 73.9466 5.06924 76.3894C5.38266 77.7089 5.89187 78.974 6.57993 80.1427C7.31495 81.3938 8.30331 82.6449 9.10088 84.0931C9.95514 85.6248 10.3043 87.387 10.0986 89.1288C9.91409 90.9366 9.29793 92.7163 8.70992 94.521C8.12191 96.3257 7.58706 98.1179 7.52138 99.9039C7.49415 101.624 7.72504 103.338 8.20635 104.99C8.63485 106.579 9.16344 108.055 9.61383 109.453C10.0565 110.744 10.4128 112.062 10.6804 113.4C11.1777 115.859 11.0338 117.935 10.6804 119.283C10.5425 119.803 10.3561 120.309 10.1237 120.794C10.0423 120.951 9.97665 121.073 9.92973 121.166C9.90484 121.213 9.87551 121.257 9.84216 121.298Z" fill="#263238"/>
<path d="M7.42807 81.4811C7.42807 81.4811 5.92989 76.6956 8.61661 73.8932C8.63742 73.8706 8.66409 73.8543 8.69363 73.846C8.72318 73.8377 8.75444 73.8378 8.78395 73.8462C8.81345 73.8546 8.84004 73.8711 8.86075 73.8938C8.88145 73.9164 8.89547 73.9443 8.90123 73.9745C9.04511 74.7658 9.22339 77.1742 7.42807 81.4811Z" fill="#339999"/>
<path d="M8.33062 75.4883C8.3256 75.785 8.29102 76.0805 8.2274 76.3703C8.13044 76.9959 8.01472 77.6933 7.88648 78.4815C7.75824 79.2697 7.64877 79.986 7.55181 80.5928C7.52652 80.8891 7.47311 81.1823 7.3923 81.4685C7.36701 81.1713 7.37645 80.8722 7.42045 80.5771C7.47049 80.0298 7.56745 79.2791 7.70194 78.4534C7.83644 77.6277 7.98031 76.8895 8.09917 76.3484C8.14303 76.0538 8.22069 75.7652 8.33062 75.4883Z" fill="#263238"/>
<path d="M9.18689 92.7735C9.18689 92.7735 10.1033 87.841 13.7878 86.6274C13.8168 86.6173 13.8481 86.6154 13.8781 86.6221C13.9082 86.6287 13.9358 86.6436 13.9578 86.665C13.9799 86.6864 13.9956 86.7135 14.0031 86.7434C14.0106 86.7732 14.0097 86.8045 14.0005 86.8339C13.7628 87.5908 12.79 89.8052 9.18689 92.7735Z" fill="#339999"/>
<path d="M12.7838 87.8936C12.6407 88.1537 12.472 88.3989 12.2802 88.6255C11.9112 89.1196 11.4733 89.6951 10.9916 90.3332L9.69672 92.0441C9.53507 92.293 9.35079 92.5265 9.14624 92.7416C9.26253 92.4667 9.41054 92.2064 9.58725 91.9659C9.90002 91.5061 10.3223 90.8868 10.8383 90.2206C11.3544 89.5544 11.8204 88.9695 12.1739 88.5441C12.3514 88.3045 12.5561 88.0862 12.7838 87.8936Z" fill="#263238"/>
<path d="M8.19104 105.142C8.19104 105.142 7.6343 100.157 10.8058 97.9171C10.8308 97.8991 10.8603 97.8884 10.891 97.8862C10.9217 97.884 10.9524 97.8904 10.9797 97.9047C11.007 97.919 11.0298 97.9406 11.0455 97.9671C11.0611 97.9936 11.0691 98.0239 11.0685 98.0547C11.0592 98.8554 10.7745 101.254 8.19104 105.142Z" fill="#339999"/>
<path d="M10.2162 99.4287C10.1567 99.72 10.0666 100.004 9.94722 100.276C9.73453 100.855 9.48744 101.527 9.20908 102.284L8.48031 104.292C8.40279 104.578 8.29806 104.856 8.16754 105.121C8.20065 104.825 8.26674 104.533 8.36459 104.252C8.51785 103.723 8.75555 103.001 9.04643 102.219C9.33731 101.437 9.62193 100.733 9.83775 100.229C9.93319 99.9491 10.0602 99.6804 10.2162 99.4287Z" fill="#263238"/>
<path d="M10.9668 117.591C10.9668 117.591 10.5883 112.586 13.838 110.466C13.8634 110.448 13.8932 110.438 13.924 110.437C13.9548 110.435 13.9854 110.442 14.0124 110.457C14.0393 110.472 14.0616 110.494 14.0767 110.521C14.0917 110.548 14.099 110.579 14.0976 110.61C14.057 111.407 13.6879 113.794 10.9668 117.591Z" fill="#339999"/>
<path d="M13.1919 111.961C13.1169 112.25 13.0121 112.531 12.8792 112.799C12.6446 113.368 12.3725 114.05 12.0691 114.776L11.2653 116.759C11.1833 117.035 11.0765 117.303 10.9462 117.56C10.9883 117.265 11.0649 116.976 11.1746 116.699C11.3435 116.177 11.6093 115.467 11.9283 114.695C12.2474 113.922 12.5539 113.228 12.7885 112.733C12.8942 112.462 13.0295 112.203 13.1919 111.961Z" fill="#263238"/>
<path d="M5.27754 77.2768C5.27754 77.2768 0.833039 74.956 0.745462 71.0745C0.744099 71.0437 0.751355 71.0131 0.766415 70.9862C0.781475 70.9593 0.803742 70.9371 0.830713 70.9222C0.857684 70.9072 0.88829 70.9001 0.91909 70.9016C0.94989 70.9031 0.979663 70.9131 1.00506 70.9306C1.66501 71.3873 3.49474 72.9605 5.27754 77.2768Z" fill="#339999"/>
<path d="M1.66913 72.4072C1.87688 72.6192 2.06238 72.8518 2.22274 73.1016L3.47383 74.8344L4.72492 76.564C4.91551 76.7911 5.08511 77.035 5.23161 77.2928C4.99642 77.1044 4.78621 76.8869 4.60607 76.6453C4.25263 76.2262 3.7866 75.6257 3.29868 74.947C2.81075 74.2682 2.38538 73.6396 2.08824 73.1767C1.91965 72.937 1.77903 72.6788 1.66913 72.4072Z" fill="#263238"/>
<path d="M10.05 87.5661C10.05 87.5661 5.47414 85.5206 5.14885 81.6515C5.14626 81.6211 5.15211 81.5906 5.16575 81.5633C5.17939 81.536 5.20029 81.513 5.22617 81.4969C5.25204 81.4807 5.28187 81.472 5.31238 81.4717C5.34289 81.4714 5.37289 81.4795 5.39907 81.4952C6.08717 81.8986 8.01073 83.3593 10.05 87.5661Z" fill="#339999"/>
<path d="M6.15094 82.917C6.37055 83.1166 6.56963 83.3377 6.74521 83.5769L8.10264 85.2315L9.46321 86.8799C9.66627 87.0901 9.84852 87.3195 10.0074 87.5648C9.76892 87.3812 9.55176 87.1713 9.35999 86.9393C8.98154 86.5389 8.4811 85.9697 7.95251 85.3222C7.42393 84.6748 6.96102 84.0711 6.63887 83.6301C6.44979 83.4116 6.2861 83.1724 6.15094 82.917Z" fill="#263238"/>
<path d="M7.41654 99.0256C7.41654 99.0256 4.27318 95.1159 5.74946 91.5189C5.76069 91.4905 5.77956 91.4658 5.80398 91.4474C5.8284 91.429 5.85742 91.4177 5.88784 91.4148C5.91827 91.4119 5.9489 91.4175 5.97637 91.4309C6.00383 91.4443 6.02705 91.465 6.04347 91.4908C6.46571 92.182 7.50725 94.3558 7.41654 99.0256Z" fill="#339999"/>
<path d="M6.05835 93.1172C6.16356 93.3943 6.24007 93.6815 6.28667 93.9742C6.41804 94.5778 6.5713 95.2847 6.74332 96.0667C6.91535 96.8486 7.0561 97.5523 7.2031 98.1529C7.28677 98.4379 7.34435 98.73 7.37513 99.0255C7.23624 98.7603 7.13116 98.4787 7.06235 98.1873C6.90597 97.6587 6.72143 96.9362 6.54628 96.1042C6.37112 95.2722 6.2335 94.5403 6.14593 94.0023C6.08445 93.7114 6.05509 93.4146 6.05835 93.1172Z" fill="#263238"/>
<path d="M10.5347 112.518C10.5347 112.518 5.9901 110.398 5.73363 106.519C5.73166 106.489 5.73796 106.459 5.75185 106.432C5.76575 106.405 5.7867 106.383 5.81246 106.367C5.83822 106.351 5.8678 106.343 5.89801 106.343C5.92821 106.343 5.95789 106.351 5.98385 106.366C6.66569 106.795 8.56423 108.287 10.5347 112.518Z" fill="#339999"/>
<path d="M6.70917 107.812C6.92633 108.014 7.1223 108.238 7.29405 108.481C7.67564 108.966 8.12603 109.532 8.62334 110.157L9.95575 111.831C10.1561 112.05 10.3362 112.286 10.4937 112.538C10.261 112.355 10.051 112.145 9.86818 111.912C9.4991 111.509 9.00805 110.93 8.49197 110.273C7.9759 109.616 7.50674 109.009 7.19397 108.562C7.00596 108.33 6.84343 108.078 6.70917 107.812Z" fill="#263238"/>
<path d="M19.5804 92.7959C19.5848 92.8333 19.5848 92.8711 19.5804 92.9085C19.5804 92.9961 19.5804 93.0993 19.5804 93.2213C19.5804 93.534 19.5492 93.9313 19.5273 94.438C19.4678 95.5077 19.3865 96.9965 19.2896 98.7824C18.9768 100.597 18.0385 102.608 16.7874 104.559C15.8772 105.998 14.9107 107.309 14.1007 108.525C13.3517 109.588 12.6776 110.701 12.0833 111.856C11.6946 112.641 11.3805 113.459 11.1449 114.302C11.0636 114.599 11.0042 114.834 10.9698 114.994C10.956 115.076 10.934 115.157 10.9041 115.234C10.9051 115.151 10.9145 115.069 10.9323 114.987C10.9542 114.825 11.0042 114.587 11.073 114.284C11.2853 113.421 11.585 112.583 11.9675 111.781C12.5489 110.612 13.2148 109.486 13.9599 108.413C14.7762 107.187 15.7271 105.876 16.6341 104.447C17.8852 102.501 18.786 100.521 19.1363 98.7355C19.2614 96.9558 19.3646 95.467 19.4491 94.3973C19.4897 93.8906 19.5241 93.484 19.546 93.1837C19.546 93.0586 19.5711 92.9523 19.5804 92.871C19.5777 92.846 19.5777 92.8208 19.5804 92.7959Z" fill="#263238"/>
<path d="M16.89 104.204C16.89 104.204 18.8135 99.5721 16.3927 96.5382C16.3739 96.5139 16.3487 96.4952 16.32 96.4844C16.2912 96.4735 16.26 96.4708 16.2299 96.4767C16.1997 96.4825 16.1717 96.4966 16.1491 96.5174C16.1265 96.5382 16.1101 96.5649 16.1018 96.5945C15.8735 97.3702 15.4762 99.7629 16.89 104.204Z" fill="#339999"/>
<path d="M16.5244 98.1553C16.6074 98.4407 16.6587 98.7344 16.6777 99.0311C16.7465 99.5753 16.8215 100.329 16.881 101.164C16.9404 101.999 16.9685 102.756 16.9685 103.304C16.9878 103.601 16.97 103.899 16.9154 104.192C16.861 103.901 16.8348 103.606 16.8372 103.31C16.7965 102.684 16.7465 101.974 16.6933 101.177C16.6401 100.379 16.587 99.6566 16.5463 99.0436C16.5098 98.7489 16.5025 98.4514 16.5244 98.1553Z" fill="#263238"/>
<g opacity="0.3">
<path d="M16.8866 104.203C16.8866 104.203 18.8102 99.5712 16.3893 96.5372C16.3705 96.5129 16.3454 96.4942 16.3166 96.4834C16.2879 96.4725 16.2567 96.4698 16.2265 96.4757C16.1963 96.4815 16.1684 96.4956 16.1458 96.5165C16.1231 96.5373 16.1068 96.564 16.0984 96.5935C15.8701 97.3692 15.4729 99.762 16.8866 104.203Z" fill="black"/>
</g>
<path d="M10.9153 115.364C10.9153 115.364 12.4573 110.594 9.79872 107.767C9.77812 107.744 9.75169 107.728 9.72236 107.719C9.69303 107.711 9.66193 107.711 9.63249 107.719C9.60305 107.727 9.57642 107.743 9.55553 107.765C9.53464 107.787 9.5203 107.815 9.5141 107.845C9.36084 108.633 9.16066 111.038 10.9153 115.364Z" fill="#339999"/>
<path d="M10.0757 109.362C10.182 109.641 10.2565 109.93 10.2978 110.226C10.4104 110.76 10.548 111.505 10.6763 112.334C10.8045 113.163 10.8921 113.913 10.9359 114.461C10.9784 114.756 10.9847 115.055 10.9546 115.352C10.8785 115.065 10.8282 114.772 10.8045 114.476C10.7138 113.851 10.6075 113.153 10.4917 112.362C10.376 111.57 10.2634 110.857 10.179 110.247C10.1155 109.957 10.081 109.66 10.0757 109.362Z" fill="#263238"/>
<g opacity="0.3">
<path d="M10.9184 115.364C10.9184 115.364 12.4603 110.594 9.80177 107.767C9.78117 107.744 9.75474 107.728 9.72541 107.719C9.69608 107.711 9.66498 107.711 9.63554 107.719C9.60611 107.727 9.57947 107.743 9.55858 107.765C9.53769 107.787 9.52335 107.815 9.51715 107.845C9.36389 108.633 9.16372 111.038 10.9184 115.364Z" fill="black"/>
</g>
<path d="M19.3232 98.5467C19.3232 98.5467 23.4331 95.6692 23.0171 91.8095C23.0144 91.7789 23.0033 91.7497 22.9849 91.725C22.9666 91.7004 22.9418 91.6813 22.9132 91.6699C22.8847 91.6586 22.8535 91.6554 22.8233 91.6607C22.793 91.666 22.7648 91.6796 22.7419 91.7001C22.1476 92.2568 20.5337 94.0365 19.3232 98.5467Z" fill="#339999"/>
<g opacity="0.3">
<path d="M19.3209 98.5467C19.3209 98.5467 23.4307 95.6692 23.0147 91.8095C23.012 91.7789 23.0009 91.7497 22.9826 91.725C22.9642 91.7004 22.9394 91.6813 22.9108 91.6699C22.8823 91.6586 22.8511 91.6554 22.8209 91.6607C22.7906 91.666 22.7624 91.6796 22.7395 91.7001C22.1452 92.2568 20.5313 94.0365 19.3209 98.5467Z" fill="black"/>
</g>
<path d="M22.2759 93.2529C22.1929 93.5378 22.0786 93.8127 21.935 94.0724C21.7004 94.5697 21.3595 95.2453 20.9623 95.9835C20.5651 96.7216 20.1835 97.3753 19.8863 97.8382C19.7443 98.0997 19.5687 98.3416 19.364 98.5576C19.4768 98.2832 19.614 98.0194 19.7737 97.7694L20.7965 95.8928L21.8162 94.0161C21.9427 93.7466 22.0968 93.4908 22.2759 93.2529Z" fill="#263238"/>
<path d="M12.5717 110.636C12.5717 110.636 17.5166 109.863 18.8553 106.217C18.8663 106.188 18.8692 106.156 18.8634 106.126C18.8577 106.096 18.8437 106.068 18.8229 106.045C18.8021 106.022 18.7754 106.006 18.7458 105.997C18.7161 105.989 18.6847 105.989 18.6551 105.998C17.8825 106.217 15.64 107.12 12.5717 110.636Z" fill="#339999"/>
<g opacity="0.3">
<path d="M12.5695 110.636C12.5695 110.636 17.5144 109.863 18.8531 106.217C18.8641 106.188 18.867 106.156 18.8612 106.126C18.8555 106.096 18.8415 106.068 18.8207 106.045C18.7999 106.022 18.7732 106.006 18.7436 105.997C18.7139 105.989 18.6825 105.989 18.6529 105.998C17.8803 106.217 15.6378 107.12 12.5695 110.636Z" fill="black"/>
</g>
<path d="M17.5535 107.183C17.3537 107.4 17.1315 107.596 16.8904 107.768C16.4619 108.112 15.8583 108.568 15.1764 109.053C14.4946 109.538 13.8628 109.96 13.3968 110.248C13.1518 110.418 12.8871 110.557 12.6086 110.664C12.8298 110.466 13.0685 110.289 13.3217 110.135L15.0701 108.903L16.8123 107.652C17.0424 107.47 17.2908 107.313 17.5535 107.183Z" fill="#263238"/>
<path d="M7.84345 119.756L6.39844 129.483H15.4063L14.2365 119.756H7.84345Z" fill="#455A64"/>
<path d="M14.6007 122.769C14.6007 122.822 12.9743 122.863 10.9663 122.863C8.95831 122.863 7.33502 122.822 7.33502 122.769C8.54309 122.676 9.75508 122.645 10.9663 122.675C12.1786 122.645 13.3916 122.676 14.6007 122.769Z" fill="#263238"/>
<path d="M14.7796 123.533C14.7796 123.583 13.1 123.627 11.0263 123.627C8.9526 123.627 7.27301 123.583 7.27301 123.533C7.27301 123.483 8.9526 123.439 11.0263 123.439C13.1 123.439 14.7796 123.489 14.7796 123.533Z" fill="#263238"/>
</svg>
