<svg width="87" height="86" viewBox="0 0 87 86" fill="none" xmlns="http://www.w3.org/2000/svg">
<path d="M83.4045 2.4043V17.9662H61.0534L60.248 2.51194L83.4045 2.4043Z" fill="#E0E0E0"/>
<path d="M60.248 2.512V17.9336H82.5992V2.512L60.248 2.512Z" fill="white"/>
<path d="M82.707 18.0393H60.1426V2.40625H82.707V18.0393ZM60.354 17.8278H82.4937V2.61769H60.354V17.8278Z" fill="#E0E0E0"/>
<path d="M80.1791 4.42871H62.6699V16.0175H80.1791V4.42871Z" fill="white"/>
<path d="M80.1798 4.42867H80.0933H79.8453H78.8842L75.2763 4.44212L62.6726 4.46711L62.7225 4.41713C62.7225 7.95778 62.7225 11.8809 62.7225 16.004L62.6687 15.9483L80.1779 15.9598L80.1336 16.004C80.1432 12.4768 80.1509 9.58586 80.1567 7.57142C80.1567 6.56612 80.1663 5.77995 80.1682 5.23982C80.1682 4.97456 80.1682 4.77081 80.1682 4.62857C80.1682 4.48825 80.1682 4.41521 80.1682 4.41521C80.1682 4.41521 80.1682 4.48249 80.1682 4.61896C80.1682 4.75544 80.1682 4.96111 80.1682 5.22252C80.1682 5.76073 80.1682 6.54306 80.1798 7.54451C80.1798 9.56471 80.1932 12.4653 80.2028 16.0021V16.0463H80.1586L62.6495 16.0578H62.5938V16.0021C62.5938 11.879 62.5938 7.95586 62.5938 4.41521V4.36523H62.6457L75.3186 4.40368L78.915 4.41713H79.8665H80.1087L80.1798 4.42867Z" fill="#E0E0E0"/>
<path d="M60.248 2.46973C60.3859 2.5362 60.5151 2.61949 60.6325 2.71769C60.8612 2.88299 61.1726 3.1175 61.509 3.3866C61.8454 3.65571 62.1414 3.90944 62.349 4.10165C62.4696 4.19633 62.5775 4.30616 62.67 4.42842C62.2441 4.12891 61.8335 3.80814 61.4398 3.46734C61.0224 3.15963 60.6244 2.82646 60.248 2.46973Z" fill="#E0E0E0"/>
<path d="M82.6016 2.51172C82.2334 2.87266 81.8403 3.20731 81.4253 3.51317C81.032 3.8469 80.6158 4.15264 80.1797 4.42813C80.5474 4.06667 80.9405 3.73199 81.3561 3.42667C81.7493 3.09294 82.1656 2.78721 82.6016 2.51172Z" fill="#E0E0E0"/>
<path d="M82.5809 17.9352L80.082 15.915L82.5809 17.9352Z" fill="white"/>
<path d="M80.0898 15.915C80.5377 16.2062 80.9654 16.5273 81.37 16.8761C81.7974 17.1991 82.202 17.551 82.581 17.9295C82.1331 17.6383 81.7054 17.3172 81.3008 16.9684C80.8735 16.6455 80.4689 16.2935 80.0898 15.915Z" fill="#E0E0E0"/>
<path d="M60.248 17.9333C60.6121 17.5753 61.0014 17.2439 61.4129 16.9415C61.8009 16.6106 62.2127 16.3086 62.645 16.0381C62.2811 16.3957 61.8918 16.7265 61.4802 17.028C61.0919 17.3592 60.6801 17.6617 60.248 17.9333Z" fill="#E0E0E0"/>
<path d="M66.2246 8.03808V11.9189H77.2425V8.03808H66.2246Z" fill="#E0E0E0"/>
<path d="M67.1823 85.8057H87V28.2846H67.1823V85.8057Z" fill="#E0E0E0"/>
<path d="M56.5446 85.8057H78.2422V28.2846H56.5446L56.5446 85.8057Z" fill="#F5F5F5"/>
<path d="M69.866 72.3828H64.0687C63.9591 72.3828 63.854 72.3393 63.7765 72.2618C63.699 72.1843 63.6555 72.0792 63.6555 71.9695V71.6255H70.2793V71.9695C70.2793 72.0792 70.2358 72.1843 70.1583 72.2618C70.0807 72.3393 69.9756 72.3828 69.866 72.3828Z" fill="#E0E0E0"/>
<path d="M57.5053 71.6255C57.5053 71.6255 57.5053 71.6946 57.5053 71.833C57.5053 71.9714 57.5053 72.181 57.5053 72.4501C57.5053 72.9979 57.5053 73.7956 57.4938 74.8239C57.4938 76.8903 57.4803 79.862 57.4707 83.5006V83.5449H57.5149L76.8501 83.5564H76.9155V83.5006C76.9155 79.2988 76.9155 75.291 76.9155 71.6428V71.5928H76.8559L62.9047 71.6043L58.9239 71.6139H57.8686H57.5976H57.5091H57.6053H57.8801H58.945L62.9393 71.6312L76.8559 71.6697L76.804 71.6178C76.804 75.2699 76.804 79.2738 76.804 83.4757L76.8597 83.4218H76.8482L57.513 83.4334L57.5553 83.4757C57.5457 79.8485 57.538 76.8845 57.5322 74.8259C57.5322 73.7956 57.5322 72.9921 57.5226 72.4424C57.5226 72.1694 57.5226 71.9618 57.5226 71.8177C57.5226 71.6735 57.5053 71.6255 57.5053 71.6255Z" fill="#E0E0E0"/>
<path d="M63.9169 76.083H69.6738V74.528H63.9169V76.083Z" fill="#E0E0E0"/>
<path d="M70.1297 58.543H64.3343C64.2247 58.543 64.1196 58.4994 64.0421 58.4219C63.9646 58.3444 63.9211 58.2393 63.9211 58.1297V57.7856H70.543V58.1297C70.543 58.2393 70.4994 58.3444 70.4219 58.4219C70.3444 58.4994 70.2393 58.543 70.1297 58.543Z" fill="#E0E0E0"/>
<path d="M57.558 57.7837C57.558 57.7837 57.558 57.8529 57.558 57.9912C57.558 58.1296 57.558 58.3411 57.558 58.6083C57.558 59.1561 57.558 59.9538 57.5465 60.9822C57.5465 63.0485 57.533 66.0202 57.5234 69.6608V69.7031H57.5676L76.9029 69.7146H76.9682V69.6608C76.9682 65.457 76.9682 61.4492 76.9682 57.8029V57.751H76.9182L62.9671 57.7625L58.9862 57.774H57.9309H57.6599H57.5715H57.6676H57.9425H59.0074L63.0016 57.7933L76.9182 57.8298L76.8663 57.7798C76.8663 61.4319 76.8663 65.4339 76.8663 69.6377L76.9221 69.582H76.9105L57.5753 69.5935L57.6176 69.6377C57.608 66.0086 57.6003 63.0466 57.5946 60.9879C57.5946 59.9576 57.5946 59.1542 57.5946 58.6044C57.5946 58.3334 57.5946 58.1239 57.5946 57.9797C57.5946 57.8356 57.558 57.7837 57.558 57.7837Z" fill="#E0E0E0"/>
<path d="M64.3524 62.1494H70.1094V60.5944H64.3524V62.1494Z" fill="#E0E0E0"/>
<path d="M69.8777 30.6123H64.0805C63.9708 30.6123 63.8657 30.5688 63.7882 30.4913C63.7107 30.4138 63.6672 30.3086 63.6672 30.199V29.855H70.291V30.199C70.291 30.2533 70.2803 30.307 70.2596 30.3572C70.2388 30.4073 70.2084 30.4529 70.17 30.4913C70.1316 30.5296 70.086 30.5601 70.0359 30.5808C69.9858 30.6016 69.932 30.6123 69.8777 30.6123Z" fill="#E0E0E0"/>
<path d="M57.5151 29.853C57.5151 29.853 57.5151 29.9222 57.5151 30.0606C57.5151 30.199 57.5151 30.4104 57.5151 30.6776C57.5151 31.2254 57.5151 32.0231 57.5055 33.0515C57.5055 35.1178 57.492 38.0895 57.4824 41.7301V41.7724H57.5247L76.8618 41.7858H76.9272V41.7301C76.9272 37.5263 76.9272 33.5186 76.9272 29.8722V29.8203H76.8561L62.9068 29.8318L58.9241 29.8434H57.8688H57.5997H57.5093C57.5413 29.8451 57.5734 29.8451 57.6054 29.8434H57.8803H58.9471L62.9395 29.8607L76.8561 29.8972L76.8042 29.8472C76.8042 33.4994 76.8042 37.5013 76.8042 41.7051L76.8599 41.6494L57.5228 41.6609L57.567 41.7051C57.5574 38.076 57.5497 35.114 57.5439 33.0553C57.5439 32.025 57.5343 31.2216 57.5324 30.6718C57.5324 30.4008 57.5324 30.1913 57.5324 30.0471C57.5324 29.903 57.5151 29.853 57.5151 29.853Z" fill="#E0E0E0"/>
<path d="M64.204 33.9395H69.9609V32.3844H64.204V33.9395Z" fill="#E0E0E0"/>
<path d="M69.8776 44.5732H64.0803C63.9707 44.5732 63.8656 44.5297 63.7881 44.4522C63.7106 44.3747 63.667 44.2696 63.667 44.16V43.8044H70.2909V44.1484C70.2924 44.2037 70.2829 44.2587 70.2628 44.3101C70.2427 44.3616 70.2125 44.4085 70.174 44.4481C70.1354 44.4878 70.0894 44.5192 70.0385 44.5407C69.9875 44.5622 69.9328 44.5733 69.8776 44.5732Z" fill="#E0E0E0"/>
<path d="M57.5151 43.808C57.5151 43.808 57.5151 43.8772 57.5151 44.0156C57.5151 44.154 57.5151 44.3635 57.5151 44.6326C57.5151 45.1805 57.5151 45.9782 57.5055 47.0065C57.5055 49.0729 57.492 52.0445 57.4824 55.6832V55.7255H57.5247L76.8618 55.737H76.9272V55.6813C76.9272 51.4794 76.9272 47.4717 76.9272 43.8234V43.7734H76.8561L62.9068 43.785H58.9241H57.8688H57.5997H57.5093H57.6054H57.8803H58.9471L62.9395 43.8023L76.8561 43.8407L76.8042 43.7888C76.8042 47.4409 76.8042 51.4448 76.8042 55.6467L76.8599 55.5929L57.5228 55.6044L57.567 55.6467C57.5574 52.0196 57.5497 49.0556 57.5439 46.9969C57.5439 45.9666 57.5343 45.1632 57.5324 44.6134C57.5324 44.3405 57.5324 44.1329 57.5324 43.9887C57.5324 43.8446 57.5151 43.808 57.5151 43.808Z" fill="#E0E0E0"/>
<path d="M64.204 47.8965H69.9609V46.3414H64.204V47.8965Z" fill="#E0E0E0"/>
<path d="M26.0386 2.01562H5.26172V20.603H26.0386V2.01562Z" fill="#FAFAFA"/>
<path d="M26.0381 20.6036C26.0381 20.6036 26.0381 20.4844 26.0381 20.2576C26.0381 20.0308 26.0381 19.6963 26.0381 19.2619C26.0381 18.3892 26.0381 17.1148 26.0246 15.4887C26.0246 12.2421 26.0112 7.60776 26.0015 2.01615L26.0477 2.06229H5.27276L5.3285 2.00654C5.3285 8.76875 5.3285 15.1311 5.3285 20.594L5.27852 20.544L20.3061 20.569L24.5445 20.5824H25.6671H25.9554H26.0554H25.9612H25.6767H24.5657L20.3369 20.594L5.27852 20.619H5.23047V20.5709C5.23047 15.1081 5.23047 8.74569 5.23047 1.98348V1.92773H5.28813H26.063H26.1111V1.97579C26.0996 7.57316 26.0919 12.2229 26.0861 15.4791C26.0861 17.0995 26.0765 18.3623 26.0746 19.2408C26.0746 19.6713 26.0746 20.0096 26.0746 20.2288C26.0746 20.4479 26.0381 20.6036 26.0381 20.6036Z" fill="#E0E0E0"/>
<path d="M13.2319 5.31844C13.2319 5.34919 12.1382 5.37418 10.7888 5.37418C9.43945 5.37418 8.34766 5.34919 8.34766 5.31844C8.34766 5.28768 9.43945 5.2627 10.7888 5.2627C12.1382 5.2627 13.2319 5.28768 13.2319 5.31844Z" fill="#E0E0E0"/>
<path d="M22.0321 6.71004C22.0321 6.74079 19.0277 6.76578 15.3217 6.76578C11.6158 6.76578 8.61719 6.74464 8.61719 6.71004C8.61719 6.67544 11.6216 6.6543 15.3275 6.6543C19.0335 6.6543 22.0321 6.68313 22.0321 6.71004Z" fill="#E0E0E0"/>
<path d="M9.2535 9.07812H8.37891V9.95271H9.2535V9.07812Z" fill="#E0E0E0"/>
<path d="M11.4097 9.07812H10.5352V9.95271H11.4097V9.07812Z" fill="#E0E0E0"/>
<path d="M13.6031 9.03809H12.7285V9.91268H13.6031V9.03809Z" fill="#E0E0E0"/>
<path d="M15.7183 9.07812H14.8438V9.95271H15.7183V9.07812Z" fill="#E0E0E0"/>
<path d="M17.8726 9.07812H16.998V9.95271H17.8726V9.07812Z" fill="#E0E0E0"/>
<path d="M20.0269 9.07812H19.1523V9.95271H20.0269V9.07812Z" fill="#E0E0E0"/>
<path d="M22.1832 9.07812H21.3086V9.95271H22.1832V9.07812Z" fill="#EBEBEB"/>
<path d="M9.2535 10.9385H8.37891V11.8131H9.2535V10.9385Z" fill="#EBEBEB"/>
<path d="M11.4097 10.9385H10.5352V11.8131H11.4097V10.9385Z" fill="#E0E0E0"/>
<path d="M13.564 10.9385H12.6895V11.8131H13.564V10.9385Z" fill="#EBEBEB"/>
<path d="M15.7183 10.9385H14.8438V11.8131H15.7183V10.9385Z" fill="#E0E0E0"/>
<path d="M17.8726 10.9385H16.998V11.8131H17.8726V10.9385Z" fill="#E0E0E0"/>
<path d="M20.066 10.8984H19.1914V11.773H20.066V10.8984Z" fill="#E0E0E0"/>
<path d="M22.1832 10.9385H21.3086V11.8131H22.1832V10.9385Z" fill="#E0E0E0"/>
<path d="M9.2535 12.7998H8.37891V13.6744H9.2535V12.7998Z" fill="#E0E0E0"/>
<path d="M11.4488 12.7588H10.5742V13.6334H11.4488V12.7588Z" fill="#E0E0E0"/>
<path d="M13.564 12.7998H12.6895V13.6744H13.564V12.7998Z" fill="#E0E0E0"/>
<path d="M15.7183 12.7998H14.8438V13.6744H15.7183V12.7998Z" fill="#EBEBEB"/>
<path d="M17.8726 12.7998H16.998V13.6744H17.8726V12.7998Z" fill="#E0E0E0"/>
<path d="M20.0269 12.7998H19.1523V13.6744H20.0269V12.7998Z" fill="#E0E0E0"/>
<path d="M22.1832 12.7998H21.3086V13.6744H22.1832V12.7998Z" fill="#E0E0E0"/>
<path d="M9.2535 14.6602H8.37891V15.5347H9.2535V14.6602Z" fill="#E0E0E0"/>
<path d="M11.4097 14.6602H10.5352V15.5347H11.4097V14.6602Z" fill="#E0E0E0"/>
<path d="M13.564 14.6602H12.6895V15.5347H13.564V14.6602Z" fill="#E0E0E0"/>
<path d="M15.7594 14.6221H14.8848V15.4967H15.7594V14.6221Z" fill="#E0E0E0"/>
<path d="M17.8726 14.6602H16.998V15.5347H17.8726V14.6602Z" fill="#E0E0E0"/>
<path d="M20.0269 14.6602H19.1523V15.5347H20.0269V14.6602Z" fill="#EBEBEB"/>
<path d="M22.1832 14.6602H21.3086V15.5347H22.1832V14.6602Z" fill="#E0E0E0"/>
<path d="M9.2535 16.5205H8.37891V17.3951H9.2535V16.5205Z" fill="#E0E0E0"/>
<path d="M11.4097 16.5205H10.5352V17.3951H11.4097V16.5205Z" fill="#EBEBEB"/>
<path d="M13.564 16.5205H12.6895V17.3951H13.564V16.5205Z" fill="#E0E0E0"/>
<path d="M15.7183 16.5205H14.8438V17.3951H15.7183V16.5205Z" fill="#E0E0E0"/>
<path d="M17.8726 16.5205H16.998V17.3951H17.8726V16.5205Z" fill="#E0E0E0"/>
<path d="M20.066 16.4824H19.1914V17.357H20.066V16.4824Z" fill="#E0E0E0"/>
<path d="M22.1832 16.5205H21.3086V17.3951H22.1832V16.5205Z" fill="#E0E0E0"/>
<path d="M43.503 29.6922L36.3379 32.3896L38.1563 37.2197L45.3214 34.5223L43.503 29.6922Z" fill="#EBEBEB"/>
<path d="M43.5487 29.7451C43.5382 29.7768 43.524 29.8071 43.5064 29.8355L43.3738 30.0853C43.2508 30.3064 43.0797 30.6178 42.8702 30.9984C42.4358 31.7672 41.8399 32.8321 41.1825 34.0066L41.169 34.0316H41.1402L41.0749 34.0104L37.7533 32.9205L36.748 32.5822L36.477 32.4881C36.4444 32.4785 36.4128 32.4657 36.3828 32.4496C36.416 32.4558 36.4487 32.4641 36.4808 32.4746L36.7576 32.5573L37.7687 32.8744L41.1037 33.9355L41.169 33.9566L41.1268 33.9739C41.7937 32.8033 42.3935 31.7461 42.8336 30.9753L43.3546 30.0719L43.5006 29.8278C43.5142 29.7988 43.5303 29.7712 43.5487 29.7451Z" fill="#E0E0E0"/>
<path d="M38.2 37.2723C38.1827 37.2723 38.471 36.4016 38.8477 35.3405C39.2245 34.2795 39.5416 33.4183 39.5589 33.4318C39.5762 33.4453 39.2879 34.3045 38.9131 35.354C38.5383 36.4035 38.2192 37.2723 38.2 37.2723Z" fill="#E0E0E0"/>
<path d="M41.92 32.477C41.9296 32.4597 42.71 32.9172 43.6615 33.4958C44.613 34.0744 45.3761 34.5588 45.3665 34.5761C45.3569 34.5934 44.5765 34.1359 43.625 33.5554C42.6735 32.9749 41.9104 32.4924 41.92 32.477Z" fill="#E0E0E0"/>
<path d="M52.7817 14.4473C52.9648 14.3362 53.162 14.2502 53.3679 14.1916L53.489 13.615L54.4693 13.5977L54.6116 14.1743C54.8193 14.2251 55.0192 14.304 55.2055 14.4088L55.7015 14.084L56.4069 14.7644L56.0994 15.2719C56.2103 15.4516 56.2963 15.6456 56.355 15.8485L56.9317 15.9677L56.949 16.9499L56.3723 17.0902C56.3211 17.2982 56.2429 17.4985 56.1397 17.6861L56.4646 18.1801L55.7822 18.8856L55.2767 18.5799C55.0931 18.6896 54.896 18.7749 54.6904 18.8337L54.5693 19.4103L53.589 19.4276L53.4467 18.851C53.2393 18.7994 53.0396 18.7205 52.8528 18.6165L52.3569 18.9413L51.6514 18.2589L51.959 17.7534C51.8476 17.5705 51.7616 17.3732 51.7033 17.1671L51.1267 17.046L51.1094 16.0657L51.686 15.9235C51.7369 15.7161 51.8152 15.5164 51.9186 15.3295L51.5938 14.8336L52.2761 14.1282L52.7817 14.4357V14.4473ZM53.3045 15.7524C53.1594 15.9021 53.062 16.0914 53.0247 16.2965C52.9873 16.5015 53.0115 16.7131 53.0944 16.9043C53.1773 17.0956 53.315 17.2579 53.4902 17.3709C53.6654 17.4838 53.8702 17.5422 54.0786 17.5387C54.287 17.5352 54.4897 17.4699 54.661 17.3512C54.8323 17.2325 54.9645 17.0656 55.0409 16.8716C55.1173 16.6777 55.1345 16.4655 55.0902 16.2618C55.046 16.0581 54.9423 15.8721 54.7923 15.7274C54.6935 15.6308 54.5766 15.5546 54.4484 15.5032C54.3201 15.4517 54.183 15.4261 54.0448 15.4277C53.9066 15.4293 53.7701 15.4581 53.6431 15.5125C53.5161 15.5669 53.401 15.6458 53.3045 15.7447V15.7524Z" fill="#E0E0E0"/>
<path d="M53.3058 15.744C53.3604 15.6772 53.4253 15.6195 53.498 15.5729C53.6246 15.4908 53.7673 15.4365 53.9165 15.4136C54.0657 15.3908 54.2181 15.3999 54.3635 15.4405C54.5089 15.481 54.6441 15.552 54.76 15.6487C54.8759 15.7455 54.9699 15.8657 55.0357 16.0016C55.1308 16.193 55.1663 16.4086 55.1376 16.6205C55.1067 16.8487 55.0044 17.0613 54.8454 17.2279C54.6853 17.3932 54.4765 17.5029 54.2496 17.5412C54.1426 17.5585 54.0336 17.5585 53.9266 17.5412C53.823 17.5283 53.7219 17.4998 53.6268 17.4566C53.4513 17.377 53.3001 17.2524 53.1885 17.0953C53.0929 16.9578 53.031 16.7998 53.0078 16.634C52.9714 16.3942 53.0204 16.1493 53.1462 15.942C53.19 15.8696 53.2452 15.8047 53.3096 15.7498C53.3096 15.7498 53.2462 15.819 53.1655 15.9631C53.0525 16.1688 53.0119 16.4063 53.0501 16.6378C53.0751 16.796 53.137 16.9462 53.2308 17.0761C53.3382 17.2243 53.4827 17.3417 53.6498 17.4163C53.7397 17.4561 53.8349 17.4827 53.9324 17.4951C54.0343 17.5114 54.1381 17.5114 54.2399 17.4951C54.4543 17.4586 54.6515 17.3549 54.8031 17.1991C54.9536 17.0406 55.0504 16.8389 55.0799 16.6224C55.1041 16.4252 55.0714 16.2251 54.9858 16.0458C54.9061 15.8805 54.784 15.7392 54.6321 15.6363C54.499 15.5476 54.3469 15.4916 54.1881 15.473C53.9559 15.4429 53.7203 15.4916 53.5191 15.6114C53.373 15.6863 53.3115 15.7574 53.3058 15.744Z" fill="#E0E0E0"/>
<path d="M52.7815 14.447L52.7488 14.4297L52.6527 14.374L52.2683 14.1472H52.2798L51.6032 14.8584V14.8391L51.93 15.3331C51.8274 15.5193 51.7504 15.7184 51.7012 15.9252V15.9367H51.6897L51.113 16.0809L51.1284 16.0597C51.1284 16.3673 51.1419 16.696 51.1476 17.04L51.1303 17.017L51.707 17.1361H51.7204V17.1496C51.7791 17.3522 51.8644 17.5461 51.9742 17.7262V17.7397V17.7531L51.6743 18.2856V18.251L52.3817 18.9314H52.3471L52.8411 18.6047L52.8564 18.5951L52.8718 18.6047C53.0568 18.7073 53.2546 18.7848 53.46 18.8353H53.4773V18.8526L53.6176 19.4293L53.5888 19.4081L54.5691 19.3908L54.5403 19.4139C54.5787 19.2217 54.621 19.0295 54.6614 18.8373V18.82H54.6787C54.8816 18.7631 55.0757 18.6783 55.2553 18.5682H55.2726H55.288L55.7935 18.8757H55.757L56.4375 18.1703V18.2068C56.3279 18.0396 56.2183 17.8742 56.1126 17.7109L56.103 17.6955V17.6801C56.2064 17.4953 56.2847 17.2975 56.3356 17.0919V17.0746H56.3529L56.9295 16.9343L56.9084 16.9631C56.9084 16.6287 56.9026 16.3019 56.8911 15.9828L56.9142 16.0097L56.3375 15.8867H56.3221V15.8694C56.2649 15.6669 56.1809 15.473 56.0723 15.2928V15.2793V15.2659L56.3798 14.7584V14.7892L55.6763 14.1068H55.7051L55.2092 14.4297H55.1977H55.1861C55.0005 14.3265 54.8021 14.2483 54.596 14.1971H54.5845V14.1856C54.5345 13.9761 54.4884 13.7877 54.4442 13.6089L54.4634 13.6224L53.4812 13.6339H53.4946C53.4446 13.8646 53.4043 14.0549 53.3697 14.2106C53.2149 14.2528 53.0648 14.3107 52.9218 14.3836L52.8161 14.4374L52.7796 14.4566C52.7894 14.4475 52.8004 14.4398 52.8122 14.4336L52.916 14.374C53.0587 14.2979 53.2088 14.2367 53.3639 14.1914C53.3947 14.0337 53.4331 13.8434 53.4792 13.6147V13.6032H53.4908L54.4711 13.582H54.4865V13.5955C54.5307 13.7742 54.5787 13.9626 54.6306 14.1721L54.6152 14.1587C54.8254 14.2096 55.0277 14.2885 55.2169 14.3932H55.1938L55.6897 14.0683L55.7051 14.0568L55.7186 14.0703L56.424 14.7507L56.4394 14.7642L56.4279 14.7815L56.1222 15.2889V15.262C56.2347 15.4467 56.3213 15.6459 56.3798 15.854L56.3606 15.8348L56.9372 15.954H56.9584V15.9751C56.9584 16.2942 56.9718 16.621 56.9776 16.9554V16.9785H56.9545L56.3779 17.1208L56.399 17.0996C56.3473 17.3098 56.2678 17.5121 56.1626 17.7013V17.6667L56.4894 18.1626L56.5009 18.1818L56.4855 18.1991L55.8032 18.9045L55.7878 18.9218L55.7666 18.9103L55.2592 18.6027H55.2899C55.1052 18.715 54.906 18.8017 54.6979 18.8603L54.719 18.8373C54.6768 19.0295 54.6364 19.2351 54.5979 19.4139V19.4389H54.5749L53.5946 19.4543H53.5715V19.4312C53.5215 19.239 53.4735 19.0352 53.4293 18.8546L53.4504 18.8757C53.2405 18.8233 53.0382 18.7438 52.8488 18.6393H52.8795L52.3836 18.9641L52.3644 18.9757L52.349 18.9603L51.6436 18.2779L51.6282 18.2644L51.6397 18.2452C51.7474 18.0684 51.8512 17.8954 51.9473 17.7397V17.7666C51.8357 17.5811 51.7497 17.3813 51.6916 17.1727L51.7089 17.19L51.1323 17.0689H51.113V17.0496C51.113 16.7056 51.1015 16.3788 51.0977 16.0693V16.052H51.113L51.6897 15.9117L51.6743 15.9367C51.7261 15.7272 51.8056 15.5255 51.9107 15.337V15.3562C51.7935 15.1774 51.6858 15.0102 51.5878 14.8584L52.2721 14.1568L52.6565 14.3874L52.7507 14.4489C52.7719 14.4374 52.7815 14.4451 52.7815 14.447Z" fill="#E0E0E0"/>
<path d="M5.25415 83.8511C4.90239 83.5513 4.12006 82.5959 4.72363 81.4868C4.94468 81.0813 5.41561 80.8794 5.84041 80.7007C6.26521 80.5219 6.71308 80.3662 7.06484 80.0664C7.72992 79.5012 7.91252 78.5632 8.3527 77.8097C8.86016 76.9447 9.80395 76.295 10.8016 76.3412C11.9549 76.3931 12.8967 77.3273 13.3292 78.3902C13.7617 79.4532 13.7771 80.6353 13.7848 81.7848C13.7848 82.421 13.7617 83.1303 13.2946 83.5666C12.866 83.9626 12.2182 83.9664 11.6358 83.9511L5.39062 83.7588" fill="#F5F5F5"/>
<path d="M17.1966 66.6816H0.775391L3.73362 84.3195C3.7944 84.6871 3.95838 85.0299 4.20647 85.308C4.45455 85.586 4.77653 85.7878 5.13489 85.8899L5.19256 85.9072C5.24061 85.9188 5.28867 85.9361 5.33864 85.9437C5.44879 85.9663 5.56071 85.9792 5.6731 85.9822V85.9995L5.75384 85.986H13.0754C13.2102 85.9861 13.3448 85.9732 13.4772 85.9476C13.9055 85.881 14.3001 85.6757 14.6004 85.3632C14.9008 85.0507 15.0903 84.6482 15.1398 84.2176L16.5642 72.0637L16.6295 71.5793L17.1946 66.7739L17.1966 66.6816ZM14.0999 77.9302H12.4142L12.5833 72.8115H14.5363L14.0999 77.9302ZM14.6997 72.8115H16.3066L15.705 77.9302H14.2633L14.6997 72.8115ZM9.89421 83.6064L9.79234 79.1585H12.2104L12.0624 83.6064H9.89421ZM7.26082 79.1585H9.61934L9.72121 83.6064H7.60682L7.26082 79.1585ZM7.45304 83.6064H5.46743C5.27521 82.405 5.03494 80.8442 4.76968 79.1585H7.09744L7.45304 83.6064ZM7.17625 77.9302L6.77836 72.8115H9.47325L9.59051 77.9302H7.17625ZM9.7635 77.9302L9.64625 72.8115H12.42L12.2508 77.9302H9.7635ZM9.61742 71.587L9.50785 66.8469H12.6199L12.4622 71.5832L9.61742 71.587ZM9.45403 71.587H6.67264L6.31127 66.8431H9.33678L9.45403 71.587ZM6.50349 71.5832H3.57601C3.47221 70.9296 3.37418 70.3088 3.28383 69.7514C2.97821 67.8292 2.86288 67.1141 2.79945 66.8431H6.14019L6.50349 71.5832ZM6.59959 72.8115L6.99749 77.9302H4.58131C4.49865 77.4112 4.416 76.8865 4.33334 76.3598L3.77399 72.8115H6.59959ZM4.41215 77.9302H2.82636L1.96906 72.8115H3.60484C3.85472 74.3934 4.13344 76.1541 4.41215 77.9302ZM4.60437 79.1585C4.84657 80.6962 5.08299 82.2147 5.30212 83.6064H3.77976L3.03203 79.1585H4.60437ZM12.2258 83.6064L12.3738 79.1585H14L13.6156 83.6064H12.2258ZM12.6237 71.5832L12.7813 66.8431H15.0457L14.642 71.5832H12.6237ZM2.64375 66.8431C2.7091 67.1852 3.00896 69.0517 3.41262 71.5832H1.76339L0.967609 66.8431H2.64375ZM15.0476 83.6064H13.777L14.1614 79.1585H15.5723L15.0476 83.6064ZM16.4585 71.5832H14.8054L15.211 66.8431H17.014L16.4585 71.5832Z" fill="#E0E0E0"/>
<path d="M84.0625 85.8058C84.0625 85.8347 66.463 85.8558 44.7558 85.8558C23.0486 85.8558 5.44531 85.8347 5.44531 85.8058C5.44531 85.777 23.0409 85.7559 44.7558 85.7559C66.4707 85.7559 84.0625 85.7789 84.0625 85.8058Z" fill="#263238"/>
<path d="M67.3195 42.0461C67.3195 42.0461 69.5896 39.4339 70.4469 36.8197C71.3042 34.2056 70.8967 34.5131 70.8967 34.5131C70.8967 34.5131 69.7434 37.0504 68.863 38.2767C67.9827 39.5031 66.4199 41.3022 66.4199 41.3022L67.3195 42.0461Z" fill="#455A64"/>
<path d="M66.8588 34.9135C66.8743 34.887 66.8984 34.8667 66.9272 34.856C66.9559 34.8453 66.9875 34.8449 67.0165 34.8549C67.0456 34.8648 67.0702 34.8846 67.0863 34.9107C67.1024 34.9368 67.109 34.9677 67.1049 34.9981C66.9665 35.9169 66.6666 38.0736 66.6781 39.4672C66.6935 41.2817 66.6781 41.9833 66.6781 41.9833H65.7324C65.7324 41.9833 65.9016 38.2312 66.1169 37.0875C66.2565 36.3305 66.5064 35.598 66.8588 34.9135Z" fill="#455A64"/>
<path d="M66.3507 41.6795C65.9541 40.7822 65.6918 39.8314 65.5722 38.8577C65.4953 38.1888 65.6337 37.2854 65.8394 36.0821C65.9193 35.6381 65.9598 35.1878 65.9605 34.7366C65.9594 34.6868 65.942 34.6388 65.9109 34.5999C65.8799 34.561 65.8368 34.5334 65.7885 34.5214C65.7402 34.5093 65.6893 34.5135 65.6436 34.5333C65.5979 34.5531 65.56 34.5874 65.5357 34.6309C65.3071 35.0527 65.1302 35.5006 65.009 35.9649C64.7803 37.1547 64.5208 37.7487 64.7188 38.8789C64.9168 40.0091 65.6491 41.7449 65.6491 41.7449L66.3507 41.6795Z" fill="#455A64"/>
<path d="M65.4999 41.7542C65.4999 41.7542 63.0011 36.3971 62.8338 35.6032C62.6666 34.8094 62.0746 32.9756 62.0054 33.0794C61.9362 33.1832 61.8324 34.152 62.2822 35.2572C62.732 36.3625 64.6484 41.9176 64.6484 41.9176H65.4999" fill="#455A64"/>
<path d="M66.625 41.5161C66.625 41.5161 66.65 41.5007 66.6942 41.4681C66.7384 41.4354 66.8057 41.3873 66.8864 41.32C67.1191 41.134 67.3424 40.9364 67.5553 40.728C68.2552 40.0368 68.8614 39.2568 69.3583 38.4079C69.8578 37.5596 70.2736 36.6648 70.6001 35.7361C70.7269 35.3805 70.8173 35.0903 70.8769 34.8865C70.9076 34.7866 70.9288 34.7078 70.9422 34.6539C70.9517 34.6272 70.9581 34.5995 70.9614 34.5713C70.9614 34.5713 70.9499 34.5982 70.9326 34.6501L70.8576 34.8808C70.7923 35.073 70.6943 35.3709 70.5655 35.7246C70.2316 36.6466 69.8147 37.5364 69.3199 38.383C68.8237 39.2293 68.2224 40.0095 67.5303 40.7049C67.2651 40.9702 67.0363 41.172 66.8749 41.3085L66.6827 41.4623C66.6619 41.4785 66.6426 41.4965 66.625 41.5161Z" fill="#263238"/>
<path d="M66.352 38.9457C66.3642 38.894 66.372 38.8412 66.375 38.7881C66.3866 38.6766 66.4019 38.5325 66.4192 38.3575C66.4596 37.9962 66.5211 37.4964 66.6115 36.9467C66.7018 36.3969 66.8037 35.9029 66.8748 35.5473L66.9651 35.1244C66.979 35.0735 66.988 35.0214 66.9921 34.9688C66.9732 35.0184 66.9572 35.0691 66.944 35.1206C66.9171 35.2186 66.8806 35.3609 66.8364 35.5396C66.7518 35.8933 66.6441 36.3873 66.5596 36.939C66.475 37.4906 66.4154 37.9904 66.3846 38.3537C66.3693 38.5363 66.3597 38.6843 66.3558 38.7862C66.3491 38.8391 66.3478 38.8926 66.352 38.9457Z" fill="#263238"/>
<path d="M65.7667 34.5977C65.7552 34.6192 65.7455 34.6417 65.7379 34.6649L65.6629 34.8571C65.6302 34.9436 65.5918 35.0494 65.5553 35.1762C65.5188 35.3031 65.4707 35.4434 65.4342 35.6049C65.415 35.6856 65.3938 35.7702 65.3727 35.8567C65.3515 35.9432 65.3381 36.0374 65.3189 36.1335C65.2766 36.3257 65.2516 36.5294 65.2227 36.7447C65.1678 37.2161 65.1479 37.6909 65.1632 38.1652C65.1819 38.6399 65.2346 39.1127 65.3208 39.5799C65.3669 39.7933 65.4073 39.997 65.4611 40.1835C65.488 40.2777 65.5091 40.3757 65.5361 40.4545L65.6149 40.7025C65.6629 40.8601 65.7206 40.9985 65.7667 41.1215C65.8129 41.2445 65.8571 41.3483 65.8974 41.431L65.9858 41.6232C65.9953 41.646 66.0068 41.6679 66.0205 41.6886C66.0205 41.6886 66.0205 41.6636 65.9955 41.6174C65.9705 41.5713 65.9493 41.5021 65.9147 41.4252C65.8801 41.3483 65.8378 41.233 65.7956 41.1119C65.7533 40.9908 65.6956 40.8505 65.6514 40.6929L65.5745 40.4449C65.5495 40.3603 65.5284 40.2681 65.5034 40.1739C65.4515 39.9817 65.413 39.7894 65.3688 39.5722C65.2864 39.1078 65.2344 38.6384 65.2131 38.1671C65.1996 37.6955 65.2182 37.2235 65.2689 36.7543C65.2977 36.5391 65.3208 36.3334 65.3592 36.145C65.3784 36.0489 65.3919 35.9528 65.4111 35.8701C65.4303 35.7875 65.4515 35.6971 65.4688 35.6183C65.5034 35.4569 65.5476 35.3146 65.5822 35.1878C65.6168 35.0609 65.6514 34.9552 65.6802 34.8668L65.7456 34.6649C65.7553 34.6434 65.7624 34.6209 65.7667 34.5977Z" fill="#263238"/>
<path d="M62.0348 33.1875C62.0348 33.1875 62.0348 33.1875 62.0348 33.2125V33.2817C62.0463 33.3432 62.0598 33.4335 62.0848 33.5489C62.1328 33.7795 62.2135 34.1101 62.3385 34.51C62.4634 34.9098 62.6326 35.3826 62.8344 35.9016C63.0362 36.4206 63.2688 36.9857 63.4899 37.5874C63.7109 38.189 63.8878 38.7733 64.0512 39.3058C64.2145 39.8382 64.3645 40.3149 64.5125 40.7109C64.6238 41.0227 64.7521 41.3281 64.8969 41.6258C64.9469 41.7316 64.993 41.8181 65.0238 41.8661L65.0584 41.9276C65.0621 41.9345 65.0666 41.941 65.0718 41.9468C65.0694 41.9389 65.0662 41.9311 65.0622 41.9238L65.0334 41.8603C65.0065 41.8046 64.9642 41.7239 64.9161 41.6182C64.7722 41.3181 64.6439 41.0108 64.5317 40.6974C64.3875 40.3015 64.2395 39.8248 64.08 39.2923C63.9204 38.7599 63.7475 38.1717 63.5226 37.5624C63.2977 36.953 63.0651 36.3956 62.8632 35.8785C62.6614 35.3615 62.4788 34.8925 62.3558 34.4927C62.2328 34.0928 62.1424 33.7622 62.0867 33.5316C62.0598 33.4182 62.0425 33.3278 62.029 33.2682L62.0117 33.199L62.0348 33.1875Z" fill="#263238"/>
<path d="M69.72 32.0049C69.7546 31.9724 69.7989 31.9521 69.8461 31.9474C69.8933 31.9426 69.9408 31.9536 69.9811 31.9786C70.0214 32.0036 70.0524 32.0412 70.0691 32.0856C70.0859 32.1299 70.0875 32.1786 70.0737 32.224C69.9869 32.499 69.8823 32.7681 69.7604 33.0294C69.4163 33.7579 68.4149 36.3702 67.9382 37.806C67.4615 39.2419 66.8041 41.9176 66.8041 41.9176L65.7969 41.7542C65.7969 41.7542 66.7176 37.3562 67.6172 35.7704C68.3399 34.496 69.0627 32.6604 69.72 32.0049Z" fill="#455A64"/>
<path d="M67.6639 38.7031C67.6422 38.7408 67.6248 38.7807 67.612 38.8223C67.5832 38.9011 67.5428 39.0145 67.4967 39.1606C67.4044 39.447 67.291 39.8487 67.1757 40.2947C67.0603 40.7406 66.9662 41.1443 66.9008 41.4384C66.87 41.5787 66.8451 41.694 66.8258 41.7882C66.8139 41.8302 66.8068 41.8734 66.8047 41.917C66.8229 41.877 66.8364 41.8351 66.8451 41.7921C66.87 41.7017 66.9008 41.5845 66.9373 41.448L67.2276 40.3081C67.341 39.8622 67.4486 39.4605 67.5332 39.1721C67.5716 39.0357 67.6062 38.9203 67.6312 38.83C67.647 38.7891 67.658 38.7465 67.6639 38.7031Z" fill="#263238"/>
<path d="M66.2988 41.8365V41.8096L66.3103 41.7308C66.3199 41.6597 66.3295 41.5578 66.3507 41.4252C66.3872 41.1599 66.4545 40.7793 66.5621 40.3161C66.6904 39.7718 66.8476 39.2348 67.033 38.7072C67.2387 38.1114 67.4982 37.4674 67.7923 36.8004C68.3843 35.4684 68.9744 34.2881 69.3627 33.4136C69.5549 32.9791 69.7126 32.6235 69.8125 32.3756C69.8625 32.2506 69.899 32.1545 69.9259 32.0892C69.9374 32.0584 69.9451 32.0334 69.9528 32.0142C69.9605 31.995 69.9624 31.9873 69.9528 31.9873L69.9413 32.0123C69.9317 32.0315 69.9221 32.0546 69.9086 32.0853C69.8779 32.1526 69.8375 32.2468 69.7856 32.366C69.6799 32.612 69.5223 32.9657 69.3224 33.3982C68.9245 34.267 68.3286 35.4453 67.7346 36.7793C67.4405 37.4463 67.183 38.0921 66.9792 38.6918C66.7947 39.2208 66.6407 39.7599 66.5179 40.3065C66.4351 40.6753 66.371 41.048 66.3257 41.4233C66.3084 41.554 66.3026 41.6597 66.2949 41.7289V41.8077C66.2962 41.8269 66.2975 41.8365 66.2988 41.8365Z" fill="#263238"/>
<path d="M65.7969 41.7542C65.8131 41.6989 65.8246 41.6423 65.8315 41.5851C65.8507 41.4678 65.8776 41.3121 65.9103 41.1237C65.9795 40.7393 66.0852 40.1953 66.237 39.611C66.3889 39.0266 66.5581 38.5057 66.6888 38.1328C66.7522 37.9521 66.806 37.8041 66.8464 37.6907C66.8681 37.6378 66.8854 37.5831 66.8983 37.5273C66.8708 37.5774 66.847 37.6295 66.8272 37.683C66.783 37.7849 66.7214 37.9329 66.6522 38.1194C66.4716 38.6038 66.3157 39.0972 66.1852 39.5975C66.0333 40.1742 65.9333 40.7239 65.8718 41.116C65.843 41.3083 65.8219 41.4716 65.8103 41.5831C65.8015 41.6397 65.797 41.6969 65.7969 41.7542Z" fill="#263238"/>
<path d="M63.7331 46.3965H67.6602V41.6103H63.7331V46.3965Z" fill="#339999"/>
<g opacity="0.3">
<path d="M63.7351 46.3955H67.6621V41.6093H63.7351V46.3955Z" fill="black"/>
</g>
<path d="M64.9838 46.3965H68.4688V41.6103H64.9838V46.3965Z" fill="#339999"/>
<path d="M32.3678 2.19232L25.0762 4.52637L26.6496 9.44172L33.9412 7.10767L32.3678 2.19232Z" fill="#339999"/>
<path d="M32.4118 2.24023C32.3985 2.2711 32.3824 2.30069 32.3638 2.32865C32.3273 2.39016 32.2792 2.47089 32.2177 2.57085L31.6699 3.45889L29.8342 6.37867L29.8188 6.40174H29.7919L29.7285 6.37675L26.4608 5.1235L25.4747 4.73906L25.2075 4.63142C25.1755 4.62012 25.1447 4.60597 25.1152 4.58913C25.1481 4.59564 25.1803 4.60529 25.2113 4.61796L25.4843 4.71407L26.4781 5.08121L29.7458 6.31716L29.8111 6.34023L29.7688 6.35561L31.6237 3.44544C31.8602 3.08022 32.0524 2.78229 32.1908 2.57085L32.3465 2.33442C32.3654 2.30111 32.3872 2.26958 32.4118 2.24023Z" fill="#263238"/>
<path d="M26.6862 9.49017C26.6689 9.49017 27.0014 8.63288 27.4282 7.59298C27.8549 6.55309 28.2182 5.71502 28.2355 5.72271C28.2528 5.7304 27.9222 6.58 27.4935 7.61989C27.0649 8.65979 26.7093 9.49786 26.6862 9.49017Z" fill="#263238"/>
<path d="M30.6466 4.88511C30.6582 4.86974 31.4155 5.36566 32.3343 5.99229C33.2531 6.61891 33.9951 7.14559 33.9835 7.14559C33.972 7.14559 33.2146 6.66697 32.2958 6.04034C31.377 5.41371 30.6351 4.90241 30.6466 4.88511Z" fill="#263238"/>
<path d="M64.5829 12.848L59.1566 10.5549C58.9792 10.4771 58.8396 10.3328 58.7676 10.153C58.6957 9.97325 58.6973 9.77241 58.7721 9.5938L61.9553 2.08195C62.0326 1.90428 62.1769 1.76427 62.3568 1.6923C62.5368 1.62033 62.7378 1.62221 62.9163 1.69751L66.359 3.15452L67.8583 7.02963L65.5517 12.4751C65.4718 12.6523 65.3253 12.7909 65.1439 12.8607C64.9625 12.9305 64.7609 12.9259 64.5829 12.848Z" fill="#339999"/>
<path d="M66.3571 3.13574L65.4614 5.25013C65.4259 5.33302 65.4072 5.4221 65.4063 5.51225C65.4054 5.6024 65.4223 5.69184 65.456 5.77543C65.4898 5.85902 65.5397 5.93512 65.603 5.99935C65.6663 6.06358 65.7416 6.11468 65.8247 6.14971L67.8564 7.01084L66.3571 3.13574Z" fill="#339999"/>
<g opacity="0.2">
<path d="M65.4079 5.44824C65.3427 5.60902 65.3338 5.7871 65.3827 5.95356C65.4315 6.12002 65.5352 6.26506 65.677 6.36512C65.696 6.38092 65.7159 6.39568 65.7366 6.40933C65.9826 6.56887 67.5972 7.6203 67.6145 7.57993L67.8548 7.00328L65.8231 6.14215C65.8231 6.14215 65.3194 5.91725 65.4079 5.44824Z" fill="black"/>
</g>
<g opacity="0.3">
<path d="M66.3571 3.13574L65.4614 5.25013C65.4259 5.33302 65.4072 5.4221 65.4063 5.51225C65.4054 5.6024 65.4223 5.69184 65.456 5.77543C65.4898 5.85902 65.5397 5.93512 65.603 5.99935C65.6663 6.06358 65.7416 6.11468 65.8247 6.14971L67.8564 7.01084L66.3571 3.13574Z" fill="white"/>
</g>
<path d="M65.0416 4.98099C64.6042 4.85368 64.1775 4.69236 63.7653 4.49853C63.3393 4.33773 62.9262 4.14496 62.5293 3.92188C62.9677 4.04796 63.3952 4.20931 63.8075 4.40434C64.2334 4.56392 64.646 4.75673 65.0416 4.98099Z" fill="#FAFAFA"/>
<path d="M66.1582 6.85227C66.1467 6.87919 65.2125 6.51013 64.0707 6.02574C62.9289 5.54135 62.014 5.13001 62.0255 5.10118C62.037 5.07234 62.9712 5.44524 64.113 5.92771C65.2548 6.41018 66.1697 6.82536 66.1582 6.85227Z" fill="#FAFAFA"/>
<path d="M66.1073 8.01013C66.0957 8.03704 65.077 7.62569 63.8333 7.10478C62.5897 6.58387 61.5901 6.13408 61.6017 6.10141C61.6132 6.06873 62.63 6.48584 63.8756 7.00675C65.1212 7.52766 66.1188 7.98129 66.1073 8.01013Z" fill="#FAFAFA"/>
<path d="M65.7049 8.95196C65.6933 8.97887 64.6765 8.56752 63.4329 8.04661C62.1892 7.52571 61.1897 7.07015 61.1993 7.04324C61.2089 7.01633 62.2296 7.42768 63.4732 7.94858C64.7169 8.46949 65.7183 8.92313 65.7049 8.95196Z" fill="#FAFAFA"/>
<path d="M65.3084 9.89145C65.2969 9.92028 64.2781 9.50701 63.0345 8.98802C61.7908 8.46904 60.7913 8.01156 60.8028 7.98465C60.8144 7.95774 61.8312 8.36908 63.0768 8.88999C64.3223 9.4109 65.32 9.86453 65.3084 9.89145Z" fill="#FAFAFA"/>
<path d="M64.91 10.8338C64.8984 10.8627 63.8797 10.4494 62.636 9.93041C61.3924 9.41142 60.3929 8.95394 60.4044 8.92703C60.4159 8.90012 61.4347 9.31147 62.6783 9.83045C63.922 10.3494 64.9215 10.8069 64.91 10.8338Z" fill="#FAFAFA"/>
<path d="M46.3356 14.4416C50.3006 14.4416 53.5149 11.2274 53.5149 7.26233C53.5149 3.2973 50.3006 0.0830078 46.3356 0.0830078C42.3706 0.0830078 39.1562 3.2973 39.1562 7.26233C39.1562 11.2274 42.3706 14.4416 46.3356 14.4416Z" fill="white"/>
<path d="M53.5163 7.26168C53.5163 7.26168 53.5163 7.22323 53.5048 7.14635C53.4933 7.06946 53.4913 6.95413 53.4817 6.8042C53.4817 6.72923 53.4721 6.64658 53.4664 6.55432C53.4606 6.46205 53.4375 6.3621 53.4221 6.25446C53.39 6.00451 53.3398 5.75719 53.2722 5.51442C53.1045 4.84297 52.8362 4.20074 52.4764 3.60955C51.9552 2.74106 51.2559 1.9928 50.4247 1.41401C49.5935 0.835226 48.6491 0.439034 47.6537 0.251509C47.3559 0.196156 47.0547 0.161474 46.7522 0.147712C46.5984 0.147712 46.4427 0.126567 46.287 0.128489L45.8142 0.153478C45.7353 0.153478 45.6546 0.153478 45.5758 0.168856L45.3375 0.205377C45.1798 0.232287 45.0184 0.251509 44.8588 0.284186C44.2044 0.431173 43.5719 0.662485 42.977 0.972324C42.8271 1.05306 42.6829 1.14916 42.533 1.23758C42.4599 1.28372 42.3831 1.32408 42.3119 1.37598L42.1024 1.5336C41.5204 1.95625 41.0114 2.47112 40.5954 3.05788L40.4321 3.27701L40.2879 3.51152L40.1437 3.73833C40.0929 3.8156 40.0479 3.89655 40.0092 3.98053C39.9304 4.14776 39.8496 4.31498 39.767 4.48414L39.5748 5.01081C39.3402 5.7385 39.2158 6.49718 39.2057 7.26168C39.2158 8.02554 39.3402 8.78359 39.5748 9.51062C39.6382 9.68746 39.7035 9.8643 39.767 10.0392C39.8304 10.2141 39.9284 10.3756 40.0092 10.5409C40.0475 10.6257 40.0925 10.7074 40.1437 10.785L40.2879 11.0215L40.4301 11.256L40.5954 11.4751C40.8086 11.7664 41.0418 12.0426 41.2932 12.3016C41.5474 12.5486 41.8178 12.7785 42.1024 12.9898L42.3119 13.1474C42.3831 13.1993 42.4599 13.2396 42.533 13.2858C42.6829 13.3742 42.8271 13.478 42.977 13.551C43.5719 13.8609 44.2044 14.0922 44.8588 14.2392C45.0184 14.2738 45.1798 14.2911 45.3394 14.318L45.5758 14.3545C45.6565 14.3545 45.7353 14.3545 45.8142 14.3699L46.2947 14.3987C46.4504 14.3987 46.6061 14.3853 46.7599 14.3814C47.0624 14.367 47.3637 14.3317 47.6614 14.2757C48.657 14.0889 49.6017 13.693 50.433 13.1141C51.2644 12.5352 51.9635 11.7866 52.4841 10.9177C52.8409 10.3272 53.1066 9.68631 53.2722 9.01662C53.3398 8.77385 53.39 8.52654 53.4221 8.27659C53.4375 8.16894 53.4567 8.06899 53.4664 7.97673C53.476 7.88446 53.4779 7.80181 53.4817 7.72684C53.492 7.5782 53.4997 7.46479 53.5048 7.38662C53.5048 7.30973 53.5163 7.26937 53.5163 7.26937C53.5163 7.26937 53.5163 7.30973 53.5163 7.38662C53.5163 7.4635 53.5163 7.57884 53.5048 7.72684C53.5048 7.80373 53.5048 7.88638 53.4933 7.98057C53.4817 8.07476 53.4683 8.17279 53.4529 8.28043C53.4233 8.52894 53.3758 8.77497 53.3107 9.01662C53.1478 9.69357 52.8827 10.3417 52.5245 10.9388C52.0037 11.8197 51.3014 12.5797 50.4642 13.1683C49.6271 13.7569 48.6743 14.1606 47.6691 14.3526C47.3681 14.4091 47.0637 14.4451 46.7579 14.4602C46.6022 14.4602 46.4446 14.4814 46.287 14.4794L45.8084 14.4564C45.7277 14.4564 45.6469 14.4564 45.5662 14.441L45.3336 14.3987C45.1721 14.3718 45.0088 14.3545 44.8473 14.3199C44.5209 14.2484 44.1998 14.1547 43.8862 14.0393C43.5626 13.9238 43.2473 13.7864 42.9424 13.6279C42.7906 13.5453 42.6426 13.4492 42.4926 13.3588C42.4177 13.3108 42.3389 13.2704 42.2677 13.2185L42.0563 13.059C41.7678 12.8452 41.4936 12.6127 41.2355 12.3631C40.9803 12.1003 40.7433 11.8202 40.5262 11.5251L40.359 11.304L40.2129 11.0657L40.0688 10.8254C40.0166 10.7473 39.9709 10.665 39.9323 10.5793C39.8516 10.4102 39.7689 10.241 39.6882 10.07L39.496 9.53369C39.259 8.79655 39.1333 8.0282 39.123 7.25399C39.129 6.48234 39.2501 5.71591 39.4825 4.98006L39.6747 4.44569L39.9208 3.93439C39.9591 3.84901 40.0041 3.76675 40.0553 3.68836L40.2014 3.45001L40.3456 3.21166L40.5128 2.98868C40.7304 2.69451 40.9673 2.41517 41.2221 2.15254C41.4802 1.90294 41.7544 1.6705 42.0428 1.45671L42.2543 1.29717C42.3254 1.24527 42.4042 1.20491 42.4792 1.15685C42.6291 1.06843 42.7771 0.964636 42.929 0.889671C43.532 0.577169 44.1729 0.343934 44.8358 0.195766C44.9972 0.163089 45.1606 0.143867 45.3221 0.116957L45.5623 0.0804351C45.6431 0.0804351 45.7238 0.0804355 45.8045 0.0650581L46.2832 0.0419922C46.4408 0.0419922 46.5965 0.0554471 46.7522 0.0612136C47.0585 0.0772032 47.3635 0.11316 47.6652 0.168856C48.6704 0.360821 49.6232 0.764511 50.4604 1.3531C51.2975 1.94169 51.9999 2.7017 52.5206 3.58264C52.8788 4.1797 53.1439 4.82787 53.3068 5.50481C53.3717 5.74965 53.4186 5.99892 53.4471 6.25061C53.4625 6.36018 53.4798 6.46013 53.4875 6.5524L53.499 6.8042C53.499 6.95221 53.5086 7.06561 53.5106 7.14635C53.5125 7.22708 53.5163 7.26168 53.5163 7.26168Z" fill="#263238"/>
<path d="M49.7412 7.06044C49.6472 7.095 49.5509 7.12262 49.4529 7.14309L48.6513 7.33531C47.9728 7.49293 47.0309 7.70629 45.9776 7.93695L45.918 7.9504V7.67169C45.918 6.54722 45.918 5.52846 45.9314 4.78843C45.9314 4.43475 45.9449 4.14065 45.9487 3.91576C45.9458 3.80904 45.9523 3.70228 45.9679 3.59668C45.9824 3.7024 45.9888 3.80907 45.9872 3.91576C45.9872 4.14065 45.9968 4.43475 46.0025 4.78843C46.0025 5.52654 46.0179 6.54529 46.0179 7.67169V7.88121L45.9564 7.83123C47.0098 7.60249 47.9536 7.40066 48.6359 7.25458L49.4432 7.09504C49.5413 7.07431 49.641 7.06272 49.7412 7.06044Z" fill="#263238"/>
<path d="M54.029 10.2221C54.0359 10.182 54.0469 10.1428 54.0617 10.1049C54.0828 10.0299 54.127 9.91265 54.1655 9.7781C54.2891 9.37484 54.3829 8.96302 54.4461 8.54599C54.6658 7.16801 54.5344 5.75688 54.064 4.44318C53.5936 3.12947 52.7995 1.95563 51.7551 1.03029C51.4421 0.750386 51.1093 0.493429 50.7594 0.261416C50.6364 0.174918 50.5345 0.117253 50.4711 0.0691984C50.4359 0.0489052 50.4025 0.0257614 50.3711 0C50.41 0.0116297 50.447 0.0291305 50.4807 0.0518988C50.5479 0.0903423 50.6537 0.142241 50.7805 0.224894C51.1418 0.447151 51.4838 0.699192 51.8031 0.978387C52.8698 1.90129 53.6796 3.08442 54.1538 4.41281C54.6281 5.74121 54.7506 7.16969 54.5095 8.55944C54.4414 8.97589 54.3392 9.38605 54.2039 9.78579C54.1578 9.92803 54.1078 10.0357 54.0809 10.1087C54.068 10.1484 54.0506 10.1864 54.029 10.2221Z" fill="#263238"/>
<path d="M55.4052 6.68899C55.3898 6.68899 55.3802 6.40259 55.3225 5.94511C55.2455 5.35025 55.1103 4.76438 54.9189 4.19593C54.7256 3.62987 54.4764 3.08448 54.175 2.56785C53.9405 2.16996 53.7713 1.9393 53.7906 1.92969C53.8423 1.97299 53.8876 2.02348 53.9251 2.07962C54.0039 2.18341 54.1173 2.33527 54.2403 2.52941C54.5674 3.04056 54.832 3.58909 55.0284 4.16325C55.2263 4.73735 55.3554 5.3329 55.4129 5.93742C55.434 6.16808 55.4398 6.35645 55.4398 6.48716C55.4389 6.55583 55.4272 6.62394 55.4052 6.68899Z" fill="#263238"/>
<path d="M39.1686 3.10449C39.1571 3.14285 39.141 3.17964 39.1205 3.21406C39.0859 3.28518 39.0264 3.38513 38.9649 3.5216C38.241 4.95964 37.9489 6.57647 38.1239 8.17687C38.2989 9.77727 38.9335 11.2928 39.9509 12.5404C40.2158 12.868 40.5036 13.1763 40.8121 13.4631C40.9197 13.5669 41.0043 13.6399 41.0677 13.6937C41.0986 13.7198 41.1275 13.748 41.1542 13.7783C41.1181 13.7595 41.0846 13.7363 41.0543 13.7091C40.9928 13.6611 40.8986 13.5919 40.7871 13.4919C40.466 13.2144 40.1684 12.911 39.8971 12.5847C38.99 11.5042 38.3781 10.2072 38.1211 8.82009C37.8641 7.43294 37.9707 6.00287 38.4305 4.66914C38.5661 4.26739 38.7352 3.87773 38.936 3.5043C39.0033 3.36975 39.0686 3.27172 39.1071 3.20444C39.1248 3.16948 39.1454 3.13605 39.1686 3.10449Z" fill="#263238"/>
<path d="M37.2481 6.37402C37.2654 6.37402 37.2289 6.66043 37.2135 7.12175C37.1931 7.72083 37.2337 8.32042 37.3346 8.91129C37.4376 9.50275 37.5998 10.0823 37.819 10.6412C37.9862 11.0699 38.1169 11.3255 38.1016 11.3332C38.0583 11.2812 38.0221 11.2237 37.9939 11.1622C37.9305 11.0488 37.8459 10.8815 37.7536 10.6682C37.5123 10.1143 37.3381 9.53348 37.2347 8.9382C37.1326 8.34039 37.1016 7.7326 37.1424 7.12752C37.1597 6.89493 37.1828 6.70848 37.2039 6.5797C37.2093 6.50946 37.2242 6.44027 37.2481 6.37402Z" fill="#263238"/>
<path d="M52.2792 8.43977C52.0082 8.38402 51.7891 8.33597 51.7891 8.33405C51.7891 8.33213 52.0101 8.37441 52.2811 8.43016C52.5522 8.4859 52.7713 8.53203 52.7694 8.53395C52.7675 8.53588 52.5483 8.5032 52.2792 8.43977Z" fill="#263238"/>
<path d="M51.5829 10.2566C51.3446 10.1163 51.1523 10.001 51.1523 9.99905C51.1523 9.99713 51.3446 10.1086 51.5868 10.2489C51.829 10.3892 52.0173 10.5046 52.0154 10.5065C52.0135 10.5084 51.8193 10.3969 51.5829 10.2566Z" fill="#263238"/>
<path d="M50.3308 11.7409C50.1501 11.5294 50.0059 11.3564 50.0078 11.3564C50.0098 11.3564 50.1578 11.5237 50.3365 11.7409C50.5153 11.9581 50.6614 12.1253 50.6575 12.1253C50.6537 12.1253 50.523 11.9504 50.3308 11.7409Z" fill="#263238"/>
<path d="M48.6749 12.7405C48.573 12.483 48.4923 12.2734 48.4942 12.2734C48.4961 12.2734 48.5807 12.4791 48.6864 12.7367C48.7921 12.9943 48.869 13.2018 48.8652 13.2038C48.8613 13.2057 48.7767 12.9962 48.6749 12.7405Z" fill="#263238"/>
<path d="M46.7793 13.1453C46.7678 12.8685 46.7601 12.6455 46.762 12.6455C46.7639 12.6455 46.7774 12.8685 46.7889 13.1453C46.8005 13.4221 46.8101 13.645 46.8081 13.645C46.8062 13.645 46.7928 13.4221 46.7793 13.1453Z" fill="#263238"/>
<path d="M44.8554 12.9132C44.9323 12.6479 44.9957 12.4346 44.9996 12.4346C45.0034 12.4346 44.9419 12.6518 44.865 12.917C44.7881 13.1823 44.7228 13.3957 44.7189 13.3957C44.7151 13.3957 44.7766 13.1785 44.8554 12.9132Z" fill="#263238"/>
<path d="M43.1089 12.0716C43.2684 11.8448 43.3991 11.6641 43.403 11.666C43.4068 11.668 43.2761 11.8582 43.1165 12.0774C42.957 12.2965 42.834 12.4772 42.834 12.4772C42.834 12.4772 42.9493 12.2965 43.1089 12.0716Z" fill="#263238"/>
<path d="M41.7338 10.7063C41.9567 10.5429 42.1393 10.4141 42.1413 10.416C42.1432 10.418 41.9625 10.5506 41.7376 10.714C41.5127 10.8774 41.332 11.0042 41.3301 11.0023C41.3282 11.0004 41.5089 10.8677 41.7338 10.7063Z" fill="#263238"/>
<path d="M40.8732 8.96845C41.1384 8.88772 41.3537 8.82429 41.3537 8.82621C41.3537 8.82814 41.1404 8.89734 40.8751 8.97807C40.6098 9.0588 40.3965 9.12031 40.3965 9.11838C40.3965 9.11646 40.6098 9.04919 40.8732 8.96845Z" fill="#263238"/>
<path d="M40.6248 7.04713C40.9016 7.04713 41.1245 7.06635 41.1245 7.0702C41.1245 7.07404 40.8996 7.0702 40.6248 7.05674C40.3499 7.04329 40.1231 7.0356 40.125 7.03368C40.1269 7.03175 40.348 7.0356 40.6248 7.04713Z" fill="#263238"/>
<path d="M41.0139 5.14581C41.2734 5.24577 41.481 5.3265 41.481 5.33803C41.481 5.34957 41.2696 5.26115 41.0101 5.16311C40.7506 5.06508 40.5449 4.98243 40.5449 4.98051C40.5449 4.97859 40.7564 5.04778 41.0139 5.14581Z" fill="#263238"/>
<path d="M41.9997 3.47538C42.2111 3.65414 42.3841 3.80023 42.3841 3.80215C42.3841 3.80407 42.2092 3.66183 41.9997 3.48307C41.7902 3.30431 41.6152 3.16014 41.6152 3.15822C41.6152 3.1563 41.7863 3.29854 41.9997 3.47538Z" fill="#263238"/>
<path d="M43.4723 2.21775C43.6146 2.45418 43.7299 2.6464 43.728 2.64832C43.7261 2.65024 43.6069 2.4561 43.4647 2.2216C43.3224 1.98709 43.2071 1.79295 43.209 1.79103C43.2109 1.78911 43.3301 1.98133 43.4723 2.21775Z" fill="#263238"/>
<path d="M45.2739 1.50289C45.3315 1.77392 45.3777 1.99305 45.3757 1.99305C45.3738 1.99305 45.3238 1.77584 45.2642 1.50482C45.2047 1.23379 45.1605 1.01658 45.1643 1.01466C45.1681 1.01274 45.2162 1.23379 45.2739 1.50289Z" fill="#263238"/>
<path d="M47.2081 1.41484C47.1754 1.68971 47.1466 1.91076 47.1446 1.91076C47.1427 1.91076 47.1658 1.68778 47.2004 1.41291C47.235 1.13804 47.2619 0.916992 47.2638 0.916992C47.2657 0.916992 47.2427 1.13612 47.2081 1.41484Z" fill="#263238"/>
<path d="M49.0707 1.95853C48.9515 2.20649 48.8516 2.40832 48.8496 2.4064C48.8477 2.40447 48.9419 2.20265 49.0611 1.95276C49.1803 1.70288 49.2802 1.50297 49.2841 1.5049C49.2879 1.50682 49.1899 1.71249 49.0707 1.95853Z" fill="#263238"/>
<path d="M50.6525 3.07724C50.4603 3.26945 50.2988 3.43092 50.2969 3.429C50.295 3.42707 50.4526 3.26561 50.6467 3.06955C50.8409 2.87349 51.0004 2.71587 51.0023 2.71779C51.0043 2.71971 50.8486 2.88118 50.6525 3.07724Z" fill="#263238"/>
<path d="M51.7877 4.64774C51.5397 4.77076 51.3379 4.86879 51.3379 4.86687C51.3379 4.86495 51.5301 4.76307 51.7838 4.64005C52.0376 4.51703 52.2336 4.419 52.2336 4.42093C52.2336 4.42285 52.0356 4.52472 51.7877 4.64774Z" fill="#263238"/>
<path d="M52.3533 6.50285L51.8555 6.56244C51.8555 6.56244 52.0765 6.52784 52.3514 6.49324C52.6263 6.45864 52.8473 6.42981 52.8473 6.43173C52.8473 6.43365 52.6263 6.46633 52.3533 6.50285Z" fill="#263238"/>
<path d="M55.9037 5.83984C55.7971 6.16441 55.6594 6.4779 55.4924 6.77594L55.4809 6.79709L55.4424 6.8759L55.3944 6.80285C55.201 6.53291 55.0349 6.24446 54.8984 5.94172C55.1202 6.18978 55.3171 6.45888 55.4866 6.74519H55.4001L55.4117 6.72212C55.5467 6.4128 55.7115 6.11732 55.9037 5.83984Z" fill="#263238"/>
<path d="M59.1705 22.0723H36.5791C36.0484 22.0723 35.5395 22.2831 35.1642 22.6583C34.7889 23.0336 34.5781 23.5426 34.5781 24.0732C34.5781 24.6039 34.7889 25.1129 35.1642 25.4882C35.5395 25.8634 36.0484 26.0742 36.5791 26.0742H47.1511L49.5173 28.3289V26.0742H59.1705C59.4333 26.0742 59.6935 26.0225 59.9362 25.9219C60.179 25.8214 60.3996 25.674 60.5854 25.4882C60.7712 25.3023 60.9186 25.0818 61.0192 24.839C61.1197 24.5962 61.1715 24.336 61.1715 24.0732C61.1715 23.8105 61.1197 23.5503 61.0192 23.3075C60.9186 23.0647 60.7712 22.8442 60.5854 22.6583C60.3996 22.4725 60.179 22.3251 59.9362 22.2246C59.6935 22.124 59.4333 22.0723 59.1705 22.0723Z" fill="#FAFAFA"/>
<path d="M59.1698 22.0724H59.2429C59.3162 22.0732 59.3894 22.0789 59.462 22.0897C59.7475 22.128 60.0211 22.2284 60.2635 22.3838C60.4955 22.5315 60.6947 22.725 60.849 22.9526C61.0033 23.1802 61.1093 23.4369 61.1607 23.707C61.212 23.9771 61.2075 24.2549 61.1474 24.5232C61.0873 24.7915 60.973 25.0446 60.8114 25.2671C60.5929 25.5711 60.295 25.8092 59.9502 25.9552C59.7655 26.03 59.5715 26.0798 59.3736 26.1032C59.1679 26.1186 58.9641 26.1128 58.7527 26.1147H56.0309H49.5128L49.557 26.0705C49.557 26.7779 49.557 27.5429 49.557 28.3252V28.431L49.4801 28.3579L47.112 26.1032L47.1447 26.1167H38.1604H36.5919C36.0683 26.1221 35.5625 25.9269 35.1783 25.5711C34.7941 25.2153 34.5607 24.7259 34.526 24.2035C34.4913 23.681 34.658 23.165 34.9918 22.7616C35.3255 22.3581 35.8011 22.0978 36.3209 22.034C36.5708 22.0071 36.811 22.0205 37.0532 22.0167H40.5708L50.2509 22.0282L56.7863 22.0436L58.5605 22.0532H59.0218C59.1256 22.0532 59.1794 22.0532 59.1794 22.0532H59.0218H58.5605L56.7863 22.0628L50.2509 22.0801H40.5708H37.0532C36.813 22.0801 36.5669 22.0801 36.3343 22.0974C35.8529 22.1572 35.4112 22.3952 35.0964 22.7644C34.854 23.0489 34.6983 23.397 34.6478 23.7674C34.5973 24.1377 34.6542 24.5148 34.8116 24.8538C34.9691 25.1928 35.2205 25.4795 35.5361 25.6799C35.8517 25.8802 36.2181 25.9858 36.5919 25.984H38.1604H47.1447H47.1639L47.1773 25.9956L49.5436 28.2522L49.4667 28.2849C49.4667 27.5026 49.4667 26.7375 49.4667 26.0302V25.9879H49.5089H56.0271H58.7489C58.9584 25.9879 59.166 25.9879 59.364 25.9879C59.5571 25.9664 59.7465 25.9192 59.9272 25.8476C60.3256 25.6798 60.6585 25.3867 60.8752 25.0125C61.0918 24.6384 61.1805 24.2038 61.1276 23.7747C61.0748 23.3456 60.8833 22.9455 60.5824 22.6351C60.2814 22.3248 59.8873 22.1211 59.4601 22.0551C59.2698 22.0743 59.1698 22.0878 59.1698 22.0724Z" fill="#263238"/>
<path d="M46.4586 25.4877H36.5651C36.3793 25.488 36.1952 25.4516 36.0234 25.3806C35.8517 25.3096 35.6956 25.2054 35.5642 25.0739C35.4328 24.9425 35.3286 24.7865 35.2576 24.6147C35.1866 24.4429 35.1501 24.2589 35.1504 24.073C35.1514 23.6987 35.301 23.34 35.5662 23.0758C35.8315 22.8116 36.1908 22.6636 36.5651 22.6641H46.4586C46.6443 22.6638 46.8282 22.7002 46.9998 22.7711C47.1715 22.8419 47.3274 22.946 47.4588 23.0772C47.5902 23.2084 47.6945 23.3642 47.7656 23.5358C47.8367 23.7073 47.8733 23.8912 47.8733 24.0769C47.8731 24.2624 47.8363 24.4461 47.765 24.6174C47.6938 24.7887 47.5895 24.9443 47.4581 25.0753C47.3268 25.2063 47.1709 25.3102 46.9994 25.3809C46.8279 25.4517 46.6441 25.488 46.4586 25.4877Z" fill="#339999"/>
<path d="M47.2862 20.0098L46.9517 21.0324H46.698L46.4731 20.3404L46.2405 21.0324H45.9887L45.6523 20.0098H45.9061L46.1367 20.7287L46.377 20.0098H46.5961L46.8306 20.7344L47.0671 20.0098H47.2862Z" fill="#263238"/>
<path d="M47.3426 20.5208C47.3365 20.409 47.364 20.298 47.4216 20.2021C47.4792 20.1061 47.5643 20.0297 47.6658 19.9826C47.7673 19.9355 47.8806 19.92 47.991 19.9379C48.1015 19.9559 48.204 20.0066 48.2853 20.0835C48.3667 20.1603 48.4231 20.2598 48.4473 20.3691C48.4715 20.4783 48.4623 20.5923 48.4211 20.6964C48.3798 20.8004 48.3082 20.8896 48.2157 20.9525C48.1232 21.0155 48.0139 21.0492 47.902 21.0494C47.83 21.0536 47.758 21.043 47.6903 21.0183C47.6225 20.9936 47.5606 20.9554 47.5082 20.9059C47.4558 20.8563 47.4141 20.7966 47.3856 20.7304C47.3571 20.6642 47.3425 20.5929 47.3426 20.5208ZM48.2211 20.5208C48.2196 20.458 48.1996 20.3971 48.1636 20.3456C48.1276 20.2942 48.0773 20.2545 48.0189 20.2315C47.9605 20.2085 47.8965 20.2033 47.8352 20.2165C47.7738 20.2296 47.7177 20.2606 47.6738 20.3055C47.6299 20.3505 47.6003 20.4073 47.5886 20.469C47.5769 20.5307 47.5837 20.5944 47.608 20.6523C47.6324 20.7101 47.6733 20.7595 47.7255 20.7943C47.7778 20.829 47.8392 20.8475 47.902 20.8475C47.9442 20.8476 47.986 20.8391 48.0248 20.8225C48.0636 20.8059 48.0987 20.7815 48.1278 20.751C48.1569 20.7204 48.1795 20.6842 48.1942 20.6447C48.209 20.6051 48.2155 20.5629 48.2134 20.5208H48.2211Z" fill="#263238"/>
<path d="M49.2923 21.0324L49.1001 20.7479H48.8829V21.0324H48.6465V20.0098H49.0886C49.3615 20.0098 49.5326 20.152 49.5326 20.3807C49.5356 20.4499 49.5168 20.5183 49.4789 20.5763C49.441 20.6342 49.3858 20.6788 49.3212 20.7037L49.5518 21.0324H49.2923ZM49.0694 20.202H48.8771V20.5595H49.0694C49.2135 20.5595 49.2866 20.4922 49.2866 20.3807C49.2866 20.2693 49.2135 20.202 49.0694 20.202Z" fill="#263238"/>
<path d="M50.0858 20.6306L49.9474 20.7729V21.0324H49.7129V20.0098H49.9436V20.4865L50.3972 20.0098H50.6605L50.2357 20.4653L50.6855 21.0324H50.4087L50.0858 20.6306Z" fill="#263238"/>
<path d="M56.5783 24.4477H56.2861L56.215 24.8167H56.0074L56.0823 24.4477H55.252L55.2789 24.2997L56.2284 23.3213H56.4783L55.5691 24.2651H56.1323L56.1977 23.9402H56.3899L56.3245 24.2651H56.609L56.5783 24.4477Z" fill="#263238"/>
<path d="M57.1937 23.5076L57.0707 23.9171H57.2149C57.5993 23.9171 57.7704 24.0747 57.7704 24.3169C57.7704 24.6264 57.5167 24.832 57.1342 24.832C57.0385 24.8376 56.9427 24.8234 56.8527 24.7904C56.7628 24.7573 56.6806 24.706 56.6113 24.6398L56.7247 24.4745C56.7801 24.53 56.8466 24.5732 56.9198 24.6014C56.993 24.6295 57.0712 24.6419 57.1495 24.6379C57.4071 24.6379 57.557 24.5245 57.557 24.3342C57.557 24.1862 57.4513 24.0978 57.1726 24.0978H56.8112L57.0438 23.3154H57.8857L57.8511 23.5076H57.1937Z" fill="#263238"/>
<path d="M58.0162 23.798C58.0098 23.7389 58.0155 23.6791 58.0328 23.6221C58.0502 23.5652 58.0788 23.5124 58.117 23.4668C58.1552 23.4212 58.2023 23.3838 58.2553 23.3568C58.3083 23.3299 58.3663 23.3139 58.4256 23.3098C58.4676 23.3081 58.5095 23.3156 58.5483 23.3316C58.5872 23.3477 58.6221 23.3721 58.6506 23.403C58.6791 23.4338 58.7006 23.4706 58.7135 23.5106C58.7264 23.5506 58.7305 23.5929 58.7255 23.6347C58.7321 23.6937 58.7267 23.7535 58.7096 23.8104C58.6925 23.8673 58.6641 23.9202 58.626 23.9658C58.5879 24.0114 58.541 24.0488 58.4881 24.0758C58.4351 24.1028 58.3773 24.1188 58.318 24.1229C58.2759 24.1245 58.234 24.1171 58.195 24.101C58.1561 24.0849 58.1211 24.0607 58.0925 24.0298C58.0638 23.9989 58.0421 23.9623 58.029 23.9223C58.0158 23.8823 58.0115 23.8399 58.0162 23.798ZM59.3425 23.3213H59.5136L58.2084 24.8168H58.0335L59.3425 23.3213ZM58.5928 23.6462C58.5928 23.5039 58.5275 23.4309 58.4199 23.4309C58.2469 23.4309 58.1623 23.6231 58.1623 23.7865C58.1623 23.9499 58.2276 24.0018 58.3353 24.0018C58.5064 24.0095 58.5928 23.8173 58.5928 23.6462ZM58.8293 24.5035C58.8227 24.4444 58.8281 24.3845 58.8454 24.3276C58.8626 24.2707 58.8912 24.2179 58.9295 24.1724C58.9678 24.1269 59.015 24.0897 59.0682 24.063C59.1213 24.0363 59.1793 24.0207 59.2387 24.0172C59.2806 24.0154 59.3225 24.0229 59.3612 24.039C59.4 24.0551 59.4348 24.0794 59.4632 24.1104C59.4915 24.1413 59.5128 24.1781 59.5255 24.2181C59.5382 24.2581 59.542 24.3004 59.5366 24.342C59.5433 24.401 59.5379 24.4606 59.5207 24.5174C59.5036 24.5742 59.4751 24.627 59.437 24.6724C59.3989 24.7179 59.352 24.7552 59.2991 24.782C59.2462 24.8088 59.1883 24.8245 59.1291 24.8283C59.0869 24.8306 59.0446 24.8236 59.0054 24.8078C58.9661 24.792 58.9309 24.7677 58.9021 24.7367C58.8733 24.7057 58.8516 24.6687 58.8387 24.6284C58.8258 24.5881 58.8219 24.5454 58.8274 24.5035H58.8293ZM59.4059 24.3516C59.4059 24.2113 59.3387 24.1363 59.2329 24.1363C59.0619 24.1363 58.9734 24.3286 58.9734 24.4939C58.9734 24.6592 59.0426 24.7091 59.1464 24.7091C59.3098 24.7091 59.3963 24.515 59.3963 24.3516H59.4059Z" fill="#263238"/>
<g opacity="0.3">
<path d="M36.9481 22.6602L36.0312 25.4877H36.9481L37.8093 22.6602H36.9481Z" fill="white"/>
</g>
<g opacity="0.3">
<path d="M39.2118 22.6602L38.2949 25.4877H39.2118L40.0729 22.6602H39.2118Z" fill="white"/>
</g>
<g opacity="0.3">
<path d="M41.4736 22.6602L40.5586 25.4877H41.4736L42.3366 22.6602H41.4736Z" fill="white"/>
</g>
<g opacity="0.3">
<path d="M43.7392 22.6602L42.8242 25.4877H43.7392L44.6022 22.6602H43.7392Z" fill="white"/>
</g>
<g opacity="0.3">
<path d="M46.0028 22.6602L45.0859 25.4877H46.0028L46.8659 22.6602H46.0028Z" fill="white"/>
</g>
<path d="M11.6953 62.6799C11.6953 62.6799 16.5642 64.8731 21.6349 64.8731C26.3289 64.8731 31.2977 62.5107 31.2977 62.5107L11.6953 62.6799Z" fill="#E0E0E0"/>
<path d="M22.1629 62.7227H20.1523V83.7839H22.1629V62.7227Z" fill="#E0E0E0"/>
<path d="M30.0779 82.5479H12.2324V83.7819H30.0779V82.5479Z" fill="#E0E0E0"/>
<path d="M14.4171 84.1871C14.4178 84.4569 14.3385 84.7208 14.1891 84.9455C14.0397 85.1702 13.827 85.3454 13.578 85.4491C13.3289 85.5528 13.0547 85.5802 12.79 85.5279C12.5253 85.4756 12.2822 85.3459 12.0913 85.1553C11.9003 84.9647 11.7703 84.7217 11.7176 84.4571C11.665 84.1925 11.692 83.9182 11.7953 83.669C11.8987 83.4198 12.0736 83.2068 12.2981 83.0571C12.5225 82.9074 12.7864 82.8277 13.0561 82.8281C13.4166 82.8286 13.7622 82.9719 14.0172 83.2266C14.2723 83.4813 14.416 83.8267 14.4171 84.1871Z" fill="#263238"/>
<path d="M22.3467 84.187C22.3467 84.4566 22.2668 84.7201 22.1171 84.9442C21.9673 85.1683 21.7545 85.343 21.5055 85.4461C21.2564 85.5493 20.9824 85.5763 20.718 85.5237C20.4537 85.4711 20.2109 85.3413 20.0203 85.1507C19.8297 84.9601 19.6999 84.7173 19.6473 84.4529C19.5947 84.1885 19.6217 83.9145 19.7248 83.6655C19.828 83.4165 20.0027 83.2036 20.2268 83.0539C20.4509 82.9041 20.7144 82.8242 20.9839 82.8242C21.3454 82.8242 21.692 82.9678 21.9476 83.2234C22.2032 83.479 22.3467 83.8256 22.3467 84.187Z" fill="#263238"/>
<path d="M31.5342 84.187C31.5342 84.4566 31.4543 84.7201 31.3046 84.9442C31.1548 85.1683 30.942 85.343 30.693 85.4461C30.4439 85.5493 30.1699 85.5763 29.9055 85.5237C29.6412 85.4711 29.3984 85.3413 29.2078 85.1507C29.0172 84.9601 28.8874 84.7173 28.8348 84.4529C28.7822 84.1885 28.8092 83.9145 28.9123 83.6655C29.0155 83.4165 29.1902 83.2036 29.4143 83.0539C29.6384 82.9041 29.9019 82.8242 30.1714 82.8242C30.5329 82.8242 30.8795 82.9678 31.1351 83.2234C31.3907 83.479 31.5342 83.8256 31.5342 84.187Z" fill="#263238"/>
<path d="M21.6317 70.3018H18.8965V71.4339H21.6317V70.3018Z" fill="#E0E0E0"/>
<path d="M19.3941 69.5098H18.3984V72.2258H19.3941V69.5098Z" fill="#E0E0E0"/>
<path d="M11.218 30.624H19.3834V60.0006H8.98828V32.8518C8.9893 32.261 9.2246 31.6946 9.64259 31.277C10.0606 30.8593 10.6271 30.6245 11.218 30.624Z" fill="#455A64"/>
<path d="M11.2883 59.5542C11.2613 59.5542 11.2383 53.1803 11.2383 45.3186C11.2383 37.4569 11.2613 31.0811 11.2883 31.0811C11.3152 31.0811 11.3382 37.455 11.3382 45.3186C11.3382 53.1822 11.3113 59.5542 11.2883 59.5542Z" fill="#263238"/>
<path d="M8.98813 59.9413H34.7088V63.1359H10.5163C10.1084 63.1359 9.71729 62.9739 9.42891 62.6855C9.14053 62.3972 8.97852 62.006 8.97852 61.5982V59.9336L8.98813 59.9413Z" fill="#455A64"/>
<path d="M23.5475 19.0116L22.4326 29.6393C22.2404 31.4481 22.3346 34.141 25.2063 34.3102C27.7051 34.2698 28.5816 31.9844 28.7566 30.2986C28.8411 29.4971 28.9103 28.8301 28.9257 28.7494C28.9257 28.7494 31.6571 28.7782 32.1338 26.1198C32.3645 24.8358 32.6221 22.1525 32.8277 19.7228C32.9342 18.4637 32.5624 17.2107 31.7866 16.2134C31.0108 15.216 29.8878 14.5474 28.6412 14.3407L28.3837 14.2965C25.5869 13.9928 23.7685 16.2014 23.5475 19.0116Z" fill="#FFBE9D"/>
<path d="M28.9254 28.7437C27.6958 28.5359 26.5517 27.9795 25.6289 27.1406C25.6289 27.1406 26.1498 29.2262 28.8466 29.4299L28.9254 28.7437Z" fill="#EB996E"/>
<path d="M28.1474 20.3922C28.0898 20.4402 27.8034 20.1634 27.3555 20.1096C26.9076 20.0558 26.552 20.2461 26.5097 20.1846C26.4886 20.1557 26.554 20.0615 26.702 19.9731C26.9106 19.8587 27.1503 19.8136 27.3863 19.8443C27.6198 19.8737 27.838 19.9767 28.009 20.1384C28.1417 20.2634 28.1763 20.3691 28.1474 20.3922Z" fill="#263238"/>
<path d="M28.1015 21.4204C28.0868 21.5144 28.0359 21.5989 27.9598 21.656C27.8837 21.7131 27.7884 21.7382 27.694 21.726C27.6478 21.722 27.6029 21.7087 27.5619 21.6871C27.5208 21.6655 27.4845 21.636 27.455 21.6002C27.4255 21.5644 27.4034 21.5231 27.39 21.4788C27.3765 21.4344 27.3721 21.3877 27.3769 21.3416C27.392 21.2478 27.443 21.1636 27.519 21.1066C27.595 21.0496 27.6901 21.0243 27.7844 21.036C27.8306 21.0401 27.8755 21.0533 27.9165 21.0749C27.9575 21.0965 27.9939 21.1261 28.0234 21.1618C28.0529 21.1976 28.075 21.2389 28.0884 21.2833C28.1018 21.3277 28.1063 21.3743 28.1015 21.4204Z" fill="#263238"/>
<path d="M28.9824 23.6253C29.2093 23.5941 29.4391 23.5909 29.6667 23.6157C29.7724 23.6157 29.8762 23.6157 29.9051 23.5504C29.9313 23.4432 29.9246 23.3307 29.8858 23.2274L29.7109 22.3817C29.4687 21.1765 29.313 20.1943 29.363 20.1846C29.413 20.175 29.6456 21.1457 29.8858 22.3471C29.9435 22.645 29.9973 22.9237 30.0492 23.1986C30.0938 23.3357 30.0884 23.4842 30.0339 23.6176C30.0133 23.6514 29.9853 23.6801 29.952 23.7014C29.9187 23.7227 29.8809 23.7362 29.8416 23.7407C29.781 23.7486 29.7196 23.7486 29.659 23.7407C29.4296 23.7301 29.2024 23.6914 28.9824 23.6253Z" fill="#263238"/>
<path d="M28.1122 18.6877C28.0584 18.7838 27.7066 18.6742 27.2741 18.6569C26.8416 18.6396 26.4803 18.7011 26.438 18.6012C26.4207 18.5531 26.4957 18.4685 26.6514 18.3936C26.8533 18.3007 27.0754 18.2597 27.2972 18.2744C27.5193 18.2861 27.7351 18.3521 27.9258 18.4666C28.0699 18.5493 28.1353 18.6415 28.1122 18.6877Z" fill="#263238"/>
<path d="M32.2959 19.9114C32.2421 19.9883 31.8999 19.8653 31.477 19.8134C31.0541 19.7615 30.6966 19.7826 30.6582 19.6942C30.6428 19.6519 30.7197 19.5865 30.8735 19.5346C31.0805 19.4741 31.298 19.4584 31.5116 19.4885C31.7272 19.5162 31.9346 19.5882 32.121 19.7C32.2613 19.7903 32.3209 19.8749 32.2959 19.9114Z" fill="#263238"/>
<path d="M23.4352 21.015C23.3929 20.9862 21.6956 20.1692 21.4515 21.9992C21.2074 23.8291 23.0949 23.6964 23.1046 23.6445C23.1142 23.5926 23.4352 21.015 23.4352 21.015Z" fill="#FFBE9D"/>
<path d="M22.6404 22.8773C22.6404 22.8773 22.6039 22.8946 22.5481 22.9119C22.4676 22.9341 22.3815 22.9245 22.3079 22.8849C22.1156 22.7888 22.0022 22.4601 22.0388 22.1295C22.0546 21.9715 22.1058 21.8191 22.1887 21.6836C22.2134 21.6287 22.2512 21.5806 22.2988 21.5438C22.3464 21.5069 22.4023 21.4823 22.4616 21.4721C22.4992 21.4672 22.5374 21.4757 22.5694 21.4961C22.6013 21.5165 22.6251 21.5475 22.6366 21.5836C22.6558 21.6375 22.6366 21.674 22.6481 21.6778C22.6596 21.6817 22.6923 21.6528 22.6865 21.574C22.6834 21.5276 22.6636 21.4839 22.6308 21.451C22.5852 21.4059 22.5238 21.3804 22.4597 21.3799C22.3826 21.3852 22.308 21.41 22.2431 21.452C22.1782 21.494 22.1251 21.5519 22.0887 21.6202C21.9894 21.7676 21.928 21.9373 21.91 22.1142C21.8734 22.4851 22.0157 22.8561 22.2694 22.9676C22.3166 22.9884 22.3679 22.9984 22.4195 22.9967C22.4711 22.9951 22.5216 22.9818 22.5674 22.958C22.6308 22.9215 22.6519 22.8811 22.6404 22.8773Z" fill="#EB996E"/>
<path d="M28.4306 24.8497C28.4556 24.8055 28.1058 24.6575 27.8828 24.3019C27.7917 24.1444 27.7212 23.9758 27.6733 23.8002C27.6329 23.6618 27.6002 23.5734 27.5791 23.5773C27.5579 23.5811 27.556 23.6734 27.5791 23.8214C27.6019 24.0196 27.6675 24.2104 27.7713 24.3807C27.8769 24.5523 28.0279 24.6914 28.2076 24.7825C28.3307 24.8517 28.4172 24.8651 28.4306 24.8497Z" fill="#263238"/>
<path d="M21.267 17.8145C21.7111 17.2014 21.8706 16.4364 22.1474 15.7328C22.4242 15.0293 22.8951 14.3181 23.6275 14.1297L23.6429 14.1394C24.3022 13.9471 25.0864 14.0106 25.565 14.5007C25.7822 13.5569 26.6895 12.8784 27.6448 12.7208C28.6002 12.5632 30.0802 12.8457 30.9414 13.2974C31.6064 13.6396 32.2215 14.2701 32.9558 15.1831C33.2671 15.5669 33.5461 15.9758 33.79 16.4056L34.3667 18.9832L33.5517 20.2307C33.5022 20.318 33.4483 20.4027 33.3902 20.4844L32.5099 23.1928C32.5387 22.4355 32.8366 19.8175 32.8655 19.0582C32.2999 18.989 31.7542 18.8062 31.261 18.5208C30.7678 18.2354 30.3375 17.8533 29.9957 17.3974C29.6266 16.9034 29.3556 16.3018 28.8289 15.9789C28.1523 15.5618 27.2912 15.7386 26.5088 15.9308L26.5434 15.9039C26.1359 16.0489 25.7601 16.2708 25.4362 16.5574C25.4663 18.0614 25.1719 19.5542 24.5732 20.9342C24.4828 21.1418 24.2522 21.5647 24.0331 21.6281C23.6063 21.7492 23.5333 21.3187 23.3065 21.0726C23.1392 20.8919 22.8701 20.8439 22.5722 20.8189C22.425 20.1749 22.3159 19.5228 22.2454 18.866C21.9909 18.9184 21.7278 18.9112 21.4766 18.8448L21.7668 18.2989C21.6617 18.3623 21.5445 18.4029 21.4227 18.4181C21.3592 18.4261 21.2948 18.4134 21.2391 18.3819C21.1833 18.3504 21.1392 18.3017 21.1133 18.2432C21.0652 18.0952 21.1748 17.9433 21.267 17.8145Z" fill="#263238"/>
<path d="M26.3833 14.8848C26.2809 14.9515 26.1833 15.0254 26.0912 15.1058C25.8561 15.3422 25.6865 15.6356 25.5991 15.9573C25.5323 16.1772 25.4878 16.4032 25.4665 16.632C25.4434 16.88 25.4396 17.1452 25.4319 17.4259C25.4297 17.7203 25.4092 18.0144 25.3704 18.3062C25.3474 18.461 25.3134 18.6139 25.2685 18.7637C25.2295 18.9251 25.1502 19.0739 25.0378 19.1962C24.9869 19.2431 24.9249 19.2762 24.8576 19.2923C24.7903 19.3085 24.72 19.3072 24.6534 19.2885C24.5239 19.2522 24.4103 19.1737 24.3305 19.0655C24.2044 18.8518 24.138 18.6082 24.1382 18.3601L24.1921 18.3716C24.0904 18.5668 23.9609 18.7461 23.8076 18.904C23.6621 19.0499 23.4658 19.1339 23.2598 19.1385C23.1645 19.1393 23.0708 19.114 22.9888 19.0655C22.913 19.0167 22.8534 18.9464 22.8177 18.8637C22.7846 18.7868 22.7727 18.7026 22.7831 18.6196C22.7953 18.5453 22.8326 18.4774 22.8888 18.4273L22.9138 18.4562C22.6926 18.6714 22.4156 18.8205 22.1142 18.8867C22.093 18.8933 22.071 18.8966 22.0488 18.8963C22.0687 18.8882 22.0893 18.8817 22.1103 18.8771C22.1526 18.8637 22.2141 18.8464 22.291 18.8156C22.5133 18.7285 22.7159 18.5978 22.8869 18.4312L22.9138 18.46C22.8647 18.5121 22.8329 18.5782 22.8229 18.6491C22.813 18.72 22.8252 18.7923 22.8581 18.856C22.8908 18.9299 22.9451 18.9922 23.0138 19.0347C23.0881 19.0789 23.1733 19.1015 23.2598 19.1001C23.452 19.0925 23.6341 19.0121 23.7692 18.8752C23.9152 18.7199 24.0382 18.5445 24.1344 18.3543L24.1805 18.2716V18.3658C24.1847 18.6036 24.251 18.8362 24.3727 19.0405C24.4459 19.1337 24.5469 19.201 24.6611 19.2327C24.7186 19.2495 24.7795 19.2511 24.8377 19.2372C24.896 19.2234 24.9497 19.1947 24.9936 19.1539C25.0972 19.0392 25.1705 18.9004 25.207 18.7503C25.2519 18.603 25.2859 18.4527 25.3088 18.3005C25.3475 18.0111 25.3687 17.7197 25.3723 17.4278C25.3723 17.1472 25.3877 16.8819 25.4126 16.632C25.4368 16.3997 25.4845 16.1704 25.5549 15.9477C25.6485 15.6214 25.8277 15.3261 26.0739 15.0924C26.1646 15.0062 26.2692 14.936 26.3833 14.8848Z" fill="#455A64"/>
<path d="M34.4318 18.2585L34.4087 18.2738L34.3376 18.3161C34.2994 18.3401 34.2596 18.3613 34.2184 18.3796C34.1684 18.4007 34.1127 18.4295 34.0473 18.4507C33.6725 18.5794 33.2718 18.6137 32.8806 18.5506C32.2987 18.4579 31.756 18.1989 31.3178 17.8048C30.7911 17.3186 30.3693 16.7299 30.078 16.0749C29.9127 15.7327 29.7839 15.3848 29.6379 15.0619C29.5064 14.7476 29.3296 14.4542 29.1131 14.1911C28.9201 13.9521 28.6694 13.7662 28.3846 13.651C28.2559 13.602 28.1204 13.5735 27.9829 13.5664C27.8537 13.5614 27.7244 13.5737 27.5984 13.603C27.218 13.6945 26.8863 13.9266 26.67 14.2526C26.5975 14.3738 26.5388 14.5028 26.4951 14.6371C26.4938 14.6282 26.4938 14.6191 26.4951 14.6102C26.4951 14.5871 26.5066 14.5621 26.5143 14.5294C26.545 14.4262 26.5889 14.3273 26.645 14.2353C26.7345 14.089 26.8482 13.959 26.9814 13.8509C27.1579 13.7086 27.3631 13.6062 27.583 13.5511C27.8513 13.4819 28.1342 13.496 28.3942 13.5914C28.6878 13.709 28.9469 13.8987 29.1477 14.1431C29.3681 14.4097 29.5488 14.7069 29.684 15.0254C29.832 15.3521 29.9608 15.6981 30.1242 16.0383C30.4134 16.685 30.8291 17.2673 31.3467 17.751C31.7774 18.1415 32.3111 18.4003 32.8844 18.4968C33.2697 18.5635 33.6655 18.5358 34.0377 18.4161C34.2991 18.3373 34.4279 18.2431 34.4318 18.2585Z" fill="#455A64"/>
<path d="M32.2218 20.9344C32.1641 20.9844 31.8777 20.7057 31.4298 20.6538C30.982 20.6019 30.6264 20.7883 30.586 20.7268C30.5648 20.698 30.6283 20.6057 30.7782 20.5154C30.9872 20.4019 31.2267 20.3575 31.4625 20.3885C31.6962 20.416 31.9148 20.5185 32.0853 20.6807C32.216 20.8095 32.2506 20.9171 32.2218 20.9344Z" fill="#263238"/>
<path d="M31.84 21.7681C31.8258 21.8623 31.775 21.9471 31.6988 22.0043C31.6226 22.0614 31.527 22.0864 31.4325 22.0737C31.3864 22.0696 31.3416 22.0564 31.3006 22.0347C31.2597 22.0131 31.2235 21.9835 31.1941 21.9477C31.1648 21.9119 31.1428 21.8706 31.1296 21.8262C31.1165 21.7818 31.1123 21.7353 31.1173 21.6892C31.132 21.5956 31.1826 21.5114 31.2583 21.4544C31.334 21.3974 31.4288 21.372 31.5229 21.3836C31.5691 21.3877 31.614 21.4009 31.655 21.4225C31.6961 21.4441 31.7324 21.4737 31.7619 21.5095C31.7914 21.5452 31.8135 21.5865 31.8269 21.6309C31.8404 21.6753 31.8448 21.7219 31.84 21.7681Z" fill="#263238"/>
<path d="M33.6081 16.0654C33.8004 16.3903 34.1252 16.7017 34.5039 16.7017C34.6427 16.6871 34.7802 16.6621 34.9152 16.6267C35.0382 16.719 34.9613 17.1649 34.8576 17.2783C34.7615 17.3743 34.6573 17.4618 34.5462 17.5397C34.9613 17.8223 35.3746 17.7473 35.8609 17.6262C35.7722 18.0212 35.5817 18.3861 35.3082 18.6845C35.0347 18.983 34.6878 19.2046 34.302 19.3274C34.1822 19.3763 34.0524 19.3961 33.9234 19.3851C33.7944 19.3741 33.6699 19.3325 33.5601 19.2639C33.4002 19.0994 33.3065 18.8818 33.2967 18.6527C33.1699 17.8259 33.146 16.9865 33.2256 16.1538L33.6081 16.0654Z" fill="#263238"/>
<path d="M28.6416 31.2373C28.6416 31.2373 30.3332 31.9235 31.2962 34.2647C31.9728 35.9101 35.7364 41.1038 35.7364 41.1038L45.7433 43.3259L46.0854 46.5186L30.0794 46.386L27.8555 39.3027L28.6416 31.2373Z" fill="#339999"/>
<path d="M21.9037 28.2861L20.1276 29.0319C18.4841 29.7201 16.3812 31.3059 15.6758 32.9436C13.9824 36.8879 12.4485 41.9566 11.8603 46.4411C11.2663 50.9639 12.4485 57.6569 12.4485 57.6569L27.4684 49.0744L26.5899 48.4613L29.4367 32.9762L28.9062 31.1021L29.2598 29.5163C29.2598 29.5163 25.2752 27.9171 22.3727 26.7695L21.9037 28.2861Z" fill="#339999"/>
<g opacity="0.3">
<path d="M20.4692 53.1828C20.5243 52.4139 20.5794 51.6406 20.6345 50.8627C20.4583 51.0305 20.2278 51.1294 19.9848 51.1415C20.3605 50.7828 20.694 50.3823 20.9786 49.9478L20.2943 50.2419C20.5356 50.0563 20.7326 49.8192 20.8709 49.548C20.5038 49.2616 19.9867 49.3096 19.5254 49.3558C17.1515 49.596 14.7565 49.4365 12.373 49.277C12.1342 49.2633 11.9014 49.1977 11.6906 49.0847C11.6906 49.0847 11.6425 48.4312 11.7482 48.1871C11.854 47.943 12.0193 48.0141 12.2692 47.9237C12.5228 47.8466 12.7863 47.8065 13.0515 47.8046C15.9521 47.6508 18.8584 47.8891 21.7532 48.1294C21.9337 48.1267 22.111 48.1775 22.2626 48.2755C22.499 48.4677 22.4779 48.8291 22.4375 49.1309C22.2888 50.215 22.1415 51.2984 21.9954 52.3813" fill="black"/>
</g>
<path d="M29.2587 32.3535C29.2585 32.4025 29.254 32.4514 29.2452 32.4996L29.1837 32.9129C29.1299 33.2704 29.0434 33.7894 28.93 34.4275C28.7032 35.7058 28.363 37.4646 27.9689 39.4021C27.5749 41.3397 27.1751 43.0908 26.8887 44.3556C26.7445 44.9803 26.6272 45.4897 26.5427 45.8529C26.5023 46.0221 26.4696 46.1566 26.4446 46.2585C26.4357 46.3067 26.4215 46.3537 26.4023 46.3988C26.4074 46.3504 26.4151 46.3023 26.4254 46.2547C26.4446 46.1509 26.4715 46.0144 26.5061 45.8453C26.5811 45.4781 26.6984 44.9687 26.8195 44.3402L27.8613 39.3867C28.2649 37.4492 28.6167 35.6923 28.8608 34.4179C28.9781 33.7894 29.0761 33.2762 29.1453 32.909C29.178 32.7399 29.2049 32.6034 29.2241 32.4996C29.2307 32.4499 29.2423 32.4009 29.2587 32.3535Z" fill="#263238"/>
<path d="M15.6758 54.3373C15.7027 54.3041 15.7329 54.2739 15.7661 54.247L16.0352 53.999C16.1506 53.8914 16.2966 53.7626 16.4716 53.6146C16.6465 53.4666 16.8387 53.3013 17.0655 53.1302C17.5095 52.7746 18.0574 52.3767 18.6821 51.9596C19.3068 51.5425 20.0276 51.1196 20.783 50.7121C21.5384 50.3046 22.3054 49.9663 23.0012 49.6799C23.697 49.3935 24.3352 49.1724 24.8792 49.0071C25.1483 48.9168 25.3982 48.8514 25.6154 48.7899C25.8326 48.7284 26.021 48.6804 26.1747 48.6438L26.5323 48.5631C26.5728 48.5502 26.6147 48.5425 26.6572 48.54C26.6184 48.5582 26.5778 48.5724 26.5361 48.5823L26.1843 48.6823C26.0325 48.7246 25.846 48.7765 25.6307 48.8437C25.4155 48.911 25.1694 48.9802 24.9003 49.0744C24.3621 49.2493 23.7278 49.4819 23.0358 49.7664C22.3438 50.0509 21.5961 50.3988 20.8311 50.8005C20.066 51.2023 19.3606 51.629 18.732 52.0365C18.1035 52.444 17.5557 52.8399 17.1078 53.1898C16.8791 53.357 16.683 53.5223 16.5062 53.6607C16.3293 53.7991 16.1813 53.926 16.0602 54.0278L15.7796 54.2604C15.7478 54.2897 15.713 54.3155 15.6758 54.3373Z" fill="#263238"/>
<path d="M23.3844 48.6694C23.3979 48.6944 21.937 49.5152 20.1167 50.5032C18.2964 51.4912 16.8202 52.2735 16.8067 52.2485C16.7933 52.2235 18.2541 51.4047 20.0744 50.4148C21.8947 49.4249 23.371 48.6464 23.3844 48.6694Z" fill="#263238"/>
<g opacity="0.3">
<path d="M18.1074 36.8057C19.0397 40.8422 21.8903 44.4444 25.6847 46.0878C22.955 43.166 20.4236 40.065 18.1074 36.8057Z" fill="black"/>
</g>
<g opacity="0.3">
<path d="M29.0213 33.7383C29.3884 35.4452 29.1155 37.5826 28.2524 39.0954L28.0391 38.6533C28.3408 37.3712 28.7733 35.0973 29.0136 33.7383" fill="black"/>
</g>
<path d="M37.0059 74.4689L35.2048 79.8855C35.2048 79.8855 40.1083 83.5377 39.8718 84.5699L29.2422 81.456L31.7007 72.8984L37.0059 74.4689Z" fill="#455A64"/>
<g opacity="0.3">
<path d="M37.0059 74.4689L35.2048 79.8855C35.2048 79.8855 40.1083 83.5377 39.8718 84.5699L29.2422 81.456L31.7007 72.8984L37.0059 74.4689Z" fill="black"/>
</g>
<path d="M32.0536 78.4629C31.9423 78.4638 31.8352 78.506 31.7532 78.5813C31.6712 78.6565 31.62 78.7596 31.6096 78.8704C31.6063 78.9816 31.646 79.0898 31.7205 79.1725C31.7949 79.2552 31.8984 79.3061 32.0094 79.3144C32.1275 79.313 32.2408 79.2677 32.3275 79.1875C32.4141 79.1072 32.4679 78.9976 32.4784 78.88C32.4695 78.7638 32.4159 78.6555 32.3287 78.578C32.2416 78.5006 32.1278 78.46 32.0113 78.4648" fill="#E0E0E0"/>
<g opacity="0.6">
<path d="M29.2422 81.456L29.5228 80.6025L39.6104 83.9068C39.6104 83.9068 40.0237 84.2508 39.8718 84.5699L29.2422 81.456Z" fill="white"/>
</g>
<path d="M35.3925 79.8815C35.3752 79.9333 35.1099 79.8814 34.8043 79.9737C34.4987 80.066 34.3007 80.2428 34.2584 80.2082C34.2161 80.1736 34.3814 79.8968 34.7524 79.793C35.1234 79.6892 35.4175 79.8372 35.3925 79.8815Z" fill="#263238"/>
<path d="M36.3741 80.6693C36.3741 80.7231 36.1204 80.7462 35.8801 80.9134C35.6398 81.0806 35.5207 81.2979 35.4688 81.2806C35.4169 81.2633 35.4688 80.9615 35.7744 80.7577C36.08 80.554 36.3876 80.6193 36.3741 80.6693Z" fill="#263238"/>
<path d="M36.6161 82.1897C36.5661 82.1897 36.57 81.9072 36.7853 81.6611C37.0006 81.4151 37.2793 81.3728 37.287 81.4228C37.2947 81.4728 37.0947 81.5804 36.9275 81.7842C36.7603 81.9879 36.6699 82.1994 36.6161 82.1897Z" fill="#263238"/>
<path d="M35.6666 78.5999C35.632 78.6421 35.4147 78.4999 35.1149 78.4345C34.815 78.3692 34.5594 78.3942 34.5382 78.3404C34.5171 78.2865 34.7977 78.1674 35.1495 78.25C35.5012 78.3327 35.705 78.5691 35.6666 78.5999Z" fill="#263238"/>
<path d="M40.1062 76.8871L39.8813 82.5921C39.8813 82.5921 45.6055 84.7354 45.6651 85.7945L34.5895 85.7561L34.5684 76.8525L40.1062 76.8871Z" fill="#455A64"/>
<path d="M36.4576 82.1001C36.3507 82.132 36.2594 82.2022 36.2012 82.2973C36.143 82.3924 36.122 82.5057 36.1423 82.6153C36.1705 82.7232 36.2392 82.8161 36.334 82.8747C36.4288 82.9334 36.5426 82.9534 36.6517 82.9305C36.7644 82.8965 36.8605 82.8218 36.9212 82.7209C36.982 82.62 37.003 82.5002 36.9804 82.3846C36.9399 82.2753 36.8586 82.1859 36.7536 82.1353C36.6485 82.0847 36.5279 82.077 36.4172 82.1136" fill="#E0E0E0"/>
<g opacity="0.6">
<path d="M34.5898 85.7551L34.6225 84.8574L45.231 85.2284C45.231 85.2284 45.7231 85.4456 45.6654 85.7935L34.5898 85.7551Z" fill="white"/>
</g>
<path d="M40.0618 82.5359C40.0618 82.5898 39.7889 82.6128 39.5217 82.7858C39.2545 82.9588 39.1123 83.1856 39.0623 83.1703C39.0123 83.1549 39.095 82.8358 39.4217 82.632C39.7485 82.4283 40.0733 82.486 40.0618 82.5359Z" fill="#263238"/>
<path d="M41.2208 83.0204C41.2324 83.0723 40.9979 83.1627 40.8133 83.3914C40.6288 83.6202 40.575 83.8624 40.5211 83.8585C40.4673 83.8547 40.4347 83.551 40.6692 83.2703C40.9037 82.9897 41.2208 82.9686 41.2208 83.0204Z" fill="#263238"/>
<path d="M41.8731 84.4121C41.8231 84.4236 41.7501 84.1526 41.8885 83.8585C42.0269 83.5644 42.2825 83.4452 42.3056 83.4894C42.3287 83.5336 42.171 83.6932 42.0596 83.9373C41.9481 84.1814 41.9308 84.4082 41.8731 84.4121Z" fill="#263238"/>
<path d="M39.9689 81.229C39.9459 81.279 39.6979 81.204 39.3923 81.229C39.0867 81.254 38.8483 81.3443 38.8156 81.2982C38.783 81.252 39.0079 81.0598 39.3788 81.0406C39.7498 81.0214 39.9959 81.1867 39.9689 81.229Z" fill="#263238"/>
<path d="M26.8371 48.9501C26.8371 48.9501 40.1136 52.41 41.7629 54.6993C43.1545 56.6426 35.8464 76.4852 35.8464 76.4852L30.0799 75.9874L32.5672 59.3836L17.6914 54.6551L19.9384 48.9424L26.8371 48.9501Z" fill="#263238"/>
<path d="M27.7882 52.0605C27.7882 52.0605 41.3607 55.357 42.7331 57.7001C43.3732 58.7938 42.9523 62.3845 42.7139 64.0798C42.5524 65.2216 40.1536 81.1987 40.1536 81.1987H34.2851L34.4139 63.1533L20.3128 60.3104C20.3128 60.3104 12.7433 60.8871 12.4473 57.6578L15.6073 53.3752L23.0654 49.6904L27.7882 52.0605Z" fill="#263238"/>
<path d="M26.754 51.6445C26.754 51.6445 26.8212 51.6599 26.9462 51.6964L27.5228 51.856L29.7372 52.4749C30.6983 52.744 31.8746 53.0727 33.2336 53.4764C34.5926 53.88 36.1323 54.3683 37.8027 55.0007C38.6394 55.3133 39.5031 55.6696 40.3937 56.0694L41.0665 56.3731C41.2932 56.4838 41.5139 56.6063 41.7277 56.7402C41.9464 56.8772 42.1529 57.0328 42.3448 57.2054C42.5442 57.3807 42.7113 57.5895 42.8388 57.8224C43.2962 59.9022 43.0194 62.1761 42.6792 64.5C42.5312 65.6706 42.3409 66.8643 42.1622 68.0849C41.9834 69.3055 41.7931 70.5549 41.6028 71.8235C41.2184 74.3627 40.8339 76.9922 40.4264 79.6833C40.3495 80.1927 40.2746 80.7001 40.1977 81.2037V81.2479H34.2389V81.198C34.2908 74.3589 34.3389 68.1656 34.3773 63.1545L34.4081 63.191L24.3801 61.1516L21.6448 60.5903L20.9336 60.4423C20.7721 60.4077 20.6914 60.3866 20.6914 60.3866L20.9355 60.4308L21.6506 60.5692L24.3974 61.1074L34.4215 63.1103H34.4523V63.143C34.4196 68.1541 34.3792 74.3473 34.335 81.1883L34.2851 81.1384H40.1516L40.1035 81.1807C40.1785 80.6751 40.2554 80.1696 40.3303 79.6602L41.5086 71.8004C41.7008 70.5293 41.8879 69.283 42.0699 68.0618C42.2506 66.8412 42.4428 65.6476 42.5927 64.477C42.6722 63.8926 42.7497 63.316 42.8253 62.747C42.9062 62.187 42.9563 61.6229 42.9752 61.0574C42.9945 60.5 42.9945 59.9509 42.9752 59.4101C42.9637 59.1391 42.9483 58.8719 42.9253 58.6066C42.923 58.3465 42.8702 58.0892 42.7696 57.8493C42.6474 57.625 42.4866 57.424 42.2948 57.2554C42.1073 57.0862 41.9053 56.9337 41.6912 56.7998C41.4804 56.6659 41.2622 56.5439 41.0377 56.4346L40.3688 56.129C39.4807 55.7311 38.6177 55.3716 37.7834 55.0583C36.1169 54.4221 34.5772 53.9358 33.2221 53.5206C31.867 53.1054 30.6906 52.7786 29.7314 52.5037L27.5209 51.881L26.9443 51.7118C26.8193 51.6676 26.754 51.6445 26.754 51.6445Z" fill="#455A64"/>
<path d="M45.5513 43.4829C45.6378 43.3522 46.7585 42.0586 47.0602 42.0586C47.362 42.0586 47.708 42.4046 47.708 42.4046C47.9099 42.312 48.1348 42.2818 48.3539 42.3181C48.6134 42.4046 49.8205 43.4387 49.8205 43.827V44.4748C49.8478 44.646 49.8478 44.8206 49.8205 44.9918C49.7782 45.2936 49.0516 45.8107 49.0516 45.8107H44.9055C44.9055 45.8107 44.1155 45.2782 44.2135 44.7766C44.3115 44.2749 45.5513 43.4829 45.5513 43.4829Z" fill="#FFBE9D"/>
<path d="M47.7077 42.4053C47.7976 42.4464 47.8838 42.4952 47.9652 42.5514L48.6495 42.9838C48.7286 43.0298 48.8044 43.0812 48.8764 43.1376C48.9527 43.2082 49.0101 43.2968 49.0436 43.3952C49.0698 43.4995 49.0821 43.6068 49.0801 43.7143L49.0974 44.0449C49.1205 44.4966 49.1435 44.9925 49.1685 45.5115L49.1801 45.746V45.7883L49.1397 45.7979L48.886 45.8594H48.8744C48.7558 45.8558 48.6416 45.8133 48.5496 45.7383C48.4648 45.668 48.3938 45.5826 48.3401 45.4865C48.2426 45.3115 48.1696 45.1239 48.1229 44.9291C48.0422 44.6034 47.9946 44.2705 47.9806 43.9353L48.0037 43.9661L47.279 43.6816C47.1893 43.6501 47.1025 43.6108 47.0195 43.5643C47.1127 43.5833 47.204 43.6103 47.2925 43.6451L48.0268 43.9007H48.0479V43.9238C48.0701 44.2536 48.1236 44.5805 48.2074 44.9003C48.2546 45.0858 48.3263 45.2643 48.4208 45.4308C48.4622 45.5186 48.5255 45.5942 48.6046 45.6504C48.6837 45.7067 48.776 45.7416 48.8725 45.7518H48.861L49.1147 45.6883L49.0763 45.7402L49.0647 45.5038C49.0436 44.9848 49.0205 44.4908 49.0013 44.0372C49.0013 43.9238 49.0013 43.8142 48.9898 43.7066C48.9917 43.6065 48.982 43.5065 48.9609 43.4087C48.9343 43.3228 48.886 43.2454 48.8206 43.1838C48.7524 43.1286 48.6811 43.0773 48.6073 43.03L47.9403 42.5725C47.8581 42.5235 47.7803 42.4675 47.7077 42.4053Z" fill="#EB996E"/>
<path d="M44.9062 45.6625C44.9974 45.6429 45.0899 45.6307 45.183 45.626L45.9385 45.5664H45.95C46.231 45.6324 46.5152 45.6838 46.8015 45.7202C46.9666 45.7427 47.1328 45.7561 47.2994 45.7605C47.3802 45.7738 47.4631 45.769 47.5418 45.7464C47.6206 45.7238 47.6934 45.684 47.7549 45.6298C47.8065 45.5564 47.8316 45.4676 47.826 45.378C47.826 45.2838 47.8126 45.1858 47.8087 45.0858C47.7977 45.0044 47.7582 44.9295 47.6973 44.8744C47.6365 44.8134 47.5673 44.7616 47.4916 44.7206C47.2173 44.5825 46.9086 44.5277 46.6035 44.563C46.4942 44.5732 46.384 44.5573 46.2821 44.5165C46.1802 44.4757 46.0894 44.4113 46.0173 44.3285C45.9269 44.1997 45.9346 44.1055 45.9404 44.1075C45.9657 44.1769 46.0021 44.2418 46.048 44.2997C46.12 44.3717 46.2075 44.4264 46.3037 44.4597C46.3999 44.493 46.5024 44.504 46.6035 44.4919C46.9219 44.4446 47.2471 44.4956 47.5358 44.638C47.6196 44.6825 47.6966 44.7389 47.7645 44.8052C47.8445 44.8775 47.8951 44.9767 47.9068 45.0839C47.9068 45.1723 47.926 45.2761 47.926 45.3761C47.9312 45.4888 47.898 45.6 47.8318 45.6913C47.7648 45.7689 47.6732 45.8211 47.5723 45.8393C47.4817 45.8563 47.3894 45.8621 47.2974 45.8566C47.1206 45.8566 46.9514 45.8336 46.79 45.8124C46.5004 45.7708 46.2136 45.7124 45.9308 45.6375H45.9423L45.1869 45.6644C45.0935 45.6737 44.9995 45.6731 44.9062 45.6625Z" fill="#EB996E"/>
<path d="M49.125 45.6461C49.2211 45.389 49.3328 45.138 49.4595 44.8945C49.557 44.6361 49.6861 44.3907 49.8439 44.1641C49.7777 44.4309 49.6803 44.6889 49.5536 44.9329C49.4557 45.1949 49.3104 45.4366 49.125 45.6461Z" fill="#EB996E"/>
<path d="M40.1423 46.5203L55.0757 46.7126L59.8811 33.2304C59.9325 33.0955 59.9302 32.946 59.8748 32.8127C59.8194 32.6794 59.7151 32.5723 59.5832 32.5135C59.5122 32.4805 59.4352 32.4627 59.3569 32.4611C59.2787 32.4594 59.201 32.4741 59.1287 32.5041C59.0564 32.5341 58.9911 32.5788 58.937 32.6353C58.8829 32.6919 58.8411 32.759 58.8143 32.8325L54.0762 45.5996L40.1288 45.738C40.0269 45.738 39.9291 45.7785 39.857 45.8506C39.7849 45.9227 39.7444 46.0205 39.7444 46.1225C39.7425 46.1752 39.7515 46.2278 39.7708 46.2769C39.7902 46.326 39.8194 46.3707 39.8567 46.408C39.8941 46.4453 39.9387 46.4746 39.9878 46.4939C40.0369 46.5132 40.0895 46.5222 40.1423 46.5203Z" fill="#263238"/>
<path d="M17.8902 36.5036C17.8902 36.5036 25.1944 46.4335 26.3266 46.4335H36.9851V42.397L28.9254 40.4959C28.9254 40.4959 24.958 32.2883 24.0777 31.2368C23.1973 30.1854 20.8503 28.7688 19.0954 30.3526C17.3404 31.9365 17.8902 36.5036 17.8902 36.5036Z" fill="#339999"/>
<path d="M36.9766 42.7954L38.7238 42.6551C38.7238 42.6551 38.7603 42.0073 39.1429 41.7786C39.5254 41.5498 39.485 41.0539 39.7195 41.0923C39.8464 41.1173 39.977 41.1173 40.1039 41.0923L41.5514 39.8737L42.7719 39.0741L43.733 38.8818C43.733 38.8818 44.3097 39.0337 43.733 39.5661L43.1218 39.9102L42.5893 40.4446L43.808 39.8448C43.864 39.8178 43.9255 39.8037 43.9877 39.8037C44.05 39.8037 44.1114 39.8178 44.1674 39.8448C44.4972 39.9873 44.8115 40.1631 45.1055 40.3696C45.1318 40.3942 45.1527 40.424 45.1671 40.4571C45.1814 40.4901 45.1888 40.5258 45.1888 40.5618C45.1888 40.5979 45.1814 40.6335 45.1671 40.6666C45.1527 40.6996 45.1318 40.7294 45.1055 40.754L45.6379 41.2115C45.6379 41.2115 45.7532 41.8228 45.142 41.669L44.648 41.5556L43.9868 42.1976C43.9868 42.1976 46.1992 41.7401 46.351 41.8132C46.5029 41.8862 46.6951 42.2322 46.351 42.5359C46.007 42.8396 44.673 42.7646 44.3693 43.0703C44.0656 43.3759 42.0473 45.2173 41.5514 45.3307C41.0554 45.4441 36.9881 46.4379 36.9881 46.4379L36.9766 42.7954Z" fill="#FFBE9D"/>
<path d="M45.6223 41.2058C45.5178 41.142 45.4176 41.0714 45.3224 40.9943C45.2321 40.927 45.1302 40.8482 44.9995 40.7637C44.938 40.7214 44.8739 40.6791 44.8073 40.6368C44.7474 40.5925 44.6773 40.564 44.6035 40.5541C44.4521 40.5869 44.308 40.6475 44.1787 40.7329C44.048 40.804 43.9327 40.8713 43.8346 40.9251C43.7339 40.9959 43.6256 41.0552 43.5117 41.102C43.5924 41.0088 43.6879 40.9296 43.7943 40.8675C43.8885 40.8021 44.0019 40.7271 44.1326 40.6503C44.1979 40.6118 44.2671 40.5734 44.3402 40.5349C44.4196 40.489 44.5082 40.4614 44.5997 40.4542C44.6263 40.4489 44.6538 40.4489 44.6804 40.4542C44.7028 40.4617 44.7246 40.4706 44.7458 40.4811C44.7848 40.4999 44.8227 40.5211 44.8592 40.5445C44.9303 40.5887 44.9956 40.633 45.0514 40.6791C45.1725 40.7675 45.2782 40.854 45.3647 40.929C45.5396 41.0866 45.6338 41.1962 45.6223 41.2058Z" fill="#EB996E"/>
<path d="M40.2705 40.9443C40.2859 40.9674 40.1052 41.125 39.886 41.3288C39.6669 41.5325 39.5016 41.7017 39.4805 41.6805C39.5615 41.5169 39.6761 41.3721 39.8169 41.2557C39.9402 41.1163 40.096 41.0093 40.2705 40.9443Z" fill="#EB996E"/>
<path d="M24.0781 31.2373C24.2348 31.4304 24.3762 31.6354 24.501 31.8505C24.7528 32.2676 25.1084 32.8904 25.5351 33.6958C26.3943 35.3065 27.5765 37.642 28.9623 40.4849L28.9354 40.4618L36.9971 42.3571H37.0355V46.4994H36.5031H27.4438H26.4135C26.3687 46.5021 26.3238 46.5021 26.279 46.4994C26.2337 46.4905 26.1897 46.4756 26.1483 46.4552C26.0677 46.4128 25.9912 46.3632 25.9195 46.3071C25.7856 46.2073 25.6572 46.1001 25.5351 45.9861C25.0682 45.5466 24.6249 45.0827 24.2069 44.5964C23.388 43.6661 22.6691 42.7684 22.006 41.9457C20.6951 40.2965 19.6705 38.9337 18.967 37.9918L18.1616 36.9C18.0732 36.7751 18.0059 36.6809 17.9559 36.6136C17.906 36.5463 17.8887 36.5137 17.8887 36.5137C17.8887 36.5137 17.9156 36.5444 17.9656 36.6079L18.1789 36.8885L18.9997 37.9649C19.7128 38.901 20.747 40.2561 22.0636 41.8996C22.723 42.7184 23.4515 43.6123 24.2703 44.5407C24.6883 45.0226 25.131 45.4827 25.5966 45.9189C25.7186 46.0306 25.847 46.1353 25.981 46.2322C26.0466 46.2795 26.1161 46.3213 26.1886 46.3571C26.2597 46.3914 26.3389 46.4053 26.4174 46.3975H27.4477H36.5069H36.9894L36.9394 46.4475C36.9394 45.0635 36.9394 43.7103 36.9394 42.4109L36.9759 42.459L28.9162 40.5406H28.897L28.8874 40.5233C27.5111 37.6766 26.3386 35.3335 25.4928 33.7208C25.0719 32.9115 24.7239 32.2868 24.4779 31.8659C24.353 31.6583 24.2588 31.4968 24.1838 31.3968C24.1088 31.2969 24.0781 31.2373 24.0781 31.2373Z" fill="#263238"/>
<path d="M23.0159 30.587C23.0159 30.6043 22.766 30.5044 22.3585 30.4121C22.1191 30.359 21.8764 30.3224 21.6319 30.3026C21.3332 30.2796 21.0331 30.2796 20.7343 30.3026C20.4364 30.3339 20.1414 30.3885 19.852 30.4659C19.6154 30.5306 19.3835 30.6115 19.1581 30.7081C18.7737 30.8754 18.5545 31.0176 18.5449 31.0022C18.5883 30.9586 18.6374 30.9211 18.691 30.8907C18.8311 30.7984 18.9775 30.7162 19.1293 30.6447C19.3543 30.5365 19.5876 30.4465 19.827 30.3756C20.1205 30.2916 20.4209 30.2344 20.7247 30.2045C21.029 30.1766 21.3353 30.1766 21.6396 30.2045C21.888 30.2299 22.1342 30.2743 22.3758 30.3372C22.5378 30.3795 22.6964 30.4334 22.8506 30.4986C22.9602 30.5448 23.0198 30.5794 23.0159 30.587Z" fill="#263238"/>
<path d="M27.457 42.3392C27.5761 41.9943 27.7608 41.6758 28.001 41.4012C28.2147 41.105 28.4844 40.8535 28.7949 40.6611C28.8141 40.6842 28.445 40.9994 28.0779 41.4627C27.7108 41.9259 27.4859 42.3526 27.457 42.3392Z" fill="#263238"/>
<path d="M27.2129 41.1022C27.6214 40.7405 28.1535 40.5498 28.6987 40.5698C28.6987 40.6005 28.347 40.6371 27.9299 40.787C27.5128 40.9369 27.2302 41.1272 27.2129 41.1022Z" fill="#263238"/>
<path d="M34.061 61.8305C33.9072 61.5095 33.5343 61.3692 33.1941 61.2539C26.4799 59.0895 19.2756 58.0515 12.3346 59.3125C11.5004 59.4643 10.6393 59.6623 9.9761 60.1928C9.31295 60.7233 8.91506 61.6844 9.26874 62.4533L10.6931 62.9108C17.8003 62.1196 24.9761 62.1699 32.0716 63.0607C32.5502 63.1222 33.0538 63.1818 33.4959 62.9934C33.938 62.8051 34.2705 62.2611 34.061 61.8305Z" fill="#455A64"/>
<path d="M26.2704 59.6099C26.2551 59.6128 26.2395 59.6128 26.2242 59.6099L26.0954 59.5926L25.5976 59.5196C25.167 59.4504 24.5423 59.3504 23.7658 59.262C21.7465 59.0233 19.713 58.9263 17.6801 58.9718C17.0862 58.9833 16.5057 59.0121 15.9502 59.0583C15.3947 59.1044 14.8526 59.1313 14.3356 59.1774C14.2716 59.1827 14.2073 59.1827 14.1433 59.1774C14.0832 59.1718 14.0227 59.1718 13.9627 59.1774C13.841 59.1858 13.7201 59.2038 13.6013 59.2313L12.9055 59.3773C12.4576 59.4773 12.0462 59.5869 11.6753 59.7099C11.0892 59.8925 10.5296 60.151 10.0106 60.4788C9.81843 60.596 9.69157 60.6979 9.60123 60.769L9.49743 60.8478C9.47436 60.8651 9.46091 60.8747 9.45898 60.8728L9.48974 60.8401L9.58777 60.7536C9.71562 60.6434 9.84976 60.5407 9.9895 60.4461C10.5044 60.1009 11.0646 59.8286 11.6541 59.6368C12.0587 59.5009 12.47 59.3854 12.8862 59.2908L13.584 59.1409C13.71 59.1093 13.8387 59.0893 13.9684 59.0813C14.0324 59.0758 14.0967 59.0758 14.1606 59.0813C14.2245 59.0887 14.289 59.0887 14.3529 59.0813C14.8622 59.0333 15.4081 59.0006 15.9675 58.9564C16.5268 58.9122 17.1208 58.8795 17.6974 58.868C19.7285 58.8217 21.7602 58.9277 23.7754 59.1851C24.5443 59.2832 25.1747 59.3947 25.6034 59.4754L26.0993 59.5676L26.2262 59.5946L26.2704 59.6099Z" fill="#263238"/>
<path d="M9.44427 48.6688L20.8889 49.0686C20.9288 49.0701 20.9679 49.0799 21.0037 49.0975C21.0395 49.1151 21.0713 49.14 21.0968 49.1706C21.1224 49.2013 21.1412 49.2369 21.1521 49.2753C21.163 49.3137 21.1656 49.3539 21.16 49.3934L19.5126 63.1177H22.0922L23.4224 48.0095C23.4374 47.8876 23.4268 47.7639 23.3915 47.6462C23.3562 47.5286 23.2967 47.4196 23.217 47.3262C23.1373 47.2327 23.0391 47.1569 22.9285 47.1034C22.8179 47.05 22.6974 47.0201 22.5747 47.0157L9.13672 46.5352L9.44427 48.6688Z" fill="#455A64"/>
<path d="M70.2641 47.6699H68.4707V48.0678L72.4189 85.8059H74.2603L70.2641 47.6699Z" fill="#455A64"/>
<path d="M30.2251 47.6699H32.0185V48.0755L28.3375 85.7943H26.4961L30.2251 47.6699Z" fill="#455A64"/>
<path d="M30.2243 47.6698C30.2243 47.6698 30.2243 47.7371 30.2089 47.862C30.1935 47.987 30.1782 48.1869 30.1551 48.4387C30.107 48.9442 30.0378 49.69 29.9475 50.6472C29.7553 52.5694 29.4958 55.3431 29.1671 58.7838C28.4982 65.6575 27.5736 75.1819 26.5433 85.7923L26.4953 85.7365H28.3367L28.2867 85.7827C30.0321 68.0641 31.5102 53.0538 32.0023 48.0677C32.0023 47.8755 32.0023 47.7678 32.0023 47.6621L32.0158 47.6756H30.6702H30.3396H30.2301H30.3358H30.6625L32.0234 47.666H32.0369V47.6813C32.0369 47.7871 32.0369 47.8985 32.0369 48.0869C31.5544 53.073 30.1032 68.0775 28.3848 85.8077V85.8538H26.4434V85.798C27.489 75.1761 28.429 65.6402 29.1075 58.7588C29.4516 55.3239 29.7264 52.5521 29.9187 50.6357C30.0148 49.6746 30.0897 48.9442 30.1397 48.4387C30.1666 48.1907 30.1858 48.0004 30.1993 47.862C30.2128 47.7236 30.2243 47.6698 30.2243 47.6698Z" fill="#263238"/>
<path d="M77.2362 46.4414H25.9102V48.0656H77.2362V46.4414Z" fill="#455A64"/>
<path d="M71.7722 48.0676C71.7722 48.0945 61.5423 48.1175 48.9271 48.1175C36.3118 48.1175 26.0781 48.0945 26.0781 48.0676C26.0781 48.0406 36.306 48.0176 48.9271 48.0176C61.5481 48.0176 71.7722 48.0368 71.7722 48.0676Z" fill="#263238"/>
</svg>
