<svg width="24" height="24" viewBox="0 0 24 24" fill="none" xmlns="http://www.w3.org/2000/svg">
<path d="M21.4383 11.6622L12.2483 20.8522C11.1225 21.9781 9.59552 22.6106 8.00334 22.6106C6.41115 22.6106 4.88418 21.9781 3.75834 20.8522C2.63249 19.7264 2 18.1994 2 16.6072C2 15.015 2.63249 13.4881 3.75834 12.3622L12.9483 3.17222C13.6989 2.42166 14.7169 2 15.7783 2C16.8398 2 17.8578 2.42166 18.6083 3.17222C19.3589 3.92279 19.7806 4.94077 19.7806 6.00222C19.7806 7.06368 19.3589 8.08166 18.6083 8.83222L9.40834 18.0222C9.22252 18.208 9.00192 18.3554 8.75913 18.456C8.51634 18.5566 8.25613 18.6083 7.99334 18.6083C7.73055 18.6083 7.47033 18.5566 7.22754 18.456C6.98476 18.3554 6.76416 18.208 6.57834 18.0222C6.39252 17.8364 6.24512 17.6158 6.14455 17.373C6.04398 17.1302 5.99222 16.87 5.99222 16.6072C5.99222 16.3444 6.04398 16.0842 6.14455 15.8414C6.24512 15.5986 6.39252 15.378 6.57834 15.1922L15.0683 6.71222" stroke="#4C5858" stroke-width="1.5" stroke-linecap="round" stroke-linejoin="round"/>
</svg>
