<svg width="147" height="108" viewBox="0 0 147 108" fill="none" xmlns="http://www.w3.org/2000/svg">
<g id="eb1bc4cd-5d6c-4346-a701-0db27d32c40d" clip-path="url(#clip0_1437_11430)">
<path id="Vector" d="M103.7 79.2116H25.025C24.324 79.2108 23.6519 78.932 23.1562 78.4363C22.6605 77.9406 22.3817 77.2685 22.3809 76.5675V12.5054C22.3817 11.8044 22.6605 11.1324 23.1562 10.6367C23.6519 10.141 24.324 9.86214 25.025 9.86133H103.7C104.401 9.86214 105.073 10.141 105.569 10.6367C106.065 11.1324 106.343 11.8044 106.344 12.5054V76.5675C106.343 77.2685 106.065 77.9406 105.569 78.4363C105.073 78.932 104.401 79.2108 103.7 79.2116Z" fill="#E6E6E6"/>
<path id="Vector_2" d="M26.8087 11.7432C26.1334 11.7439 25.486 12.0126 25.0085 12.49C24.5311 12.9675 24.2625 13.6149 24.2617 14.2902V74.7839C24.2625 75.4592 24.5311 76.1065 25.0086 76.584C25.4861 77.0614 26.1334 77.33 26.8087 77.3308H80.6588C86.97 77.3236 93.0206 74.8133 97.4833 70.3506C101.946 65.888 104.456 59.8373 104.463 53.5261V14.2902C104.463 13.6149 104.194 12.9675 103.717 12.49C103.239 12.0126 102.592 11.744 101.917 11.7432L26.8087 11.7432Z" fill="white"/>
<path id="Vector_3" d="M89.3547 38.9502H75.089C74.7915 38.9499 74.5062 38.8316 74.2958 38.6212C74.0855 38.4108 73.9671 38.1255 73.9668 37.828V30.7277C73.9671 30.4302 74.0855 30.1449 74.2958 29.9345C74.5062 29.7241 74.7915 29.6058 75.089 29.6055H89.3547C89.6522 29.6058 89.9375 29.7241 90.1478 29.9345C90.3582 30.1449 90.4766 30.4302 90.4769 30.7277C91.3596 33.2403 91.485 35.6278 90.4769 37.828C90.4766 38.1255 90.3582 38.4108 90.1478 38.6212C89.9375 38.8316 89.6522 38.9499 89.3547 38.9502Z" fill="#E6E6E6"/>
<path id="Vector_4" d="M87.6634 38.2645H75.5433C75.2905 38.2642 75.0482 38.1637 74.8694 37.985C74.6907 37.8062 74.5901 37.5639 74.5898 37.3111V31.2786C74.5901 31.0259 74.6907 30.7835 74.8694 30.6048C75.0482 30.426 75.2905 30.3255 75.5433 30.3252H87.6634C87.9162 30.3255 88.1586 30.426 88.3373 30.6048C88.5161 30.7835 88.6166 31.0259 88.6169 31.2786C89.4348 33.427 89.5664 35.46 88.6169 37.3111C88.6166 37.5639 88.5161 37.8062 88.3373 37.985C88.1586 38.1637 87.9162 38.2642 87.6634 38.2645Z" fill="white"/>
<path id="Vector_5" d="M87.0117 42.6695H77.4017C77.119 42.6699 76.8477 42.558 76.6475 42.3585C76.4473 42.1589 76.3345 41.888 76.334 41.6053C76.3335 41.3226 76.4452 41.0513 76.6447 40.851C76.8442 40.6506 77.1151 40.5378 77.3978 40.5371H87.0117C87.2941 40.5376 87.5648 40.6502 87.7643 40.8501C87.9638 41.05 88.0759 41.3209 88.0759 41.6033C88.0759 41.8857 87.9638 42.1566 87.7643 42.3565C87.5648 42.5564 87.2941 42.669 87.0117 42.6695Z" fill="#E6E6E6"/>
<path id="Vector_6" d="M80.5497 31.9531C80.4392 31.9535 80.3333 31.9976 80.2551 32.0759C80.177 32.1541 80.133 32.2601 80.1328 32.3706V36.8899C80.1328 36.9629 80.1519 37.0346 80.1883 37.0979C80.2247 37.1611 80.2771 37.2137 80.3402 37.2504C80.4033 37.2871 80.4749 37.3065 80.5479 37.3068C80.6209 37.3071 80.6927 37.2882 80.7561 37.2521L84.745 34.9776C84.8092 34.9411 84.8624 34.8882 84.8994 34.8244C84.9364 34.7606 84.9558 34.6881 84.9556 34.6143C84.9554 34.5406 84.9356 34.4682 84.8983 34.4046C84.8609 34.341 84.8074 34.2884 84.7431 34.2523L80.7543 32.0072C80.6919 31.9719 80.6214 31.9532 80.5497 31.9531Z" fill="#E6E6E6"/>
<path id="Vector_7" d="M138.746 99.353C138.526 99.0732 138.227 98.8658 137.888 98.7574C137.549 98.649 137.185 98.6447 136.844 98.745L136.769 98.7672L136.099 101.382C135.999 100.992 135.784 100.113 135.649 99.2514L135.637 99.1803L135.571 99.2094C134.87 99.5189 134.212 99.9157 133.611 100.39C132.547 101.244 131.682 102.319 131.075 103.541C130.468 104.763 130.135 106.102 130.098 107.466L130.097 107.516L130.096 107.548L130.184 107.516L132.088 106.836C132.93 106.91 133.779 106.795 134.571 106.5C135.364 106.204 136.08 105.736 136.669 105.128C137.438 104.317 137.965 103.274 138.475 102.264C138.624 101.97 138.777 101.667 138.933 101.375C139.108 101.058 139.183 100.696 139.15 100.335C139.116 99.9748 138.975 99.6326 138.746 99.353Z" fill="#F2F2F2"/>
<path id="Vector_8" d="M90.1441 32.6687C90.1822 32.8667 90.2634 33.0539 90.3817 33.2171C90.5001 33.3803 90.6528 33.5155 90.8291 33.6134C91.0053 33.7112 91.2009 33.7691 91.402 33.7832C91.6031 33.7972 91.8049 33.767 91.9931 33.6946L97.6809 40.3114L98.401 37.8687L92.762 31.8151C92.6195 31.5071 92.369 31.262 92.0578 31.1263C91.7467 30.9906 91.3966 30.9738 91.0739 31.079C90.7511 31.1843 90.4782 31.4042 90.3069 31.6972C90.1355 31.9902 90.0776 32.3359 90.1441 32.6687Z" fill="#FFB8B8"/>
<path id="Vector_9" d="M113.069 105.934H111.187L110.291 98.6738H113.069L113.069 105.934Z" fill="#FFB6B6"/>
<path id="Vector_10" d="M113.018 105.321L111.008 104.503L110.951 104.479L109.841 105.321C109.214 105.321 108.614 105.57 108.171 106.013C107.728 106.456 107.479 107.056 107.479 107.683V107.76H113.548V105.321H113.018Z" fill="#2F2E41"/>
<path id="Vector_11" d="M126.497 105.934H124.614L123.719 98.6738H126.497L126.497 105.934Z" fill="#FFB6B6"/>
<path id="Vector_12" d="M126.446 105.321L124.436 104.503L124.378 104.479L123.269 105.321C122.642 105.321 122.041 105.57 121.598 106.013C121.155 106.456 120.906 107.056 120.906 107.683V107.76H126.975V105.321H126.446Z" fill="#2F2E41"/>
<path id="Vector_13" d="M122.053 62.5781C122.053 62.5781 124.414 65.0343 124.414 67.0525C124.414 69.0707 123.824 71.8418 124.414 72.4483C125.005 73.0548 125.742 73.7926 124.857 74.6779C123.972 75.5633 123.529 76.006 124.119 76.5962C124.709 77.1864 124.414 87.5155 124.414 87.5155L127.513 101.386H123.609L118.66 87.5155L117.332 76.0059L113.037 87.0728L113.511 101.505L109.43 101.386L107.74 86.0399C107.74 86.0399 110.249 71.4421 109.806 71.068C109.363 70.6938 109.806 69.9386 109.806 69.9386L110.987 64.3488L122.053 62.5781Z" fill="#2F2E41"/>
<path id="Vector_14" d="M117.431 45.1644C117.431 45.1644 118.234 42.0011 114.535 41.0941C110.837 40.1871 100.265 39.0219 100.265 39.0219L94.9217 33.3525L93.1113 35.9817L99.1008 43.4246L113.292 46.3396L117.431 45.1644Z" fill="#3F3D56"/>
<path id="Vector_15" d="M93.9911 35.7879C94.157 35.5729 94.2869 35.3324 94.3756 35.0757L95.1418 33.193L94.9429 33.1847C94.6676 33.1329 94.3846 33.1398 94.1122 33.2051C93.8399 33.2704 93.5844 33.3924 93.3625 33.5633C93.1406 33.7342 92.9574 33.95 92.8247 34.1967C92.6921 34.4434 92.6131 34.7153 92.5929 34.9946C92.5678 35.2362 92.6111 35.48 92.7181 35.6981C92.7725 35.8063 92.8518 35.9 92.9494 35.9716C93.0471 36.0432 93.1603 36.0906 93.2798 36.1101C93.4155 36.1173 93.551 36.0918 93.6748 36.0357C93.7986 35.9797 93.9071 35.8947 93.9911 35.7879Z" fill="#E6E6E6"/>
<path id="Vector_16" d="M110.234 65.1036L109.791 68.3125C109.791 68.3125 110.676 69.2634 111.119 69.1445C111.562 69.0257 113.185 68.3338 113.185 68.3338C113.185 68.3338 115.103 69.3822 116.136 69.5011C117.169 69.6199 122.629 68.9068 122.776 68.5503C122.924 68.1937 124.639 66.798 124.639 66.798L123.957 62.7266L110.234 65.1036Z" fill="#E6E6E6"/>
<path id="Vector_17" d="M124.61 53.8778C124.61 53.8778 124.236 56.9721 124.531 57.2568C124.826 57.5401 124.236 59.333 123.645 60.5135C123.055 61.6939 124.088 61.8415 124.088 62.7268C124.088 63.6122 124.531 66.8585 124.531 66.8585C124.531 66.8585 119.956 67.1536 119.219 66.4158C118.481 65.678 117.3 66.2682 115.677 67.8914C114.054 69.5145 110.529 68.1865 109.791 67.4487C109.053 66.7109 110.365 64.0549 110.808 63.5399C111.25 63.0249 110.381 63.621 109.939 61.989C109.496 60.357 110.365 60.5135 111.103 59.7757C111.841 59.0379 111.103 57.7098 110.513 56.3818C109.922 55.0538 110.365 45.1674 110.365 42.8064C110.365 40.4455 113.611 40.1504 113.611 40.1504L114.897 38.5346L115.841 37.3468L117.691 37.273L117.74 37.2715L119.53 37.1992L120.399 38.2115L122.317 40.4455L124.531 40.8882C126.301 41.4784 125.859 45.1674 125.859 45.1674L124.61 53.8778Z" fill="#3F3D56"/>
<path id="Vector_18" d="M117.6 36.632C119.694 36.632 121.393 34.9338 121.393 32.8389C121.393 30.7441 119.694 29.0459 117.6 29.0459C115.505 29.0459 113.807 30.7441 113.807 32.8389C113.807 34.9338 115.505 36.632 117.6 36.632Z" fill="#FFB6B6"/>
<path id="Vector_19" d="M121.998 31.5638C120.955 30.924 121.088 29.2511 120.083 28.6669C119.584 28.3789 119.022 28.2158 118.446 28.1916C117.869 28.1674 117.296 28.2828 116.774 28.5279C116.066 28.225 115.218 28.4667 114.651 29.0137C114.085 29.5607 113.778 30.3676 113.688 31.1791C113.623 31.9944 113.681 32.8149 113.862 33.6127C113.918 33.2922 113.974 32.9716 114.03 32.6511L117.021 31.9976C116.756 32.2354 116.491 32.4732 116.226 32.711C117.581 33.0194 119.002 32.7971 120.197 32.0901C121.499 32.6736 121.263 33.9842 120.12 35.7235C120.563 36.4613 123.187 32.2928 121.998 31.5638Z" fill="#2F2E41"/>
<path id="Vector_20" d="M120.399 38.2108C120.39 38.2176 120.382 38.224 120.372 38.2299C120.06 38.4164 119.702 38.5134 119.338 38.5103C118.862 38.55 118.389 38.4017 118.02 38.0971C117.827 37.9142 117.058 38.3008 116.554 38.5147C116.024 38.7341 115.431 38.741 114.896 38.5339L115.841 37.3461L117.397 37.001H117.786L119.53 37.1985L120.399 38.2108Z" fill="#E6E6E6"/>
<path id="Vector_21" d="M145.867 107.94L93.0685 108C93.0381 108 93.008 107.994 92.9799 107.983C92.9517 107.971 92.9261 107.954 92.9046 107.933C92.883 107.912 92.8658 107.886 92.854 107.858C92.8422 107.83 92.8361 107.8 92.8359 107.77C92.8358 107.739 92.8416 107.709 92.8531 107.681C92.8646 107.653 92.8815 107.627 92.9028 107.606C92.9242 107.584 92.9496 107.567 92.9776 107.555C93.0056 107.544 93.0357 107.537 93.0661 107.537H93.0685L145.867 107.478C145.928 107.478 145.987 107.502 146.03 107.546C146.073 107.589 146.097 107.648 146.097 107.709C146.097 107.77 146.073 107.829 146.03 107.872C145.987 107.915 145.928 107.94 145.867 107.94Z" fill="#CACACA"/>
<path id="Vector_22" d="M82.6483 30.2499H82.2598V2.45801H97.5421V2.84659H82.6483V30.2499Z" fill="#3F3D56"/>
<path id="Vector_23" d="M109.427 0H99.1293C98.4594 0 97.817 0.266109 97.3433 0.739784C96.8696 1.21346 96.6035 1.8559 96.6035 2.52578C96.6035 3.19566 96.8696 3.8381 97.3433 4.31178C97.817 4.78545 98.4594 5.05156 99.1293 5.05156H109.427C110.097 5.05156 110.739 4.78545 111.213 4.31178C111.686 3.8381 111.952 3.19566 111.952 2.52578C111.952 1.8559 111.686 1.21346 111.213 0.739784C110.739 0.266109 110.097 0 109.427 0Z" fill="#339999"/>
<path id="Vector_24" d="M82.2292 32.7923C83.511 32.7923 84.5502 31.7532 84.5502 30.4714C84.5502 29.1895 83.511 28.1504 82.2292 28.1504C80.9473 28.1504 79.9082 29.1895 79.9082 30.4714C79.9082 31.7532 80.9473 32.7923 82.2292 32.7923Z" fill="#339999"/>
<path id="Vector_25" d="M54.2602 39.1928L64.4423 36.8366L67.3649 36.1603C67.7305 36.0757 67.5786 35.5129 67.2128 35.5975L57.0308 37.9537L54.1082 38.63C53.7426 38.7146 53.8945 39.2775 54.2602 39.1928Z" fill="#F2F2F2"/>
<path id="Vector_26" d="M64.7751 33.0568L70.2259 35.5642C70.412 35.6285 70.5862 35.7228 70.7418 35.8434C70.8922 35.9908 70.7827 36.1325 70.6599 36.2609C70.2931 36.6035 69.9056 36.9233 69.4997 37.2185L67.1775 39.1065C66.8859 39.3435 67.2973 39.757 67.5861 39.5223L69.6087 37.8779L70.62 37.0557C70.9065 36.8228 71.2552 36.5851 71.3704 36.214C71.6123 35.4344 70.6576 35.1244 70.1271 34.8804L67.7534 33.7884L65.072 32.555C64.734 32.3995 64.4346 32.9001 64.7751 33.0568Z" fill="#F2F2F2"/>
<path id="Vector_27" d="M139.995 52.1448C139.024 51.4865 137.844 51.2418 136.691 51.1588C135.381 51.0875 134.067 51.089 132.757 51.1634C131.395 51.2174 130.037 51.3159 128.681 51.459C127.327 51.6022 125.979 51.79 124.637 52.0222C123.435 52.2093 122.245 52.4696 121.075 52.8017C119.967 53.1083 118.924 53.6121 117.995 54.289C117.18 54.9022 116.553 55.7319 116.185 56.6836C115.825 57.5762 115.763 58.5618 116.011 59.4923C116.142 59.9442 116.368 60.3634 116.673 60.7222C117.025 61.116 117.442 61.4463 117.906 61.6988C118.869 62.2489 119.961 62.5796 120.832 63.2838C121.062 63.468 121.271 63.6762 121.457 63.9049C121.583 64.0819 121.757 64.2189 121.959 64.2997C122.15 64.3664 122.356 64.3751 122.552 64.3247C122.748 64.2742 122.925 64.1669 123.06 64.0161C123.234 63.7774 123.38 63.5187 123.493 63.2455L123.953 62.3588C123.984 62.2812 124.022 62.2069 124.068 62.1371C124.102 62.096 124.041 62.1379 124.052 62.1271C124.059 62.1212 124.072 62.1213 124.08 62.1166C124.118 62.0977 124.157 62.0824 124.198 62.0711C124.623 61.909 125.05 61.752 125.479 61.6C127.063 61.0357 128.665 60.5156 130.293 60.0944C131.13 59.8697 131.98 59.692 132.837 59.562C133.948 59.4039 135.075 59.4222 136.191 59.3141C137.392 59.1977 138.631 58.9546 139.661 58.2932C140.513 57.7757 141.169 56.9904 141.527 56.0603C141.682 55.617 141.735 55.1445 141.682 54.6778C141.549 53.6219 140.859 52.7302 139.995 52.1448Z" fill="#E6E6E6"/>
<path id="Vector_28" d="M138.006 52.7381C137.129 52.1432 136.063 51.9221 135.021 51.8471C133.836 51.7827 132.649 51.7841 131.465 51.8513C130.235 51.9 129.007 51.989 127.782 52.1183C126.559 52.2478 125.34 52.4175 124.127 52.6273C123.041 52.7964 121.966 53.0317 120.909 53.3318C119.908 53.6088 118.965 54.0641 118.126 54.6758C117.389 55.2299 116.822 55.9796 116.49 56.8397C116.164 57.6464 116.109 58.537 116.332 59.3778C116.451 59.7863 116.655 60.165 116.93 60.4893C117.249 60.8451 117.626 61.1436 118.045 61.3718C118.916 61.8689 119.902 62.1677 120.689 62.8041C120.897 62.9706 121.086 63.1588 121.254 63.3654C121.368 63.5253 121.525 63.6491 121.707 63.7221C121.88 63.7825 122.066 63.7903 122.244 63.7447C122.421 63.6991 122.58 63.6021 122.702 63.4659C122.86 63.2501 122.992 63.0164 123.094 62.7695L123.509 61.9682C123.537 61.8981 123.572 61.831 123.613 61.7679C123.644 61.7307 123.589 61.7686 123.599 61.7589C123.605 61.7535 123.617 61.7537 123.624 61.7494C123.658 61.7323 123.694 61.7185 123.731 61.7082C124.115 61.5618 124.501 61.4199 124.889 61.2826C126.32 60.7726 127.768 60.3026 129.239 59.9219C129.996 59.7189 130.763 59.5583 131.538 59.4409C132.542 59.2979 133.56 59.3145 134.568 59.2168C135.654 59.1116 136.774 58.8919 137.705 58.2943C138.474 57.8266 139.067 57.117 139.39 56.2764C139.531 55.8758 139.579 55.4488 139.531 55.0271C139.41 54.0729 138.787 53.2671 138.006 52.7381Z" fill="white"/>
<path id="Vector_29" d="M136.17 53.8121L121.87 56.4495C121.829 56.4573 121.787 56.457 121.746 56.4485C121.705 56.4401 121.667 56.4236 121.632 56.4002C121.598 56.3767 121.568 56.3467 121.546 56.3118C121.523 56.277 121.507 56.238 121.5 56.1971C121.492 56.1562 121.492 56.1141 121.501 56.0734C121.51 56.0327 121.526 55.994 121.55 55.9597C121.573 55.9254 121.603 55.8961 121.638 55.8734C121.673 55.8507 121.712 55.8352 121.753 55.8276L121.755 55.8273L136.055 53.1898C136.096 53.1823 136.138 53.1829 136.178 53.1915C136.219 53.2002 136.258 53.2168 136.292 53.2404C136.326 53.2639 136.355 53.294 136.378 53.3289C136.401 53.3637 136.416 53.4027 136.424 53.4436C136.431 53.4844 136.431 53.5264 136.422 53.567C136.413 53.6076 136.397 53.6462 136.373 53.6804C136.349 53.7146 136.319 53.7438 136.285 53.7664C136.25 53.789 136.211 53.8045 136.17 53.8121Z" fill="#E6E6E6"/>
<path id="Vector_30" d="M136.521 55.7222L122.221 58.3597C122.18 58.3675 122.138 58.3671 122.098 58.3587C122.057 58.3502 122.018 58.3337 121.984 58.3103C121.949 58.2868 121.92 58.2568 121.897 58.222C121.874 58.1871 121.859 58.1481 121.851 58.1072C121.843 58.0663 121.844 58.0243 121.853 57.9836C121.861 57.9428 121.878 57.9042 121.901 57.8699C121.925 57.8356 121.955 57.8062 121.99 57.7836C122.025 57.7609 122.064 57.7453 122.105 57.7378L122.107 57.7374L136.407 55.1C136.447 55.0924 136.489 55.093 136.53 55.1017C136.571 55.1104 136.609 55.127 136.643 55.1505C136.678 55.1741 136.707 55.2042 136.729 55.239C136.752 55.2739 136.768 55.3129 136.775 55.3537C136.783 55.3946 136.782 55.4365 136.773 55.4772C136.765 55.5178 136.748 55.5563 136.725 55.5905C136.701 55.6248 136.671 55.654 136.636 55.6766C136.601 55.6992 136.562 55.7147 136.521 55.7222Z" fill="#E6E6E6"/>
<path id="Vector_31" d="M124.24 59.9614L122.574 60.2687C122.491 60.2836 122.407 60.2652 122.338 60.2176C122.269 60.17 122.222 60.0971 122.206 60.0148C122.191 59.9324 122.209 59.8474 122.257 59.7784C122.304 59.7094 122.377 59.6619 122.459 59.6464L124.126 59.3391C124.208 59.3241 124.293 59.3424 124.362 59.39C124.431 59.4376 124.478 59.5106 124.493 59.593C124.508 59.6754 124.49 59.7604 124.443 59.8295C124.395 59.8985 124.323 59.9459 124.24 59.9614Z" fill="#E6E6E6"/>
<path id="Vector_32" d="M123.033 67.9019C123.763 67.7672 124.246 67.066 124.111 66.3356C123.977 65.6052 123.275 65.1224 122.545 65.2571C121.815 65.3918 121.332 66.093 121.467 66.8234C121.601 67.5538 122.303 68.0367 123.033 67.9019Z" fill="#D1D3D4"/>
<path id="Vector_33" d="M49.0269 38.5901H36.8125C36.2455 38.5894 35.7019 38.3639 35.301 37.9629C34.9 37.562 34.6745 37.0184 34.6738 36.4514V28.4014C34.6745 27.8344 34.9 27.2908 35.301 26.8898C35.7019 26.4889 36.2455 26.2634 36.8125 26.2627H49.0269C49.5939 26.2634 50.1375 26.4889 50.5384 26.8898C50.9394 27.2908 51.1649 27.8344 51.1656 28.4014V36.4514C51.1649 37.0184 50.9394 37.562 50.5384 37.9629C50.1375 38.3639 49.5939 38.5894 49.0269 38.5901Z" fill="#E6E6E6"/>
<path id="Vector_34" d="M47.685 38.1565H37.0547C36.5612 38.1559 36.0881 37.9596 35.7392 37.6106C35.3902 37.2617 35.1939 36.7886 35.1934 36.2951V29.2891C35.1939 28.7956 35.3902 28.3225 35.7392 27.9736C36.0881 27.6246 36.5612 27.4283 37.0547 27.4277H47.685C48.1785 27.4283 48.6516 27.6246 49.0006 27.9736C49.3495 28.3225 49.5458 28.7956 49.5464 29.2891V36.2951C49.5458 36.7886 49.3495 37.2617 49.0006 37.6106C48.6516 37.9596 48.1785 38.1559 47.685 38.1565Z" fill="white"/>
<path id="Vector_35" d="M50.7484 45.8427H35.0758C34.9789 45.8425 34.8861 45.8039 34.8177 45.7353C34.7493 45.6668 34.7109 45.5739 34.7109 45.477C34.7109 45.3802 34.7493 45.2873 34.8177 45.2187C34.8861 45.1502 34.9789 45.1116 35.0758 45.1113H50.7484C50.8452 45.1116 50.938 45.1502 51.0064 45.2187C51.0748 45.2873 51.1132 45.3802 51.1132 45.477C51.1132 45.5739 51.0748 45.6668 51.0064 45.7353C50.938 45.8039 50.8452 45.8425 50.7484 45.8427Z" fill="#E6E6E6"/>
<path id="Vector_36" d="M50.7484 43.7529H35.0758C34.9789 43.7526 34.8861 43.714 34.8177 43.6455C34.7493 43.5769 34.7109 43.484 34.7109 43.3872C34.7109 43.2903 34.7493 43.1975 34.8177 43.1289C34.8861 43.0603 34.9789 43.0217 35.0758 43.0215H50.7484C50.8452 43.0217 50.938 43.0603 51.0064 43.1289C51.0748 43.1975 51.1132 43.2903 51.1132 43.3872C51.1132 43.484 51.0748 43.5769 51.0064 43.6455C50.938 43.714 50.8452 43.7526 50.7484 43.7529Z" fill="#E6E6E6"/>
<path id="Vector_37" d="M50.7473 47.9326H35.0747C34.9777 47.9326 34.8847 47.894 34.8161 47.8255C34.7475 47.7569 34.709 47.6639 34.709 47.5669C34.709 47.4699 34.7475 47.3769 34.8161 47.3083C34.8847 47.2397 34.9777 47.2012 35.0747 47.2012H50.7473C50.8443 47.2012 50.9373 47.2397 51.0058 47.3083C51.0744 47.3769 51.113 47.4699 51.113 47.5669C51.113 47.6639 51.0744 47.7569 51.0058 47.8255C50.9373 47.894 50.8443 47.9326 50.7473 47.9326Z" fill="#E6E6E6"/>
<path id="Vector_38" d="M50.7473 50.0224H35.0747C34.9777 50.0224 34.8847 49.9839 34.8161 49.9153C34.7475 49.8467 34.709 49.7537 34.709 49.6567C34.709 49.5597 34.7475 49.4667 34.8161 49.3981C34.8847 49.3295 34.9777 49.291 35.0747 49.291H50.7473C50.8443 49.291 50.9373 49.3295 51.0058 49.3981C51.0744 49.4667 51.113 49.5597 51.113 49.6567C51.113 49.7537 51.0744 49.8467 51.0058 49.9153C50.9373 49.9839 50.8443 50.0224 50.7473 50.0224Z" fill="#E6E6E6"/>
<path id="Vector_39" d="M50.7473 52.1113H35.0747C34.9777 52.1113 34.8847 52.0727 34.8161 52.0042C34.7475 51.9356 34.709 51.8426 34.709 51.7456C34.709 51.6486 34.7475 51.5556 34.8161 51.487C34.8847 51.4184 34.9777 51.3799 35.0747 51.3799H50.7473C50.8443 51.3799 50.9373 51.4184 51.0058 51.487C51.0744 51.5556 51.113 51.6486 51.113 51.7456C51.113 51.8426 51.0744 51.9356 51.0058 52.0042C50.9373 52.0727 50.8443 52.1113 50.7473 52.1113Z" fill="#E6E6E6"/>
<path id="Vector_40" d="M50.7484 54.2021H35.0758C34.9789 54.2019 34.8861 54.1632 34.8177 54.0947C34.7493 54.0261 34.7109 53.9332 34.7109 53.8364C34.7109 53.7396 34.7493 53.6467 34.8177 53.5781C34.8861 53.5096 34.9789 53.4709 35.0758 53.4707H50.7484C50.8452 53.4709 50.938 53.5096 51.0064 53.5781C51.0748 53.6467 51.1132 53.7396 51.1132 53.8364C51.1132 53.9332 51.0748 54.0261 51.0064 54.0947C50.938 54.1632 50.8452 54.2019 50.7484 54.2021Z" fill="#E6E6E6"/>
<path id="Vector_41" d="M42.1271 49.4092H42.5157V64.3779H14.4102V63.9893H42.1271V49.4092Z" fill="#3F3D56"/>
<path id="Vector_42" d="M2.52578 66.8357H12.8232C13.4931 66.8357 14.1355 66.5696 14.6092 66.096C15.0829 65.6223 15.349 64.9798 15.349 64.31C15.349 63.6401 15.0829 62.9976 14.6092 62.524C14.1355 62.0503 13.4931 61.7842 12.8232 61.7842H2.52578C1.8559 61.7842 1.21346 62.0503 0.739784 62.524C0.266109 62.9976 0 63.6401 0 64.31C0 64.9798 0.266109 65.6223 0.739784 66.096C1.21346 66.5696 1.8559 66.8357 2.52578 66.8357Z" fill="#339999"/>
<path id="Vector_43" d="M42.5925 50.5365C43.8743 50.5365 44.9134 49.4974 44.9134 48.2155C44.9134 46.9337 43.8743 45.8945 42.5925 45.8945C41.3106 45.8945 40.2715 46.9337 40.2715 48.2155C40.2715 49.4974 41.3106 50.5365 42.5925 50.5365Z" fill="#339999"/>
<path id="Vector_44" d="M54.5896 48.8618C57.9972 49.586 57.1304 49.7274 60.538 50.4516L63.4723 51.0752C63.8394 51.1533 63.9399 50.579 63.5727 50.501C60.1651 49.7767 61.0319 49.6354 57.6243 48.9112L54.69 48.2875C54.3229 48.2095 54.2224 48.7838 54.5896 48.8618Z" fill="#F2F2F2"/>
<path id="Vector_45" d="M62.4378 47.1668L66.316 51.7448C66.4574 51.8818 66.5753 52.041 66.6653 52.216C66.7392 52.4132 66.5801 52.4953 66.4145 52.5597C65.9372 52.7149 65.4508 52.8408 64.9581 52.9365L62.0552 53.6648C61.6907 53.7562 61.8885 54.305 62.2495 54.2144L64.7779 53.5801L66.042 53.263C66.4002 53.1731 66.8168 53.1053 67.0781 52.8178C67.6271 52.2137 66.8932 51.529 66.5158 51.0834L64.8269 49.0898L62.9191 46.8377C62.6786 46.5538 62.1955 46.8808 62.4378 47.1668Z" fill="#F2F2F2"/>
<path id="Vector_46" d="M74.7353 67.1229C77.7162 67.1229 80.1327 64.7064 80.1327 61.7255C80.1327 58.7446 77.7162 56.3281 74.7353 56.3281C71.7544 56.3281 69.3379 58.7446 69.3379 61.7255C69.3379 64.7064 71.7544 67.1229 74.7353 67.1229Z" fill="#E6E6E6"/>
<path id="Vector_47" d="M74.2088 66.4341C76.4749 66.4341 78.312 64.597 78.312 62.3308C78.312 60.0646 76.4749 58.2275 74.2088 58.2275C71.9426 58.2275 70.1055 60.0646 70.1055 62.3308C70.1055 64.597 71.9426 66.4341 74.2088 66.4341Z" fill="white"/>
<path id="Vector_48" d="M73.4714 65.1404C73.3782 65.1404 73.2863 65.1187 73.2029 65.077C73.1196 65.0353 73.0471 64.9748 72.9912 64.9002L71.5187 62.9369C71.4714 62.8738 71.4369 62.8021 71.4173 62.7257C71.3977 62.6493 71.3933 62.5698 71.4044 62.4918C71.4155 62.4137 71.4419 62.3386 71.4821 62.2708C71.5222 62.2029 71.5753 62.1436 71.6384 62.0963C71.7014 62.049 71.7732 62.0145 71.8495 61.9949C71.9259 61.9753 72.0054 61.9709 72.0834 61.982C72.1615 61.9931 72.2366 62.0195 72.3045 62.0597C72.3723 62.0998 72.4316 62.1529 72.4789 62.216L72.4793 62.2164L73.4427 63.5008L75.9169 59.7895C75.9606 59.7238 76.0168 59.6673 76.0823 59.6233C76.1479 59.5794 76.2214 59.5487 76.2988 59.5332C76.3761 59.5177 76.4558 59.5176 76.5332 59.5329C76.6106 59.5482 76.6843 59.5786 76.7499 59.6223C76.8156 59.6661 76.872 59.7224 76.9159 59.788C76.9598 59.8535 76.9903 59.9271 77.0057 60.0045C77.0211 60.0819 77.0212 60.1616 77.0058 60.239C76.9904 60.3164 76.9599 60.39 76.916 60.4556L73.9711 64.8731C73.9178 64.953 73.8461 65.0189 73.7621 65.0654C73.6781 65.1119 73.5841 65.1375 73.4881 65.1402C73.4826 65.1403 73.477 65.1404 73.4714 65.1404Z" fill="#E6E6E6"/>
<path id="Vector_49" d="M125.134 67.2846C125.308 67.1825 125.457 67.0434 125.571 66.8773C125.686 66.7112 125.762 66.522 125.795 66.3232C125.828 66.1244 125.818 65.9207 125.764 65.7264C125.71 65.5322 125.614 65.3522 125.483 65.199L129.816 57.626L127.274 57.7641L123.454 65.1028C123.211 65.3402 123.064 65.6583 123.041 65.9968C123.017 66.3354 123.118 66.671 123.325 66.9399C123.532 67.2088 123.831 67.3925 124.164 67.456C124.497 67.5196 124.843 67.4586 125.134 67.2846Z" fill="#FFB8B8"/>
<path id="Vector_50" d="M120.252 40.7404C120.252 40.7404 124.842 39.2648 126.022 42.8062C127.203 46.3476 131.171 55.9389 131.171 55.9389L126.908 64.6449L124.989 62.5791L127.04 56.5292L121.137 47.6757L120.252 40.7404Z" fill="#3F3D56"/>
<path id="Vector_51" d="M127.054 63.7552C126.916 63.5214 126.741 63.3117 126.535 63.1342L125.071 61.7246L124.989 61.9063C124.839 62.1427 124.741 62.4082 124.7 62.6853C124.66 62.9624 124.679 63.245 124.755 63.5144C124.832 63.7838 124.964 64.034 125.144 64.2487C125.324 64.4633 125.547 64.6375 125.799 64.7598C126.014 64.8727 126.257 64.9228 126.499 64.9043C126.62 64.8938 126.736 64.8549 126.839 64.7908C126.941 64.7266 127.027 64.6391 127.09 64.5353C127.147 64.412 127.173 64.2767 127.167 64.1409C127.161 64.0051 127.122 63.8729 127.054 63.7552Z" fill="#E6E6E6"/>
<path id="Vector_52" d="M74.6874 68.9863H74.2988V83.9551H87.444V83.5665H74.6874V68.9863Z" fill="#3F3D56"/>
<path id="Vector_53" d="M101.857 83.8871C101.856 83.2174 101.59 82.5753 101.116 82.1018C100.643 81.6283 100.001 81.362 99.331 81.3613H89.0336C88.3637 81.3613 87.7213 81.6274 87.2476 82.1011C86.7739 82.5748 86.5078 83.2172 86.5078 83.8871C86.5078 84.557 86.7739 85.1994 87.2476 85.6731C87.7213 86.1468 88.3637 86.4129 89.0336 86.4129H99.331C100.001 86.4122 100.643 86.1459 101.116 85.6724C101.59 85.1989 101.856 84.5568 101.857 83.8871Z" fill="#339999"/>
<path id="Vector_54" d="M74.2233 70.1136C75.5052 70.1136 76.5443 69.0745 76.5443 67.7927C76.5443 66.5108 75.5052 65.4717 74.2233 65.4717C72.9415 65.4717 71.9023 66.5108 71.9023 67.7927C71.9023 69.0745 72.9415 70.1136 74.2233 70.1136Z" fill="#339999"/>
</g>
<defs>
<clipPath id="clip0_1437_11430">
<rect width="146.097" height="108" fill="white"/>
</clipPath>
</defs>
</svg>
