<svg width="115" height="201" viewBox="0 0 115 201" fill="none" xmlns="http://www.w3.org/2000/svg">
<g clip-path="url(#clip0_1990_28088)">
<path d="M23.9347 21.8885L20.5083 6.68365L19.3907 1.73035C19.298 1.32172 19.0468 0.966668 18.6923 0.743277C18.3378 0.519887 17.9091 0.446458 17.5004 0.539146L15.8125 0.920886L2.27716 3.97475C2.07509 4.02028 1.88397 4.10518 1.71473 4.2246C1.54549 4.34402 1.40144 4.49562 1.29081 4.67074C1.18019 4.84586 1.10516 5.04106 1.07001 5.24519C1.03486 5.44932 1.04028 5.65837 1.08596 5.86041C0.359306 12.6258 1.79425 18.8669 4.90789 24.7079C5.13785 25.1448 5.38162 25.5817 5.63457 26.0186C5.70151 26.3207 5.85681 26.5961 6.08071 26.8097C6.26917 26.9897 6.49918 27.1205 6.7503 27.1903C7.00142 27.2601 7.26589 27.2668 7.52023 27.2098L9.29554 26.8097L10.3901 26.5613L22.7435 23.7742C23.1515 23.682 23.5062 23.4316 23.7295 23.078C23.9529 22.7244 24.0267 22.2966 23.9347 21.8885Z" fill="#E6E6E6"/>
<path d="M22.5183 21.0415L19.2529 6.57702L18.4711 3.10465C18.3849 2.72234 18.1505 2.38989 17.8193 2.18033C17.4882 1.97077 17.0873 1.90125 16.705 1.98705L15.6655 2.22161L3.62027 4.93971C3.23797 5.02589 2.90551 5.26031 2.69595 5.59147C2.4864 5.92262 2.41687 6.32343 2.50267 6.70582C2.60844 11.9719 3.16035 16.7504 5.42775 19.6663C5.68581 20.8005 6.23966 21.8461 7.03297 22.6967C7.82627 23.5474 8.83072 24.1728 9.94415 24.5092C9.97173 24.5184 9.99473 24.5277 10.0223 24.5368C10.0407 24.5414 10.0637 24.5506 10.0821 24.5552C11.1301 24.8501 12.2352 24.8786 13.297 24.638L21.4007 22.8075C21.783 22.7214 22.1155 22.4869 22.325 22.1558C22.5346 21.8246 22.6041 21.4238 22.5183 21.0415Z" fill="white"/>
<path d="M10.5178 9.76118C10.7844 9.45365 11.1432 9.24061 11.5408 9.15391C11.9385 9.06722 12.3534 9.11151 12.7238 9.28018C13.5276 9.68166 13.8395 10.5358 13.711 11.3852C13.5676 12.334 13.072 13.1978 13.027 14.1693C12.9876 15.0194 13.3045 15.9128 14.0579 16.3705C14.5981 16.6987 15.1542 15.8862 14.6113 15.5564C13.7181 15.0137 14.0183 13.8211 14.2774 13.0077C14.6009 11.9919 14.938 10.9564 14.5378 9.90982C14.3606 9.47162 14.0764 9.08484 13.7111 8.78486C13.3459 8.48488 12.9112 8.28128 12.4469 8.19268C11.9826 8.10409 11.5035 8.13332 11.0535 8.27771C10.6034 8.4221 10.1967 8.67704 9.87063 9.01921C9.44439 9.47883 10.0862 10.2266 10.5178 9.76118Z" fill="#339999"/>
<path d="M14.8536 19.2091C15.3973 19.2091 15.838 18.7683 15.838 18.2247C15.838 17.681 15.3973 17.2402 14.8536 17.2402C14.3099 17.2402 13.8691 17.681 13.8691 18.2247C13.8691 18.7683 14.3099 19.2091 14.8536 19.2091Z" fill="#339999"/>
<path d="M76.8128 190.787L61.2278 190.694L56.1504 190.664C55.2779 190.66 54.5626 190.991 54.553 191.405L54.5326 192.226L54.3615 198.807C54.3485 199.218 55.0467 199.56 55.9192 199.564C62.2764 200.604 68.7514 200.709 75.139 199.876C75.6174 199.818 76.0986 199.754 76.5827 199.685C76.878 199.689 77.1723 199.649 77.4557 199.566C77.8866 199.433 78.1715 199.205 78.179 198.946L78.2018 198.083L78.2143 197.55L78.3705 191.544C78.3801 191.13 77.6807 190.791 76.8128 190.787Z" fill="#E6E6E6"/>
<path d="M75.6617 191.346L60.8343 191.26L57.2753 191.238C56.4597 191.233 55.7885 191.543 55.7783 191.93L55.7652 192.436L55.6134 198.292C55.6032 198.679 56.2563 198.997 57.0719 199.002C62.2187 199.533 66.9948 199.805 70.3574 199.08C72.8051 199.092 74.964 198.466 76.1163 197.529C76.1316 197.517 76.1459 197.508 76.1613 197.496C76.17 197.488 76.1843 197.478 76.1931 197.47C76.4276 197.297 76.6227 197.077 76.7652 196.822C76.9078 196.568 76.9945 196.287 77.0197 195.996L77.1201 192.056C77.1303 191.669 76.4772 191.351 75.6617 191.346Z" fill="white"/>
<path d="M61.9059 195.64C61.4514 195.318 61.4038 194.879 61.95 194.57C62.5271 194.243 63.4303 194.193 64.2267 194.346C65.1163 194.517 65.8414 194.84 66.7759 194.968C67.5938 195.08 68.5362 195.032 69.1563 194.735C69.601 194.522 68.9397 194.176 68.4929 194.39C67.7577 194.742 66.6674 194.472 65.9363 194.263C65.0234 194.002 64.0944 193.733 62.9835 193.802C60.9623 193.928 59.9078 195.058 61.0339 195.857C61.3821 196.105 62.2584 195.891 61.9059 195.64Z" fill="#E6E6E6"/>
<path d="M71.1407 195.037C71.6844 195.037 72.1251 194.828 72.1251 194.57C72.1251 194.313 71.6844 194.104 71.1407 194.104C70.597 194.104 70.1562 194.313 70.1562 194.57C70.1562 194.828 70.597 195.037 71.1407 195.037Z" fill="#E6E6E6"/>
<path d="M1.783 76.6853C0.428856 70.9979 0.654686 65.3962 2.97347 59.9079C2.99795 59.5683 3.15612 59.2524 3.41327 59.0293C3.67042 58.8062 4.00557 58.6943 4.34517 58.718L17.0159 59.617C17.3554 59.6415 17.6714 59.7997 17.8945 60.0568C18.1175 60.314 18.2295 60.6491 18.2058 60.9887L17.0153 77.7662C16.9908 78.1057 16.8327 78.4217 16.5755 78.6448C16.3184 78.8679 15.9832 78.9798 15.6436 78.9561L2.97294 78.057C2.63339 78.0326 2.31741 77.8744 2.09433 77.6172C1.87126 77.3601 1.75929 77.0249 1.783 76.6853Z" fill="#F2F2F2"/>
<path d="M3.11552 71.6847C2.03181 68.882 2.72472 65.0275 3.88086 60.8986C3.90378 60.5806 4.0519 60.2847 4.29273 60.0757C4.53357 59.8668 4.84744 59.762 5.16549 59.7842L16.0549 60.5569C16.3729 60.5798 16.6688 60.7279 16.8778 60.9687C17.0867 61.2096 17.1916 61.5234 17.1694 61.8415L16.11 76.7711C16.0871 77.0891 15.9389 77.3851 15.6981 77.594C15.4572 77.8029 15.1434 77.9077 14.8253 77.8855L8.07955 77.4069C6.66307 77.3048 5.34493 76.645 4.41432 75.5722C3.4837 74.4995 3.01661 73.1014 3.11552 71.6847Z" fill="white"/>
<path d="M10.6541 72.4172C10.3215 72.36 9.98885 72.3028 9.65624 72.2457C9.80948 71.884 9.89792 71.4982 9.91753 71.1059C10.0749 69.0061 10.0908 66.8863 10.1748 64.7822C10.1726 64.7052 10.1482 64.6306 10.1045 64.5672C10.0609 64.5038 9.9998 64.4544 9.92868 64.4249C9.85756 64.3954 9.77944 64.3872 9.70373 64.4011C9.62802 64.4151 9.55796 64.4506 9.502 64.5035C8.66666 65.1954 7.83131 65.8873 6.99595 66.5792C6.60494 66.903 7.16527 67.458 7.55333 67.1365C8.1529 66.6399 8.75247 66.1433 9.35206 65.6467C9.29702 67.0254 9.24198 68.404 9.18696 69.7827C9.16056 70.4444 9.24099 71.2479 8.97009 71.8699C8.93305 71.9539 8.8847 72.0323 8.82638 72.1031C8.45813 72.0398 8.08987 71.9766 7.7216 71.9133C7.45675 71.8678 7.12022 72.0889 7.23678 72.3981C7.49026 73.0705 8.23746 73.2829 8.87817 73.0238C8.93464 72.9984 8.98928 72.9692 9.04169 72.9362L10.4446 73.1772C10.9407 73.2625 11.1538 72.503 10.6541 72.4172Z" fill="#F2F2F2"/>
<path d="M47.7635 78.2596C46.4093 72.5722 46.6351 66.9704 48.9539 61.4821C48.9784 61.1426 49.1366 60.8266 49.3937 60.6035C49.6509 60.3804 49.986 60.2685 50.3256 60.2922L62.9963 61.1913C63.3359 61.2157 63.6518 61.3739 63.8749 61.6311C64.098 61.8882 64.21 62.2234 64.1863 62.563L62.9958 79.3404C62.9713 79.6799 62.8131 79.9959 62.556 80.219C62.2988 80.4421 61.9637 80.554 61.6241 80.5303L48.9534 79.6313C48.6139 79.6068 48.2979 79.4486 48.0748 79.1915C47.8517 78.9343 47.7398 78.5992 47.7635 78.2596Z" fill="#F2F2F2"/>
<path d="M49.096 73.2628C48.0123 70.4601 48.7052 66.6056 49.8613 62.4767C49.8842 62.1587 50.0324 61.8628 50.2732 61.6539C50.514 61.4449 50.8279 61.3401 51.146 61.3623L62.0353 62.135C62.3534 62.1579 62.6493 62.306 62.8582 62.5469C63.0671 62.7877 63.172 63.1016 63.1498 63.4196L62.0905 78.3493C62.0675 78.6673 61.9194 78.9632 61.6786 79.1721C61.4377 79.381 61.1238 79.4859 60.8058 79.4637L54.06 78.985C52.6435 78.8829 51.3254 78.2231 50.3948 77.1503C49.4642 76.0776 48.9971 74.6795 49.096 73.2628Z" fill="white"/>
<path d="M56.2034 70.4147C56.3481 70.3471 56.4851 70.264 56.612 70.1669C56.9496 69.8885 57.1992 69.518 57.3305 69.1006C57.4618 68.6831 57.4691 68.2365 57.3516 67.8149C56.8407 65.9378 54.5953 65.9264 53.0452 66.1522C52.5451 66.2251 52.7577 66.9847 53.2547 66.9123C54.2994 66.7601 55.9395 66.6371 56.5009 67.7781C56.629 68.0461 56.6746 68.3462 56.6319 68.6402C56.5891 68.9342 56.46 69.2089 56.2609 69.4294C56.0228 69.6683 55.7093 69.8173 55.3737 69.8512C55.0487 69.7098 54.6958 69.644 54.3417 69.6586C53.9764 69.6759 53.7729 70.2071 54.1427 70.3931C54.47 70.5561 54.8306 70.6411 55.1963 70.6415C55.4995 70.7877 55.7527 71.0204 55.9241 71.3101C56.0955 71.5999 56.1775 71.9338 56.1597 72.27C56.1248 72.5001 56.0447 72.7211 55.9241 72.9202C55.8035 73.1193 55.6448 73.2926 55.4569 73.4302C55.2691 73.5677 55.056 73.6668 54.8298 73.7217C54.6035 73.7766 54.3687 73.7862 54.1387 73.75C53.6434 73.6504 53.4315 74.41 53.9292 74.5101C54.2689 74.5741 54.6181 74.5687 54.9556 74.4942C55.2932 74.4197 55.6122 74.2776 55.8934 74.0765C56.1747 73.8755 56.4123 73.6196 56.592 73.3242C56.7717 73.0289 56.8897 72.7003 56.9391 72.3581C56.9703 71.9997 56.9204 71.6389 56.7931 71.3024C56.6657 70.966 56.4642 70.6625 56.2034 70.4147Z" fill="#F2F2F2"/>
<path d="M72.397 185.854L67.939 185.853L65.8184 168.658L72.3978 168.659L72.397 185.854Z" fill="#FFB6B6"/>
<path d="M72.5526 190.503L58.8438 190.503V190.329C58.8439 188.914 59.406 187.557 60.4067 186.556C61.4074 185.556 62.7645 184.994 64.1796 184.993H64.18L66.6841 183.094L71.3562 184.994L72.5529 184.994L72.5526 190.503Z" fill="#2F2E41"/>
<path d="M92.8912 195.311L88.4331 195.311L86.3125 178.115L92.892 178.116L92.8912 195.311Z" fill="#FFB6B6"/>
<path d="M93.0468 199.964L79.3379 199.964V199.79C79.338 198.375 79.9002 197.018 80.9008 196.017C81.9015 195.017 83.2586 194.454 84.6738 194.454H84.6741L87.1782 192.555L91.8503 194.455L93.047 194.455L93.0468 199.964Z" fill="#2F2E41"/>
<path d="M38.0415 57.7993C38.3477 58.1415 38.7247 58.4132 39.1462 58.5954C39.5677 58.7777 40.0238 58.8662 40.4829 58.8548C40.942 58.8435 41.3931 58.7326 41.8052 58.5297C42.2172 58.3268 42.5802 58.0369 42.8691 57.68L58.0695 62.0067L60.3 58.0966L42.2087 53.0896C41.5717 52.648 40.7948 52.4553 40.0252 52.5482C39.2557 52.6411 38.5469 53.013 38.0333 53.5936C37.5196 54.1741 37.2368 54.9229 37.2383 55.698C37.2398 56.4731 37.5256 57.2208 38.0415 57.7993Z" fill="#FFB6B6"/>
<path d="M77.5696 93.9902L61.5756 130.56L59.7363 136.34L65.297 176.913L74.2726 176.475L74.2524 171.272C74.2524 171.272 72.1164 170.113 74.2455 169.484C76.3746 168.855 76.2849 167.258 74.2277 164.904C72.1706 162.549 74.1313 140.019 74.1313 140.019C74.1313 140.019 82.6016 131.908 81.6789 129.789C80.7562 127.67 82.4691 127.67 82.4691 127.67C82.4691 127.67 84.2953 127.343 84.365 126.455C84.4347 125.568 85.7881 123.783 85.7881 123.783L85.314 186.27H93.0583C93.0583 186.27 96.5989 180.387 95.9031 179.121C95.2073 177.854 94.2342 177.73 95.9031 176.216C97.5721 174.701 100.022 175.941 98.9282 173.088C97.8348 170.235 98.1157 139.447 98.1157 139.447C98.1157 139.447 102.424 121.581 99.7622 120.368C97.1005 119.155 98.4238 119.326 99.9955 117.664C101.567 116.002 98.9016 116.154 100.234 114.895C101.567 113.637 101.621 98.8276 101.621 98.8276L77.5696 93.9902Z" fill="#2F2E41"/>
<path d="M102.827 104.284C91.6158 104.257 81.9966 106.777 70.7852 106.751C71.5156 101.696 74.0683 93.772 74.7984 88.7156C75.8252 81.6038 75.029 77.3588 76.0533 70.2472C76.1557 69.5509 76.2556 68.8573 76.3554 68.161C76.7601 65.3496 75.7905 62.5382 77.5299 59.5691C78.2708 58.3027 79.5031 57.01 81.5447 55.6752C85.7854 56.1061 85.7119 54.1933 89.9526 54.6242L91.3557 57.4199C91.5344 58.4814 92.1781 59.1724 93.0504 59.6953C94.845 60.7804 97.6091 61.1588 99.2697 62.6275C101.356 64.472 101.217 67.4227 100.597 70.3024C100.376 71.3271 100.095 72.3413 99.8293 73.2951C97.6934 80.9796 100.424 86.8422 102.65 93.9705C102.861 94.6465 100.862 97.2604 101.073 97.9118C101.432 99.0154 102.719 100.388 102.514 101.134C102.26 102.058 102.008 102.926 102.827 104.284Z" fill="#339999"/>
<path d="M100.596 70.3023L76.0526 70.2471L75.2644 70.2445L46.1582 59.5504L49.8829 59.6767L51.6118 55.6908L52.4447 53.7754L69.5995 59.5086L77.5293 59.569L92.4796 59.6793C92.6714 59.682 92.8606 59.6872 93.0498 59.6951C94.8444 60.7803 97.6085 61.1586 99.269 62.6274C101.355 64.4719 101.216 67.4225 100.596 70.3023Z" fill="#339999"/>
<path d="M83.8293 53.8617C88.2342 53.8617 91.8051 50.2908 91.8051 45.8859C91.8051 41.481 88.2342 37.9102 83.8293 37.9102C79.4244 37.9102 75.8535 41.481 75.8535 45.8859C75.8535 50.2908 79.4244 53.8617 83.8293 53.8617Z" fill="#FFB6B6"/>
<path d="M82.6956 52.7441L83.3452 54.8215C84.7858 54.1103 88.8732 53.1235 90.0727 52.0548C91.2722 50.9861 92.2 49.5114 92.2568 47.9058C92.2861 47.0766 92.0853 46.2402 92.2231 45.422C92.3788 44.4975 92.9494 43.696 93.2106 42.7956C93.455 41.8524 93.363 40.8536 92.9505 39.971C92.538 39.0884 91.8308 38.3771 90.9505 37.9596C89.6285 37.3786 88.1167 37.5417 86.6794 37.4012C85.2421 37.2608 83.6388 36.6106 83.2343 35.2243C83.083 34.706 83.1003 34.0949 82.6373 33.7555C82.4046 33.6 82.1226 33.5361 81.8456 33.5761C81.5686 33.6162 81.3162 33.7573 81.1371 33.9724C81.1158 33.9966 81.0953 34.021 81.0756 34.0457C79.859 35.572 77.566 35.6853 76.366 34.1459C76.2876 34.0453 76.2122 33.9424 76.1399 33.8371C75.8877 34.0732 75.6849 34.357 75.5431 34.672C75.4013 34.987 75.3233 35.3269 75.3137 35.6723C75.304 36.0176 75.363 36.3614 75.487 36.6838C75.6111 37.0062 75.7978 37.3008 76.0364 37.5506C75.5832 37.5507 75.1431 37.3982 74.7873 37.1175C74.4314 36.8369 74.1805 36.4445 74.0751 36.0037C73.5246 36.764 72.9597 37.5568 72.7827 38.4785C72.6058 39.4003 72.9342 40.4905 73.7796 40.8983C74.211 41.0688 74.674 41.1447 75.1373 41.1207C72.9567 43.7 74.265 43.6258 78.6811 41.188C80.8719 41.2296 80.0067 43.2653 80.0351 45.4563C81.0661 45.3572 82.1279 45.2603 83.1029 45.6945C83.557 45.8857 83.9397 46.2146 84.1971 46.6348C84.8414 47.7416 84.2022 48.8919 83.6356 49.8985C83.1514 50.759 82.6922 51.7953 83.0941 52.6972" fill="#2F2E41"/>
<path d="M68.18 119.604C68.5819 119.382 68.9308 119.075 69.2025 118.705C69.4742 118.334 69.6622 117.91 69.7535 117.459C69.8449 117.009 69.8374 116.545 69.7316 116.098C69.6258 115.651 69.4241 115.233 69.1406 114.871L76.7494 101.019L73.4353 97.9727L64.5186 114.491C63.946 115.013 63.5849 115.728 63.5037 116.499C63.4226 117.27 63.6271 118.043 64.0784 118.674C64.5297 119.304 65.1965 119.747 65.9524 119.918C66.7083 120.09 67.5009 119.978 68.18 119.604Z" fill="#FFB6B6"/>
<path d="M86.7376 54.8281L84.9641 86.5996L76.4195 106.566L70.8582 113.941L71.4903 110.599L67.6568 108.681L67.2969 108.502L72.3995 95.5777L73.9392 91.6785L74.6565 79.9416L75.3343 68.8431C75.4513 66.9332 75.9632 65.0683 76.8379 63.3664C77.7126 61.6646 78.9309 60.1627 80.4159 58.9559L84.6724 55.4981L86.7376 54.8281Z" fill="#339999"/>
<path d="M27.0096 54.8767C25.6554 49.1893 25.8812 43.5876 28.2 38.0993C28.2245 37.7598 28.3827 37.4438 28.6398 37.2207C28.897 36.9976 29.2321 36.8857 29.5717 36.9094L42.2424 37.8084C42.582 37.8329 42.8979 37.9911 43.121 38.2482C43.3441 38.5054 43.4561 38.8405 43.4323 39.1801L42.2419 55.9576C42.2174 56.2971 42.0592 56.6131 41.8021 56.8362C41.5449 57.0593 41.2098 57.1712 40.8702 57.1475L28.1995 56.2484C27.86 56.224 27.544 56.0658 27.3209 55.8086C27.0978 55.5515 26.9859 55.2163 27.0096 54.8767Z" fill="#F2F2F2"/>
<path d="M28.3382 49.878C27.2545 47.0754 27.9474 43.2208 29.1035 39.0919C29.1264 38.7739 29.2746 38.478 29.5154 38.2691C29.7562 38.0602 30.0701 37.9553 30.3881 37.9775L41.2775 38.7502C41.5955 38.7731 41.8915 38.9212 42.1004 39.1621C42.3093 39.4029 42.4142 39.7168 42.392 40.0348L41.3327 54.9645C41.3097 55.2825 41.1616 55.5784 40.9207 55.7873C40.6799 55.9963 40.366 56.1011 40.048 56.0789L33.3022 55.6002C31.8857 55.4981 30.5676 54.8383 29.637 53.7656C28.7064 52.6928 28.2393 51.2947 28.3382 49.878Z" fill="white"/>
<path d="M35.0355 42.364C33.9192 41.9767 32.6779 42.8594 32.5512 44.004C32.4077 45.3013 33.8031 46.3254 35.0111 45.9728C35.4971 45.831 35.2903 45.0701 34.8016 45.2127C33.9161 45.4711 32.9715 44.515 33.4806 43.6602C33.5963 43.4538 33.7721 43.2876 33.9845 43.1837C34.197 43.0797 34.4361 43.0429 34.67 43.0782C34.8686 43.1332 35.0515 43.234 35.2041 43.3725C35.3567 43.5109 35.4747 43.6832 35.5486 43.8756C35.9831 44.8547 35.4668 45.8487 34.7824 46.5603C34.3921 46.9662 33.9341 47.2816 33.5135 47.6515C33.3089 47.8061 33.1391 48.0017 33.0148 48.2259C32.8905 48.4501 32.8146 48.6979 32.792 48.9532C32.803 49.2403 32.8924 49.519 33.0504 49.759C33.2085 49.999 33.4291 50.1912 33.6885 50.3149C34.3605 50.6605 35.1249 50.5506 35.8398 50.4356C36.3393 50.3552 36.1273 49.5955 35.6303 49.6755C35.005 49.7761 34.0689 49.9285 33.6727 49.2765C33.3334 48.7182 34.0324 48.228 34.4133 47.9309C35.3706 47.1845 36.3386 46.2205 36.4824 44.9514C36.6001 43.9117 36.0717 42.7237 35.0355 42.364Z" fill="#339999"/>
<path d="M100.745 195.945C100.867 195.951 100.988 195.918 101.091 195.853C101.194 195.788 101.275 195.692 101.322 195.579C101.369 195.466 101.381 195.342 101.355 195.222C101.329 195.103 101.267 194.994 101.177 194.911L101.136 194.749C101.141 194.736 101.147 194.723 101.152 194.71C101.275 194.419 101.482 194.172 101.745 193.998C102.008 193.824 102.317 193.732 102.633 193.733C102.948 193.734 103.257 193.829 103.519 194.004C103.781 194.18 103.985 194.429 104.106 194.721C104.589 195.884 105.204 197.05 105.356 198.28C105.422 198.824 105.394 199.375 105.272 199.909C106.407 197.434 106.996 194.744 107 192.021C107 191.338 106.962 190.655 106.886 189.976C106.824 189.42 106.736 188.867 106.625 188.318C106.017 185.341 104.711 182.551 102.815 180.176C101.897 179.675 101.155 178.905 100.689 177.97C100.52 177.634 100.4 177.275 100.334 176.904C100.438 176.918 100.724 175.341 100.646 175.244C100.791 175.025 101.049 174.917 101.206 174.703C101.99 173.641 103.069 173.826 103.633 175.27C104.837 175.877 104.849 176.885 104.11 177.854C103.64 178.471 103.575 179.305 103.163 179.966C103.205 180.02 103.25 180.072 103.292 180.127C104.068 181.124 104.743 182.195 105.31 183.324C105.172 182.059 105.337 180.779 105.79 179.59C106.249 178.482 107.11 177.549 107.868 176.591C108.069 176.334 108.341 176.142 108.651 176.039C108.961 175.937 109.294 175.928 109.608 176.015C109.923 176.102 110.205 176.28 110.418 176.526C110.631 176.773 110.767 177.078 110.807 177.401C110.809 177.415 110.81 177.43 110.812 177.444C110.699 177.507 110.589 177.575 110.481 177.646C110.345 177.737 110.24 177.866 110.18 178.017C110.119 178.168 110.105 178.334 110.141 178.493C110.176 178.653 110.258 178.797 110.377 178.909C110.496 179.02 110.646 179.093 110.807 179.118L110.823 179.12C110.783 179.526 110.712 179.928 110.611 180.324C111.584 184.085 109.484 185.455 106.486 185.517C106.42 185.551 106.355 185.584 106.289 185.617C106.858 187.23 107.215 188.911 107.351 190.616C107.428 191.622 107.424 192.633 107.338 193.639L107.343 193.603C107.56 192.485 108.156 191.476 109.031 190.747C110.331 189.679 112.167 189.286 113.569 188.428C113.718 188.333 113.891 188.282 114.068 188.281C114.245 188.281 114.418 188.331 114.568 188.426C114.717 188.521 114.836 188.657 114.911 188.817C114.986 188.977 115.014 189.156 114.99 189.331L114.985 189.369C114.776 189.454 114.572 189.552 114.375 189.662C114.263 189.726 114.153 189.793 114.045 189.865C113.909 189.955 113.804 190.085 113.743 190.236C113.683 190.387 113.669 190.553 113.704 190.712C113.74 190.871 113.822 191.016 113.941 191.127C114.06 191.239 114.21 191.312 114.371 191.337L114.387 191.339C114.399 191.341 114.409 191.343 114.421 191.344C114.064 192.197 113.563 192.982 112.94 193.664C112.332 196.948 109.719 197.259 106.925 196.303H106.924C106.617 197.635 106.173 198.932 105.598 200.172H100.863C100.846 200.12 100.831 200.065 100.816 200.013C101.254 200.04 101.694 200.014 102.126 199.935C101.775 199.504 101.423 199.069 101.072 198.638C101.064 198.63 101.057 198.622 101.05 198.613C100.872 198.392 100.692 198.173 100.514 197.953L100.514 197.952C100.504 197.276 100.582 196.601 100.745 195.945Z" fill="#F2F2F2"/>
<path d="M47.7871 200.186C47.787 200.227 47.795 200.268 47.8107 200.306C47.8263 200.344 47.8494 200.378 47.8784 200.407C47.9075 200.436 47.942 200.459 47.98 200.475C48.018 200.491 48.0587 200.499 48.0998 200.498H114.651C114.734 200.498 114.814 200.465 114.872 200.407C114.931 200.348 114.964 200.269 114.964 200.186C114.964 200.103 114.931 200.023 114.872 199.965C114.814 199.906 114.734 199.873 114.651 199.873H48.0998C48.0587 199.873 48.018 199.881 47.98 199.897C47.942 199.912 47.9075 199.935 47.8784 199.964C47.8494 199.993 47.8263 200.028 47.8107 200.066C47.795 200.104 47.787 200.145 47.7871 200.186Z" fill="#CCCCCC"/>
<path d="M14.2838 27.4376C13.955 32.2967 14.113 37.8114 17.8849 41.4161C18.7687 42.2686 19.8241 42.9227 20.9807 43.3348C21.4601 43.5038 21.6662 42.7425 21.1903 42.5747C19.2526 41.8917 17.7282 40.3907 16.7125 38.6357C15.5219 36.5784 15.0676 34.205 14.9681 31.8526C14.9219 30.3801 14.9566 28.9062 15.0721 27.4376C15.1063 26.9312 14.318 26.9333 14.2838 27.4376Z" fill="#3F3D56"/>
<path d="M20.1602 38.5591C21.0951 38.9935 22.0751 39.4354 22.8147 40.1739C23.4894 40.8476 23.9604 41.8303 23.6871 42.7906C23.2386 44.366 21.2413 44.96 19.8488 45.3357C19.7512 45.3663 19.6693 45.4336 19.6204 45.5234C19.5714 45.6131 19.5593 45.7184 19.5865 45.817C19.6136 45.9156 19.678 45.9997 19.7661 46.0518C19.8541 46.1038 19.9589 46.1196 20.0583 46.0958C21.4592 45.7179 23.0299 45.1902 23.9449 43.991C25.0276 42.5719 24.5136 40.7015 23.2974 39.5439C22.5138 38.7982 21.5281 38.3292 20.558 37.8785C20.1009 37.6661 19.7001 38.3454 20.1602 38.5591Z" fill="#3F3D56"/>
</g>
<defs>
<clipPath id="clip0_1990_28088">
<rect width="114.1" height="200" fill="white" transform="translate(0.900391 0.5)"/>
</clipPath>
</defs>
</svg>
