<svg width="137" height="120" viewBox="0 0 137 120" fill="none" xmlns="http://www.w3.org/2000/svg">
<g clip-path="url(#clip0_2495_36171)">
<path d="M117.033 99.1517C114.754 105.826 111.824 112.485 108.07 118.824C107.987 118.966 107.902 119.106 107.817 119.248L98.5234 116.308C98.5769 116.174 98.6355 116.023 98.6984 115.859C102.447 106.164 125.063 47.0996 124.048 35.4541C124.157 36.4073 127.695 67.9537 117.033 99.1517Z" fill="#E6E6E6"/>
<path d="M109.866 119.391C109.74 119.52 109.61 119.648 109.48 119.774L102.508 117.568C102.602 117.454 102.712 117.32 102.838 117.168C104.903 114.646 111.042 107.096 117.036 99.1521C123.478 90.6153 129.755 81.6249 130.634 77.9307C130.458 78.7707 124.956 104.343 109.866 119.391Z" fill="#E6E6E6"/>
<path d="M113.348 21.0454C113.345 21.0454 113.343 21.0462 113.34 21.0462V6.10091C113.34 4.48285 112.697 2.93106 111.553 1.78692C110.409 0.642773 108.857 0 107.239 0H60.4487C58.8307 0 57.2789 0.642773 56.1347 1.78692C54.9906 2.93106 54.3478 4.48285 54.3478 6.10091V13.7627C54.2186 13.7654 54.0957 13.8186 54.0052 13.9109C53.9148 14.0032 53.8641 14.1273 53.864 14.2565V18.0514C53.8641 18.1806 53.9148 18.3046 54.0052 18.3969C54.0957 18.4892 54.2186 18.5424 54.3478 18.5451V22.5207H54.323C54.258 22.5207 54.1937 22.5335 54.1336 22.5584C54.0736 22.5832 54.019 22.6197 53.9731 22.6656C53.9271 22.7116 53.8907 22.7661 53.8658 22.8262C53.8409 22.8862 53.8281 22.9506 53.8281 23.0156V30.3541C53.8281 30.4191 53.8409 30.4834 53.8658 30.5434C53.8907 30.6035 53.9271 30.658 53.9731 30.704C54.019 30.75 54.0736 30.7864 54.1336 30.8113C54.1937 30.8361 54.258 30.8489 54.323 30.8489H54.3478V33.7636H54.3401C54.2751 33.7636 54.2107 33.7763 54.1507 33.8012C54.0907 33.8261 54.0361 33.8625 53.9902 33.9085C53.9442 33.9544 53.9077 34.009 53.8829 34.069C53.858 34.1291 53.8452 34.1934 53.8452 34.2584V41.6687C53.8452 41.7337 53.858 41.798 53.8829 41.8581C53.9077 41.9181 53.9442 41.9727 53.9902 42.0186C54.0361 42.0646 54.0907 42.101 54.1507 42.1259C54.2107 42.1508 54.2751 42.1636 54.3401 42.1636H54.3478V113.793C54.3478 115.411 54.9906 116.963 56.1347 118.107C57.2789 119.251 58.8307 119.894 60.4487 119.894H107.239C108.857 119.894 110.409 119.251 111.553 118.107C112.697 116.963 113.34 115.411 113.34 113.793V35.5782C113.343 35.5782 113.345 35.5789 113.348 35.5789C113.463 35.5789 113.578 35.5561 113.685 35.5118C113.792 35.4676 113.889 35.4027 113.971 35.3208C114.053 35.239 114.117 35.1419 114.162 35.035C114.206 34.928 114.229 34.8134 114.229 34.6977V21.9267C114.229 21.6929 114.136 21.4688 113.971 21.3035C113.805 21.1383 113.581 21.0454 113.348 21.0454Z" fill="#3F3D56"/>
<path d="M109.699 7.80857V112.083C109.698 113.326 109.204 114.517 108.326 115.395C107.447 116.274 106.256 116.767 105.013 116.767H62.6777C61.4353 116.767 60.2438 116.274 59.3651 115.395C58.4865 114.517 57.9926 113.326 57.9922 112.083V7.80857C57.9922 6.56589 58.4858 5.37411 59.3645 4.4954C60.2433 3.6167 61.435 3.12305 62.6777 3.12305H69.0128V3.94528C69.0133 4.96839 69.4199 5.94946 70.1433 6.67291C70.8668 7.39636 71.8479 7.80299 72.871 7.80344H94.4097C95.4314 7.80118 96.4106 7.39369 97.1323 6.67039C97.854 5.94709 98.2593 4.96705 98.2593 3.94528V3.13159H105.013C106.254 3.13159 107.445 3.62407 108.323 4.50093C109.202 5.37779 109.696 6.56737 109.699 7.80857Z" fill="white"/>
<path d="M41.044 58.5106C40.7936 58.4137 40.5251 58.3728 40.2572 58.3909C39.9893 58.409 39.7287 58.4856 39.4937 58.6153C39.2586 58.745 39.0548 58.9246 38.8967 59.1416C38.7386 59.3586 38.63 59.6076 38.5786 59.8711L23.4922 68.0742L26.1447 71.0596L40.1551 62.0682C40.6035 62.1253 41.0572 62.016 41.4304 61.7609C41.8035 61.5058 42.0701 61.1227 42.1797 60.6842C42.2893 60.2457 42.2342 59.7822 42.0248 59.3816C41.8155 58.981 41.4665 58.6711 41.044 58.5106Z" fill="#FFB8B8"/>
<path d="M37.1979 117.531L39.0778 116.315L35.2824 108.485L32.5078 110.28L37.1979 117.531Z" fill="#FFB8B8"/>
<path d="M43.8359 115.716L37.9277 119.537L36.4512 117.255L40.162 114.854C40.7448 114.477 41.4535 114.347 42.1321 114.493C42.8107 114.639 43.4038 115.048 43.7807 115.63L43.8359 115.716Z" fill="#2F2E41"/>
<path d="M16.1094 117.814H18.3482L19.4137 109.179H16.1094V117.814Z" fill="#FFB8B8"/>
<path d="M22.6641 119.894H15.6276V117.175H20.0471C20.3908 117.175 20.7311 117.243 21.0486 117.374C21.3661 117.506 21.6546 117.698 21.8976 117.941C22.1406 118.184 22.3333 118.473 22.4649 118.79C22.5964 119.108 22.6641 119.448 22.6641 119.792V119.894Z" fill="#2F2E41"/>
<path d="M67.4725 16.9221H62.857C62.7437 16.9221 62.635 16.8771 62.5549 16.7969C62.4747 16.7168 62.4297 16.6081 62.4297 16.4947C62.4297 16.3814 62.4747 16.2727 62.5549 16.1926C62.635 16.1124 62.7437 16.0674 62.857 16.0674H67.4725C67.5858 16.0674 67.6945 16.1124 67.7747 16.1926C67.8548 16.2727 67.8998 16.3814 67.8998 16.4947C67.8998 16.6081 67.8548 16.7168 67.7747 16.7969C67.6945 16.8771 67.5858 16.9221 67.4725 16.9221Z" fill="#3F3D56"/>
<path d="M67.4725 18.1194H62.857C62.7437 18.1194 62.635 18.0743 62.5549 17.9942C62.4747 17.914 62.4297 17.8053 62.4297 17.692C62.4297 17.5787 62.4747 17.47 62.5549 17.3898C62.635 17.3097 62.7437 17.2646 62.857 17.2646H67.4725C67.5858 17.2646 67.6945 17.3097 67.7747 17.3898C67.8548 17.47 67.8998 17.5787 67.8998 17.692C67.8998 17.8053 67.8548 17.914 67.7747 17.9942C67.6945 18.0743 67.5858 18.1194 67.4725 18.1194Z" fill="#3F3D56"/>
<path d="M67.4725 19.3156H62.857C62.7437 19.3156 62.635 19.2706 62.5549 19.1905C62.4747 19.1103 62.4297 19.0016 62.4297 18.8883C62.4297 18.775 62.4747 18.6662 62.5549 18.5861C62.635 18.506 62.7437 18.4609 62.857 18.4609H67.4725C67.5858 18.4609 67.6945 18.506 67.7747 18.5861C67.8548 18.6662 67.8998 18.775 67.8998 18.8883C67.8998 19.0016 67.8548 19.1103 67.7747 19.1905C67.6945 19.2706 67.5858 19.3156 67.4725 19.3156Z" fill="#3F3D56"/>
<path d="M103.252 18.128H103.096L103.036 18.0784C103.233 17.8442 103.34 17.5482 103.34 17.2425C103.339 16.991 103.263 16.7455 103.122 16.5371C102.981 16.3287 102.782 16.1668 102.549 16.0717C102.316 15.9767 102.06 15.9529 101.814 16.0033C101.567 16.0537 101.341 16.1761 101.165 16.3549C100.988 16.5337 100.868 16.761 100.82 17.0079C100.772 17.2549 100.799 17.5105 100.896 17.7424C100.994 17.9742 101.158 18.172 101.368 18.3106C101.578 18.4492 101.824 18.5225 102.076 18.5211C102.38 18.519 102.675 18.4115 102.91 18.2169L102.968 18.2664V18.4237L103.949 19.4066L104.243 19.1126L103.252 18.128ZM102.076 18.128C101.9 18.1286 101.729 18.0774 101.583 17.9806C101.437 17.8839 101.323 17.7461 101.255 17.5845C101.188 17.423 101.169 17.245 101.203 17.0731C101.236 16.9012 101.32 16.7431 101.444 16.6188C101.567 16.4945 101.724 16.4095 101.896 16.3747C102.068 16.3399 102.246 16.3567 102.408 16.4231C102.57 16.4895 102.709 16.6025 102.806 16.7477C102.904 16.8929 102.957 17.0639 102.958 17.2391L102.958 17.2425C102.958 17.3581 102.936 17.4727 102.893 17.5798C102.849 17.6868 102.785 17.7843 102.703 17.8665C102.622 17.9487 102.525 18.0141 102.419 18.059C102.312 18.1038 102.198 18.1273 102.082 18.128C102.08 18.128 102.078 18.128 102.076 18.128Z" fill="#3F3D56"/>
<path d="M76.8829 32.6484H68.5913C68.0926 32.6484 67.6143 32.4503 67.2617 32.0977C66.909 31.745 66.7109 31.2668 66.7109 30.7681C66.7109 30.2694 66.909 29.7911 67.2617 29.4384C67.6143 29.0858 68.0926 28.8877 68.5913 28.8877H76.8829C77.3816 28.8877 77.8599 29.0858 78.2125 29.4384C78.5652 29.7911 78.7633 30.2694 78.7633 30.7681C78.7633 31.2668 78.5652 31.745 78.2125 32.0977C77.8599 32.4503 77.3816 32.6484 76.8829 32.6484Z" fill="#339999"/>
<path d="M102.267 36.7515H67.7366C67.4646 36.7515 67.2037 36.6434 67.0113 36.4511C66.819 36.2587 66.7109 35.9979 66.7109 35.7258C66.7109 35.4538 66.819 35.1929 67.0113 35.0006C67.2037 34.8083 67.4646 34.7002 67.7366 34.7002H102.267C102.539 34.7002 102.8 34.8083 102.992 35.0006C103.184 35.1929 103.293 35.4538 103.293 35.7258C103.293 35.9979 103.184 36.2587 102.992 36.4511C102.8 36.6434 102.539 36.7515 102.267 36.7515Z" fill="#E6E6E6"/>
<path d="M80.4205 40.854H67.7366C67.4646 40.854 67.2037 40.746 67.0113 40.5536C66.819 40.3613 66.7109 40.1004 66.7109 39.8284C66.7109 39.5564 66.819 39.2955 67.0113 39.1031C67.2037 38.9108 67.4646 38.8027 67.7366 38.8027H80.4205C80.6925 38.8027 80.9534 38.9108 81.1458 39.1031C81.3381 39.2955 81.4462 39.5564 81.4462 39.8284C81.4462 40.1004 81.3381 40.3613 81.1458 40.5536C80.9534 40.746 80.6925 40.854 80.4205 40.854Z" fill="#E6E6E6"/>
<path d="M76.8829 78.1191H68.5913C68.0926 78.1191 67.6143 77.921 67.2617 77.5684C66.909 77.2157 66.7109 76.7375 66.7109 76.2388C66.7109 75.7401 66.909 75.2618 67.2617 74.9091C67.6143 74.5565 68.0926 74.3584 68.5913 74.3584H76.8829C77.3816 74.3584 77.8599 74.5565 78.2125 74.9091C78.5652 75.2618 78.7633 75.7401 78.7633 76.2388C78.7633 76.7375 78.5652 77.2157 78.2125 77.5684C77.8599 77.921 77.3816 78.1191 76.8829 78.1191Z" fill="#339999"/>
<path d="M102.267 82.2222H67.7366C67.4646 82.2222 67.2037 82.1141 67.0113 81.9218C66.819 81.7294 66.7109 81.4686 66.7109 81.1966C66.7109 80.9245 66.819 80.6637 67.0113 80.4713C67.2037 80.279 67.4646 80.1709 67.7366 80.1709H102.267C102.539 80.1709 102.8 80.279 102.992 80.4713C103.184 80.6637 103.293 80.9245 103.293 81.1966C103.293 81.4686 103.184 81.7294 102.992 81.9218C102.8 82.1141 102.539 82.2222 102.267 82.2222Z" fill="#E6E6E6"/>
<path d="M80.4205 86.3247H67.7366C67.4646 86.3247 67.2037 86.2167 67.0113 86.0243C66.819 85.832 66.7109 85.5711 66.7109 85.2991C66.7109 85.0271 66.819 84.7662 67.0113 84.5738C67.2037 84.3815 67.4646 84.2734 67.7366 84.2734H80.4205C80.6925 84.2734 80.9534 84.3815 81.1458 84.5738C81.3381 84.7662 81.4462 85.0271 81.4462 85.2991C81.4462 85.5711 81.3381 85.832 81.1458 86.0243C80.9534 86.2167 80.6925 86.3247 80.4205 86.3247Z" fill="#E6E6E6"/>
<path d="M76.8829 99.1445H68.5913C68.0926 99.1445 67.6143 98.9464 67.2617 98.5938C66.909 98.2411 66.7109 97.7629 66.7109 97.2642C66.7109 96.7654 66.909 96.2872 67.2617 95.9345C67.6143 95.5819 68.0926 95.3838 68.5913 95.3838H76.8829C77.3816 95.3838 77.8599 95.5819 78.2125 95.9345C78.5652 96.2872 78.7633 96.7654 78.7633 97.2642C78.7633 97.7629 78.5652 98.2411 78.2125 98.5938C77.8599 98.9464 77.3816 99.1445 76.8829 99.1445Z" fill="#339999"/>
<path d="M102.267 103.248H67.7366C67.4646 103.248 67.2037 103.14 67.0113 102.947C66.819 102.755 66.7109 102.494 66.7109 102.222C66.7109 101.95 66.819 101.689 67.0113 101.497C67.2037 101.304 67.4646 101.196 67.7366 101.196H102.267C102.539 101.196 102.8 101.304 102.992 101.497C103.184 101.689 103.293 101.95 103.293 102.222C103.293 102.494 103.184 102.755 102.992 102.947C102.8 103.14 102.539 103.248 102.267 103.248Z" fill="#E6E6E6"/>
<path d="M80.4205 107.35H67.7366C67.4646 107.35 67.2037 107.242 67.0113 107.05C66.819 106.857 66.7109 106.597 66.7109 106.324C66.7109 106.052 66.819 105.792 67.0113 105.599C67.2037 105.407 67.4646 105.299 67.7366 105.299H80.4205C80.6925 105.299 80.9534 105.407 81.1458 105.599C81.3381 105.792 81.4462 106.052 81.4462 106.324C81.4462 106.597 81.3381 106.857 81.1458 107.05C80.9534 107.242 80.6925 107.35 80.4205 107.35Z" fill="#E6E6E6"/>
<path d="M107.132 67.436H41.1483C40.7631 67.4355 40.3938 67.2823 40.1214 67.0099C39.849 66.7375 39.6958 66.3682 39.6953 65.983V48.0341C39.6957 47.6488 39.849 47.2795 40.1214 47.0071C40.3938 46.7347 40.7631 46.5815 41.1483 46.5811H107.132C107.517 46.5815 107.886 46.7347 108.159 47.0071C108.431 47.2795 108.585 47.6488 108.585 48.0341V65.983C108.585 66.3682 108.431 66.7375 108.159 67.0099C107.886 67.2823 107.517 67.4355 107.132 67.436Z" fill="#339999"/>
<path d="M17.4298 88.7898C18.0606 93.2155 14.7204 112.823 15.0914 112.821L19.888 112.795C20.0589 112.467 22.2607 101.887 22.9513 100.19C23.9154 97.8343 24.888 95.4497 25.2675 92.9334C25.6248 90.571 25.4487 88.1641 25.2162 85.7863C25.2271 85.7156 25.2209 85.6433 25.1982 85.5754C25.1756 85.5075 25.1372 85.446 25.0861 85.3959C25.035 85.3458 24.9727 85.3086 24.9044 85.2873C24.8361 85.266 24.7637 85.2613 24.6932 85.2735L18.2572 84.9418C16.9307 84.8735 16.6161 84.5829 16.8179 85.8854C16.958 86.8581 17.2897 87.8051 17.4298 88.7898Z" fill="#2F2E41"/>
<path d="M18.6936 78.0291C17.3859 79.9095 16.0149 82.0736 16.4491 84.3249C16.779 86.0344 18.0816 87.3592 19.3107 88.5985C24.2236 93.5319 33.9108 115.3 33.9108 115.3C38.5858 112.308 33.7995 115.385 38.5434 112.223C38.1229 112.19 28.5689 77.8462 27.7774 77.8001C24.5757 77.5881 21.8133 77.2753 18.6936 78.0291Z" fill="#2F2E41"/>
<path d="M23.8624 60.1311C23.1981 59.5388 18.5303 57.712 18.5303 57.712C18.4444 57.7006 18.3574 57.7033 18.2724 57.7198C18.0067 57.7868 17.8855 58.1169 17.9423 58.3839C17.999 58.6508 17.5335 63.0377 17.4136 65.0325C17.2034 68.5142 19.2537 76.4008 19.2356 76.6419C19.1654 77.5019 18.7888 78.3081 18.1744 78.914C18.3341 79.1122 28.4762 79.5098 29.1661 79.7444C29.3053 79.5678 28.3808 67.0583 28.3382 66.3517C28.2673 65.2788 24.7392 60.9435 23.8624 60.1311Z" fill="#E6E6E6"/>
<path d="M16.6327 87.2749C16.8731 87.1553 17.0843 86.9845 17.2514 86.7744C17.4186 86.5643 17.5377 86.3202 17.6003 86.0591C17.6629 85.7981 17.6675 85.5264 17.6138 85.2634C17.5601 85.0004 17.4493 84.7523 17.2894 84.5367L21.5686 60.8544L17.5754 60.8018L14.6037 84.2205C14.2593 84.5132 14.0343 84.9221 13.9712 85.3697C13.9081 85.8173 14.0114 86.2724 14.2615 86.6489C14.5116 87.0254 14.8911 87.2971 15.3282 87.4125C15.7652 87.5279 16.2294 87.4789 16.6327 87.2749Z" fill="#FFB8B8"/>
<path d="M16.5935 62.6115C16.4269 62.6236 16.2611 62.5803 16.1217 62.4884C15.8841 62.285 17.8225 59.1721 18.2055 59.126C19.4516 58.9824 20.7337 58.9345 21.9423 59.2713C23.1508 59.608 24.2876 60.3739 24.8278 61.5072C25.0534 61.979 23.4175 64.3534 22.6739 64.0047C21.7833 63.5876 17.7661 62.6405 16.5935 62.6115Z" fill="#E6E6E6"/>
<path d="M20.9931 57.457C23.4703 57.457 25.4784 55.4488 25.4784 52.9716C25.4784 50.4945 23.4703 48.4863 20.9931 48.4863C18.516 48.4863 16.5078 50.4945 16.5078 52.9716C16.5078 55.4488 18.516 57.457 20.9931 57.457Z" fill="#FFB8B8"/>
<path d="M16.5908 60.3883C17.2141 60.4535 17.8438 60.3614 18.4223 60.1203C19.0008 59.8793 19.5096 59.497 19.9022 59.0085C20.2948 58.5201 20.5586 57.9409 20.6695 57.3241C20.7805 56.7073 20.7349 56.0725 20.5371 55.4779C20.3586 54.9412 20.0603 54.4493 19.8968 53.9079C19.7334 53.3665 19.7289 52.7263 20.0915 52.2923C20.8008 51.443 22.168 51.9772 23.2616 51.8084C24.4269 51.6285 25.3208 50.5106 25.4141 49.3352C25.5073 48.1598 24.8947 46.9967 23.9827 46.2494C23.0707 45.5021 21.8945 45.1341 20.7211 45.0188C19.2142 44.8708 17.6945 45.1132 16.3084 45.7227C14.9223 46.3323 13.7164 47.2884 12.807 48.4991C11.8976 49.7098 11.3151 51.1342 11.1158 52.6352C10.9165 54.1363 11.107 55.6634 11.669 57.0694C12.1592 58.296 12.9599 59.4385 14.0973 60.1102C15.2347 60.782 16.7369 60.911 17.8705 60.2329" fill="#2F2E41"/>
<path d="M64.6185 54.7851H53.1561C52.4282 54.7851 51.8359 53.9416 51.8359 52.9048C51.8359 51.8679 52.4282 51.0244 53.1561 51.0244H64.6185C65.3464 51.0244 65.9386 51.8679 65.9386 52.9048C65.9386 53.9416 65.3464 54.7851 64.6185 54.7851Z" fill="white"/>
<path d="M95.4262 58.8882H52.8616C52.5896 58.8882 52.3287 58.7802 52.1363 58.5878C51.944 58.3955 51.8359 58.1346 51.8359 57.8626C51.8359 57.5905 51.944 57.3297 52.1363 57.1373C52.3287 56.945 52.5896 56.8369 52.8616 56.8369H95.4262C95.6982 56.8369 95.9591 56.945 96.1514 57.1373C96.3438 57.3297 96.4518 57.5905 96.4518 57.8626C96.4518 58.1346 96.3438 58.3955 96.1514 58.5878C95.9591 58.7802 95.6982 58.8882 95.4262 58.8882Z" fill="#E6E6E6"/>
<path d="M73.5798 62.9908H52.8616C52.5896 62.9908 52.3287 62.8827 52.1363 62.6904C51.944 62.498 51.8359 62.2371 51.8359 61.9651C51.8359 61.6931 51.944 61.4322 52.1363 61.2399C52.3287 61.0475 52.5896 60.9395 52.8616 60.9395H73.5798C73.8518 60.9395 74.1127 61.0475 74.3051 61.2399C74.4974 61.4322 74.6055 61.6931 74.6055 61.9651C74.6055 62.2371 74.4974 62.498 74.3051 62.6904C74.1127 62.8827 73.8518 62.9908 73.5798 62.9908Z" fill="#E6E6E6"/>
<path d="M136.021 119.659H0.976562V120.001H136.021V119.659Z" fill="#3F3D56"/>
</g>
<defs>
<clipPath id="clip0_2495_36171">
<rect width="135.044" height="120" fill="white" transform="translate(0.976562)"/>
</clipPath>
</defs>
</svg>
